<svg width="50" height="50" viewBox="0 0 50 50" fill="none" xmlns="http://www.w3.org/2000/svg">
<path d="M36.9545 17.0867C36.8558 14.1479 36.5913 11.217 36.1768 8.30959C36.1255 7.95254 36.0702 7.59549 36.0149 7.23844C35.9636 6.90886 35.4385 6.9324 35.3675 7.23844C35.2135 7.92115 34.7556 8.45476 34.2344 8.90206C33.6818 9.37681 33.0619 9.77702 32.4342 10.1419C31.163 10.8913 29.805 11.472 28.4153 11.9664C25.5847 12.9787 22.6475 13.6653 19.8525 14.7796C18.4313 15.3486 17.0337 16.0156 15.8652 17.0122C14.7519 17.9656 13.9584 19.2212 13.5044 20.6023C12.5687 23.4665 13.1648 26.5427 14.5387 29.1597C14.5821 29.246 14.6295 29.3323 14.6769 29.4147C14.7756 29.4422 14.8624 29.505 14.9098 29.5992C15.0677 29.9327 15.3362 30.1602 15.5888 30.4192C15.652 30.274 15.723 30.1288 15.798 29.9915C15.7941 29.9837 15.7862 29.9758 15.7823 29.968C16.3942 29.0224 17.1048 28.1396 17.8865 27.3195C19.1774 25.962 20.6302 24.7692 22.1264 23.6431C23.67 22.4856 25.261 21.3949 26.8244 20.2609C28.3759 19.1349 29.9037 17.9656 31.3012 16.6551C31.5973 16.3766 31.8855 16.0941 32.1658 15.7998C31.7394 16.4354 31.2775 17.0475 30.7919 17.64C29.2997 19.4644 27.6021 21.1084 25.865 22.6897C24.1201 24.2787 22.3199 25.8089 20.6184 27.4451C19.9907 28.0493 19.3748 28.6693 18.7787 29.3049C18.6563 29.403 18.5339 29.5011 18.4115 29.5992C16.0033 31.5806 14.1123 34.1584 13.0148 37.0697C12.395 38.7137 12.0437 40.4558 12.0002 42.2136C11.9963 42.3274 12.0437 42.4137 12.1108 42.4647C12.1384 42.5353 12.1897 42.5981 12.2568 42.6452C12.7385 42.9944 13.2872 43.2533 13.8676 43.3985C14.1557 43.4691 14.4518 43.5123 14.7479 43.5319C15.0361 43.5476 15.652 43.5594 15.5375 43.2612C13.8636 38.8471 16.9942 31.5923 18.3286 33.4325C18.4628 33.6169 19.7972 34.1937 20.2986 34.4527C20.5947 34.6057 20.8987 34.7509 21.2066 34.8882C21.2658 34.9039 21.3211 34.9196 21.3803 34.9353C21.4869 34.9627 21.5935 34.9902 21.7001 35.0137C22.0672 35.1275 23.0779 35.3355 23.1489 35.2295C23.8674 35.2845 24.5938 35.2609 25.3044 35.1707C27.8705 34.8411 30.2195 33.6483 32.15 31.9572C33.0856 31.1372 33.9186 30.2034 34.6529 29.2029C35.4346 28.1396 36.1057 26.9742 36.4847 25.7069C36.8953 24.3415 36.9506 22.9015 36.9782 21.489C37.0137 20.0216 37.0058 18.5542 36.9545 17.0867Z" fill="white"/>
</svg>
