<svg width="50" height="65" viewBox="0 0 50 65" fill="none" xmlns="http://www.w3.org/2000/svg">
<g clip-path="url(#clip0_66_102)">
<path d="M8.12131 42.9094C8.42304 42.6077 8.83793 42.4316 9.27796 42.4316H49.1824C49.9116 42.4316 50.2762 43.3117 49.7608 43.8272L41.8779 51.71C41.5762 52.0117 41.1613 52.1877 40.7213 52.1877H0.816804C0.0876107 52.1877 -0.276986 51.3077 0.238478 50.7922L8.12131 42.9094Z" fill="url(#paint0_linear_66_102)"/>
<path d="M8.12131 13.4777C8.43561 13.176 8.8505 13 9.27796 13H49.1824C49.9116 13 50.2762 13.8801 49.7608 14.3955L41.8779 22.2784C41.5762 22.5801 41.1613 22.7561 40.7213 22.7561H0.816804C0.0876107 22.7561 -0.276986 21.876 0.238478 21.3606L8.12131 13.4777Z" fill="url(#paint1_linear_66_102)"/>
<path d="M41.8779 28.0993C41.5762 27.7976 41.1613 27.6216 40.7213 27.6216H0.816804C0.0876107 27.6216 -0.276986 28.5016 0.238478 29.0171L8.12131 36.8999C8.42304 37.2017 8.83793 37.3777 9.27796 37.3777H49.1824C49.9116 37.3777 50.2762 36.4976 49.7608 35.9822L41.8779 28.0993Z" fill="url(#paint2_linear_66_102)"/>
</g>
<defs>
<linearGradient id="paint0_linear_66_102" x1="45.3704" y1="8.29092" x2="17.7533" y2="61.1887" gradientUnits="userSpaceOnUse">
<stop stop-color="#00FFA3"/>
<stop offset="1" stop-color="#DC1FFF"/>
</linearGradient>
<linearGradient id="paint1_linear_66_102" x1="33.2947" y1="1.9865" x2="5.67764" y2="54.8843" gradientUnits="userSpaceOnUse">
<stop stop-color="#00FFA3"/>
<stop offset="1" stop-color="#DC1FFF"/>
</linearGradient>
<linearGradient id="paint2_linear_66_102" x1="39.2941" y1="5.1187" x2="11.6771" y2="58.0165" gradientUnits="userSpaceOnUse">
<stop stop-color="#00FFA3"/>
<stop offset="1" stop-color="#DC1FFF"/>
</linearGradient>
<clipPath id="clip0_66_102">
<rect width="50" height="39.1878" fill="white" transform="translate(0 13)"/>
</clipPath>
</defs>
</svg>
