<svg width="50" height="65" viewBox="0 0 50 65" fill="none" xmlns="http://www.w3.org/2000/svg">
<path d="M25.004 56.4215C38.8089 56.4215 49.9982 45.582 49.996 32.2107C49.9937 18.8395 38.8008 8 24.996 8C11.1911 8 0.00180889 18.8395 0.00404028 32.2107C0.00627166 45.582 11.1992 56.4215 25.004 56.4215Z" fill="#DEDEDE"/>
<path d="M25.001 53.4873C37.1345 53.4873 46.9707 43.9617 46.9707 32.2112C46.9707 20.4607 37.1345 10.9351 25.001 10.9351C12.8674 10.9351 3.03125 20.4607 3.03125 32.2112C3.03125 43.9617 12.8674 53.4873 25.001 53.4873Z" fill="black"/>
<path d="M24.9651 26.1723C27.2207 26.1723 29.0493 24.4039 29.0493 22.2226C29.0493 20.0413 27.2207 18.2729 24.9651 18.2729C22.7094 18.2729 20.8809 20.0413 20.8809 22.2226C20.8809 24.4039 22.7094 26.1723 24.9651 26.1723Z" fill="#DEDEDE"/>
<path d="M18.8418 22.7478L31.0944 20.7729" stroke="#DEDEDE"/>
<path d="M25.4788 35.0584C26.3247 35.0584 27.0104 34.3953 27.0104 33.5773C27.0104 32.7593 26.3247 32.0962 25.4788 32.0962C24.633 32.0962 23.9473 32.7593 23.9473 33.5773C23.9473 34.3953 24.633 35.0584 25.4788 35.0584Z" fill="#DEDEDE"/>
<path d="M39.7713 24.1979C40.0532 24.1979 40.2818 23.9768 40.2818 23.7042C40.2818 23.4315 40.0532 23.2104 39.7713 23.2104C39.4893 23.2104 39.2607 23.4315 39.2607 23.7042C39.2607 23.9768 39.4893 24.1979 39.7713 24.1979Z" fill="#DEDEDE"/>
<path d="M37.1335 34.98C37.265 34.98 37.3715 34.8767 37.3715 34.7493C37.3715 34.6219 37.265 34.5186 37.1335 34.5186C37.0021 34.5186 36.8955 34.6219 36.8955 34.7493C36.8955 34.8767 37.0021 34.98 37.1335 34.98Z" fill="#DEDEDE"/>
<path d="M7.14914 32.6724C7.28059 32.6724 7.38714 32.5691 7.38714 32.4417C7.38714 32.3142 7.28059 32.2109 7.14914 32.2109C7.01769 32.2109 6.91113 32.3142 6.91113 32.4417C6.91113 32.5691 7.01769 32.6724 7.14914 32.6724Z" fill="#DEDEDE"/>
<path d="M21.4294 15.1372C21.5608 15.1372 21.6674 15.0339 21.6674 14.9065C21.6674 14.7791 21.5608 14.6758 21.4294 14.6758C21.298 14.6758 21.1914 14.7791 21.1914 14.9065C21.1914 15.0339 21.298 15.1372 21.4294 15.1372Z" fill="#DEDEDE"/>
<path d="M27.1423 43.7471C27.2737 43.7471 27.3803 43.6438 27.3803 43.5164C27.3803 43.3889 27.2737 43.2856 27.1423 43.2856C27.0108 43.2856 26.9043 43.3889 26.9043 43.5164C26.9043 43.6438 27.0108 43.7471 27.1423 43.7471Z" fill="#DEDEDE"/>
<path d="M22.4119 49.8707C22.6938 49.8707 22.9224 49.6497 22.9224 49.377C22.9224 49.1043 22.6938 48.8833 22.4119 48.8833C22.1299 48.8833 21.9014 49.1043 21.9014 49.377C21.9014 49.6497 22.1299 49.8707 22.4119 49.8707Z" fill="#DEDEDE"/>
<path d="M37.2199 45.9209C38.3477 45.9209 39.262 45.0367 39.262 43.946C39.262 42.8554 38.3477 41.9712 37.2199 41.9712C36.092 41.9712 35.1777 42.8554 35.1777 43.946C35.1777 45.0367 36.092 45.9209 37.2199 45.9209Z" fill="#DEDEDE"/>
<path d="M13.1607 42.0447C13.7246 42.0447 14.1818 41.6026 14.1818 41.0572C14.1818 40.5119 13.7246 40.0698 13.1607 40.0698C12.5968 40.0698 12.1396 40.5119 12.1396 41.0572C12.1396 41.6026 12.5968 42.0447 13.1607 42.0447Z" fill="#DEDEDE"/>
<path d="M13.7369 27.1599C14.3008 27.1599 14.7579 26.7178 14.7579 26.1725C14.7579 25.6271 14.3008 25.1851 13.7369 25.1851C13.173 25.1851 12.7158 25.6271 12.7158 26.1725C12.7158 26.7178 13.173 27.1599 13.7369 27.1599Z" fill="#DEDEDE"/>
</svg>
