<svg width="40" height="41" viewBox="0 0 40 41" fill="none" xmlns="http://www.w3.org/2000/svg">
<g opacity="0.79">
<path d="M30.3733 37.0895C30.5226 36.9962 30.6718 36.9029 30.8211 36.8096H30.4293C30.336 36.8096 30.2427 36.8096 30.1494 36.8096C30.0748 36.8096 30.0002 36.8096 29.9255 36.8096C28.8435 36.7536 27.78 36.5111 26.7166 36.3805C26.642 36.3805 26.5673 36.3805 26.4927 36.3619C26.4554 36.3619 26.3994 36.3619 26.3621 36.3619H26.3435C26.3435 36.3619 26.3248 36.3619 26.3061 36.3619C25.6532 36.3245 25.0002 36.3245 24.3472 36.3619C24.3099 36.3619 24.2539 36.3619 24.2166 36.3619C24.142 36.3619 24.086 36.3619 24.03 36.3619C23.9927 36.3619 23.9741 36.3619 23.9367 36.3619C23.7688 36.3619 23.6009 36.3805 23.433 36.3805C23.4144 36.3805 23.3957 36.3805 23.377 36.3805C23.2464 36.3992 23.1158 36.3991 22.9852 36.4178C22.9106 36.4178 22.836 36.4365 22.7614 36.4365C22.6867 36.4365 22.6121 36.4551 22.5375 36.4551C22.3509 36.4738 22.1644 36.4924 21.9778 36.5111C21.8845 36.5297 21.7912 36.5298 21.6979 36.5298C21.5673 36.5484 21.4367 36.5484 21.3061 36.5671C21.2315 36.5671 21.1569 36.5857 21.0823 36.5857C20.9703 36.5857 20.8584 36.6044 20.7278 36.6044C20.6718 36.6044 20.6158 36.6044 20.5599 36.623C20.28 36.6417 20.0002 36.6604 19.7203 36.6604C17.4629 36.6417 15.2054 36.3432 13.0039 35.8581C12.7427 35.8394 12.4815 35.8208 12.239 35.8208C12.1644 35.8208 12.0711 35.8208 11.9964 35.8208C11.9032 35.8208 11.7912 35.8208 11.6979 35.8208C11.5487 35.8208 11.3808 35.8208 11.2315 35.8208C10.1494 35.8395 9.06734 35.9514 8.00391 35.9701C9.086 36.791 10.2614 37.4999 11.5114 38.0783C11.6233 38.0969 11.7352 38.0969 11.8472 38.1156C11.8658 38.1156 11.9032 38.1156 11.9218 38.1156C12.0151 38.1156 12.127 38.1342 12.239 38.1342C12.836 38.1716 13.433 38.2089 14.0487 38.2275C14.086 38.2275 14.142 38.2275 14.1979 38.2275H14.2166C14.3099 38.2275 14.4032 38.2275 14.4964 38.2275C14.9255 38.2275 15.3733 38.2275 15.8024 38.2089C16.0263 38.2089 16.2502 38.2089 16.4554 38.1902C16.6793 38.1902 16.9032 38.1902 17.1084 38.1715C17.3509 38.1715 17.5935 38.1529 17.836 38.1529C18.0785 38.1529 18.3211 38.1529 18.5636 38.1342C20.0188 38.0969 21.4741 38.0596 22.9293 37.985C23.4144 37.9663 23.8994 37.9477 24.3845 37.929C25.8584 37.873 27.3323 37.7984 28.7875 37.7238H29.142C29.5524 37.5745 29.9629 37.3507 30.3733 37.0895Z" fill="black" fill-opacity="0.01"/>
<path d="M2.83598 8.99268C2.78001 9.10462 2.70538 9.19791 2.64941 9.30985C2.70538 9.17926 2.76135 9.08596 2.83598 8.99268Z" fill="black" fill-opacity="0.01"/>
<path d="M33.0409 4.81348C33.0409 4.81348 33.0223 4.81348 33.0036 4.81348C32.9849 4.81348 32.9476 4.83213 32.929 4.83213C32.929 4.83213 32.929 4.83212 32.929 4.85078C32.929 4.85078 32.9103 4.85078 32.8917 4.85078C32.8543 4.85078 32.817 4.86943 32.7797 4.86943H32.7424C32.7424 4.86943 32.7424 4.86943 32.7238 4.86943H32.7051C32.7051 4.86943 32.6864 4.86943 32.6678 4.86943C32.6305 4.88809 32.6118 4.88809 32.5932 4.88809C32.5372 4.90674 32.4999 4.90676 32.4439 4.92541H32.4066C32.3133 4.94407 32.2387 4.96271 32.1454 4.98137C30.4103 5.22391 29.0297 6.32466 27.4812 6.9963C27.0335 7.20153 26.6043 7.46273 26.1006 7.5187C26.082 7.5187 26.0446 7.5187 26.026 7.5187H26.0073C25.97 7.5187 25.9327 7.5187 25.8954 7.5187C24.9812 7.55601 24.0857 7.44407 23.1902 7.5187C23.1342 7.5187 23.0596 7.53735 23.0036 7.53735C22.9103 7.53735 22.817 7.556 22.7237 7.57466C22.6678 7.59331 22.6305 7.59333 22.5745 7.61198C21.6976 7.74258 20.8581 8.02243 19.9812 8.19034C18.8618 8.35825 17.7611 8.43288 16.6603 8.56347C16.4924 8.58213 16.3432 8.60077 16.1752 8.61943C15.429 8.6754 14.664 8.78735 13.9178 8.84332C13.7312 8.86198 13.5446 8.86198 13.3581 8.86198C13.2835 8.86198 13.2088 8.84332 13.1342 8.84332C13.0782 8.84332 13.0409 8.82467 12.9849 8.82467C12.9476 8.80601 12.8917 8.806 12.8543 8.78734C12.5932 8.73137 12.3506 8.65675 12.1081 8.58212C12.0708 8.56347 12.0335 8.56348 11.9775 8.54482C11.9215 8.52616 11.8655 8.52615 11.8096 8.50749C11.7349 8.48884 11.6603 8.47019 11.5857 8.47019C10.7088 8.28362 9.88793 8.6754 9.04838 8.78734C7.79838 8.9366 6.54838 9.06719 5.29838 9.06719C5.20509 9.06719 5.09315 9.04854 4.99987 9.04854C4.86927 9.04854 4.73868 9.02989 4.60808 9.02989C4.51479 9.02989 4.44017 9.01124 4.34688 9.01124H4.21629C4.17897 8.99258 4.123 8.99256 4.08569 8.99256C4.04838 8.99256 4.01106 9.01122 3.97375 8.99256C3.93644 8.97391 3.89912 8.97391 3.86181 8.97391C3.78718 8.97391 3.71256 8.95526 3.63793 8.95526C3.5633 8.95526 3.48868 8.93661 3.41405 8.93661C3.39539 8.93661 3.37673 8.93661 3.35808 8.93661C3.33942 8.93661 3.32076 8.93661 3.32076 8.93661C3.22748 9.0672 3.15285 9.1978 3.05957 9.32839H3.60062C4.3842 9.36571 5.16778 9.44033 5.95136 9.34705C6.21256 9.32839 6.45509 9.30975 6.71629 9.29109C6.97748 9.27243 7.23867 9.25377 7.48121 9.21646C7.64912 9.1978 7.81703 9.17913 7.98494 9.17913C9.32823 9.06719 10.6902 8.97392 12.0148 9.23511C12.0708 9.27242 12.1454 9.29108 12.2014 9.30974C12.332 9.34705 12.4626 9.40302 12.5932 9.42168C12.7237 9.45899 12.8543 9.47765 13.0036 9.49631C14.0297 9.6269 15.0745 9.38437 16.082 9.12317C16.9961 8.89929 17.9103 8.71272 18.8432 8.67541C19.1043 8.65675 19.3655 8.65675 19.6081 8.67541C20.9887 8.69406 22.3693 8.84331 23.7312 8.60078C25.0185 8.39555 26.1006 7.5187 27.4066 7.42542C27.4812 7.40676 27.5558 7.40674 27.6491 7.40674C27.7984 7.38809 27.9476 7.36944 28.0969 7.36944C29.1417 7.29481 30.1864 7.27615 31.2126 6.9963C31.3058 6.97765 31.3805 6.95899 31.4551 6.92167C31.5111 6.90302 31.5857 6.8657 31.6417 6.84704C31.7163 6.82838 31.7723 6.80975 31.8469 6.77243C31.9215 6.73512 31.9775 6.71646 32.0521 6.67915C32.2014 6.62318 32.3506 6.54853 32.4999 6.47391C32.5372 6.45525 32.5932 6.41795 32.6491 6.3993C32.7051 6.36198 32.7611 6.34333 32.817 6.30601C32.8543 6.28736 32.9103 6.25004 32.9476 6.23138C32.9663 6.21273 32.9849 6.21271 33.0036 6.19406C33.0596 6.15674 33.1155 6.13809 33.1715 6.10077C33.2275 6.06346 33.3021 6.02615 33.3581 5.98884C33.414 5.95152 33.4514 5.93287 33.5073 5.89555C33.526 5.8769 33.5633 5.85825 33.582 5.8396C33.6006 5.82094 33.6193 5.82092 33.6193 5.82092C33.6566 5.80226 33.6939 5.78363 33.7312 5.74631C33.7685 5.72766 33.8058 5.70899 33.8245 5.69033C33.8245 5.69033 33.8432 5.67168 33.8618 5.67168C33.8805 5.67168 33.8805 5.65303 33.8991 5.65303C33.6193 5.37318 33.3208 5.09332 33.0036 4.83213C33.0596 4.83213 33.0409 4.83213 33.0409 4.81348Z" fill="black" fill-opacity="0.01"/>
<path d="M31.2318 36.5486C31.2318 36.5486 31.2505 36.53 31.2692 36.53C31.4557 36.3994 31.6609 36.2688 31.8475 36.1195C32.3699 35.7464 32.855 35.3359 33.34 34.9068C32.8923 34.9441 32.4445 34.9441 31.9968 34.9441H31.8475C31.7356 34.9255 31.6423 34.9255 31.5303 34.9255C30.7095 34.8508 29.8699 34.7762 29.049 34.7016C28.4147 34.6083 27.7617 34.4964 27.1274 34.5523C26.5677 34.5897 25.9893 34.6456 25.4296 34.7762C24.6274 35.0188 23.8251 35.2613 22.9856 35.2053C22.5005 35.2053 22.0341 35.1307 21.5677 35.0747C20.5602 35.0188 19.5714 34.9628 18.6199 34.6083C17.3512 34.1792 16.0453 33.8061 14.702 33.8434C13.8811 33.8807 13.1162 34.1792 12.3326 34.4031C10.1684 34.7762 8.04154 33.6195 5.87736 34.03C5.8587 34.03 5.82139 34.03 5.80273 34.0486C6.34378 34.5897 6.92214 35.1121 7.51915 35.5971C7.51915 35.6158 7.51915 35.6344 7.53781 35.6344C7.55647 35.6718 7.59378 35.6718 7.63109 35.6904C7.64975 35.7091 7.66841 35.7091 7.66841 35.7277H7.78035C8.82512 35.6904 9.8699 35.5971 10.9147 35.5785C11.3438 35.5598 11.7542 35.5598 12.1833 35.5785C12.9856 35.5785 13.7505 35.8023 14.5341 35.9516C15.8587 36.1941 17.1833 36.3434 18.508 36.3994C19.1609 36.4367 19.8139 36.4367 20.4669 36.3994C21.2132 36.362 21.9781 36.2874 22.7244 36.2128C23.7692 36.1195 24.7953 36.0449 25.84 36.1009C26.7729 36.1009 27.7057 36.3061 28.6199 36.4367C29.4968 36.5673 30.3736 36.5859 31.2318 36.5486Z" fill="black" fill-opacity="0.3"/>
<path d="M39.0107 26.2128C39.0293 26.1755 39.0293 26.1569 39.048 26.1196C39.0107 26.1196 38.9547 26.1382 38.9174 26.1382C37.8913 26.3061 36.3801 26.9218 35.4099 26.3248C35.298 26.2502 35.186 26.1755 35.0928 26.0636C34.9062 25.8397 34.9248 25.5225 34.8502 25.2614C34.8316 25.1867 34.8129 25.1308 34.7943 25.0748C34.701 24.8136 34.5144 24.5711 34.3465 24.3472C34.104 24.0113 33.7495 23.8061 33.395 23.6196C33.2271 23.5822 33.0405 23.5636 32.8726 23.5449C32.1637 23.5076 31.4547 23.7128 30.8017 23.974C30.186 24.2166 29.589 24.4778 29.0853 24.8882C28.5256 25.2987 28.0405 25.7464 27.5741 26.2501C27.4808 26.3621 27.3875 26.474 27.2756 26.586C27.2569 26.6046 27.2569 26.6046 27.2383 26.6233C27.1823 26.6792 27.145 26.7166 27.1077 26.7539C27.089 26.7725 27.0704 26.7912 27.0517 26.8098C27.0331 26.8285 27.0144 26.8472 26.9957 26.8658C26.9957 26.8845 26.9771 26.8845 26.9584 26.9031C26.9398 26.9031 26.9398 26.9031 26.9398 26.9031C26.9211 26.9031 26.9025 26.9218 26.8838 26.9405C26.8838 26.9591 26.8651 26.9591 26.8465 26.9778C26.7905 27.0151 26.7532 27.0524 26.6972 27.071C26.7159 27.071 26.7159 27.071 26.7159 27.071C26.7159 27.0897 26.7159 27.0897 26.7159 27.0897V27.127C26.7159 27.1643 26.6972 27.183 26.6786 27.2017C26.6599 27.2203 26.6413 27.239 26.6226 27.2576C26.604 27.2763 26.548 27.2763 26.548 27.239C25.8577 27.6494 25.1301 28.0225 24.4025 28.3957C23.5629 28.7501 22.6301 28.8248 21.7346 28.7875C20.4659 28.7315 19.2532 28.3584 18.0032 28.2091C17.0517 28.1904 16.0816 28.2464 15.1114 28.1718C14.1786 28.1345 13.2457 27.9479 12.3129 27.7987C9.23455 27.239 6.17485 26.6793 3.05918 26.3621C2.98455 26.3434 2.89127 26.3434 2.81664 26.3248C2.74201 26.3248 2.66739 26.3061 2.59276 26.3061C2.51813 26.3061 2.44351 26.2875 2.36888 26.2875C2.20097 26.2688 2.05171 26.2502 1.8838 26.2315H1.80918C1.79052 26.2315 1.79052 26.2315 1.77186 26.2315C1.69724 26.2315 1.64127 26.2128 1.56664 26.2128C1.49201 26.2128 1.43604 26.1942 1.36142 26.1942C1.34276 26.1942 1.34276 26.1942 1.3241 26.1942C1.28679 26.1755 1.23082 26.1755 1.1935 26.1755C1.17485 26.1755 1.17485 26.1755 1.17485 26.1755C1.11888 26.1755 1.06291 26.1569 0.988281 26.1569C0.988281 26.1755 1.00694 26.2128 1.00694 26.2315C1.1935 26.7912 1.39873 27.3322 1.62261 27.8733C1.67858 28.0225 1.75321 28.1531 1.80918 28.3024C2.03306 28.2837 2.27559 28.2837 2.49947 28.2651C2.59276 28.2464 2.7047 28.2464 2.79798 28.2464C4.55171 28.1905 6.30544 28.1904 8.02186 28.5822C8.1338 28.6009 8.24574 28.6196 8.35768 28.6382C9.3838 28.8434 10.3913 29.086 11.3987 29.3099C12.1263 29.4591 12.854 29.6084 13.5816 29.7203C13.8054 29.7576 14.048 29.7763 14.2719 29.8136C14.7943 29.8882 15.298 29.9442 15.8204 29.8696C16.9211 29.7203 18.0219 29.739 19.0666 30.0748C19.2346 30.1307 19.4211 30.1681 19.589 30.224C20.4099 30.4666 21.2308 30.7278 22.089 30.5785C23.0592 30.4106 23.9547 30.0188 24.9062 29.7576C25.5592 29.6457 26.2122 29.3472 26.8651 29.4778C27.9472 29.9628 29.0853 30.2987 30.298 30.1494C30.9883 30.0748 31.6786 30.0934 32.3502 29.9069C33.0965 29.6084 33.8054 29.2725 34.4584 28.8248C34.5704 28.7688 34.6823 28.6569 34.7943 28.6009C34.8129 28.6009 34.8316 28.6382 34.8316 28.6569C34.8129 28.6755 34.7943 28.6755 34.7943 28.6942C34.4957 28.9554 34.1599 29.1606 33.8054 29.3472C33.6189 29.4591 33.451 29.5524 33.2644 29.6643H33.2831C33.3017 29.6457 33.339 29.6457 33.3577 29.627C33.5816 29.4964 33.7868 29.3658 34.0107 29.2539C34.104 29.2166 34.1972 29.1792 34.2905 29.1419C34.7196 28.9554 35.186 28.8061 35.6525 28.7315C36.4174 28.5636 37.2196 28.6755 37.9845 28.6196C38.0219 28.6196 38.0405 28.6196 38.0778 28.6009C38.2271 28.3024 38.3577 28.0039 38.4883 27.6867C38.6748 27.2017 38.8614 26.7166 39.0107 26.2128ZM34.3465 26.5673C34.3278 26.8099 34.2905 27.0711 34.1972 27.2949C34.1786 27.3136 34.1786 27.3322 34.1599 27.3509C34.1226 27.4255 34.0853 27.5002 34.0293 27.5748C33.7868 27.9852 33.5816 28.433 33.2084 28.7315C33.1711 28.7688 33.1151 28.8061 33.0592 28.8434C32.9472 28.9367 32.8166 29.0114 32.686 29.0673C32.6301 29.1046 32.5741 29.1233 32.4995 29.1419C32.1077 29.2912 31.6972 29.3845 31.2681 29.4218C30.7831 29.4591 30.298 29.4591 29.8129 29.4778C29.6077 29.4778 29.4025 29.4964 29.1972 29.5151C28.6935 29.4964 28.1711 29.3285 27.7607 29.0113C27.4808 28.7315 27.3502 28.3211 27.4808 27.9479V27.9292C27.5181 27.836 27.5741 27.7427 27.6301 27.6681C27.6301 27.6494 27.6487 27.6494 27.6487 27.6494C27.5554 27.6681 27.4622 27.7987 27.3875 27.7054C27.3875 27.7054 27.3875 27.7054 27.3875 27.6867C27.3875 27.6681 27.3875 27.6494 27.4062 27.6307C27.5368 27.5375 27.7047 27.5188 27.8353 27.4255L27.854 27.4069C28.0032 27.239 28.1711 27.127 28.2831 26.9405C28.5442 26.7539 28.8054 26.5673 29.0107 26.3248C29.0666 26.2688 29.104 26.2128 29.1599 26.1382C29.645 25.6158 30.1487 25.0934 30.8204 24.7949C31.1375 24.627 31.4547 24.5151 31.7905 24.4778C31.8278 24.4778 31.8838 24.4591 31.9211 24.4591C32.4622 24.4218 33.0219 24.5711 33.5629 24.9069C33.6002 24.9255 33.6375 24.9442 33.6749 24.9815C33.6935 24.9815 33.7122 25.0002 33.7308 25.0188C33.7495 25.0188 33.7495 25.0375 33.7681 25.0375C33.7868 25.0561 33.8054 25.0748 33.8241 25.0934L33.8428 25.1121C33.8428 25.1121 33.8428 25.1121 33.8614 25.1307C33.8801 25.1494 33.8987 25.1681 33.9174 25.1867C33.936 25.224 33.9734 25.2427 33.992 25.28C34.0107 25.3173 34.0293 25.336 34.0666 25.3733C34.0853 25.4106 34.104 25.4293 34.1226 25.4666C34.1413 25.5039 34.1599 25.5412 34.1786 25.5599C34.1972 25.5785 34.1972 25.5972 34.2159 25.6158V25.6345C34.2346 25.6718 34.2345 25.6905 34.2532 25.7278C34.2532 25.7278 34.2532 25.7464 34.2719 25.7651V25.7837C34.2905 25.8397 34.3092 25.877 34.3092 25.933C34.3092 25.9516 34.3092 25.9703 34.3278 25.9703C34.3278 26.0076 34.3465 26.0636 34.3465 26.1009C34.3465 26.1382 34.3651 26.1942 34.3651 26.2315C34.3651 26.2688 34.3651 26.2875 34.3651 26.3248C34.3651 26.3621 34.3651 26.3994 34.3651 26.4181C34.3465 26.4927 34.3465 26.53 34.3465 26.5673Z" fill="black" fill-opacity="0.3"/>
<path d="M39.6453 16.1565C39.4027 16.2497 39.1602 16.3617 38.9363 16.455C38.899 16.4736 38.8617 16.4736 38.8244 16.4923C38.7684 16.5109 38.6938 16.5296 38.6378 16.5669C38.6005 16.5856 38.5632 16.5856 38.5259 16.6042C38.3766 16.6602 38.2274 16.6975 38.0781 16.7348C38.0408 16.7535 38.0035 16.7535 37.9475 16.7721C37.8915 16.7908 37.8356 16.8094 37.7796 16.8094C37.0147 16.9587 36.2684 17.2012 35.5221 17.3878C34.9811 17.5184 34.4214 17.6303 33.8617 17.649C33.0595 17.6863 32.2386 17.5184 31.4363 17.4811C30.7087 17.4064 29.9998 17.4811 29.3095 17.6303C28.7311 17.7609 28.1527 17.9288 27.5744 18.0968C27.3505 18.19 27.108 18.2833 26.8654 18.3766C25.6154 18.8244 24.3281 19.1602 23.0035 19.2162C22.6117 19.2348 22.2386 19.2348 21.8468 19.1975C20.3169 19.0296 18.7498 19.2162 17.2012 19.0482C16.1565 18.9923 15.0557 19.0109 14.0109 19.1229C12.3878 19.44 10.6901 19.7012 9.04826 19.2908C8.0408 19.0669 7.01468 18.7871 6.04453 18.4512C5.46617 18.246 4.90647 17.9102 4.2908 17.7609C4.0296 17.6863 3.76841 17.6303 3.48856 17.5557C2.42513 17.2945 1.32438 17.108 0.223633 17.0706C0.223633 17.0147 0.24229 16.9587 0.24229 16.9027C0.260947 16.8094 0.279603 16.6975 0.29826 16.6042C0.4102 15.9512 0.559454 15.2982 0.727364 14.6826C0.727364 14.6639 0.727364 14.6639 0.727364 14.6453C0.783334 14.6639 0.820648 14.6639 0.876618 14.6826C0.876618 14.6826 0.876618 14.6826 0.895275 14.6826C0.932589 14.7012 0.988558 14.7012 1.02587 14.7199C1.08184 14.7386 1.11916 14.7385 1.17513 14.7572C1.21244 14.7759 1.24975 14.7759 1.28707 14.7945C1.30572 14.7945 1.32438 14.8132 1.34304 14.8132C1.38035 14.8318 1.41766 14.8505 1.45498 14.8505C2.08931 15.1117 2.76095 15.3729 3.45125 15.4288C5.09304 15.5781 6.73483 15.149 8.35796 15.5408C9.49602 15.746 10.6341 16.0632 11.7348 16.4177C12.7236 16.7162 13.6938 17.108 14.7386 17.1639C15.2983 17.1266 15.8953 17.2012 16.4177 16.9774C16.5669 16.8841 16.6602 16.6975 16.6042 16.5109C16.5483 16.3057 16.399 16.1378 16.2124 15.9885C15.7833 15.6527 15.093 15.5035 14.6453 15.4475C13.6192 15.2609 12.5371 15.1303 11.5296 15.3729C11.3804 15.4102 11.2311 15.4848 11.0632 15.4662C10.9512 15.4475 10.8766 15.3729 10.7833 15.3169C10.7647 15.2982 10.746 15.2983 10.7274 15.2796C11.3057 14.8318 11.996 14.6266 12.705 14.5706C13.246 14.5147 13.8057 14.552 14.3281 14.6266C15.3729 14.7759 16.343 15.205 17.3692 15.4475C19.4401 15.9886 21.0445 15.8393 23.0221 15.0744C24.3841 14.7759 25.746 14.2535 27.1453 14.2348C27.9475 14.2162 28.6938 14.5333 29.4774 14.6639C30.7647 14.7945 32.0707 14.3281 33.0781 13.5445C33.1714 13.4699 33.2647 13.4139 33.358 13.3393C34.7386 12.3505 36.2311 11.399 37.9289 11.1191C37.9289 11.1378 37.9475 11.1378 37.9475 11.1565C37.9475 11.1751 37.9662 11.1751 37.9662 11.1938C38.1154 11.4923 38.246 11.7908 38.3766 12.0893C38.6751 12.7796 38.9363 13.4699 39.1415 14.1975C39.3468 14.8318 39.5147 15.4848 39.6453 16.1565Z" fill="black" fill-opacity="0.3"/>
<path d="M30.8581 3.19016C30.1678 2.7424 29.4589 2.35061 28.7126 1.99613C28.0223 1.66031 27.3133 1.36181 26.5857 1.11927C26.5484 1.10062 26.5111 1.08197 26.4738 1.08197C26.0447 0.932714 25.5969 0.802103 25.1492 0.671506C25.0186 0.634193 24.8693 0.596884 24.7387 0.55957C24.6827 0.596884 24.6454 0.61554 24.5895 0.652854C24.5335 0.690167 24.4589 0.727476 24.3842 0.76479C21.6417 2.27598 18.4514 2.64913 15.4103 3.22749C15.429 3.22749 15.429 3.22749 15.429 3.22749C13.1715 3.67525 10.8954 3.63794 8.6193 3.69391C8.56333 3.69391 8.50736 3.69391 8.45139 3.69391C8.41408 3.71256 8.37676 3.7312 8.35811 3.76852C7.61184 4.2909 6.92154 4.88793 6.2499 5.5036C5.83945 5.89539 5.46632 6.28719 5.09318 6.69763C5.07453 6.71629 5.05587 6.75361 5.01855 6.77227C5.03721 6.77227 5.03721 6.77227 5.05587 6.77227C5.18646 6.77227 5.31706 6.75359 5.44766 6.75359C5.76482 6.75359 6.08199 6.73494 6.39915 6.71629C6.52975 6.69763 6.66035 6.69763 6.79094 6.69763C7.05214 6.67898 7.31333 6.67898 7.57452 6.67898C8.65661 6.60436 9.72005 6.47375 10.8021 6.52972C12.985 6.64166 15.1492 7.16405 17.332 6.97749C20.2984 6.7536 23.0969 5.69017 25.9327 4.9439C27.3693 4.49614 28.8618 4.123 30.2611 3.54465C30.4663 3.4327 30.6715 3.3021 30.8581 3.19016C30.8768 3.19016 30.8768 3.19016 30.8581 3.19016Z" fill="black" fill-opacity="0.3"/>
<path d="M34.4586 6.15663C34.44 6.17529 34.4213 6.17528 34.4026 6.19394L34.384 6.21261C34.3467 6.24992 34.3094 6.26858 34.272 6.30589C34.2347 6.34321 34.1974 6.36186 34.1601 6.39918C34.1228 6.43649 34.0668 6.45515 34.0295 6.49246C34.0295 6.49246 34.0295 6.49246 34.0108 6.51111C33.9922 6.52977 33.9922 6.52977 33.9735 6.52977C33.8429 6.62305 33.731 6.69768 33.6004 6.77231C33.5631 6.79097 33.5258 6.82826 33.4885 6.84692C33.4511 6.86558 33.3952 6.90289 33.3579 6.92155C33.3392 6.94021 33.3205 6.94022 33.3019 6.95888C33.2086 7.01485 33.1153 7.05215 33.022 7.10812C32.9661 7.12678 32.9288 7.16409 32.8728 7.18275C32.8168 7.20141 32.7795 7.22007 32.7235 7.25738C32.6676 7.27604 32.6116 7.29468 32.5743 7.31334C31.0071 7.79841 29.3653 8.09692 27.7235 8.15289C27.0332 8.28349 26.4176 8.61932 25.8019 8.93649C24.9996 9.27231 24.1414 9.47752 23.2646 9.55214C22.5556 9.58946 21.8467 9.47753 21.1191 9.42156C19.7758 9.36559 18.3952 9.34693 17.0705 9.58947C15.8765 9.81335 14.7011 10.3171 13.4698 10.1678C11.9773 10.2238 10.5594 9.7014 9.08547 9.72006H7.9101C7.63025 9.72006 7.36905 9.73873 7.0892 9.75739C6.60413 9.77604 6.13771 9.79469 5.65264 9.81334C5.55935 9.81334 5.48472 9.81334 5.39144 9.832C5.20487 9.832 5.01831 9.85067 4.83174 9.85067C4.64517 9.85067 4.43995 9.86932 4.25338 9.86932C3.97353 9.86932 3.69368 9.88797 3.41383 9.88797H2.74219C2.81681 9.75738 2.89144 9.62679 2.98472 9.49619C2.98472 9.49619 2.98472 9.47754 3.00338 9.47754H3.78696C4.38398 9.49619 4.99965 9.57081 5.59666 9.51484C7.36905 9.42156 9.1601 9.25365 10.9325 9.30962C11.3056 9.34693 11.7161 9.40291 12.0892 9.47754C12.537 9.6641 13.0407 9.77604 13.5444 9.77604C15.4101 9.81335 17.1452 8.89916 19.0108 8.89916C20.8952 8.84319 22.8168 9.21632 24.6452 8.61931C25.3728 8.35811 26.0631 7.98498 26.8094 7.7611C28.2646 7.44394 29.7944 7.61185 31.2497 7.22005C32.2758 6.9402 33.2273 6.39918 34.1041 5.83948C34.1041 5.83948 34.1228 5.83946 34.1228 5.8208C34.1414 5.83946 34.1414 5.83948 34.1414 5.83948C34.2534 5.95142 34.3467 6.04469 34.4586 6.15663Z" fill="black" fill-opacity="0.3"/>
<path d="M38.4515 26.0821C38.4888 26.0821 38.5261 26.0635 38.5634 26.0635C38.6008 26.0635 38.6381 26.0448 38.6754 26.0448C38.7873 26.0261 38.8993 26.0075 39.0112 25.9888C39.0485 25.9888 39.0672 25.9888 39.0858 25.9702C39.0858 25.9515 39.1045 25.9142 39.1045 25.8956C39.4403 24.8135 39.6829 23.6941 39.8321 22.5373L39.8134 22.5187C39.7948 22.5 39.8134 22.4814 39.8321 22.4627H39.8508C39.8508 22.4441 39.8508 22.4254 39.8508 22.4067C39.7388 22.4254 39.6455 22.4627 39.5523 22.4814C39.5709 22.5 39.5709 22.5 39.5709 22.5187C39.5709 22.5373 39.5336 22.556 39.5149 22.556C39.4963 22.556 39.4776 22.5187 39.4776 22.5C39.4776 22.4814 39.4776 22.4814 39.4776 22.4814C39.3843 22.5 39.3097 22.5187 39.2351 22.5373C39.2164 22.5373 39.2164 22.5373 39.2164 22.5373C39.1978 22.5187 39.1978 22.5187 39.1978 22.5C39.1978 22.5 39.1978 22.5 39.1978 22.4814C39.1791 22.5 39.1791 22.5 39.1605 22.5C39.1418 22.5 39.1045 22.5 39.0858 22.5187C39.0672 22.5187 39.0299 22.5373 39.0112 22.5373C38.9366 22.556 38.862 22.5933 38.7873 22.612C38.7127 22.6493 38.6194 22.6679 38.5448 22.6866C37.9291 22.8358 37.2761 22.9851 36.6418 22.9664C35.6903 23.0038 34.8134 22.5373 33.8806 22.5747C32.7239 22.5 31.5858 22.7612 30.5784 23.3023C29.0672 24.0485 27.7239 25.1493 26.1381 25.7463C24.8881 26.2873 23.6008 26.959 22.2015 27.0336C21.9217 27.0336 21.7351 26.6978 21.847 26.4553C22.0709 26.1568 22.3881 25.9702 22.6866 25.7649C22.7052 25.7463 22.7239 25.7463 22.7239 25.7276C22.7612 25.6903 22.7985 25.6717 22.8545 25.6344C23.2649 25.3359 23.7687 25.1679 24.1791 24.8694C24.347 24.7388 24.5523 24.6456 24.7015 24.4963C24.7761 24.4217 24.8508 24.347 24.9067 24.2538C24.9627 24.1232 25.0746 23.9739 25.0373 23.8433C24.1791 23.2276 22.4067 24.1605 21.5112 24.4963C20.9328 24.7762 20.4851 25.2612 19.8694 25.4664C18.8433 25.7836 16.9776 26.6605 16.0261 25.8769C15.9329 25.7649 15.9142 25.6157 15.8769 25.4851C15.8209 25.3172 15.7276 25.1679 15.709 24.9814C15.709 24.5896 15.7463 24.2164 15.3358 24.0112C14.8881 23.75 14.347 23.7687 13.862 23.862C13.0411 24.0112 12.2202 24.2351 11.4179 24.4776C9.70151 24.8694 7.87315 24.9441 6.11942 24.7202C4.86942 24.5336 3.67539 24.0859 2.44404 23.862C2.29479 23.8433 2.12688 23.8246 1.95897 23.806C1.88434 23.806 1.80972 23.7873 1.73509 23.7873H1.67912C1.62315 23.7873 1.54852 23.7687 1.4739 23.7687C1.39927 23.75 1.30598 23.75 1.23136 23.75C1.15673 23.7314 1.0821 23.7314 1.00748 23.7314C0.988821 23.7314 0.98882 23.7314 0.970164 23.7314H0.354492C0.485089 24.459 0.671657 25.1866 0.895537 25.8956C0.895537 25.9142 0.914194 25.9515 0.914194 25.9702H0.988821C1.60449 26.0075 2.22016 26.0635 2.83584 26.1381C2.91046 26.1381 2.96643 26.1567 3.0224 26.1567C3.11569 26.1754 3.20897 26.1754 3.30225 26.1941C3.43285 26.2127 3.54479 26.2314 3.67539 26.25C6.7724 26.5858 9.8321 27.1642 12.8918 27.7053C13.8433 27.8545 14.7948 28.0038 15.7463 28.0038C16.847 28.0411 17.9664 27.9478 19.0672 28.209C20.7463 28.5635 22.5373 28.8993 24.1978 28.3209C24.9254 28.0411 25.6343 27.6679 26.3433 27.3135C26.3806 27.2948 26.4179 27.2575 26.4366 27.2388C26.3993 27.2575 26.362 27.2761 26.3246 27.2761C26.306 27.2948 26.2873 27.2948 26.2873 27.2948H26.2127C26.1567 27.2762 26.1754 27.1829 26.2314 27.2015C26.25 27.2015 26.2687 27.1829 26.2873 27.1829H26.306C26.6045 27.0896 26.8284 26.9217 27.0336 26.7164C27.2202 26.5299 27.3881 26.306 27.5746 26.1194C27.7239 25.9329 27.8731 25.7649 28.0411 25.597C28.0411 25.597 28.0411 25.597 28.0411 25.5784C28.0411 25.5597 28.0411 25.5784 28.0411 25.5597C28.0411 25.5597 28.0411 25.5597 28.0597 25.5411C28.0784 25.5224 28.1157 25.4851 28.1343 25.4664C28.3396 25.2799 28.5448 25.0933 28.7687 24.9067C29.7575 24.1232 30.9888 23.6381 32.2202 23.4329C32.612 23.3582 33.0411 23.3955 33.4329 23.5261C33.75 23.7127 34.1045 23.8993 34.3284 24.1978C34.5709 24.4963 34.8134 24.8321 34.9254 25.2052C34.944 25.2426 34.944 25.2612 34.9627 25.2985C35 25.4664 35 25.6343 35.056 25.7836C35.112 25.9702 35.2239 26.1008 35.3731 26.1941C35.5784 26.3247 35.8396 26.3993 36.0821 26.4179H36.362C36.4552 26.4179 36.5485 26.4179 36.6418 26.3993H36.7164C36.7911 26.3806 36.8657 26.3806 36.9403 26.362C36.9776 26.362 37.0149 26.3433 37.0523 26.3433C37.1082 26.3433 37.1455 26.3246 37.1828 26.3246C37.2575 26.306 37.3134 26.306 37.3694 26.2873C37.6493 26.2314 37.9105 26.1754 38.1903 26.1194C38.2276 26.1008 38.2836 26.1008 38.3209 26.0821C38.3769 26.1008 38.4142 26.0821 38.4515 26.0821Z" fill="black" fill-opacity="0.01"/>
<path d="M33.0976 34.7019C33.2468 34.6832 33.4147 34.6832 33.5826 34.6645C34.4222 33.8996 35.1871 33.0601 35.8774 32.1459C36.12 31.8287 36.3438 31.5115 36.5677 31.1757C36.5864 31.1384 36.6237 31.1011 36.6423 31.0638C36.661 31.0451 36.6797 31.0265 36.6797 31.0078C36.5864 31.0265 36.5117 31.0265 36.4185 31.0451C36.3065 31.0638 36.1946 31.0638 36.0826 31.0824C35.9707 31.1011 35.8588 31.1011 35.7468 31.1198C35.6162 31.1384 35.4856 31.1571 35.355 31.1757C35.2431 31.1757 35.1312 31.1944 35.0192 31.2131C34.9073 31.2317 34.7767 31.2504 34.6647 31.269C34.5155 31.2877 34.3662 31.3063 34.217 31.325C34.0864 31.3436 33.9744 31.3623 33.8625 31.3809C33.6386 31.4183 33.4334 31.4369 33.2095 31.4742C33.0603 31.4929 32.9297 31.5116 32.7804 31.5302C32.5379 31.5675 32.2767 31.6048 32.0155 31.6421C31.8849 31.6795 31.7356 31.6981 31.5864 31.7168C31.1386 31.7914 30.7095 31.866 30.2617 31.922C28.6386 32.2018 26.9595 32.2018 25.3364 32.4817C23.4707 32.6683 21.5864 32.4071 19.7394 32.1272C19.105 32.0339 18.452 31.978 17.7991 32.0713C17.1461 32.2205 16.5304 32.4817 15.8588 32.4817C14.0677 32.5936 12.2767 32.2018 10.5229 31.8474C9.01175 31.5115 7.51921 31.0451 5.9707 31.1011C5.91473 31.1198 5.84011 31.1198 5.78414 31.1198H5.61623C5.50429 31.1198 5.37369 31.1384 5.26175 31.1384C5.07518 31.1384 4.90727 31.1571 4.7207 31.1571H4.49682C4.34757 31.1571 4.19832 31.1571 4.04906 31.1757H3.99309C3.93712 31.1944 3.89981 31.1944 3.84384 31.1944C3.78787 31.1944 3.71324 31.2131 3.65727 31.2131C3.61996 31.2317 3.56399 31.2317 3.52667 31.2317C3.50802 31.2317 3.48936 31.2317 3.4707 31.2317C3.48936 31.2504 3.48936 31.269 3.50802 31.2877C4.10503 32.1645 4.79533 33.0041 5.52294 33.769H5.5416C5.61623 33.7504 5.69085 33.7504 5.76548 33.7317C5.80279 33.7131 5.82145 33.713 5.85876 33.713C5.95205 33.6944 6.06399 33.6757 6.15727 33.6757C8.11623 33.4519 9.9819 34.3474 11.9409 34.1608C12.7058 34.0302 13.4334 33.6757 14.217 33.5824C15.6349 33.3959 17.0901 33.825 18.4334 34.2541C19.2729 34.5526 20.1498 34.7205 21.0267 34.7392C21.6237 34.7578 22.2394 34.9071 22.8364 34.9071C23.6946 34.9817 24.5155 34.7205 25.3177 34.478C26.008 34.3287 26.717 34.2727 27.4259 34.2541C29.217 34.366 31.008 34.7578 32.8177 34.7205C32.911 34.7018 33.0043 34.7019 33.0976 34.7019Z" fill="black" fill-opacity="0.3"/>
<path d="M40 19.2724C39.9067 19.3097 39.8134 19.347 39.7388 19.3656C39.7015 19.3843 39.6455 19.3843 39.6082 19.4029C39.347 19.4776 39.0672 19.5709 38.806 19.6455C38.75 19.6641 38.694 19.6828 38.6381 19.7014C38.3396 19.7947 38.0224 19.8694 37.7239 19.9626C36.1567 20.4104 34.5896 20.8768 32.9664 21.0634C31.1194 21.3059 29.291 21.6977 27.4254 21.6604C25.9142 21.6977 24.403 21.4925 22.8918 21.5671C21.4925 21.7164 20.1493 22.2015 18.75 22.2761C18.5075 22.2947 18.2836 22.2947 18.041 22.2761C16.306 22.2574 14.6269 21.6791 12.9104 21.4365C11.3993 21.2873 9.85075 21.3432 8.3209 21.3806C8.26493 21.3806 8.1903 21.3992 8.13433 21.3992C7.51866 21.4552 6.92164 21.5485 6.30597 21.4925C5.72761 21.4552 5.16791 21.3246 4.60821 21.2126C4.51493 21.194 4.42164 21.1753 4.32836 21.1567C3.67537 20.8582 2.98508 20.7462 2.27612 20.7089C2.14552 20.7089 2.01493 20.7089 1.88433 20.7276C1.8097 20.7276 1.71642 20.7276 1.64179 20.7462H1.47388C1.41791 20.7462 1.34328 20.7462 1.28731 20.7649C1.13806 20.7836 0.97015 20.7835 0.820896 20.8022C0.802239 20.8022 0.783583 20.8022 0.764926 20.8022C0.652986 20.8022 0.541045 20.8208 0.429105 20.8395C0.298508 20.8582 0.149254 20.8582 0.0186571 20.8768C0.0186571 20.8582 0.0186571 20.8395 0.0186571 20.8209V20.8022C0.0186571 20.6343 0 20.485 0 20.3171C0 20.2798 0 20.2612 0 20.2238C0 20.1306 0 20.0559 0 19.9626C0 19.7388 4.2674e-07 19.4962 0.0186571 19.2724C0.0373139 18.5821 0.0932836 17.9291 0.186567 17.2574H0.373134C0.429105 17.2574 0.503731 17.2574 0.559702 17.2761H0.671642C0.727612 17.2761 0.783582 17.2761 0.839552 17.2947H0.858209C0.91418 17.2947 0.988806 17.3134 1.04478 17.3134H1.10075C1.17537 17.3134 1.23134 17.3321 1.30597 17.3321C1.36194 17.3321 1.43657 17.3507 1.49254 17.3507C1.73507 17.388 1.97761 17.4253 2.22015 17.4626C2.29478 17.4813 2.3694 17.4813 2.44403 17.5C2.51866 17.5186 2.57463 17.5186 2.64925 17.5373C2.68657 17.5373 2.70522 17.5559 2.74254 17.5559C2.85448 17.5746 2.96642 17.5932 3.0597 17.6306C3.15299 17.6492 3.24627 17.6679 3.33955 17.6865C3.80597 17.7985 4.25373 17.9104 4.70149 18.0597C5.22388 18.2649 5.70896 18.5261 6.25 18.694C7.61194 19.1417 9.01119 19.5522 10.4478 19.7014C11.791 19.7761 13.097 19.4776 14.403 19.291C15.5784 19.1977 16.7537 19.2164 17.9291 19.3097C18.7873 19.3843 19.6642 19.347 20.5224 19.3283C21.25 19.347 21.9776 19.4776 22.7239 19.4589C24.4403 19.4403 26.1381 18.9552 27.7425 18.3208C28.6567 18.0783 29.5522 17.7612 30.5037 17.7238C31.6231 17.6679 32.7052 17.9291 33.8246 17.9104C34.8694 17.9104 35.8769 17.5186 36.903 17.2947C36.959 17.2761 37.0336 17.2761 37.0896 17.2574C37.1082 17.2574 37.1082 17.2574 37.1269 17.2574C37.1828 17.2388 37.2388 17.2388 37.2948 17.2201C37.3507 17.2015 37.4067 17.2014 37.444 17.1828C37.4813 17.1828 37.5 17.1641 37.5373 17.1641C37.6679 17.1268 37.7985 17.1082 37.9104 17.0709C37.9664 17.0522 38.0224 17.0335 38.097 17.0149C38.2463 16.9776 38.3769 16.9216 38.5075 16.8843C38.5821 16.8656 38.6381 16.847 38.7127 16.8097C38.7873 16.791 38.8433 16.7723 38.9179 16.735C38.9739 16.7164 39.0112 16.6977 39.0672 16.6791C39.1045 16.6604 39.1231 16.6604 39.1604 16.6417C39.347 16.5858 39.5149 16.5112 39.6828 16.4365C39.8321 17.332 39.944 18.2462 39.9813 19.1791C40 19.235 40 19.2537 40 19.2724Z" fill="black" fill-opacity="0.3"/>
<path d="M35.5973 7.46289C35.4667 7.5002 35.3548 7.55618 35.2242 7.61215C35.1496 7.64947 35.0563 7.68678 34.9817 7.72409C34.6272 7.87334 34.2727 8.0226 33.9182 8.17186C32.7429 8.56365 31.5302 8.80617 30.3361 9.08602C29.1421 9.34721 27.9854 9.77633 26.81 10.0562C25.3735 10.2054 23.9742 10.5599 22.5376 10.6905C21.1011 10.7838 19.6458 10.8398 18.2093 10.989C16.4929 11.1196 14.7951 11.1942 13.0973 11.2315C11.0078 11.1569 8.89957 11.1383 6.81002 11.0636H5.9145C5.3548 11.0636 4.7951 11.045 4.2354 11.0263C4.06749 11.0263 3.88092 11.0077 3.71301 11.0077C3.60107 11.0077 3.48913 10.989 3.37719 10.989C3.32122 10.9704 3.26525 10.9704 3.20928 10.9704H3.15331C3.09734 10.9517 3.04136 10.9517 2.98539 10.9517C2.87345 10.9517 2.78017 10.933 2.66823 10.933C2.55629 10.933 2.46301 10.9144 2.35107 10.9144C2.2951 10.9144 2.23913 10.9144 2.18316 10.9144L2.1645 10.933C1.94062 11.3621 1.7354 11.8099 1.54883 12.2577C2.33241 12.3323 3.13465 12.3136 3.91823 12.295C4.7951 12.183 5.69062 12.0898 6.58614 12.1271C8.8436 12.2017 11.1011 12.4629 13.3399 12.5935C14.4406 12.6868 15.5414 12.9293 16.6421 12.9293C17.7242 12.9853 18.8063 12.8733 19.8511 12.5935C20.7652 12.4069 21.6048 11.9778 22.5563 11.9405C23.0041 11.9032 23.4705 11.9405 23.9182 12.0151C24.4033 12.1457 24.8697 12.351 25.3735 12.3883C25.9145 12.4256 26.4369 12.239 26.9593 12.0898C27.7988 11.8286 28.5264 11.3248 29.3473 11.0636C29.7951 10.933 30.2615 10.9517 30.7279 10.933C31.2503 10.8771 31.6608 10.5413 32.1272 10.3174C32.6869 10.0375 33.2839 9.83229 33.8809 9.62707C34.4593 9.45915 35.0749 9.38454 35.672 9.29126C36.0264 9.21663 36.3809 9.12334 36.7354 9.03006C36.3996 8.50767 36.0264 8.00394 35.6347 7.51887C35.6347 7.50021 35.616 7.48155 35.5973 7.46289Z" fill="black" fill-opacity="0.3"/>
<path d="M33.0413 4.81358C32.3697 4.23522 31.6794 3.71283 30.9331 3.22776C30.9145 3.2091 30.8772 3.20909 30.8585 3.19043C30.6719 3.30237 30.4854 3.39565 30.3175 3.47028C28.9182 4.04864 27.4443 4.42177 25.9891 4.86953C23.1346 5.6158 20.3361 6.6979 17.3884 6.90312C15.2055 7.08969 13.0413 6.54864 10.8585 6.45536C10.6719 6.4367 10.4854 6.4367 10.2988 6.4367C9.40328 6.4367 8.52641 6.53 7.63089 6.58597C7.36969 6.58597 7.1085 6.60462 6.84731 6.60462C6.71671 6.60462 6.58611 6.62327 6.45551 6.62327C6.13835 6.62327 5.82119 6.64192 5.50402 6.66057C5.37343 6.66057 5.24283 6.67925 5.11223 6.67925C5.11223 6.67925 5.09358 6.67925 5.07492 6.67925C5.05626 6.69791 5.03761 6.7352 5.00029 6.75386C4.40328 7.44416 3.84358 8.15313 3.33984 8.91806C3.3585 8.91806 3.37716 8.91806 3.37716 8.91806C3.39581 8.91806 3.41447 8.91806 3.43313 8.91806C3.50775 8.91806 3.58238 8.93671 3.65701 8.93671C3.73163 8.93671 3.80626 8.95536 3.88089 8.95536C3.9182 8.97402 3.95552 8.97401 3.99283 8.97401H4.10477C4.14208 8.99267 4.19805 8.99266 4.23537 8.99266H4.36596C4.45925 8.99266 4.53387 9.01134 4.62716 9.01134C4.75775 9.01134 4.88835 9.02999 5.01895 9.02999C5.11223 9.04865 5.22417 9.04864 5.31746 9.04864C6.56746 9.0673 7.81746 8.91805 9.06746 8.76879C9.92566 8.6382 10.7466 8.24641 11.6048 8.45164C11.6794 8.47029 11.754 8.47029 11.8287 8.48894C11.8846 8.5076 11.9406 8.50759 11.9966 8.52625C12.0339 8.5449 12.0898 8.54492 12.1272 8.56357C12.3697 8.61954 12.6309 8.71282 12.8734 8.76879C12.9107 8.76879 12.9667 8.78744 13.004 8.8061C13.06 8.8061 13.0973 8.82477 13.1533 8.82477C13.2279 8.84343 13.3025 8.84342 13.3772 8.84342C13.5637 8.84342 13.7503 8.82477 13.9369 8.82477C14.6831 8.78746 15.4481 8.6755 16.1943 8.60088C16.3622 8.58222 16.5115 8.56358 16.6794 8.54492C17.7801 8.41432 18.8995 8.32104 20.0003 8.17179C20.8772 7.98522 21.7167 7.72401 22.5936 7.59341C22.6495 7.57475 22.6869 7.57476 22.7428 7.55611C22.8361 7.53745 22.9294 7.53746 23.0227 7.5188C23.0787 7.5188 23.1533 7.50013 23.2092 7.50013C23.6757 7.46281 24.1607 7.48147 24.6458 7.50013C25.0749 7.51878 25.4854 7.53744 25.9145 7.50013C25.9518 7.50013 25.9891 7.50013 26.0264 7.50013C26.0637 7.50013 26.101 7.50013 26.1197 7.50013C26.6234 7.44416 27.0339 7.20163 27.4816 6.97775C29.0488 6.28745 30.4294 5.20536 32.1458 4.96282C32.2391 4.94416 32.3137 4.92552 32.407 4.90686H32.4443C32.5003 4.8882 32.5376 4.88819 32.5936 4.86953C32.6309 4.86953 32.6495 4.85088 32.6682 4.85088H32.6869C32.6869 4.85088 32.7055 4.85088 32.7242 4.85088C32.7428 4.85088 32.7428 4.85088 32.7428 4.85088C32.7615 4.85088 32.7615 4.85088 32.7801 4.85088C32.8175 4.85088 32.8548 4.83223 32.8921 4.83223C32.9107 4.83223 32.9294 4.83223 32.9481 4.83223C32.9667 4.83223 32.9854 4.81358 33.004 4.81358C33.0227 4.81358 33.0413 4.81358 33.0786 4.81358C33.06 4.83223 33.0413 4.83223 33.0413 4.81358Z" fill="#FF1414"/>
<path d="M33.9553 5.65283C33.9366 5.65283 33.9366 5.67148 33.918 5.67148C33.8993 5.67148 33.8993 5.69014 33.8807 5.69014C33.8434 5.70879 33.806 5.72746 33.7874 5.74612C33.7501 5.78343 33.7128 5.78341 33.6754 5.82072C33.6568 5.82072 33.6568 5.8394 33.6381 5.8394C33.6195 5.85806 33.5822 5.8767 33.5635 5.89536C33.5075 5.93267 33.4702 5.95133 33.4143 5.98864C33.3583 6.02595 33.2837 6.06326 33.2277 6.10058C33.1717 6.13789 33.1157 6.15655 33.0598 6.19386C33.0411 6.21252 33.0225 6.21253 33.0038 6.23119C32.9665 6.24984 32.9105 6.28716 32.8732 6.30582C32.8172 6.34313 32.7613 6.38044 32.7053 6.3991C32.668 6.41776 32.612 6.45505 32.556 6.47371C32.4068 6.54834 32.2575 6.60432 32.1083 6.67895C32.0337 6.71626 31.9777 6.75358 31.9031 6.77224C31.8284 6.79089 31.7725 6.82819 31.6978 6.84684C31.6419 6.88416 31.5672 6.90282 31.5113 6.92148C31.418 6.94013 31.3434 6.97745 31.2687 6.99611C30.2426 7.2573 29.1978 7.27596 28.1531 7.36924C28.0038 7.3879 27.8546 7.38789 27.7053 7.40655C27.6307 7.40655 27.5374 7.42522 27.4628 7.42522C26.1568 7.5185 25.0747 8.39536 23.7874 8.60058C22.4254 8.84312 21.0448 8.69387 19.6643 8.67521C19.4031 8.65655 19.1419 8.65655 18.8993 8.67521C17.9665 8.71252 17.0523 8.8991 16.1381 9.12298C15.1307 9.38417 14.0859 9.64537 13.0598 9.49611C12.9292 9.47745 12.7986 9.45879 12.6493 9.42148C12.5187 9.38417 12.3881 9.34686 12.2575 9.30954C12.2016 9.29089 12.1269 9.25357 12.071 9.23491C11.418 9.12297 10.7463 9.067 10.0934 9.067C9.40306 9.067 8.73142 9.10431 8.04112 9.17893C7.87321 9.19759 7.7053 9.21626 7.53739 9.21626C7.27619 9.23492 7.015 9.25358 6.77246 9.29089C6.51127 9.30955 6.26873 9.32819 6.00754 9.34685C5.22395 9.42148 4.44037 9.36551 3.65679 9.3282H3.11574C3.07843 9.36551 3.05977 9.42147 3.04112 9.45878C3.04112 9.45878 3.04112 9.47746 3.02246 9.47746H3.78739C4.3844 9.49612 5.00007 9.57073 5.59709 9.51476C7.36948 9.42148 9.16052 9.25357 10.9329 9.30954C11.3247 9.34686 11.7165 9.38418 12.0896 9.47746C12.556 9.66403 13.0411 9.75731 13.5448 9.77596C14.4963 9.79462 15.4105 9.57073 16.3247 9.34685C17.2202 9.14162 18.1157 8.91776 19.0299 8.91776C19.5896 8.91776 20.168 8.93641 20.7463 8.95506C22.071 9.01103 23.3956 9.06701 24.6643 8.65656C25.4105 8.39537 26.0822 8.02224 26.8284 7.79835C28.2837 7.46253 29.8135 7.6491 31.2687 7.25731C32.2762 6.97745 33.2277 6.45506 34.1232 5.8767C34.1419 5.85805 34.1605 5.8394 34.1792 5.8394L34.1605 5.82072C34.0672 5.76475 34.0113 5.7088 33.9553 5.65283Z" fill="#FF1414"/>
<path d="M35.6528 7.51879C35.5408 7.5561 35.4102 7.61206 35.2983 7.64937C35.2237 7.68669 35.1304 7.724 35.0558 7.76131C34.7013 7.91056 34.3468 8.05982 33.9923 8.20907C32.8169 8.60087 31.6229 8.86206 30.4102 9.12326C29.2162 9.3658 28.0781 9.79489 26.8841 10.0934C25.4475 10.2427 24.0483 10.5971 22.6117 10.7277C21.1565 10.821 19.7199 10.877 18.2834 11.0262C16.5856 11.1568 14.8878 11.2315 13.1714 11.2688C11.0819 11.1942 8.97366 11.1755 6.88411 11.1009H5.98859C5.42889 11.1009 4.86918 11.0822 4.30948 11.0636C4.14157 11.0636 3.95501 11.0449 3.7871 11.0449C3.67516 11.0449 3.56321 11.0262 3.45127 11.0262C3.3953 11.0262 3.33933 11.0262 3.28336 11.0076H3.20874C3.15277 11.0076 3.0968 11.0076 3.04083 10.9889C2.92889 10.9889 2.8356 10.9703 2.72366 10.9703C2.61172 10.9703 2.51844 10.9516 2.4065 10.9516C2.33187 10.9516 2.25724 10.933 2.18262 10.933C2.18262 10.933 2.18262 10.9143 2.20127 10.9143C2.38784 10.5598 2.57441 10.224 2.76098 9.88818C2.79829 9.88818 2.8356 9.88818 2.89157 9.88818H3.43262C3.71247 9.88818 3.99232 9.88818 4.27217 9.86953C4.45874 9.86953 4.66396 9.85087 4.85053 9.85087C5.03709 9.85087 5.22366 9.8322 5.41023 9.8322C5.50351 9.8322 5.57814 9.8322 5.67142 9.81355C6.1565 9.79489 6.62292 9.77625 7.10799 9.75759C7.38784 9.73893 7.64903 9.73892 7.92889 9.72026H9.10426C9.81321 9.72026 10.5222 9.83222 11.2125 9.94416C11.9587 10.0748 12.7237 10.2053 13.4886 10.168C14.7199 10.3173 15.8953 9.7949 17.0893 9.58968C18.4326 9.34714 19.7946 9.36579 21.1378 9.42176C21.8655 9.47773 22.5557 9.58966 23.2834 9.55235C24.1602 9.47772 25.0184 9.27251 25.8207 8.93669C26.4363 8.61953 27.052 8.28369 27.7423 8.1531C29.3841 8.11578 31.0259 7.81727 32.5931 7.31354C32.649 7.29489 32.705 7.27624 32.7423 7.25759C32.7983 7.23893 32.8356 7.22027 32.8916 7.18296C32.9475 7.1643 32.9849 7.14564 33.0408 7.10832C33.1341 7.07101 33.2274 7.01505 33.3207 6.95908C33.3393 6.94043 33.358 6.94041 33.3766 6.92176C33.414 6.9031 33.4699 6.86578 33.5072 6.84713C33.5446 6.82847 33.5819 6.79117 33.6192 6.77252C33.7498 6.69789 33.8804 6.6046 33.9923 6.52997L34.011 6.51132C34.0296 6.49266 34.0296 6.49267 34.0483 6.49267C34.0856 6.45535 34.1416 6.4367 34.1789 6.39938C34.2162 6.36207 34.2535 6.34341 34.2908 6.3061C34.3281 6.26879 34.3841 6.23145 34.4214 6.19414C34.4214 6.19414 34.4401 6.19414 34.4401 6.17549C34.4587 6.15683 34.4774 6.15684 34.4774 6.13818C34.8878 6.54863 35.261 6.99639 35.6155 7.44415C35.6155 7.48147 35.6341 7.50013 35.6528 7.51879Z" fill="#FF1414"/>
<path d="M36.735 9.02979C36.3805 9.14173 36.0447 9.235 35.7275 9.32829C35.1305 9.44023 34.5149 9.49621 33.9365 9.66412C33.3395 9.86934 32.7425 10.0746 32.1828 10.3544C31.7163 10.5783 31.3059 10.9141 30.7835 10.9701C30.3358 10.9887 29.8507 10.9701 29.4029 11.1007C28.5634 11.3619 27.8357 11.8656 27.0149 12.1268C26.4925 12.276 25.9701 12.444 25.429 12.4253C24.9253 12.388 24.4589 12.1828 23.9738 12.0522C23.526 11.9775 23.0596 11.9402 22.6119 11.9775C21.6604 11.9962 20.8208 12.444 19.9066 12.6305C18.8619 12.8917 17.7798 13.0223 16.6977 12.9663C15.5783 12.9663 14.4962 12.7238 13.3955 12.6305C11.138 12.4999 8.89918 12.2387 6.64172 12.1641C5.7462 12.1268 4.86933 12.2201 3.97381 12.332C3.17157 12.3507 2.36933 12.3693 1.56709 12.2947H1.52978C1.21261 13.041 0.95142 13.8246 0.727539 14.6081C0.727539 14.6268 0.727539 14.6268 0.727539 14.6455H0.746195H0.764853C0.820823 14.6641 0.858136 14.6641 0.914106 14.6828C0.932763 14.6828 0.932763 14.6828 0.932763 14.6828C0.970076 14.7014 1.02605 14.7014 1.06336 14.7201C1.11933 14.7201 1.1753 14.7387 1.21261 14.7574C1.24993 14.776 1.28724 14.7761 1.32455 14.7947C1.34321 14.7947 1.36187 14.8134 1.38052 14.8134C1.41784 14.8134 1.45515 14.832 1.49246 14.8507C2.12679 15.1119 2.79844 15.3731 3.48873 15.429C4.16038 15.485 4.83202 15.4477 5.50366 15.4104C6.47381 15.3544 7.44396 15.2984 8.39545 15.541C9.53351 15.7462 10.6529 16.0634 11.7723 16.4178C12.7611 16.7163 13.7313 17.1081 14.776 17.1641C15.3357 17.1455 15.9328 17.2014 16.4552 16.9775C16.6044 16.8843 16.6977 16.679 16.6417 16.5111C16.5857 16.2872 16.4365 16.1007 16.2313 15.9514C15.8022 15.6529 15.1305 15.5037 14.7014 15.4477C13.694 15.2611 12.6119 15.1305 11.5857 15.3731C11.4365 15.4104 11.2872 15.4664 11.1193 15.4664C10.9887 15.4477 10.8955 15.3544 10.7835 15.2984H10.8022C11.3432 14.8693 11.9775 14.6641 12.6492 14.5895C13.2275 14.5335 13.8246 14.5708 14.3843 14.6455C15.429 14.7761 16.3992 15.2238 17.4253 15.4664C19.4962 16.0074 21.082 15.8581 23.0783 15.0932C24.4402 14.7947 25.8022 14.2723 27.2014 14.2537C28.0037 14.235 28.7499 14.5522 29.5335 14.6828C30.8208 14.8134 32.1268 14.3469 33.1343 13.5634C33.3022 13.4328 33.4701 13.3208 33.638 13.2089C34.9626 12.2761 36.3805 11.4178 37.9663 11.1567C37.9663 11.138 37.9477 11.138 37.9477 11.1193C37.5746 10.3917 37.1828 9.70143 36.735 9.02979Z" fill="#FF1414"/>
<path d="M39.6828 16.3806C39.4962 16.4553 39.291 16.5299 39.0858 16.6045C39.0485 16.6232 39.0298 16.6232 38.9925 16.6418C38.9365 16.6605 38.8992 16.6791 38.8432 16.6978C38.7686 16.7164 38.7126 16.7538 38.638 16.7724C38.5634 16.7911 38.5074 16.8097 38.4328 16.8471C38.3022 16.8844 38.1529 16.9403 38.0223 16.9776C37.9664 16.9963 37.9104 17.015 37.8358 17.0336C37.7052 17.0709 37.5746 17.1082 37.4626 17.1269C37.4253 17.1269 37.4067 17.1456 37.3694 17.1456C37.3134 17.1642 37.2574 17.1642 37.2201 17.1829C37.1641 17.2015 37.1082 17.2015 37.0522 17.2202C37.0335 17.2202 37.0335 17.2202 37.0149 17.2202C36.9589 17.2388 36.8843 17.2388 36.8283 17.2575C35.8209 17.4814 34.8134 17.8545 33.75 17.8732C33.2276 17.8732 32.7052 17.8359 32.1828 17.7799C31.6044 17.7239 31.0074 17.6679 30.4291 17.6866C29.4776 17.7239 28.582 18.0411 27.6679 18.2836C26.082 18.9179 24.3843 19.403 22.6492 19.4217C21.9029 19.4403 21.1753 19.3097 20.4477 19.2911C19.5895 19.3097 18.7126 19.3471 17.8544 19.2724C16.735 19.1791 15.6343 19.1605 14.5149 19.2351C14.4589 19.2351 14.4029 19.2351 14.3283 19.2537C13.582 19.3657 12.8544 19.4963 12.1082 19.5896C11.5298 19.6642 10.9514 19.7015 10.3731 19.6642C8.93652 19.5336 7.53727 19.1045 6.17533 18.6567C5.63428 18.4888 5.14921 18.2276 4.62682 18.0224C4.17906 17.8732 3.7313 17.7612 3.26488 17.6493C3.1716 17.6306 3.07831 17.612 2.98503 17.5933C2.87309 17.5747 2.76115 17.5373 2.66787 17.5187C2.63055 17.5187 2.6119 17.5 2.57458 17.5C2.49996 17.4814 2.44399 17.4814 2.36936 17.4627C2.29473 17.4441 2.22011 17.4254 2.14548 17.4254C1.90294 17.3881 1.6604 17.3508 1.41787 17.3135C1.3619 17.3135 1.28727 17.2948 1.2313 17.2948C1.15667 17.2948 1.1007 17.2761 1.02608 17.2761H0.970106C0.914136 17.2761 0.839509 17.2575 0.783539 17.2575H0.764882C0.708912 17.2575 0.652942 17.2388 0.596971 17.2388H0.485031C0.429061 17.2388 0.354434 17.2388 0.298464 17.2202H0.186523C0.186523 17.1642 0.205181 17.1269 0.205181 17.0709C1.3619 17.0896 2.51861 17.3135 3.65667 17.5933C3.88055 17.6493 4.10443 17.7052 4.32832 17.7612C4.94399 17.9105 5.50369 18.2463 6.08205 18.4515C7.07085 18.7873 8.07832 19.0672 9.08578 19.2911C10.7276 19.7015 12.4253 19.459 14.0485 19.1232C15.0932 19.0112 16.194 18.9926 17.2388 19.0485C18.0037 19.1418 18.7873 19.1232 19.5522 19.1232C20.3358 19.1232 21.1007 19.1045 21.8843 19.1978C22.0522 19.2164 22.2201 19.2164 22.388 19.2351C24.1791 19.2911 25.9515 18.7873 27.6119 18.1157C28.8619 17.7426 30.1492 17.3694 31.4738 17.5C32.2761 17.5373 33.097 17.7052 33.8992 17.6679C34.5149 17.6306 35.1119 17.5187 35.7089 17.3508C36.4179 17.1829 37.1082 16.959 37.8171 16.8284C37.8731 16.8097 37.9291 16.8097 37.985 16.7911C38.0223 16.7724 38.0597 16.7724 38.1156 16.7538C38.2649 16.7165 38.4141 16.6605 38.5634 16.6232C38.6007 16.6045 38.638 16.6045 38.6753 16.5859C38.7313 16.5672 38.8059 16.5485 38.8619 16.5112C38.8992 16.4926 38.9365 16.4926 38.9738 16.4739C39.1791 16.3433 39.4029 16.25 39.6268 16.1567C39.6455 16.2127 39.6455 16.2687 39.6641 16.3247C39.6828 16.3433 39.6828 16.362 39.6828 16.3806Z" fill="#FF1414"/>
<path d="M12.071 3.54478C13.2091 3.48881 14.3472 3.39552 15.4666 3.17164C18.489 2.59328 21.6793 2.2015 24.4404 0.708964C24.4964 0.671651 24.571 0.634319 24.6457 0.597006C24.6643 0.578349 24.683 0.559702 24.7016 0.559702C23.1904 0.205224 21.6233 0 20.0188 0C15.7464 0 11.7912 1.34329 8.54492 3.61941C8.58224 3.61941 8.6382 3.61941 8.67552 3.61941C9.79492 3.58209 10.933 3.58209 12.071 3.54478Z" fill="#FF1414"/>
<path d="M2.55585 26.3806C2.64914 26.3806 2.72376 26.3806 2.79839 26.3993C2.87302 26.4179 2.9663 26.4179 3.04093 26.4366C6.1566 26.7351 9.2163 27.3135 12.2947 27.8732C13.2275 28.0038 14.1417 28.209 15.0932 28.2463C15.6529 28.2836 16.1939 28.2836 16.7536 28.2836C17.1641 28.2836 17.5745 28.2836 17.985 28.3023C19.235 28.4515 20.4476 28.8247 21.7163 28.8806C22.6118 28.9179 23.5447 28.8433 24.3842 28.4888C25.0932 28.1157 25.8394 27.7426 26.5297 27.3321C26.5484 27.3508 26.5857 27.3694 26.6044 27.3508C26.6417 27.3135 26.6976 27.2762 26.6976 27.2202V27.1829C26.6976 27.1642 26.6976 27.1642 26.6976 27.1642C26.679 27.1642 26.679 27.1642 26.679 27.1642C26.6976 27.1455 26.7163 27.1456 26.735 27.1269C26.7723 27.1082 26.8096 27.0896 26.8282 27.0709C26.8282 27.0523 26.8469 27.0523 26.8656 27.0336C26.8842 27.0336 26.9029 27.0149 26.9215 26.9963C26.9402 26.9963 26.9402 26.9963 26.9402 26.9963C26.9402 26.9776 26.9588 26.9776 26.9775 26.959C26.9961 26.9403 27.0148 26.9217 27.0335 26.903L27.0894 26.847C27.1454 26.8097 27.1827 26.7537 27.22 26.7164C27.2387 26.6978 27.2387 26.6978 27.2573 26.6791C27.2947 26.6418 27.332 26.6045 27.3693 26.5672C27.4066 26.5112 27.4626 26.4552 27.5185 26.4179C27.5372 26.3993 27.5558 26.3806 27.5745 26.362C28.0409 25.8582 28.5447 25.4105 29.0857 25C29.5894 24.5896 30.2051 24.3284 30.8021 24.0858C31.4551 23.8246 32.1641 23.6194 32.873 23.6568C33.0409 23.6754 33.2275 23.694 33.3954 23.7314C33.7499 23.9179 34.1044 24.1232 34.3469 24.459C34.4588 24.5896 34.5708 24.7202 34.6454 24.8694C34.6454 24.8694 34.6454 24.8694 34.6454 24.8881C34.7387 25.0373 34.8133 25.2053 34.8506 25.3732C34.9439 25.6344 34.9066 25.9329 35.0932 26.1754C35.2051 26.306 35.3357 26.3993 35.4663 26.4739C36.4364 27.015 37.9103 26.4179 38.9178 26.25C38.9551 26.25 39.0111 26.2314 39.0484 26.2314C39.067 26.1941 39.067 26.1754 39.0857 26.1381C39.1044 26.1008 39.123 26.0448 39.123 25.9888C39.123 25.9702 39.1417 25.9329 39.1417 25.9142C39.0297 25.9329 38.9178 25.9515 38.8059 25.9702C38.7685 25.9702 38.7312 25.9888 38.6939 25.9888C38.6566 25.9888 38.6193 26.0075 38.582 26.0075C38.5447 26.0075 38.5073 26.0261 38.47 26.0261C38.4327 26.0448 38.3767 26.0448 38.3394 26.0635C38.0596 26.1194 37.7984 26.1754 37.5185 26.2314C37.4439 26.25 37.3879 26.25 37.332 26.2687C37.276 26.2687 37.2387 26.2873 37.2014 26.2873C37.1641 26.2873 37.1267 26.306 37.0894 26.306C37.0148 26.3247 36.9402 26.3433 36.8656 26.3433H36.7909C36.6976 26.3433 36.6044 26.362 36.5111 26.362H36.2312C35.9327 26.306 35.5969 26.2127 35.3917 26.0075C35.317 25.9329 35.2611 25.8396 35.2238 25.7276C35.2051 25.6903 35.2051 25.6344 35.1864 25.5784C35.1678 25.4291 35.1491 25.2799 35.0932 25.1493C34.9812 24.7762 34.7387 24.459 34.4961 24.1418C34.2723 23.8433 33.9364 23.6568 33.6006 23.4702C33.2275 23.3396 32.7797 23.3023 32.3879 23.3769C31.1379 23.5635 29.9253 24.0485 28.9364 24.8508C28.6753 25.056 28.4327 25.2612 28.2088 25.5037C28.1902 25.5224 28.1529 25.5597 28.1342 25.5784C28.1342 25.5784 28.1342 25.5784 28.1156 25.597C28.1156 25.597 28.1156 25.5971 28.1156 25.6157C28.1156 25.6344 28.1156 25.6157 28.1156 25.6344C27.985 25.765 27.8544 25.9142 27.7424 26.0635C27.5372 26.2873 27.3506 26.5485 27.1081 26.7724C26.9215 26.9403 26.735 27.0709 26.4738 27.1455C26.4551 27.1642 26.4178 27.1642 26.3991 27.1642C26.3618 27.1642 26.3245 27.2202 26.3618 27.2388C26.3618 27.2388 26.3805 27.2388 26.3805 27.2575H26.4364C26.4551 27.2388 26.4738 27.2388 26.4924 27.2388C26.5297 27.2202 26.567 27.2202 26.6044 27.2015C26.567 27.2388 26.5484 27.2575 26.5111 27.2761C26.4551 27.2948 26.4178 27.3321 26.3618 27.3508C25.7088 27.6679 25.0372 28.0038 24.3656 28.2836C22.7051 28.862 20.9141 28.5261 19.235 28.1717C18.4887 28.0038 17.7238 27.9851 16.9775 27.9851H16.7723C16.4738 28.0038 16.1566 28.0038 15.8581 27.9851C14.8879 27.9851 13.9551 27.8545 13.0036 27.6866C9.94391 27.1456 6.88421 26.5672 3.7872 26.2314C3.6566 26.2127 3.54466 26.1941 3.41406 26.1754C3.32078 26.1568 3.2275 26.1567 3.13421 26.1381C3.05958 26.1381 3.00361 26.1194 2.94764 26.1194C2.33197 26.0448 1.7163 25.9888 1.10063 25.9515H0.951376C0.932719 25.9515 0.914062 25.9515 0.914062 25.9515C0.914062 25.9702 0.932719 26.0075 0.932719 26.0261C0.951376 26.0821 0.970033 26.1567 0.98869 26.2127C0.98869 26.2314 1.00735 26.2687 1.00735 26.2873C1.04466 26.2873 1.08197 26.306 1.11929 26.306C1.13794 26.306 1.13794 26.306 1.13794 26.306C1.17526 26.3247 1.23123 26.3246 1.26854 26.3246C1.2872 26.3246 1.2872 26.3246 1.30585 26.3246C1.38048 26.3246 1.43645 26.3433 1.51108 26.3433C1.5857 26.3433 1.64167 26.362 1.7163 26.362C1.73496 26.362 1.73496 26.362 1.75361 26.362H1.8469C2.01481 26.3806 2.16406 26.3993 2.33197 26.4179C2.4066 26.362 2.46257 26.362 2.55585 26.3806Z" fill="#FF1414"/>
<path d="M30.1309 36.8097C30.2241 36.8097 30.3174 36.8097 30.4107 36.8097H30.8025C30.8212 36.8097 30.8212 36.791 30.8398 36.791C30.9144 36.7351 30.9891 36.6978 31.0637 36.6418C31.1197 36.6045 31.1756 36.5672 31.2129 36.5298C31.2129 36.5298 31.2316 36.5112 31.2503 36.5112C30.3734 36.5671 29.4965 36.5485 28.6197 36.3992C27.7055 36.2686 26.7727 36.0634 25.8398 36.0634C25.8212 36.0634 25.8212 36.0634 25.8212 36.0634C25.6159 36.0448 25.4107 36.0448 25.2055 36.0448C24.31 36.0448 23.4518 36.1007 22.5749 36.194C22.5003 36.194 22.4256 36.2127 22.351 36.2127C21.8473 36.25 21.3249 36.3059 20.8212 36.3246C20.0376 36.3806 19.2726 36.3992 18.4891 36.3433C17.1458 36.2873 15.8212 36.138 14.5152 35.8955C13.7316 35.7463 12.9667 35.5037 12.1644 35.5224C11.5861 35.5037 11.0077 35.5224 10.4294 35.541C9.5525 35.5783 8.65698 35.653 7.78011 35.6903H7.63086C7.64952 35.7089 7.66817 35.7089 7.66817 35.7276C7.76146 35.8022 7.8734 35.8955 7.96668 35.9701C9.04877 35.9328 10.1309 35.8395 11.1943 35.8209C11.3435 35.8209 11.5115 35.8209 11.6607 35.8209C11.754 35.8209 11.8659 35.8209 11.9592 35.8209C12.0338 35.8209 12.1085 35.8209 12.2018 35.8209C12.4443 35.8209 12.6868 35.8395 12.9107 35.8582C15.1122 36.3433 17.3697 36.6418 19.6271 36.6604H19.6831C19.9629 36.6604 20.2428 36.6418 20.5227 36.6231C20.5786 36.6231 20.6346 36.6231 20.6906 36.6045C20.8025 36.5858 20.9144 36.5858 21.045 36.5858C21.1197 36.5858 21.1943 36.5671 21.2689 36.5671C21.3995 36.5485 21.5301 36.5485 21.6607 36.5298C21.754 36.5298 21.8473 36.5112 21.9406 36.5112C22.1271 36.4925 22.3137 36.4739 22.5003 36.4552C22.5749 36.4552 22.6495 36.4366 22.7241 36.4366C22.7988 36.4366 22.8734 36.4179 22.948 36.4179C23.0786 36.3992 23.2092 36.3992 23.3398 36.3806C23.3585 36.3806 23.3771 36.3806 23.3958 36.3806C23.5637 36.3619 23.7316 36.3619 23.8995 36.3619C23.9368 36.3619 23.9555 36.3619 23.9928 36.3619H24.1421C24.198 36.3619 24.254 36.3619 24.2913 36.3619C24.9629 36.3246 25.6159 36.3246 26.2689 36.3619C26.2689 36.3619 26.2876 36.3619 26.3062 36.3619H26.3249C26.3622 36.3619 26.4182 36.3619 26.4555 36.3619C26.5115 36.3619 26.5674 36.3619 26.6234 36.3806C27.7055 36.5298 28.7876 36.7724 29.8883 36.8097C29.9816 36.8097 30.0562 36.8097 30.1309 36.8097Z" fill="#FF1414"/>
<path d="M31.7909 34.9253H31.9402C32.4252 34.9253 32.873 34.9067 33.3581 34.8693C33.414 34.832 33.47 34.7761 33.5073 34.7201C33.3581 34.7387 33.2275 34.7387 33.0969 34.7387C33.0036 34.7574 32.9103 34.7574 32.817 34.7574C31.0073 34.7947 29.2163 34.4029 27.4252 34.291C26.7163 34.291 26.0073 34.3656 25.317 34.5149C24.5148 34.7574 23.6939 35.0186 22.8357 34.944C22.2387 34.944 21.623 34.7947 21.026 34.7761C20.1305 34.7574 19.2723 34.5895 18.4327 34.291C17.3133 33.9365 16.1006 33.582 14.9066 33.582C14.6827 33.582 14.4402 33.6007 14.2163 33.6193C13.4327 33.7126 12.7051 34.0671 11.9402 34.1977C10.97 34.291 10.0185 34.1231 9.06703 33.9552C8.09688 33.7873 7.14539 33.6007 6.15658 33.7126C6.0633 33.7313 5.95136 33.7313 5.85808 33.7499C5.82076 33.7499 5.80211 33.7686 5.76479 33.7686C5.69017 33.7686 5.6342 33.7872 5.55957 33.8059C5.61554 33.8619 5.67151 33.9365 5.74614 33.9925C5.76479 33.9925 5.80211 33.9925 5.82076 33.9738C6.92151 33.7686 8.0036 33.9738 9.08569 34.1604C10.1491 34.3656 11.1939 34.5522 12.276 34.3656C13.0596 34.1417 13.8245 33.8432 14.6454 33.8059C15.9887 33.7686 17.2946 34.1417 18.5633 34.5708C19.5148 34.9067 20.5223 34.9813 21.5111 35.0373C21.9961 35.0932 22.4626 35.1679 22.929 35.1679C23.7685 35.2238 24.5708 34.9813 25.373 34.7387C25.914 34.6081 26.4924 34.5522 27.0708 34.5149C27.7237 34.4589 28.3581 34.5895 28.9924 34.6641C29.8133 34.7388 30.6529 34.8134 31.4737 34.888C31.6043 34.9253 31.6976 34.9253 31.7909 34.9253Z" fill="#FF1414"/>
<path d="M37.0153 28.6938C36.5488 28.6938 36.0638 28.6938 35.5974 28.787C35.019 28.8803 34.478 29.0669 33.9556 29.3281C33.713 29.44 33.5265 29.5893 33.3026 29.7012C33.2839 29.7199 33.2466 29.7199 33.2279 29.7385H33.2093C33.3959 29.6452 33.5638 29.5333 33.7503 29.4213C33.9182 29.3281 34.1048 29.2348 34.2727 29.1415C34.4593 29.0296 34.6459 28.899 34.7951 28.7497C34.7951 28.7497 34.7951 28.7311 34.7765 28.7124C34.7765 28.6937 34.7578 28.6938 34.7578 28.6938C34.6272 28.7311 34.5339 28.843 34.422 28.9176C33.769 29.384 33.0414 29.7199 32.3138 29.9997C31.6421 30.1863 30.9518 30.1863 30.2615 30.2422C29.6085 30.3169 28.9742 30.2609 28.3772 30.1117C28.0974 30.0557 27.8362 29.9624 27.575 29.8691C27.3324 29.7758 27.0899 29.6825 26.8474 29.5706C26.4742 29.496 26.1011 29.552 25.7466 29.6452C25.4668 29.7199 25.1869 29.7945 24.9071 29.8505C24.7578 29.8878 24.5899 29.9438 24.4406 29.9997C23.6757 30.2423 22.9108 30.5408 22.0899 30.6714C22.0339 30.69 21.9779 30.69 21.922 30.69C21.922 30.69 21.922 30.69 21.9033 30.69C21.6794 30.7087 21.4556 30.7087 21.2317 30.69C21.213 30.69 21.1944 30.69 21.1944 30.69C20.9705 30.6714 20.7466 30.634 20.5227 30.5781C20.5227 30.5781 20.5227 30.5781 20.5041 30.5781C20.019 30.4661 19.5339 30.2982 19.0675 30.1676C18.3959 29.9624 17.7242 29.8691 17.0526 29.8691C16.6421 29.8691 16.2317 29.9064 15.8212 29.9624C15.075 30.0557 14.3287 29.9064 13.5824 29.8132C11.6981 29.5333 9.8884 29.0296 8.02272 28.6751C7.92944 28.6564 7.83616 28.6378 7.74287 28.6191C6.11974 28.2833 4.45929 28.2833 2.8175 28.3393C2.72422 28.3579 2.61228 28.3579 2.51899 28.3579C2.31377 28.3766 2.10854 28.3766 1.90332 28.3952C1.95929 28.5258 2.03392 28.6751 2.08989 28.8057C2.50034 29.6639 2.98541 30.4848 3.52645 31.2497C3.54511 31.2684 3.54511 31.287 3.56377 31.3057H3.58243C3.6384 31.287 3.67571 31.287 3.71302 31.287C3.76899 31.2684 3.84362 31.2684 3.89959 31.2684C3.95556 31.2497 3.99287 31.2497 4.04884 31.2497H4.10481C4.25407 31.2497 4.40332 31.2311 4.55257 31.2311H4.77645C4.96302 31.2311 5.13093 31.2124 5.3175 31.2124C5.42944 31.2124 5.56004 31.1937 5.67198 31.1937H5.83989C5.89586 31.1751 5.97049 31.1751 6.02646 31.1751C7.57496 31.1191 9.08616 31.5855 10.5787 31.9214C12.3324 32.2758 14.1235 32.6676 15.9145 32.5557C16.5862 32.537 17.2018 32.2945 17.8548 32.1452C18.5078 32.052 19.1608 32.1079 19.7951 32.2012C21.6421 32.4811 23.5265 32.7423 25.3921 32.5557C27.0153 32.2945 28.6944 32.2758 30.3175 31.996C30.7653 31.9214 31.1944 31.8654 31.6421 31.7908C31.7727 31.7535 31.922 31.7348 32.0712 31.7161C32.3138 31.6788 32.575 31.6415 32.8362 31.6042C32.9854 31.5855 33.116 31.5669 33.2653 31.5482C33.4891 31.5109 33.6944 31.4922 33.9182 31.4549C34.0488 31.4363 34.1608 31.4176 34.2727 31.399C34.366 31.3803 34.4593 31.3803 34.5526 31.3616H34.5712C34.6272 31.3616 34.6645 31.343 34.7205 31.343C34.8324 31.3243 34.963 31.3057 35.075 31.287C35.1869 31.287 35.2988 31.2684 35.4108 31.2497H35.4294C35.56 31.2311 35.672 31.2124 35.8026 31.1937C35.9145 31.1751 36.0265 31.1751 36.1384 31.1564C36.2503 31.1378 36.3623 31.1378 36.4742 31.1191C36.5488 31.1005 36.6235 31.1005 36.6981 31.1005C36.7168 31.0818 36.7354 31.0632 36.7354 31.0445C37.2205 30.3169 37.6496 29.5706 38.0414 28.787C38.0414 28.787 38.0414 28.787 38.0414 28.7684C38.06 28.7497 38.06 28.7311 38.0787 28.6938C38.0787 28.6938 38.0787 28.6937 38.0787 28.6751C38.0414 28.6751 38.0041 28.6938 37.9668 28.6938C37.6309 28.6938 37.3324 28.6938 37.0153 28.6938Z" fill="#FF1414"/>
<path d="M39.8694 22.3505C39.7948 22.3692 39.7201 22.3878 39.6269 22.4065C39.6269 22.4065 39.6455 22.4252 39.6455 22.4438C39.6455 22.4625 39.6269 22.4811 39.5895 22.4811C39.5522 22.4811 39.5522 22.4625 39.5522 22.4252C39.5522 22.4252 39.5522 22.4252 39.5522 22.4065C39.4776 22.4252 39.403 22.4438 39.3097 22.4625H39.291C39.2724 22.4438 39.2724 22.4252 39.2724 22.4065C39.2537 22.4065 39.2537 22.4065 39.2351 22.4252C39.2164 22.4252 39.1791 22.4438 39.1604 22.4438C39.1418 22.4438 39.1045 22.4625 39.0858 22.4625C39.0112 22.4811 38.9366 22.5185 38.8619 22.5371C38.7873 22.5558 38.694 22.5931 38.6194 22.6117C38.0037 22.761 37.3694 22.9289 36.7164 22.8916C36.25 22.9102 35.8022 22.7983 35.3545 22.705C34.8881 22.5931 34.4403 22.4811 33.9739 22.5184C32.8172 22.4625 31.6791 22.7237 30.6716 23.2461C29.1604 23.9923 27.8172 25.0931 26.2313 25.6901C24.9627 26.2311 23.694 26.9028 22.2948 26.9774C22.0149 26.9961 21.8284 26.6602 21.9403 26.399C22.1269 26.1565 22.4067 25.9699 22.6866 25.7834C22.7052 25.7647 22.7239 25.7647 22.7239 25.7461C22.7612 25.7087 22.7985 25.6901 22.8545 25.6528C22.8918 25.6341 22.9104 25.5968 22.9478 25.5781C23.3582 25.2796 23.8619 25.1117 24.2724 24.8132C24.4216 24.7199 24.5709 24.6267 24.7015 24.5147C24.8134 24.4214 24.9254 24.3281 25 24.1975C25.056 24.0669 25.1679 23.9364 25.1306 23.7871C24.2724 23.1714 22.5 24.1043 21.6045 24.4401C21.0261 24.7199 20.5784 25.205 19.9627 25.4102C18.9366 25.7461 17.0522 26.6043 16.1194 25.8207C16.0261 25.7088 15.9888 25.5595 15.9701 25.4289C15.9142 25.261 15.8209 25.1117 15.8022 24.9252C15.8022 24.5334 15.8396 24.1602 15.4291 23.955C14.9813 23.6938 14.4403 23.6938 13.9552 23.8058C13.1343 23.955 12.3134 24.1789 11.5112 24.4214C9.77612 24.8132 7.96642 24.8878 6.21269 24.664C4.96269 24.4774 3.76866 24.0296 2.53731 23.8058C2.3694 23.7871 2.20149 23.7685 2.05224 23.7498C1.97761 23.7498 1.90299 23.7311 1.82836 23.7311H1.77239C1.69776 23.7311 1.62313 23.7125 1.56716 23.7125C1.49254 23.7125 1.39925 23.6938 1.32463 23.6938C1.25 23.6938 1.17537 23.6938 1.10075 23.6752C1.08209 23.6752 1.08209 23.6752 1.06343 23.6752H0.317164C0.149254 22.7796 0.0373134 21.8468 0 20.914C0 20.8953 0 20.8767 0 20.858C0.11194 20.858 0.223881 20.8393 0.335821 20.8393C0.373135 20.8393 0.410448 20.8393 0.429105 20.8207C0.522389 20.8207 0.615672 20.802 0.708956 20.802C0.858209 20.7834 1.02612 20.7834 1.17537 20.7647C1.25 20.7647 1.30597 20.7647 1.36194 20.7461H1.51119C1.58582 20.7461 1.6791 20.7461 1.75373 20.7274C1.88433 20.7274 2.01493 20.7087 2.14552 20.7087C2.85448 20.7461 3.56343 20.858 4.19776 21.1565C4.4403 21.1938 4.68284 21.2498 4.90672 21.3058C5.31716 21.399 5.74627 21.4737 6.15672 21.4923C6.69776 21.5296 7.22015 21.4737 7.76119 21.4177C7.89179 21.3991 8.04105 21.399 8.17164 21.3804C8.93657 21.3617 9.70149 21.3431 10.4851 21.3431C11.25 21.3431 11.9963 21.3617 12.7612 21.4364C14.4776 21.6789 16.1567 22.2573 17.8918 22.2759C18.1903 22.2946 18.4701 22.2759 18.7687 22.2573C20.1119 22.1453 21.4179 21.6789 22.7425 21.5483C23.5448 21.511 24.347 21.5483 25.1493 21.5856C25.8582 21.6229 26.5672 21.6602 27.2948 21.6416C29.1604 21.6789 31.0075 21.2871 32.8358 21.0446C34.459 20.858 36.0261 20.3916 37.5933 19.9438C37.8918 19.8505 38.209 19.7759 38.5075 19.6826C38.5634 19.664 38.6194 19.6453 38.6754 19.6266C38.9366 19.552 39.2164 19.4774 39.4776 19.3841C39.5149 19.3655 39.5709 19.3655 39.6082 19.3468C39.7201 19.3095 39.8321 19.2722 39.9254 19.2349C39.9254 19.2535 39.9254 19.2722 39.9254 19.2908C39.944 19.5334 39.944 19.7572 39.944 19.9998C40 20.7834 39.9627 21.567 39.8694 22.3505Z" fill="#FF1414"/>
<path d="M24.3662 37.9852C23.8811 38.0038 23.396 38.0225 22.911 38.0412C21.4557 38.0971 20.0005 38.1531 18.5453 38.1904C18.3028 38.1904 18.0602 38.2091 17.8177 38.2091C17.5752 38.2091 17.3326 38.2277 17.0901 38.2277C16.8662 38.2277 16.6423 38.2277 16.4371 38.2464C16.2132 38.2464 15.9893 38.2464 15.7841 38.265C15.355 38.265 14.9072 38.265 14.4781 38.2837H14.4222C14.3475 38.2837 14.2729 38.2837 14.1983 38.2837H14.161C14.1237 38.2837 14.0677 38.2837 14.0117 38.2837C13.508 38.265 13.0043 38.2464 12.5192 38.2091C12.4259 38.2091 12.314 38.1904 12.2207 38.1904C12.1087 38.1904 12.0154 38.1717 11.9035 38.1717C11.8849 38.1717 11.8475 38.1717 11.8289 38.1717C11.7169 38.1717 11.605 38.1531 11.5117 38.1344C14.0863 39.3471 16.9781 40.0374 20.0192 40.0374C23.3028 40.0374 26.4184 39.2352 29.1423 37.8359H28.7132C27.2766 37.8546 25.8214 37.9292 24.3662 37.9852Z" fill="#FF1414"/>
<path d="M39.5332 22.3321C39.5705 22.3135 39.6078 22.3135 39.6265 22.3135C39.5892 22.3135 39.5705 22.3135 39.5332 22.3321Z" fill="#FF1414"/>
<path d="M29.6458 37.7427C29.6272 37.7427 29.6272 37.7613 29.6458 37.7427C29.6645 37.7427 29.6831 37.7427 29.7018 37.7427C29.6831 37.7427 29.6645 37.7427 29.6458 37.7427Z" fill="#FF1414"/>
<path d="M2.63086 9.29081C2.70549 9.19753 2.76146 9.08557 2.81743 8.97363C2.76146 9.08557 2.70549 9.17887 2.63086 9.29081Z" fill="#FF1414"/>
<path d="M33.5629 24.9255C34.1226 25.2241 34.3838 25.9703 34.3465 26.5673C34.2905 26.9218 34.2532 27.295 34.0293 27.5935C33.7868 28.0039 33.5815 28.4517 33.2084 28.7502C32.089 29.683 30.5405 29.4218 29.1972 29.5524C28.6935 29.5151 28.1524 29.3472 27.7606 29.0487C27.3875 28.6755 27.2756 28.0972 27.6674 27.6867C27.5741 27.7054 27.4808 27.8173 27.4062 27.7427C27.3875 27.724 27.4062 27.6868 27.4248 27.6681C27.5554 27.5748 27.7233 27.5561 27.8539 27.4629C28.0032 27.2949 28.1897 27.1643 28.3017 26.9778C28.6189 26.7352 28.936 26.4927 29.1786 26.1756C29.6636 25.6532 30.186 25.1308 30.839 24.8323C31.7345 24.3099 32.6674 24.3658 33.5629 24.9255Z" fill="#FF1414"/>
<path opacity="0.57" d="M36.5672 31.1943C36.3434 31.5302 36.1195 31.8473 35.8769 32.1645C35.4292 32.1832 34.9628 32.2205 34.515 32.3137C32.724 32.7055 31.0449 33.116 29.2538 33.4331C28.2837 33.6197 27.2949 33.5637 26.3061 33.5824C25.5225 33.5264 24.7389 33.3585 23.9553 33.2466C23.6381 33.2093 23.3396 33.06 23.0225 33.0973C22.9105 33.116 22.9292 32.9294 23.0411 32.9854C23.6568 32.9854 24.2911 33.06 24.9068 33.06C25.0934 33.06 25.2613 33.06 25.4478 33.0414C26.9964 32.9294 28.5449 32.7055 30.0561 32.3697C31.0635 32.1272 32.071 31.922 33.0598 31.6981C33.5262 31.5675 34.0113 31.4555 34.4964 31.3623H34.515C34.7949 31.3063 35.0747 31.269 35.3546 31.2503H35.3732C35.4852 31.2503 35.5971 31.2317 35.709 31.2317C36.0075 31.213 36.2874 31.213 36.5672 31.1943Z" fill="#F0F0F0"/>
<path opacity="0.57" d="M18.6379 29.5897C18.6379 29.5897 18.6192 29.6084 18.6006 29.6084C18.5819 29.6084 18.5819 29.627 18.5632 29.627H18.5446C18.5446 29.627 18.5446 29.627 18.5259 29.627C18.414 29.6084 18.3207 29.5897 18.2088 29.5897C17.8356 29.5524 17.4812 29.6084 17.108 29.627C16.4177 29.627 15.7461 29.6643 15.0558 29.7763C14.7946 29.8136 14.5334 29.8136 14.2722 29.8136C13.9177 29.8136 13.5632 29.7763 13.2088 29.7016C12.5931 29.6084 11.9961 29.4778 11.3991 29.3099C10.9886 29.1979 10.5968 29.086 10.1864 28.9554H10.1677C10.1491 28.9554 10.1304 28.9367 10.1118 28.9367H10.0931C10.0931 28.9367 10.0931 28.9367 10.0744 28.9367C9.49608 28.7502 8.93638 28.6942 8.35802 28.6382C8.13414 28.6196 7.92891 28.6009 7.70503 28.5822C7.59309 28.5822 7.48115 28.5636 7.36921 28.5449C5.59682 28.5076 3.80578 28.489 2.05205 28.7688C1.97742 28.6382 1.92145 28.489 1.86548 28.3584C1.84682 28.3397 1.84683 28.321 1.82817 28.2837C1.7722 28.1345 1.69757 28.0039 1.6416 27.8546H1.66026C3.32071 27.5748 5.01847 27.5375 6.71623 27.5934C7.83563 27.6308 8.97369 27.6681 10.0744 27.9479C11.8655 28.4703 13.7125 29.086 15.5968 28.8621C16.2498 28.8061 16.9028 28.9367 17.5185 29.1233H17.5371C17.5558 29.1233 17.5744 29.1419 17.6117 29.1419C17.6304 29.1419 17.6491 29.142 17.6677 29.1606C17.6864 29.1606 17.6864 29.1606 17.705 29.1606C17.7237 29.1793 17.7423 29.1793 17.761 29.1793C17.7797 29.1793 17.7797 29.1793 17.7983 29.1793C17.817 29.1793 17.817 29.1793 17.8356 29.1979H17.8543C17.8729 29.1979 17.8729 29.1979 17.8916 29.1979C17.9289 29.2166 17.9662 29.2166 18.0222 29.2352C18.0409 29.2352 18.0409 29.2352 18.0595 29.2352C18.2461 29.3098 18.414 29.3845 18.5632 29.4964C18.5632 29.4964 18.5819 29.4964 18.5819 29.5151H18.6006C18.6006 29.5151 18.6006 29.5151 18.6192 29.5151C18.6192 29.571 18.6379 29.5524 18.6379 29.5897Z" fill="#F0F0F0"/>
<path d="M14.3848 21.4739C14.3848 21.4366 14.4034 21.418 14.4407 21.418C14.478 21.418 14.4967 21.4366 14.4967 21.4739C14.4967 21.5112 14.478 21.5299 14.4407 21.5299C14.4034 21.5299 14.3848 21.5112 14.3848 21.4739Z" fill="#F0F0F0"/>
<path opacity="0.57" d="M36.8838 27.7238C36.4733 27.6865 35.9883 27.8544 35.7084 27.4999C35.5965 27.388 35.5032 27.2388 35.4099 27.1082C35.4472 26.8843 35.4659 26.6604 35.4472 26.4552C35.4472 26.4179 35.4472 26.3805 35.4286 26.3246C35.4286 26.2873 35.4099 26.2499 35.4099 26.2126C35.3912 26.138 35.3726 26.0634 35.3539 25.9888C35.3539 25.9514 35.3353 25.9328 35.3353 25.8955C35.2793 25.7835 35.2233 25.6716 35.1487 25.5596C35.0927 25.4664 35.0368 25.3917 34.9808 25.3171C34.9248 25.2238 34.8689 25.1492 34.7942 25.0746C34.7383 24.9999 34.6823 24.944 34.6263 24.8694C34.6263 24.8694 34.6263 24.8693 34.6263 24.8507C34.1226 24.3096 33.4883 23.9738 32.63 23.8619C30.895 23.582 29.1412 25.1865 27.8166 26.138C27.7047 26.2126 27.5927 26.3059 27.4994 26.3992C27.4435 26.4552 27.4062 26.5111 27.3502 26.5485C27.145 26.8097 26.9957 27.1268 26.9397 27.4626C26.7905 27.8731 26.7345 28.3208 26.8651 28.7313C26.1375 28.638 25.3912 28.638 24.6823 28.8432C24.1226 29.0111 23.5442 29.3283 22.9659 29.5149C21.8838 29.888 20.7084 29.7761 19.645 29.4029C19.0666 29.2537 18.4509 29.1977 17.8353 29.1977H17.7793C17.8539 29.2164 17.9099 29.235 17.9845 29.2537C18.1711 29.3283 18.3577 29.4029 18.5069 29.5335C18.5256 29.5522 18.5442 29.5335 18.5629 29.5335C18.5629 29.5335 18.5629 29.5335 18.5815 29.5335C18.6002 29.5335 18.6002 29.5522 18.6002 29.5708V29.5895C18.6002 29.6268 18.5629 29.6455 18.5256 29.6455C18.4136 29.6268 18.3203 29.6081 18.2084 29.6081C18.283 29.6268 18.339 29.6455 18.3763 29.6641C18.7868 29.832 19.1786 30.0373 19.589 30.2052C19.8689 30.3358 20.1674 30.4477 20.4659 30.541C20.4659 30.541 20.4659 30.541 20.4845 30.541C20.6897 30.5969 20.895 30.6343 21.1189 30.6529C21.1375 30.6529 21.1375 30.6529 21.1562 30.6529C21.1748 30.6529 21.1935 30.6529 21.1935 30.6529C21.4174 30.6716 21.6412 30.6716 21.8651 30.6529C21.8651 30.6529 21.8651 30.6529 21.8838 30.6529C22.3688 30.6156 22.8353 30.541 23.283 30.3917C23.6748 30.2798 24.0293 30.1305 24.4024 29.9626C24.4771 29.9253 24.5517 29.888 24.6263 29.8693C24.9808 29.7387 25.3353 29.6641 25.7084 29.6268C25.9696 29.6082 26.2308 29.6082 26.492 29.6455C26.8278 29.7014 27.1823 29.7761 27.5368 29.8507L27.742 29.888C27.9472 29.9626 28.1338 30.0373 28.339 30.0932C28.88 30.2611 29.4211 30.3917 29.9808 30.4104C30.9883 30.4104 32.0144 30.3171 32.9845 30.0373C34.0853 29.6828 35.1487 29.1604 36.3054 28.8805C36.3614 28.8619 36.4174 28.8619 36.4733 28.8432C36.9584 28.8246 37.4435 28.7686 37.9472 28.7499C37.9472 28.7499 37.9472 28.7499 37.9472 28.7313C37.9659 28.7126 37.9659 28.694 37.9845 28.6567C37.9845 28.6567 37.9845 28.6567 37.9845 28.638C37.9845 28.6193 38.0032 28.6007 38.0218 28.5634C38.1711 28.2649 38.3017 27.9664 38.4323 27.6492C37.9472 27.7238 37.4062 27.7425 36.8838 27.7238ZM34.3091 27.4813C33.992 27.9291 33.6935 28.3955 33.2457 28.7126C33.2457 28.7126 33.2457 28.7126 33.2271 28.7126C33.2271 28.7126 33.2084 28.7126 33.2084 28.7313C33.1524 28.7686 33.0965 28.8059 33.0405 28.8432C32.9099 28.9178 32.7793 28.9738 32.6674 29.0671C32.6487 29.0858 32.6487 29.0858 32.63 29.1044C32.63 29.1044 32.6114 29.1044 32.6114 29.1231C32.5927 29.1231 32.5927 29.1231 32.5741 29.1231C32.5368 29.1231 32.5181 29.1417 32.4808 29.1417C32.0703 29.2537 31.6599 29.3469 31.2494 29.4216C31.1748 29.4402 31.1002 29.4402 31.0256 29.4589H31.0069C30.6151 29.5149 30.2233 29.5522 29.8129 29.5708C29.8129 29.5522 29.8129 29.5149 29.8129 29.4962V29.4776C29.7756 29.3283 29.6636 29.1977 29.4957 29.1604C28.936 29.0485 28.395 28.9738 27.8166 28.8992C27.742 28.8059 27.6674 28.694 27.6674 28.5634C27.63 28.3581 27.6674 28.1529 27.7047 27.9477C27.7606 27.8171 27.8166 27.6865 27.8353 27.5559C27.8353 27.5186 27.8539 27.4813 27.8726 27.4253C27.8726 27.4253 27.8726 27.4067 27.8726 27.388C28.0032 26.9776 28.4323 26.7537 28.7494 26.4925C28.8427 26.4365 28.936 26.3619 29.0293 26.3059L29.048 26.2873C29.4024 26.0447 29.7383 25.7649 30.1114 25.541C30.7457 25.1119 31.4174 24.7014 32.2196 24.6641C32.6487 24.7201 33.0965 24.8134 33.4883 24.9999C33.7681 25.2052 34.0106 25.4477 34.2159 25.7276C34.3278 25.8955 34.4397 26.0634 34.5144 26.2499C34.5517 26.7164 34.533 27.1268 34.3091 27.4813Z" fill="#F0F0F0"/>
<path opacity="0.57" d="M38.022 28.6753C38.0033 28.6939 38.0033 28.7126 37.9847 28.7499C37.5742 28.7686 37.1451 28.7872 36.7347 28.8432C36.6041 28.8432 36.4548 28.8432 36.3242 28.8246C36.3802 28.8059 36.4362 28.8059 36.4921 28.7873C37.0145 28.7499 37.5182 28.7126 38.022 28.6753Z" fill="#F0F0F0"/>
<path opacity="0.57" d="M18.5448 29.6269C18.4328 29.6082 18.3396 29.5896 18.2276 29.5896C17.8545 29.4776 17.0709 29.3843 17.1269 29.1418C17.1642 29.0858 17.2761 29.1045 17.3508 29.1232C17.4254 29.1418 17.5 29.1418 17.5746 29.1418C17.5933 29.1418 17.6119 29.1418 17.6306 29.1418C17.6493 29.1418 17.6679 29.1418 17.6679 29.1605C17.6679 29.1791 17.6679 29.1791 17.6679 29.1978H17.7799C17.8545 29.2164 17.9105 29.2351 17.9851 29.2538C18.1716 29.3284 18.3582 29.403 18.5075 29.5336C18.5448 29.5523 18.5821 29.5149 18.6008 29.5709C18.6381 29.6082 18.5821 29.6456 18.5448 29.6269Z" fill="#F0F0F0"/>
<path opacity="0.57" d="M30.373 37.0897C30.5223 36.9964 30.6715 36.9031 30.8208 36.8098C30.8395 36.8098 30.8395 36.7912 30.8581 36.7912C30.9327 36.7352 31.0074 36.6979 31.082 36.6419C31.138 36.6046 31.1939 36.5673 31.2312 36.53C31.2312 36.53 31.2499 36.5113 31.2686 36.5113C31.4551 36.3807 31.6603 36.2501 31.8469 36.1009C31.0074 36.1568 30.1492 36.2128 29.3096 36.1009C28.8805 36.0262 28.4327 35.9143 27.985 35.8397C26.3992 35.5785 24.7387 35.4666 23.1342 35.6158C22.1081 35.7464 21.026 35.5785 19.9999 35.5412C18.7312 35.5971 17.4812 35.6531 16.2126 35.4292C14.0484 35.1494 11.8656 34.4777 9.64542 34.8509C9.3096 34.8882 8.97378 34.9815 8.65661 35.1121C8.33945 35.224 7.94766 35.3173 7.64915 35.5039C7.61184 35.4852 7.59318 35.5039 7.57452 35.5225C7.55587 35.5412 7.51855 35.5598 7.51855 35.5972C7.51855 35.6158 7.51855 35.6345 7.53721 35.6345C7.55587 35.6718 7.59318 35.6718 7.63049 35.6904C7.68646 35.7091 7.76109 35.6904 7.81706 35.6718C8.67527 35.5225 9.53348 35.5225 10.4103 35.5412C10.5223 35.5412 10.6156 35.5412 10.7275 35.5598C10.7835 35.5598 10.8394 35.5598 10.9141 35.5598C13.2462 35.6904 15.4477 36.3994 17.7984 36.4927C18.6939 36.5113 19.5895 36.4927 20.4663 36.3807C20.5596 36.3621 20.6529 36.3621 20.7462 36.3434C20.7648 36.3434 20.7648 36.3434 20.7835 36.3247C21.2499 36.1755 21.7723 36.1755 22.276 36.1755C22.3693 36.1755 22.4439 36.1942 22.5372 36.1942C22.5932 36.1942 22.6492 36.1942 22.7051 36.2128C23.2275 36.2501 23.7499 36.2875 24.2909 36.3434H24.3096C25.1305 36.418 25.9514 36.5113 26.7723 36.5673C27.8917 36.7352 29.0671 37.1083 30.2238 37.0897H30.373Z" fill="#F0F0F0"/>
<path opacity="0.57" d="M26.5858 1.1007C26.3619 1.19398 26.1194 1.26859 25.8769 1.34322C26.0821 1.24994 26.2687 1.15666 26.4739 1.04472C26.0448 0.895462 25.597 0.764874 25.1493 0.634277C25.0933 0.652934 25.0373 0.690252 24.9813 0.708909C23.4328 1.34324 21.8284 1.92159 20.2239 2.42532C18.9179 2.76114 17.556 2.94771 16.2313 3.15293C13.7127 3.56338 11.1381 3.61935 8.58209 3.71264C8.50746 3.71264 8.43284 3.71264 8.35821 3.71264C7.61194 4.23502 6.92164 4.83203 6.25 5.4477C7.91045 5.39173 9.5709 5.33576 11.2127 5.16785C12.4813 5.13053 13.7313 5.03725 14.9813 4.96263C16.4179 4.86934 17.8545 4.99995 19.291 4.83204C20.8022 4.62681 22.3134 4.30965 23.7873 3.91786C25.1493 3.52606 26.4366 2.92904 27.7425 2.36934C28.0597 2.22008 28.3955 2.0895 28.7313 1.94025C28.0224 1.64174 27.3134 1.34323 26.5858 1.1007ZM18.7313 3.8992C18.6567 3.8992 18.6007 3.91786 18.5448 3.91786C18.2463 3.93651 17.9664 3.95516 17.6679 3.95516H17.3507C17.8731 3.88053 18.3769 3.78727 18.8993 3.69398C18.8246 3.7313 18.7873 3.82458 18.7313 3.8992Z" fill="#F0F0F0"/>
<path opacity="0.56" d="M18.8245 22.22C18.8059 22.2387 18.7872 22.2573 18.7686 22.276C18.7499 22.276 18.7499 22.276 18.7312 22.2946C18.5074 22.3506 18.2648 22.3133 18.0596 22.3319C16.9215 22.3506 15.8208 22.0521 14.72 21.8655C13.8059 21.7349 12.9477 21.6603 12.0335 21.567C11.1939 21.5297 10.3917 21.6417 9.55214 21.5484C9.08572 21.567 8.60064 21.4924 8.11557 21.4364C8.02229 21.4178 7.91035 21.4178 7.81706 21.3991C7.66781 21.3805 7.53721 21.3805 7.38796 21.3805C6.75363 21.3991 6.1193 21.4178 5.50363 21.3058C5.31706 21.3058 5.13049 21.2872 4.96258 21.2872C4.83199 21.2872 4.72005 21.2685 4.58945 21.2499C4.10437 21.2126 3.6193 21.1193 3.15288 21.026C2.35064 20.9514 1.56706 20.9514 0.764823 20.8394H0.746166C0.652883 20.8208 0.559599 20.8021 0.466315 20.8021C0.317062 20.8021 0.167808 20.8208 0.0372111 20.8208C0.0372111 20.6528 0.0185547 20.5036 0.0185547 20.3357C0.0745248 20.317 0.111838 20.2984 0.167808 20.2797C0.111838 20.2611 0.0745248 20.2611 0.0185547 20.2611C0.0185547 20.1678 0.0185547 20.0931 0.0185547 19.9999C0.0185547 19.776 0.0185544 19.5335 0.0372111 19.3096C1.00736 19.4402 1.95885 19.5894 2.91035 19.7573C3.73124 19.9066 4.55214 20.1491 5.39169 20.2424H5.33572C6.54841 20.4103 7.77975 20.429 8.99244 20.429C10.5036 20.4663 11.9962 20.6342 13.4887 20.8021C14.3842 20.914 15.2798 21.0633 16.1753 21.2872C16.9215 21.4737 17.6492 21.7163 18.4141 21.8282C18.5447 21.8469 18.6939 21.8655 18.8059 21.9402C18.8805 21.9961 18.8992 22.1454 18.8245 22.22Z" fill="#F0F0F0"/>
<path d="M31.1568 15.7646C31.0635 15.7833 30.9702 15.802 30.877 15.8206C30.9702 15.802 31.0635 15.7646 31.1568 15.7646Z" fill="#F0F0F0"/>
</g>
</svg>
