<svg width="40" height="41" viewBox="0 0 40 41" fill="none" xmlns="http://www.w3.org/2000/svg">
<path d="M10.8424 1.74268C10.6589 1.94447 10.4755 2.16461 10.292 2.36641C7.96217 4.98977 5.48557 7.52139 2.88056 9.88792C2.51366 10.2365 2.12841 10.5667 1.74316 10.8786C3.57768 6.916 6.75139 3.70561 10.6956 1.81606C10.7506 1.79771 10.7873 1.77937 10.8424 1.74268Z" fill="#7F50EE" fill-opacity="0.8"/>
<path d="M17.9958 0.0185547C17.9041 0.128626 17.794 0.238696 17.7023 0.348767C17.0786 1.06423 16.4365 1.77969 15.8127 2.4768C15.0789 3.30233 14.3635 4.12787 13.648 4.97174C12.7491 6.0541 11.7585 7.04474 10.7862 8.05372C10.0707 8.80587 9.3736 9.55803 8.65814 10.3285C8.6031 10.4019 8.52972 10.4753 8.45634 10.5303C8.18117 10.8238 7.90599 11.1174 7.63081 11.4109C6.76859 12.3281 5.90637 13.2637 5.0258 14.181C3.7233 15.5752 2.36576 16.9328 0.953181 18.2169C0.641313 18.4921 0.329445 18.7306 0.0175781 18.9874C0.0175781 18.914 0.0175781 18.8407 0.0175781 18.7673C0.0175781 18.7306 0.0175781 18.6939 0.0175781 18.6756C0.0175781 17.8317 0.0726135 17.0062 0.20103 16.1806C0.788074 15.777 1.35677 15.3551 1.90713 14.8965C3.5215 13.4472 5.08084 11.9062 6.5301 10.2918C7.72254 8.97098 8.91497 7.66848 10.0524 6.29259C11.5934 4.36635 13.0426 2.38508 14.5653 0.458838C15.5192 0.238696 16.4915 0.091935 17.4821 0.0368995C17.6289 0.0185544 17.7757 0.0185547 17.9408 0.0185547C17.9591 0.0185547 17.9775 0.0185547 17.9958 0.0185547Z" fill="#7F50EE" fill-opacity="0.8"/>
<path d="M27.0218 1.90769C26.2513 3.15516 25.4442 4.36594 24.5819 5.54003C24.215 6.03535 23.8298 6.51232 23.4445 6.9893C23.2244 7.24613 23.0043 7.50296 22.7658 7.75979C22.4539 8.10835 22.1237 8.45691 21.7751 8.80547C21.6284 8.95223 21.4816 9.09899 21.3348 9.24575C18.4547 12.0526 15.5194 14.786 12.6026 17.5561C12.4741 17.6845 12.3274 17.8129 12.199 17.9413C12.1072 18.0331 12.0155 18.1248 11.9238 18.1982C10.4562 19.5924 8.97022 20.9683 7.46592 22.3075C5.6681 23.9219 3.81524 25.4812 1.90734 26.9672C1.87065 26.9121 1.85231 26.8387 1.81562 26.7654C1.35699 25.7931 0.971743 24.7474 0.678221 23.6834C0.641531 23.5183 0.586495 23.3532 0.549805 23.1697C1.70555 22.2891 2.8246 21.3719 3.962 20.4913C5.48465 19.1705 6.95226 17.8129 8.41987 16.437C9.2454 15.6482 10.0709 14.8777 10.8965 14.0889C11.0983 13.9054 11.3001 13.7036 11.5019 13.5018C11.5385 13.4651 11.5936 13.4101 11.6303 13.3734C11.9605 13.0432 12.2907 12.6946 12.6392 12.3644C13.6482 11.3554 14.6389 10.3465 15.6479 9.33747C16.2532 8.71374 16.8586 8.07166 17.464 7.44793C18.1611 6.71412 18.8583 5.96197 19.537 5.19147C20.8395 3.70552 21.9219 2.0728 23.0776 0.495117C23.2061 0.531807 23.3345 0.550153 23.4629 0.586843C24.6737 0.89871 25.8478 1.32065 26.9485 1.871C26.9852 1.871 27.0035 1.88935 27.0218 1.90769Z" fill="#7F50EE" fill-opacity="0.8"/>
<path d="M33.2044 6.75127C33.0943 6.93472 32.9659 7.09983 32.8375 7.28328C31.7368 8.87931 30.526 10.402 29.2969 11.9063C29.1868 12.053 29.0768 12.1814 28.9483 12.3282C28.7649 12.5667 28.5631 12.7868 28.3796 13.0253C27.8109 13.7224 27.2422 14.4012 26.6552 15.08C24.9124 17.1163 23.0779 19.0792 21.17 20.9688C19.4456 22.6932 17.6661 24.3626 15.8499 25.9953C14.4006 27.2795 12.933 28.5453 11.4654 29.7928C10.3831 30.71 9.28235 31.6273 8.18164 32.5262C7.79639 32.8381 7.41114 33.1499 7.0259 33.4434C5.79677 32.4528 4.67772 31.2971 3.72377 30.0312C3.70543 29.9946 3.68708 29.9762 3.65039 29.9395C3.72377 29.8845 3.77881 29.8478 3.85219 29.7928C5.02628 28.9305 6.18202 28.0133 7.28273 27.0593C10.1629 24.6194 12.8596 21.9777 15.5931 19.3544C18.8585 15.9605 22.3257 12.7685 25.2426 9.08111C26.7469 7.24659 28.2512 5.39373 29.4437 3.35742C30.7462 4.25633 31.9202 5.32035 32.9659 6.51279C33.0576 6.56782 33.131 6.65955 33.2044 6.75127Z" fill="#7F50EE" fill-opacity="0.8"/>
<path d="M36.6174 12.9147C34.7646 15.428 32.7833 17.8496 30.7103 20.1977C29.5545 21.5186 28.3621 22.8027 27.133 24.0502C27.0046 24.197 26.8578 24.3254 26.7294 24.4722C23.6474 27.7192 20.5104 30.948 17.1716 33.9382C16.9514 34.14 16.7313 34.3235 16.5111 34.5253C16.4011 34.617 16.291 34.7087 16.1809 34.8188C15.3554 35.5159 14.4932 36.1947 13.631 36.8368C13.5759 36.8184 13.5209 36.8001 13.4659 36.7817C12.6036 36.5249 11.7781 36.213 10.9893 35.8461C13.2274 34.085 15.3737 32.1955 17.5201 30.3059C21.9046 26.2516 26.3992 22.234 30.0682 17.501C31.9761 15.0794 33.9023 12.6579 35.4066 9.97949C35.8286 10.7867 36.1955 11.6306 36.5073 12.4928C36.544 12.6579 36.5807 12.7863 36.6174 12.9147Z" fill="#7F50EE" fill-opacity="0.8"/>
<path d="M37.5524 18.7673C37.5524 18.9691 37.5524 19.1709 37.534 19.3727C37.479 20.932 37.2405 22.4547 36.8369 23.8856C35.461 25.5183 34.0118 27.1143 32.5442 28.6737C30.5629 30.765 28.5633 32.8564 26.3068 34.6358C25.1878 35.4797 24.0687 36.3236 22.8946 37.0941C22.2159 37.2409 21.5371 37.3509 20.84 37.4426C20.4731 37.4793 20.1062 37.516 19.7393 37.5344C21.8489 35.92 23.9036 34.2689 25.8298 32.4344L25.8482 32.4161C27.4809 30.8384 28.9852 29.1506 30.5079 27.4812C31.9571 25.9219 33.4431 24.3809 34.7639 22.7115C35.0574 22.3446 35.3326 21.9777 35.6078 21.5924C36.2866 20.6385 36.9103 19.6479 37.5524 18.6572C37.5524 18.7123 37.5524 18.7306 37.5524 18.7673Z" fill="#7F50EE" fill-opacity="0.8"/>
<path d="M36.837 13.5754C36.782 13.3553 36.7086 13.1351 36.6352 12.915C34.7824 15.4283 32.8011 17.8498 30.7281 20.198C29.5724 21.5188 28.3799 22.803 27.1508 24.0505C27.0224 24.1972 26.8756 24.3257 26.7472 24.4724C23.6652 27.7195 20.5282 30.9482 17.1894 33.9385C16.9693 34.1403 16.7491 34.3238 16.529 34.5256C16.4189 34.6173 16.3088 34.709 16.1988 34.8191C15.3732 35.5162 14.511 36.195 13.6488 36.837C13.979 36.9288 14.3092 37.0205 14.6394 37.0939C15.9786 37.4057 17.3728 37.5525 18.8038 37.5525C18.9872 37.5525 19.1707 37.5525 19.3541 37.5525C19.4825 37.5525 19.611 37.5342 19.7394 37.5342C21.8491 35.9198 23.9037 34.2687 25.83 32.4342L25.8483 32.4159C27.481 30.8382 28.9853 29.1504 30.508 27.481C31.9572 25.9217 33.4432 24.3807 34.764 22.7113C35.0576 22.3444 35.3327 21.9775 35.6079 21.5922C36.2867 20.6383 36.9104 19.6476 37.5525 18.657C37.5525 18.4552 37.5525 18.2534 37.5342 18.07C37.4791 16.529 37.2406 15.0063 36.837 13.5754ZM35.9748 8.95243C35.9565 8.91574 35.9381 8.87905 35.9198 8.84236C35.9198 8.8607 35.9014 8.8607 35.9014 8.87905C35.9198 8.91574 35.9381 8.95243 35.9565 8.98912C35.9565 8.97077 35.9565 8.95243 35.9748 8.95243ZM30.0493 17.5196C31.9572 15.098 33.8835 12.6765 35.3878 9.9981C34.8558 9.00746 34.2504 8.05352 33.5533 7.17295C33.4432 7.02619 33.3148 6.87943 33.2047 6.73267C33.0946 6.91612 32.9662 7.08122 32.8378 7.26468C31.7371 8.8607 30.5263 10.3833 29.2972 11.8877C29.1871 12.0344 29.077 12.1628 28.9486 12.3096C28.7468 12.5481 28.5634 12.7682 28.3616 13.0067C27.7929 13.7038 27.2242 14.3826 26.6371 15.0614C24.8944 17.0977 23.0598 19.0606 21.1519 20.9501C19.4275 22.6746 17.648 24.344 15.8319 25.9767C14.3826 27.2609 12.915 28.5267 11.4474 29.7742C10.365 30.6914 9.26429 31.6087 8.16359 32.5076C7.77834 32.8195 7.39309 33.1313 7.00784 33.4248C7.04453 33.4432 7.08122 33.4799 7.11791 33.5166C7.37475 33.7184 7.63158 33.9018 7.88841 34.0853C8.84236 34.764 9.88803 35.3694 10.9704 35.8647C13.2085 34.1036 15.3549 32.2141 17.5013 30.3245C21.8858 26.2702 26.362 22.2527 30.0493 17.5196ZM26.3069 34.6356C25.1879 35.4795 24.0688 36.3234 22.8947 37.0939C29.6091 35.5896 34.9842 30.4713 36.8554 23.9037C35.4795 25.5364 34.0302 27.1325 32.5626 28.6918C30.5813 30.7831 28.5817 32.8745 26.3069 34.6356ZM15.6117 19.3358C18.8771 15.9419 22.3444 12.7499 25.2613 9.0625C26.7656 7.22798 28.2699 5.37513 29.4623 3.33882C28.8569 2.91688 28.2148 2.53163 27.5544 2.18307C27.3893 2.09135 27.2058 1.99962 27.0224 1.90789C26.2519 3.15536 25.4447 4.36614 24.5825 5.54023C24.2156 6.03555 23.8303 6.51252 23.4451 6.9895C23.2249 7.24633 23.0048 7.50316 22.7663 7.75999C22.4545 8.10855 22.1242 8.45711 21.7757 8.80567C21.6289 8.95243 21.4822 9.09919 21.3354 9.24595C18.4552 12.0528 15.52 14.7862 12.6031 17.5563C12.4747 17.6847 12.3279 17.8131 12.1995 17.9415C12.1078 18.0333 12.0161 18.125 11.9243 18.1984C10.4567 19.5926 8.97077 20.9685 7.46647 22.3077C5.66865 23.9221 3.81579 25.4814 1.90789 26.9674C1.96293 27.0774 2.01797 27.1875 2.073 27.2976C2.42156 27.9763 2.80681 28.6368 3.22874 29.2788C3.37551 29.499 3.54061 29.7191 3.68737 29.9393C3.76075 29.8842 3.81579 29.8475 3.88917 29.7925C5.06326 28.9303 6.219 28.013 7.31971 27.0591C10.1816 24.6008 12.8783 21.9408 15.6117 19.3358ZM6.53087 10.2916C7.7233 8.97077 8.91574 7.66827 10.0531 6.29238C11.5941 4.36614 13.0434 2.38487 14.566 0.458628C14.4376 0.495319 14.3092 0.513664 14.1808 0.550354C14.0524 0.587044 13.9423 0.60539 13.8139 0.64208C12.8599 0.898912 11.9243 1.24747 11.0254 1.65106C10.9704 1.66941 10.9154 1.7061 10.842 1.74279C10.6585 1.94458 10.4751 2.16473 10.2916 2.36652C7.96179 4.98988 5.4852 7.52151 2.88019 9.88803C2.51328 10.2366 2.12804 10.5668 1.74279 10.8787C1.11905 12.2179 0.64208 13.6488 0.366903 15.1347C0.330213 15.3549 0.293522 15.5567 0.256832 15.7768C0.238486 15.9052 0.220141 16.052 0.201796 16.1804C0.788841 15.7768 1.35754 15.3549 1.90789 14.8963C3.52227 13.447 5.06326 11.9243 6.53087 10.2916ZM8.40207 16.4372C9.2276 15.6484 10.0531 14.8779 10.8787 14.0891C11.0805 13.9056 11.2823 13.7038 11.4841 13.502C11.5207 13.4653 11.5758 13.4103 11.6125 13.3736C11.9427 13.0434 12.2729 12.6948 12.6215 12.3646C13.6304 11.3556 14.6211 10.3467 15.6301 9.33768C16.2354 8.71394 16.8408 8.07186 17.4462 7.44813C18.1433 6.71432 18.8405 5.96217 19.5192 5.19167C20.8217 3.70572 21.9041 2.073 23.0598 0.495319C23.0048 0.476974 22.9314 0.458628 22.858 0.458628C21.5372 0.165106 20.1613 0 18.7671 0C18.5102 0 18.2351 4.19614e-07 17.9782 0.0183456C17.8865 0.128416 17.7764 0.238487 17.6847 0.348558C17.061 1.06402 16.4189 1.77948 15.7952 2.47659C15.0614 3.30212 14.3459 4.12766 13.6304 4.97153C12.7315 6.0539 11.7409 7.04453 10.7686 8.05352C10.0531 8.80567 9.35602 9.55782 8.64056 10.3283C8.58553 10.4017 8.51214 10.4751 8.43876 10.5301C8.16359 10.8236 7.88841 11.1172 7.61323 11.4107C6.75101 12.3279 5.88879 13.2635 5.00822 14.1808C3.70572 15.575 2.34818 16.9326 0.935602 18.2167C0.623734 18.4919 0.311867 18.7304 0 18.9872C0 19.1156 0 19.2441 0 19.3541C0.0366903 20.5099 0.183452 21.6473 0.403593 22.7296C0.440283 22.8764 0.458629 23.0231 0.495319 23.1699C1.65106 22.2893 2.77012 21.3721 3.90751 20.4915C5.46685 19.1707 6.93446 17.8131 8.40207 16.4372Z" fill="#677BF6" fill-opacity="0.8"/>
<path d="M0.146761 28.7653C0.128416 28.7286 0.110071 28.7102 0.110071 28.6735C0.0733803 28.6002 0.0366903 28.5268 0 28.4351C0.0183451 28.4717 0.055035 28.5268 0.0733801 28.5635C0.0917253 28.6002 0.0917254 28.6369 0.110071 28.6735C0.110071 28.6919 0.128416 28.7102 0.128416 28.7286C0.146761 28.7286 0.146761 28.7469 0.146761 28.7653Z" fill="#677BF6" fill-opacity="0.8"/>
<path opacity="0.64" d="M16.2729 34.9657C16.1811 34.874 16.1444 34.7456 16.1628 34.6172C16.1628 34.4888 16.2362 34.3787 16.3279 34.3053C16.4563 34.1769 16.5847 34.0485 16.7315 33.9201C16.8599 33.7916 16.9883 33.6632 17.1167 33.5348C17.1167 33.5348 17.1167 33.5348 17.1351 33.5165C17.1351 33.5165 17.1351 33.5165 17.1534 33.4981C17.1901 33.4614 17.2268 33.4247 17.2635 33.388C17.3002 33.3514 17.3369 33.3147 17.3552 33.2963C17.7588 32.8744 18.1624 32.4524 18.5843 32.0488C18.9696 31.6636 19.3915 31.2967 19.7951 30.9114C20.1253 30.6179 20.4556 30.3061 20.7674 29.9942C21.0793 29.7007 21.3728 29.4071 21.648 29.132C21.7581 29.0219 21.8681 28.9118 21.9782 28.8018C22.0699 28.71 22.1616 28.6367 22.2534 28.5449C22.3634 28.4349 22.4735 28.3431 22.6019 28.2331C22.6937 28.1413 22.7854 28.068 22.8771 27.9762C23.0973 27.7744 23.3174 27.5726 23.5375 27.3708C23.721 27.2057 23.9044 27.0223 24.0879 26.8572C24.2897 26.6737 24.4731 26.4903 24.6749 26.3252C24.7667 26.2518 24.84 26.1601 24.9318 26.0867C25.0235 26.0133 25.1152 25.9399 25.2069 25.8665C25.3904 25.7014 25.5738 25.5363 25.7573 25.3712C25.8674 25.2428 25.9958 25.1144 26.1059 24.986C26.1609 24.9126 26.2343 24.8576 26.2893 24.8025C26.3627 24.7291 26.4177 24.6741 26.4911 24.6191C26.5278 24.5824 26.5461 24.564 26.5828 24.5273C26.5828 24.509 26.5828 24.4907 26.6012 24.4907C26.6195 24.454 26.6562 24.4173 26.6929 24.3989C26.7112 24.3989 26.7296 24.3989 26.7479 24.4173C26.7663 24.454 26.7479 24.4723 26.7296 24.509C26.7112 24.564 26.6746 24.6007 26.6379 24.6558C26.5461 24.7658 26.4544 24.8576 26.381 24.9676C26.2893 25.096 26.2159 25.2061 26.1242 25.3345C26.0325 25.4629 25.9407 25.573 25.8307 25.6831C25.739 25.7932 25.6472 25.9032 25.5555 26.0133C25.4638 26.1234 25.372 26.2151 25.2803 26.3252C25.2436 26.3619 25.2253 26.4169 25.1886 26.4536C25.1336 26.5086 25.0969 26.5637 25.0418 26.6187C24.9318 26.7288 24.8217 26.8572 24.73 26.9672C24.5649 27.1507 24.3998 27.3708 24.2347 27.5543C24.0512 27.7744 23.8494 27.9946 23.6476 28.2147C23.5559 28.3064 23.4642 28.4165 23.3724 28.5082C23.2807 28.6183 23.189 28.7284 23.0789 28.8201C22.9688 28.9485 22.8588 29.0586 22.7304 29.1687C22.6019 29.2971 22.4919 29.4255 22.3634 29.5539C22.235 29.7007 22.0883 29.8474 21.9599 29.9942C21.8681 30.0859 21.7764 30.1776 21.703 30.2694C21.5929 30.3794 21.4829 30.5079 21.3728 30.6179C21.3361 30.6546 21.2994 30.6913 21.226 30.7647C21.1894 30.8014 21.1343 30.8564 21.1343 30.8564C21.0426 30.9481 20.9325 31.0582 20.8408 31.1499C20.694 31.2967 20.5289 31.4435 20.3822 31.5902C20.2171 31.737 20.0703 31.8837 19.9052 32.0488C19.5933 32.3424 19.2998 32.6359 19.0246 32.9111C19.0063 32.9294 19.0063 32.9478 18.9879 32.9478C18.621 33.3147 18.2725 33.6816 17.9239 34.0485C17.9239 34.0485 17.9239 34.0485 17.9056 34.0668C17.8322 34.1402 17.7588 34.2136 17.7221 34.2503C17.6854 34.287 17.6671 34.3053 17.6487 34.3236C17.6304 34.342 17.5937 34.3787 17.5754 34.397C17.3736 34.5988 17.1534 34.8006 16.9516 35.0024C16.8599 35.0758 16.7498 35.1125 16.6398 35.1125C16.493 35.1308 16.3646 35.0758 16.2729 34.9657Z" fill="white" fill-opacity="0.8"/>
<path opacity="0.64" d="M16.6944 35.1125C16.676 35.1492 16.6393 35.2042 16.6026 35.2225C16.0339 35.7729 15.5203 36.3599 14.8965 36.8369C14.8048 36.9103 14.6947 36.9837 14.603 37.0571C14.2728 36.9837 13.9426 36.892 13.6124 36.8002C13.5573 36.7819 13.5023 36.7635 13.4473 36.7452C14.016 36.3233 14.5847 35.883 15.0983 35.3877C15.4102 35.1125 15.7221 34.8373 16.0339 34.5621C16.0706 34.5254 16.1257 34.4887 16.1807 34.4704C16.2908 34.4337 16.4192 34.4337 16.5109 34.4887C16.5659 34.5071 16.6026 34.5438 16.6577 34.5988C16.7677 34.7639 16.7861 34.9657 16.6944 35.1125Z" fill="white" fill-opacity="0.8"/>
<path opacity="0.64" d="M36.6173 12.9148C36.6907 13.135 36.7641 13.3551 36.8191 13.5752C36.6907 13.7404 36.5623 13.9055 36.4339 14.0706C35.1497 15.7583 33.5353 17.1526 32.1227 18.7119C31.8476 19.0238 31.554 19.2806 31.2972 19.5925C31.1505 19.7943 31.0404 20.0327 30.8202 20.1795C30.8202 20.1978 30.8019 20.2162 30.7836 20.2162C30.7652 20.2345 30.7285 20.2162 30.7285 20.1978C30.7285 20.1795 30.7285 20.1612 30.7285 20.1428C30.7652 20.0694 30.8569 20.0144 30.912 19.941C31.0037 19.8126 31.0404 19.6658 31.1321 19.5374C31.6458 18.822 32.1961 18.1432 32.6914 17.4277C33.8839 15.8867 35.1864 14.4191 36.2871 12.8048C36.3605 12.713 36.4339 12.603 36.5072 12.5112C36.5439 12.658 36.5806 12.7864 36.6173 12.9148Z" fill="white" fill-opacity="0.8"/>
<path opacity="0.64" d="M37.534 12.6032C37.5157 12.6032 37.5157 12.6216 37.534 12.6032C37.4607 12.4565 37.4056 12.2914 37.3506 12.1263C37.3506 12.1263 37.3506 12.1079 37.3689 12.1079C37.424 12.273 37.479 12.4381 37.534 12.6032Z" fill="white" fill-opacity="0.8"/>
<path opacity="0.64" d="M27.9757 29.9396C27.4254 30.6734 26.8016 31.3705 26.1779 32.0493C26.0678 32.1777 25.9394 32.3061 25.8293 32.4345C24.2517 34.1773 22.6006 35.8651 20.8395 37.4427C20.4726 37.4794 20.1057 37.5161 19.7388 37.5345C19.6103 37.5345 19.4819 37.5528 19.3535 37.5528C21.3164 35.9018 23.261 34.2323 25.1139 32.4529C26.1779 31.5173 27.297 30.5817 28.1408 29.4626C28.0308 29.4443 28.0858 29.2792 28.1775 29.3158C28.4894 29.3892 28.0675 29.7745 27.9757 29.9396Z" fill="white" fill-opacity="0.8"/>
<path d="M31.9199 25.4996C31.9199 25.4812 31.9383 25.4629 31.975 25.4629C31.9933 25.4629 32.0116 25.4812 32.0116 25.5179C32.0116 25.5363 31.9933 25.5546 31.9566 25.5546C31.9383 25.5546 31.9199 25.5179 31.9199 25.4996Z" fill="white" fill-opacity="0.8"/>
<path opacity="0.64" d="M37.5521 18.7669C37.5521 18.9687 37.5522 19.1705 37.5338 19.3723C36.8917 20.1245 36.2496 20.8583 35.5892 21.5921C34.9838 22.2709 34.3784 22.9313 33.7914 23.6101C33.2044 24.2705 32.5439 24.8392 31.9936 25.5363C31.9569 25.6097 31.8468 25.518 31.9018 25.4629C33.1677 23.9036 34.3051 22.2525 35.5342 20.6748C36.213 19.831 36.8734 18.9504 37.5155 18.0698C37.5155 18.2716 37.5338 18.4551 37.5338 18.6569C37.5522 18.7119 37.5521 18.7302 37.5521 18.7669Z" fill="white" fill-opacity="0.8"/>
<path opacity="0.64" d="M15.1901 19.409C15.0617 19.6292 14.7865 19.7576 14.6214 19.9594C14.0344 20.6749 13.484 21.427 12.7135 21.959C10.9524 23.6835 9.15455 25.4079 7.30169 27.0223C6.87976 27.3892 6.47616 27.7561 6.03588 28.1046C5.41214 28.6733 4.75172 29.2053 4.07295 29.7007C3.96288 29.7924 3.85281 29.8841 3.72439 29.9758C3.70605 29.9391 3.6877 29.9208 3.65101 29.8841C3.48591 29.664 3.33914 29.4438 3.19238 29.2237C3.55929 28.9302 3.90784 28.6366 4.27475 28.3798C5.55891 27.2974 6.86141 26.2701 8.16391 25.2061C9.338 24.2705 10.5671 23.4266 11.6862 22.4543C12.2365 21.9223 12.8786 21.5187 13.4106 21.0051C13.9426 20.5097 14.3279 19.886 14.9149 19.4641C14.97 19.4274 14.9883 19.3907 15.025 19.354C15.0433 19.2072 15.3185 19.2806 15.1901 19.409Z" fill="white" fill-opacity="0.8"/>
<path opacity="0.64" d="M19.9596 22.3259C19.9412 22.3442 19.9412 22.3626 19.9412 22.3626C19.9229 22.3993 19.8862 22.436 19.8495 22.4727C19.7944 22.5277 19.7394 22.6011 19.666 22.6561C19.556 22.7662 19.4642 22.8946 19.3725 23.0047C19.2441 23.1331 19.134 23.2615 19.0056 23.3899C18.9506 23.4449 18.9139 23.5 18.8588 23.5367C18.8038 23.5917 18.7488 23.6651 18.6937 23.7201C18.5653 23.8485 18.4369 23.977 18.3085 24.1054C18.1617 24.2521 18.015 24.3805 17.8865 24.509C17.8132 24.5823 17.7398 24.6741 17.6664 24.7474C17.593 24.8208 17.5196 24.9126 17.4279 24.9859C17.2628 25.1327 17.0977 25.2978 16.9509 25.4446C16.8592 25.5363 16.7858 25.628 16.7125 25.7014C16.6024 25.8115 16.5107 25.9032 16.4006 26.0133C16.3089 26.105 16.1988 26.1784 16.1071 26.2518C16.0153 26.3251 15.9053 26.3985 15.8135 26.4719C15.7218 26.5453 15.6301 26.6187 15.52 26.7104C15.4833 26.7471 15.4466 26.7838 15.3916 26.8205C15.3549 26.8571 15.2999 26.8938 15.2632 26.9305C15.1898 27.0039 15.1348 27.0773 15.0614 27.1323C14.988 27.224 14.8963 27.3158 14.8229 27.4075C14.6762 27.5726 14.5294 27.7377 14.3826 27.9028C14.0891 28.233 13.7589 28.5265 13.447 28.8384C13.337 28.9485 13.2452 29.0586 13.1352 29.1686C13.0251 29.2787 12.915 29.4071 12.8049 29.5172C12.5665 29.774 12.328 30.0125 12.1078 30.2326C11.8877 30.4711 11.6309 30.6913 11.4107 30.9114C11.3373 30.9848 11.264 31.0582 11.1906 31.1316C11.0988 31.2233 11.0071 31.315 10.9154 31.4067C10.8237 31.4985 10.7136 31.6085 10.6035 31.7003C10.4935 31.792 10.3834 31.9021 10.2733 31.9938C10.0715 32.1772 9.86973 32.3607 9.66793 32.5258C9.46613 32.6909 9.26434 32.8743 9.06254 33.0395C8.8424 33.2229 8.62226 33.4064 8.40211 33.5898C8.21866 33.7366 8.05356 33.8833 7.8701 34.0117C7.61327 33.8283 7.35644 33.6448 7.09961 33.443C7.94349 32.7826 8.76902 32.1039 9.5762 31.4067C9.778 31.2233 9.9798 31.0582 10.1816 30.8747C10.3834 30.6729 10.6035 30.4711 10.8053 30.2877C10.9888 30.1042 11.1906 29.9208 11.3924 29.7557C11.4107 29.7373 11.4291 29.719 11.4474 29.719C11.6309 29.5539 11.8143 29.3888 11.9978 29.2053C12.1996 29.0219 12.4014 28.8384 12.5848 28.6366C12.7866 28.4532 12.9884 28.2697 13.2085 28.0863C13.6305 27.7377 14.0341 27.3892 14.4193 27.0039C14.4927 26.9305 14.5661 26.8571 14.6395 26.8021C14.6945 26.7471 14.7495 26.7104 14.8046 26.6553C14.933 26.5453 15.0797 26.4352 15.1898 26.3435C15.2632 26.2884 15.3366 26.2518 15.3916 26.1967C15.4466 26.16 15.5017 26.1233 15.5567 26.0866C15.6484 26.0316 15.7402 25.9766 15.8319 25.9032C15.9787 25.8115 16.1071 25.7197 16.2355 25.6097C16.4006 25.4813 16.5474 25.3345 16.7125 25.2061C16.8042 25.1327 16.8959 25.0593 16.9876 24.9859C17.1344 24.8759 17.2628 24.7658 17.3912 24.6374C17.5196 24.5273 17.6297 24.4172 17.7581 24.3072C17.9049 24.1788 18.0517 24.0503 18.2168 23.9219C18.3452 23.8118 18.4736 23.7018 18.602 23.5734L18.6387 23.5367C18.6754 23.5 18.7304 23.4449 18.7671 23.4083C18.7855 23.3899 18.7855 23.3899 18.8038 23.3716L18.8222 23.3532C18.8588 23.3165 18.8772 23.2982 18.9139 23.2615C18.9322 23.2432 18.9506 23.2248 18.9689 23.2065C18.9873 23.1881 19.0056 23.1698 19.0056 23.1698C19.0056 23.1514 19.0239 23.1514 19.0239 23.1514C19.0973 23.078 19.1891 22.9863 19.2624 22.9129C19.3542 22.8212 19.4275 22.7111 19.5193 22.6194C19.611 22.5093 19.7211 22.4176 19.7944 22.3075V22.2892C19.8128 22.2525 19.8311 22.2158 19.8678 22.2158C19.9962 22.2342 20.0146 22.3075 19.9596 22.3259Z" fill="white" fill-opacity="0.8"/>
<path opacity="0.64" d="M11.484 13.5019V13.5202C11.3556 13.7771 11.1171 13.9605 10.9153 14.1623C9.31927 15.9601 7.53979 17.6112 5.74196 19.2256C4.12759 20.8216 2.43984 22.3076 0.642017 23.6651C0.605327 23.5 0.550291 23.3349 0.513601 23.1514C0.47691 23.0047 0.44022 22.8579 0.421875 22.7112C2.34811 21.2435 4.27435 19.7759 6.14556 18.2349C6.91605 17.6662 7.6682 17.0425 8.40201 16.4188C9.26423 15.6666 10.0898 14.8778 10.8786 14.0706C11.007 13.9422 11.1354 13.8138 11.2639 13.667C11.3189 13.612 11.3556 13.5386 11.3923 13.4652C11.429 13.4469 11.484 13.4652 11.484 13.5019Z" fill="white" fill-opacity="0.8"/>
<path d="M0.0733801 28.5635C0.0917253 28.6002 0.0917254 28.6369 0.110071 28.6735C0.0733803 28.6002 0.0366903 28.5268 0 28.4351C0.0366903 28.4717 0.055035 28.5268 0.0733801 28.5635Z" fill="white" fill-opacity="0.8"/>
<path d="M12.181 17.923V17.9413C12.126 18.0697 12.0159 18.1615 11.9425 18.2899C11.0252 19.4456 9.88785 20.3996 8.80548 21.3902C7.68643 22.4175 6.54903 23.4082 5.39329 24.3805C4.23754 25.2977 3.19187 26.3434 2.03613 27.279C1.98109 27.1689 1.92606 27.0589 1.87102 26.9488C1.83433 26.8937 1.81599 26.8204 1.7793 26.747C2.16454 26.4351 2.54979 26.1232 2.95339 25.793C4.421 24.5823 5.96199 23.4632 7.44794 22.2708C7.92492 21.8855 8.40189 21.5003 8.86052 21.0967C9.94288 20.1794 11.0436 19.2805 11.9058 18.1615C11.9608 18.0881 12.0159 17.9964 12.0893 17.923L12.1076 17.9046C12.1076 17.8863 12.1626 17.8863 12.181 17.923Z" fill="white" fill-opacity="0.8"/>
<path opacity="0.64" d="M8.65814 10.3651C8.6031 10.4936 8.51138 10.6036 8.438 10.7137C7.06211 12.5299 5.46608 14.1442 3.87006 15.7586C2.64093 17.0061 1.37512 18.2536 0.0175781 19.3543C0.0175781 19.2258 0.0175781 19.0974 0.0175781 18.9874C0.0175781 18.914 0.0175781 18.8406 0.0175781 18.7672C0.0175781 18.7305 0.0175781 18.6938 0.0175781 18.6755C0.439516 18.3269 0.861455 17.9784 1.28339 17.6298C2.53086 16.4924 3.79668 15.3734 5.00746 14.1993C6.10816 13.1536 7.17218 12.0712 8.16282 10.9338C8.25454 10.8054 8.36462 10.677 8.45634 10.5486C8.49303 10.4936 8.52972 10.4202 8.56641 10.3468C8.58476 10.3101 8.63979 10.3101 8.65814 10.3285C8.65814 10.3285 8.65814 10.3468 8.65814 10.3651Z" fill="white" fill-opacity="0.8"/>
<path opacity="0.64" d="M6.51253 9.97989C5.96217 10.4935 3.00861 13.3737 0.256836 15.777C0.293526 15.5568 0.330217 15.355 0.366907 15.1349C2.49494 13.5205 4.51291 11.7594 6.4208 9.86982C6.47584 9.81478 6.56756 9.90651 6.51253 9.97989Z" fill="white" fill-opacity="0.8"/>
<path opacity="0.64" d="M23.4637 0.586982C23.2069 0.935539 22.9501 1.2841 22.7116 1.63265C21.4091 3.44882 19.9048 5.11823 18.3821 6.7326C17.4649 7.7049 16.4559 8.58546 15.5937 9.59444V9.61279C15.5937 9.66782 15.502 9.66782 15.502 9.61279C15.612 9.30092 15.9606 9.06244 16.1807 8.8056C16.6027 8.34698 17.0429 7.88835 17.4649 7.42972C17.7217 7.15454 17.9969 6.86102 18.2537 6.5675C19.4828 5.11823 20.6936 3.63227 21.776 2.07294C22.1245 1.50424 22.5098 0.953884 22.895 0.421875C22.9684 0.44022 23.0235 0.458565 23.0968 0.458565C23.2069 0.513601 23.3353 0.550291 23.4637 0.586982Z" fill="white" fill-opacity="0.8"/>
<path opacity="0.64" d="M17.9414 0.0185547C17.8496 0.128626 17.7763 0.238696 17.7029 0.348767C17.4644 0.678979 17.2259 1.00919 16.9874 1.3394C15.9417 2.78867 14.7126 4.10952 13.4835 5.39368C13.1349 5.76058 12.7864 6.10914 12.4562 6.47604C12.4378 6.49439 12.4195 6.53108 12.3828 6.53108C12.3277 6.53108 12.3277 6.4577 12.3644 6.43935C12.8781 5.87065 13.4468 5.33864 13.9238 4.7516C14.5475 3.99945 15.1896 3.26564 15.7766 2.49515C16.0518 2.12825 16.327 1.76134 16.5838 1.35775C16.8773 0.917466 17.1709 0.477183 17.4644 0.0368995C17.6478 0.0368995 17.7946 0.0185547 17.9414 0.0185547Z" fill="white" fill-opacity="0.8"/>
<path opacity="0.64" d="M14.1812 0.568848C14.1078 0.660573 14.0344 0.752299 13.9794 0.86237C13.0988 2.07315 12.2916 3.33896 11.3193 4.47636C11.2826 4.51305 11.2643 4.54974 11.2092 4.54974C11.1542 4.54974 11.1542 4.45802 11.2092 4.45802C11.6862 3.94435 12.0715 3.37565 12.4567 2.78861C12.842 2.20156 13.1905 1.59618 13.5941 1.04582L13.8326 0.678918C13.9427 0.623883 14.0527 0.587193 14.1812 0.568848Z" fill="white" fill-opacity="0.8"/>
<path opacity="0.64" d="M11.0257 1.66943C10.7321 2.05468 10.4203 2.43993 10.1267 2.82518C10.0717 2.89856 9.9066 3.13704 9.85156 2.95359C9.85156 2.9169 9.86991 2.89856 9.9066 2.88021C10.035 2.71511 10.1818 2.53165 10.3102 2.36655C10.4386 2.1831 10.5854 1.99965 10.7138 1.81619C10.7688 1.79785 10.8055 1.76116 10.8605 1.74281C10.9156 1.72447 10.9706 1.68778 11.0257 1.66943Z" fill="white" fill-opacity="0.8"/>
<path opacity="0.64" d="M27.555 2.16441C26.3259 3.79712 24.9133 5.28308 23.6108 6.86076C23.3724 7.17263 23.0972 7.46615 22.9321 7.81471C22.9137 7.86974 22.8587 7.88809 22.8037 7.86974C22.767 7.8514 22.7486 7.81471 22.767 7.74133C22.822 7.46615 23.3357 6.89745 23.409 6.76903C24.2162 5.66833 25.0418 4.58596 25.8489 3.48526C26.2525 2.95325 26.6194 2.40289 26.968 1.85254C26.9863 1.87088 27.023 1.87088 27.0414 1.88923C27.2065 1.98095 27.3899 2.07268 27.555 2.16441Z" fill="white" fill-opacity="0.8"/>
<path opacity="0.64" d="M33.5531 7.17291C31.8286 9.72289 29.774 12.016 27.7193 14.3092C27.0222 15.1347 26.3435 15.9969 25.683 16.8591C25.6463 16.9142 25.5363 16.8591 25.5913 16.7858C26.8571 15.1714 28.1046 13.5387 29.3154 11.8876C30.5995 10.1265 31.847 8.347 33.0027 6.49414C33.0761 6.58587 33.1495 6.65925 33.2229 6.75097C33.3146 6.87939 33.443 7.02615 33.5531 7.17291Z" fill="white" fill-opacity="0.8"/>
</svg>
