<svg width="40" height="41" viewBox="0 0 40 41" fill="none" xmlns="http://www.w3.org/2000/svg">
<path d="M37.3548 17.1737C37.6206 15.384 36.9473 13.5767 35.8487 12.1591C35.2285 11.3618 34.1831 10.5644 33.1377 10.9011C32.7124 11.0428 32.6061 11.5212 32.3049 11.787C32.11 11.9819 31.7733 12.3895 31.4721 12.1414C31.2594 11.7161 31.1354 11.1491 31.3303 10.6884C31.8973 9.66072 33.244 8.86336 33.0845 7.55214C33.0668 7.12688 32.9782 6.6839 32.8187 6.27636C32.6593 5.86882 32.4289 5.479 32.0922 5.16005C31.5252 4.62848 30.8342 4.30953 30.1077 4.15006C28.9914 3.88427 27.751 4.00831 26.6525 4.29181C26.2095 4.43357 25.8019 4.66392 25.4298 4.94742C25.0577 5.24865 24.8274 5.70935 24.5084 6.06373C24.0123 6.61303 23.2327 6.36496 22.5593 6.34724C21.886 6.25864 21.195 6.36496 20.5748 6.6839C20.2913 6.80794 20.0255 6.94969 19.7597 7.12688C19.9901 6.13461 19.9723 5.16005 19.2458 4.32725C18.5371 3.38814 17.5802 2.8034 16.4108 2.62621C15.578 2.5199 14.7275 2.87428 14.0364 3.31726C13.9832 3.3527 13.9124 3.40586 13.8238 3.45901C13.6466 3.60077 13.5934 3.84883 13.7175 4.04375C13.8415 4.20322 14.0718 4.2741 14.249 4.16778C14.4971 4.04375 14.7275 3.86655 14.9755 3.76024C14.4439 4.11462 14.0718 4.62848 13.5934 5.0183C12.6898 5.81566 11.4317 5.65619 10.3331 5.5676C9.23451 5.40812 7.99417 5.70935 7.24996 6.55987C5.69068 8.33179 4.14911 10.1391 3.1214 12.3009C2.1114 13.9488 1.66842 15.8447 1.52667 17.7584C1.43807 18.5912 1.33176 19.4417 1.38492 20.2745C1.47351 21.3731 1.75702 22.454 2.04053 23.5171C2.34175 24.6866 2.74929 25.8383 3.4935 26.8129C4.46805 28.0001 5.76155 29.0455 7.2854 29.3644C7.69294 29.3999 8.06505 29.4353 8.40171 29.4885C8.61434 29.7011 8.84469 29.896 9.11048 30.0378C9.55346 30.215 10.0142 30.1618 10.4749 30.0378C11.6798 30.5871 12.5303 31.5616 13.5226 33.2272C14.2136 34.1841 14.9578 35.1409 15.8969 35.8497C16.9069 36.4167 17.9169 37.1077 19.0864 37.2672C22.3113 37.7279 24.1363 35.2472 25.0046 32.4653C25.3235 31.4199 25.6247 30.3744 25.6956 29.2759C25.7133 28.6202 25.5184 27.9824 25.2526 27.3799C24.6148 26.0155 22.8428 24.6866 21.3721 24.3854C20.1672 24.1904 18.4662 23.7298 17.8815 25.1827C17.2436 25.3422 16.4817 25.165 16.0918 24.598C15.9501 24.2613 16.021 23.8892 15.9855 23.5348C15.9146 22.4894 14.7983 22.1527 14.001 21.7629C13.6466 21.5326 13.5757 21.0542 13.7529 20.6821C14.001 20.2745 14.5857 20.0973 15.0287 20.2391C15.6134 20.5403 15.9678 21.125 16.4462 21.568C16.8538 22.011 17.4031 22.2768 17.9523 22.4894C19.2281 23.0741 20.7165 22.5248 21.6025 21.5149C22.4353 20.5226 22.8251 19.2468 22.9846 17.9887C23.0377 17.6166 23.0732 17.2623 23.0909 16.8901C23.463 17.1382 23.8705 17.3331 24.3135 17.4572C24.6856 17.5812 25.0932 17.5103 25.4653 17.5989C26.0146 17.7761 26.4398 18.2014 26.8297 18.6266C27.4144 19.3354 27.7156 20.2391 28.4244 20.8415C29.204 21.4794 30.0723 22.1173 31.0823 22.2768C33.0491 22.5248 35.1754 21.6389 36.3803 20.0619C37.0713 19.1936 37.2485 18.1659 37.3548 17.1737ZM21.7088 0.0746511C32.5707 0.925171 40.9873 10.8656 39.9064 21.7452C38.985 32.483 29.3812 40.5984 18.6788 39.9782C9.51802 39.5353 1.89877 32.5362 0.339486 23.5703C-2.0526 10.529 8.52574 -1.04166 21.7088 0.0746511Z" fill="white" fill-opacity="0.8"/>
<path d="M11.8741 12.0885C12.9727 11.9468 13.9472 12.9568 13.9472 14.0377C13.8409 15.5261 11.8563 16.8904 10.5097 16.0045C9.16303 14.959 9.80092 12.5315 11.5197 12.3366C11.5906 12.2126 11.7146 12.1063 11.8741 12.0885Z" fill="#CDD1DA" fill-opacity="0.8"/>
<path d="M10.191 21.4436C11.4313 21.798 12.2464 23.3041 11.7857 24.509C11.5376 25.2001 10.8466 25.6785 10.1201 25.519C9.05696 25.3773 8.56082 24.2255 8.59626 23.251C7.72802 22.9675 8.61398 21.9398 9.03924 21.6385C9.3759 21.3727 9.81888 21.3019 10.191 21.4436Z" fill="#CDD1DA" fill-opacity="0.8"/>
<path d="M27.68 10.8299C28.4773 11.7335 27.4319 13.4877 26.2802 13.2751C25.4474 13.0448 24.8981 11.9284 25.4296 11.1842C25.341 10.9716 25.4651 10.759 25.6068 10.5995C26.1384 10.0148 27.1838 10.3692 27.68 10.8299Z" fill="#CDD1DA" fill-opacity="0.8"/>
<path d="M30.4092 14.2146C30.5155 13.5768 30.1611 13.0275 29.8068 12.5313C29.4701 12.0175 29.3638 11.3973 29.2397 10.8126C29.2043 10.281 29.3106 9.7317 29.4701 9.23556C29.8068 8.54451 30.0194 8.15469 29.5587 7.42821C28.9917 6.57768 27.6982 6.41821 26.7591 6.45365C26.1389 6.50681 25.5542 6.79031 25.0226 7.12698C24.5619 7.44592 24.4378 8.04838 24.2784 8.56223C24.0303 8.59767 23.7822 8.45592 23.5696 8.3496C23.5873 8.33188 23.605 8.31416 23.605 8.27873C23.6228 8.22557 23.5873 8.17241 23.5519 8.13697C23.4987 7.99522 23.3215 7.95978 23.1975 7.90662C22.8786 7.5168 21.904 6.84347 21.5673 7.5168C20.894 7.49908 20.1144 7.53452 19.5651 7.9775C19.5296 7.99522 19.5119 8.01294 19.4765 8.03066C18.75 8.50907 18.5019 9.04065 18.3779 9.90889C18.2893 11.1138 18.2184 12.7085 19.441 13.3464C19.8131 13.5768 20.2384 13.7185 20.6814 13.7894C21.3016 13.878 21.9394 13.7894 22.5065 13.559C22.9317 13.3818 23.357 12.9389 23.8531 13.0629C24.2607 13.4527 24.3847 14.0729 24.615 14.5868C24.8808 15.2601 25.3238 15.8803 26.0149 16.1638C26.387 16.3232 26.7768 16.4473 27.1666 16.5359C27.5741 16.6067 28.0171 16.5536 28.3183 16.908C28.655 17.2092 29.2043 17.1915 29.5233 16.8725C30.2675 16.2169 30.3029 15.136 30.4092 14.2146ZM35.406 18.2015C35.9199 17.8294 36.1325 17.1029 36.0971 16.5004C36.0262 15.7739 35.5123 15.1183 35.6541 14.3741C35.7427 14.0552 35.8313 13.754 35.849 13.5059C35.8844 13.0097 35.725 12.6022 35.0516 12.301C34.5909 11.7871 34.0239 11.4327 33.3683 11.5745C33.262 11.8226 33.1557 12.0352 33.0139 12.2301C32.6241 12.3896 32.3052 12.6554 32.0925 12.992C31.8976 13.311 31.7736 13.7008 31.7559 14.1261C31.5964 15.136 31.8622 16.146 32.8545 16.6422C33.138 16.8548 33.1202 17.2092 33.2443 17.5104C33.2797 17.599 33.3152 17.6699 33.3683 17.7408C33.0316 17.4395 32.6418 17.2092 32.2166 17.0674C32.0571 17.0143 31.8799 16.9611 31.7204 16.9257C31.4546 16.8371 31.2597 17.1915 31.4546 17.3687C30.6927 17.7939 30.3029 18.8748 30.5864 19.6899C30.8345 20.5936 31.6673 20.9657 32.5355 21.0365C33.2088 21.0543 33.9353 20.629 34.2011 20.0088C34.4669 19.3178 34.1302 18.609 33.6695 18.0774C33.8822 18.2369 34.1657 18.3432 34.4315 18.3787C34.7681 18.3787 35.1048 18.3609 35.406 18.2015ZM35.849 12.1592C36.9476 13.5768 37.6032 15.3841 37.3551 17.1738C37.2488 18.166 37.0716 19.1937 36.4514 20.0088C35.2465 21.6035 33.1202 22.4718 31.1534 22.2237C30.1434 22.0642 29.2752 21.4086 28.4955 20.7885C27.7868 20.186 27.4678 19.2823 26.9008 18.5736C26.511 18.1483 26.0857 17.723 25.5364 17.5459C25.1466 17.475 24.7568 17.5281 24.3847 17.4041C23.9417 17.2801 23.5342 17.0852 23.1621 16.8371C23.1443 17.2092 23.1089 17.5636 23.0558 17.9357C22.8963 19.1937 22.5065 20.4695 21.6737 21.4618C20.8054 22.4718 19.2993 23.0211 18.0235 22.4363C17.4565 22.2414 16.9249 21.9756 16.5174 21.5149C16.0567 21.072 15.6846 20.4872 15.0998 20.186C14.6569 20.0443 14.0721 20.2214 13.8241 20.629C13.6646 21.0011 13.7355 21.4795 14.0721 21.7099C14.8695 22.1174 15.9681 22.4363 16.0567 23.4818C16.0921 23.8362 16.0212 24.2083 16.163 24.5449C16.5351 25.1119 17.3147 25.2891 17.9526 25.1297C18.5196 23.6767 20.2384 24.1197 21.4433 24.3323C22.914 24.6512 24.6682 25.9625 25.3238 27.3268C25.5896 27.9293 25.7668 28.5672 25.7668 29.2228C25.6959 30.3214 25.3947 31.3668 25.0757 32.4122C24.1898 35.1942 22.3824 37.6748 19.1575 37.2141C17.9881 37.0547 16.9781 36.3636 15.9681 35.7966C15.029 35.0878 14.2848 34.131 13.5937 33.1742C12.6014 31.5086 11.7509 30.534 10.546 29.9847C10.8295 29.9138 11.1307 29.8075 11.3965 29.7012C11.432 29.6835 11.4674 29.6835 11.5029 29.6658C11.7864 29.5595 11.999 29.4531 12.2825 29.3114C12.69 29.1519 13.1507 28.8507 13.5937 29.0456C14.3025 29.4177 14.2316 30.0556 14.1784 30.7289C14.1607 31.6326 14.0721 32.7843 14.8341 33.44C15.4897 33.8121 16.287 33.688 16.8895 33.245C17.4919 32.7489 18.0058 31.9338 18.7854 32.7312C19.2284 33.1742 19.7068 33.6703 20.3624 33.7766C21.1775 33.9007 22.1875 33.2982 22.2938 32.43C22.2761 31.7921 22.1521 31.0656 22.5596 30.4986C22.8786 30.1265 23.481 30.1973 23.8 29.843C24.2429 29.1874 23.9417 28.3014 23.8354 27.5749C23.5873 26.937 23.2152 26.2991 22.7191 25.803C22.4179 25.5018 22.0812 25.2537 21.6914 25.0765C21.3724 24.917 21.018 24.793 20.6637 24.7576C20.6105 24.669 20.5042 24.5981 20.3802 24.5626C19.9195 24.4386 19.4588 24.6335 19.193 24.9702C19.0867 25.1119 18.9981 25.2714 18.9803 25.4486C18.8563 26.1751 19.636 26.9193 19.0512 27.5749C18.8209 27.8939 18.4842 28.1951 18.0589 28.1419C17.8463 28.1065 17.5805 28.0888 17.4919 27.8584C17.3679 27.38 17.5097 26.8484 17.3502 26.3523C17.3147 26.246 17.2616 26.1219 17.2084 26.0156C17.049 25.6612 16.8009 25.3423 16.4642 25.1297C16.039 24.8639 15.6491 24.5272 15.2416 24.2083C15.029 24.0488 14.8163 23.8893 14.6037 23.7476C13.9304 23.4109 13.5051 22.773 13.133 22.1351C12.442 20.753 12.4597 19.0165 14.0721 18.3432C14.3379 18.2192 14.6569 18.2723 14.9404 18.2901C15.153 18.3255 15.4365 18.4141 15.5428 18.6267C15.6846 18.9811 15.844 19.3355 16.0567 19.6544C16.0921 19.7253 16.1276 19.7785 16.1807 19.8493C16.3756 20.1329 16.606 20.3632 16.8718 20.5758C17.864 21.3378 19.2993 21.5681 20.3979 20.9302C20.9472 20.4695 20.9472 19.3001 20.2916 18.9279C20.0967 18.8216 19.884 18.8039 19.6714 18.8216C19.5296 18.8216 19.317 18.8571 19.1753 18.7685C19.3347 18.2546 19.7423 17.9002 20.2561 17.7762C20.8231 17.5459 21.7445 17.6876 22.1521 17.1206C22.223 16.9966 22.2584 16.8725 22.3115 16.7308C22.3647 16.5536 22.3824 16.3587 22.3824 16.1815C22.3824 16.0043 22.3293 15.8271 22.2584 15.6676C22.2052 15.5613 22.1344 15.4373 22.0458 15.331C21.8331 15.0475 21.5319 14.8348 21.213 14.7639C21.0889 14.7462 20.9649 14.7462 20.8409 14.7639C20.2384 14.7994 19.6891 15.0652 19.1753 15.4018C19.1575 15.2778 19.0158 15.1892 18.9095 15.3132C18.8209 15.455 18.75 15.6145 18.6437 15.7562C18.4665 15.8803 18.307 16.0043 18.1475 16.1283C18.0235 15.9866 17.8818 16.2169 17.8995 16.341C17.7932 16.3232 17.6691 16.2878 17.5805 16.2346C17.3679 16.0397 17.3147 15.7562 17.2261 15.5081C17.0667 15.0652 16.9072 14.6399 16.7477 14.1969C16.4642 13.3996 15.8618 12.7617 15.6314 11.9466C15.4719 11.4327 15.4542 10.9189 15.4365 10.3873C15.4011 9.92661 15.3125 9.48363 15.2416 9.02293C15.1353 8.19013 14.71 7.71171 13.8595 7.62312C12.7609 7.49908 11.68 8.06609 10.8295 8.7217C10.4751 8.98749 10.1562 9.28872 9.87269 9.60766C9.83725 9.6431 9.80181 9.67854 9.76637 9.71398C9.28795 10.1747 8.86269 10.7063 8.61463 11.3087C8.38428 11.7871 8.24252 12.3364 7.95902 12.7794C7.83498 12.2301 7.79954 11.6808 7.81726 11.1138C7.95902 10.7063 8.04761 10.281 7.97674 9.82029C7.9413 9.66082 7.87042 9.48363 7.76411 9.35959C7.64007 9.11153 7.392 8.95205 7.09078 9.05837C7.07306 9.07609 7.03762 9.07609 7.0199 9.09381C6.57692 9.1824 6.20482 9.66082 5.92131 9.97977C5.76184 10.2456 5.28342 10.6177 5.44289 10.9366C5.30114 11.1492 5.17711 11.3973 5.05307 11.6276C4.91132 11.6276 4.76957 11.7162 4.69869 11.858C4.39746 12.4959 4.14939 13.1515 3.90133 13.8248C3.31659 15.2955 2.78502 16.8194 2.69642 18.4141C2.6787 19.4064 2.6787 20.4341 2.82046 21.4086C2.85589 21.5327 2.94449 21.6213 3.05081 21.6567C3.10396 21.9756 3.17484 22.2946 3.33431 22.5781C3.65326 23.1097 4.09624 23.7121 4.76957 23.7476C4.94676 23.7476 5.12395 23.6944 5.28342 23.6058C5.42517 23.5527 5.51377 23.4286 5.6378 23.3577C5.76184 23.3755 5.86815 23.4286 5.97447 23.4818C6.68324 23.8184 6.89587 24.5981 7.12621 25.2714C7.35656 26.0688 7.23253 26.937 7.44516 27.7521C7.56919 28.1065 7.72867 28.4609 7.9413 28.7798C8.08305 28.9924 8.24252 29.2051 8.41971 29.3823C8.06533 29.3291 7.69323 29.2937 7.30341 29.2582C5.76184 28.9393 4.48606 27.8939 3.5115 26.7067C2.7673 25.7321 2.35976 24.5804 2.05853 23.4109C1.77502 22.3477 1.49152 21.2669 1.40292 20.1683C1.34977 19.3355 1.45608 18.485 1.54468 17.6522C1.68643 15.7385 2.12941 13.8425 3.1394 12.1947C4.16711 10.0506 5.70868 8.24329 7.26797 6.45365C8.01217 5.60313 9.27024 5.3019 10.3511 5.46138C11.4674 5.56769 12.7078 5.70944 13.6114 4.91208C14.1076 4.52226 14.4797 4.0084 14.9935 3.65402C14.7455 3.76034 14.5151 3.93753 14.267 4.06156C14.0899 4.16788 13.8418 4.097 13.7355 3.93753C13.6114 3.74262 13.6469 3.49455 13.8418 3.35279C13.9127 3.29964 14.0013 3.24648 14.0544 3.21104C14.7455 2.76806 15.596 2.41368 16.4288 2.51999C17.5982 2.69718 18.5551 3.28192 19.2638 4.22103C19.9903 5.05383 20.0081 6.04611 19.7777 7.02066C20.0435 6.86119 20.327 6.70172 20.5928 6.57768C21.213 6.25874 21.8863 6.15242 22.5773 6.24102C23.2507 6.27646 24.0126 6.50681 24.5264 5.95751C24.8631 5.60313 25.0757 5.16015 25.4478 4.8412C25.8199 4.5577 26.2275 4.32735 26.6705 4.1856C27.7691 3.88437 29.0094 3.77805 30.1257 4.04384C30.8522 4.20331 31.5255 4.53998 32.1102 5.05384C32.4292 5.37278 32.6773 5.7626 32.8367 6.17014C32.9962 6.57768 33.0848 7.00294 33.1025 7.44592C33.262 8.75714 31.9331 9.55451 31.3483 10.5822C31.1534 11.0429 31.2597 11.5922 31.4901 12.0352C31.7736 12.2833 32.1102 11.8757 32.3229 11.6808C32.6241 11.3973 32.7304 10.9189 33.1557 10.7948C34.2011 10.5645 35.2465 11.3619 35.849 12.1592Z" fill="#CDD1DA" fill-opacity="0.8"/>
<path d="M7.55115 14.1438C7.58659 14.1261 7.62203 14.1083 7.63975 14.0906C7.51572 14.0906 7.39168 14.0552 7.28537 14.002C7.30309 14.0552 7.33852 14.0906 7.37396 14.1438C7.42712 14.1969 7.498 14.1615 7.55115 14.1438ZM11.8038 24.5272C12.2467 23.3046 11.4494 21.7985 10.209 21.4618C9.81921 21.32 9.39395 21.3909 9.075 21.6567C8.64974 21.9756 7.76378 22.9856 8.63202 23.2691C8.57887 24.2437 9.075 25.3954 10.1559 25.5372C10.8646 25.6967 11.5557 25.2183 11.8038 24.5272ZM13.9478 14.0375C13.9478 12.9566 12.9909 11.9466 11.8746 12.0883C11.7152 12.1061 11.5911 12.2124 11.5203 12.3541C9.80149 12.5313 9.14588 14.9589 10.5103 16.022C11.8569 16.908 13.8415 15.5436 13.9478 14.0375ZM23.8351 27.5926C23.9414 28.3191 24.2249 29.2051 23.7996 29.8607C23.4807 30.2151 22.8782 30.1442 22.5593 30.5163C22.134 31.0833 22.2758 31.8098 22.2935 32.4477C22.1872 33.2982 21.1772 33.9184 20.3621 33.7943C19.7065 33.688 19.2281 33.1919 18.7851 32.7489C18.0055 31.9515 17.4916 32.7666 16.8892 33.2628C16.3044 33.7057 15.4893 33.8298 14.8337 33.4577C14.0718 32.8198 14.1604 31.6503 14.1781 30.7466C14.2313 30.0556 14.3022 29.4177 13.5934 29.0633C13.1504 28.8684 12.6897 29.1519 12.2822 29.3291C11.9987 29.4531 11.786 29.5595 11.5025 29.6835C11.4671 29.7012 11.4317 29.7012 11.3962 29.7189C11.1127 29.8075 10.8292 29.9138 10.5457 30.0024C10.085 30.1265 9.6243 30.1796 9.18132 30.0024C8.91553 29.8607 8.68518 29.6658 8.47255 29.4531C8.29536 29.2759 8.13589 29.0633 7.99413 28.8507C7.7815 28.5317 7.62203 28.1774 7.498 27.823C7.26765 27.0079 7.4094 26.1574 7.17905 25.3423C6.9487 24.669 6.73607 23.8716 6.02731 23.5527C5.92099 23.4995 5.81468 23.4463 5.69064 23.4286C5.56661 23.4995 5.47801 23.6058 5.33626 23.6767C5.17679 23.7653 5.01731 23.8184 4.8224 23.8184C4.14907 23.783 3.70609 23.1806 3.38715 22.649C3.22768 22.3655 3.13908 22.0465 3.10364 21.7276C2.99733 21.6921 2.90873 21.6035 2.87329 21.4795C2.73154 20.505 2.73154 19.4772 2.74926 18.485C2.85557 16.8902 3.38715 15.3664 3.95416 13.8957C4.20223 13.2401 4.4503 12.5845 4.75153 11.9289C4.8224 11.7871 4.96416 11.6985 5.10591 11.6985C5.22994 11.4682 5.35398 11.2201 5.49573 11.0075C5.33626 10.6885 5.79696 10.3164 5.97415 10.0506C6.25766 9.7317 6.62976 9.25328 7.07274 9.16468C7.09046 9.14697 7.1259 9.14697 7.14361 9.12925C7.42712 9.00521 7.69291 9.1824 7.81694 9.43047C7.92326 9.55451 7.99413 9.7317 8.02957 9.89117C8.11817 10.3341 8.02957 10.7594 7.8701 11.1847C7.8701 11.7517 7.88782 12.301 8.01185 12.8503C8.29536 12.3896 8.41939 11.8403 8.66746 11.3796C8.91553 10.7594 9.34079 10.2456 9.81921 9.78486C9.85465 9.74942 9.89009 9.71398 9.92552 9.67854C10.209 9.34188 10.5103 9.04065 10.8824 8.79258C11.7329 8.15469 12.8138 7.56996 13.9123 7.69399C14.7629 7.78259 15.1881 8.26101 15.2944 9.09381C15.3653 9.55451 15.4539 9.99749 15.4893 10.4582C15.5071 10.9898 15.5248 11.5036 15.6843 12.0175C15.8969 12.8326 16.5171 13.4704 16.8006 14.2678C16.96 14.7108 17.1195 15.136 17.279 15.579C17.3676 15.8271 17.4207 16.1283 17.6334 16.3055C17.7397 16.3587 17.846 16.4118 17.9523 16.4118C17.9346 16.2878 18.0763 16.0397 18.2004 16.1992C18.3599 16.0752 18.537 15.9511 18.6965 15.8271C18.7851 15.6853 18.8737 15.5259 18.9623 15.3841C19.0686 15.2424 19.1927 15.3487 19.2281 15.4727C19.7419 15.136 20.2912 14.8703 20.8937 14.8348C21.0177 14.8348 21.1418 14.8348 21.2658 14.8348C21.6025 14.9057 21.886 15.136 22.0986 15.4018C22.1872 15.5081 22.2581 15.6145 22.3112 15.7385C22.3821 15.898 22.4175 16.0752 22.4353 16.2524C22.453 16.4473 22.4175 16.6245 22.3644 16.8016C22.3289 16.9434 22.2758 17.0674 22.2049 17.1915C21.7974 17.7585 20.876 17.6167 20.309 17.8471C19.7951 17.9534 19.3876 18.3255 19.2281 18.8394C19.3698 18.9279 19.5825 18.8925 19.7242 18.8925C19.9369 18.8925 20.1495 18.9102 20.3444 18.9988C21 19.3709 21.0177 20.5404 20.4507 21.0011C19.3521 21.639 17.9169 21.4086 16.9246 20.6467C16.6588 20.4341 16.4285 20.2037 16.2336 19.9202C16.1981 19.8493 16.145 19.7962 16.1095 19.7253C15.8969 19.4064 15.7374 19.052 15.5957 18.6976C15.4893 18.485 15.2236 18.3964 14.9932 18.3609C14.7097 18.3432 14.3908 18.2901 14.125 18.4141C12.5125 19.0874 12.4948 20.8239 13.1859 22.206C13.558 22.8439 13.9832 23.4818 14.6565 23.8184C14.8869 23.9602 15.0995 24.1019 15.2944 24.2791C15.702 24.5981 16.0741 24.9348 16.5171 25.2005C16.8537 25.4132 17.1018 25.7321 17.2613 26.0865C17.3144 26.1928 17.3499 26.2991 17.403 26.4232C17.5802 26.9016 17.4207 27.4332 17.5448 27.9293C17.6334 28.1596 17.8992 28.1774 18.1118 28.2128C18.537 28.266 18.8737 27.9647 19.1041 27.6458C19.6888 26.9902 18.8914 26.246 19.0332 25.5195C19.0686 25.3423 19.1395 25.1651 19.2458 25.0411C19.5116 24.6867 19.99 24.5095 20.433 24.6335C20.557 24.6512 20.6456 24.7221 20.7165 24.8284C21.0709 24.8639 21.4253 24.9879 21.7442 25.1474C22.134 25.3246 22.4707 25.5726 22.7719 25.8739C23.1972 26.3168 23.587 26.9547 23.8351 27.5926Z" fill="#9397A0" fill-opacity="0.8"/>
<path d="M26.2802 13.2752C27.4496 13.4878 28.4773 11.7336 27.68 10.8299C27.1661 10.3692 26.1384 10.0148 25.5891 10.5996C25.4473 10.759 25.3233 10.9894 25.4119 11.1843C24.8981 11.9462 25.4473 13.0625 26.2802 13.2752ZM29.8063 12.531C30.1606 13.0271 30.4973 13.5764 30.4087 14.2143C30.3024 15.1357 30.267 16.2165 29.5405 16.8899C29.2038 17.1911 28.6722 17.2265 28.3356 16.9253C28.0521 16.5709 27.5914 16.6241 27.1838 16.5532C26.794 16.4646 26.4042 16.3406 26.0321 16.1811C25.341 15.8976 24.8981 15.2774 24.6323 14.6041C24.4019 14.108 24.2956 13.4701 23.8703 13.0803C23.3919 12.9562 22.9489 13.3992 22.5237 13.5764C21.9567 13.8067 21.3011 13.8953 20.6986 13.8067C20.2556 13.7536 19.8304 13.6118 19.4583 13.3638C18.2179 12.7081 18.2888 11.1134 18.3951 9.92624C18.5192 9.058 18.7672 8.52642 19.4937 8.04801C19.5114 8.03029 19.5469 8.01257 19.5823 7.99485C20.1316 7.55187 20.9112 7.51643 21.5846 7.53415C21.9212 6.8431 22.8958 7.53415 23.2147 7.92397C23.3388 7.97713 23.516 8.01257 23.5691 8.15432C23.6223 8.17204 23.64 8.24292 23.6223 8.29607C23.6223 8.31379 23.6046 8.34923 23.5868 8.36695C23.7995 8.47327 24.0475 8.5973 24.2956 8.57958C24.4551 8.06573 24.5791 7.46327 25.0398 7.14433C25.5537 6.80766 26.1384 6.50644 26.7763 6.471C27.7154 6.45328 29.0089 6.61275 29.5759 7.44555C30.0366 8.17204 29.8417 8.54414 29.4873 9.25291C29.3278 9.74905 29.2215 10.2983 29.257 10.8299C29.3633 11.3969 29.4696 12.0171 29.8063 12.531Z" fill="#9397A0" fill-opacity="0.8"/>
<path d="M36.0965 16.5007C36.1142 17.1031 35.9193 17.8296 35.4054 18.2017C35.1219 18.3612 34.7676 18.3789 34.4309 18.3612C34.1474 18.3435 33.8816 18.2372 33.669 18.06C34.1119 18.5916 34.4663 19.3003 34.2005 19.9914C33.9348 20.6293 33.2083 21.0368 32.5349 21.0191C31.6667 20.9482 30.8516 20.5761 30.5858 19.6724C30.3023 18.8573 30.6744 17.7588 31.4541 17.3512C31.2592 17.174 31.4541 16.8196 31.7199 16.9082C31.8793 16.9437 32.0565 16.9968 32.216 17.05C32.6413 17.1917 33.0311 17.4221 33.3677 17.7233C33.3146 17.6524 33.2791 17.5816 33.2437 17.493C33.1197 17.1917 33.1374 16.8196 32.8539 16.6247C31.8616 16.1286 31.5958 15.1186 31.7553 14.1086C31.773 13.6833 31.8971 13.2935 32.092 12.9746C32.3046 12.6379 32.6235 12.3721 33.0134 12.2126C33.1551 12.0177 33.2614 11.8051 33.3677 11.557C34.0234 11.3976 34.5904 11.7519 35.0511 12.2835C35.7244 12.5848 35.8839 12.9923 35.8484 13.4884C35.8307 13.7542 35.7421 14.0377 35.6535 14.3567C35.5118 15.1186 36.0256 15.7742 36.0965 16.5007Z" fill="#9397A0" fill-opacity="0.8"/>
</svg>
