<svg width="40" height="40" viewBox="0 0 40 40" fill="none" xmlns="http://www.w3.org/2000/svg">
<path opacity="0.5" d="M0.678815 15.8877C0.784261 15.3604 0.942434 14.8507 1.13576 14.3411C1.2412 14.0247 1.36423 13.726 1.48725 13.4096C1.61027 13.0757 1.71572 12.7242 1.82116 12.3903C1.92661 12.0564 2.04963 11.7225 2.24296 11.4237C2.29568 11.3358 2.36598 11.2655 2.43627 11.1952C2.61202 11.0019 2.84049 10.7734 3.12169 10.8965C3.85982 11.0546 3.87739 10.7735 4.28161 10.2638C4.7034 9.80685 5.14276 9.20932 5.79302 9.12144C6.17966 9.12144 6.4257 9.47294 6.54873 9.80686C6.54873 9.82443 6.54873 9.82442 6.5663 9.842C6.68933 10.2286 6.47843 10.6504 6.37298 11.0019C6.12694 11.617 6.5663 12.2146 6.97052 12.6364C6.97052 12.6364 6.98809 12.6364 6.98809 12.6539C7.19899 12.777 7.42746 12.9 7.6735 12.8824C7.8844 12.7945 7.97227 12.5309 8.13044 12.3552C8.65768 11.8807 9.27279 11.494 9.97577 11.3534C10.3624 11.2128 10.626 11.5116 10.9248 11.6698C10.9951 11.7225 11.083 11.7752 11.1533 11.8103C11.4345 11.9509 11.7332 12.0212 12.0144 12.074C12.1726 12.0564 12.3483 12.0037 12.5065 11.9509C12.6471 11.8982 12.7701 11.8455 12.8932 11.7928C13.0689 11.6697 13.3852 11.4764 13.684 11.4061C13.8422 11.371 13.9828 11.3534 14.1234 11.4061C14.1937 11.4413 14.264 11.4764 14.3343 11.5467C14.5276 11.8103 14.3694 12.1091 14.2288 12.3727C14.0706 12.6539 13.9301 12.9878 13.6313 13.1284C13.104 13.3745 12.5241 13.5327 11.9617 13.603C11.7157 13.6557 11.4872 13.7084 11.2411 13.7963C11.1181 13.849 10.9775 13.8666 10.9599 14.0072C11.2939 14.2005 11.786 14.3762 11.786 14.8156C11.786 14.8332 11.786 14.8683 11.786 14.8859C11.7684 15.5186 10.9775 15.4131 10.5382 15.3956C10.2218 15.4131 9.8176 15.3428 9.53641 15.501C9.13219 16.327 9.02674 16.4325 9.92305 16.8718C10.2218 16.9949 10.5382 17.0827 10.8369 17.1179C11.2587 16.9246 11.8738 16.4852 12.4186 16.3622C12.4362 16.3446 12.4714 16.3446 12.4889 16.3446C12.5065 16.3446 12.5241 16.3446 12.5241 16.3446C12.8756 16.2919 13.1919 16.3973 13.4028 16.8015C13.4204 16.784 13.4555 16.784 13.4731 16.8015C13.5083 16.8367 13.4731 16.8894 13.438 16.907C13.438 16.9948 13.3501 17.03 13.2798 16.9948C13.1919 16.9421 13.1392 16.8367 13.0689 16.784C12.981 16.6961 12.8756 16.6609 12.7701 16.6609C12.7526 16.6609 12.7526 16.6609 12.735 16.6609C12.7701 16.9246 12.858 17.2058 13.0865 17.3639C13.3852 17.5748 13.4731 17.4342 13.684 17.2058C14.264 16.6082 14.7912 15.8701 14.7912 15.0089C14.1937 15.0617 13.7543 15.378 13.6313 14.552C13.5258 14.0775 14.0531 13.849 14.3518 13.603C15.0197 13.146 15.7402 12.7067 16.5838 12.7067C16.6893 12.6891 16.8299 12.7418 16.8826 12.6188C17.0232 12.3903 17.2165 12.1443 17.2516 11.8806C17.2341 11.6698 16.9529 11.5995 16.8299 11.494C16.7068 11.4061 16.5487 11.3007 16.5135 11.1425C16.4784 11.0019 16.5135 10.8438 16.4608 10.6856C16.3553 10.3868 16.2323 10.1232 16.1972 9.82443C16.2323 9.20932 16.6717 8.71723 16.8474 8.15484C16.988 7.48701 17.1462 6.83674 17.2692 6.16891C17.3395 5.76469 17.3922 5.37806 17.445 4.97385C17.4977 4.69265 17.4977 4.13026 17.9371 4.21813C18.1655 4.28843 18.2534 4.55205 18.3588 4.74537C18.5697 5.14958 18.64 5.6944 18.64 6.15133C18.6225 6.46768 18.4643 6.78403 18.4643 7.0828C18.394 7.64518 18.517 8.22513 18.7455 8.71722C19.1849 8.89297 19.5539 9.24447 20.0636 9.19175C20.4151 9.17417 20.749 9.01599 21.1005 9.05114C21.6453 9.12144 22.2253 9.56081 22.7701 9.20932C22.7876 8.82268 22.7701 8.31301 23.1216 8.06697C23.2446 7.9791 23.4203 7.90879 23.5785 7.90879C23.6839 7.90879 23.7718 7.94393 23.8421 8.03181C24.053 7.89121 24.3342 8.22513 24.5451 8.29543C25.0899 7.61002 25.3008 6.76645 25.7753 6.04589C25.8105 5.99317 25.8456 5.94044 25.8808 5.88772C26.654 4.62235 27.6206 4.4466 27.8491 6.23921C27.8667 6.37981 27.937 6.50283 28.0424 6.5907C28.2709 6.80159 28.6224 6.88947 28.8509 7.10037C28.8684 7.11794 28.886 7.1355 28.9212 7.15308C29.0618 7.2761 29.1848 7.38156 29.2902 7.53973C29.4308 7.71548 29.5363 7.99666 29.7823 8.03181C29.8526 7.89121 29.9229 7.75063 29.9932 7.6276C30.2393 6.95977 29.9053 6.18648 30.0459 5.48349C30.1338 4.81566 30.7314 4.23572 31.4343 4.35874C32.0846 4.41146 32.647 4.74537 33.1918 5.07929C33.3324 5.16716 33.4554 5.23745 33.596 5.30775C34.299 5.65924 34.7559 6.29193 35.2832 6.85432C35.5644 7.13551 35.7225 7.50458 35.951 7.80335C36.0916 7.94395 36.2498 8.06697 36.3552 8.24272C36.9528 9.15659 37.4448 10.1056 38.0072 11.0371C38.1302 11.2656 38.2884 11.4589 38.429 11.6698C38.4993 11.7752 38.5696 11.8631 38.6223 11.9685C38.8332 12.3903 39.009 12.8473 39.1847 13.269C39.2374 13.5151 39.2726 13.7787 39.3077 14.0248C39.3429 14.3411 39.3956 14.6399 39.4483 14.9386C39.5186 15.4131 39.6241 15.8701 39.7998 16.3095C39.835 16.4149 39.8877 16.5379 39.9229 16.6609C39.9229 16.6961 39.9404 16.7312 39.9404 16.7488C39.9404 16.8015 39.9404 16.8367 39.9404 16.8894C39.9229 17.0476 39.8526 17.1882 39.7823 17.3288C39.712 17.4342 39.6417 17.5397 39.5538 17.6275C39.2374 18.1548 39.6944 18.7875 39.5538 19.3498C39.378 19.7365 38.3939 19.9825 38.0072 19.8947C37.5327 19.7541 37.4624 19.1741 37.1109 18.8929C36.6013 20.0528 36.6013 21.4237 35.8104 22.4606C35.6522 22.6539 35.4765 22.9351 35.2129 22.9351C34.7032 22.9175 34.6329 22.0915 34.6505 21.7048C34.6856 21.2128 34.8438 20.791 34.9492 20.3164C35.002 19.8595 34.9492 19.4026 34.8614 18.9456C34.7559 18.6117 34.6153 18.3481 34.4396 18.0669C34.176 17.6451 34.1057 16.9949 33.596 16.8015C33.473 17.2585 33.2621 17.9615 32.7349 18.0845C32.4361 18.1372 32.1373 17.9263 32.1373 17.61C32.1197 17.276 32.2428 16.9421 32.2252 16.6082C32.2252 16.327 32.2779 15.9579 32.0319 15.7646C31.7331 15.5362 31.3113 15.6416 30.995 15.4131C30.7665 15.255 30.6259 14.9914 30.415 14.8332C30.169 14.7277 29.9405 14.6223 29.6769 14.6223C29.5539 14.6399 29.466 14.7102 29.3605 14.7453C28.5873 15.1495 27.6734 14.8507 26.8825 14.7102C26.0917 14.4641 25.2832 14.1653 24.4397 14.3587C24.2815 14.7102 24.1233 15.0968 24.0882 15.4834C24.0179 16.204 24.2288 16.9245 24.4397 17.61C24.5627 17.7506 24.633 17.9966 24.6681 18.2075C24.7736 18.4008 24.879 18.5941 24.9669 18.805C25.0548 19.2796 25.1426 19.7892 25.1075 20.2813C25.3008 20.4746 25.5293 20.6152 25.828 20.6328C26.1444 20.7207 26.6189 20.8437 26.7243 21.1952C26.7595 21.3885 26.5662 21.5291 26.3904 21.5642C25.9159 21.7751 24.6505 21.4588 24.6857 21.3885C24.5099 21.3006 24.3518 21.2128 24.1936 21.0897C23.9476 20.914 23.6664 20.8261 23.4379 20.6328C23.1216 20.211 22.9985 19.6662 22.8228 19.1741C22.7525 18.7523 22.6295 18.3657 22.401 18.0142C22.0671 17.3112 22.1901 16.4676 21.8562 15.7646C21.698 15.3956 21.4695 15.0617 21.1708 14.8156C20.8896 14.6223 20.3096 15.3604 20.046 15.501C19.7824 15.7295 19.5012 15.9404 19.1497 15.9931C18.9564 16.0458 18.6928 16.1161 18.5522 15.9228C18.4643 15.7998 18.517 15.6592 18.5873 15.5362C18.7279 15.2023 18.9388 14.8683 18.974 14.4993C18.7631 14.3235 18.4643 14.7277 18.3413 14.8859C18.2534 15.1847 18.0249 15.4132 17.7965 15.6065C17.6383 15.7646 17.4274 15.8525 17.2165 15.9228C17.0583 16.0107 16.865 16.081 16.8123 16.2567C16.7947 16.6258 16.7947 17.0124 16.8299 17.3815C16.9353 17.7681 17.0759 18.1899 17.3571 18.4887C17.814 18.9808 17.3219 19.2796 17.0056 19.6486C16.7068 19.9298 16.1972 20.0528 15.8281 19.8244C15.3887 19.5432 14.9142 19.262 14.4046 19.1917C14.3518 19.2795 14.2991 19.385 14.3343 19.4904C14.4221 19.631 14.5627 19.7365 14.7209 19.7716C15.1075 19.9122 15.4942 20.0528 15.8281 20.2813C16.0917 20.4395 16.2675 20.791 16.5838 20.8261C16.988 20.8085 17.3747 20.6504 17.7789 20.6504C18.4291 20.7207 19.1497 21.0194 19.0091 21.7927C18.974 22.0915 18.9564 22.6011 18.5697 22.6539C18.2182 22.6539 18.0952 22.2672 17.9019 22.0563C17.7086 21.8454 17.4274 21.7048 17.1462 21.7224C16.8826 21.7576 16.2675 21.7048 16.285 22.0915C16.3905 22.3199 16.5838 22.4957 16.7244 22.689C17.0935 23.0757 17.0232 23.638 17.2516 24.095C17.5153 24.4816 17.8316 24.8331 18.0952 25.2198C18.7982 25.8876 19.9054 26.5027 19.8703 27.5923C19.8878 27.9262 19.5715 28.348 19.22 28.1899C19.0267 28.0493 18.974 27.7681 18.8334 27.5748C18.5697 27.3463 18.4467 27.0124 18.271 26.7136C17.9898 26.4851 17.7086 26.2742 17.4625 26.0458C17.1462 25.7646 16.8826 25.4131 16.4959 25.2549C16.1972 25.0967 15.8457 25.1319 15.5293 25.0264C15.0372 24.8507 14.5627 24.5871 14.1937 24.1829C13.9301 23.9192 13.807 23.5502 13.5786 23.2514C13.3677 23.0757 13.0162 22.8472 12.7526 23.0229C12.4889 23.2338 12.4011 23.5678 12.3132 23.8841C12.1902 24.2532 11.9617 24.5871 11.7332 24.9034C11.3817 25.2725 11.0127 25.6064 10.6085 25.9052C10.3273 26.1161 9.8879 26.0458 9.85275 25.6416C9.76487 25.2549 9.95819 25.0089 10.1867 24.798C10.4151 24.5871 10.7139 24.3937 10.8369 24.1126C10.6085 23.2338 10.0109 22.7945 9.37823 22.812C8.88615 22.812 8.35891 23.1108 7.97227 23.6556C7.91954 23.8489 7.88439 24.0247 7.86682 24.218C7.79652 24.8156 7.86682 25.4131 8.04256 25.9755C8.25346 26.7136 8.46436 27.4693 8.851 28.1371C9.04432 28.3832 9.29036 28.6116 9.50126 28.8401C9.58913 28.928 9.65943 29.0159 9.72973 29.1037C9.76487 29.1389 9.78245 29.1916 9.8176 29.2268C9.87032 29.3146 9.92304 29.4025 9.97577 29.4904C10.0988 29.7013 10.2394 29.8946 10.4327 30.0352C10.5557 30.1582 10.6612 30.2812 10.7666 30.4043C10.8721 30.5449 11.0302 30.6679 11.0127 30.8612C10.9599 31.2303 10.503 31.3709 10.1867 31.4587C9.8879 31.4939 9.677 31.2303 9.50126 31.0194C9.04432 30.5449 8.79827 29.7364 8.13044 29.508C7.84924 29.5783 7.5329 29.5958 7.28686 29.4025C6.84749 29.1565 6.61902 28.682 6.14451 28.4711C6.07421 28.4359 6.00391 28.4008 5.93361 28.3832C5.77544 28.3305 5.5997 28.3305 5.44152 28.348C5.12518 28.3832 4.84399 28.5238 4.68582 28.8225C4.58037 29.0159 4.5628 29.2443 4.5628 29.4728C4.5628 29.7188 4.59795 29.9825 4.58037 30.2285C4.58037 30.2461 4.58037 30.2812 4.59795 30.2988C4.61552 30.3867 4.61552 30.4746 4.54522 30.5449C4.22888 30.7733 4.08828 30.2461 3.93011 30.0528C3.77194 29.9473 3.63134 29.8067 3.5259 29.631C3.315 29.3146 3.19198 28.9456 3.06896 28.5941C2.78777 28.0141 2.40112 27.4869 2.11993 26.9069C1.90904 26.4675 1.57512 26.1161 1.48724 25.624C1.27635 25.0616 1.04788 24.464 1.17091 23.8489C1.22363 23.7259 1.27635 23.6029 1.34665 23.4799C1.48725 23.2162 1.64542 22.9702 1.80359 22.7242C1.90904 22.5484 2.01448 22.3551 2.10236 22.1618C2.15508 21.9509 2.17265 21.74 2.20781 21.5291C2.20781 21.0897 2.2781 20.6679 2.29568 20.2461C2.19023 19.8419 2.08479 19.4377 1.97934 19.0511C1.97934 19.0335 1.97934 19.0335 1.96176 19.0159C1.85631 18.7172 1.80359 18.3657 1.62785 18.0845C1.39938 17.733 1.20605 17.3639 1.04788 16.9773C1.01273 16.8718 0.977582 16.7664 0.942434 16.6785C0.889711 16.4852 0.819414 16.2743 0.801839 16.081C0.661241 16.081 0.661241 15.9755 0.678815 15.8877Z" fill="#F0A800"/>
<path opacity="0.43" d="M5.86357 34.042C5.7757 34.042 6.23264 34.5868 6.46111 34.622C9.58938 37.5569 13.7194 39.5253 18.4645 39.9119C28.5348 40.7731 37.1463 34.0069 39.5013 24.9735C39.554 24.9032 40.2922 19.3497 39.8704 16.7662C39.8704 16.8189 39.8704 16.8541 39.8704 16.9068C39.8528 17.065 39.7825 17.2056 39.7122 17.3462C40.0461 19.8593 39.888 22.3374 39.3256 24.6572C39.308 24.6924 39.2729 24.7275 39.2553 24.7451C39.2377 24.7802 39.2201 24.7978 39.185 24.8329C38.9389 25.1844 38.728 25.5711 38.4644 25.905C38.4468 25.9226 38.4293 25.9577 38.4117 25.9753C38.3766 26.0104 38.359 26.0456 38.3238 26.0807C38.2887 26.1159 38.236 26.1862 38.2008 26.2213C38.0954 26.3443 37.9723 26.4849 37.8317 26.5728C37.7087 26.5904 37.6033 26.5025 37.4802 26.4849C37.1112 26.3971 36.7245 26.4322 36.3379 26.4322C36.1973 26.4322 36.0567 26.4674 35.9513 26.5552C34.7913 27.4867 34.8616 29.1211 34.1059 30.2986C34.0884 30.3338 34.0356 30.4217 33.9653 30.4041C32.5242 30.738 33.2272 29.6484 32.9284 28.8224C32.9284 28.8048 32.9109 28.7872 32.9109 28.7696C32.9109 28.7696 32.9109 28.7521 32.8933 28.7521L32.8757 28.7345C32.8757 28.7169 32.8581 28.7169 32.8581 28.6994L32.8406 28.6818C32.823 28.6642 32.823 28.6466 32.8054 28.6466C32.7878 28.629 32.7703 28.6291 32.7703 28.6115C32.7527 28.5939 32.7351 28.5763 32.7175 28.5763C32.7175 28.5763 32.7 28.5763 32.7 28.5587C32.6824 28.5587 32.6648 28.5412 32.6648 28.5412C32.6472 28.5236 32.6297 28.5236 32.6121 28.5236C32.6472 28.4885 32.6648 28.4709 32.7 28.4357C32.7175 28.4182 32.7527 28.383 32.7703 28.3654C32.8054 28.3303 32.823 28.3127 32.8581 28.2776C32.8757 28.26 32.8933 28.2424 32.8933 28.2248C32.9109 28.2073 32.9284 28.1721 32.9636 28.1545C32.9812 28.137 32.9987 28.1018 33.0163 28.0842C33.2272 27.7152 33.4205 27.2934 33.3326 26.854C33.3151 26.2038 33.5084 25.5008 33.2623 24.8857C32.8054 24.1124 32.0849 23.3918 31.1534 23.3039C30.6965 23.2864 30.3625 23.7257 30.011 23.9542C29.8177 24.1124 29.5717 24.2706 29.4487 24.499C29.3432 24.7451 29.2729 25.0087 29.2729 25.2723C29.2905 25.5184 29.3784 25.7644 29.3432 26.0104C29.2905 26.4674 29.0093 26.8716 28.8336 27.2934C28.693 27.68 28.4821 28.2776 28.8863 28.5587L28.9741 28.6115C29.0093 28.6291 29.0269 28.6466 29.062 28.6642C29.062 28.6642 29.0796 28.6642 29.0796 28.6818C29.1147 28.6993 29.1323 28.7169 29.1675 28.7345C29.2378 28.7696 29.3081 28.8224 29.3959 28.8575C29.4311 28.8751 29.4838 28.8927 29.519 28.9102C29.642 28.963 29.765 29.0157 29.888 29.0684C29.9056 29.0684 29.9232 29.086 29.9408 29.086C30.0111 29.1211 30.0989 29.1387 30.1692 29.1563C30.1868 29.1563 30.2044 29.1739 30.2219 29.1739C30.2571 29.1914 30.2922 29.1914 30.3274 29.209C30.3625 29.2266 30.3977 29.2266 30.4504 29.2442C30.468 29.2442 30.4856 29.2442 30.5031 29.2617L30.5207 29.2617C30.5383 29.2617 30.5559 29.2617 30.5734 29.2793C30.5734 29.2793 30.5734 29.2793 30.591 29.2793C30.6086 29.2793 30.6262 29.2793 30.6437 29.2969C30.6789 29.2969 30.6965 29.3145 30.7316 29.3145C30.7492 29.3145 30.7668 29.3145 30.7668 29.3145L30.7843 29.3145C30.8195 29.3145 30.8546 29.332 30.8898 29.332C30.9425 29.332 30.9777 29.3496 31.0304 29.3496C31.0128 29.3672 30.9952 29.4023 30.9952 29.4199C30.9777 29.4551 30.9601 29.4902 30.9425 29.5254C30.9249 29.5429 30.9249 29.5781 30.9074 29.5957C30.8898 29.6308 30.8722 29.666 30.8546 29.6835C30.8371 29.7011 30.8371 29.7187 30.8195 29.7538C30.7843 29.8417 30.7492 29.9296 30.714 30.0174C30.3801 30.8435 30.3274 31.9682 29.5365 32.513C29.2553 32.5306 28.9741 32.5658 28.693 32.5658C28.5348 32.4779 28.4821 32.3197 28.3942 32.1615C28.2184 31.7925 28.2184 31.3707 28.1306 30.984C27.9021 30.2108 26.9003 30.2459 26.2501 30.1229C25.9865 29.6484 25.6877 29.1563 25.3011 28.7696C24.9144 28.3303 24.3872 28.0667 23.983 27.6624C23.6666 27.2407 23.8775 26.6783 23.9654 26.2038C24.0357 25.9753 24.1411 25.6765 23.8072 25.5886C23.4557 25.5711 23.1218 25.782 22.8055 25.9226C22.2079 26.2389 21.5928 26.6431 21.2765 27.2758C20.4856 28.8399 21.1535 30.6501 20.6262 32.267C20.4329 32.636 20.0463 33.3566 19.5542 33.2863C19.519 33.2863 19.4312 33.2512 19.3784 33.216C18.8336 32.6185 18.9391 31.6343 18.4118 31.0192C17.99 30.7907 17.5155 31.0895 17.164 31.3179C16.4083 31.7222 16.1623 32.5833 15.6702 33.1984C15.4066 33.2512 15.1078 33.1633 14.8618 33.0403C13.9479 32.3021 12.9813 32.5657 12.2431 33.4093C11.628 33.3039 11.2765 33.9717 10.7142 34.0947C10.1342 34.0947 9.64211 33.673 9.09729 33.5324C8.60521 33.4445 8.02524 33.4972 7.6386 33.8487C7.48043 33.9717 7.39256 34.2002 7.18166 34.2705C7.07622 34.2881 6.95319 34.3056 6.84775 34.2881C6.83017 34.2881 6.8126 34.2881 6.79503 34.2881C6.75988 34.2881 6.70715 34.2881 6.672 34.2705C6.65443 34.2705 6.63685 34.2705 6.6017 34.2529C6.47868 34.2353 6.35566 34.2002 6.21507 34.1826C3.38556 31.3883 1.39963 27.7679 0.60877 23.8136C0.71422 23.8663 0.837244 23.8488 0.977838 23.7785C1.04814 23.7433 1.10086 23.7082 1.15358 23.6554C1.29418 23.3918 1.45235 23.1458 1.61052 22.8997C1.71597 22.724 1.82142 22.5307 1.89172 22.3373C1.94444 22.1264 1.96201 21.9156 1.99716 21.7047C1.99716 21.2653 2.06746 20.8435 2.08504 20.4217C1.97959 20.0175 1.87414 19.6133 1.76869 19.2266C1.76869 19.2091 1.76869 19.2091 1.75112 19.1915C1.64567 18.8927 1.59295 18.5412 1.4172 18.26C1.18873 17.9086 0.995417 17.5395 0.837244 17.1528C0.802096 17.0474 0.766943 16.942 0.731794 16.8541C0.731794 16.7311 0.731794 16.608 0.731795 16.4674C0.749369 16.4499 0.766943 16.4323 0.784517 16.4147C0.83724 16.0808 0.889963 15.7293 0.942686 15.3778C0.977839 15.0966 1.03056 14.7978 1.03056 14.4991C1.03056 14.4815 1.04814 14.4639 1.04814 14.4288C1.24146 13.7609 1.46993 13.1107 1.73355 12.478C1.83899 12.1441 1.96202 11.8102 2.15534 11.5114C2.89347 9.94726 3.8425 8.50614 4.96727 7.2232C5.19574 7.25835 5.42421 7.29351 5.67025 7.25836C6.0569 7.18807 6.37324 6.97717 6.72473 6.819C7.26954 6.6081 7.76163 6.27419 8.23614 5.94027C8.62278 5.60635 9.27304 4.99123 9.74756 5.46574C10.7493 6.2566 11.1535 7.5044 12.6649 6.7487C14.1588 6.11601 14.1061 4.6046 14.9321 3.47983C14.9848 3.4271 15.0551 3.3568 15.1254 3.33922C15.3187 3.37437 15.512 3.44467 15.7053 3.44467C16.3029 3.44467 16.8828 3.5677 17.4628 3.74345C18.9742 4.23554 19.273 3.55012 20.0287 2.39019C20.8723 1.15997 22.0498 2.0387 22.9285 2.74168C23.526 3.1459 24.352 3.72586 25.0374 3.19862C25.0726 3.18104 25.1077 3.14591 25.1429 3.12834C25.2483 3.05804 25.3362 2.98773 25.4417 2.89986C25.4592 2.88228 25.4944 2.8647 25.512 2.84713C25.5295 2.82955 25.5647 2.812 25.5823 2.77685C25.5998 2.75927 25.635 2.74169 25.6526 2.70654C25.6701 2.68897 25.6877 2.67139 25.7053 2.65381C25.7404 2.61866 25.7756 2.58352 25.8283 2.54837C25.8459 2.53079 25.881 2.49564 25.8986 2.47806C25.9162 2.46049 25.9162 2.4605 25.9337 2.44292C25.9689 2.40777 26.004 2.37261 26.0568 2.31989C26.1095 2.26716 26.1798 2.19687 26.2325 2.14414C26.4434 1.91567 26.6543 1.68722 26.8828 1.47632C29.1323 2.3199 31.2061 3.56769 33.0163 5.13182C33.1569 5.2197 33.2799 5.29 33.4205 5.37787C34.1235 5.72936 34.5804 6.36206 35.1077 6.92444C35.3889 7.20564 35.547 7.57471 35.7755 7.87347C35.9161 8.01407 36.0743 8.13709 36.1797 8.31284C36.7773 9.22672 37.2694 10.1757 37.8317 11.1072C37.9548 11.3357 38.1129 11.529 38.2535 11.7399C36.0743 6.97717 32.0146 3.18106 27.1288 1.30058C26.9882 1.24786 26.8476 1.23027 26.7246 1.1424C25.1956 0.333972 23.526 0.228522 21.8564 0.0879272C21.2238 0.0176261 20.5911 5.1709e-05 19.9584 5.16537e-05C14.2467 5.11543e-05 8.76338 2.54837 5.00242 6.7487C4.89697 6.73112 2.48925 10.1054 1.75112 11.775C1.38205 12.601 1.06571 13.427 0.81967 14.2706C0.784521 14.376 0.538473 15.079 0.450602 15.5008C0.415453 15.659 0.380301 15.7996 0.345152 15.9578C0.274855 16.1687 0.204558 16.4674 0.186983 16.6608C0.116686 16.9771 0.0639592 17.311 0.0815335 17.6449C0.0815335 17.7504 0.0815335 17.8558 0.0815335 17.9613C-0.463278 23.9366 1.75112 29.8593 5.86357 34.042Z" fill="#F0A800"/>
</svg>
