<svg width="960" height="545" viewBox="0 0 960 545" fill="none" xmlns="http://www.w3.org/2000/svg">
<path d="M757.698 19.85L767.906 50.9097L800.601 50.7986L774.216 70.1057L784.424 101.165L757.909 82.0381L731.524 101.345L741.522 70.2168L715.006 51.0894L747.7 50.9784L757.698 19.85Z" fill="url(#paint0_linear)" fill-opacity="0.8"/>
<path d="M740.097 23.4997L761.648 48.0859L791.69 35.1874L774.967 63.2811L796.518 87.8673L764.631 80.6439L747.908 108.738L744.924 76.1796L713.038 68.9563L743.08 56.0577L740.097 23.4997Z" fill="url(#paint1_linear)"/>
<path d="M725.509 33.5602L754.881 47.9198L777.614 24.4225L773.034 56.7945L802.406 71.1541L770.203 76.8015L765.623 109.173L750.301 80.2918L718.098 85.9392L740.831 62.4419L725.509 33.5602Z" fill="url(#paint2_linear)" fill-opacity="0.9"/>
<path d="M179.99 332.641L179.937 317.101L182.457 317.093L188.218 326.253L190.03 329.577L190.15 329.577C190.087 328.797 190.014 327.947 189.931 327.028C189.848 326.088 189.805 325.198 189.802 324.358L189.777 317.068L192.087 317.06L192.14 332.6L189.65 332.609L183.859 323.448L182.047 320.124L181.927 320.125C181.99 320.944 182.063 321.804 182.146 322.704C182.229 323.584 182.272 324.444 182.275 325.284L182.3 332.633L179.99 332.641ZM197.539 332.582L197.486 317.042L207.296 317.008L207.303 319.048L199.983 319.073L199.999 323.963L206.209 323.942L206.216 325.862L200.006 325.883L200.029 332.573L197.539 332.582ZM214.075 332.526L214.029 319.056L209.109 319.072L209.102 317.002L221.432 316.96L221.439 319.03L216.519 319.047L216.565 332.517L214.075 332.526Z" fill="white"/>
<path d="M663.788 47.5518L663.736 32.0119L666.256 32.0033L672.017 41.1638L673.828 44.4876L673.948 44.4872C673.885 43.7074 673.812 42.8577 673.729 41.938C673.646 40.9982 673.603 40.1084 673.6 39.2684L673.575 31.9784L675.885 31.9706L675.938 47.5105L673.448 47.519L667.657 38.3586L665.846 35.0347L665.726 35.0351C665.789 35.8549 665.862 36.7147 665.945 37.6144C666.028 38.4941 666.07 39.354 666.073 40.194L666.098 47.5439L663.788 47.5518ZM681.337 47.4922L681.284 31.9522L691.094 31.9189L691.101 33.9589L683.781 33.9838L683.798 38.8737L690.008 38.8526L690.014 40.7726L683.804 40.7937L683.827 47.4837L681.337 47.4922ZM697.874 47.436L697.828 33.966L692.908 33.9828L692.901 31.9128L705.231 31.8709L705.238 33.9409L700.318 33.9576L700.363 47.4275L697.874 47.436Z" fill="white"/>
<path d="M441.396 103.266L441.35 89.7957L436.43 89.8124L436.423 87.7425L448.753 87.7006L448.76 89.7706L443.84 89.7873L443.886 103.257L441.396 103.266ZM457.7 103.57C456.62 103.574 455.63 103.387 454.728 103.01C453.847 102.633 453.085 102.096 452.443 101.398C451.8 100.7 451.297 99.842 450.934 98.8232C450.571 97.8044 450.387 96.6651 450.382 95.4051C450.378 94.1451 450.554 93.0145 450.911 92.0133C451.267 91.012 451.765 90.1703 452.402 89.4882C453.04 88.786 453.798 88.2534 454.677 87.8904C455.576 87.5074 456.565 87.314 457.645 87.3104C458.705 87.3068 459.676 87.4935 460.557 87.8705C461.458 88.2274 462.23 88.7548 462.872 89.4526C463.535 90.1304 464.047 90.9686 464.411 91.9674C464.774 92.9662 464.958 94.0955 464.962 95.3555C464.967 96.6155 464.79 97.7561 464.434 98.7774C464.077 99.7986 463.57 100.66 462.913 101.363C462.275 102.065 461.507 102.607 460.608 102.99C459.73 103.373 458.76 103.567 457.7 103.57ZM457.693 101.47C459.133 101.465 460.271 100.922 461.108 99.8387C461.964 98.7357 462.389 97.2443 462.382 95.3643C462.376 93.4843 461.941 92.0258 461.077 90.9887C460.234 89.9316 459.092 89.4055 457.652 89.4103C456.212 89.4152 455.064 89.9491 454.207 91.0121C453.371 92.0549 452.956 93.5163 452.962 95.3963C452.969 97.2763 453.394 98.7649 454.238 99.862C455.101 100.939 456.253 101.475 457.693 101.47ZM469.215 103.171L469.162 87.6312L471.652 87.6228L471.677 95.0027L471.767 95.0024L478.282 87.6002L481.042 87.5909L475.872 93.6085L481.815 103.128L479.145 103.137L474.378 95.3536L471.688 98.2127L471.705 103.163L469.215 103.171ZM484.625 103.119L484.572 87.5789L494.352 87.5456L494.359 89.5256L487.069 89.5504L487.084 94.0504L493.264 94.0294L493.271 95.9194L487.091 95.9404L487.108 101.13L494.698 101.105L494.705 103.085L484.625 103.119ZM498.863 103.07L498.81 87.5305L501.33 87.5219L507.092 96.6824L508.903 100.006L509.023 100.006C508.96 99.2261 508.887 98.3763 508.804 97.4566C508.721 96.5169 508.678 95.627 508.675 94.787L508.65 87.4971L510.96 87.4892L511.013 103.029L508.523 103.038L502.732 93.8772L500.921 90.5533L500.801 90.5538C500.863 91.3735 500.936 92.2333 501.019 93.133C501.102 94.0128 501.145 94.8726 501.148 95.7126L501.173 103.063L498.863 103.07Z" fill="white"/>
<path d="M77.1535 68.9893L77.1077 55.5194L72.1877 55.5361L72.1807 53.4661L84.5106 53.4242L84.5177 55.4942L79.5977 55.5109L79.6435 68.9809L77.1535 68.9893ZM93.4575 69.2939C92.3775 69.2976 91.3869 69.111 90.4856 68.734C89.6043 68.357 88.8425 67.8196 88.2001 67.1218C87.5577 66.424 87.0548 65.5657 86.6913 64.5469C86.3279 63.5281 86.144 62.3887 86.1397 61.1287C86.1354 59.8687 86.3116 58.7381 86.6682 57.7369C87.0248 56.7357 87.5219 55.894 88.1596 55.2118C88.7972 54.5097 89.5554 53.9771 90.4342 53.6141C91.3329 53.231 92.3223 53.0377 93.4023 53.034C94.4622 53.0304 95.4329 53.2171 96.3142 53.5941C97.2154 53.9511 97.9872 54.4784 98.6296 55.1763C99.2919 55.854 99.8047 56.6923 100.168 57.6911C100.532 58.6898 100.715 59.8192 100.72 61.0792C100.724 62.3392 100.548 63.4798 100.191 64.501C99.8347 65.5222 99.3276 66.384 98.67 67.0862C98.0324 67.7884 97.2642 68.331 96.3655 68.714C95.4868 69.097 94.5175 69.2903 93.4575 69.2939ZM93.4504 67.1939C94.8904 67.189 96.0285 66.6452 96.8648 65.5623C97.7211 64.4594 98.146 62.968 98.1396 61.088C98.1333 59.208 97.6983 57.7494 96.8348 56.7124C95.9912 55.6552 94.8494 55.1291 93.4094 55.134C91.9694 55.1389 90.8212 55.6728 89.9648 56.7357C89.1283 57.7786 88.7133 59.24 88.7197 61.12C88.7261 63 89.1511 64.4885 89.9949 65.5857C90.8585 66.6627 92.0104 67.1988 93.4504 67.1939ZM104.972 68.8948L104.919 53.3549L107.409 53.3464L107.434 60.7264L107.524 60.7261L114.039 53.3239L116.799 53.3145L111.63 59.3321L117.572 68.852L114.902 68.8611L110.136 61.0772L107.445 63.9364L107.462 68.8863L104.972 68.8948ZM120.382 68.8424L120.329 53.3025L130.109 53.2693L130.116 55.2493L122.826 55.2741L122.841 59.774L129.021 59.753L129.028 61.643L122.848 61.664L122.866 66.854L130.456 66.8282L130.462 68.8082L120.382 68.8424ZM134.62 68.7941L134.568 53.2542L137.088 53.2456L142.849 62.4061L144.66 65.7299L144.78 65.7295C144.717 64.9497 144.645 64.1 144.561 63.1803C144.478 62.2405 144.435 61.3507 144.432 60.5107L144.408 53.2207L146.718 53.2129L146.77 68.7528L144.28 68.7613L138.489 59.6009L136.678 56.277L136.558 56.2774C136.621 57.0972 136.694 57.957 136.777 58.8567C136.86 59.7364 136.903 60.5963 136.906 61.4363L136.93 68.7862L134.62 68.7941Z" fill="white"/>
<path d="M521.786 254.48L521.741 241.01L516.821 241.027L516.814 238.957L529.143 238.915L529.15 240.985L524.231 241.002L524.276 254.472L521.786 254.48ZM538.09 254.785C537.01 254.788 536.02 254.602 535.118 254.225C534.237 253.848 533.475 253.31 532.833 252.612C532.191 251.915 531.688 251.056 531.324 250.038C530.961 249.019 530.777 247.879 530.773 246.619C530.768 245.359 530.944 244.229 531.301 243.228C531.658 242.226 532.155 241.385 532.792 240.703C533.43 240 534.188 239.468 535.067 239.105C535.966 238.722 536.955 238.528 538.035 238.525C539.095 238.521 540.066 238.708 540.947 239.085C541.848 239.442 542.62 239.969 543.262 240.667C543.925 241.345 544.438 242.183 544.801 243.182C545.164 244.181 545.348 245.31 545.352 246.57C545.357 247.83 545.181 248.97 544.824 249.992C544.468 251.013 543.96 251.875 543.303 252.577C542.665 253.279 541.897 253.822 540.998 254.205C540.12 254.588 539.15 254.781 538.09 254.785ZM538.083 252.685C539.523 252.68 540.661 252.136 541.498 251.053C542.354 249.95 542.779 248.459 542.772 246.579C542.766 244.699 542.331 243.24 541.468 242.203C540.624 241.146 539.482 240.62 538.042 240.625C536.602 240.63 535.454 241.163 534.598 242.226C533.761 243.269 533.346 244.731 533.353 246.611C533.359 248.491 533.784 249.979 534.628 251.076C535.491 252.153 536.643 252.69 538.083 252.685ZM549.605 254.385L549.552 238.846L552.042 238.837L552.067 246.217L552.157 246.217L558.672 238.815L561.432 238.805L556.263 244.823L562.205 254.343L559.535 254.352L554.769 246.568L552.078 249.427L552.095 254.377L549.605 254.385ZM565.015 254.333L564.962 238.793L574.742 238.76L574.749 240.74L567.459 240.765L567.474 245.265L573.654 245.244L573.661 247.134L567.481 247.155L567.498 252.345L575.088 252.319L575.095 254.299L565.015 254.333ZM579.253 254.285L579.201 238.745L581.69 238.736L581.736 252.206L588.846 252.182L588.853 254.252L579.253 254.285Z" fill="white"/>
<path fill-rule="evenodd" clip-rule="evenodd" d="M189.245 352.227C187.465 353.02 185.727 353.993 184.058 355.151C170.187 364.776 166.28 383.513 175.332 397C184.385 410.487 202.969 413.618 216.84 403.993C218 403.188 219.091 402.319 220.11 401.396L189.245 352.227ZM222.286 399.221C222.871 398.577 223.425 397.914 223.949 397.232L194.071 350.539C193.409 350.711 192.749 350.905 192.094 351.123L222.286 399.221ZM225.356 395.249C225.305 395.327 225.254 395.404 225.203 395.481L196.15 350.078C196.24 350.061 196.33 350.045 196.419 350.029L225.356 395.249ZM225.944 394.313C226.845 392.82 227.616 391.264 228.252 389.665L202.603 349.582C200.909 349.53 199.201 349.621 197.497 349.859L225.944 394.313ZM225.567 362.144C230.386 369.325 231.532 377.994 229.457 385.983L206.396 349.944C213.994 351.164 220.995 355.334 225.567 362.144Z" fill="url(#paint3_linear)" fill-opacity="0.59"/>
<path d="M924.663 294.111C924.866 353.774 882.195 408.035 812.82 447.499C743.461 486.954 647.507 511.554 541.401 511.915C435.295 512.275 339.176 488.328 269.55 449.345C199.909 410.353 156.87 356.383 156.668 296.72C156.465 237.058 199.136 182.797 268.51 143.333C337.87 103.877 433.824 79.2776 539.93 78.9171C646.036 78.5566 742.155 102.504 811.781 141.487C881.422 180.479 924.461 234.449 924.663 294.111Z" stroke="#DADADA" stroke-opacity="0.3"/>
<path d="M889.714 309.23C889.883 358.949 853.957 404.187 795.507 437.1C737.074 470.005 656.23 490.524 566.83 490.828C477.429 491.132 396.448 471.162 337.792 438.656C279.12 406.14 242.887 361.147 242.718 311.428C242.549 261.709 278.476 216.471 336.926 183.557C395.359 150.653 476.203 130.134 565.603 129.83C655.004 129.526 735.985 149.496 794.64 182.002C853.312 214.518 889.546 259.511 889.714 309.23Z" stroke="#DADADA" stroke-opacity="0.3"/>
<path d="M957.61 278.499C957.856 350.719 904.712 416.391 818.35 464.151C732.008 511.9 612.569 541.673 480.503 542.122C348.438 542.57 228.799 513.609 142.134 466.448C55.4505 419.277 1.8613 353.967 1.61594 281.747C1.37058 209.527 54.5148 143.855 140.876 96.0958C227.219 48.3467 346.657 18.5734 478.723 18.1247C610.789 17.676 730.427 46.6371 817.092 93.7984C903.776 140.97 957.365 206.28 957.61 278.499Z" stroke="#DADADA" stroke-opacity="0.3"/>
<circle cx="477.25" cy="136.644" r="17.5" transform="rotate(-0.194657 477.25 136.644)" fill="url(#paint4_linear)"/>
<ellipse rx="15" ry="15" transform="matrix(0.997939 -0.0641735 0.0686993 0.997637 129.447 98.6913)" fill="url(#paint5_linear)" fill-opacity="0.5"/>
<path d="M662.712 311.001C662.799 335.578 642.95 355.569 618.378 355.652C593.805 355.736 573.815 335.88 573.727 311.304C573.64 286.727 593.489 266.736 618.061 266.653C642.634 266.569 662.625 286.425 662.712 311.001Z" fill="#DEDEDE" stroke="#CED0DA"/>
<ellipse cx="618.222" cy="311.153" rx="39.5455" ry="39.5455" transform="rotate(-0.194657 618.222 311.153)" fill="#192432"/>
<path d="M624.945 292.565C624.958 296.342 621.901 299.416 618.117 299.429C614.332 299.442 611.255 296.389 611.242 292.611C611.229 288.834 614.285 285.76 618.07 285.747C621.855 285.734 624.932 288.787 624.945 292.565Z" fill="white" stroke="white"/>
<path d="M607.078 293.602L629.12 289.857" stroke="white" stroke-width="3"/>
<path d="M621.348 313.682C621.352 314.926 620.346 315.939 619.099 315.943C617.851 315.947 616.838 314.941 616.834 313.698C616.83 312.454 617.836 311.441 619.083 311.437C620.33 311.433 621.343 312.439 621.348 313.682Z" fill="white" stroke="white"/>
<mask id="path-20-inside-1" fill="white">
<ellipse cx="644.757" cy="295.251" rx="0.918946" ry="0.917643" transform="rotate(-0.194657 644.757 295.251)"/>
</mask>
<ellipse cx="644.757" cy="295.251" rx="0.918946" ry="0.917643" transform="rotate(-0.194657 644.757 295.251)" fill="white"/>
<path d="M644.675 295.251C644.675 295.204 644.713 295.168 644.756 295.168L644.763 297.168C645.822 297.165 646.679 296.304 646.675 295.244L644.675 295.251ZM644.756 295.168C644.8 295.168 644.837 295.203 644.838 295.25L642.838 295.257C642.841 296.318 643.705 297.172 644.763 297.168L644.756 295.168ZM644.838 295.25C644.838 295.297 644.8 295.333 644.757 295.333L644.75 293.333C643.692 293.337 642.834 294.197 642.838 295.257L644.838 295.25ZM644.757 295.333C644.713 295.333 644.676 295.298 644.675 295.251L646.675 295.244C646.672 294.184 645.808 293.329 644.75 293.333L644.757 295.333Z" fill="white" mask="url(#path-20-inside-1)"/>
<ellipse cx="640.077" cy="315.796" rx="0.428403" ry="0.428848" transform="rotate(-0.194657 640.077 315.796)" fill="white"/>
<ellipse cx="586.09" cy="311.69" rx="0.428403" ry="0.428848" transform="rotate(-0.194657 586.09 311.69)" fill="white"/>
<ellipse cx="611.683" cy="279.011" rx="0.428403" ry="0.428848" transform="rotate(-0.194657 611.683 279.011)" fill="white"/>
<ellipse cx="622.147" cy="332.152" rx="0.428403" ry="0.428848" transform="rotate(-0.194657 622.147 332.152)" fill="white"/>
<mask id="path-26-inside-2" fill="white">
<ellipse cx="613.67" cy="343.074" rx="0.918946" ry="0.917643" transform="rotate(-0.194657 613.67 343.074)"/>
</mask>
<ellipse cx="613.67" cy="343.074" rx="0.918946" ry="0.917643" transform="rotate(-0.194657 613.67 343.074)" fill="white"/>
<path d="M613.589 343.074C613.588 343.027 613.626 342.992 613.669 342.991L613.676 344.991C614.735 344.988 615.592 344.128 615.589 343.067L613.589 343.074ZM613.669 342.991C613.713 342.991 613.751 343.027 613.751 343.073L611.751 343.08C611.754 344.141 612.618 344.995 613.676 344.991L613.669 342.991ZM613.751 343.073C613.751 343.12 613.713 343.156 613.67 343.156L613.663 341.156C612.605 341.16 611.747 342.02 611.751 343.08L613.751 343.073ZM613.67 343.156C613.626 343.156 613.589 343.121 613.589 343.074L615.589 343.067C615.585 342.007 614.722 341.153 613.663 341.156L613.67 343.156Z" fill="white" mask="url(#path-26-inside-2)"/>
<path d="M643.467 332.879C643.472 334.629 642.056 336.054 640.302 336.06C638.547 336.066 637.121 334.651 637.115 332.9C637.109 331.15 638.525 329.725 640.28 329.719C642.035 329.713 643.461 331.128 643.467 332.879Z" fill="white" stroke="white"/>
<path d="M598.303 327.663C598.306 328.4 597.71 329 596.97 329.003C596.23 329.005 595.63 328.409 595.628 327.672C595.625 326.935 596.221 326.335 596.961 326.332C597.7 326.33 598.301 326.926 598.303 327.663Z" fill="white" stroke="white"/>
<path d="M599.249 299.994C599.252 300.731 598.655 301.331 597.916 301.334C597.176 301.336 596.576 300.74 596.573 300.003C596.571 299.266 597.167 298.666 597.907 298.663C598.646 298.661 599.247 299.257 599.249 299.994Z" fill="white" stroke="white"/>
<ellipse rx="0.883876" ry="0.953315" transform="matrix(0.99967 0.0256992 -0.0193189 0.999813 635.588 97.4783)" fill="#F0F0F0"/>
<ellipse rx="0.883876" ry="0.953315" transform="matrix(0.99967 0.0256992 -0.0193189 0.999813 635.588 97.4783)" fill="#F0F0F0"/>
<ellipse rx="0.942996" ry="0.89474" transform="matrix(0.364377 -0.931251 0.91104 0.412317 146.882 179.09)" fill="#F0F0F0"/>
<ellipse rx="0.942996" ry="0.89474" transform="matrix(0.364377 -0.931251 0.91104 0.412317 146.882 179.09)" fill="#F0F0F0"/>
<ellipse rx="0.932492" ry="0.90597" transform="matrix(0.528904 0.848682 -0.808189 0.588924 409.626 34.8506)" fill="#B8BCDD"/>
<ellipse rx="0.942996" ry="0.89474" transform="matrix(0.364377 -0.931251 0.91104 0.412317 476.861 397.763)" fill="#F0F0F0"/>
<ellipse rx="0.942996" ry="0.89474" transform="matrix(0.364377 -0.931251 0.91104 0.412317 476.861 397.763)" fill="#F0F0F0"/>
<ellipse rx="0.883876" ry="0.953315" transform="matrix(0.99967 0.0256992 -0.0193189 0.999813 604.954 191.166)" fill="#F0F0F0"/>
<ellipse rx="0.883876" ry="0.953315" transform="matrix(0.99967 0.0256992 -0.0193189 0.999813 604.954 191.166)" fill="#F0F0F0"/>
<ellipse rx="0.931336" ry="0.906833" transform="matrix(-0.538031 0.842925 -0.804213 -0.594342 149.617 441.675)" fill="#B8BCDD"/>
<ellipse rx="0.942996" ry="0.89474" transform="matrix(0.364377 -0.931251 0.91104 0.412317 216.435 244.271)" fill="#F0F0F0"/>
<ellipse rx="0.942996" ry="0.89474" transform="matrix(0.364377 -0.931251 0.91104 0.412317 216.435 244.271)" fill="#F0F0F0"/>
<ellipse rx="0.932492" ry="0.90597" transform="matrix(0.528904 0.848682 -0.808189 0.588924 321.006 61.9053)" fill="#B8BCDD"/>
<ellipse rx="0.942996" ry="0.89474" transform="matrix(0.364377 -0.931251 0.91104 0.412317 546.414 462.945)" fill="#F0F0F0"/>
<ellipse rx="0.942996" ry="0.89474" transform="matrix(0.364377 -0.931251 0.91104 0.412317 546.414 462.945)" fill="#F0F0F0"/>
<ellipse rx="0.883876" ry="0.953315" transform="matrix(0.99967 0.0256992 -0.0193189 0.999813 490.113 167.219)" fill="#F0F0F0"/>
<ellipse rx="0.883876" ry="0.953315" transform="matrix(0.99967 0.0256992 -0.0193189 0.999813 490.113 167.219)" fill="#F0F0F0"/>
<ellipse rx="0.931336" ry="0.906833" transform="matrix(-0.538031 0.842925 -0.804213 -0.594342 231.029 351.145)" fill="#B8BCDD"/>
<ellipse rx="0.942996" ry="0.89474" transform="matrix(0.364377 -0.931251 0.91104 0.412317 153.673 350.689)" fill="#F0F0F0"/>
<ellipse rx="0.942996" ry="0.89474" transform="matrix(0.364377 -0.931251 0.91104 0.412317 153.673 350.689)" fill="#F0F0F0"/>
<ellipse rx="0.883875" ry="0.953314" transform="matrix(0.999676 0.0254684 -0.0195005 0.99981 521.358 42.0552)" fill="#F0F0F0"/>
<ellipse rx="0.943007" ry="0.89475" transform="matrix(0.364189 -0.931325 0.910955 0.412505 387.18 491.996)" fill="#F0F0F0"/>
<ellipse rx="0.943007" ry="0.89475" transform="matrix(0.364189 -0.931325 0.910955 0.412505 387.18 491.996)" fill="#F0F0F0"/>
<ellipse rx="0.942996" ry="0.89474" transform="matrix(0.364377 -0.931251 0.91104 0.412317 619.879 177.483)" fill="#F0F0F0"/>
<ellipse rx="0.942996" ry="0.89474" transform="matrix(0.364377 -0.931251 0.91104 0.412317 619.879 177.483)" fill="#F0F0F0"/>
<ellipse rx="0.932492" ry="0.90597" transform="matrix(0.528904 0.848682 -0.808189 0.588924 532.441 211.233)" fill="#B8BCDD"/>
<ellipse rx="0.941243" ry="0.896847" transform="matrix(-0.401098 -0.916035 0.890005 -0.455952 397.648 92.253)" fill="#F0F0F0"/>
<ellipse rx="0.883876" ry="0.953315" transform="matrix(0.99967 0.0256992 -0.0193189 0.999813 665.426 34.959)" fill="#F0F0F0"/>
<ellipse rx="0.883876" ry="0.953315" transform="matrix(0.99967 0.0256992 -0.0193189 0.999813 665.426 34.959)" fill="#F0F0F0"/>
<ellipse rx="0.931336" ry="0.906833" transform="matrix(-0.538031 0.842925 -0.804213 -0.594342 622.614 440.068)" fill="#B8BCDD"/>
<ellipse rx="0.942996" ry="0.89474" transform="matrix(0.364377 -0.931251 0.91104 0.412317 689.432 242.664)" fill="#F0F0F0"/>
<ellipse rx="0.942996" ry="0.89474" transform="matrix(0.364377 -0.931251 0.91104 0.412317 689.432 242.664)" fill="#F0F0F0"/>
<ellipse rx="0.942996" ry="0.89474" transform="matrix(0.364377 -0.931251 0.91104 0.412317 606.886 306.738)" fill="#F0F0F0"/>
<ellipse rx="0.942996" ry="0.89474" transform="matrix(0.364377 -0.931251 0.91104 0.412317 606.886 306.738)" fill="#F0F0F0"/>
<ellipse rx="0.932492" ry="0.90597" transform="matrix(0.528904 0.848682 -0.808189 0.588924 443.821 238.288)" fill="#B8BCDD"/>
<ellipse rx="0.941243" ry="0.896847" transform="matrix(-0.401098 -0.916035 0.890005 -0.455952 489.036 79.8545)" fill="#F0F0F0"/>
<ellipse rx="0.941243" ry="0.896847" transform="matrix(-0.401098 -0.916035 0.890005 -0.455952 489.037 79.8545)" fill="#F0F0F0"/>
<ellipse rx="0.942996" ry="0.89474" transform="matrix(0.364377 -0.931251 0.91104 0.412317 626.67 349.082)" fill="#F0F0F0"/>
<ellipse rx="0.942996" ry="0.89474" transform="matrix(0.364377 -0.931251 0.91104 0.412317 626.67 349.082)" fill="#F0F0F0"/>
<ellipse rx="0.941243" ry="0.896847" transform="matrix(-0.401098 -0.916035 0.890005 -0.455952 520.706 201.316)" fill="#F0F0F0"/>
<ellipse rx="0.941243" ry="0.896847" transform="matrix(-0.401098 -0.916035 0.890005 -0.455952 520.706 201.316)" fill="#F0F0F0"/>
<ellipse rx="0.943007" ry="0.89475" transform="matrix(0.364189 -0.931325 0.910955 0.412505 530.197 271.715)" fill="#F0F0F0"/>
<ellipse rx="0.943007" ry="0.89475" transform="matrix(0.364189 -0.931325 0.910955 0.412505 530.197 271.715)" fill="#F0F0F0"/>
<ellipse rx="0.932478" ry="0.905957" transform="matrix(0.52908 0.848572 -0.808307 0.588761 508.414 78.6478)" fill="#B8BCDD"/>
<ellipse rx="0.941232" ry="0.896836" transform="matrix(-0.401284 -0.915954 0.890098 -0.455769 402.957 227.216)" fill="#F0F0F0"/>
<ellipse rx="0.942996" ry="0.89474" transform="matrix(0.364377 -0.931251 0.91104 0.412317 448.458 512.482)" fill="#F0F0F0"/>
<ellipse rx="0.932492" ry="0.90597" transform="matrix(0.528904 0.848682 -0.808189 0.588924 804.526 4.50932)" fill="#B8BCDD"/>
<ellipse rx="0.942996" ry="0.89474" transform="matrix(0.364377 -0.931251 0.91104 0.412317 871.761 367.421)" fill="#F0F0F0"/>
<ellipse rx="0.942996" ry="0.89474" transform="matrix(0.364377 -0.931251 0.91104 0.412317 871.761 367.421)" fill="#F0F0F0"/>
<ellipse rx="0.932492" ry="0.90597" transform="matrix(0.528904 0.848682 -0.808189 0.588924 715.907 31.564)" fill="#B8BCDD"/>
<ellipse rx="0.943007" ry="0.89475" transform="matrix(0.364189 -0.931325 0.910955 0.412505 782.081 461.654)" fill="#F0F0F0"/>
<ellipse rx="0.943007" ry="0.89475" transform="matrix(0.364189 -0.931325 0.910955 0.412505 782.081 461.654)" fill="#F0F0F0"/>
<defs>
<linearGradient id="paint0_linear" x1="757.698" y1="19.85" x2="776.919" y2="105.61" gradientUnits="userSpaceOnUse">
<stop stop-color="#687BF7"/>
<stop offset="1" stop-color="#8050EF"/>
</linearGradient>
<linearGradient id="paint1_linear" x1="740.097" y1="23.4997" x2="791.35" y2="94.8951" gradientUnits="userSpaceOnUse">
<stop stop-color="#687BF7"/>
<stop offset="1" stop-color="#8050EF"/>
</linearGradient>
<linearGradient id="paint2_linear" x1="725.509" y1="33.5602" x2="800.353" y2="79.632" gradientUnits="userSpaceOnUse">
<stop stop-color="#687BF7"/>
<stop offset="1" stop-color="#8050EF"/>
</linearGradient>
<linearGradient id="paint3_linear" x1="200.347" y1="349.572" x2="200.551" y2="409.572" gradientUnits="userSpaceOnUse">
<stop stop-color="#687BF7"/>
<stop offset="1" stop-color="#2D40B9" stop-opacity="0.49"/>
</linearGradient>
<linearGradient id="paint4_linear" x1="477.25" y1="119.144" x2="477.25" y2="154.144" gradientUnits="userSpaceOnUse">
<stop stop-color="#CE395F"/>
<stop offset="1" stop-color="#FDA4BB" stop-opacity="0"/>
</linearGradient>
<linearGradient id="paint5_linear" x1="15" y1="0" x2="15" y2="30" gradientUnits="userSpaceOnUse">
<stop stop-color="#39BCCE"/>
<stop offset="1" stop-color="#75D6EC" stop-opacity="0.32"/>
</linearGradient>
</defs>
</svg>
