<svg width="1266" height="548" viewBox="0 0 1266 548" fill="none" xmlns="http://www.w3.org/2000/svg">
<line y1="-1" x2="86.6024" y2="-1" transform="matrix(0.628585 -0.777741 0.787196 0.616703 798.037 170.818)" stroke="#253660" stroke-width="2"/>
<line x1="365.195" y1="407.966" x2="239.436" y2="468.9" stroke="#253660" stroke-width="2"/>
<line x1="886.159" y1="336.013" x2="1123.71" y2="374.345" stroke="#253660" stroke-width="2"/>
<line x1="882.469" y1="448.117" x2="997.469" y2="509.117" stroke="#253660" stroke-width="2"/>
<line x1="370.6" y1="249.307" x2="144.656" y2="166.54" stroke="#253660" stroke-width="2"/>
<line x1="849.897" y1="228.853" x2="1089.24" y2="204.005" stroke="#253660" stroke-width="2"/>
<line x1="386.225" y1="314.689" x2="148.907" y2="354.456" stroke="#253660" stroke-width="2"/>
<line x1="399.172" y1="201.01" x2="266.062" y2="0.553068" stroke="#253660" stroke-width="2"/>
<ellipse rx="15" ry="15" transform="matrix(0.998151 -0.0607827 0.0653095 0.997865 1066.95 518.88)" fill="url(#paint0_linear)" fill-opacity="0.5"/>
<circle r="10" transform="matrix(0.998151 -0.0607827 0.0653095 0.997865 10.6346 72.5866)" fill="url(#paint1_linear)" fill-opacity="0.5"/>
<circle r="10" transform="matrix(0.998151 -0.0607827 0.0653095 0.997865 1018.63 72.5864)" fill="url(#paint2_linear)" fill-opacity="0.5"/>
<circle cx="42.5" cy="525.5" r="22.5" fill="url(#paint3_linear)"/>
<circle cx="113" cy="248" r="10" fill="url(#paint4_linear)"/>
<ellipse rx="15" ry="15" transform="matrix(0.968957 -0.24723 0.251622 0.967826 1247.31 251.226)" fill="url(#paint5_linear)" fill-opacity="0.5"/>
<defs>
<linearGradient id="paint0_linear" x1="15" y1="0" x2="15" y2="30" gradientUnits="userSpaceOnUse">
<stop stop-color="#253660"/>
<stop offset="1" stop-color="#5D81DC" stop-opacity="0.32"/>
</linearGradient>
<linearGradient id="paint1_linear" x1="10" y1="0" x2="10" y2="20" gradientUnits="userSpaceOnUse">
<stop stop-color="#253660"/>
<stop offset="1" stop-color="#5D81DC" stop-opacity="0.32"/>
</linearGradient>
<linearGradient id="paint2_linear" x1="10" y1="0" x2="10" y2="20" gradientUnits="userSpaceOnUse">
<stop stop-color="#253660"/>
<stop offset="1" stop-color="#5D81DC" stop-opacity="0.32"/>
</linearGradient>
<linearGradient id="paint3_linear" x1="42.5" y1="503" x2="42.5" y2="548" gradientUnits="userSpaceOnUse">
<stop stop-color="#CE395F"/>
<stop offset="1" stop-color="#FDA4BB" stop-opacity="0"/>
</linearGradient>
<linearGradient id="paint4_linear" x1="113" y1="238" x2="113" y2="258" gradientUnits="userSpaceOnUse">
<stop stop-color="#FBB74D"/>
<stop offset="1" stop-color="#FDA4BB" stop-opacity="0"/>
</linearGradient>
<linearGradient id="paint5_linear" x1="15" y1="0" x2="15" y2="30" gradientUnits="userSpaceOnUse">
<stop stop-color="#39BCCE"/>
<stop offset="1" stop-color="#75D6EC" stop-opacity="0.32"/>
</linearGradient>
</defs>
</svg>
