<svg width="784" height="424" viewBox="0 0 784 424" fill="none" xmlns="http://www.w3.org/2000/svg">
<line x1="580.262" y1="59.1912" x2="609.219" y2="23.3686" stroke="#253660" stroke-width="2"/>
<line x1="149.12" y1="298.735" x2="90.511" y2="327.131" stroke="#253660" stroke-width="2"/>
<line x1="668.654" y1="227.73" x2="783.664" y2="246.296" stroke="#253660" stroke-width="2"/>
<line x1="664.431" y1="338.899" x2="710.506" y2="363.335" stroke="#253660" stroke-width="2"/>
<line x1="153.567" y1="138.398" x2="34.6894" y2="94.8478" stroke="#253660" stroke-width="2"/>
<line x1="632.868" y1="117.58" x2="760.926" y2="104.278" stroke="#253660" stroke-width="2"/>
<line x1="169.096" y1="202.887" x2="50.2941" y2="222.789" stroke="#253660" stroke-width="2"/>
<line x1="179.926" y1="91.5852" x2="120.413" y2="1.9773" stroke="#253660" stroke-width="2"/>
<ellipse rx="15" ry="15" transform="matrix(0.998151 -0.0607827 0.0653095 0.997865 760.952 407.88)" fill="url(#paint0_linear)" fill-opacity="0.5"/>
<circle r="10" transform="matrix(0.998151 -0.0607827 0.0653095 0.997865 32.6346 10.5864)" fill="url(#paint1_linear)" fill-opacity="0.5"/>
<circle r="10" transform="matrix(0.998151 -0.0607827 0.0653095 0.997865 731.635 18.5864)" fill="url(#paint2_linear)" fill-opacity="0.5"/>
<circle cx="22.5" cy="384.5" r="22.5" fill="url(#paint3_linear)"/>
<circle cx="91" cy="177" r="10" fill="url(#paint4_linear)"/>
<ellipse rx="15" ry="15" transform="matrix(0.968957 -0.24723 0.251622 0.967826 723.309 185.226)" fill="url(#paint5_linear)" fill-opacity="0.5"/>
<defs>
<linearGradient id="paint0_linear" x1="15" y1="0" x2="15" y2="30" gradientUnits="userSpaceOnUse">
<stop stop-color="#253660"/>
<stop offset="1" stop-color="#5D81DC" stop-opacity="0.32"/>
</linearGradient>
<linearGradient id="paint1_linear" x1="10" y1="0" x2="10" y2="20" gradientUnits="userSpaceOnUse">
<stop stop-color="#253660"/>
<stop offset="1" stop-color="#5D81DC" stop-opacity="0.32"/>
</linearGradient>
<linearGradient id="paint2_linear" x1="10" y1="0" x2="10" y2="20" gradientUnits="userSpaceOnUse">
<stop stop-color="#253660"/>
<stop offset="1" stop-color="#5D81DC" stop-opacity="0.32"/>
</linearGradient>
<linearGradient id="paint3_linear" x1="22.5" y1="362" x2="22.5" y2="407" gradientUnits="userSpaceOnUse">
<stop stop-color="#CE395F"/>
<stop offset="1" stop-color="#FDA4BB" stop-opacity="0"/>
</linearGradient>
<linearGradient id="paint4_linear" x1="91" y1="167" x2="91" y2="187" gradientUnits="userSpaceOnUse">
<stop stop-color="#FBB74D"/>
<stop offset="1" stop-color="#FDA4BB" stop-opacity="0"/>
</linearGradient>
<linearGradient id="paint5_linear" x1="15" y1="0" x2="15" y2="30" gradientUnits="userSpaceOnUse">
<stop stop-color="#39BCCE"/>
<stop offset="1" stop-color="#75D6EC" stop-opacity="0.32"/>
</linearGradient>
</defs>
</svg>
