<svg width="498" height="235" viewBox="0 0 498 235" fill="none" xmlns="http://www.w3.org/2000/svg">
<path d="M195.156 212.75V224H193.644V212.75H189.45V211.436H199.35V212.75H195.156ZM205.193 224.216C204.545 224.216 203.957 224.102 203.429 223.874C202.913 223.646 202.469 223.322 202.097 222.902C201.737 222.47 201.461 221.96 201.269 221.372C201.077 220.772 200.981 220.1 200.981 219.356C200.981 218.624 201.077 217.958 201.269 217.358C201.461 216.758 201.737 216.248 202.097 215.828C202.469 215.396 202.913 215.066 203.429 214.838C203.957 214.61 204.545 214.496 205.193 214.496C205.841 214.496 206.423 214.61 206.939 214.838C207.467 215.066 207.911 215.396 208.271 215.828C208.643 216.248 208.925 216.758 209.117 217.358C209.309 217.958 209.405 218.624 209.405 219.356C209.405 220.1 209.309 220.772 209.117 221.372C208.925 221.96 208.643 222.47 208.271 222.902C207.911 223.322 207.467 223.646 206.939 223.874C206.423 224.102 205.841 224.216 205.193 224.216ZM205.193 222.974C205.997 222.974 206.645 222.734 207.137 222.254C207.629 221.774 207.875 221.03 207.875 220.022V218.69C207.875 217.682 207.629 216.938 207.137 216.458C206.645 215.978 205.997 215.738 205.193 215.738C204.389 215.738 203.741 215.978 203.249 216.458C202.757 216.938 202.511 217.682 202.511 218.69V220.022C202.511 221.03 202.757 221.774 203.249 222.254C203.741 222.734 204.389 222.974 205.193 222.974ZM212.476 210.68H213.916V219.086H213.988L215.608 217.556L218.704 214.712H220.468L216.616 218.348L220.918 224H219.136L215.518 219.176L213.916 220.634V224H212.476V210.68ZM226.941 224.216C226.269 224.216 225.663 224.102 225.123 223.874C224.595 223.646 224.139 223.322 223.755 222.902C223.383 222.47 223.095 221.96 222.891 221.372C222.687 220.772 222.585 220.106 222.585 219.374C222.585 218.63 222.687 217.958 222.891 217.358C223.107 216.758 223.401 216.248 223.773 215.828C224.145 215.396 224.589 215.066 225.105 214.838C225.633 214.61 226.215 214.496 226.851 214.496C227.475 214.496 228.039 214.61 228.543 214.838C229.059 215.066 229.497 215.384 229.857 215.792C230.217 216.188 230.493 216.662 230.685 217.214C230.877 217.766 230.973 218.372 230.973 219.032V219.716H224.097V220.148C224.097 220.556 224.163 220.934 224.295 221.282C224.427 221.63 224.613 221.93 224.853 222.182C225.105 222.434 225.405 222.632 225.753 222.776C226.113 222.908 226.509 222.974 226.941 222.974C227.565 222.974 228.105 222.83 228.561 222.542C229.017 222.254 229.365 221.858 229.605 221.354L230.667 222.074C230.391 222.698 229.929 223.214 229.281 223.622C228.645 224.018 227.865 224.216 226.941 224.216ZM226.851 215.684C226.455 215.684 226.089 215.756 225.753 215.9C225.417 216.044 225.123 216.242 224.871 216.494C224.631 216.746 224.439 217.046 224.295 217.394C224.163 217.73 224.097 218.102 224.097 218.51V218.636H229.425V218.438C229.425 218.03 229.359 217.658 229.227 217.322C229.107 216.986 228.933 216.698 228.705 216.458C228.489 216.206 228.219 216.014 227.895 215.882C227.583 215.75 227.235 215.684 226.851 215.684ZM233.936 224V214.712H235.376V216.224H235.448C235.544 215.996 235.664 215.78 235.808 215.576C235.952 215.36 236.126 215.174 236.33 215.018C236.546 214.862 236.798 214.736 237.086 214.64C237.374 214.544 237.71 214.496 238.094 214.496C239.066 214.496 239.846 214.808 240.434 215.432C241.022 216.044 241.316 216.914 241.316 218.042V224H239.876V218.294C239.876 217.442 239.69 216.812 239.318 216.404C238.946 215.984 238.4 215.774 237.68 215.774C237.392 215.774 237.11 215.81 236.834 215.882C236.558 215.954 236.312 216.062 236.096 216.206C235.88 216.35 235.706 216.536 235.574 216.764C235.442 216.992 235.376 217.256 235.376 217.556V224H233.936ZM255.468 211.436H258.978C260.514 211.436 261.66 211.964 262.416 213.02C263.172 214.076 263.55 215.642 263.55 217.718C263.55 219.794 263.172 221.36 262.416 222.416C261.66 223.472 260.514 224 258.978 224H255.468V211.436ZM258.906 222.686C259.914 222.686 260.67 222.338 261.174 221.642C261.69 220.946 261.948 219.962 261.948 218.69V216.746C261.948 215.474 261.69 214.49 261.174 213.794C260.67 213.098 259.914 212.75 258.906 212.75H256.98V222.686H258.906ZM266.171 224V211.436H273.911V212.75H267.683V216.98H273.695V218.294H267.683V222.686H273.911V224H266.171ZM285.694 224H283.984L282.49 221.498L280.834 218.762H280.762L279.052 221.498L277.468 224H275.812L279.916 217.592L276.046 211.436H277.756L279.214 213.866L280.78 216.404H280.852L282.4 213.866L283.912 211.436H285.568L281.68 217.574L285.694 224Z" fill="#F0F0F0"/>
<path d="M11.934 75.362H11.808V86H10.44V73.436H12.582L16.866 83.966H16.992V73.436H18.36V86H16.218L11.934 75.362ZM21.413 86V73.436H29.333V74.75H22.925V78.98H28.793V80.294H22.925V86H21.413ZM36.7419 74.75V86H35.2299V74.75H31.0359V73.436H40.9359V74.75H36.7419ZM60.3619 79.7V75.722H60.2179L57.5719 82.184L54.9259 75.722H54.7819V79.7V86H53.3959V73.436H55.3399L57.5539 78.98H57.6619L59.8759 73.436H61.7479V86H60.3619V79.7ZM71.8748 86C71.3108 86 70.9088 85.856 70.6688 85.568C70.4288 85.28 70.2788 84.92 70.2188 84.488H70.1288C69.9248 85.028 69.5948 85.454 69.1388 85.766C68.6948 86.066 68.0948 86.216 67.3388 86.216C66.3668 86.216 65.5928 85.964 65.0168 85.46C64.4408 84.956 64.1528 84.266 64.1528 83.39C64.1528 82.526 64.4648 81.86 65.0888 81.392C65.7248 80.924 66.7448 80.69 68.1488 80.69H70.1288V79.772C70.1288 79.088 69.9368 78.578 69.5528 78.242C69.1688 77.894 68.6228 77.72 67.9148 77.72C67.2908 77.72 66.7808 77.846 66.3848 78.098C65.9888 78.338 65.6708 78.668 65.4308 79.088L64.4588 78.368C64.5788 78.128 64.7408 77.894 64.9448 77.666C65.1488 77.438 65.4008 77.24 65.7008 77.072C66.0008 76.892 66.3428 76.754 66.7268 76.658C67.1108 76.55 67.5368 76.496 68.0048 76.496C69.0968 76.496 69.9608 76.772 70.5968 77.324C71.2448 77.876 71.5688 78.644 71.5688 79.628V84.74H72.8648V86H71.8748ZM67.5908 85.01C67.9628 85.01 68.2988 84.968 68.5988 84.884C68.9108 84.788 69.1808 84.668 69.4088 84.524C69.6368 84.368 69.8108 84.188 69.9308 83.984C70.0628 83.768 70.1288 83.54 70.1288 83.3V81.77H68.1488C67.2848 81.77 66.6548 81.89 66.2588 82.13C65.8628 82.37 65.6648 82.718 65.6648 83.174V83.552C65.6648 84.032 65.8328 84.398 66.1688 84.65C66.5168 84.89 66.9908 85.01 67.5908 85.01ZM75.1438 84.776H77.8618V77.936H75.1438V76.712H79.3018V79.052H79.3918C79.5838 78.32 79.9438 77.75 80.4718 77.342C81.0118 76.922 81.6958 76.712 82.5238 76.712H83.8198V78.152H82.0738C81.2458 78.152 80.5738 78.392 80.0578 78.872C79.5538 79.352 79.3018 79.982 79.3018 80.762V84.776H82.9018V86H75.1438V84.776ZM86.4408 72.68H87.8808V81.086H87.9528L89.5728 79.556L92.6688 76.712H94.4328L90.5808 80.348L94.8828 86H93.1008L89.4828 81.176L87.8808 82.634V86H86.4408V72.68ZM100.906 86.216C100.234 86.216 99.6278 86.102 99.0878 85.874C98.5598 85.646 98.1038 85.322 97.7197 84.902C97.3478 84.47 97.0598 83.96 96.8558 83.372C96.6518 82.772 96.5498 82.106 96.5498 81.374C96.5498 80.63 96.6518 79.958 96.8558 79.358C97.0718 78.758 97.3658 78.248 97.7378 77.828C98.1098 77.396 98.5538 77.066 99.0698 76.838C99.5978 76.61 100.18 76.496 100.816 76.496C101.44 76.496 102.004 76.61 102.508 76.838C103.024 77.066 103.462 77.384 103.822 77.792C104.182 78.188 104.458 78.662 104.65 79.214C104.842 79.766 104.938 80.372 104.938 81.032V81.716H98.0618V82.148C98.0618 82.556 98.1278 82.934 98.2598 83.282C98.3918 83.63 98.5778 83.93 98.8178 84.182C99.0698 84.434 99.3698 84.632 99.7178 84.776C100.078 84.908 100.474 84.974 100.906 84.974C101.53 84.974 102.07 84.83 102.526 84.542C102.982 84.254 103.33 83.858 103.57 83.354L104.632 84.074C104.356 84.698 103.894 85.214 103.246 85.622C102.61 86.018 101.83 86.216 100.906 86.216ZM100.816 77.684C100.42 77.684 100.054 77.756 99.7178 77.9C99.3818 78.044 99.0878 78.242 98.8358 78.494C98.5958 78.746 98.4038 79.046 98.2598 79.394C98.1278 79.73 98.0618 80.102 98.0618 80.51V80.636H103.39V80.438C103.39 80.03 103.324 79.658 103.192 79.322C103.072 78.986 102.898 78.698 102.67 78.458C102.454 78.206 102.184 78.014 101.86 77.882C101.548 77.75 101.2 77.684 100.816 77.684ZM111.987 86C111.279 86 110.757 85.802 110.421 85.406C110.097 85.01 109.935 84.5 109.935 83.876V77.936H106.839V76.712H109.143C109.455 76.712 109.671 76.652 109.791 76.532C109.923 76.4 109.989 76.178 109.989 75.866V73.436H111.375V76.712H115.605V77.936H111.375V84.776H115.605V86H111.987Z" fill="#F0F0F0"/>
<path d="M184.156 74.75V86H182.644V74.75H178.45V73.436H188.35V74.75H184.156ZM194.193 86.216C193.545 86.216 192.957 86.102 192.429 85.874C191.913 85.646 191.469 85.322 191.097 84.902C190.737 84.47 190.461 83.96 190.269 83.372C190.077 82.772 189.981 82.1 189.981 81.356C189.981 80.624 190.077 79.958 190.269 79.358C190.461 78.758 190.737 78.248 191.097 77.828C191.469 77.396 191.913 77.066 192.429 76.838C192.957 76.61 193.545 76.496 194.193 76.496C194.841 76.496 195.423 76.61 195.939 76.838C196.467 77.066 196.911 77.396 197.271 77.828C197.643 78.248 197.925 78.758 198.117 79.358C198.309 79.958 198.405 80.624 198.405 81.356C198.405 82.1 198.309 82.772 198.117 83.372C197.925 83.96 197.643 84.47 197.271 84.902C196.911 85.322 196.467 85.646 195.939 85.874C195.423 86.102 194.841 86.216 194.193 86.216ZM194.193 84.974C194.997 84.974 195.645 84.734 196.137 84.254C196.629 83.774 196.875 83.03 196.875 82.022V80.69C196.875 79.682 196.629 78.938 196.137 78.458C195.645 77.978 194.997 77.738 194.193 77.738C193.389 77.738 192.741 77.978 192.249 78.458C191.757 78.938 191.511 79.682 191.511 80.69V82.022C191.511 83.03 191.757 83.774 192.249 84.254C192.741 84.734 193.389 84.974 194.193 84.974ZM201.476 72.68H202.916V81.086H202.988L204.608 79.556L207.704 76.712H209.468L205.616 80.348L209.918 86H208.136L204.518 81.176L202.916 82.634V86H201.476V72.68ZM215.941 86.216C215.269 86.216 214.663 86.102 214.123 85.874C213.595 85.646 213.139 85.322 212.755 84.902C212.383 84.47 212.095 83.96 211.891 83.372C211.687 82.772 211.585 82.106 211.585 81.374C211.585 80.63 211.687 79.958 211.891 79.358C212.107 78.758 212.401 78.248 212.773 77.828C213.145 77.396 213.589 77.066 214.105 76.838C214.633 76.61 215.215 76.496 215.851 76.496C216.475 76.496 217.039 76.61 217.543 76.838C218.059 77.066 218.497 77.384 218.857 77.792C219.217 78.188 219.493 78.662 219.685 79.214C219.877 79.766 219.973 80.372 219.973 81.032V81.716H213.097V82.148C213.097 82.556 213.163 82.934 213.295 83.282C213.427 83.63 213.613 83.93 213.853 84.182C214.105 84.434 214.405 84.632 214.753 84.776C215.113 84.908 215.509 84.974 215.941 84.974C216.565 84.974 217.105 84.83 217.561 84.542C218.017 84.254 218.365 83.858 218.605 83.354L219.667 84.074C219.391 84.698 218.929 85.214 218.281 85.622C217.645 86.018 216.865 86.216 215.941 86.216ZM215.851 77.684C215.455 77.684 215.089 77.756 214.753 77.9C214.417 78.044 214.123 78.242 213.871 78.494C213.631 78.746 213.439 79.046 213.295 79.394C213.163 79.73 213.097 80.102 213.097 80.51V80.636H218.425V80.438C218.425 80.03 218.359 79.658 218.227 79.322C218.107 78.986 217.933 78.698 217.705 78.458C217.489 78.206 217.219 78.014 216.895 77.882C216.583 77.75 216.235 77.684 215.851 77.684ZM222.936 86V76.712H224.376V78.224H224.448C224.544 77.996 224.664 77.78 224.808 77.576C224.952 77.36 225.126 77.174 225.33 77.018C225.546 76.862 225.798 76.736 226.086 76.64C226.374 76.544 226.71 76.496 227.094 76.496C228.066 76.496 228.846 76.808 229.434 77.432C230.022 78.044 230.316 78.914 230.316 80.042V86H228.876V80.294C228.876 79.442 228.69 78.812 228.318 78.404C227.946 77.984 227.4 77.774 226.68 77.774C226.392 77.774 226.11 77.81 225.834 77.882C225.558 77.954 225.312 78.062 225.096 78.206C224.88 78.35 224.706 78.536 224.574 78.764C224.442 78.992 224.376 79.256 224.376 79.556V86H222.936ZM243.298 76.712H244.576L245.638 84.74H245.8L247.384 76.712H248.968L250.552 84.74H250.714L251.776 76.712H253.018L251.596 86H249.724L248.248 78.224H248.104L246.592 86H244.72L243.298 76.712ZM262.461 86C261.897 86 261.495 85.856 261.255 85.568C261.015 85.28 260.865 84.92 260.805 84.488H260.715C260.511 85.028 260.181 85.454 259.725 85.766C259.281 86.066 258.681 86.216 257.925 86.216C256.953 86.216 256.179 85.964 255.603 85.46C255.027 84.956 254.739 84.266 254.739 83.39C254.739 82.526 255.051 81.86 255.675 81.392C256.311 80.924 257.331 80.69 258.735 80.69H260.715V79.772C260.715 79.088 260.523 78.578 260.139 78.242C259.755 77.894 259.209 77.72 258.501 77.72C257.877 77.72 257.367 77.846 256.971 78.098C256.575 78.338 256.257 78.668 256.017 79.088L255.045 78.368C255.165 78.128 255.327 77.894 255.531 77.666C255.735 77.438 255.987 77.24 256.287 77.072C256.587 76.892 256.929 76.754 257.313 76.658C257.697 76.55 258.123 76.496 258.591 76.496C259.683 76.496 260.547 76.772 261.183 77.324C261.831 77.876 262.155 78.644 262.155 79.628V84.74H263.451V86H262.461ZM258.177 85.01C258.549 85.01 258.885 84.968 259.185 84.884C259.497 84.788 259.767 84.668 259.995 84.524C260.223 84.368 260.397 84.188 260.517 83.984C260.649 83.768 260.715 83.54 260.715 83.3V81.77H258.735C257.871 81.77 257.241 81.89 256.845 82.13C256.449 82.37 256.251 82.718 256.251 83.174V83.552C256.251 84.032 256.419 84.398 256.755 84.65C257.103 84.89 257.577 85.01 258.177 85.01ZM265.784 84.776H269.024V73.904H265.784V72.68H270.464V84.776H273.704V86H265.784V84.776ZM276.577 84.776H279.817V73.904H276.577V72.68H281.257V84.776H284.497V86H276.577V84.776ZM291.492 86.216C290.82 86.216 290.214 86.102 289.674 85.874C289.146 85.646 288.69 85.322 288.306 84.902C287.934 84.47 287.646 83.96 287.442 83.372C287.238 82.772 287.136 82.106 287.136 81.374C287.136 80.63 287.238 79.958 287.442 79.358C287.658 78.758 287.952 78.248 288.324 77.828C288.696 77.396 289.14 77.066 289.656 76.838C290.184 76.61 290.766 76.496 291.402 76.496C292.026 76.496 292.59 76.61 293.094 76.838C293.61 77.066 294.048 77.384 294.408 77.792C294.768 78.188 295.044 78.662 295.236 79.214C295.428 79.766 295.524 80.372 295.524 81.032V81.716H288.648V82.148C288.648 82.556 288.714 82.934 288.846 83.282C288.978 83.63 289.164 83.93 289.404 84.182C289.656 84.434 289.956 84.632 290.304 84.776C290.664 84.908 291.06 84.974 291.492 84.974C292.116 84.974 292.656 84.83 293.112 84.542C293.568 84.254 293.916 83.858 294.156 83.354L295.218 84.074C294.942 84.698 294.48 85.214 293.832 85.622C293.196 86.018 292.416 86.216 291.492 86.216ZM291.402 77.684C291.006 77.684 290.64 77.756 290.304 77.9C289.968 78.044 289.674 78.242 289.422 78.494C289.182 78.746 288.99 79.046 288.846 79.394C288.714 79.73 288.648 80.102 288.648 80.51V80.636H293.976V80.438C293.976 80.03 293.91 79.658 293.778 79.322C293.658 78.986 293.484 78.698 293.256 78.458C293.04 78.206 292.77 78.014 292.446 77.882C292.134 77.75 291.786 77.684 291.402 77.684ZM302.573 86C301.865 86 301.343 85.802 301.007 85.406C300.683 85.01 300.521 84.5 300.521 83.876V77.936H297.425V76.712H299.729C300.041 76.712 300.257 76.652 300.377 76.532C300.509 76.4 300.575 76.178 300.575 75.866V73.436H301.961V76.712H306.191V77.936H301.961V84.776H306.191V86H302.573Z" fill="#F0F0F0"/>
<path d="M6.156 212.75V224H4.644V212.75H0.45V211.436H10.35V212.75H6.156ZM16.193 224.216C15.425 224.216 14.765 224.072 14.213 223.784C13.661 223.484 13.205 223.058 12.845 222.506C12.485 221.954 12.221 221.276 12.053 220.472C11.885 219.668 11.801 218.75 11.801 217.718C11.801 216.698 11.885 215.786 12.053 214.982C12.221 214.166 12.485 213.482 12.845 212.93C13.205 212.378 13.661 211.958 14.213 211.67C14.765 211.37 15.425 211.22 16.193 211.22C16.961 211.22 17.621 211.37 18.173 211.67C18.725 211.958 19.181 212.378 19.541 212.93C19.901 213.482 20.165 214.166 20.333 214.982C20.501 215.786 20.585 216.698 20.585 217.718C20.585 218.75 20.501 219.668 20.333 220.472C20.165 221.276 19.901 221.954 19.541 222.506C19.181 223.058 18.725 223.484 18.173 223.784C17.621 224.072 16.961 224.216 16.193 224.216ZM16.193 222.902C16.697 222.902 17.123 222.806 17.471 222.614C17.819 222.41 18.107 222.128 18.335 221.768C18.563 221.408 18.725 220.976 18.821 220.472C18.929 219.956 18.983 219.38 18.983 218.744V216.692C18.983 216.068 18.929 215.498 18.821 214.982C18.725 214.466 18.563 214.028 18.335 213.668C18.107 213.308 17.819 213.032 17.471 212.84C17.123 212.636 16.697 212.534 16.193 212.534C15.689 212.534 15.263 212.636 14.915 212.84C14.567 213.032 14.279 213.308 14.051 213.668C13.823 214.028 13.655 214.466 13.547 214.982C13.451 215.498 13.403 216.068 13.403 216.692V218.744C13.403 219.38 13.451 219.956 13.547 220.472C13.655 220.976 13.823 221.408 14.051 221.768C14.279 222.128 14.567 222.41 14.915 222.614C15.263 222.806 15.689 222.902 16.193 222.902ZM26.4279 217.844L24.6279 219.968V224H23.1159V211.436H24.6279V217.988H24.6819L26.3379 215.9L30.0459 211.436H31.8639L27.4539 216.728L31.9899 224H30.2259L26.4279 217.844ZM33.9989 224V211.436H41.7389V212.75H35.5109V216.98H41.5229V218.294H35.5109V222.686H41.7389V224H33.9989ZM45.3319 224V211.436H46.8439V222.686H52.8019V224H45.3319ZM65.2978 214.712H66.5758L67.6378 222.74H67.7998L69.3838 214.712H70.9678L72.5518 222.74H72.7138L73.7758 214.712H75.0178L73.5958 224H71.7238L70.2478 216.224H70.1038L68.5918 224H66.7198L65.2978 214.712ZM84.4608 224C83.8968 224 83.4948 223.856 83.2548 223.568C83.0148 223.28 82.8648 222.92 82.8048 222.488H82.7148C82.5108 223.028 82.1808 223.454 81.7248 223.766C81.2808 224.066 80.6808 224.216 79.9248 224.216C78.9528 224.216 78.1788 223.964 77.6028 223.46C77.0268 222.956 76.7388 222.266 76.7388 221.39C76.7388 220.526 77.0508 219.86 77.6748 219.392C78.3108 218.924 79.3308 218.69 80.7348 218.69H82.7148V217.772C82.7148 217.088 82.5228 216.578 82.1388 216.242C81.7548 215.894 81.2088 215.72 80.5008 215.72C79.8768 215.72 79.3668 215.846 78.9708 216.098C78.5748 216.338 78.2568 216.668 78.0168 217.088L77.0448 216.368C77.1648 216.128 77.3268 215.894 77.5308 215.666C77.7348 215.438 77.9868 215.24 78.2868 215.072C78.5868 214.892 78.9288 214.754 79.3128 214.658C79.6968 214.55 80.1228 214.496 80.5908 214.496C81.6828 214.496 82.5468 214.772 83.1828 215.324C83.8308 215.876 84.1548 216.644 84.1548 217.628V222.74H85.4508V224H84.4608ZM80.1768 223.01C80.5488 223.01 80.8848 222.968 81.1848 222.884C81.4968 222.788 81.7668 222.668 81.9948 222.524C82.2228 222.368 82.3968 222.188 82.5168 221.984C82.6488 221.768 82.7148 221.54 82.7148 221.3V219.77H80.7348C79.8708 219.77 79.2408 219.89 78.8448 220.13C78.4488 220.37 78.2508 220.718 78.2508 221.174V221.552C78.2508 222.032 78.4188 222.398 78.7548 222.65C79.1028 222.89 79.5768 223.01 80.1768 223.01ZM87.7838 222.776H91.0238V211.904H87.7838V210.68H92.4638V222.776H95.7038V224H87.7838V222.776ZM98.5767 222.776H101.817V211.904H98.5767V210.68H103.257V222.776H106.497V224H98.5767V222.776ZM113.492 224.216C112.82 224.216 112.214 224.102 111.674 223.874C111.146 223.646 110.69 223.322 110.306 222.902C109.934 222.47 109.646 221.96 109.442 221.372C109.238 220.772 109.136 220.106 109.136 219.374C109.136 218.63 109.238 217.958 109.442 217.358C109.658 216.758 109.952 216.248 110.324 215.828C110.696 215.396 111.14 215.066 111.656 214.838C112.184 214.61 112.766 214.496 113.402 214.496C114.026 214.496 114.59 214.61 115.094 214.838C115.61 215.066 116.048 215.384 116.408 215.792C116.768 216.188 117.044 216.662 117.236 217.214C117.428 217.766 117.524 218.372 117.524 219.032V219.716H110.648V220.148C110.648 220.556 110.714 220.934 110.846 221.282C110.978 221.63 111.164 221.93 111.404 222.182C111.656 222.434 111.956 222.632 112.304 222.776C112.664 222.908 113.06 222.974 113.492 222.974C114.116 222.974 114.656 222.83 115.112 222.542C115.568 222.254 115.916 221.858 116.156 221.354L117.218 222.074C116.942 222.698 116.48 223.214 115.832 223.622C115.196 224.018 114.416 224.216 113.492 224.216ZM113.402 215.684C113.006 215.684 112.64 215.756 112.304 215.9C111.968 216.044 111.674 216.242 111.422 216.494C111.182 216.746 110.99 217.046 110.846 217.394C110.714 217.73 110.648 218.102 110.648 218.51V218.636H115.976V218.438C115.976 218.03 115.91 217.658 115.778 217.322C115.658 216.986 115.484 216.698 115.256 216.458C115.04 216.206 114.77 216.014 114.446 215.882C114.134 215.75 113.786 215.684 113.402 215.684ZM124.573 224C123.865 224 123.343 223.802 123.007 223.406C122.683 223.01 122.521 222.5 122.521 221.876V215.936H119.425V214.712H121.729C122.041 214.712 122.257 214.652 122.377 214.532C122.509 214.4 122.575 214.178 122.575 213.866V211.436H123.961V214.712H128.191V215.936H123.961V222.776H128.191V224H124.573Z" fill="#F0F0F0"/>
<path d="M352.605 74.75V86H351.093V74.75H346.899V73.436H356.799V74.75H352.605ZM362.642 86.216C361.994 86.216 361.406 86.102 360.878 85.874C360.362 85.646 359.918 85.322 359.546 84.902C359.186 84.47 358.91 83.96 358.718 83.372C358.526 82.772 358.43 82.1 358.43 81.356C358.43 80.624 358.526 79.958 358.718 79.358C358.91 78.758 359.186 78.248 359.546 77.828C359.918 77.396 360.362 77.066 360.878 76.838C361.406 76.61 361.994 76.496 362.642 76.496C363.29 76.496 363.872 76.61 364.388 76.838C364.916 77.066 365.36 77.396 365.72 77.828C366.092 78.248 366.374 78.758 366.566 79.358C366.758 79.958 366.854 80.624 366.854 81.356C366.854 82.1 366.758 82.772 366.566 83.372C366.374 83.96 366.092 84.47 365.72 84.902C365.36 85.322 364.916 85.646 364.388 85.874C363.872 86.102 363.29 86.216 362.642 86.216ZM362.642 84.974C363.446 84.974 364.094 84.734 364.586 84.254C365.078 83.774 365.324 83.03 365.324 82.022V80.69C365.324 79.682 365.078 78.938 364.586 78.458C364.094 77.978 363.446 77.738 362.642 77.738C361.838 77.738 361.19 77.978 360.698 78.458C360.206 78.938 359.96 79.682 359.96 80.69V82.022C359.96 83.03 360.206 83.774 360.698 84.254C361.19 84.734 361.838 84.974 362.642 84.974ZM369.925 72.68H371.365V81.086H371.437L373.057 79.556L376.153 76.712H377.917L374.065 80.348L378.367 86H376.585L372.967 81.176L371.365 82.634V86H369.925V72.68ZM384.39 86.216C383.718 86.216 383.112 86.102 382.572 85.874C382.044 85.646 381.588 85.322 381.204 84.902C380.832 84.47 380.544 83.96 380.34 83.372C380.136 82.772 380.034 82.106 380.034 81.374C380.034 80.63 380.136 79.958 380.34 79.358C380.556 78.758 380.85 78.248 381.222 77.828C381.594 77.396 382.038 77.066 382.554 76.838C383.082 76.61 383.664 76.496 384.3 76.496C384.924 76.496 385.488 76.61 385.992 76.838C386.508 77.066 386.946 77.384 387.306 77.792C387.666 78.188 387.942 78.662 388.134 79.214C388.326 79.766 388.422 80.372 388.422 81.032V81.716H381.546V82.148C381.546 82.556 381.612 82.934 381.744 83.282C381.876 83.63 382.062 83.93 382.302 84.182C382.554 84.434 382.854 84.632 383.202 84.776C383.562 84.908 383.958 84.974 384.39 84.974C385.014 84.974 385.554 84.83 386.01 84.542C386.466 84.254 386.814 83.858 387.054 83.354L388.116 84.074C387.84 84.698 387.378 85.214 386.73 85.622C386.094 86.018 385.314 86.216 384.39 86.216ZM384.3 77.684C383.904 77.684 383.538 77.756 383.202 77.9C382.866 78.044 382.572 78.242 382.32 78.494C382.08 78.746 381.888 79.046 381.744 79.394C381.612 79.73 381.546 80.102 381.546 80.51V80.636H386.874V80.438C386.874 80.03 386.808 79.658 386.676 79.322C386.556 78.986 386.382 78.698 386.154 78.458C385.938 78.206 385.668 78.014 385.344 77.882C385.032 77.75 384.684 77.684 384.3 77.684ZM391.385 86V76.712H392.825V78.224H392.897C392.993 77.996 393.113 77.78 393.257 77.576C393.401 77.36 393.575 77.174 393.779 77.018C393.995 76.862 394.247 76.736 394.535 76.64C394.823 76.544 395.159 76.496 395.543 76.496C396.515 76.496 397.295 76.808 397.883 77.432C398.471 78.044 398.765 78.914 398.765 80.042V86H397.325V80.294C397.325 79.442 397.139 78.812 396.767 78.404C396.395 77.984 395.849 77.774 395.129 77.774C394.841 77.774 394.559 77.81 394.283 77.882C394.007 77.954 393.761 78.062 393.545 78.206C393.329 78.35 393.155 78.536 393.023 78.764C392.891 78.992 392.825 79.256 392.825 79.556V86H391.385ZM416.931 86.216C416.259 86.216 415.659 86.102 415.131 85.874C414.615 85.634 414.177 85.304 413.817 84.884C413.457 84.464 413.181 83.954 412.989 83.354C412.809 82.754 412.719 82.088 412.719 81.356C412.719 80.624 412.815 79.958 413.007 79.358C413.199 78.758 413.475 78.248 413.835 77.828C414.195 77.396 414.633 77.066 415.149 76.838C415.665 76.61 416.253 76.496 416.913 76.496C417.813 76.496 418.545 76.694 419.109 77.09C419.673 77.486 420.087 78.002 420.351 78.638L419.199 79.25C419.031 78.77 418.749 78.398 418.353 78.134C417.969 77.87 417.489 77.738 416.913 77.738C416.493 77.738 416.115 77.81 415.779 77.954C415.455 78.086 415.179 78.278 414.951 78.53C414.723 78.782 414.549 79.082 414.429 79.43C414.321 79.778 414.267 80.156 414.267 80.564V82.148C414.267 82.556 414.321 82.934 414.429 83.282C414.549 83.63 414.723 83.93 414.951 84.182C415.179 84.434 415.461 84.632 415.797 84.776C416.133 84.908 416.517 84.974 416.949 84.974C417.573 84.974 418.089 84.83 418.497 84.542C418.905 84.254 419.229 83.858 419.469 83.354L420.495 84.056C420.219 84.68 419.787 85.196 419.199 85.604C418.623 86.012 417.867 86.216 416.931 86.216ZM423.386 84.776H426.104V77.936H423.386V76.712H427.544V79.052H427.634C427.826 78.32 428.186 77.75 428.714 77.342C429.254 76.922 429.938 76.712 430.766 76.712H432.062V78.152H430.316C429.488 78.152 428.816 78.392 428.3 78.872C427.796 79.352 427.544 79.982 427.544 80.762V84.776H431.144V86H423.386V84.776ZM438.355 86.216C437.683 86.216 437.077 86.102 436.537 85.874C436.009 85.646 435.553 85.322 435.169 84.902C434.797 84.47 434.509 83.96 434.305 83.372C434.101 82.772 433.999 82.106 433.999 81.374C433.999 80.63 434.101 79.958 434.305 79.358C434.521 78.758 434.815 78.248 435.187 77.828C435.559 77.396 436.003 77.066 436.519 76.838C437.047 76.61 437.629 76.496 438.265 76.496C438.889 76.496 439.453 76.61 439.957 76.838C440.473 77.066 440.911 77.384 441.271 77.792C441.631 78.188 441.907 78.662 442.099 79.214C442.291 79.766 442.387 80.372 442.387 81.032V81.716H435.511V82.148C435.511 82.556 435.577 82.934 435.709 83.282C435.841 83.63 436.027 83.93 436.267 84.182C436.519 84.434 436.819 84.632 437.167 84.776C437.527 84.908 437.923 84.974 438.355 84.974C438.979 84.974 439.519 84.83 439.975 84.542C440.431 84.254 440.779 83.858 441.019 83.354L442.081 84.074C441.805 84.698 441.343 85.214 440.695 85.622C440.059 86.018 439.279 86.216 438.355 86.216ZM438.265 77.684C437.869 77.684 437.503 77.756 437.167 77.9C436.831 78.044 436.537 78.242 436.285 78.494C436.045 78.746 435.853 79.046 435.709 79.394C435.577 79.73 435.511 80.102 435.511 80.51V80.636H440.839V80.438C440.839 80.03 440.773 79.658 440.641 79.322C440.521 78.986 440.347 78.698 440.119 78.458C439.903 78.206 439.633 78.014 439.309 77.882C438.997 77.75 438.649 77.684 438.265 77.684ZM452.496 86C451.932 86 451.53 85.856 451.29 85.568C451.05 85.28 450.9 84.92 450.84 84.488H450.75C450.546 85.028 450.216 85.454 449.76 85.766C449.316 86.066 448.716 86.216 447.96 86.216C446.988 86.216 446.214 85.964 445.638 85.46C445.062 84.956 444.774 84.266 444.774 83.39C444.774 82.526 445.086 81.86 445.71 81.392C446.346 80.924 447.366 80.69 448.77 80.69H450.75V79.772C450.75 79.088 450.558 78.578 450.174 78.242C449.79 77.894 449.244 77.72 448.536 77.72C447.912 77.72 447.402 77.846 447.006 78.098C446.61 78.338 446.292 78.668 446.052 79.088L445.08 78.368C445.2 78.128 445.362 77.894 445.566 77.666C445.77 77.438 446.022 77.24 446.322 77.072C446.622 76.892 446.964 76.754 447.348 76.658C447.732 76.55 448.158 76.496 448.626 76.496C449.718 76.496 450.582 76.772 451.218 77.324C451.866 77.876 452.19 78.644 452.19 79.628V84.74H453.486V86H452.496ZM448.212 85.01C448.584 85.01 448.92 84.968 449.22 84.884C449.532 84.788 449.802 84.668 450.03 84.524C450.258 84.368 450.432 84.188 450.552 83.984C450.684 83.768 450.75 83.54 450.75 83.3V81.77H448.77C447.906 81.77 447.276 81.89 446.88 82.13C446.484 82.37 446.286 82.718 446.286 83.174V83.552C446.286 84.032 446.454 84.398 446.79 84.65C447.138 84.89 447.612 85.01 448.212 85.01ZM460.229 86C459.521 86 458.999 85.802 458.663 85.406C458.339 85.01 458.177 84.5 458.177 83.876V77.936H455.081V76.712H457.385C457.697 76.712 457.913 76.652 458.033 76.532C458.165 76.4 458.231 76.178 458.231 75.866V73.436H459.617V76.712H463.847V77.936H459.617V84.776H463.847V86H460.229ZM471.148 74.66C470.728 74.66 470.434 74.576 470.266 74.408C470.098 74.228 470.014 74.006 470.014 73.742V73.454C470.014 73.19 470.098 72.974 470.266 72.806C470.434 72.626 470.728 72.536 471.148 72.536C471.568 72.536 471.862 72.626 472.03 72.806C472.198 72.974 472.282 73.19 472.282 73.454V73.742C472.282 74.006 472.198 74.228 472.03 74.408C471.862 74.576 471.568 74.66 471.148 74.66ZM467.08 84.776H470.428V77.936H467.08V76.712H471.868V84.776H475V86H467.08V84.776ZM481.365 86.216C480.717 86.216 480.129 86.102 479.601 85.874C479.085 85.646 478.641 85.322 478.269 84.902C477.909 84.47 477.633 83.96 477.441 83.372C477.249 82.772 477.153 82.1 477.153 81.356C477.153 80.624 477.249 79.958 477.441 79.358C477.633 78.758 477.909 78.248 478.269 77.828C478.641 77.396 479.085 77.066 479.601 76.838C480.129 76.61 480.717 76.496 481.365 76.496C482.013 76.496 482.595 76.61 483.111 76.838C483.639 77.066 484.083 77.396 484.443 77.828C484.815 78.248 485.097 78.758 485.289 79.358C485.481 79.958 485.577 80.624 485.577 81.356C485.577 82.1 485.481 82.772 485.289 83.372C485.097 83.96 484.815 84.47 484.443 84.902C484.083 85.322 483.639 85.646 483.111 85.874C482.595 86.102 482.013 86.216 481.365 86.216ZM481.365 84.974C482.169 84.974 482.817 84.734 483.309 84.254C483.801 83.774 484.047 83.03 484.047 82.022V80.69C484.047 79.682 483.801 78.938 483.309 78.458C482.817 77.978 482.169 77.738 481.365 77.738C480.561 77.738 479.913 77.978 479.421 78.458C478.929 78.938 478.683 79.682 478.683 80.69V82.022C478.683 83.03 478.929 83.774 479.421 84.254C479.913 84.734 480.561 84.974 481.365 84.974ZM488.522 86V76.712H489.962V78.224H490.034C490.13 77.996 490.25 77.78 490.394 77.576C490.538 77.36 490.712 77.174 490.916 77.018C491.132 76.862 491.384 76.736 491.672 76.64C491.96 76.544 492.296 76.496 492.68 76.496C493.652 76.496 494.432 76.808 495.02 77.432C495.608 78.044 495.902 78.914 495.902 80.042V86H494.462V80.294C494.462 79.442 494.276 78.812 493.904 78.404C493.532 77.984 492.986 77.774 492.266 77.774C491.978 77.774 491.696 77.81 491.42 77.882C491.144 77.954 490.898 78.062 490.682 78.206C490.466 78.35 490.292 78.536 490.16 78.764C490.028 78.992 489.962 79.256 489.962 79.556V86H488.522ZM406.264 109C405.556 109 405.034 108.802 404.698 108.406C404.374 108.01 404.212 107.5 404.212 106.876V100.936H401.116V99.712H403.42C403.732 99.712 403.948 99.652 404.068 99.532C404.2 99.4 404.266 99.178 404.266 98.866V96.436H405.652V99.712H409.882V100.936H405.652V107.776H409.882V109H406.264ZM416.607 109.216C415.959 109.216 415.371 109.102 414.843 108.874C414.327 108.646 413.883 108.322 413.511 107.902C413.151 107.47 412.875 106.96 412.683 106.372C412.491 105.772 412.395 105.1 412.395 104.356C412.395 103.624 412.491 102.958 412.683 102.358C412.875 101.758 413.151 101.248 413.511 100.828C413.883 100.396 414.327 100.066 414.843 99.838C415.371 99.61 415.959 99.496 416.607 99.496C417.255 99.496 417.837 99.61 418.353 99.838C418.881 100.066 419.325 100.396 419.685 100.828C420.057 101.248 420.339 101.758 420.531 102.358C420.723 102.958 420.819 103.624 420.819 104.356C420.819 105.1 420.723 105.772 420.531 106.372C420.339 106.96 420.057 107.47 419.685 107.902C419.325 108.322 418.881 108.646 418.353 108.874C417.837 109.102 417.255 109.216 416.607 109.216ZM416.607 107.974C417.411 107.974 418.059 107.734 418.551 107.254C419.043 106.774 419.289 106.03 419.289 105.022V103.69C419.289 102.682 419.043 101.938 418.551 101.458C418.059 100.978 417.411 100.738 416.607 100.738C415.803 100.738 415.155 100.978 414.663 101.458C414.171 101.938 413.925 102.682 413.925 103.69V105.022C413.925 106.03 414.171 106.774 414.663 107.254C415.155 107.734 415.803 107.974 416.607 107.974ZM427.4 109.216C426.752 109.216 426.164 109.102 425.636 108.874C425.12 108.646 424.676 108.322 424.304 107.902C423.944 107.47 423.668 106.96 423.476 106.372C423.284 105.772 423.188 105.1 423.188 104.356C423.188 103.624 423.284 102.958 423.476 102.358C423.668 101.758 423.944 101.248 424.304 100.828C424.676 100.396 425.12 100.066 425.636 99.838C426.164 99.61 426.752 99.496 427.4 99.496C428.048 99.496 428.63 99.61 429.146 99.838C429.674 100.066 430.118 100.396 430.478 100.828C430.85 101.248 431.132 101.758 431.324 102.358C431.516 102.958 431.612 103.624 431.612 104.356C431.612 105.1 431.516 105.772 431.324 106.372C431.132 106.96 430.85 107.47 430.478 107.902C430.118 108.322 429.674 108.646 429.146 108.874C428.63 109.102 428.048 109.216 427.4 109.216ZM427.4 107.974C428.204 107.974 428.852 107.734 429.344 107.254C429.836 106.774 430.082 106.03 430.082 105.022V103.69C430.082 102.682 429.836 101.938 429.344 101.458C428.852 100.978 428.204 100.738 427.4 100.738C426.596 100.738 425.948 100.978 425.456 101.458C424.964 101.938 424.718 102.682 424.718 103.69V105.022C424.718 106.03 424.964 106.774 425.456 107.254C425.948 107.734 426.596 107.974 427.4 107.974ZM434.233 107.776H437.473V96.904H434.233V95.68H438.913V107.776H442.153V109H434.233V107.776Z" fill="#F0F0F0"/>
<path d="M348.156 212.75V224H346.644V212.75H342.45V211.436H352.35V212.75H348.156ZM358.193 224.216C357.545 224.216 356.957 224.102 356.429 223.874C355.913 223.646 355.469 223.322 355.097 222.902C354.737 222.47 354.461 221.96 354.269 221.372C354.077 220.772 353.981 220.1 353.981 219.356C353.981 218.624 354.077 217.958 354.269 217.358C354.461 216.758 354.737 216.248 355.097 215.828C355.469 215.396 355.913 215.066 356.429 214.838C356.957 214.61 357.545 214.496 358.193 214.496C358.841 214.496 359.423 214.61 359.939 214.838C360.467 215.066 360.911 215.396 361.271 215.828C361.643 216.248 361.925 216.758 362.117 217.358C362.309 217.958 362.405 218.624 362.405 219.356C362.405 220.1 362.309 220.772 362.117 221.372C361.925 221.96 361.643 222.47 361.271 222.902C360.911 223.322 360.467 223.646 359.939 223.874C359.423 224.102 358.841 224.216 358.193 224.216ZM358.193 222.974C358.997 222.974 359.645 222.734 360.137 222.254C360.629 221.774 360.875 221.03 360.875 220.022V218.69C360.875 217.682 360.629 216.938 360.137 216.458C359.645 215.978 358.997 215.738 358.193 215.738C357.389 215.738 356.741 215.978 356.249 216.458C355.757 216.938 355.511 217.682 355.511 218.69V220.022C355.511 221.03 355.757 221.774 356.249 222.254C356.741 222.734 357.389 222.974 358.193 222.974ZM365.476 210.68H366.916V219.086H366.988L368.608 217.556L371.704 214.712H373.468L369.616 218.348L373.918 224H372.136L368.518 219.176L366.916 220.634V224H365.476V210.68ZM379.941 224.216C379.269 224.216 378.663 224.102 378.123 223.874C377.595 223.646 377.139 223.322 376.755 222.902C376.383 222.47 376.095 221.96 375.891 221.372C375.687 220.772 375.585 220.106 375.585 219.374C375.585 218.63 375.687 217.958 375.891 217.358C376.107 216.758 376.401 216.248 376.773 215.828C377.145 215.396 377.589 215.066 378.105 214.838C378.633 214.61 379.215 214.496 379.851 214.496C380.475 214.496 381.039 214.61 381.543 214.838C382.059 215.066 382.497 215.384 382.857 215.792C383.217 216.188 383.493 216.662 383.685 217.214C383.877 217.766 383.973 218.372 383.973 219.032V219.716H377.097V220.148C377.097 220.556 377.163 220.934 377.295 221.282C377.427 221.63 377.613 221.93 377.853 222.182C378.105 222.434 378.405 222.632 378.753 222.776C379.113 222.908 379.509 222.974 379.941 222.974C380.565 222.974 381.105 222.83 381.561 222.542C382.017 222.254 382.365 221.858 382.605 221.354L383.667 222.074C383.391 222.698 382.929 223.214 382.281 223.622C381.645 224.018 380.865 224.216 379.941 224.216ZM379.851 215.684C379.455 215.684 379.089 215.756 378.753 215.9C378.417 216.044 378.123 216.242 377.871 216.494C377.631 216.746 377.439 217.046 377.295 217.394C377.163 217.73 377.097 218.102 377.097 218.51V218.636H382.425V218.438C382.425 218.03 382.359 217.658 382.227 217.322C382.107 216.986 381.933 216.698 381.705 216.458C381.489 216.206 381.219 216.014 380.895 215.882C380.583 215.75 380.235 215.684 379.851 215.684ZM386.936 224V214.712H388.376V216.224H388.448C388.544 215.996 388.664 215.78 388.808 215.576C388.952 215.36 389.126 215.174 389.33 215.018C389.546 214.862 389.798 214.736 390.086 214.64C390.374 214.544 390.71 214.496 391.094 214.496C392.066 214.496 392.846 214.808 393.434 215.432C394.022 216.044 394.316 216.914 394.316 218.042V224H392.876V218.294C392.876 217.442 392.69 216.812 392.318 216.404C391.946 215.984 391.4 215.774 390.68 215.774C390.392 215.774 390.11 215.81 389.834 215.882C389.558 215.954 389.312 216.062 389.096 216.206C388.88 216.35 388.706 216.536 388.574 216.764C388.442 216.992 388.376 217.256 388.376 217.556V224H386.936ZM408.378 224V211.436H416.118V212.75H409.89V216.98H415.902V218.294H409.89V222.686H416.118V224H408.378ZM418.649 224L422.105 219.284L418.739 214.712H420.467L421.871 216.674L422.987 218.222H423.059L424.139 216.674L425.525 214.712H427.181L423.779 219.266L427.271 224H425.543L423.977 221.822L422.915 220.346H422.843L421.817 221.822L420.305 224H418.649ZM430.054 214.712H431.494V216.224H431.566C432.166 215.072 433.12 214.496 434.428 214.496C435.568 214.496 436.456 214.922 437.092 215.774C437.74 216.626 438.064 217.82 438.064 219.356C438.064 220.892 437.74 222.086 437.092 222.938C436.456 223.79 435.568 224.216 434.428 224.216C433.12 224.216 432.166 223.64 431.566 222.488H431.494V227.6H430.054V214.712ZM433.87 222.938C434.71 222.938 435.358 222.686 435.814 222.182C436.282 221.666 436.516 220.988 436.516 220.148V218.564C436.516 217.724 436.282 217.052 435.814 216.548C435.358 216.032 434.71 215.774 433.87 215.774C433.546 215.774 433.24 215.816 432.952 215.9C432.664 215.984 432.412 216.11 432.196 216.278C431.98 216.434 431.806 216.632 431.674 216.872C431.554 217.1 431.494 217.37 431.494 217.682V221.03C431.494 221.342 431.554 221.618 431.674 221.858C431.806 222.086 431.98 222.284 432.196 222.452C432.412 222.608 432.664 222.728 432.952 222.812C433.24 222.896 433.546 222.938 433.87 222.938ZM440.577 222.776H443.817V211.904H440.577V210.68H445.257V222.776H448.497V224H440.577V222.776ZM455.33 224.216C454.682 224.216 454.094 224.102 453.566 223.874C453.05 223.646 452.606 223.322 452.234 222.902C451.874 222.47 451.598 221.96 451.406 221.372C451.214 220.772 451.118 220.1 451.118 219.356C451.118 218.624 451.214 217.958 451.406 217.358C451.598 216.758 451.874 216.248 452.234 215.828C452.606 215.396 453.05 215.066 453.566 214.838C454.094 214.61 454.682 214.496 455.33 214.496C455.978 214.496 456.56 214.61 457.076 214.838C457.604 215.066 458.048 215.396 458.408 215.828C458.78 216.248 459.062 216.758 459.254 217.358C459.446 217.958 459.542 218.624 459.542 219.356C459.542 220.1 459.446 220.772 459.254 221.372C459.062 221.96 458.78 222.47 458.408 222.902C458.048 223.322 457.604 223.646 457.076 223.874C456.56 224.102 455.978 224.216 455.33 224.216ZM455.33 222.974C456.134 222.974 456.782 222.734 457.274 222.254C457.766 221.774 458.012 221.03 458.012 220.022V218.69C458.012 217.682 457.766 216.938 457.274 216.458C456.782 215.978 456.134 215.738 455.33 215.738C454.526 215.738 453.878 215.978 453.386 216.458C452.894 216.938 452.648 217.682 452.648 218.69V220.022C452.648 221.03 452.894 221.774 453.386 222.254C453.878 222.734 454.526 222.974 455.33 222.974ZM462.109 222.776H464.827V215.936H462.109V214.712H466.267V217.052H466.357C466.549 216.32 466.909 215.75 467.437 215.342C467.977 214.922 468.661 214.712 469.489 214.712H470.785V216.152H469.039C468.211 216.152 467.539 216.392 467.023 216.872C466.519 217.352 466.267 217.982 466.267 218.762V222.776H469.867V224H462.109V222.776ZM477.078 224.216C476.406 224.216 475.8 224.102 475.26 223.874C474.732 223.646 474.276 223.322 473.892 222.902C473.52 222.47 473.232 221.96 473.028 221.372C472.824 220.772 472.722 220.106 472.722 219.374C472.722 218.63 472.824 217.958 473.028 217.358C473.244 216.758 473.538 216.248 473.91 215.828C474.282 215.396 474.726 215.066 475.242 214.838C475.77 214.61 476.352 214.496 476.988 214.496C477.612 214.496 478.176 214.61 478.68 214.838C479.196 215.066 479.634 215.384 479.994 215.792C480.354 216.188 480.63 216.662 480.822 217.214C481.014 217.766 481.11 218.372 481.11 219.032V219.716H474.234V220.148C474.234 220.556 474.3 220.934 474.432 221.282C474.564 221.63 474.75 221.93 474.99 222.182C475.242 222.434 475.542 222.632 475.89 222.776C476.25 222.908 476.646 222.974 477.078 222.974C477.702 222.974 478.242 222.83 478.698 222.542C479.154 222.254 479.502 221.858 479.742 221.354L480.804 222.074C480.528 222.698 480.066 223.214 479.418 223.622C478.782 224.018 478.002 224.216 477.078 224.216ZM476.988 215.684C476.592 215.684 476.226 215.756 475.89 215.9C475.554 216.044 475.26 216.242 475.008 216.494C474.768 216.746 474.576 217.046 474.432 217.394C474.3 217.73 474.234 218.102 474.234 218.51V218.636H479.562V218.438C479.562 218.03 479.496 217.658 479.364 217.322C479.244 216.986 479.07 216.698 478.842 216.458C478.626 216.206 478.356 216.014 478.032 215.882C477.72 215.75 477.372 215.684 476.988 215.684ZM483.695 222.776H486.413V215.936H483.695V214.712H487.853V217.052H487.943C488.135 216.32 488.495 215.75 489.023 215.342C489.563 214.922 490.247 214.712 491.075 214.712H492.371V216.152H490.625C489.797 216.152 489.125 216.392 488.609 216.872C488.105 217.352 487.853 217.982 487.853 218.762V222.776H491.453V224H483.695V222.776Z" fill="#F0F0F0"/>
<path d="M82.8747 168.741H74.4407C71.344 168.739 68.8339 166.231 68.832 163.134C68.832 160.038 71.344 157.529 74.4407 157.528H82.8747" stroke="#F0F0F0" stroke-width="3.13" stroke-linecap="round" stroke-linejoin="round"/>
<path d="M75.3912 163.006H74.7419" stroke="#F0F0F0" stroke-width="3.13" stroke-linecap="round" stroke-linejoin="round"/>
<path fill-rule="evenodd" clip-rule="evenodd" d="M53.9326 145H71.9398C77.9776 145 82.8724 149.895 82.8724 155.933V170.885C82.8724 176.923 77.9776 181.817 71.9398 181.817H53.9326C47.8948 181.817 43 176.923 43 170.885V155.933C43 149.895 47.8948 145 53.9326 145Z" stroke="#F0F0F0" stroke-width="3.13" stroke-linecap="round" stroke-linejoin="round"/>
<path d="M52.4492 154.454H63.697" stroke="#F0F0F0" stroke-width="3.13" stroke-linecap="round" stroke-linejoin="round"/>
<path fill-rule="evenodd" clip-rule="evenodd" d="M72.9589 9.12907C72.4231 3.99954 68.0649 8.99958e-05 62.768 8.99958e-05C60.0494 -0.0112941 57.4321 1.05778 55.5012 2.97096C53.825 4.63169 52.786 6.80972 52.5409 9.12907H52.5388C48.8276 9.12907 45.7095 11.8398 44.8336 16.5466L43.2484 28.7758C41.8991 37.7304 46.1101 41.6666 54.3516 41.6666H71.2209C78.8423 41.6666 83.3976 37.2298 82.4623 29.2672L80.8258 16.6285C79.7767 11.8632 76.7389 9.12907 73.1076 9.12907H72.9589ZM69.904 9.12907C69.3863 5.66983 66.388 3.01619 62.7616 3.01618C60.8427 3.00816 58.9997 3.76097 57.64 5.10817C56.536 6.20199 55.8246 7.61451 55.596 9.12907H69.904ZM52.5374 12.1452H73.1061C75.2357 12.1452 77.1066 13.8291 77.841 17.1457L79.3902 29.1611C80.3121 35.5536 77.2434 38.6506 71.2194 38.6506H54.3501C47.8272 38.6506 45.1947 36.1899 46.2489 29.192L47.8255 17.0138C48.428 13.7894 50.3192 12.1452 52.5374 12.1452ZM68.7608 17.7427C69.5979 17.7427 70.2764 18.4179 70.2764 19.2507C70.2764 20.0142 69.7063 20.6452 68.9665 20.745L68.7608 20.7588H68.6683C67.8313 20.7588 67.1527 20.0836 67.1527 19.2507C67.1527 18.4873 67.7229 17.8563 68.4627 17.7564L68.6683 17.7427H68.7608ZM58.4952 19.2507C58.4952 18.4179 57.8166 17.7427 56.9796 17.7427H56.8871L56.6814 17.7564C55.9417 17.8563 55.3715 18.4873 55.3715 19.2507C55.3715 20.0836 56.05 20.7588 56.8871 20.7588H56.9796L57.1852 20.745C57.925 20.6452 58.4952 20.0142 58.4952 19.2507Z" fill="#F0F0F0"/>
<path fill-rule="evenodd" clip-rule="evenodd" d="M230.99 145.308C230.377 144.852 229.506 144.902 228.95 145.46L220.455 153.995L220.304 154.171C219.852 154.783 219.904 155.651 220.46 156.205L220.636 156.356C221.249 156.808 222.116 156.756 222.67 156.2L228.496 150.345V174.933L228.51 175.145C228.614 175.908 229.268 176.496 230.059 176.496C230.922 176.496 231.621 175.796 231.621 174.933V150.347L237.446 156.2L237.621 156.351C238.231 156.806 239.1 156.758 239.656 156.205C240.267 155.596 240.269 154.607 239.661 153.995L231.182 145.477C231.123 145.416 231.059 145.36 230.991 145.309L230.99 145.308ZM252.29 152.005C252.187 151.242 251.533 150.654 250.742 150.654C249.879 150.654 249.18 151.354 249.18 152.217V176.804L243.353 170.951L243.179 170.8C242.568 170.344 241.7 170.393 241.144 170.946C240.532 171.555 240.53 172.544 241.139 173.156L249.634 181.691L249.65 181.705C249.695 181.748 249.742 181.789 249.792 181.828L249.81 181.843C250.422 182.299 251.294 182.249 251.849 181.691L260.344 173.156L260.495 172.98C260.948 172.368 260.895 171.5 260.339 170.946C259.728 170.338 258.738 170.34 258.129 170.951L252.305 176.801V152.217L252.29 152.005Z" fill="#F0F0F0"/>
<path fill-rule="evenodd" clip-rule="evenodd" d="M415.325 145H408.996C405.57 145 402.797 147.797 402.797 151.241V157.624C402.797 161.067 405.57 163.865 408.996 163.865H415.325C418.751 163.865 421.524 161.067 421.524 157.624V151.241C421.524 147.797 418.752 145 415.325 145ZM408.996 147.907H415.324C417.14 147.907 418.617 149.397 418.617 151.241V157.624C418.617 159.467 417.139 160.958 415.324 160.958H408.996C407.181 160.958 405.703 159.467 405.703 157.624V151.241C405.703 149.397 407.18 147.907 408.996 147.907ZM438.264 145H431.934C428.507 145 425.734 147.797 425.734 151.241V157.624C425.734 161.067 428.508 163.865 431.934 163.865H438.264C441.689 163.865 444.462 161.066 444.462 157.624V151.241C444.462 147.797 441.69 145 438.264 145ZM431.933 147.907H438.264C440.078 147.907 441.554 149.397 441.554 151.241V157.624C441.554 159.467 440.077 160.958 438.264 160.958H431.933C430.118 160.958 428.641 159.467 428.641 157.624V151.241C428.641 149.397 430.117 147.907 431.933 147.907ZM408.996 167.802H415.325C418.752 167.802 421.524 170.599 421.524 174.044V180.426C421.524 183.87 418.752 186.667 415.325 186.667H408.996C405.57 186.667 402.797 183.87 402.797 180.426V174.044C402.797 170.599 405.569 167.802 408.996 167.802ZM415.324 170.709H408.996C407.18 170.709 405.703 172.199 405.703 174.044V180.426C405.703 182.27 407.18 183.76 408.996 183.76H415.324C417.14 183.76 418.617 182.27 418.617 180.426V174.044C418.617 172.199 417.14 170.709 415.324 170.709ZM438.264 167.802H431.934C428.507 167.802 425.734 170.599 425.734 174.044V180.426C425.734 183.87 428.507 186.667 431.934 186.667H438.264C441.69 186.667 444.462 183.869 444.462 180.426V174.044C444.462 170.599 441.69 167.802 438.264 167.802ZM431.933 170.709H438.264C440.078 170.709 441.554 172.199 441.554 174.044V180.426C441.554 182.27 440.078 183.76 438.264 183.76H431.933C430.117 183.76 428.641 182.27 428.641 180.426V174.044C428.641 172.199 430.117 170.709 431.933 170.709Z" fill="#F0F0F0"/>
<path fill-rule="evenodd" clip-rule="evenodd" d="M411.301 5.69836C403.652 8.16104 400.24 16.5117 402.804 24.478C404.106 28.2292 406.222 31.6008 409.003 34.367C412.817 38.0717 417.008 41.3319 421.513 44.1021L422.024 44.4084C422.514 44.7017 423.127 44.6965 423.612 44.3951L424.09 44.0983C428.588 41.3319 432.779 38.0717 436.581 34.3798C439.374 31.6008 441.491 28.2292 442.781 24.5106C445.355 16.5165 441.929 8.16191 434.278 5.69848L433.724 5.53365C430.216 4.56877 426.488 5.04421 423.345 6.82348L422.787 7.15462L422.238 6.82533C418.923 4.9445 414.962 4.52074 411.301 5.69836ZM421.49 9.94629L421.9 10.2403C422.44 10.6272 423.169 10.6195 423.701 10.2213C426.472 8.1469 430.058 7.54327 433.343 8.59716C439.271 10.5058 441.969 17.0852 439.889 23.5457C438.761 26.7952 436.894 29.7698 434.442 32.2093L433.342 33.2543C430.378 36.0086 427.173 38.5019 423.77 40.6991L422.795 41.3121L423.093 41.4996C418.794 38.8558 414.779 35.733 411.138 32.1964C408.699 29.7698 406.832 26.7952 405.693 23.5131C403.622 17.0791 406.308 10.5043 412.233 8.59668C415.362 7.59028 418.773 8.08925 421.49 9.94629ZM430.859 13.3409C430.058 13.0851 429.2 13.5269 428.944 14.3279C428.688 15.1288 429.13 15.9855 429.932 16.2414C431.507 16.7443 432.631 18.1624 432.771 19.8351C432.842 20.673 433.579 21.2951 434.417 21.2247C435.256 21.1542 435.879 20.4179 435.808 19.5801C435.564 16.6844 433.612 14.2196 430.859 13.3409Z" fill="#F0F0F0"/>
<path fill-rule="evenodd" clip-rule="evenodd" d="M250.852 15.2121H259.667C259.667 8.13457 255.426 4 248.241 4H229.426C222.241 4 218 8.13457 218 15.1218V30.3782C218 37.3654 222.241 41.5 229.426 41.5H248.241C255.426 41.5 259.667 37.3654 259.667 30.3782V29.7282H250.852C246.761 29.7282 243.444 26.4948 243.444 22.5063C243.444 18.5177 246.761 15.2843 250.852 15.2843V15.2121ZM250.852 18.3175H258.111C258.97 18.3175 259.667 18.9965 259.667 19.8341V25.1062C259.657 25.9397 258.966 26.613 258.111 26.6228H251.019C248.947 26.6499 247.136 25.2674 246.667 23.3007C246.431 22.0798 246.762 20.8199 247.569 19.8588C248.376 18.8976 249.578 18.3335 250.852 18.3175ZM251.167 23.8604H251.852C252.731 23.8604 253.444 23.1652 253.444 22.3077C253.444 21.4501 252.731 20.7549 251.852 20.7549H251.167C250.746 20.7501 250.341 20.9097 250.042 21.198C249.742 21.4863 249.574 21.8794 249.574 22.2896C249.574 23.1501 250.284 23.8505 251.167 23.8604ZM227.87 15.2121H239.63C240.509 15.2121 241.222 14.5169 241.222 13.6594C241.222 12.8018 240.509 12.1066 239.63 12.1066H227.87C226.998 12.1066 226.288 12.7908 226.278 13.6413C226.278 14.5018 226.988 15.2022 227.87 15.2121Z" fill="#F0F0F0"/>
</svg>
