<svg width="176" height="106" viewBox="0 0 176 106" fill="none" xmlns="http://www.w3.org/2000/svg">
<ellipse rx="24.996" ry="25" transform="matrix(1 0 0.000161611 1 151 25)" fill="#DEDEDE"/>
<ellipse cx="151.001" cy="25" rx="21.9697" ry="21.9697" fill="#13182A"/>
<ellipse cx="150.969" cy="14.6858" rx="4.08421" ry="4.07841" fill="#DEDEDE"/>
<path d="M144.842 15.2296L157.094 13.1904" stroke="#DEDEDE"/>
<ellipse cx="151.479" cy="26.4112" rx="1.53158" ry="1.5294" fill="#DEDEDE"/>
<ellipse cx="165.772" cy="16.2159" rx="0.510526" ry="0.509802" fill="#DEDEDE"/>
<ellipse cx="163.138" cy="27.6211" rx="0.238002" ry="0.238249" fill="#DEDEDE"/>
<ellipse cx="133.152" cy="25.2382" rx="0.238002" ry="0.238249" fill="#DEDEDE"/>
<ellipse cx="147.429" cy="7.13132" rx="0.238002" ry="0.238249" fill="#DEDEDE"/>
<ellipse cx="153.142" cy="36.6738" rx="0.238002" ry="0.238249" fill="#DEDEDE"/>
<ellipse cx="148.415" cy="42.7256" rx="0.510526" ry="0.509802" fill="#DEDEDE"/>
<ellipse cx="163.22" cy="37.1173" rx="2.0421" ry="2.03921" fill="#DEDEDE"/>
<ellipse cx="139.168" cy="34.1348" rx="1.02105" ry="1.0196" fill="#DEDEDE"/>
<ellipse cx="139.738" cy="18.7647" rx="1.02105" ry="1.0196" fill="#DEDEDE"/>
<line x1="1.46051" y1="104.663" x2="120.651" y2="46.5396" stroke="#DEDEDE" stroke-width="2" stroke-linecap="round"/>
<line x1="24.518" y1="74.684" x2="107.714" y2="38.4822" stroke="#DEDEDE" stroke-width="2" stroke-linecap="round"/>
<line x1="82.4028" y1="81.1195" x2="131.351" y2="54.5972" stroke="#DEDEDE" stroke-width="2" stroke-linecap="round"/>
</svg>
