<svg width="1423" height="990" viewBox="0 0 1423 990" fill="none" xmlns="http://www.w3.org/2000/svg">
<path fill-rule="evenodd" clip-rule="evenodd" d="M203.115 735.092C200.412 736.207 197.777 737.629 195.256 739.365C176.717 752.136 171.423 777.099 183.432 795.123C195.441 813.147 220.205 817.406 238.744 804.635C240.582 803.369 242.289 801.984 243.863 800.497L203.115 735.092ZM246.027 798.297C246.809 797.441 247.552 796.558 248.254 795.651L208.629 733.26C207.744 733.486 206.864 733.743 205.988 734.03L246.027 798.297ZM250.138 793.014C249.938 793.319 249.733 793.621 249.524 793.921L210.699 732.789C211.053 732.718 211.407 732.652 211.762 732.591L250.138 793.014ZM250.732 792.085C252.025 790.002 253.125 787.824 254.025 785.581L220.01 732.024C217.631 731.942 215.23 732.072 212.838 732.42L250.732 792.085ZM250.568 748.877C257.221 758.862 258.564 770.978 255.285 781.97L223.758 732.331C234.384 733.712 244.245 739.386 250.568 748.877Z" fill="url(#paint0_linear)" fill-opacity="0.59"/>
<ellipse rx="33.6887" ry="32.5048" transform="matrix(0.998151 -0.0607827 0.0653095 0.997865 1237.75 304.483)" fill="url(#paint1_linear)"/>
<path d="M1270.88 302.466C1272.03 320.087 1258.15 335.304 1239.84 336.419C1221.53 337.535 1205.78 324.122 1204.62 306.5C1203.47 288.879 1217.35 273.662 1235.66 272.546C1253.97 271.431 1269.72 284.844 1270.88 302.466Z" stroke="#B8BCDD" stroke-opacity="0.5"/>
<path d="M759.117 76.0504C942.317 96.905 1102.81 162.694 1214.2 252.176C1325.59 341.662 1387.81 454.789 1374.66 570.343C1361.51 685.897 1275.45 782.144 1146.79 844.304C1018.14 906.462 846.97 934.496 663.77 913.641C480.57 892.786 320.077 826.997 208.69 737.516C97.2976 648.029 35.0728 534.902 48.2269 419.348C61.3809 303.795 147.44 207.548 276.095 145.387C404.743 83.2298 575.917 55.1959 759.117 76.0504Z" stroke="#F0F0F0" stroke-opacity="0.2"/>
<path d="M787.615 95.7544C938.562 112.937 1070.85 166.701 1162.7 239.709C1254.55 312.722 1305.91 404.925 1295.2 499.008C1284.49 593.091 1213.73 671.391 1107.81 721.891C1001.9 772.386 860.914 795.043 709.967 777.86C559.02 760.677 426.737 706.913 334.885 633.905C243.028 560.892 191.667 468.689 202.377 374.606C213.087 280.523 283.857 202.223 389.774 151.724C495.685 101.228 636.668 78.5713 787.615 95.7544Z" stroke="#F0F0F0" stroke-opacity="0.2"/>
<defs>
<linearGradient id="paint0_linear" x1="217" y1="732" x2="217" y2="812" gradientUnits="userSpaceOnUse">
<stop stop-color="#687BF7"/>
<stop offset="1" stop-color="#2D40B9" stop-opacity="0.49"/>
</linearGradient>
<linearGradient id="paint1_linear" x1="33.6887" y1="0" x2="33.6887" y2="65.0097" gradientUnits="userSpaceOnUse">
<stop stop-color="#E7E5C6"/>
<stop offset="1" stop-color="#FFFEEB" stop-opacity="0"/>
</linearGradient>
</defs>
</svg>
