<svg width="274" height="243" viewBox="0 0 274 243" fill="none" xmlns="http://www.w3.org/2000/svg">
<circle cx="218" cy="51" r="75" fill="url(#paint0_linear)" fill-opacity="0.7"/>
<ellipse rx="20.0542" ry="19.5639" transform="matrix(0.998713 -0.0507248 0.0492398 0.998787 102.91 146.558)" fill="#DEDEDE"/>
<ellipse rx="17.6262" ry="17.1925" transform="matrix(0.998713 -0.0507248 0.0490738 0.998795 102.91 146.558)" fill="#13182A"/>
<ellipse rx="3.27675" ry="3.19158" transform="matrix(0.998713 -0.0507248 0.0490738 0.998795 102.488 138.498)" fill="#DEDEDE"/>
<path d="M97.6017 139.172L107.341 137.079" stroke="#DEDEDE" stroke-opacity="0.7"/>
<ellipse rx="1.22878" ry="1.19684" transform="matrix(0.998713 -0.0507248 0.0490738 0.998795 103.346 147.642)" fill="#DEDEDE"/>
<ellipse rx="0.409593" ry="0.398947" transform="matrix(0.998713 -0.0507248 0.0490738 0.998795 114.411 139.091)" fill="#DEDEDE"/>
<ellipse rx="0.190948" ry="0.186442" transform="matrix(0.998713 -0.0507248 0.0490738 0.998795 112.737 148.112)" fill="#DEDEDE"/>
<ellipse rx="0.190948" ry="0.186442" transform="matrix(0.998713 -0.0507248 0.0490738 0.998795 88.6178 147.47)" fill="#DEDEDE"/>
<ellipse rx="0.190948" ry="0.186442" transform="matrix(0.998713 -0.0507248 0.0490738 0.998795 99.3639 132.737)" fill="#DEDEDE"/>
<ellipse rx="0.190948" ry="0.186442" transform="matrix(0.998713 -0.0507248 0.0490738 0.998795 105.075 155.595)" fill="#DEDEDE"/>
<ellipse rx="0.409593" ry="0.398947" transform="matrix(0.998713 -0.0507248 0.0490738 0.998795 101.52 160.517)" fill="#DEDEDE"/>
<ellipse rx="1.63837" ry="1.59579" transform="matrix(0.998713 -0.0507248 0.0490738 0.998795 113.166 155.532)" fill="#DEDEDE"/>
<ellipse rx="0.819187" ry="0.797894" transform="matrix(0.998713 -0.0507248 0.0490738 0.998795 93.7811 154.18)" fill="#DEDEDE"/>
<ellipse rx="0.819187" ry="0.797894" transform="matrix(0.998713 -0.0507248 0.0490738 0.998795 93.6464 142.142)" fill="#DEDEDE"/>
<path d="M71.3533 150.041C56.9729 149.179 42.8041 153.527 29.2332 157.848C27.2297 158.486 -1.21894 171.774 1.7286 175.035C2.12665 175.475 5.65457 173.829 6.0929 173.667C14.5234 170.559 23.5766 169.738 32.3516 168.089C32.7934 168.006 43.8615 165.784 43.7573 167.382C43.625 169.41 34.7765 175.251 33.2513 176.766C30.2551 179.742 27.7663 181.896 25.7956 185.579C24.2364 188.492 36.3606 184.303 38.4523 183.794C42.9288 182.705 48.6017 180.151 53.2478 180.429C55.7939 180.582 48.4363 190.433 47.9876 191.162C47.6004 191.79 41.8011 200.169 42.0247 200.183C54.2764 200.917 82.0822 174.488 88.6276 166.099" stroke="white" stroke-opacity="0.7" stroke-width="3" stroke-linecap="round" stroke-linejoin="round"/>
<circle cx="263" cy="213" r="30" fill="url(#paint1_linear)" fill-opacity="0.7"/>
<path fill-rule="evenodd" clip-rule="evenodd" d="M40.3492 -48.4196C36.7236 -46.986 33.1897 -45.115 29.8202 -42.7939C6.64616 -26.8306 0.0287242 4.3743 15.0397 26.9042C30.0507 49.434 61.0058 54.7573 84.1798 38.7939C86.6938 37.0622 89.0129 35.1511 91.1307 33.0912L40.3492 -48.4196ZM93.2825 30.8723C94.2608 29.8025 95.1893 28.6989 96.067 27.5651L46.535 -50.4241C45.4295 -50.1419 44.3284 -49.8214 43.2338 -49.4622L93.2825 30.8723ZM98.4204 24.271C98.0717 24.8011 97.7127 25.3259 97.3436 25.8451L48.5984 -50.9054C49.2143 -51.0356 49.8313 -51.1541 50.449 -51.2609L98.4204 24.271ZM99.0163 23.3442C100.697 20.6692 102.121 17.8667 103.28 14.9776L60.7609 -51.9703C57.6966 -52.076 54.6037 -51.8999 51.523 -51.4349L99.0163 23.3442ZM98.9603 -30.9042C107.467 -18.1361 109.028 -2.58178 104.565 11.4055L64.4849 -51.7018C78.133 -50.2 90.8651 -43.0541 98.9603 -30.9042Z" fill="url(#paint2_linear)" fill-opacity="0.59"/>
<path d="M171.326 77.7796C189.303 76.8944 207.28 76.0092 183.06 56.0334C158.84 36.0575 156.126 34.5257 153.022 45.3822C149.918 56.2387 153.349 78.6648 171.326 77.7796Z" fill="#181F36" stroke="#FBB74D" stroke-opacity="0.8" stroke-width="0.5"/>
<path d="M252.357 90.2089C235.822 101.26 219.287 112.311 235.775 110.158C252.263 108.006 254.303 107.34 260.086 98.9915C265.868 90.6435 268.891 79.1581 252.357 90.2089Z" fill="#161D32" stroke="#FBB74D" stroke-opacity="0.8" stroke-width="0.5"/>
<path d="M214.805 88.3959C209.909 98.7114 204.978 93.69 182.345 89.0866C159.711 84.4832 187.636 110.59 207.36 114.595C227.084 118.599 219.7 78.0803 214.805 88.3959Z" fill="#161D32" stroke="#FBB74D" stroke-opacity="0.8" stroke-width="0.5"/>
<defs>
<linearGradient id="paint0_linear" x1="218" y1="-24" x2="218" y2="126" gradientUnits="userSpaceOnUse">
<stop stop-color="#FBB64E"/>
<stop offset="1" stop-color="#FF768A" stop-opacity="0"/>
</linearGradient>
<linearGradient id="paint1_linear" x1="263" y1="183" x2="263" y2="243" gradientUnits="userSpaceOnUse">
<stop stop-color="#CE395F"/>
<stop offset="1" stop-color="#FDA4BB" stop-opacity="0"/>
</linearGradient>
<linearGradient id="paint2_linear" x1="57" y1="-52" x2="57" y2="48" gradientUnits="userSpaceOnUse">
<stop stop-color="#687BF7"/>
<stop offset="1" stop-color="#2D40B9" stop-opacity="0.49"/>
</linearGradient>
</defs>
</svg>
