<svg width="70" height="70" viewBox="0 0 70 70" fill="none" xmlns="http://www.w3.org/2000/svg">
<g clip-path="url(#clip0_30_43076)">
<path d="M5.00053e-05 34.9669C-0.01563 44.2495 3.65682 53.1581 10.2095 59.7329C16.7622 66.3078 25.6584 70.0103 34.9409 70.026C44.2235 70.0417 53.1321 66.3692 59.707 59.8165C66.2818 53.2639 69.9844 44.3677 70.0001 35.0851V34.8203C69.9989 32.128 69.6814 29.4452 69.0541 26.827C68.7983 25.8868 68.1876 25.0826 67.3505 24.5839C66.5134 24.0851 65.5155 23.9308 64.5669 24.1534C63.6183 24.376 62.7931 24.9581 62.2653 25.7771C61.7374 26.5961 61.5481 27.5881 61.7372 28.5439V28.5439C63.1524 34.376 62.6235 40.5108 60.2311 46.0147C57.8386 51.5186 53.7136 56.0902 48.4837 59.0338C43.2539 61.9775 37.2055 63.1319 31.2591 62.3216C25.3127 61.5112 19.7938 58.7804 15.5423 54.5447C11.2908 50.309 8.53948 44.8003 7.707 38.857C6.87452 32.9136 8.00649 26.861 10.9306 21.6202C13.8548 16.3795 18.411 12.2374 23.9059 9.82453C29.4009 7.41161 35.5336 6.8599 41.371 8.25336C42.3386 8.47916 43.3563 8.31226 44.2012 7.78923C45.046 7.26619 45.6491 6.42965 45.8784 5.46282C45.9949 4.98629 46.0156 4.49136 45.9392 4.00678C45.8628 3.52219 45.6909 3.05761 45.4335 2.64002C45.1761 2.22242 44.8383 1.86013 44.4397 1.57418C44.0411 1.28823 43.5896 1.08433 43.1115 0.974311C38.6453 -0.0990011 34.0113 -0.281583 29.4745 0.437002C24.9377 1.15559 20.5869 2.76125 16.671 5.16221C12.7551 7.56316 9.3507 10.7123 6.65251 14.4297C3.95431 18.1471 2.01519 22.3598 0.945996 26.827C0.320236 29.4952 0.00284293 32.2263 5.00053e-05 34.9669V34.9669Z" fill="url(#paint0_linear_30_43076)"/>
<path d="M52.7746 9.20873C52.7131 9.27022 52.6847 9.33171 52.6516 9.36009C51.7898 10.2748 51.2602 11.4524 51.1476 12.704V13.3047C51.1476 13.456 51.1192 13.5743 51.1192 13.7256C50.9908 15.0478 50.6026 16.3316 49.9768 17.5033C49.351 18.6751 48.4999 19.7117 47.4725 20.5537C46.445 21.3957 45.2614 22.0265 43.9896 22.4098C42.7177 22.7932 41.3827 22.9217 40.0611 22.7878C39.6154 22.7489 39.1729 22.6793 38.7367 22.5797C38.4799 22.5263 38.227 22.4552 37.98 22.3668C36.9077 22.0963 35.803 21.9753 34.6976 22.0074C31.4736 22.0704 28.3845 23.3122 26.0138 25.4979C25.8955 25.6162 25.7442 25.7108 25.6212 25.8574C24.3238 27.056 23.2818 28.5043 22.5576 30.1154C21.8334 31.7265 21.442 33.4673 21.4069 35.2333C21.3717 36.9993 21.6936 38.7542 22.353 40.3929C23.0125 42.0315 23.9961 43.5201 25.2448 44.7695C26.4935 46.0188 27.9816 47.0031 29.6199 47.6634C31.2582 48.3237 33.0129 48.6464 34.779 48.6122C36.545 48.5779 38.2859 48.1874 39.8974 47.4641C41.5089 46.7407 42.9577 45.6995 44.157 44.4027C44.6992 43.8552 45.1929 43.2617 45.6327 42.629C46.6904 41.1075 47.4146 39.3797 47.7577 37.5587C48.1009 35.7378 48.0553 33.8649 47.6239 32.0628C47.5491 31.8252 47.4876 31.5836 47.4394 31.3391C47.4394 31.306 47.4111 31.2777 47.4111 31.2162C47.11 29.921 47.0677 28.5791 47.2866 27.2676C47.5054 25.956 47.9812 24.7006 48.6865 23.5734C49.3919 22.4461 50.3129 21.4693 51.3967 20.699C52.4805 19.9287 53.7058 19.38 55.0023 19.0844C55.4676 18.9703 55.9427 18.9006 56.4212 18.8763L56.6293 18.8432C56.8397 18.8196 57.0514 18.8101 57.2631 18.8148H57.3246C58.6321 18.6894 59.8557 18.1144 60.7867 17.1878C60.9996 16.9466 61.2124 16.7148 61.3921 16.4641C61.8231 15.8607 62.13 15.1777 62.2951 14.4548C62.4602 13.7319 62.4802 12.9833 62.354 12.2526C62.2277 11.5219 61.9577 10.8235 61.5596 10.1979C61.1615 9.57231 60.6432 9.03192 60.0347 8.60806C58.9464 7.84049 57.6228 7.48008 56.2956 7.58989C54.9683 7.6997 53.722 8.27274 52.7746 9.20873Z" fill="url(#paint1_linear_30_43076)"/>
</g>
<defs>
<linearGradient id="paint0_linear_30_43076" x1="61.0656" y1="9.27499" x2="9.03857" y2="60.5926" gradientUnits="userSpaceOnUse">
<stop offset="0.09" stop-color="#00EDD3"/>
<stop offset="0.41" stop-color="#1B456E"/>
</linearGradient>
<linearGradient id="paint1_linear_30_43076" x1="61.08" y1="8.58441" x2="24.6611" y2="45.4763" gradientUnits="userSpaceOnUse">
<stop offset="0.4" stop-color="#00EDD3"/>
<stop offset="0.89" stop-color="#1B456E"/>
</linearGradient>
<clipPath id="clip0_30_43076">
<rect width="70" height="70" fill="white"/>
</clipPath>
</defs>
</svg>
