<svg width="150" height="151" viewBox="0 0 150 151" fill="none" xmlns="http://www.w3.org/2000/svg">
<g clip-path="url(#clip0_30_43076)">
<path d="M0.000107154 75.6083C-0.0334929 95.4995 7.83605 114.589 21.8775 128.678C35.919 142.767 54.9822 150.701 74.8734 150.735C94.7646 150.769 113.855 142.899 127.944 128.858C142.033 114.816 149.966 95.7529 150 75.8616V75.2941C149.998 69.5249 149.317 63.7761 147.973 58.1657C147.425 56.151 146.116 54.4277 144.322 53.359C142.529 52.2902 140.39 51.9595 138.358 52.4365C136.325 52.9135 134.557 54.1609 133.426 55.9159C132.294 57.6709 131.889 59.7965 132.294 61.8447C135.327 74.3422 134.193 87.4881 129.067 99.2822C123.94 111.076 115.101 120.872 103.894 127.18C92.6869 133.488 79.7261 135.962 66.9838 134.226C54.2415 132.489 42.4153 126.637 33.305 117.561C24.1946 108.484 18.2989 96.68 16.515 83.9442C14.7311 71.2085 17.1568 58.2386 23.4228 47.0083C29.6888 35.7781 39.4521 26.9023 51.227 21.7318C63.0018 16.5612 76.1435 15.379 88.6521 18.365C90.7257 18.8489 92.9064 18.4912 94.7168 17.3704C96.5272 16.2496 97.8196 14.457 98.3109 12.3853C98.5606 11.3641 98.6048 10.3036 98.4412 9.26519C98.2775 8.22679 97.9092 7.23126 97.3575 6.33641C96.8059 5.44156 96.082 4.66522 95.2278 4.05247C94.3737 3.43973 93.4063 3.00279 92.3819 2.76704C82.8114 0.467089 72.8814 0.0758422 63.1597 1.61567C53.4379 3.15549 44.1149 6.5962 35.7236 11.7411C27.3323 16.886 20.0372 23.6342 14.2554 31.6001C8.47353 39.5659 4.31827 48.5931 2.02713 58.1657C0.68622 63.8832 0.00609199 69.7357 0.000107154 75.6083Z" fill="url(#paint0_linear_30_43076)"/>
<path d="M113.088 20.4122C112.956 20.544 112.896 20.6757 112.825 20.7366C110.978 22.6966 109.843 25.22 109.602 27.9021V29.1893C109.602 29.5136 109.541 29.767 109.541 30.0913C109.266 32.9245 108.434 35.6755 107.093 38.1863C105.752 40.6972 103.928 42.9185 101.727 44.7228C99.525 46.5271 96.9886 47.8788 94.2633 48.7003C91.5379 49.5219 88.677 49.7971 85.845 49.5102C84.89 49.4268 83.9418 49.2778 83.0072 49.0643C82.4567 48.9499 81.9149 48.7975 81.3856 48.6082C79.0877 48.0284 76.7207 47.7692 74.3518 47.8379C67.4434 47.973 60.8237 50.6339 55.7437 55.3176C55.4903 55.571 55.166 55.7737 54.9025 56.0879C52.1223 58.6564 49.8894 61.7599 48.3376 65.2123C46.7858 68.6646 45.9471 72.3948 45.8718 76.1791C45.7965 79.9634 46.486 83.724 47.8992 87.2354C49.3124 90.7468 51.42 93.9366 54.0958 96.6138C56.7716 99.2909 59.9604 101.4 63.471 102.815C66.9817 104.23 70.7419 104.922 74.5262 104.848C78.3106 104.775 82.0412 103.938 85.4943 102.388C88.9475 100.838 92.0521 98.6067 94.622 95.8278C95.7839 94.6546 96.8419 93.3829 97.7842 92.0271C100.051 88.7668 101.602 85.0643 102.338 81.1622C103.073 77.2602 102.975 73.2468 102.051 69.3852C101.891 68.876 101.759 68.3583 101.656 67.8345C101.656 67.7636 101.595 67.7028 101.595 67.571C100.95 64.7957 100.859 61.9202 101.328 59.1097C101.797 56.2992 102.817 53.609 104.328 51.1936C105.84 48.7781 107.813 46.685 110.136 45.0342C112.458 43.3835 115.084 42.2077 117.862 41.5744C118.859 41.3298 119.877 41.1805 120.902 41.1285L121.348 41.0575C121.799 41.0069 122.253 40.9865 122.706 40.9967H122.838C125.64 40.7281 128.262 39.4959 130.257 37.5102C130.713 36.9933 131.169 36.4967 131.554 35.9595C132.478 34.6664 133.136 33.2029 133.489 31.6538C133.843 30.1046 133.886 28.5007 133.615 26.9349C133.345 25.3691 132.766 23.8725 131.913 22.5319C131.06 21.1913 129.95 20.0334 128.646 19.1251C126.314 17.4803 123.477 16.708 120.633 16.9433C117.789 17.1786 115.118 18.4065 113.088 20.4122Z" fill="url(#paint1_linear_30_43076)"/>
</g>
<defs>
<linearGradient id="paint0_linear_30_43076" x1="130.855" y1="20.5542" x2="19.3684" y2="130.52" gradientUnits="userSpaceOnUse">
<stop offset="0.09" stop-color="#00EDD3"/>
<stop offset="0.41" stop-color="#1B456E"/>
</linearGradient>
<linearGradient id="paint1_linear_30_43076" x1="130.886" y1="19.0744" x2="52.845" y2="98.1284" gradientUnits="userSpaceOnUse">
<stop offset="0.4" stop-color="#00EDD3"/>
<stop offset="0.89" stop-color="#1B456E"/>
</linearGradient>
<clipPath id="clip0_30_43076">
<rect width="150" height="150" fill="white" transform="translate(0 0.679199)"/>
</clipPath>
</defs>
</svg>
