<svg width="72" height="69" viewBox="0 0 72 69" fill="none" xmlns="http://www.w3.org/2000/svg">
<path d="M35.3722 12.6551C36.7585 13.9519 35.0592 15.0698 33.74 15.1593C32.7115 15.3381 31.5935 15.2934 30.6768 15.8524C29.7601 16.3443 29.2682 17.7306 28.0832 17.6411C27.4571 17.5964 26.7416 17.1939 26.8087 16.4785C26.2945 15.8524 26.7864 14.891 26.9429 14.1978C27.5466 12.275 28.8434 11.3359 30.8557 11.716C32.3761 11.9172 34.1425 11.5818 35.3722 12.6551Z" fill="url(#paint0_linear_233_16867)"/>
<path d="M30.6544 40.0447C31.3028 40.7826 31.4146 41.8558 31.1463 42.7725C30.8556 44.2035 29.447 45.2544 27.9937 45.165C27.2558 45.1426 26.6521 44.6954 25.959 44.4718C23.9243 44.4942 23.8572 47.535 20.8611 47.3114C19.7879 47.0878 18.5134 46.7524 17.865 45.791C17.5967 45.0532 17.6861 44.1812 17.239 43.488C16.9036 42.9514 16.2328 42.8173 15.7856 42.3924C14.69 41.3639 14.3994 39.6199 14.9807 38.256C15.6068 36.3331 16.9036 34.7009 18.6029 33.6053C19.2736 33.1805 20.0562 32.9346 20.5257 32.2638C20.7941 31.8837 20.6599 31.3694 20.7046 30.9446C20.7046 30.6092 20.727 30.2515 20.7717 29.9161C20.9729 27.9932 22.471 26.1151 24.5057 26.0703C25.5565 25.9809 26.585 26.4057 27.2335 27.233C27.6806 27.7249 28.2173 28.1497 28.4632 28.7758C28.7092 29.4465 28.888 30.1844 28.6868 30.8999C29.4694 31.4365 28.3514 32.2191 28.1949 32.8004C28.0384 33.2699 28.016 33.6277 28.1055 34.0972C28.1725 34.8127 28.2396 35.5282 28.329 36.2213C28.4856 37.0933 28.8657 37.9206 29.3799 38.6361C29.7377 39.1951 30.2296 39.5976 30.6544 40.0447Z" fill="url(#paint1_linear_233_16867)"/>
<path d="M54.4894 33.2254C55.3167 31.3025 56.4123 29.3125 55.9428 27.1661V27.1884C55.7415 26.0705 55.0484 25.1538 54.5118 24.1476C54.4671 24.5724 54.3776 24.9973 54.2211 25.3997C53.7069 27.0096 52.0299 27.2108 50.5766 26.9425C49.8387 26.8083 49.2574 26.2941 48.6761 25.8693C47.9829 25.3103 47.2451 24.7513 46.5296 24.2594C46.2166 24.0582 45.9259 23.7899 45.5682 23.6781C44.4055 23.4768 43.2205 24.1029 42.3485 24.8407C42.3485 24.8407 42.3261 24.8407 42.3261 24.8631C41.4317 25.668 40.2467 26.2494 38.9946 26.0481C37.7425 25.8693 36.401 25.6457 35.4619 24.6842C34.411 23.5663 33.6284 22.1129 33.6284 20.5702C33.5614 19.251 33.6955 17.7306 34.8358 16.8586C35.4172 16.4337 36.1327 16.2996 36.8034 16.0313C38.3462 15.4947 39.889 14.8015 40.9622 13.5271C40.6045 13.7283 40.1573 13.4153 40.1796 13.0352C40.2467 12.4985 40.515 11.9843 40.7833 11.5147C40.8728 11.3359 40.9846 11.157 41.1187 11.0228C40.4256 10.7993 39.7325 10.5086 39.4418 10.4415C37.5413 9.77074 35.6184 9.1894 33.6284 8.89874C31.5938 8.65279 29.2014 8.27268 27.3903 9.50243C24.3271 11.1346 26.563 13.773 24.3718 15.2711C21.9123 16.4785 20.2577 13.3482 18.1113 12.6774C15.9201 12.1184 15.0034 13.5718 14.7798 15.5394C14.7351 16.1878 14.7798 16.8362 14.8245 17.4846C15.1152 17.3057 15.4505 17.2387 15.853 17.3505C17.5299 17.7529 19.7882 18.4908 20.0565 20.4584C19.9224 22.9849 18.5361 25.8469 15.9648 26.6518C15.1152 26.8754 14.355 27.1661 13.7513 27.8368C12.6333 28.843 11.9849 31.7497 10.0173 30.6988C9.4136 30.3411 9.16765 29.7597 9.12294 29.1337H9.10058C9.0335 29.1337 9.01114 29.1113 8.96642 29.0666C8.94406 29.2008 8.9217 29.3349 8.89935 29.4467C8.85463 29.8044 8.85463 30.1846 8.85463 30.5423C8.85463 30.8553 8.87699 31.1907 8.87699 31.5037C8.87699 31.6155 8.87699 31.7273 8.87699 31.772C8.87699 31.9956 8.89935 32.2192 8.92171 32.4205C8.94406 32.5099 8.96642 32.577 8.98878 32.6664C9.05586 32.89 9.1453 33.1136 9.25709 33.3148C9.36889 33.5384 9.48068 33.7844 9.57012 34.0079C9.68191 34.2986 9.77135 34.5893 9.86078 34.8799C9.9055 35.0141 9.92786 35.1483 9.95022 35.2824C9.99494 35.4389 10.0173 35.6178 10.0397 35.7743C10.1067 36.1097 10.1515 36.4227 10.1291 36.7581C10.1291 36.8923 10.1067 37.0264 10.0844 37.1606C10.0844 37.25 10.062 37.3171 10.062 37.4065C10.0173 37.7195 9.95022 38.0326 9.9055 38.368C9.83843 38.6586 9.77135 38.9493 9.72663 39.24C9.70427 39.4859 9.70427 39.7319 9.70427 40.0002C9.70427 40.112 9.70427 40.2014 9.70427 40.2908C9.70427 40.4697 9.72663 40.6486 9.74899 40.8275C9.77135 41.0287 9.79371 41.2076 9.81607 41.4088C9.88314 41.8113 9.97258 42.2361 10.062 42.6385C10.1515 43.0857 10.2632 43.5329 10.3974 43.9577C10.4421 44.1142 10.5092 44.2931 10.5539 44.4496C10.621 44.6732 10.7104 44.8744 10.7775 45.0757C10.9117 45.4334 11.0905 45.7912 11.2247 46.1489C11.3141 46.3278 11.3812 46.5067 11.4706 46.6855C11.5154 46.775 11.5601 46.8644 11.6048 46.9538C11.6495 47.0433 11.7166 47.1327 11.7613 47.2221C11.8284 47.3339 11.9178 47.4457 11.9849 47.5352C12.052 47.6246 12.119 47.714 12.1861 47.8035L12.2085 47.8258C12.2979 47.9153 12.365 48.0047 12.4544 48.1165C12.6333 48.3401 12.8345 48.5637 13.0358 48.7649C13.1476 48.8767 13.237 48.9885 13.3488 49.1003C13.4382 49.1897 13.5277 49.2792 13.6171 49.3686C13.7065 49.4357 13.7736 49.5028 13.8631 49.5698C13.9301 49.6369 14.0196 49.6816 14.109 49.7487C14.5562 50.0617 15.0257 50.33 15.5176 50.6207C15.9872 50.8667 16.4567 51.0679 16.9039 51.3138C17.1498 51.448 17.3958 51.6045 17.6194 51.7387C17.843 51.8952 18.0666 52.0517 18.2231 52.1635C18.3125 52.2306 18.4019 52.2976 18.4914 52.3647C18.5137 52.3871 18.5585 52.4094 18.5585 52.4094C18.5808 52.4094 18.5808 52.4318 18.6032 52.4318C18.6032 52.4318 18.6032 52.4318 18.6255 52.4542C18.6479 52.4542 18.6479 52.4765 18.6702 52.4765C18.6926 52.4765 18.6926 52.4989 18.6926 52.4989C18.8491 52.6107 18.9833 52.7001 19.1398 52.7895C19.2069 52.8119 19.2516 52.8566 19.3187 52.879C19.6317 52.9908 19.9447 53.0802 20.2577 53.1696C20.4366 53.2144 20.5931 53.2367 20.7496 53.2814C20.9061 53.3038 21.0627 53.3262 21.1745 53.3485C21.1968 53.3485 21.2415 53.3485 21.2639 53.3485C21.3086 53.3485 21.331 53.3485 21.3757 53.3709C21.5098 53.3932 21.6216 53.3932 21.7558 53.3932C21.9347 53.4156 22.1135 53.4156 22.27 53.438C22.4266 53.4603 22.5831 53.505 22.7396 53.5274C22.8961 53.5721 23.0526 53.5945 23.2091 53.6392C23.4774 53.7063 23.7681 53.7957 24.0364 53.8851C24.1706 53.9299 24.3271 53.9746 24.4612 54.0417C24.6177 54.1087 24.7743 54.1982 24.9308 54.2652C25.0873 54.3547 25.2438 54.4218 25.4227 54.5112C25.6015 54.6006 25.8028 54.6901 26.004 54.7795C26.3618 54.936 26.6748 55.1372 27.0102 55.3161C27.2561 55.4503 27.5021 55.5621 27.7257 55.6962C27.9492 55.808 28.1505 55.9422 28.3741 56.054C28.5306 56.121 28.6871 56.2105 28.8436 56.2776C28.9107 56.2999 28.9554 56.3223 29.0225 56.3446C28.866 56.1881 28.7318 56.0316 28.5977 55.8751C27.2338 54.1758 28.1058 52.0293 29.5144 50.6878C29.492 50.7102 29.492 50.7325 29.4697 50.7325C30.8783 49.2568 32.5776 48.0494 34.5004 47.401C35.5737 47.0656 36.8258 47.2221 37.7649 46.4843C38.1673 46.1936 38.3015 45.7017 38.3686 45.2322C38.4356 44.5614 38.458 43.8683 38.6369 43.2199C38.9723 41.4312 40.8504 40.2461 42.6168 40.6709C43.7794 40.8275 44.6738 41.61 45.68 42.1243C46.9544 42.6162 47.9159 40.9169 48.7879 40.2238C49.4139 39.7542 49.727 38.9493 50.4424 38.5916C50.5766 38.2785 50.912 38.0326 51.2474 38.0102C51.5827 37.9879 51.8734 38.1444 52.1864 38.1891C52.656 38.3009 52.969 38.6139 53.1479 39.0164C53.215 38.6363 53.282 38.2562 53.3044 37.8984C53.4385 36.3109 53.8634 34.7458 54.4894 33.2254ZM56.5241 25.8022C57.5079 27.7698 57.0831 30.0951 56.2111 31.9956C55.4509 33.6502 54.7577 35.2377 54.4894 37.0488C54.3776 37.6301 54.3329 38.2114 54.2658 38.7928C54.1764 39.5306 53.9528 40.2461 53.8634 40.9616C53.7516 41.6995 53.8857 43.2422 53.4609 44.0919C53.4386 44.2484 53.3938 44.4049 53.3491 44.5838C53.0361 45.8135 52.4324 46.9538 51.8287 48.0494C50.8449 49.7934 49.6375 52.007 47.4463 52.2976C45.2775 52.4542 43.064 52.7225 41.1411 53.7957C39.017 54.9584 36.2444 57.798 33.7179 58.1557C33.4272 58.3569 33.0918 58.5135 32.7341 58.4464C32.4434 58.4017 32.0633 58.2899 31.9515 58.0439C31.8621 58.0216 31.7726 57.9992 31.6832 57.9768C31.5714 58.0663 31.4373 58.1334 31.3031 58.1334C31.2584 58.1334 31.1913 58.1334 31.1466 58.111C30.7888 57.9992 30.4311 57.8874 30.0734 57.798C29.9616 57.7756 29.8498 57.7533 29.738 57.7309C29.6038 57.7085 29.4473 57.6862 29.3131 57.6415C29.0448 57.5744 28.7765 57.4849 28.5306 57.3955C28.2623 57.2837 27.994 57.1719 27.7257 57.0154C27.4797 56.8813 27.2338 56.7471 27.0325 56.6129C26.876 56.5235 26.7195 56.4564 26.563 56.3894C26.3841 56.2999 26.2052 56.1881 26.0711 56.121C25.8028 55.9869 25.5345 55.8304 25.2662 55.7186C24.9755 55.5844 24.6848 55.4503 24.4836 55.3385L24.4165 55.3161C24.3718 55.2938 24.3271 55.2714 24.3271 55.2714C24.26 55.2267 24.1706 55.2043 24.1035 55.1596C23.5892 54.9584 23.075 54.8242 22.5607 54.6901C22.3595 54.6453 22.1806 54.6006 21.9794 54.5783C21.398 54.5336 20.8167 54.5112 20.2577 54.377C19.9671 54.31 19.654 54.2205 19.3634 54.1311C19.1845 54.064 19.0056 54.0193 18.8491 53.9522C18.6255 53.8628 18.4243 53.7286 18.2454 53.5945C18.2231 53.5721 18.1783 53.5498 18.156 53.5274C17.9771 53.3932 17.8206 53.2591 17.6417 53.1473C17.2169 52.8343 16.7697 52.5883 16.3225 52.32C16.1213 52.2082 15.8977 52.0964 15.6965 52.007C15.4729 51.8952 15.2493 51.8057 15.0481 51.694C15.0481 51.694 15.0481 51.694 15.0257 51.694C15.0034 51.694 15.0034 51.6716 14.981 51.6716C14.6903 51.5151 14.3997 51.3586 14.109 51.1797C13.9525 51.0903 13.796 50.9785 13.6395 50.8667C13.4829 50.7549 13.3264 50.6431 13.1923 50.5313C13.0581 50.4418 12.9463 50.3301 12.8345 50.2183C12.7004 50.0841 12.5662 49.9499 12.4321 49.8158C12.2085 49.5922 12.0073 49.3463 11.7837 49.1003C11.7166 49.0332 11.6719 48.9661 11.6495 48.9438C11.5377 48.8096 11.4036 48.6531 11.2918 48.519C11.2247 48.4519 11.1576 48.3625 11.1129 48.2954C11.0458 48.2283 11.0011 48.1389 10.934 48.0494C10.8222 47.8929 10.7328 47.714 10.621 47.5575C10.5763 47.4905 10.5539 47.4234 10.5092 47.3563C10.4645 47.2669 10.4198 47.1998 10.4198 47.1774C10.3974 47.1551 10.3974 47.1327 10.3974 47.1103C10.3527 46.9986 10.308 46.9091 10.2856 46.8644C10.1291 46.529 9.99494 46.1936 9.86078 45.8582C9.72663 45.5452 9.61484 45.2322 9.50304 44.9192C9.39124 44.5838 9.30181 44.2484 9.19001 43.913C9.14529 43.7565 9.10058 43.5776 9.07822 43.4211C9.0335 43.2646 9.01114 43.1081 8.96642 42.9292C8.89935 42.6162 8.83227 42.3032 8.78755 42.0348C8.74283 41.8336 8.72047 41.61 8.69811 41.4088C8.67576 41.2523 8.6534 41.0734 8.6534 40.9169C8.63104 40.738 8.63104 40.5591 8.63104 40.4026C8.63104 40.2238 8.63104 40.0225 8.63104 39.8437C8.63104 39.5083 8.67576 39.1729 8.74283 38.8599C8.80991 38.5468 8.87699 38.2114 8.94406 37.8761C8.96642 37.7195 9.01114 37.5407 9.0335 37.3842C9.05586 37.25 9.07822 37.1159 9.07822 37.0041C9.07822 36.9146 9.10058 36.8028 9.10058 36.7134C9.10058 36.5792 9.07822 36.4451 9.05586 36.3109C9.01114 36.0873 8.98878 35.8637 8.94406 35.6178C8.89935 35.3942 8.85463 35.1706 8.78755 34.9694C8.74283 34.8352 8.69811 34.7011 8.6534 34.5669C8.58632 34.4104 8.5416 34.2539 8.47452 34.075C8.42981 33.9409 8.36273 33.8067 8.31801 33.6726C8.22857 33.449 8.1615 33.2254 8.09442 33.0018C8.02734 32.7111 8.02734 32.4205 8.02734 32.1298C8.02734 31.9509 8.0497 31.772 8.07206 31.6155C8.09442 31.2578 8.13914 30.9224 8.1615 30.6094C8.18386 30.4529 8.20622 30.2963 8.22857 30.1398C8.25093 29.961 8.29565 29.7821 8.34037 29.6032C8.38509 29.4467 8.42981 29.3125 8.49688 29.1784C8.56396 29.0442 8.6534 28.9324 8.80991 28.8654C8.87699 28.843 8.96642 28.843 9.01114 28.8877C9.05586 28.9324 9.05586 28.9772 9.07822 29.0219C9.07822 29.0219 9.07822 29.0219 9.07822 29.0442C9.10058 29.0442 9.10058 29.0442 9.10058 29.0442C9.10058 28.8206 9.10058 28.5971 9.1453 28.3735C9.19001 27.5238 9.50304 26.6965 9.88314 25.9363C10.2409 25.1761 10.8446 24.5277 11.4706 24.0135C12.2756 23.365 13.2146 22.739 13.4606 21.6658C13.5947 21.0397 13.5277 20.4136 13.6618 19.7876C13.7289 19.3851 13.8407 18.9156 14.0196 18.4908C13.9972 18.4684 13.9748 18.4684 13.9525 18.4461C13.8407 18.3566 13.7736 18.2225 13.7513 18.0883C13.6842 17.5517 13.6618 17.0151 13.6395 16.5008C13.4829 14.3991 14.5338 11.47 16.9933 11.47C17.5076 11.47 18.0218 11.4924 18.5137 11.6489C19.2069 11.8725 19.8329 12.3197 20.4366 12.7221C21.0627 13.214 21.644 13.7954 22.3818 14.1531C23.7905 14.9133 24.5507 14.0413 24.4836 12.6103C24.573 10.2179 25.691 9.07761 27.7033 8.04909C29.7156 7.26653 31.9515 7.49012 34.0309 7.8255C36.8258 8.25033 39.4418 9.34592 42.0131 10.4862C42.4603 10.3968 42.9298 10.4862 43.3993 10.7993C43.9136 11.157 44.3161 11.6489 44.7409 12.0961C45.3893 12.9457 46.2166 13.6165 47.0439 14.2873C47.4687 14.6674 47.8935 15.0475 48.3407 15.3829C49.8835 16.5008 51.6275 17.4846 52.7901 19.0274C53.4386 19.8547 53.9752 20.8385 54.2658 21.867C54.3776 21.8893 54.4223 22.0682 54.4671 22.1577C54.5118 22.2918 54.5565 22.426 54.6012 22.5378C54.6236 22.5825 54.5565 22.6272 54.5341 22.6048C55.1155 23.7228 55.9875 24.6619 56.5241 25.8022Z" fill="url(#paint2_linear_233_16867)"/>
<path d="M50.4643 33.1138C51.0233 34.3212 50.7103 36.2888 49.1675 36.49C48.6085 36.5795 48.0272 36.4677 47.58 36.1323C46.2161 34.992 46.2385 32.6443 46.708 31.0568C46.395 30.6767 46.7751 30.0953 47.2446 30.1848C47.6024 29.8941 48.0272 30.0953 48.2955 30.4084C48.7874 30.5872 49.1675 30.945 49.4582 31.3922C49.8383 31.9288 50.2184 32.4878 50.4643 33.1138Z" fill="url(#paint3_linear_233_16867)"/>
<path d="M31.1463 42.7952C31.4147 41.8784 31.3029 40.8052 30.6545 40.0674C30.2296 39.5978 29.7601 39.1954 29.3353 38.7258C28.821 38.0103 28.4633 37.1607 28.2844 36.311C28.1726 35.5956 28.1279 34.8801 28.0608 34.1869C27.9714 33.7174 28.0161 33.3597 28.1502 32.8901C28.3291 32.3088 29.4247 31.5262 28.6421 30.9896C28.8434 30.2741 28.6645 29.5586 28.4185 28.8655C28.1726 28.2394 27.636 27.8146 27.1888 27.3227C26.5404 26.4731 25.5119 26.0482 24.461 26.16C22.4263 26.2048 20.9283 28.0829 20.727 30.0058C20.6823 30.3412 20.6823 30.6766 20.66 31.0343C20.6152 31.4815 20.7494 31.9734 20.4811 32.3535C20.0115 33.0019 19.2066 33.2702 18.5582 33.695C16.8589 34.7683 15.5845 36.4228 14.936 38.3457C14.3547 39.7096 14.6454 41.4536 15.741 42.4821C16.1882 42.907 16.8589 43.0411 17.1943 43.5777C17.6639 44.2709 17.5744 45.1205 17.8204 45.8807C18.4688 46.8422 19.7432 47.1775 20.8165 47.4011C23.8126 47.6247 23.8797 44.5839 25.9143 44.5615C26.6075 44.7628 27.2112 45.2323 27.949 45.2547C29.4471 45.277 30.8557 44.2261 31.1463 42.7952ZM33.74 15.1594C35.0368 15.07 36.7585 13.952 35.3722 12.6552C34.1425 11.5819 32.3761 11.9173 30.878 11.7385C28.8434 11.3584 27.5689 12.2974 26.9652 14.2203C26.8087 14.9134 26.2944 15.8749 26.8311 16.5009C26.764 17.2164 27.4795 17.5965 28.1055 17.6636C29.2682 17.753 29.7601 16.3668 30.6992 15.8749C31.5935 15.2935 32.7115 15.3383 33.74 15.1594ZM49.1677 36.4676C50.7329 36.2663 51.0235 34.3211 50.4646 33.0913C50.2186 32.4653 49.8161 31.9063 49.4584 31.3473C49.1677 30.9225 48.7876 30.5424 48.2957 30.3635C48.0274 30.0729 47.6026 29.8493 47.2449 30.14C46.7753 30.0505 46.3952 30.6318 46.7082 31.012C46.2387 32.5994 46.2163 34.9471 47.5802 36.0875C48.0274 36.4676 48.6088 36.5794 49.1677 36.4676ZM55.9425 27.1662C56.4121 29.3127 55.3165 31.325 54.4892 33.2255C53.8631 34.7459 53.4383 36.311 53.2818 37.9433C53.2594 38.3234 53.1924 38.7035 53.1253 39.0612C52.9241 38.6811 52.6334 38.3681 52.1638 38.2339C51.8508 38.1892 51.5378 38.0327 51.2248 38.0551C50.8894 38.0774 50.554 38.301 50.4198 38.6364C49.7043 38.9941 49.3913 39.7767 48.7653 40.2686C47.9156 40.9841 46.9542 42.6834 45.6574 42.1691C44.6512 41.6325 43.7568 40.8723 42.5942 40.7158C40.8278 40.291 38.972 41.4983 38.6143 43.2647C38.4354 43.9131 38.413 44.6063 38.346 45.277C38.3012 45.7466 38.1671 46.2608 37.7423 46.5291C36.8032 47.2446 35.5511 47.0881 34.4778 47.4458C32.555 48.1166 30.8333 49.3017 29.4471 50.7773C29.4694 50.755 29.4694 50.7326 29.4918 50.7326C28.0832 52.0742 27.2112 54.2206 28.5751 55.9199C28.7092 56.0764 28.8434 56.233 28.9999 56.3895C28.9552 56.3671 28.8881 56.3447 28.821 56.3224C28.6645 56.2553 28.508 56.1882 28.3515 56.0988C28.1279 55.9646 27.9266 55.8528 27.7031 55.7411C27.4571 55.6069 27.2335 55.4951 26.9876 55.361C26.6745 55.1821 26.3392 54.9808 25.9814 54.8243C25.8025 54.7349 25.6013 54.6455 25.4001 54.556C25.2436 54.4889 25.0871 54.3995 24.9082 54.3101C24.7517 54.2206 24.5952 54.1312 24.4386 54.0865C24.3045 54.0418 24.148 53.9747 24.0138 53.93C23.7455 53.8405 23.4548 53.7511 23.1865 53.684C23.03 53.6393 22.8735 53.5946 22.717 53.5722C22.5605 53.5275 22.404 53.5051 22.2475 53.4828C22.0686 53.4604 21.8897 53.4381 21.7332 53.4381C21.599 53.4381 21.4872 53.4157 21.3531 53.4157C21.3084 53.4157 21.286 53.4157 21.2413 53.3934C21.2189 53.3934 21.1742 53.3934 21.1519 53.3934C21.0401 53.371 20.8836 53.3486 20.727 53.3263C20.5482 53.3039 20.3917 53.2592 20.2351 53.2145C19.9221 53.125 19.6091 53.0356 19.2961 52.9238C19.229 52.9015 19.1843 52.8791 19.1172 52.8344C18.9607 52.7449 18.8042 52.6331 18.67 52.5437L18.6476 52.5213C18.6476 52.5213 18.6253 52.499 18.6029 52.499C18.6029 52.499 18.6029 52.499 18.5806 52.4766C18.5582 52.4766 18.5582 52.4543 18.5359 52.4543C18.5359 52.4543 18.4911 52.4319 18.4688 52.4096C18.3793 52.3425 18.2899 52.2754 18.2005 52.2083C18.044 52.0965 17.8204 51.9177 17.5968 51.7835C17.3508 51.627 17.1272 51.4928 16.8813 51.3587C16.4341 51.0904 15.9422 50.9115 15.495 50.6656C15.0255 50.3972 14.5336 50.1066 14.0864 49.7935C13.997 49.7265 13.9299 49.6818 13.8405 49.6147C13.751 49.5476 13.6839 49.4805 13.5945 49.4134C13.5051 49.324 13.4156 49.2346 13.3262 49.1451C13.2144 49.0333 13.125 48.9215 13.0132 48.8098C12.8119 48.5862 12.6331 48.3849 12.4318 48.1613C12.3648 48.0719 12.2753 47.9825 12.1859 47.8707L12.1635 47.8483C12.0965 47.7589 12.0294 47.6694 11.9623 47.58C11.8952 47.4682 11.8058 47.3564 11.7387 47.267C11.694 47.1775 11.6269 47.0881 11.5822 46.9987C11.5375 46.9092 11.4928 46.8198 11.448 46.7304C11.3586 46.5515 11.2692 46.3726 11.2021 46.1937C11.0679 45.836 10.8891 45.4783 10.7549 45.1205C10.6655 44.9193 10.5984 44.6957 10.5313 44.4945C10.4642 44.3379 10.4195 44.1591 10.3748 44.0026C10.2407 43.5554 10.1512 43.1306 10.0394 42.6834C9.94998 42.2809 9.86055 41.8561 9.79347 41.4536C9.77111 41.2524 9.74875 41.0735 9.72639 40.8723C9.70403 40.6934 9.68167 40.5145 9.68167 40.3357C9.68167 40.2462 9.68167 40.1344 9.68167 40.045C9.68167 39.7991 9.68167 39.5531 9.70403 39.2848C9.74875 38.9941 9.81583 38.7035 9.88291 38.4128C9.94998 38.0998 9.9947 37.7867 10.0394 37.4514C10.0618 37.3619 10.0618 37.2948 10.0618 37.2054C10.0841 37.0713 10.0841 36.9371 10.1065 36.8029C10.1065 36.4676 10.0618 36.1322 10.0171 35.8191C9.9947 35.6403 9.94998 35.4838 9.92762 35.3272C9.90527 35.1931 9.86055 35.0589 9.83819 34.9248C9.74875 34.6341 9.65932 34.3435 9.54752 34.0528C9.45808 33.8068 9.34629 33.5832 9.23449 33.3597C9.14506 33.1361 9.03326 32.9348 8.96619 32.7112C8.94383 32.6218 8.92147 32.5547 8.89911 32.4653C8.87675 32.2417 8.85439 32.0405 8.85439 31.8169C8.85439 31.7722 8.85439 31.6604 8.85439 31.5486C8.85439 31.2355 8.83203 30.9002 8.83203 30.5871C8.83203 30.2294 8.83203 29.8493 8.87675 29.4915C8.89911 29.3797 8.92147 29.2456 8.94383 29.1114C8.98854 29.1562 9.0109 29.1785 9.07798 29.1785H9.10034C9.14506 29.8046 9.39101 30.3859 9.9947 30.7436C11.9623 31.7945 12.6107 28.8878 13.7287 27.8817C14.3324 27.2333 15.0926 26.9202 15.9422 26.6967C18.5135 25.8917 19.8998 23.0298 20.0339 20.5032C19.788 18.5356 17.5073 17.7978 15.8304 17.3953C15.4279 17.2835 15.0926 17.3506 14.8019 17.5295C14.7572 16.881 14.7125 16.2326 14.7572 15.5842C15.0031 13.6166 15.9198 12.1633 18.0887 12.7223C20.2351 13.393 21.8897 16.5233 24.4163 15.2712C26.6075 13.7731 24.3492 11.1348 27.4347 9.50255C29.2235 8.27281 31.6159 8.65291 33.6729 8.89886C35.6629 9.18953 37.5858 9.77086 39.4863 10.4416C39.7769 10.5087 40.4701 10.7994 41.1632 11.023C41.029 11.1571 40.9172 11.3136 40.8278 11.5149C40.5595 11.9844 40.2912 12.4987 40.2241 13.0353C40.2018 13.4377 40.6489 13.7284 41.0067 13.5272C39.9334 14.8016 38.413 15.5171 36.8479 16.0314C36.1995 16.2997 35.4616 16.4339 34.8803 16.8587C33.74 17.7307 33.6058 19.2511 33.6729 20.5703C33.6729 22.1131 34.4555 23.5888 35.5064 24.6843C36.4231 25.6458 37.7646 25.8694 39.0391 26.0482C40.2688 26.2495 41.4539 25.6681 42.3706 24.8632C42.3706 24.8632 42.3929 24.8632 42.3929 24.8409C43.2649 24.1254 44.4276 23.477 45.6126 23.6782C45.9704 23.8123 46.2611 24.0583 46.5741 24.2595C47.2896 24.7514 48.0274 25.3328 48.7205 25.8694C49.3019 26.2942 49.8832 26.8085 50.6211 26.9426C52.0744 27.1886 53.7513 27.0097 54.2656 25.3998C54.4221 24.9974 54.5115 24.5725 54.5563 24.1477C55.0705 25.1315 55.7636 26.0706 55.9872 27.1886C55.9425 27.1886 55.9425 27.1662 55.9425 27.1662Z" fill="url(#paint4_linear_233_16867)"/>
<path d="M38.4582 14.1531C39.8444 15.4499 38.1451 16.5679 36.8259 16.6573C35.7974 16.8362 34.6795 16.7915 33.7628 17.3505C32.846 17.8424 32.3541 19.2286 31.1691 19.1392C30.5431 19.0945 29.8276 18.692 29.8946 17.9765C29.3804 17.3505 29.8723 16.389 30.0288 15.6959C30.6325 13.773 31.9293 12.8339 33.9416 13.214C35.462 13.4153 37.2284 13.1022 38.4582 14.1531Z" fill="url(#paint5_linear_233_16867)"/>
<path d="M33.7403 41.5652C34.3887 42.3031 34.5005 43.3763 34.2322 44.293C33.9416 45.724 32.5329 46.7749 31.0796 46.6855C30.3418 46.6631 29.7381 46.2159 29.0449 45.9923C27.0103 46.0147 26.9432 49.0555 23.9471 48.8319C22.8738 48.6083 21.5994 48.273 20.951 47.3115C20.6826 46.5737 20.7721 45.7017 20.3249 45.0085C19.9895 44.4719 19.3187 44.3378 18.8716 43.9129C17.776 42.8844 17.4853 41.1404 18.0666 39.7765C18.6927 37.8536 19.9895 36.2214 21.6888 35.1258C22.3596 34.701 23.1421 34.4551 23.6117 33.7843C23.88 33.4042 23.7458 32.8899 23.7906 32.4651C23.7906 32.1297 23.8129 31.772 23.8576 31.4366C24.0589 29.5137 25.5569 27.6356 27.5916 27.5908C28.6425 27.5014 29.671 27.9262 30.3418 28.7535C30.7889 29.2454 31.3256 29.6702 31.5715 30.2963C31.8175 30.9671 31.9963 31.7049 31.7951 32.4204C32.5777 32.957 31.4597 33.7396 31.3032 34.3209C31.1467 34.7905 31.1243 35.1482 31.2138 35.6177C31.2808 36.3332 31.3479 37.0487 31.4373 37.7418C31.5939 38.6138 31.974 39.4411 32.4882 40.1566C32.8236 40.6932 33.3155 41.0957 33.7403 41.5652Z" fill="url(#paint6_linear_233_16867)"/>
<path d="M57.5754 34.7458C58.4026 32.8229 59.4982 30.8329 59.0287 28.6865V28.7088C58.8275 27.5909 58.1343 26.6742 57.5977 25.668C57.553 26.0928 57.4636 26.5177 57.3071 26.9201C56.7928 28.53 55.1159 28.7312 53.6625 28.4629C52.9247 28.3287 52.3433 27.8145 51.762 27.3897C51.0689 26.8307 50.331 26.2717 49.6155 25.7798C49.3025 25.5786 49.0119 25.3103 48.6541 25.1985C47.4914 24.9972 46.3064 25.6233 45.4344 26.3611C45.4344 26.3611 45.412 26.3611 45.412 26.3835C44.5177 27.1884 43.3327 27.7698 42.0805 27.5685C40.8284 27.3897 39.4869 27.1661 38.5478 26.2046C37.4969 25.0867 36.7144 23.6333 36.7144 22.0906C36.6473 20.7714 36.7815 19.251 37.9218 18.379C38.5031 17.9541 39.2186 17.82 39.8894 17.5517C41.4321 17.0151 42.9749 16.3219 44.0481 15.0475C43.6904 15.2487 43.2432 14.9357 43.2656 14.5556C43.3327 14.0189 43.601 13.5047 43.8693 13.0352C43.9587 12.8563 44.0705 12.6774 44.2047 12.5433C43.5115 12.3197 42.8184 12.029 42.5277 11.9619C40.6272 11.2911 38.7043 10.7098 36.7144 10.4191C34.6797 10.1732 32.2873 9.79309 30.4762 11.0228C27.413 12.655 29.6489 15.2934 27.4577 16.7915C24.9312 18.0436 23.299 14.9133 21.1301 14.2425C18.9389 13.6836 18.0222 15.1369 17.7986 17.1045C17.7539 17.7529 17.7986 18.4013 17.8434 19.0497C18.134 18.8709 18.4694 18.8038 18.8719 18.9156C20.5488 19.318 22.8071 20.0559 23.0754 22.0235C22.9412 24.5501 21.555 27.412 18.9837 28.2169C18.134 28.4405 17.3738 28.7312 16.7701 29.402C15.6522 30.4081 15.0038 33.3148 13.0362 32.2639C12.4325 31.9062 12.1865 31.3248 12.1418 30.6988H12.1194C12.0524 30.6988 12.03 30.6764 11.9853 30.6317C11.9629 30.7659 11.9406 30.9 11.9182 31.0118C11.8735 31.3696 11.8735 31.7497 11.8735 32.1074C11.8735 32.4204 11.8958 32.7558 11.8958 33.0689C11.8958 33.1806 11.8958 33.2924 11.8958 33.3372C11.8958 33.5608 11.9182 33.7843 11.9406 33.9856C11.9629 34.075 11.9853 34.1421 12.0076 34.2315C12.0747 34.4551 12.1642 34.6787 12.276 34.8799C12.3877 35.1035 12.4995 35.3495 12.589 35.5731C12.7008 35.8637 12.7902 36.1544 12.8796 36.4451C12.9244 36.5792 12.9467 36.7134 12.9691 36.8475C13.0138 37.004 13.0362 37.1829 13.0585 37.3394C13.1256 37.6748 13.1703 37.9878 13.148 38.3232C13.148 38.4574 13.1256 38.5915 13.1032 38.7257C13.1032 38.8151 13.0809 38.8822 13.0809 38.9716C13.0362 39.2847 12.9691 39.5977 12.9244 39.9331C12.8573 40.2237 12.7902 40.5144 12.7455 40.8051C12.7231 41.051 12.7231 41.297 12.7231 41.5653C12.7231 41.6771 12.7231 41.7665 12.7231 41.856C12.7231 42.0348 12.7455 42.2137 12.7678 42.3926C12.7902 42.5938 12.8126 42.7727 12.8349 42.9739C12.902 43.3764 12.9914 43.8012 13.0809 44.2037C13.1703 44.6508 13.2821 45.098 13.4163 45.5228C13.461 45.6794 13.5281 45.8582 13.5728 46.0147C13.6399 46.2383 13.7293 46.4396 13.7964 46.6408C13.9305 46.9985 14.1094 47.3563 14.2435 47.714C14.333 47.8929 14.4001 48.0718 14.4895 48.2506C14.5342 48.3401 14.5789 48.4295 14.6237 48.5189C14.6684 48.6084 14.7354 48.6978 14.7802 48.7873C14.8472 48.8991 14.9367 49.0108 15.0038 49.1003C15.0708 49.1897 15.1379 49.2792 15.205 49.3686L15.2273 49.3909C15.3168 49.4804 15.3839 49.5698 15.4733 49.6816C15.6522 49.9052 15.8534 50.1288 16.0546 50.33C16.1664 50.4418 16.2559 50.5536 16.3677 50.6654C16.4571 50.7549 16.5465 50.8443 16.636 50.9337C16.7254 51.0008 16.7925 51.0679 16.8819 51.135C16.949 51.202 17.0384 51.2468 17.1279 51.3138C17.575 51.6269 18.0446 51.8952 18.5365 52.1858C19.006 52.4318 19.4756 52.633 19.9227 52.879C20.1687 53.0131 20.4146 53.1696 20.6382 53.3038C20.8618 53.4603 21.0854 53.6168 21.2419 53.7286C21.3314 53.7957 21.4208 53.8628 21.5102 53.9298C21.5326 53.9522 21.5773 53.9746 21.5773 53.9746C21.5997 53.9746 21.5997 53.9969 21.622 53.9969C21.622 53.9969 21.622 53.9969 21.6444 54.0193C21.6667 54.0193 21.6667 54.0416 21.6891 54.0416C21.7115 54.0416 21.7115 54.064 21.7115 54.064C21.868 54.1758 22.0021 54.2652 22.1586 54.3547C22.2257 54.377 22.2704 54.4217 22.3375 54.4441C22.6505 54.5559 22.9636 54.6453 23.2766 54.7348C23.4555 54.7795 23.612 54.8018 23.7685 54.8466C23.925 54.8689 24.0815 54.8913 24.1933 54.9136C24.2157 54.9136 24.2604 54.9136 24.2828 54.9136C24.3275 54.9136 24.3498 54.9136 24.3945 54.936C24.5287 54.9584 24.6405 54.9584 24.7747 54.9584C24.9535 54.9807 25.1324 54.9807 25.2889 55.0031C25.4454 55.0254 25.6019 55.0701 25.7585 55.0925C25.915 55.1372 26.0715 55.1596 26.228 55.2043C26.4963 55.2714 26.787 55.3608 27.0553 55.4503C27.1894 55.495 27.3459 55.5397 27.4801 55.6068C27.6366 55.6738 27.7931 55.7633 27.9496 55.8304C28.1062 55.9198 28.2627 55.9869 28.4415 56.0763C28.6204 56.1657 28.8216 56.2552 29.0229 56.3446C29.3806 56.5011 29.6936 56.7024 30.029 56.8812C30.275 57.0154 30.5209 57.1272 30.7445 57.2613C30.9681 57.3731 31.1693 57.5073 31.3929 57.6191C31.5494 57.6862 31.706 57.7756 31.8625 57.8427C31.9295 57.865 31.9743 57.8874 32.0413 57.9097C31.8848 57.7532 31.7507 57.5967 31.6165 57.4402C30.2526 55.7409 31.1246 53.5945 32.5332 52.2529C32.5109 52.2753 32.5109 52.2976 32.4885 52.2976C33.8971 50.8219 35.5964 49.6145 37.5193 48.9661C38.5925 48.6307 39.8446 48.7873 40.7837 48.0494C41.1862 47.7587 41.3203 47.2668 41.3874 46.7973C41.4545 46.1265 41.4769 45.4334 41.6557 44.785C41.9911 42.9963 43.8693 41.8112 45.6356 42.2361C46.7983 42.3926 47.6927 43.1751 48.6988 43.6894C49.9733 44.1813 50.9347 42.482 51.8067 41.7889C52.4328 41.3193 52.7458 40.5144 53.4613 40.1567C53.5955 39.8436 53.9308 39.5977 54.2662 39.5753C54.6016 39.553 54.8923 39.7095 55.2053 39.7542C55.6748 39.866 55.9879 40.179 56.1667 40.5815C56.2338 40.2014 56.3009 39.8213 56.3233 39.4635C56.5468 37.8313 56.9493 36.2438 57.5754 34.7458ZM59.6324 27.3226C60.6162 29.2902 60.1914 31.6155 59.3194 33.516C58.5592 35.1706 57.866 36.7581 57.5977 38.5692C57.4859 39.1505 57.4412 39.7318 57.3741 40.3132C57.2847 41.051 57.0611 41.7665 56.9717 42.482C56.8599 43.2199 56.994 44.7626 56.5692 45.6123C56.5468 45.7688 56.5021 45.9253 56.4574 46.1042C56.1444 47.3339 55.5407 48.4742 54.937 49.5698C53.9532 51.3138 52.7458 53.5274 50.5546 53.818C48.3858 53.9746 46.1723 54.2429 44.2494 55.3161C42.1253 56.4788 39.3527 59.3184 36.8262 59.6761C36.5355 59.8773 36.2001 60.0339 35.8424 59.9668C35.5517 59.9221 35.1716 59.8103 35.0598 59.5643C34.9704 59.542 34.8809 59.5196 34.7915 59.4972C34.6797 59.5867 34.5456 59.6537 34.4114 59.6537C34.3667 59.6537 34.2996 59.6538 34.2549 59.6314C33.8971 59.5196 33.5394 59.4078 33.1817 59.3184C33.0699 59.296 32.9581 59.2736 32.8463 59.2513C32.7121 59.2289 32.5556 59.2066 32.4214 59.1619C32.1531 59.0948 31.8848 59.0053 31.6389 58.9159C31.3706 58.8041 31.1023 58.6923 30.834 58.5358C30.588 58.4016 30.3421 58.2675 30.1408 58.1333C29.9843 58.0439 29.8278 57.9768 29.6713 57.9097C29.4924 57.8203 29.3135 57.7085 29.1794 57.6414C28.9111 57.5073 28.6428 57.3508 28.3745 57.239C28.0838 57.1048 27.7931 56.9707 27.5919 56.8589L27.5025 56.7918C27.4577 56.7694 27.413 56.7471 27.413 56.7471C27.3459 56.7024 27.2565 56.68 27.1894 56.6353C26.6752 56.434 26.1609 56.2999 25.6467 56.1657C25.4454 56.121 25.2666 56.0763 25.0653 56.0539C24.484 56.0092 23.9027 55.9869 23.3437 55.8527C23.053 55.7856 22.74 55.6962 22.4493 55.6068C22.2704 55.5397 22.0916 55.495 21.9351 55.4279C21.7115 55.3385 21.5102 55.2043 21.3314 55.0701C21.309 55.0478 21.2643 55.0254 21.2419 55.0031C21.0631 54.8689 20.9065 54.7348 20.7277 54.623C20.3028 54.3099 19.8557 54.064 19.4085 53.7957C19.2073 53.6839 18.9837 53.5721 18.7824 53.4827C18.5588 53.3709 18.3352 53.2814 18.134 53.1696C18.134 53.1696 18.134 53.1696 18.1117 53.1696C18.0893 53.1696 18.0893 53.1473 18.0669 53.1473C17.7763 52.9908 17.4856 52.8342 17.1949 52.6554C17.0384 52.5659 16.8819 52.4541 16.7254 52.3423C16.5689 52.2306 16.4124 52.1188 16.2782 52.007C16.1441 51.9175 16.0323 51.8057 15.9205 51.6939C15.7863 51.5598 15.6522 51.4256 15.518 51.2915C15.2944 51.0679 15.0932 50.8219 14.8696 50.576C14.8025 50.5089 14.7578 50.4418 14.7354 50.4195C14.6237 50.2853 14.4895 50.1288 14.3777 49.9946C14.3106 49.9276 14.2435 49.8381 14.1988 49.7711C14.1318 49.704 14.087 49.6145 14.02 49.5251C13.9082 49.3686 13.8187 49.1897 13.7069 49.0332C13.6622 48.9661 13.6399 48.8991 13.5951 48.832C13.5504 48.7425 13.5057 48.6755 13.5057 48.6531C13.4833 48.6307 13.4833 48.6084 13.4833 48.586C13.4386 48.4742 13.3939 48.3848 13.3715 48.3401C13.215 48.0047 13.0809 47.6693 12.9467 47.3339C12.8126 47.0209 12.7008 46.7079 12.589 46.3948C12.4772 46.0595 12.3877 45.7241 12.276 45.3887C12.2312 45.2322 12.1865 45.0533 12.1642 44.8968C12.1194 44.7403 12.0971 44.5838 12.0524 44.4049C11.9853 44.0919 11.9182 43.7788 11.8735 43.5105C11.8288 43.3093 11.8064 43.0857 11.7841 42.8845C11.7617 42.728 11.7393 42.5491 11.7393 42.3926C11.717 42.2137 11.717 42.0348 11.717 41.8783C11.717 41.6994 11.717 41.4982 11.717 41.3193C11.717 40.984 11.7617 40.6486 11.8288 40.3355C11.8958 40.0225 11.9629 39.6871 12.03 39.3517C12.0524 39.1952 12.0971 39.0164 12.1194 38.8598C12.1418 38.7257 12.1642 38.5915 12.1642 38.4797C12.1642 38.3903 12.1865 38.2785 12.1865 38.1891C12.1865 38.0549 12.1642 37.9208 12.1418 37.7866C12.0971 37.563 12.0747 37.3394 12.03 37.0935C11.9853 36.8699 11.9406 36.6463 11.8735 36.4451C11.8288 36.3109 11.7841 36.1768 11.7393 36.0426C11.6723 35.8861 11.6275 35.7296 11.5605 35.5507C11.5157 35.4166 11.4487 35.2824 11.4039 35.1482C11.3145 34.9247 11.2474 34.7011 11.1804 34.4775C11.1133 34.1868 11.1133 33.8961 11.1133 33.6055C11.1133 33.4266 11.1356 33.2477 11.158 33.0912C11.1804 32.7335 11.2251 32.3981 11.2474 32.0851C11.2698 31.9285 11.2922 31.772 11.3145 31.6155C11.3369 31.4366 11.3816 31.2578 11.4263 31.0789C11.471 30.9224 11.5157 30.7882 11.5828 30.6541C11.6499 30.5199 11.7393 30.4081 11.8958 30.341C11.9629 30.3187 12.0524 30.3187 12.0971 30.3634C12.1418 30.4081 12.1418 30.4528 12.1642 30.4976C12.1642 30.4976 12.1642 30.4976 12.1642 30.5199C12.1865 30.5199 12.1865 30.5199 12.1865 30.5199C12.1865 30.2963 12.1865 30.0727 12.2312 29.8491C12.276 28.9995 12.589 28.1722 12.9691 27.412C13.3268 26.6518 13.9305 26.0034 14.5566 25.4891C15.3615 24.8407 16.3006 24.2147 16.5465 23.1414C16.6807 22.5154 16.6136 21.8893 16.7478 21.2633C16.8148 20.8608 16.9266 20.3913 17.1055 19.9665C17.0831 19.9441 17.0608 19.9441 17.0384 19.9217C16.9266 19.8323 16.8596 19.6981 16.8372 19.564C16.7701 19.0274 16.7478 18.4908 16.7254 17.9765C16.5465 15.8747 17.5974 12.9681 20.0569 12.9681C20.5712 12.9681 21.0854 12.9904 21.5773 13.1469C22.2704 13.3705 22.8965 13.8177 23.5002 14.2202C24.1262 14.7121 24.7076 15.2934 25.4454 15.6512C26.854 16.4114 27.6143 15.5394 27.5472 14.1084C27.6366 11.716 28.7546 10.5757 30.7669 9.54714C32.7792 8.76457 35.0151 8.98816 37.0945 9.32355C39.8894 9.74837 42.5054 10.844 45.0767 11.9843C45.5238 11.8948 45.9934 11.9843 46.4629 12.2973C46.9772 12.655 47.3796 13.1469 47.8045 13.5941C48.4529 14.4438 49.2802 15.1145 50.1074 15.7853C50.5323 16.1654 50.9571 16.5455 51.4043 16.8809C52.947 17.9989 54.691 18.9827 55.8537 20.5254C56.5021 21.3527 57.0387 22.3365 57.3294 23.365C57.4412 23.3874 57.4859 23.5663 57.5306 23.6557C57.5754 23.7899 57.6201 23.924 57.6648 24.0358C57.6872 24.0805 57.6201 24.1252 57.5977 24.1029C58.2014 25.2208 59.0734 26.1823 59.6324 27.3226Z" fill="url(#paint7_linear_233_16867)"/>
<path d="M53.5737 34.6119C54.1327 35.8192 53.8197 37.7868 52.2769 37.9881C51.7179 38.0775 51.1366 37.9657 50.6894 37.6303C49.3255 36.49 49.3479 34.1423 49.8174 32.5548C49.5044 32.1747 49.8845 31.5934 50.354 31.6828C50.7118 31.3922 51.1366 31.5934 51.4049 31.9064C51.8968 32.0853 52.2769 32.443 52.5676 32.8902C52.9253 33.4268 53.3278 33.9858 53.5737 34.6119Z" fill="url(#paint8_linear_233_16867)"/>
<path d="M34.2323 44.2932C34.5006 43.3765 34.3888 42.3033 33.7404 41.5654C33.3156 41.0959 32.846 40.6934 32.4212 40.2239C31.907 39.5084 31.5492 38.6587 31.3703 37.8091C31.2585 37.0936 31.2138 36.3781 31.1467 35.685C31.0573 35.2154 31.102 34.8577 31.2362 34.3882C31.4151 33.8068 32.5106 33.0243 31.7281 32.4876C31.9293 31.7721 31.7504 31.0567 31.5045 30.3635C31.2585 29.7375 30.7219 29.3127 30.2747 28.8208C29.6263 27.9711 28.5978 27.5463 27.5246 27.6581C25.4899 27.7028 23.9919 29.581 23.7906 31.5038C23.7459 31.8392 23.7459 32.1746 23.7235 32.5324C23.6788 32.9795 23.813 33.4714 23.5447 33.8515C23.0751 34.5 22.2702 34.7683 21.6218 35.1931C19.9225 36.2663 18.648 37.9209 17.9996 39.8438C17.4183 41.2077 17.709 42.9517 18.8046 43.9802C19.2517 44.405 19.9225 44.5392 20.2579 45.0758C20.7274 45.7689 20.638 46.6186 20.8839 47.3788C21.5324 48.3402 22.8068 48.6756 23.8801 48.8992C26.8762 49.1228 26.9432 46.0819 28.9779 46.0596C29.671 46.2608 30.2747 46.7303 31.0126 46.7527C32.533 46.7751 33.9416 45.7242 34.2323 44.2932ZM36.8483 16.6574C38.1451 16.568 39.8668 15.45 38.4805 14.1532C37.2508 13.08 35.4844 13.4154 33.9863 13.2365C31.9517 12.8564 30.6772 13.7955 30.0735 15.7184C29.917 16.4115 29.4027 17.3729 29.9394 17.999C29.8723 18.7145 30.5878 19.0946 31.2138 19.1617C32.3765 19.2511 32.8684 17.8648 33.8075 17.3729C34.6795 16.7916 35.7974 16.8363 36.8483 16.6574ZM52.2537 37.988C53.8188 37.7867 54.1095 35.8415 53.5505 34.6117C53.3046 33.9857 52.9021 33.4267 52.5443 32.8677C52.2537 32.4429 51.8736 32.0628 51.3817 31.8839C51.1134 31.5933 50.6886 31.3697 50.3308 31.6604C49.8613 31.5709 49.4812 32.1523 49.7942 32.5324C49.3246 34.1198 49.3023 36.4675 50.6662 37.6079C51.1357 37.9656 51.7171 38.0774 52.2537 37.988ZM59.0285 28.6642C59.498 30.8107 58.4024 32.823 57.5751 34.7235C56.9491 36.244 56.5243 37.8091 56.3677 39.4413C56.3454 39.8214 56.2783 40.2015 56.2112 40.5593C56.01 40.1791 55.7193 39.8661 55.2498 39.732C54.9368 39.6872 54.6237 39.5307 54.3107 39.5531C53.9753 39.5755 53.6399 39.799 53.5058 40.1344C52.7903 40.4922 52.4773 41.2747 51.8512 41.7666C51.0016 42.4821 50.0401 44.1814 48.7433 43.6672C47.7372 43.1305 46.8428 42.3703 45.6801 42.2138C43.9138 41.789 42.058 42.9964 41.7002 44.7628C41.5213 45.4112 41.499 46.1043 41.4319 46.7751C41.3872 47.2446 41.253 47.7589 40.8282 48.0272C39.8891 48.7427 38.637 48.5861 37.5638 48.9439C35.6409 49.6147 33.9193 50.7997 32.533 52.2754C32.5554 52.253 32.5554 52.2307 32.5777 52.2307C31.1691 53.5722 30.2971 55.7187 31.661 57.418C31.7952 57.5745 31.9293 57.731 32.0858 57.8875C32.0411 57.8651 31.974 57.8428 31.907 57.8204C31.7504 57.7534 31.5939 57.6863 31.4374 57.5968C31.2138 57.4627 31.0126 57.3509 30.789 57.2391C30.5431 57.1049 30.3195 56.9931 30.0735 56.859C29.7605 56.6801 29.4251 56.4789 29.0674 56.3224C28.8885 56.2329 28.6873 56.1435 28.486 56.0541C28.3295 55.987 28.173 55.8976 27.9941 55.8081C27.8376 55.7187 27.6811 55.6292 27.5246 55.5845C27.3904 55.5398 27.2339 55.4727 27.0998 55.428C26.8314 55.3386 26.5408 55.2491 26.2725 55.1821C26.116 55.1373 25.9594 55.0926 25.8029 55.0703C25.6464 55.0256 25.4899 55.0032 25.3334 54.9808C25.1545 54.9585 24.9757 54.9361 24.8191 54.9361C24.685 54.9361 24.5732 54.9138 24.439 54.9138C24.3943 54.9138 24.372 54.9138 24.3272 54.8914C24.3049 54.8914 24.2602 54.8914 24.2378 54.8914C24.126 54.869 23.9695 54.8467 23.813 54.8243C23.6341 54.802 23.4776 54.7572 23.3211 54.7125C23.0081 54.6231 22.695 54.5337 22.382 54.4219C22.3149 54.3995 22.2702 54.3771 22.2031 54.3324C22.0466 54.243 21.8901 54.1312 21.7559 54.0418L21.7336 54.0194C21.7336 54.0194 21.7112 53.997 21.6889 53.997C21.6889 53.997 21.6889 53.997 21.6665 53.9747C21.6442 53.9747 21.6442 53.9523 21.6218 53.9523C21.6218 53.9523 21.5771 53.93 21.5547 53.9076C21.4653 53.8405 21.3758 53.7734 21.2864 53.7064C21.1299 53.5946 20.9063 53.4157 20.6827 53.2815C20.4368 53.125 20.2132 52.9909 19.9672 52.8567C19.52 52.5884 19.0281 52.4095 18.581 52.1636C18.1114 51.8953 17.6195 51.6046 17.1723 51.2916C17.0829 51.2245 17.0158 51.1798 16.9264 51.1127C16.837 51.0456 16.7699 50.9786 16.6804 50.9115C16.591 50.8221 16.5016 50.7326 16.4121 50.6432C16.3003 50.5314 16.2109 50.4196 16.0991 50.3078C15.8979 50.0842 15.719 49.883 15.5178 49.6594C15.4507 49.5699 15.3613 49.4805 15.2718 49.3687L15.2495 49.3464C15.1824 49.2569 15.1153 49.1675 15.0482 49.078C14.9812 48.9663 14.8917 48.8545 14.8246 48.765C14.7799 48.6756 14.7128 48.5861 14.6681 48.4967C14.6234 48.4073 14.5787 48.3178 14.534 48.2284C14.4445 48.0495 14.3551 47.8707 14.288 47.6918C14.1539 47.334 13.975 46.9763 13.8408 46.6186C13.7514 46.4173 13.6843 46.1937 13.6173 45.9925C13.5502 45.836 13.5055 45.6571 13.4607 45.5006C13.3266 45.0534 13.2372 44.6286 13.1254 44.1814C13.0359 43.779 12.9465 43.3541 12.8794 42.9517C12.857 42.7504 12.8347 42.5716 12.8123 42.3703C12.79 42.1915 12.7676 42.0126 12.7676 41.8337C12.7676 41.7443 12.7676 41.6325 12.7676 41.5431C12.7676 41.2971 12.7676 41.0512 12.79 40.7828C12.8347 40.4922 12.9018 40.2015 12.9688 39.9108C13.0359 39.5978 13.0806 39.2848 13.1254 38.9494C13.1477 38.86 13.1477 38.7929 13.1477 38.7035C13.1701 38.5693 13.1701 38.4351 13.1924 38.301C13.1924 37.9656 13.1477 37.6302 13.103 37.3172C13.0806 37.1383 13.0359 36.9818 13.0136 36.8253C12.9912 36.6911 12.9465 36.557 12.9241 36.4228C12.8347 36.1322 12.7453 35.8415 12.6335 35.5508C12.544 35.3049 12.4322 35.0813 12.3204 34.8577C12.231 34.6341 12.1192 34.4329 12.0521 34.2093C12.0298 34.1198 12.0074 34.0528 11.985 33.9633C11.9627 33.7397 11.9403 33.5385 11.9403 33.3149C11.9403 33.2702 11.9403 33.1584 11.9403 33.0466C11.9403 32.7336 11.918 32.3982 11.918 32.0852C11.918 31.7274 11.918 31.3473 11.9627 30.9896C11.985 30.8778 12.0074 30.7436 12.0298 30.6095C12.0745 30.6542 12.0968 30.6766 12.1639 30.6766H12.1863C12.231 31.3026 12.4769 31.8839 13.0806 32.2417C15.0482 33.2926 15.6966 30.3859 16.8146 29.3797C17.4183 28.7313 18.1785 28.4183 19.0281 28.1947C21.5994 27.3898 22.9857 24.5278 23.1198 22.0012C22.8739 20.0337 20.5933 19.2958 18.9163 18.8933C18.5139 18.7815 18.1785 18.8486 17.8878 19.0275C17.8431 18.3791 17.7984 17.7307 17.8431 17.0823C18.0891 15.1147 19.0058 13.6613 21.1746 14.2203C23.3211 14.8911 24.9756 18.0213 27.5022 16.7692C29.6934 15.2712 27.4351 12.6328 30.5207 11.0006C32.3094 9.77085 34.7018 10.151 36.7589 10.3969C38.7488 10.6876 40.6717 11.2689 42.5722 11.9397C42.8629 12.0068 43.556 12.2974 44.2491 12.521C44.115 12.6552 44.0032 12.8117 43.9138 13.0129C43.6454 13.4825 43.3771 13.9967 43.3101 14.5333C43.2877 14.9358 43.7349 15.2265 44.0926 15.0252C43.0194 16.2997 41.499 17.0152 39.9339 17.5294C39.2854 17.7977 38.5476 17.9319 37.9663 18.3567C36.8259 19.2287 36.6918 20.7491 36.7589 22.0683C36.7589 23.6111 37.5414 25.0868 38.5923 26.1824C39.509 27.1438 40.8506 27.3674 42.125 27.5463C43.3548 27.7475 44.5398 27.1662 45.4565 26.3613C45.4565 26.3613 45.4789 26.3613 45.4789 26.3389C46.3509 25.6234 47.5136 24.975 48.6986 25.1762C49.0563 25.3104 49.347 25.5563 49.66 25.7576C50.3755 26.2495 51.1134 26.8308 51.8065 27.3674C52.3878 27.7922 52.9692 28.3065 53.707 28.4407C55.1604 28.6866 56.8373 28.5077 57.3515 26.8979C57.5081 26.4954 57.5975 26.0706 57.6422 25.6458C58.1565 26.6296 58.8496 27.5686 59.0732 28.6866C59.0285 28.6866 59.0285 28.6866 59.0285 28.6642Z" fill="url(#paint9_linear_233_16867)"/>
<path d="M37.0265 12.8787C38.4128 14.1755 36.7135 15.2935 35.3943 15.3829C34.3658 15.5618 33.2478 15.5171 32.3311 16.076C31.4144 16.5679 30.9225 17.9542 29.7375 17.8648C29.1114 17.82 28.3959 17.4176 28.463 16.7021C27.9488 16.076 28.4406 15.1146 28.5972 14.4215C29.2009 12.4986 30.4977 11.5595 32.51 11.9396C34.0304 12.1408 35.7968 11.8055 37.0265 12.8787Z" fill="#202D3E"/>
<path d="M32.3087 40.2689C32.9571 41.0067 33.0689 42.0799 32.8006 42.9967C32.5099 44.4276 31.1013 45.4785 29.648 45.3891C28.9101 45.3667 28.3064 44.9195 27.6133 44.6959C25.5786 44.7183 25.5115 47.7591 22.5154 47.5355C21.4422 47.3119 20.1677 46.9766 19.5193 46.0151C19.251 45.2773 19.3404 44.4053 18.8933 43.7121C18.5579 43.1755 17.8871 43.0414 17.4399 42.6166C16.3443 41.588 16.0537 39.844 16.635 38.4801C17.2611 36.5573 18.5579 34.925 20.2572 33.8295C20.9279 33.4046 21.7105 33.1587 22.18 32.4879C22.4483 32.1078 22.3142 31.5935 22.3589 31.1687C22.3589 30.8333 22.3813 30.4756 22.426 30.1402C22.6272 28.2173 24.1253 26.3392 26.1599 26.2945C27.2108 26.205 28.2393 26.6298 28.8878 27.4571C29.3349 27.949 29.8715 28.3738 30.1175 28.9999C30.3634 29.6707 30.5423 30.4085 30.3411 31.124C31.1237 31.6606 30.0057 32.4432 29.8492 33.0245C29.6927 33.4941 29.6703 33.8518 29.7598 34.3213C29.8268 35.0368 29.8939 35.7523 29.9833 36.4455C30.1399 37.3175 30.52 38.1447 31.0342 38.8602C31.392 39.4192 31.8839 39.8217 32.3087 40.2689Z" fill="#202D3E"/>
<path d="M56.1429 33.4491C56.9701 31.5262 58.0657 29.5363 57.5962 27.3898V27.4122C57.395 26.2942 56.7018 25.3775 56.1652 24.3713C56.1205 24.7962 56.0311 25.221 55.8746 25.6234C55.3603 27.2333 53.6834 27.4345 52.23 27.1662C51.4922 27.0321 50.9108 26.5178 50.3295 26.093C49.6364 25.534 48.8985 24.975 48.183 24.4831C47.87 24.2819 47.5793 24.0136 47.2216 23.9018C46.0589 23.7006 44.8739 24.3266 44.0019 25.0645C44.0019 25.0645 43.9795 25.0645 43.9795 25.0868C43.0852 25.8918 41.9001 26.4731 40.648 26.2719C39.3959 26.093 38.0544 25.8694 37.1153 24.908C36.0644 23.79 35.2819 22.3367 35.2819 20.7939C35.2148 19.4747 35.3489 17.9543 36.4893 17.0823C37.0706 16.6575 37.7861 16.5233 38.4569 16.255C39.9996 15.7184 41.5424 15.0253 42.6156 13.7508C42.2579 13.952 41.8107 13.639 41.8331 13.2589C41.9002 12.7223 42.1685 12.208 42.4368 11.7385C42.5262 11.5596 42.638 11.3807 42.7722 11.2466C42.079 11.023 41.3859 10.7323 41.0952 10.6652C39.1947 9.99447 37.2718 9.41314 35.2819 9.12247C33.2472 8.87652 30.8548 8.49642 29.0437 9.72617C25.9805 11.3584 28.2164 13.9967 26.0252 15.4948C23.4987 16.7469 21.8664 13.6166 19.6976 12.9459C17.5064 12.3869 16.5897 13.8402 16.3661 15.8078C16.3214 16.4562 16.3661 17.1046 16.4108 17.7531C16.7015 17.5742 17.0369 17.5071 17.4394 17.6189C19.1163 18.0214 21.3745 18.7592 21.6429 20.7268C21.5087 23.2534 20.1224 26.1153 17.5511 26.9203C16.7015 27.1439 15.9413 27.4345 15.3376 28.1053C14.2197 29.1115 13.5712 32.0181 11.6036 30.9673C10.9999 30.6095 10.754 30.0282 10.7093 29.4021H10.6869C10.6198 29.4021 10.5975 29.3798 10.5528 29.335C10.5304 29.4692 10.5081 29.6034 10.4857 29.7151C10.441 30.0729 10.441 30.453 10.441 30.8107C10.441 31.1238 10.4633 31.4592 10.4633 31.7722C10.4633 31.884 10.4633 31.9958 10.4633 32.0405C10.4633 32.2641 10.4857 32.4877 10.5081 32.6889C10.5304 32.7783 10.5528 32.8454 10.5751 32.9349C10.6422 33.1584 10.7316 33.382 10.8434 33.5833C10.9552 33.8069 11.067 34.0528 11.1565 34.2764C11.2683 34.5671 11.3577 34.8577 11.4471 35.1484C11.4918 35.2825 11.5142 35.4167 11.5366 35.5509C11.5813 35.7074 11.6036 35.8862 11.626 36.0428C11.6931 36.3781 11.7378 36.6912 11.7154 37.0266C11.7154 37.1607 11.6931 37.2949 11.6707 37.429C11.6707 37.5185 11.6484 37.5855 11.6484 37.675C11.6036 37.988 11.5366 38.301 11.4918 38.6364C11.4248 38.9271 11.3577 39.2177 11.313 39.5084C11.2906 39.7544 11.2906 40.0003 11.2906 40.2686C11.2906 40.3804 11.2906 40.4698 11.2906 40.5593C11.2906 40.7382 11.313 40.917 11.3353 41.0959C11.3577 41.2971 11.3801 41.476 11.4024 41.6772C11.4695 42.0797 11.5589 42.5045 11.6484 42.907C11.7378 43.3542 11.8496 43.8013 11.9837 44.2262C12.0285 44.3827 12.0955 44.5615 12.1403 44.7181C12.2073 44.9417 12.2968 45.1429 12.3639 45.3441C12.498 45.7019 12.6769 46.0596 12.811 46.4174C12.9005 46.5962 12.9675 46.7751 13.057 46.954C13.1017 47.0434 13.1464 47.1328 13.1911 47.2223C13.2359 47.3117 13.3029 47.4011 13.3476 47.4906C13.4147 47.6024 13.5042 47.7142 13.5712 47.8036C13.6383 47.8931 13.7054 47.9825 13.7725 48.0719L13.7948 48.0943C13.8843 48.1837 13.9513 48.2731 14.0408 48.3849C14.2197 48.6085 14.4209 48.8321 14.6221 49.0334C14.7339 49.1452 14.8233 49.257 14.9351 49.3687C15.0246 49.4582 15.114 49.5476 15.2034 49.6371C15.2929 49.7041 15.36 49.7712 15.4494 49.8383C15.5165 49.9054 15.6059 49.9501 15.6953 50.0172C16.1425 50.3302 16.6121 50.5985 17.104 50.8892C17.5735 51.1351 18.043 51.3363 18.4902 51.5823C18.7362 51.7164 18.9821 51.873 19.2057 52.0071C19.4293 52.1636 19.6529 52.3201 19.8094 52.4319C19.8988 52.499 19.9883 52.5661 20.0777 52.6332C20.1001 52.6555 20.1448 52.6779 20.1448 52.6779C20.1672 52.6779 20.1672 52.7002 20.1895 52.7002C20.1895 52.7002 20.1895 52.7002 20.2119 52.7226C20.2342 52.7226 20.2342 52.745 20.2566 52.745C20.279 52.745 20.279 52.7673 20.279 52.7673C20.4355 52.8791 20.5696 52.9686 20.7261 53.058C20.7932 53.0803 20.8379 53.1251 20.905 53.1474C21.218 53.2592 21.5311 53.3487 21.8441 53.4381C22.023 53.4828 22.1795 53.5052 22.336 53.5499C22.4925 53.5722 22.649 53.5946 22.7608 53.617C22.7832 53.617 22.8279 53.617 22.8502 53.617C22.895 53.617 22.9173 53.617 22.962 53.6393C23.0962 53.6617 23.208 53.6617 23.3421 53.6617C23.521 53.684 23.6999 53.684 23.8564 53.7064C24.0129 53.7288 24.1694 53.7735 24.3259 53.7958C24.4825 53.8406 24.639 53.8629 24.7955 53.9076C25.0638 53.9747 25.3545 54.0641 25.6228 54.1536C25.7569 54.1983 25.9134 54.243 26.0476 54.3101C26.2041 54.3772 26.3606 54.4666 26.5171 54.5337C26.6736 54.6231 26.8302 54.6902 27.009 54.7796C27.1879 54.8691 27.3891 54.9585 27.5904 55.0479C27.9481 55.2045 28.2611 55.4057 28.5965 55.5846C28.8425 55.7187 29.0884 55.8305 29.312 55.9647C29.5356 56.0765 29.7368 56.2106 29.9604 56.3224C30.1169 56.3895 30.2734 56.4789 30.43 56.546C30.497 56.5684 30.5418 56.5907 30.6088 56.6131C30.4523 56.4566 30.3182 56.3 30.184 56.1435C28.8201 54.4442 29.6921 52.2978 31.1007 50.9562C31.0784 50.9786 31.0784 51.001 31.056 51.001C32.4646 49.5253 34.1639 48.3179 36.0868 47.6695C37.16 47.3341 38.4121 47.4906 39.3512 46.7527C39.7537 46.4621 39.8878 45.9702 39.9549 45.5006C40.022 44.8299 40.0443 44.1367 40.2232 43.4883C40.5586 41.6996 42.4368 40.5146 44.2031 40.9394C45.3658 41.0959 46.2602 41.8785 47.2663 42.3927C48.5408 42.8846 49.5022 41.1853 50.3742 40.4922C51.0003 40.0227 51.3133 39.2177 52.0288 38.86C52.1629 38.547 52.4983 38.301 52.8337 38.2787C53.1691 38.2563 53.4598 38.4128 53.7728 38.4575C54.2423 38.5693 54.5554 38.8824 54.7342 39.2848C54.8013 38.9047 54.8684 38.5246 54.8908 38.1669C55.092 36.5347 55.5168 34.9695 56.1429 33.4491ZM58.1999 26.0259C59.1837 27.9935 58.7589 30.3188 57.8869 32.2194C57.1267 33.8739 56.4335 35.4614 56.1652 37.2725C56.0534 37.8538 56.0087 38.4352 55.9416 39.0165C55.8522 39.7544 55.6286 40.4698 55.5392 41.1853C55.4274 41.9232 55.5615 43.466 55.1367 44.3156C55.1143 44.4721 55.0696 44.6286 55.0249 44.8075C54.7119 46.0372 54.1082 47.1776 53.5045 48.2731C52.5207 50.0172 51.3133 52.2307 49.1221 52.5214C46.9533 52.6779 44.7397 52.9462 42.8169 54.0194C40.6928 55.1821 37.9202 58.0217 35.3937 58.3794C35.103 58.5807 34.7676 58.7372 34.4099 58.6701C34.1192 58.6254 33.7391 58.5136 33.6273 58.2676C33.5379 58.2453 33.4484 58.2229 33.359 58.2006C33.2472 58.29 33.113 58.3571 32.9789 58.3571C32.9342 58.3571 32.8671 58.3571 32.8224 58.3347C32.4646 58.2229 32.1069 58.1111 31.7491 58.0217C31.6373 57.9993 31.5256 57.977 31.4138 57.9546C31.2796 57.9323 31.1231 57.9099 30.9889 57.8652C30.7206 57.7981 30.4523 57.7087 30.2064 57.6192C29.9381 57.5074 29.6698 57.3956 29.4014 57.2391C29.1555 57.105 28.9095 56.9708 28.7083 56.8367C28.5518 56.7472 28.3953 56.6802 28.2388 56.6131C28.0599 56.5236 27.881 56.4118 27.7469 56.3448C27.4786 56.2106 27.2103 56.0541 26.9419 55.9423C26.6513 55.8081 26.3606 55.674 26.1594 55.5622L26.0923 55.5398C26.0476 55.5175 26.0029 55.4951 26.0029 55.4951C25.9358 55.4504 25.8464 55.428 25.7793 55.3833C25.265 55.1821 24.7508 55.0479 24.2365 54.9138C24.0353 54.8691 23.8564 54.8244 23.6552 54.802C23.0738 54.7573 22.4925 54.7349 21.9335 54.6008C21.6429 54.5337 21.3298 54.4442 21.0392 54.3548C20.8603 54.2877 20.6814 54.243 20.5249 54.1759C20.3013 54.0865 20.1001 53.9523 19.9212 53.8182C19.8988 53.7958 19.8541 53.7735 19.8318 53.7511C19.6529 53.617 19.4964 53.4828 19.3175 53.371C18.8927 53.058 18.4455 52.812 17.9983 52.5437C17.7971 52.4319 17.5735 52.3201 17.3723 52.2307C17.1487 52.1189 16.9251 52.0295 16.7239 51.9177C16.7239 51.9177 16.7239 51.9177 16.7015 51.9177C16.6791 51.9177 16.6791 51.8953 16.6568 51.8953C16.3661 51.7388 16.0755 51.5823 15.7848 51.4034C15.6283 51.314 15.4718 51.2022 15.3152 51.0904C15.1587 50.9786 15.0022 50.8668 14.8681 50.755C14.7339 50.6656 14.6221 50.5538 14.5103 50.442C14.3762 50.3078 14.242 50.1737 14.1079 50.0395C13.8843 49.8159 13.683 49.57 13.4594 49.324C13.3924 49.2569 13.3476 49.1899 13.3253 49.1675C13.2135 49.0334 13.0793 48.8768 12.9675 48.7427C12.9005 48.6756 12.8334 48.5862 12.7887 48.5191C12.7216 48.452 12.6769 48.3626 12.6098 48.2731C12.498 48.1166 12.4086 47.9378 12.2968 47.7813C12.2521 47.7142 12.2297 47.6471 12.185 47.58C12.1403 47.4906 12.0955 47.4235 12.0955 47.4011C12.0732 47.3788 12.0732 47.3564 12.0732 47.3341C12.0285 47.2223 11.9837 47.1328 11.9614 47.0881C11.8049 46.7527 11.6707 46.4174 11.5366 46.082C11.4024 45.7689 11.2906 45.4559 11.1788 45.1429C11.067 44.8075 10.9776 44.4721 10.8658 44.1367C10.8211 43.9802 10.7764 43.8013 10.754 43.6448C10.7093 43.4883 10.6869 43.3318 10.6422 43.1529C10.5751 42.8399 10.5081 42.5269 10.4633 42.2586C10.4186 42.0573 10.3963 41.8337 10.3739 41.6325C10.3515 41.476 10.3292 41.2971 10.3292 41.1406C10.3068 40.9617 10.3068 40.7829 10.3068 40.6264C10.3068 40.4475 10.3068 40.2463 10.3068 40.0674C10.3068 39.732 10.3515 39.3966 10.4186 39.0836C10.4857 38.7706 10.5528 38.4352 10.6198 38.0998C10.6422 37.9433 10.6869 37.7644 10.7093 37.6079C10.7316 37.4737 10.754 37.3396 10.754 37.2278C10.754 37.1383 10.7764 37.0266 10.7764 36.9371C10.7764 36.803 10.754 36.6688 10.7316 36.5347C10.6869 36.3111 10.6646 36.0875 10.6198 35.8415C10.5751 35.6179 10.5304 35.3943 10.4633 35.1931C10.4186 35.059 10.3739 34.9248 10.3292 34.7907C10.2621 34.6341 10.2174 34.4776 10.1503 34.2988C10.1056 34.1646 10.0385 34.0304 9.99379 33.8963C9.90436 33.6727 9.83728 33.4491 9.7702 33.2255C9.70312 32.9349 9.70312 32.6442 9.70312 32.3535C9.70312 32.1746 9.72548 31.9958 9.74784 31.8393C9.7702 31.4815 9.81492 31.1461 9.83728 30.8331C9.85964 30.6766 9.882 30.5201 9.90436 30.3636C9.92671 30.1847 9.97143 30.0058 10.0162 29.8269C10.0609 29.6704 10.1056 29.5363 10.1727 29.4021C10.2397 29.268 10.3292 29.1562 10.4857 29.0891C10.5528 29.0667 10.6422 29.0667 10.6869 29.1115C10.7316 29.1562 10.7316 29.2009 10.754 29.2456C10.754 29.2456 10.754 29.2456 10.754 29.268C10.7764 29.268 10.7764 29.268 10.7764 29.268C10.7764 29.0444 10.7764 28.8208 10.8211 28.5972C10.8658 27.7476 11.1788 26.9203 11.5589 26.1601C11.9167 25.3999 12.5204 24.7514 13.1464 24.2372C13.9513 23.5888 14.8904 22.9627 15.1364 21.8895C15.2705 21.2634 15.2034 20.6374 15.3376 20.0113C15.4047 19.6089 15.5165 19.1393 15.6953 18.7145C15.673 18.6921 15.6506 18.6921 15.6283 18.6698C15.5165 18.5803 15.4494 18.4462 15.427 18.312C15.36 17.7754 15.3376 17.2388 15.3152 16.7245C15.1364 14.6228 16.1872 11.7161 18.6467 11.7161C19.161 11.7161 19.6753 11.7385 20.1672 11.895C20.8603 12.1186 21.4863 12.5658 22.09 12.9682C22.7161 13.4601 23.2974 14.0415 24.0353 14.3992C25.4439 15.1594 26.2041 14.2874 26.137 12.8564C26.2265 10.464 27.3444 9.3237 29.3567 8.29519C31.369 7.51262 33.6049 7.73621 35.6843 8.0716C38.4792 8.49642 41.0952 9.59201 43.6665 10.7323C44.1137 10.6429 44.5832 10.7323 45.0528 11.0454C45.567 11.4031 45.9695 11.895 46.3943 12.3422C47.0427 13.1918 47.87 13.8626 48.6973 14.5334C49.1221 14.9135 49.5469 15.2936 49.9941 15.629C51.5369 16.7469 53.2809 17.7307 54.4436 19.2735C55.092 20.1008 55.6286 21.0846 55.9193 22.1131C56.0311 22.1354 56.0758 22.3143 56.1205 22.4037C56.1652 22.5379 56.2099 22.6721 56.2547 22.7838C56.277 22.8286 56.2099 22.8733 56.1876 22.8509C56.7689 23.9465 57.6409 24.8856 58.1999 26.0259Z" fill="#202D3E"/>
<path d="M52.1186 33.3374C52.6776 34.5448 52.3646 36.5124 50.8218 36.7137C50.2628 36.8031 49.6815 36.6913 49.2343 36.3559C47.8704 35.2156 47.8928 32.8679 48.3623 31.2804C48.0493 30.9003 48.4294 30.319 48.8989 30.4084C49.2567 30.1177 49.6815 30.319 49.9498 30.632C50.4417 30.8109 50.8218 31.1686 51.1125 31.6158C51.4926 32.1524 51.8727 32.7114 52.1186 33.3374Z" fill="#202D3E"/>
<path d="M32.8006 43.0188C33.069 42.1021 32.9572 41.0288 32.3087 40.291C31.8839 39.8215 31.4144 39.419 30.9896 38.9495C30.4753 38.234 30.1176 37.3843 29.9387 36.5347C29.8269 35.8192 29.7822 35.1037 29.7151 34.4106C29.6257 33.941 29.6704 33.5833 29.8045 33.1137C29.9834 32.5324 31.079 31.7498 30.2964 31.2132C30.4977 30.4977 30.3188 29.7822 30.0728 29.0891C29.8269 28.4631 29.2903 28.0382 28.8431 27.5463C28.1947 26.6967 27.1662 26.2719 26.1153 26.3837C24.0806 26.4284 22.5826 28.3065 22.3813 30.2294C22.3366 30.5648 22.3366 30.9002 22.3143 31.2579C22.2695 31.7051 22.4037 32.197 22.1354 32.5771C21.6658 33.2255 20.8609 33.4938 20.2125 33.9187C18.5132 34.9919 17.2388 36.6465 16.5903 38.5693C16.009 39.9333 16.2997 41.6773 17.3953 42.7058C17.8425 43.1306 18.5132 43.2647 18.8486 43.8014C19.3181 44.4945 19.2287 45.3441 19.4747 46.1043C20.1231 47.0658 21.3975 47.4012 22.4708 47.6248C25.4669 47.8484 25.534 44.8075 27.5686 44.7852C28.2618 44.9864 28.8655 45.4559 29.6033 45.4783C31.1014 45.5007 32.51 44.4498 32.8006 43.0188ZM35.3943 15.383C36.6911 15.2936 38.4128 14.1756 37.0265 12.8788C35.7968 11.8056 34.0304 12.141 32.5323 11.9621C30.4977 11.582 29.2232 12.5211 28.6195 14.4439C28.463 15.1371 27.9487 16.0985 28.4854 16.7246C28.4183 17.4401 29.1338 17.8202 29.7598 17.8872C30.9225 17.9767 31.4144 16.5904 32.3535 16.0985C33.2478 15.5172 34.3658 15.5619 35.3943 15.383ZM50.822 36.6912C52.3872 36.49 52.6778 34.5447 52.1189 33.315C51.8729 32.6889 51.4704 32.1299 51.1127 31.571C50.822 31.1461 50.4419 30.766 49.95 30.5872C49.6817 30.2965 49.2569 30.0729 48.8991 30.3636C48.4296 30.2741 48.0495 30.8555 48.3625 31.2356C47.893 32.8231 47.8706 35.1708 49.2345 36.3111C49.6817 36.6912 50.2631 36.803 50.822 36.6912ZM57.5968 27.3898C58.0664 29.5363 56.9708 31.5486 56.1435 33.4491C55.5174 34.9695 55.0926 36.5347 54.9361 38.1669C54.9137 38.547 54.8467 38.9271 54.7796 39.2848C54.5783 38.9047 54.2877 38.5917 53.8181 38.4576C53.5051 38.4128 53.1921 38.2563 52.8791 38.2787C52.5437 38.301 52.2083 38.5246 52.0741 38.86C51.3586 39.2178 51.0456 40.0003 50.4196 40.4922C49.5699 41.2077 48.6085 42.907 47.3117 42.3927C46.3055 41.8561 45.4111 41.0959 44.2485 40.9394C42.4821 40.5146 40.6263 41.722 40.2686 43.4883C40.0897 44.1368 40.0673 44.8299 40.0003 45.5007C39.9555 45.9702 39.8214 46.4845 39.3966 46.7528C38.4575 47.4682 37.2054 47.3117 36.1321 47.6695C34.2093 48.3402 32.4876 49.5253 31.1014 51.001C31.1237 50.9786 31.1237 50.9563 31.1461 50.9563C29.7375 52.2978 28.8655 54.4443 30.2294 56.1436C30.3635 56.3001 30.4977 56.4566 30.6542 56.6131C30.6095 56.5907 30.5424 56.5684 30.4753 56.546C30.3188 56.4789 30.1623 56.4119 30.0058 56.3224C29.7822 56.1883 29.5809 56.0765 29.3574 55.9647C29.1114 55.8305 28.8878 55.7187 28.6419 55.5846C28.3288 55.4057 27.9935 55.2045 27.6357 55.048C27.4568 54.9585 27.2556 54.8691 27.0544 54.7797C26.8979 54.7126 26.7413 54.6231 26.5625 54.5337C26.406 54.4443 26.2494 54.3548 26.0929 54.3101C25.9588 54.2654 25.8023 54.1983 25.6681 54.1536C25.3998 54.0642 25.1091 53.9747 24.8408 53.9077C24.6843 53.8629 24.5278 53.8182 24.3713 53.7959C24.2148 53.7511 24.0583 53.7288 23.9017 53.7064C23.7229 53.6841 23.544 53.6617 23.3875 53.6617C23.2533 53.6617 23.1415 53.6393 23.0074 53.6393C22.9627 53.6393 22.9403 53.6393 22.8956 53.617C22.8732 53.617 22.8285 53.617 22.8062 53.617C22.6944 53.5946 22.5378 53.5723 22.3813 53.5499C22.2025 53.5275 22.0459 53.4828 21.8894 53.4381C21.5764 53.3487 21.2634 53.2592 20.9504 53.1474C20.8833 53.1251 20.8386 53.1027 20.7715 53.058C20.615 52.9686 20.4585 52.8568 20.3243 52.7673L20.3019 52.745C20.3019 52.745 20.2796 52.7226 20.2572 52.7226C20.2572 52.7226 20.2572 52.7226 20.2349 52.7003C20.2125 52.7003 20.2125 52.6779 20.1902 52.6779C20.1902 52.6779 20.1454 52.6555 20.1231 52.6332C20.0336 52.5661 19.9442 52.499 19.8548 52.432C19.6983 52.3202 19.4747 52.1413 19.2511 52.0071C19.0051 51.8506 18.7815 51.7165 18.5356 51.5823C18.0884 51.314 17.5965 51.1351 17.1493 50.8892C16.6798 50.6209 16.1879 50.3302 15.7407 50.0172C15.6513 49.9501 15.5842 49.9054 15.4948 49.8383C15.4053 49.7712 15.3382 49.7042 15.2488 49.6371C15.1594 49.5476 15.0699 49.4582 14.9805 49.3688C14.8687 49.257 14.7793 49.1452 14.6675 49.0334C14.4662 48.8098 14.2874 48.6086 14.0861 48.385C14.0191 48.2955 13.9296 48.2061 13.8402 48.0943L13.8178 48.0719C13.7507 47.9825 13.6837 47.8931 13.6166 47.8036C13.5495 47.6918 13.4601 47.58 13.393 47.4906C13.3483 47.4012 13.2812 47.3117 13.2365 47.2223C13.1918 47.1329 13.1471 47.0434 13.1023 46.954C13.0129 46.7751 12.9235 46.5962 12.8564 46.4174C12.7222 46.0596 12.5434 45.7019 12.4092 45.3441C12.3198 45.1429 12.2527 44.9193 12.1856 44.7181C12.1185 44.5616 12.0738 44.3827 12.0291 44.2262C11.8949 43.779 11.8055 43.3542 11.6937 42.907C11.6043 42.5045 11.5148 42.0797 11.4478 41.6773C11.4254 41.476 11.403 41.2972 11.3807 41.0959C11.3583 40.917 11.336 40.7382 11.336 40.5593C11.336 40.4699 11.336 40.3581 11.336 40.2686C11.336 40.0227 11.336 39.7767 11.3583 39.5084C11.403 39.2178 11.4701 38.9271 11.5372 38.6364C11.6043 38.3234 11.649 38.0104 11.6937 37.675C11.7161 37.5856 11.7161 37.5185 11.7161 37.429C11.7384 37.2949 11.7384 37.1607 11.7608 37.0266C11.7608 36.6912 11.7161 36.3558 11.6714 36.0428C11.649 35.8639 11.6043 35.7074 11.5819 35.5509C11.5596 35.4167 11.5148 35.2826 11.4925 35.1484C11.403 34.8577 11.3136 34.5671 11.2018 34.2764C11.1124 34.0305 11.0006 33.8069 10.8888 33.5833C10.7994 33.3597 10.6876 33.1585 10.6205 32.9349C10.5981 32.8454 10.5758 32.7784 10.5534 32.6889C10.531 32.4653 10.5087 32.2641 10.5087 32.0405C10.5087 31.9958 10.5087 31.884 10.5087 31.7722C10.5087 31.4592 10.4863 31.1238 10.4863 30.8108C10.4863 30.453 10.4863 30.0729 10.531 29.7152C10.5534 29.6034 10.5758 29.4692 10.5981 29.3351C10.6428 29.3798 10.6652 29.4021 10.7323 29.4021H10.7546C10.7994 30.0282 11.0453 30.6095 11.649 30.9673C13.6166 32.0182 14.265 29.1115 15.383 28.1053C15.9867 27.4569 16.7469 27.1439 17.5965 26.9203C20.1678 26.1154 21.5541 23.2534 21.6882 20.7268C21.4423 18.7592 19.1616 18.0214 17.4847 17.6189C17.0822 17.5071 16.7469 17.5742 16.4562 17.7531C16.4115 17.1047 16.3668 16.4563 16.4115 15.8078C16.6574 13.8402 17.5741 12.3869 19.743 12.9459C21.8894 13.6167 23.544 16.7469 26.0706 15.4948C28.2618 13.9968 26.0035 11.3584 29.089 9.72619C30.8778 8.49644 33.2702 8.87654 35.3272 9.12249C37.3172 9.41316 39.24 9.9945 41.1406 10.6653C41.4312 10.7323 42.1244 11.023 42.8175 11.2466C42.6833 11.3808 42.5715 11.5373 42.4821 11.7385C42.2138 12.208 41.9455 12.7223 41.8784 13.2589C41.8561 13.6614 42.3032 13.952 42.661 13.7508C41.5877 15.0253 40.0673 15.7408 38.5022 16.255C37.8538 16.5233 37.1159 16.6575 36.5346 17.0823C35.3943 17.9543 35.2601 19.4747 35.3272 20.7939C35.3272 22.3367 36.1098 23.8124 37.1607 24.908C38.0774 25.8694 39.4189 26.093 40.6934 26.2719C41.9231 26.4731 43.1082 25.8918 44.0249 25.0868C44.0249 25.0868 44.0472 25.0868 44.0472 25.0645C44.9192 24.349 46.0819 23.7006 47.2669 23.9018C47.6247 24.036 47.9154 24.2819 48.2284 24.4832C48.9439 24.9751 49.6817 25.5564 50.3748 26.093C50.9562 26.5178 51.5375 27.0321 52.2754 27.1662C53.7287 27.4122 55.4056 27.2333 55.9199 25.6235C56.0764 25.221 56.1658 24.7962 56.2106 24.3714C56.7248 25.3552 57.4179 26.2942 57.6415 27.4122C57.5968 27.4122 57.5968 27.3898 57.5968 27.3898Z" fill="#364454"/>
<defs>
<linearGradient id="paint0_linear_233_16867" x1="26.5801" y1="11.6328" x2="36.6903" y2="13.6728" gradientUnits="userSpaceOnUse">
<stop stop-color="#973AF5"/>
<stop offset="1" stop-color="#4CA6FE"/>
</linearGradient>
<linearGradient id="paint1_linear_233_16867" x1="14.6875" y1="26.0586" x2="33.2528" y2="27.9468" gradientUnits="userSpaceOnUse">
<stop stop-color="#973AF5"/>
<stop offset="1" stop-color="#4CA6FE"/>
</linearGradient>
<linearGradient id="paint2_linear_233_16867" x1="8.02734" y1="7.51807" x2="62.6243" y2="14.3709" gradientUnits="userSpaceOnUse">
<stop stop-color="#973AF5"/>
<stop offset="1" stop-color="#4CA6FE"/>
</linearGradient>
<linearGradient id="paint3_linear_233_16867" x1="46.418" y1="30.0439" x2="51.2471" y2="30.4623" gradientUnits="userSpaceOnUse">
<stop stop-color="#973AF5"/>
<stop offset="1" stop-color="#4CA6FE"/>
</linearGradient>
<linearGradient id="paint4_linear_233_16867" x1="8.83203" y1="8.64404" x2="61.3375" y2="15.4122" gradientUnits="userSpaceOnUse">
<stop stop-color="#973AF5"/>
<stop offset="1" stop-color="#4CA6FE"/>
</linearGradient>
<linearGradient id="paint5_linear_233_16867" x1="29.666" y1="13.1309" x2="39.7762" y2="15.1709" gradientUnits="userSpaceOnUse">
<stop stop-color="#973AF5"/>
<stop offset="1" stop-color="#4CA6FE"/>
</linearGradient>
<linearGradient id="paint6_linear_233_16867" x1="17.7734" y1="27.5791" x2="36.3388" y2="29.4673" gradientUnits="userSpaceOnUse">
<stop stop-color="#973AF5"/>
<stop offset="1" stop-color="#4CA6FE"/>
</linearGradient>
<linearGradient id="paint7_linear_233_16867" x1="11.1133" y1="9.01611" x2="65.7351" y2="15.8721" gradientUnits="userSpaceOnUse">
<stop stop-color="#973AF5"/>
<stop offset="1" stop-color="#4CA6FE"/>
</linearGradient>
<linearGradient id="paint8_linear_233_16867" x1="49.5273" y1="31.542" x2="54.3565" y2="31.9603" gradientUnits="userSpaceOnUse">
<stop stop-color="#973AF5"/>
<stop offset="1" stop-color="#4CA6FE"/>
</linearGradient>
<linearGradient id="paint9_linear_233_16867" x1="11.918" y1="10.1421" x2="64.4234" y2="16.9102" gradientUnits="userSpaceOnUse">
<stop stop-color="#973AF5"/>
<stop offset="1" stop-color="#4CA6FE"/>
</linearGradient>
</defs>
</svg>
