<svg width="161" height="156" viewBox="0 0 161 156" fill="none" xmlns="http://www.w3.org/2000/svg">
<path d="M79.9195 28.5934C83.0516 31.5234 79.2123 34.0493 76.2317 34.2513C73.9079 34.6555 71.382 34.5544 69.3108 35.8174C67.2396 36.9288 66.1282 40.0609 63.4508 39.8588C62.0363 39.7578 60.4197 38.8484 60.5713 37.2319C59.4094 35.8174 60.5207 33.6451 60.8744 32.0791C62.2383 27.7346 65.1684 25.6128 69.715 26.4716C73.1502 26.9263 77.1411 26.1685 79.9195 28.5934Z" fill="url(#paint0_linear_233_16907)"/>
<path d="M69.2609 90.4775C70.7259 92.1446 70.9785 94.5695 70.3723 96.6407C69.7156 99.8738 66.533 102.248 63.2493 102.046C61.5822 101.996 60.2183 100.985 58.6522 100.48C54.0551 100.531 53.9035 107.401 47.1342 106.896C44.7093 106.391 41.8298 105.633 40.3648 103.461C39.7586 101.794 39.9606 99.8233 38.9503 98.2573C38.1925 97.0448 36.677 96.7417 35.6666 95.7819C33.1913 93.4581 32.5345 89.5177 33.848 86.4361C35.2625 82.0916 38.1925 78.4038 42.0319 75.9284C43.5474 74.9686 45.3155 74.4129 46.3764 72.8974C46.9826 72.0386 46.6795 70.8767 46.7805 69.9168C46.7805 69.1591 46.8311 68.3508 46.9321 67.593C47.3868 63.2485 50.7714 59.005 55.3686 58.904C57.7429 58.7019 60.0667 59.6617 61.5317 61.5309C62.5421 62.6423 63.7545 63.6021 64.3102 65.0166C64.8659 66.5321 65.27 68.1992 64.8154 69.8158C66.5835 71.0282 64.0576 72.7963 63.704 74.1098C63.3503 75.1707 63.2998 75.979 63.5019 77.0398C63.6535 78.6564 63.805 80.273 64.0071 81.839C64.3607 83.8092 65.2195 85.6784 66.3814 87.2949C67.1897 88.5579 68.3011 89.4672 69.2609 90.4775Z" fill="url(#paint1_linear_233_16907)"/>
<path d="M123.113 75.0696C124.982 70.7251 127.457 66.229 126.396 61.3793V61.4298C125.942 58.9039 124.375 56.8327 123.163 54.5594C123.062 55.5192 122.86 56.4791 122.506 57.3884C121.344 61.0256 117.556 61.4803 114.272 60.8741C112.605 60.571 111.291 59.4091 109.978 58.4492C108.412 57.1863 106.745 55.9234 105.128 54.812C104.421 54.3573 103.764 53.7511 102.956 53.4985C100.329 53.0438 97.6516 54.4583 95.6814 56.1254C95.6814 56.1254 95.6309 56.1254 95.6309 56.1759C93.6102 57.9946 90.9328 59.308 88.1038 58.8534C85.2748 58.4492 82.2437 57.9441 80.122 55.7718C77.7476 53.2459 75.9795 49.9623 75.9795 46.4765C75.828 43.496 76.1311 40.0608 78.7075 38.0906C80.0209 37.1308 81.6375 36.8277 83.153 36.2214C86.6388 35.009 90.1245 33.443 92.5493 30.5635C91.741 31.0181 90.7307 30.3109 90.7812 29.4521C90.9327 28.2396 91.539 27.0777 92.1452 26.0169C92.3472 25.6127 92.5998 25.2086 92.9029 24.9055C91.3369 24.4003 89.7708 23.7436 89.1141 23.592C84.8201 22.0765 80.4756 20.763 75.9795 20.1063C71.3824 19.5506 65.977 18.6918 61.8851 21.4703C54.9641 25.1581 60.0159 31.1192 55.0652 34.5038C49.5082 37.2318 45.7699 30.1593 40.9202 28.6438C35.9695 27.3808 33.8982 30.6645 33.3931 35.1101C33.292 36.5751 33.3931 38.0401 33.4941 39.5051C34.1508 39.101 34.9086 38.9494 35.8179 39.202C39.6067 40.1113 44.709 41.7784 45.3152 46.224C45.0121 51.9325 41.88 58.3987 36.0705 60.2174C34.1508 60.7225 32.4332 61.3793 31.0693 62.8948C28.5434 65.1681 27.0784 71.7354 22.6328 69.3611C21.2688 68.5528 20.7131 67.2393 20.6121 65.8248H20.5616C20.41 65.8248 20.3595 65.7743 20.2585 65.6733C20.2079 65.9764 20.1574 66.2795 20.1069 66.5321C20.0059 67.3404 20.0059 68.1992 20.0059 69.0075C20.0059 69.7147 20.0564 70.4725 20.0564 71.1797C20.0564 71.4323 20.0564 71.6849 20.0564 71.7859C20.0564 72.2911 20.1069 72.7963 20.1574 73.2509C20.2079 73.453 20.2585 73.6046 20.309 73.8066C20.4605 74.3118 20.6626 74.817 20.9152 75.2716C21.1678 75.7768 21.4204 76.3325 21.6224 76.8377C21.875 77.4944 22.0771 78.1512 22.2792 78.8079C22.3802 79.111 22.4307 79.4141 22.4812 79.7172C22.5823 80.0708 22.6328 80.475 22.6833 80.8286C22.8349 81.5864 22.9359 82.2936 22.8854 83.0514C22.8854 83.3545 22.8349 83.6576 22.7843 83.9607C22.7843 84.1628 22.7338 84.3143 22.7338 84.5164C22.6328 85.2236 22.4812 85.9309 22.3802 86.6887C22.2287 87.3454 22.0771 88.0021 21.9761 88.6588C21.9255 89.2145 21.9255 89.7702 21.9255 90.3764C21.9255 90.629 21.9255 90.8311 21.9255 91.0332C21.9255 91.4373 21.9761 91.8415 22.0266 92.2456C22.0771 92.7003 22.1276 93.1044 22.1781 93.5591C22.3297 94.4684 22.5318 95.4282 22.7338 96.3375C22.9359 97.3479 23.1885 98.3583 23.4916 99.3181C23.5926 99.6717 23.7442 100.076 23.8452 100.429C23.9968 100.935 24.1988 101.389 24.3504 101.844C24.6535 102.652 25.0576 103.461 25.3608 104.269C25.5628 104.673 25.7144 105.077 25.9164 105.481C26.0175 105.683 26.1185 105.885 26.2196 106.087C26.3206 106.29 26.4721 106.492 26.5732 106.694C26.7247 106.946 26.9268 107.199 27.0784 107.401C27.2299 107.603 27.3815 107.805 27.533 108.007L27.5835 108.058C27.7856 108.26 27.9372 108.462 28.1392 108.714C28.5434 109.22 28.998 109.725 29.4527 110.179C29.7053 110.432 29.9073 110.685 30.1599 110.937C30.362 111.139 30.5641 111.341 30.7661 111.543C30.9682 111.695 31.1198 111.846 31.3218 111.998C31.4734 112.15 31.6755 112.251 31.8775 112.402C32.8879 113.109 33.9488 113.716 35.0602 114.372C36.121 114.928 37.1819 115.383 38.1923 115.938C38.7479 116.242 39.3036 116.595 39.8088 116.898C40.314 117.252 40.8192 117.606 41.1728 117.858C41.3749 118.01 41.5769 118.161 41.779 118.313C41.8295 118.363 41.9306 118.414 41.9306 118.414C41.9811 118.414 41.9811 118.464 42.0316 118.464C42.0316 118.464 42.0316 118.464 42.0821 118.515C42.1326 118.515 42.1326 118.565 42.1832 118.565C42.2337 118.565 42.2337 118.616 42.2337 118.616C42.5873 118.868 42.8904 119.071 43.244 119.273C43.3956 119.323 43.4966 119.424 43.6482 119.475C44.3554 119.727 45.0627 119.929 45.7699 120.131C46.1741 120.232 46.5277 120.283 46.8813 120.384C47.2349 120.435 47.5885 120.485 47.8411 120.536C47.8917 120.536 47.9927 120.536 48.0432 120.536C48.1442 120.536 48.1948 120.536 48.2958 120.586C48.5989 120.637 48.8515 120.637 49.1546 120.637C49.5587 120.687 49.9629 120.687 50.3165 120.738C50.6701 120.788 51.0238 120.889 51.3774 120.94C51.731 121.041 52.0846 121.091 52.4383 121.192C53.0445 121.344 53.7012 121.546 54.3074 121.748C54.6105 121.849 54.9641 121.95 55.2672 122.102C55.6209 122.253 55.9745 122.455 56.3281 122.607C56.6817 122.809 57.0354 122.96 57.4395 123.162C57.8436 123.365 58.2983 123.567 58.753 123.769C59.5612 124.122 60.2685 124.577 61.0263 124.981C61.582 125.284 62.1377 125.537 62.6428 125.84C63.148 126.092 63.6027 126.396 64.1078 126.648C64.4615 126.8 64.8151 127.002 65.1687 127.153C65.3203 127.204 65.4213 127.254 65.5729 127.305C65.2192 126.951 64.9161 126.598 64.613 126.244C61.5314 122.405 63.5016 117.555 66.6842 114.524C66.6337 114.574 66.6337 114.625 66.5832 114.625C69.7658 111.291 73.6052 108.563 77.9497 107.098C80.3746 106.34 83.2035 106.694 85.3253 105.027C86.2346 104.37 86.5377 103.258 86.6893 102.198C86.8408 100.682 86.8913 99.116 87.2955 97.651C88.0532 93.6096 92.2967 90.9321 96.2876 91.892C98.9146 92.2456 100.935 94.0137 103.209 95.1756C106.088 96.287 108.26 92.4477 110.231 90.8816C111.645 89.8208 112.352 88.0021 113.969 87.1938C114.272 86.4866 115.03 85.9309 115.787 85.8804C116.545 85.8299 117.202 86.1835 117.909 86.2845C118.97 86.5371 119.677 87.2444 120.081 88.1537C120.233 87.2949 120.385 86.4361 120.435 85.6278C120.738 82.041 121.698 78.5048 123.113 75.0696ZM127.71 58.2977C129.932 62.7433 128.973 67.9971 127.002 72.2911C125.285 76.0294 123.719 79.6162 123.113 83.7081C122.86 85.0216 122.759 86.335 122.607 87.6485C122.405 89.3156 121.9 90.9321 121.698 92.5487C121.445 94.2158 121.749 97.7015 120.789 99.6212C120.738 99.9748 120.637 100.328 120.536 100.733C119.829 103.511 118.465 106.087 117.101 108.563C114.878 112.503 112.15 117.504 107.199 118.161C102.299 118.515 97.298 119.121 92.9535 121.546C88.1543 124.173 81.8901 130.589 76.1816 131.397C75.5248 131.852 74.7671 132.205 73.9588 132.054C73.3021 131.953 72.4433 131.7 72.1907 131.144C71.9886 131.094 71.7865 131.043 71.5845 130.993C71.3319 131.195 71.0288 131.346 70.7257 131.346C70.6246 131.346 70.4731 131.346 70.372 131.296C69.5638 131.043 68.7555 130.791 67.9472 130.589C67.6946 130.538 67.442 130.488 67.1894 130.437C66.8863 130.387 66.5327 130.336 66.2296 130.235C65.6234 130.083 65.0172 129.881 64.4615 129.679C63.8553 129.427 63.249 129.174 62.6428 128.82C62.0871 128.517 61.5314 128.214 61.0768 127.911C60.7232 127.709 60.3695 127.558 60.0159 127.406C59.6118 127.204 59.2076 126.951 58.9045 126.8C58.2983 126.497 57.6921 126.143 57.0859 125.89C56.4291 125.587 55.7724 125.284 55.3178 125.032L55.1662 124.981C55.0652 124.931 54.9641 124.88 54.9641 124.88C54.8126 124.779 54.6105 124.729 54.459 124.627C53.2971 124.173 52.1351 123.87 50.9732 123.567C50.5186 123.466 50.1144 123.365 49.6598 123.314C48.3463 123.213 47.0329 123.162 45.7699 122.859C45.1132 122.708 44.4059 122.506 43.7492 122.304C43.3451 122.152 42.9409 122.051 42.5873 121.9C42.0821 121.697 41.6275 121.394 41.2233 121.091C41.1728 121.041 41.0718 120.99 41.0212 120.94C40.6171 120.637 40.2635 120.333 39.8593 120.081C38.8995 119.374 37.8891 118.818 36.8788 118.212C36.4241 117.959 35.919 117.707 35.4643 117.504C34.9591 117.252 34.4539 117.05 33.9993 116.797C33.9993 116.797 33.9993 116.797 33.9488 116.797C33.8982 116.797 33.8982 116.747 33.8477 116.747C33.191 116.393 32.5343 116.039 31.8775 115.635C31.5239 115.433 31.1703 115.181 30.8167 114.928C30.463 114.675 30.1094 114.423 29.8063 114.17C29.5032 113.968 29.2506 113.716 28.998 113.463C28.6949 113.16 28.3918 112.857 28.0887 112.554C27.5835 112.049 27.1289 111.493 26.6237 110.937C26.4721 110.786 26.3711 110.634 26.3206 110.584C26.068 110.28 25.7649 109.927 25.5123 109.624C25.3608 109.472 25.2092 109.27 25.1082 109.119C24.9566 108.967 24.8556 108.765 24.704 108.563C24.4514 108.209 24.2494 107.805 23.9968 107.451C23.8957 107.3 23.8452 107.148 23.7442 106.997C23.6431 106.795 23.5421 106.643 23.5421 106.593C23.4916 106.542 23.4916 106.492 23.4916 106.441C23.3906 106.188 23.2895 105.986 23.239 105.885C22.8854 105.128 22.5823 104.37 22.2792 103.612C21.9761 102.905 21.7235 102.198 21.4709 101.49C21.2183 100.733 21.0162 99.9748 20.7636 99.2171C20.6626 98.8634 20.5616 98.4593 20.5111 98.1057C20.41 97.752 20.3595 97.3984 20.2585 96.9943C20.1069 96.287 19.9554 95.5798 19.8543 94.9736C19.7533 94.5189 19.7028 94.0137 19.6523 93.5591C19.6017 93.2054 19.5512 92.8013 19.5512 92.4477C19.5007 92.0435 19.5007 91.6394 19.5007 91.2858C19.5007 90.8816 19.5007 90.427 19.5007 90.0228C19.5007 89.2651 19.6017 88.5073 19.7533 87.8C19.9048 87.0928 20.0564 86.335 20.2079 85.5773C20.2585 85.2236 20.3595 84.8195 20.41 84.4659C20.4605 84.1628 20.5111 83.8597 20.5111 83.6071C20.5111 83.405 20.5616 83.1524 20.5616 82.9503C20.5616 82.6472 20.5111 82.3441 20.4605 82.041C20.3595 81.5358 20.309 81.0307 20.2079 80.475C20.1069 79.9698 20.0059 79.4646 19.8543 79.01C19.7533 78.7069 19.6522 78.4038 19.5512 78.1006C19.3997 77.747 19.2986 77.3934 19.1471 76.9892C19.046 76.6861 18.8945 76.383 18.7934 76.0799C18.5914 75.5748 18.4398 75.0696 18.2883 74.5644C18.1367 73.9077 18.1367 73.2509 18.1367 72.5942C18.1367 72.1901 18.1872 71.7859 18.2378 71.4323C18.2883 70.624 18.3893 69.8662 18.4398 69.159C18.4903 68.8054 18.5409 68.4518 18.5914 68.0981C18.6419 67.694 18.7429 67.2898 18.844 66.8857C18.945 66.5321 19.046 66.229 19.1976 65.9259C19.3491 65.6228 19.5512 65.3702 19.9048 65.2186C20.0564 65.1681 20.2585 65.1681 20.3595 65.2691C20.4605 65.3702 20.4605 65.4712 20.5111 65.5722C20.5111 65.5722 20.5111 65.5722 20.5111 65.6228C20.5616 65.6228 20.5616 65.6228 20.5616 65.6228C20.5616 65.1176 20.5616 64.6124 20.6626 64.1072C20.7636 62.1876 21.4709 60.3184 22.3297 58.6008C23.138 56.8832 24.502 55.4182 25.9164 54.2563C27.7351 52.7913 29.8568 51.3768 30.4125 48.9519C30.7156 47.5374 30.5641 46.1229 30.8672 44.7084C31.0187 43.7991 31.2713 42.7382 31.6755 41.7784C31.6249 41.7279 31.5744 41.7279 31.5239 41.6774C31.2713 41.4753 31.1198 41.1722 31.0693 40.8691C30.9177 39.6566 30.8672 38.4442 30.8167 37.2823C30.463 32.5337 32.8374 25.9158 38.3943 25.9158C39.5562 25.9158 40.7181 25.9663 41.8295 26.32C43.3956 26.8251 44.8101 27.8355 46.1741 28.7448C47.5885 29.8562 48.902 31.1697 50.5691 31.978C53.7517 33.6956 55.4693 31.7254 55.3178 28.4922C55.5198 23.0868 58.0457 20.5104 62.5923 18.1866C67.1389 16.4185 72.1907 16.9237 76.8888 17.6814C83.2035 18.6413 89.1141 21.1166 94.9237 23.693C95.934 23.491 96.9949 23.693 98.0558 24.4003C99.2177 25.2086 100.127 26.32 101.087 27.3303C102.552 29.25 104.421 30.7655 106.29 32.2811C107.25 33.1399 108.21 33.9987 109.22 34.7564C112.706 37.2823 116.646 39.5051 119.273 42.9908C120.738 44.86 121.951 47.0828 122.607 49.4066C122.86 49.4571 122.961 49.8612 123.062 50.0633C123.163 50.3664 123.264 50.6695 123.365 50.9221C123.416 51.0231 123.264 51.1242 123.214 51.0737C124.527 53.5995 126.497 55.7213 127.71 58.2977Z" fill="url(#paint2_linear_233_16907)"/>
<path d="M114.019 74.8169C115.282 77.5448 114.575 81.9904 111.089 82.445C109.826 82.6471 108.513 82.3945 107.503 81.6368C104.421 79.0604 104.471 73.756 105.532 70.1692C104.825 69.3104 105.684 67.997 106.745 68.199C107.553 67.5423 108.513 67.997 109.119 68.7042C110.23 69.1084 111.089 69.9166 111.746 70.927C112.605 72.1394 113.464 73.4024 114.019 74.8169Z" fill="url(#paint3_linear_233_16907)"/>
<path d="M70.3718 96.6914C70.978 94.6201 70.7254 92.1953 69.2604 90.5282C68.3005 89.4673 67.2397 88.558 66.2798 87.4971C65.1179 85.8806 64.3096 83.9609 63.9055 82.0412C63.6529 80.4247 63.5519 78.8081 63.4003 77.242C63.1982 76.1812 63.2993 75.3729 63.6024 74.312C64.0065 72.9986 66.4819 71.2304 64.7138 70.018C65.1684 68.4014 64.7643 66.7849 64.2086 65.2188C63.6529 63.8043 62.4405 62.8445 61.4301 61.7331C59.9651 59.8134 57.6413 58.8536 55.267 59.1062C50.6698 59.2072 47.2852 63.4507 46.8305 67.7952C46.7295 68.553 46.7295 69.3108 46.6789 70.119C46.5779 71.1294 46.881 72.2408 46.2748 73.0996C45.2139 74.5646 43.3953 75.1708 41.9303 76.1306C38.0909 78.5555 35.2114 82.2938 33.7464 86.6383C32.433 89.7199 33.0897 93.6603 35.5651 95.9841C36.5754 96.944 38.0909 97.2471 38.8487 98.4595C39.9096 100.026 39.7075 101.945 40.2632 103.663C41.7282 105.835 44.6077 106.593 47.0326 107.098C53.8019 107.603 53.9535 100.733 58.5506 100.682C60.1167 101.137 61.4806 102.198 63.1477 102.248C66.5324 102.299 69.715 99.9245 70.3718 96.6914ZM76.2318 34.2515C79.1618 34.0494 83.0517 31.5235 79.9196 28.5935C77.1411 26.1686 73.1502 26.9264 69.7655 26.5222C65.1684 25.6634 62.2889 27.7852 60.9249 32.1297C60.5713 33.6958 59.4094 35.868 60.6218 37.2825C60.4703 38.8991 62.0869 39.7579 63.5013 39.9094C66.1283 40.1115 67.2397 36.9794 69.3614 35.868C71.3821 34.5546 73.908 34.6556 76.2318 34.2515ZM111.089 82.3949C114.625 81.9402 115.282 77.5451 114.019 74.7667C113.463 73.3522 112.554 72.0892 111.746 70.8263C111.089 69.8665 110.23 69.0077 109.119 68.6035C108.513 67.9468 107.553 67.4416 106.745 68.0983C105.684 67.8963 104.825 69.2097 105.532 70.0685C104.471 73.6553 104.421 78.9596 107.502 81.536C108.513 82.3948 109.826 82.6474 111.089 82.3949ZM126.396 61.3795C127.457 66.2292 124.981 70.7758 123.112 75.0698C121.698 78.505 120.738 82.0412 120.384 85.729C120.334 86.5878 120.182 87.4466 120.031 88.2549C119.576 87.3961 118.919 86.6889 117.858 86.3857C117.151 86.2847 116.444 85.9311 115.737 85.9816C114.979 86.0321 114.221 86.5373 113.918 87.2951C112.301 88.1034 111.594 89.8715 110.18 90.9829C108.26 92.5994 106.088 96.4388 103.158 95.2769C100.884 94.0644 98.8637 92.3468 96.2368 91.9932C92.2459 91.0334 88.053 93.7613 87.2447 97.7522C86.8405 99.2173 86.79 100.783 86.6385 102.299C86.5374 103.36 86.2343 104.522 85.2745 105.128C83.1527 106.744 80.3237 106.391 77.8989 107.199C73.5544 108.715 69.6645 111.392 66.5324 114.726C66.5829 114.676 66.5829 114.625 66.6334 114.625C63.4508 117.656 61.4806 122.506 64.5622 126.345C64.8653 126.699 65.1684 127.053 65.5221 127.406C65.421 127.356 65.2695 127.305 65.1179 127.255C64.7643 127.103 64.4107 126.951 64.057 126.749C63.5519 126.446 63.0972 126.194 62.592 125.941C62.0363 125.638 61.5312 125.385 60.9755 125.082C60.2682 124.678 59.5104 124.224 58.7022 123.87C58.298 123.668 57.8434 123.466 57.3887 123.264C57.0351 123.112 56.6815 122.91 56.2773 122.708C55.9237 122.506 55.5701 122.304 55.2164 122.203C54.9133 122.102 54.5597 121.95 54.2566 121.849C53.6504 121.647 52.9937 121.445 52.3874 121.294C52.0338 121.192 51.6802 121.091 51.3266 121.041C50.973 120.94 50.6193 120.889 50.2657 120.839C49.8616 120.788 49.4574 120.738 49.1038 120.738C48.8007 120.738 48.5481 120.687 48.245 120.687C48.144 120.687 48.0934 120.687 47.9924 120.637C47.9419 120.637 47.8409 120.637 47.7903 120.637C47.5377 120.586 47.1841 120.536 46.8305 120.485C46.4264 120.435 46.0727 120.334 45.7191 120.233C45.0119 120.031 44.3046 119.828 43.5974 119.576C43.4458 119.525 43.3448 119.475 43.1932 119.374C42.8396 119.172 42.486 118.919 42.1829 118.717L42.1324 118.667C42.1324 118.667 42.0818 118.616 42.0313 118.616C42.0313 118.616 42.0313 118.616 41.9808 118.566C41.9303 118.566 41.9303 118.515 41.8798 118.515C41.8798 118.515 41.7787 118.465 41.7282 118.414C41.5261 118.262 41.3241 118.111 41.122 117.959C40.7684 117.707 40.2632 117.303 39.758 116.999C39.2023 116.646 38.6972 116.343 38.1415 116.04C37.1311 115.433 36.0197 115.029 35.0094 114.474C33.9485 113.867 32.8371 113.211 31.8267 112.503C31.6247 112.352 31.4731 112.251 31.271 112.099C31.069 111.948 30.9174 111.796 30.7154 111.645C30.5133 111.443 30.3112 111.24 30.1091 111.038C29.8565 110.786 29.6545 110.533 29.4019 110.281C28.9472 109.775 28.5431 109.321 28.0884 108.816C27.9369 108.614 27.7348 108.411 27.5327 108.159L27.4822 108.108C27.3307 107.906 27.1791 107.704 27.0276 107.502C26.876 107.25 26.6739 106.997 26.5224 106.795C26.4213 106.593 26.2698 106.391 26.1688 106.189C26.0677 105.987 25.9667 105.785 25.8657 105.582C25.6636 105.178 25.4615 104.774 25.31 104.37C25.0068 103.562 24.6027 102.753 24.2996 101.945C24.0975 101.491 23.946 100.985 23.7944 100.531C23.6429 100.177 23.5418 99.7729 23.4408 99.4193C23.1377 98.409 22.9356 97.4491 22.683 96.4388C22.481 95.5295 22.2789 94.5696 22.1273 93.6603C22.0768 93.2056 22.0263 92.8015 21.9758 92.3468C21.9253 91.9427 21.8748 91.5386 21.8748 91.1344C21.8748 90.9323 21.8748 90.6798 21.8748 90.4777C21.8748 89.922 21.8748 89.3663 21.9253 88.7601C22.0263 88.1033 22.1779 87.4466 22.3294 86.7899C22.481 86.0826 22.582 85.3754 22.683 84.6176C22.7336 84.4156 22.7336 84.264 22.7336 84.0619C22.7841 83.7588 22.7841 83.4557 22.8346 83.1526C22.8346 82.3949 22.7336 81.6371 22.6325 80.9298C22.582 80.5257 22.481 80.1721 22.4304 79.8184C22.3799 79.5153 22.2789 79.2122 22.2284 78.9091C22.0263 78.2524 21.8242 77.5957 21.5716 76.9389C21.3696 76.3832 21.117 75.8781 20.8644 75.3729C20.6623 74.8677 20.4097 74.413 20.2582 73.9079C20.2077 73.7058 20.1571 73.5542 20.1066 73.3522C20.0561 72.847 20.0056 72.3923 20.0056 71.8872C20.0056 71.7861 20.0056 71.5335 20.0056 71.281C20.0056 70.5737 19.9551 69.8159 19.9551 69.1087C19.9551 68.3004 19.9551 67.4416 20.0561 66.6333C20.1066 66.3807 20.1571 66.0776 20.2077 65.7745C20.3087 65.8756 20.3592 65.9261 20.5108 65.9261H20.5613C20.6623 67.3406 21.218 68.654 22.582 69.4623C27.0276 71.8366 28.4926 65.2693 31.0185 62.996C32.3824 61.531 34.1 60.8238 36.0197 60.3186C41.8292 58.5 44.9613 52.0337 45.2645 46.3252C44.7088 41.8796 39.556 40.2125 35.7671 39.3032C34.8578 39.0506 34.1 39.2022 33.4433 39.6063C33.3423 38.1413 33.2412 36.6763 33.3423 35.2113C33.898 30.7657 35.9692 27.4821 40.8694 28.745C45.7191 30.2606 49.4574 37.333 55.1659 34.504C60.1167 31.1194 55.0144 25.1583 61.9858 21.4705C66.0272 18.692 71.4326 19.5508 76.0803 20.1065C80.5763 20.7632 84.9209 22.0767 89.2149 23.5922C89.8716 23.7438 91.4376 24.4005 93.0037 24.9057C92.7006 25.2088 92.448 25.5624 92.2459 26.0171C91.6397 27.0779 91.0335 28.2398 90.8819 29.4523C90.8314 30.3616 91.8418 31.0183 92.6501 30.5637C90.2252 33.4432 86.79 35.0597 83.2538 36.2216C81.7888 36.8279 80.1217 37.131 78.8082 38.0908C76.2318 40.061 75.9287 43.4962 76.0803 46.4767C76.0803 49.9625 77.8484 53.2966 80.2227 55.772C82.2939 57.9443 85.325 58.4494 88.2045 58.8536C90.983 59.3082 93.6604 57.9948 95.7316 56.1761C95.7316 56.1761 95.7822 56.1761 95.7822 56.1256C97.7524 54.5091 100.379 53.0441 103.057 53.4987C103.865 53.8018 104.522 54.3575 105.229 54.8122C106.846 55.9236 108.513 57.237 110.079 58.4494C111.392 59.4093 112.706 60.5712 114.373 60.8743C117.656 61.43 121.445 61.0258 122.607 57.3886C122.961 56.4793 123.163 55.5194 123.264 54.5596C124.426 56.7824 125.992 58.9041 126.497 61.43C126.396 61.43 126.396 61.3795 126.396 61.3795Z" fill="url(#paint4_linear_233_16907)"/>
<path d="M86.8902 31.9776C90.0223 34.9077 86.183 37.4335 83.2024 37.6356C80.8786 38.0398 78.3527 37.9387 76.2815 39.2017C74.2103 40.3131 73.0989 43.4452 70.4215 43.2431C69.007 43.1421 67.3904 42.2327 67.542 40.6162C66.3801 39.2017 67.4914 37.0294 67.8451 35.4634C69.209 31.1188 72.1391 28.9971 76.6857 29.8559C80.1209 30.3105 84.1118 29.6033 86.8902 31.9776Z" fill="url(#paint5_linear_233_16907)"/>
<path d="M76.2316 93.9121C77.6966 95.5792 77.9492 98.0041 77.343 100.075C76.6863 103.308 73.5037 105.683 70.22 105.481C68.5529 105.43 67.189 104.42 65.6229 103.915C61.0258 103.965 60.8742 110.836 54.1049 110.33C51.68 109.825 48.8005 109.067 47.3355 106.895C46.7293 105.228 46.9313 103.258 45.921 101.692C45.1632 100.479 43.6477 100.176 42.6373 99.2165C40.162 96.8927 39.5052 92.9523 40.8187 89.8707C42.2332 85.5262 45.1632 81.8384 49.0026 79.363C50.5181 78.4032 52.2862 77.8475 53.3471 76.332C53.9533 75.4731 53.6502 74.3112 53.7512 73.3514C53.7512 72.5936 53.8018 71.7854 53.9028 71.0276C54.3575 66.6831 57.7421 62.4396 62.3393 62.3385C64.7136 62.1365 67.0374 63.0963 68.5529 64.9655C69.5633 66.0769 70.7757 67.0367 71.3314 68.4512C71.8871 69.9667 72.2912 71.6338 71.8366 73.2504C73.6047 74.4628 71.0788 76.2309 70.7252 77.5444C70.3716 78.6052 70.3211 79.4135 70.5231 80.4744C70.6747 82.091 70.8262 83.7075 71.0283 85.2736C71.3819 87.2438 72.2407 89.1129 73.4026 90.7295C74.1604 91.9419 75.2718 92.8512 76.2316 93.9121Z" fill="url(#paint6_linear_233_16907)"/>
<path d="M130.083 78.5044C131.952 74.1598 134.428 69.6638 133.367 64.8141V64.8646C132.912 62.3387 131.346 60.2675 130.134 57.9942C130.033 58.954 129.831 59.9138 129.477 60.8232C128.315 64.4604 124.526 64.9151 121.243 64.3089C119.576 64.0058 118.262 62.8439 116.949 61.884C115.383 60.6211 113.715 59.3581 112.099 58.2468C111.392 57.7921 110.735 57.1859 109.927 56.9333C107.3 56.4786 104.622 57.8931 102.652 59.5602C102.652 59.5602 102.602 59.5602 102.602 59.6107C100.581 61.4294 97.9034 62.7428 95.0745 62.2882C92.2455 61.884 89.2144 61.3789 87.0927 59.2066C84.7183 56.6807 82.9502 53.3971 82.9502 49.9113C82.7987 46.9308 83.1018 43.4956 85.6782 41.5254C86.9916 40.5656 88.6082 40.2624 90.1237 39.6562C93.6094 38.4438 97.0952 36.8778 99.52 33.9982C98.7117 34.4529 97.7014 33.7457 97.7519 32.8869C97.9034 31.6744 98.5097 30.5125 99.1159 29.4517C99.3179 29.0475 99.5705 28.6434 99.8736 28.3403C98.3076 27.8351 96.7415 27.1784 96.0848 27.0268C91.7908 25.5113 87.4463 24.1978 82.9502 23.5411C78.3531 22.9854 72.9477 22.1266 68.8558 24.9051C61.9348 28.5929 66.9866 34.5539 62.0359 37.9386C56.3274 40.7676 52.6396 33.6951 47.7394 32.1796C42.7886 30.9167 40.7174 34.2003 40.2122 38.6459C40.1112 40.1109 40.2122 41.5759 40.3133 43.0409C40.97 42.6368 41.7278 42.4852 42.6371 42.7378C46.4259 43.6471 51.5282 45.3142 52.1344 49.7598C51.8313 55.4683 48.6992 61.9345 42.8897 63.7532C40.97 64.2584 39.2524 64.9151 37.8884 66.4306C35.3625 68.7039 33.8975 75.2712 29.4519 72.8969C28.088 72.0886 27.5323 70.7752 27.4312 69.3607H27.3807C27.2292 69.3607 27.1786 69.3101 27.0776 69.2091C27.0271 69.5122 26.9766 69.8153 26.9261 70.0679C26.825 70.8762 26.825 71.735 26.825 72.5433C26.825 73.2505 26.8755 74.0083 26.8755 74.7155C26.8755 74.9681 26.8755 75.2207 26.8755 75.3217C26.8755 75.8269 26.9261 76.3321 26.9766 76.7868C27.0271 76.9888 27.0776 77.1404 27.1281 77.3425C27.2797 77.8476 27.4818 78.3528 27.7343 78.8075C27.9869 79.3126 28.2395 79.8683 28.4416 80.3735C28.6942 81.0303 28.8962 81.687 29.0983 82.3437C29.1994 82.6468 29.2499 82.9499 29.3004 83.253C29.4014 83.6067 29.4519 84.0108 29.5025 84.3644C29.654 85.1222 29.7551 85.8294 29.7045 86.5872C29.7045 86.8903 29.654 87.1934 29.6035 87.4965C29.6035 87.6986 29.553 87.8501 29.553 88.0522C29.4519 88.7595 29.3004 89.4667 29.1994 90.2245C29.0478 90.8812 28.8963 91.5379 28.7952 92.1947C28.7447 92.7504 28.7447 93.3061 28.7447 93.9123C28.7447 94.1649 28.7447 94.3669 28.7447 94.569C28.7447 94.9731 28.7952 95.3773 28.8457 95.7814C28.8962 96.2361 28.9468 96.6402 28.9973 97.0949C29.1488 98.0042 29.3509 98.964 29.553 99.8734C29.7551 100.884 30.0076 101.894 30.3107 102.854C30.4118 103.208 30.5633 103.612 30.6644 103.965C30.8159 104.47 31.018 104.925 31.1695 105.38C31.4727 106.188 31.8768 106.996 32.1799 107.805C32.382 108.209 32.5335 108.613 32.7356 109.017C32.8366 109.219 32.9377 109.421 33.0387 109.623C33.1397 109.825 33.2913 110.027 33.3923 110.229C33.5439 110.482 33.7459 110.735 33.8975 110.937C34.0491 111.139 34.2006 111.341 34.3522 111.543L34.4027 111.593C34.6048 111.796 34.7563 111.998 34.9584 112.25C35.3625 112.755 35.8172 113.261 36.2718 113.715C36.5244 113.968 36.7265 114.22 36.9791 114.473C37.1812 114.675 37.3832 114.877 37.5853 115.079C37.7874 115.231 37.9389 115.382 38.141 115.534C38.2925 115.685 38.4946 115.786 38.6967 115.938C39.707 116.645 40.7679 117.251 41.8793 117.908C42.9402 118.464 44.001 118.919 45.0114 119.474C45.5671 119.777 46.1228 120.131 46.628 120.434C47.1331 120.788 47.6383 121.141 47.9919 121.394C48.194 121.545 48.3961 121.697 48.5982 121.849C48.6487 121.899 48.7497 121.95 48.7497 121.95C48.8002 121.95 48.8002 122 48.8507 122C48.8507 122 48.8507 122 48.9013 122.051C48.9518 122.051 48.9518 122.101 49.0023 122.101C49.0528 122.101 49.0528 122.152 49.0528 122.152C49.4064 122.404 49.7095 122.606 50.0632 122.808C50.2147 122.859 50.3158 122.96 50.4673 123.01C51.1746 123.263 51.8818 123.465 52.5891 123.667C52.9932 123.768 53.3468 123.819 53.7004 123.92C54.0541 123.97 54.4077 124.021 54.6603 124.071C54.7108 124.071 54.8118 124.071 54.8624 124.071C54.9634 124.071 55.0139 124.071 55.1149 124.122C55.418 124.172 55.6706 124.172 55.9737 124.172C56.3779 124.223 56.782 124.223 57.1357 124.273C57.4893 124.324 57.8429 124.425 58.1965 124.475C58.5501 124.577 58.9038 124.627 59.2574 124.728C59.8636 124.88 60.5203 125.082 61.1266 125.284C61.4297 125.385 61.7833 125.486 62.0864 125.637C62.44 125.789 62.7936 125.991 63.1473 126.143C63.5009 126.345 63.8545 126.496 64.2587 126.698C64.6628 126.9 65.1175 127.102 65.5721 127.304C66.3804 127.658 67.0876 128.113 67.8454 128.517C68.4011 128.82 68.9568 129.073 69.462 129.376C69.9672 129.628 70.4218 129.931 70.927 130.184C71.2806 130.336 71.6342 130.538 71.9879 130.689C72.1394 130.74 72.2405 130.79 72.392 130.841C72.0384 130.487 71.7353 130.133 71.4322 129.78C68.3506 125.94 70.3208 121.091 73.5034 118.06C73.4529 118.11 73.4529 118.161 73.4024 118.161C76.585 114.827 80.4243 112.099 84.7688 110.634C87.1937 109.876 90.0227 110.229 92.1444 108.562C93.0537 107.906 93.3569 106.794 93.5084 105.733C93.66 104.218 93.7105 102.652 94.1146 101.187C94.8724 97.1454 99.1159 94.468 103.107 95.4278C105.734 95.7814 107.754 97.5495 110.028 98.7114C112.907 99.8228 115.079 95.9835 117.05 94.4174C118.464 93.3566 119.171 91.5379 120.788 90.7297C121.091 90.0224 121.849 89.4667 122.607 89.4162C123.364 89.3657 124.021 89.7193 124.728 89.8203C125.789 90.0729 126.496 90.7802 126.901 91.6895C127.052 90.8307 127.204 89.9719 127.254 89.1636C127.759 85.4758 128.669 81.889 130.083 78.5044ZM134.731 61.7325C136.954 66.178 135.994 71.4319 134.024 75.7259C132.306 79.4642 130.74 83.051 130.134 87.1429C129.881 88.4564 129.78 89.7698 129.629 91.0833C129.427 92.7504 128.921 94.3669 128.719 95.9835C128.467 97.6506 128.77 101.136 127.81 103.056C127.759 103.41 127.658 103.763 127.557 104.167C126.85 106.946 125.486 109.522 124.122 111.998C121.899 115.938 119.171 120.939 114.221 121.596C109.32 121.95 104.319 122.556 99.9747 124.981C95.1755 127.608 88.9113 134.023 83.2028 134.832C82.5461 135.286 81.7883 135.64 80.98 135.488C80.3233 135.387 79.4645 135.135 79.2119 134.579C79.0098 134.529 78.8078 134.478 78.6057 134.427C78.3531 134.63 78.05 134.781 77.7469 134.781C77.6458 134.781 77.4943 134.781 77.3933 134.731C76.585 134.478 75.7767 134.225 74.9684 134.023C74.7158 133.973 74.4632 133.922 74.2106 133.872C73.9075 133.821 73.5539 133.771 73.2508 133.67C72.6446 133.518 72.0384 133.316 71.4827 133.114C70.8765 132.861 70.2703 132.609 69.664 132.255C69.1083 131.952 68.5527 131.649 68.098 131.346C67.7444 131.144 67.3907 130.992 67.0371 130.841C66.633 130.639 66.2288 130.386 65.9257 130.235C65.3195 129.931 64.7133 129.578 64.1071 129.325C63.4504 129.022 62.7936 128.719 62.339 128.466L62.1369 128.315C62.0359 128.264 61.9348 128.214 61.9348 128.214C61.7833 128.113 61.5812 128.062 61.4297 127.961C60.2677 127.507 59.1058 127.203 57.9439 126.9C57.4893 126.799 57.0851 126.698 56.6305 126.648C55.317 126.547 54.0036 126.496 52.7406 126.193C52.0839 126.042 51.3766 125.839 50.7199 125.637C50.3158 125.486 49.9116 125.385 49.558 125.233C49.0528 125.031 48.5982 124.728 48.194 124.425C48.1435 124.374 48.0425 124.324 47.9919 124.273C47.5878 123.97 47.2342 123.667 46.83 123.415C45.8702 122.707 44.8598 122.152 43.8495 121.545C43.3948 121.293 42.8897 121.04 42.435 120.838C41.9298 120.586 41.4246 120.384 40.97 120.131C40.97 120.131 40.97 120.131 40.9195 120.131C40.8689 120.131 40.8689 120.08 40.8184 120.08C40.1617 119.727 39.505 119.373 38.8482 118.969C38.4946 118.767 38.141 118.514 37.7874 118.262C37.4337 118.009 37.0801 117.757 36.777 117.504C36.4739 117.302 36.2213 117.049 35.9687 116.797C35.6656 116.494 35.3625 116.191 35.0594 115.887C34.5542 115.382 34.0996 114.827 33.5944 114.271C33.4428 114.119 33.3418 113.968 33.2913 113.917C33.0387 113.614 32.7356 113.261 32.483 112.957C32.3315 112.806 32.1799 112.604 32.0789 112.452C31.9273 112.301 31.8263 112.099 31.6747 111.897C31.4221 111.543 31.2201 111.139 30.9675 110.785C30.8664 110.634 30.8159 110.482 30.7149 110.331C30.6139 110.128 30.5128 109.977 30.5128 109.926C30.4623 109.876 30.4623 109.825 30.4623 109.775C30.3613 109.522 30.2602 109.32 30.2097 109.219C29.8561 108.461 29.553 107.704 29.2499 106.946C28.9468 106.239 28.6942 105.531 28.4416 104.824C28.189 104.066 27.9869 103.309 27.7343 102.551C27.6333 102.197 27.5323 101.793 27.4818 101.439C27.3807 101.086 27.3302 100.732 27.2292 100.328C27.0776 99.6208 26.9261 98.9135 26.825 98.3073C26.724 97.8527 26.6735 97.3475 26.623 96.8928C26.5724 96.5392 26.5219 96.135 26.5219 95.7814C26.4714 95.3773 26.4714 94.9731 26.4714 94.6195C26.4714 94.2154 26.4714 93.7607 26.4714 93.3566C26.4714 92.5988 26.5724 91.841 26.724 91.1338C26.8755 90.4265 27.0271 89.6688 27.1786 88.911C27.2292 88.5574 27.3302 88.1532 27.3807 87.7996C27.4312 87.4965 27.4818 87.1934 27.4818 86.9408C27.4818 86.7388 27.5323 86.4862 27.5323 86.2841C27.5323 85.981 27.4818 85.6779 27.4312 85.3748C27.3302 84.8696 27.2797 84.3644 27.1786 83.8087C27.0776 83.3035 26.9766 82.7984 26.825 82.3437C26.724 82.0406 26.623 81.7375 26.5219 81.4344C26.3704 81.0808 26.2693 80.7271 26.1178 80.323C26.0167 80.0199 25.8652 79.7168 25.7642 79.4137C25.5621 78.9085 25.4105 78.4033 25.259 77.8981C25.1074 77.2414 25.1074 76.5847 25.1074 75.928C25.1074 75.5238 25.1579 75.1197 25.2085 74.7661C25.259 73.9578 25.36 73.2 25.4105 72.4928C25.461 72.1391 25.5116 71.7855 25.5621 71.4319C25.6126 71.0277 25.7136 70.6236 25.8147 70.2195C25.9157 69.8658 26.0167 69.5627 26.1683 69.2596C26.3198 68.9565 26.5219 68.7039 26.8755 68.5524C27.0271 68.5019 27.2292 68.5019 27.3302 68.6029C27.4312 68.7039 27.4312 68.805 27.4818 68.906C27.4818 68.906 27.4818 68.906 27.4818 68.9565C27.5323 68.9565 27.5323 68.9565 27.5323 68.9565C27.5323 68.4513 27.5323 67.9462 27.6333 67.441C27.7343 65.5213 28.4416 63.6521 29.3004 61.9345C30.1087 60.2169 31.4727 58.7519 32.8871 57.59C34.7058 56.125 36.8275 54.7105 37.3832 52.2857C37.6863 50.8712 37.5348 49.4567 37.8379 48.0422C37.9894 47.1329 38.242 46.072 38.6462 45.1121C38.5957 45.0616 38.5451 45.0616 38.4946 45.0111C38.242 44.809 38.0905 44.5059 38.04 44.2028C37.8884 42.9904 37.8379 41.778 37.7874 40.6161C37.3832 35.8674 39.7576 29.3001 45.3145 29.3001C46.4764 29.3001 47.6383 29.3506 48.7497 29.7042C50.3158 30.2094 51.7303 31.2198 53.0942 32.1291C54.5087 33.2405 55.8222 34.5539 57.4893 35.3622C60.6719 37.0798 62.3895 35.1096 62.2379 31.8765C62.44 26.4711 64.9659 23.8947 69.5125 21.5709C74.0591 19.8028 79.1109 20.3079 83.809 21.0657C90.1237 22.0255 96.0343 24.5009 101.844 27.0773C102.854 26.8752 103.915 27.0773 104.976 27.7846C106.138 28.5929 107.047 29.7042 108.007 30.7146C109.472 32.6343 111.341 34.1498 113.21 35.6653C114.17 36.5241 115.13 37.3829 116.14 38.1407C119.626 40.6666 123.566 42.8894 126.193 46.3751C127.658 48.2442 128.871 50.467 129.528 52.7908C129.78 52.8414 129.881 53.2455 129.982 53.4476C130.083 53.7507 130.184 54.0538 130.285 54.3064C130.336 54.4074 130.184 54.5084 130.134 54.4579C131.498 56.9838 133.468 59.1561 134.731 61.7325Z" fill="url(#paint7_linear_233_16907)"/>
<path d="M121.041 78.2011C122.304 80.9291 121.596 85.3747 118.111 85.8293C116.848 86.0314 115.534 85.7788 114.524 85.021C111.442 82.4446 111.493 77.1403 112.554 73.5535C111.847 72.6947 112.705 71.3813 113.766 71.5833C114.574 70.9266 115.534 71.3813 116.141 72.0885C117.252 72.4926 118.111 73.3009 118.767 74.3113C119.576 75.5237 120.485 76.7867 121.041 78.2011Z" fill="url(#paint8_linear_233_16907)"/>
<path d="M77.3425 100.076C77.9487 98.0044 77.6961 95.5796 76.2311 93.9125C75.2712 92.8516 74.2104 91.9423 73.2505 90.8814C72.0886 89.2649 71.2803 87.3452 70.8762 85.4255C70.6236 83.8089 70.5226 82.1924 70.371 80.6263C70.1689 79.5655 70.27 78.7572 70.5731 77.6963C70.9772 76.3828 73.4526 74.6147 71.6845 73.4023C72.1391 71.7857 71.735 70.1692 71.1793 68.6031C70.6236 67.1886 69.4112 66.2288 68.4008 65.1174C66.9358 63.1977 64.612 62.2379 62.1872 62.4905C57.59 62.5915 54.2054 66.835 53.7507 71.1795C53.6497 71.9373 53.6497 72.695 53.5991 73.5033C53.4981 74.5137 53.8012 75.6251 53.195 76.4839C52.1341 77.9489 50.3155 78.5551 48.8505 79.5149C45.0111 81.9398 42.1316 85.6781 40.6666 90.0226C39.3531 93.1042 40.0099 97.0446 42.4852 99.3684C43.4956 100.328 45.0111 100.631 45.7689 101.844C46.8298 103.41 46.6277 105.329 47.1834 107.047C48.6484 109.219 51.5279 109.977 53.9528 110.482C60.7221 110.987 60.8737 104.117 65.4708 104.067C67.0369 104.521 68.4008 105.582 70.0679 105.633C73.5031 105.683 76.6857 103.309 77.3425 100.076ZM83.253 37.6357C86.1831 37.4337 90.0729 34.9078 86.9408 31.9777C84.1624 29.5529 80.1715 30.3107 76.7868 29.9065C72.1897 29.0477 69.3101 31.1695 67.9462 35.514C67.5925 37.08 66.4306 39.2523 67.6431 40.6668C67.4915 42.2834 69.1081 43.1422 70.5226 43.2937C73.1495 43.4958 74.2609 40.3637 76.3826 39.2523C78.3528 37.9388 80.8787 38.0399 83.253 37.6357ZM118.06 85.8296C121.596 85.375 122.253 80.9799 120.99 78.2015C120.434 76.787 119.525 75.524 118.716 74.2611C118.06 73.3013 117.201 72.4425 116.09 72.0383C115.483 71.3816 114.524 70.8764 113.715 71.5331C112.654 71.3311 111.796 72.6445 112.503 73.5033C111.442 77.0901 111.391 82.3944 114.473 84.9708C115.534 85.7791 116.847 86.0317 118.06 85.8296ZM133.367 64.7638C134.427 69.6135 131.952 74.1601 130.083 78.4541C128.668 81.8893 127.709 85.4255 127.355 89.1133C127.304 89.9721 127.153 90.8309 127.001 91.6392C126.547 90.7804 125.89 90.0731 124.829 89.77C124.122 89.669 123.415 89.3154 122.707 89.3659C121.95 89.4164 121.192 89.9216 120.889 90.6794C119.272 91.4876 118.565 93.2558 117.15 94.3672C115.231 95.9837 113.058 99.8231 110.128 98.6612C107.855 97.4487 105.834 95.7311 103.208 95.3775C99.2166 94.4177 95.0237 97.1456 94.2154 101.137C93.8112 102.602 93.7607 104.168 93.6092 105.683C93.5081 106.744 93.205 107.906 92.2452 108.512C90.1235 110.129 87.2945 109.775 84.8696 110.583C80.5251 112.099 76.6352 114.776 73.5031 118.11C73.5536 118.06 73.5536 118.009 73.6042 118.009C70.4215 121.041 68.4513 125.89 71.5329 129.73C71.836 130.083 72.1391 130.437 72.4928 130.79C72.3917 130.74 72.2402 130.689 72.0886 130.639C71.735 130.487 71.3814 130.336 71.0278 130.134C70.5226 129.831 70.0679 129.578 69.5627 129.325C69.007 129.022 68.5019 128.77 67.9462 128.467C67.2389 128.062 66.4812 127.608 65.6729 127.254C65.2687 127.052 64.8141 126.85 64.3594 126.648C64.0058 126.496 63.6522 126.294 63.248 126.092C62.8944 125.89 62.5408 125.688 62.1872 125.587C61.884 125.486 61.5304 125.335 61.2273 125.233C60.6211 125.031 59.9644 124.829 59.3582 124.678C59.0045 124.577 58.6509 124.476 58.2973 124.425C57.9437 124.324 57.59 124.274 57.2364 124.223C56.8323 124.173 56.4281 124.122 56.0745 124.122C55.7714 124.122 55.5188 124.072 55.2157 124.072C55.1147 124.072 55.0642 124.072 54.9631 124.021C54.9126 124.021 54.8116 124.021 54.761 124.021C54.5085 123.971 54.1548 123.92 53.8012 123.87C53.3971 123.819 53.0434 123.718 52.6898 123.617C51.9826 123.415 51.2753 123.213 50.5681 122.96C50.4165 122.91 50.3155 122.859 50.1639 122.758C49.8103 122.556 49.4567 122.303 49.1536 122.101L49.1031 122.051C49.1031 122.051 49.0525 122 49.002 122C49.002 122 49.002 122 48.9515 121.95C48.901 121.95 48.901 121.899 48.8505 121.899C48.8505 121.899 48.7494 121.849 48.6989 121.798C48.4968 121.647 48.2948 121.495 48.0927 121.344C47.7391 121.091 47.2339 120.687 46.7287 120.384C46.173 120.03 45.6679 119.727 45.1122 119.424C44.1018 118.818 42.9904 118.414 41.9801 117.858C40.9192 117.252 39.8078 116.595 38.7974 115.888C38.5954 115.736 38.4438 115.635 38.2417 115.484C38.0397 115.332 37.8881 115.18 37.6861 115.029C37.484 114.827 37.2819 114.625 37.0798 114.423C36.8273 114.17 36.6252 113.918 36.3726 113.665C35.9179 113.16 35.5138 112.705 35.0591 112.2C34.9076 111.998 34.7055 111.796 34.5034 111.543L34.4529 111.493C34.3014 111.291 34.1498 111.089 33.9983 110.886C33.8467 110.634 33.6446 110.381 33.4931 110.179C33.3921 109.977 33.2405 109.775 33.1395 109.573C33.0384 109.371 32.9374 109.169 32.8364 108.967C32.6343 108.563 32.4322 108.158 32.2807 107.754C31.9776 106.946 31.5734 106.138 31.2703 105.329C31.0682 104.875 30.9167 104.37 30.7651 103.915C30.6136 103.561 30.5125 103.157 30.4115 102.804C30.1084 101.793 29.9063 100.833 29.6537 99.8231C29.4517 98.9137 29.2496 97.9539 29.098 97.0446C29.0475 96.5899 28.997 96.1858 28.9465 95.7311C28.896 95.327 28.8455 94.9228 28.8455 94.5187C28.8455 94.3166 28.8455 94.064 28.8455 93.862C28.8455 93.3063 28.8455 92.7506 28.896 92.1444C28.997 91.4876 29.1486 90.8309 29.3001 90.1742C29.4517 89.4669 29.5527 88.7597 29.6537 88.0019C29.7043 87.7998 29.7043 87.6483 29.7043 87.4462C29.7548 87.1431 29.7548 86.84 29.8053 86.5369C29.8053 85.7791 29.7043 85.0214 29.6032 84.3141C29.5527 83.91 29.4517 83.5563 29.4012 83.2027C29.3506 82.8996 29.2496 82.5965 29.1991 82.2934C28.997 81.6367 28.7949 80.9799 28.5423 80.3232C28.3403 79.7675 28.0877 79.2623 27.8351 78.7572C27.633 78.252 27.3804 77.7973 27.2289 77.2922C27.1784 77.0901 27.1279 76.9385 27.0773 76.7365C27.0268 76.2313 26.9763 75.7766 26.9763 75.2714C26.9763 75.1704 26.9763 74.9178 26.9763 74.6652C26.9763 73.958 26.9258 73.2002 26.9258 72.493C26.9258 71.6847 26.9258 70.8259 27.0268 70.0176C27.0773 69.765 27.1279 69.4619 27.1784 69.1588C27.2794 69.2598 27.3299 69.3103 27.4815 69.3103H27.532C27.633 70.7248 28.1887 72.0383 29.5527 72.8466C33.9983 75.2209 35.4633 68.6536 37.9892 66.3803C39.3531 64.9153 41.0707 64.2081 42.9904 63.7029C48.8 61.8842 51.9321 55.418 52.2352 49.7095C51.6795 45.2639 46.5267 43.5968 42.7378 42.6875C41.8285 42.4349 41.0707 42.5865 40.414 42.9906C40.313 41.5256 40.2119 40.0606 40.313 38.5956C40.8687 34.15 42.9399 30.8664 47.8401 32.1293C52.6898 33.6448 56.4281 40.7173 62.1366 37.8883C67.0874 34.5036 61.9851 28.5425 68.9565 24.8547C72.9979 22.0763 78.4033 22.9351 83.051 23.4908C87.547 24.1475 91.8916 25.461 96.1856 26.9765C96.8423 27.128 98.4084 27.7848 99.9744 28.29C99.6713 28.5931 99.4187 28.9467 99.2166 29.4013C98.6104 30.4622 98.0042 31.6241 97.8527 32.8365C97.8021 33.7459 98.8125 34.4026 99.6208 33.9479C97.1959 36.8274 93.7607 38.444 90.2245 39.6059C88.7595 40.2121 87.0924 40.5152 85.7789 41.4751C83.2025 43.4453 82.8994 46.8805 83.051 49.861C83.051 53.3467 84.8191 56.6809 87.1934 59.1563C89.2646 61.3285 92.2957 61.8337 95.1752 62.2379C97.9537 62.6925 100.631 61.3791 102.702 59.5604C102.702 59.5604 102.753 59.5604 102.753 59.5099C104.723 57.8933 107.35 56.4283 110.027 56.883C110.836 57.1861 111.492 57.7418 112.2 58.1964C113.816 59.3078 115.483 60.6213 117.049 61.8337C118.363 62.7936 119.676 63.9555 121.343 64.2586C124.627 64.8143 128.416 64.4101 129.578 60.7729C129.931 59.8635 130.133 58.9037 130.235 57.9439C131.396 60.1666 132.962 62.2884 133.468 64.8143C133.367 64.8143 133.367 64.8143 133.367 64.7638Z" fill="url(#paint9_linear_233_16907)"/>
<path d="M83.6559 29.0982C86.788 32.0283 82.9486 34.5542 79.9681 34.7562C77.6443 35.1604 75.1184 35.0593 73.0472 36.3223C70.9759 37.4337 69.8645 40.5658 67.1871 40.3637C65.7726 40.2627 64.156 39.3533 64.3076 37.7368C63.1457 36.3223 64.2571 34.15 64.6107 32.584C65.9747 28.2394 68.9047 26.1177 73.4513 26.9765C76.8865 27.4312 80.8774 26.6734 83.6559 29.0982Z" fill="#202D3E"/>
<path d="M72.9973 90.9824C74.4623 92.6495 74.7149 95.0744 74.1086 97.1456C73.4519 100.379 70.2693 102.753 66.9856 102.551C65.3186 102.5 63.9546 101.49 62.3885 100.985C57.7914 101.035 57.6399 107.906 50.8705 107.401C48.4456 106.896 45.5661 106.138 44.1011 103.965C43.4949 102.298 43.697 100.328 42.6866 98.7622C41.9289 97.5497 40.4133 97.2466 39.403 96.2868C36.9276 93.963 36.2709 90.0226 37.5843 86.941C38.9988 82.5965 41.9289 78.9087 45.7682 76.4333C47.2837 75.4735 49.0519 74.9178 50.1127 73.4023C50.7189 72.5435 50.4158 71.3815 50.5169 70.4217C50.5169 69.6639 50.5674 68.8557 50.6684 68.0979C51.1231 63.7534 54.5078 59.5099 59.1049 59.4088C61.4792 59.2068 63.803 60.1666 65.268 62.0358C66.2784 63.1472 67.4908 64.107 68.0465 65.5215C68.6022 67.037 69.0064 68.7041 68.5517 70.3207C70.3198 71.5331 67.7939 73.3012 67.4403 74.6147C67.0867 75.6756 67.0362 76.4838 67.2382 77.5447C67.3898 79.1613 67.5413 80.7778 67.7434 82.3439C68.097 84.3141 68.9558 86.1832 70.1177 87.7998C70.926 89.0628 72.0374 89.9721 72.9973 90.9824Z" fill="#202D3E"/>
<path d="M126.849 75.5747C128.718 71.2302 131.194 66.7341 130.133 61.8844V61.9349C129.678 59.409 128.112 57.3378 126.9 55.0645C126.799 56.0244 126.597 56.9842 126.243 57.8935C125.081 61.5308 121.292 61.9855 118.009 61.3792C116.341 61.0761 115.028 59.9142 113.715 58.9544C112.149 57.6914 110.481 56.4285 108.865 55.3171C108.158 54.8625 107.501 54.2562 106.693 54.0037C104.066 53.549 101.388 54.9635 99.418 56.6306C99.418 56.6306 99.3675 56.6306 99.3675 56.6811C97.3468 58.4997 94.6694 59.8132 91.8404 59.3585C89.0114 58.9544 85.9803 58.4492 83.8586 56.2769C81.4842 53.7511 79.7161 50.4674 79.7161 46.9817C79.5646 44.0011 79.8677 40.5659 82.4441 38.5957C83.7575 37.6359 85.3741 37.3328 86.8896 36.7266C90.3754 35.5142 93.8611 33.9481 96.2859 31.0686C95.4777 31.5233 94.4673 30.816 94.5178 29.9572C94.6694 28.7448 95.2756 27.5829 95.8818 26.522C96.0839 26.1179 96.3364 25.7137 96.6396 25.4106C95.0735 24.9054 93.5075 24.2487 92.8507 24.0972C88.5567 22.5816 84.2122 21.2682 79.7161 20.6114C75.119 20.0557 69.7136 19.1969 65.6217 21.9754C58.7007 25.6632 63.7525 31.6243 58.8018 35.009C53.0933 37.838 49.4055 30.7655 44.5053 29.25C39.5545 27.987 37.4833 31.2707 36.9781 35.7162C36.8771 37.1812 36.9781 38.6463 37.0791 40.1113C37.7359 39.7071 38.4936 39.5556 39.403 39.8082C43.1918 40.7175 48.2941 42.3846 48.9003 46.8301C48.5972 52.5386 45.4651 59.0049 39.6556 60.8235C37.7359 61.3287 36.0183 61.9854 34.6543 63.501C32.1284 65.7743 30.6634 72.3416 26.2178 69.9673C24.8539 69.159 24.2982 67.8455 24.1971 66.431H24.1466C23.9951 66.431 23.9445 66.3805 23.8435 66.2795C23.793 66.5826 23.7425 66.8857 23.6919 67.1383C23.5909 67.9465 23.5909 68.8053 23.5909 69.6136C23.5909 70.3209 23.6414 71.0786 23.6414 71.7859C23.6414 72.0385 23.6414 72.2911 23.6414 72.3921C23.6414 72.8973 23.6919 73.4025 23.7425 73.8571C23.793 74.0592 23.8435 74.2107 23.894 74.4128C24.0456 74.918 24.2476 75.4232 24.5002 75.8778C24.7528 76.383 25.0054 76.9387 25.2075 77.4439C25.4601 78.1006 25.6621 78.7573 25.8642 79.4141C25.9652 79.7172 26.0158 80.0203 26.0663 80.3234C26.1673 80.677 26.2178 81.0811 26.2684 81.4348C26.4199 82.1925 26.5209 82.8998 26.4704 83.6576C26.4704 83.9607 26.4199 84.2638 26.3694 84.5669C26.3694 84.7689 26.3189 84.9205 26.3189 85.1226C26.2178 85.8298 26.0663 86.5371 25.9652 87.2948C25.8137 87.9516 25.6621 88.6083 25.5611 89.265C25.5106 89.8207 25.5106 90.3764 25.5106 90.9826C25.5106 91.2352 25.5106 91.4373 25.5106 91.6393C25.5106 92.0435 25.5611 92.4476 25.6116 92.8518C25.6621 93.3064 25.7127 93.7106 25.7632 94.1652C25.9147 95.0746 26.1168 96.0344 26.3189 96.9437C26.5209 97.9541 26.7735 98.9644 27.0766 99.9243C27.1777 100.278 27.3292 100.682 27.4303 101.036C27.5818 101.541 27.7839 101.995 27.9354 102.45C28.2385 103.258 28.6427 104.067 28.9458 104.875C29.1479 105.279 29.2994 105.683 29.5015 106.087C29.6025 106.289 29.7036 106.492 29.8046 106.694C29.9056 106.896 30.0572 107.098 30.1582 107.3C30.3098 107.552 30.5118 107.805 30.6634 108.007C30.8149 108.209 30.9665 108.411 31.1181 108.613L31.1686 108.664C31.3706 108.866 31.5222 109.068 31.7243 109.321C32.1284 109.826 32.5831 110.331 33.0377 110.786C33.2903 111.038 33.4924 111.291 33.745 111.543C33.947 111.745 34.1491 111.947 34.3512 112.15C34.5533 112.301 34.7048 112.453 34.9069 112.604C35.0584 112.756 35.2605 112.857 35.4626 113.008C36.4729 113.716 37.5338 114.322 38.6452 114.979C39.7061 115.534 40.7669 115.989 41.7773 116.545C42.333 116.848 42.8887 117.201 43.3939 117.504C43.899 117.858 44.4042 118.212 44.7578 118.464C44.9599 118.616 45.162 118.767 45.3641 118.919C45.4146 118.969 45.5156 119.02 45.5156 119.02C45.5661 119.02 45.5661 119.07 45.6166 119.07C45.6166 119.07 45.6166 119.07 45.6672 119.121C45.7177 119.121 45.7177 119.172 45.7682 119.172C45.8187 119.172 45.8187 119.222 45.8187 119.222C46.1723 119.475 46.4754 119.677 46.8291 119.879C46.9806 119.929 47.0817 120.03 47.2332 120.081C47.9405 120.333 48.6477 120.535 49.355 120.738C49.7591 120.839 50.1127 120.889 50.4663 120.99C50.82 121.041 51.1736 121.091 51.4262 121.142C51.4767 121.142 51.5777 121.142 51.6283 121.142C51.7293 121.142 51.7798 121.142 51.8808 121.192C52.1839 121.243 52.4365 121.243 52.7396 121.243C53.1438 121.293 53.5479 121.293 53.9016 121.344C54.2552 121.394 54.6088 121.495 54.9624 121.546C55.316 121.647 55.6697 121.697 56.0233 121.798C56.6295 121.95 57.2862 122.152 57.8925 122.354C58.1956 122.455 58.5492 122.556 58.8523 122.708C59.2059 122.859 59.5595 123.061 59.9132 123.213C60.2668 123.415 60.6204 123.567 61.0246 123.769C61.4287 123.971 61.8834 124.173 62.338 124.375C63.1463 124.728 63.8535 125.183 64.6113 125.587C65.167 125.89 65.7227 126.143 66.2279 126.446C66.7331 126.699 67.1877 127.002 67.6929 127.254C68.0465 127.406 68.4001 127.608 68.7538 127.76C68.9053 127.81 69.0064 127.861 69.1579 127.911C68.8043 127.557 68.5012 127.204 68.1981 126.85C65.1165 123.011 67.0867 118.161 70.2693 115.13C70.2188 115.181 70.2188 115.231 70.1683 115.231C73.3509 111.897 77.1902 109.169 81.5347 107.704C83.9596 106.946 86.7886 107.3 88.9103 105.633C89.8197 104.976 90.1228 103.865 90.2743 102.804C90.4259 101.288 90.4764 99.7222 90.8805 98.2572C91.6383 94.2158 95.8818 91.5383 99.8727 92.4982C102.5 92.8518 104.52 94.6199 106.794 95.7818C109.673 96.8932 111.845 93.0539 113.816 91.4878C115.23 90.4269 115.937 88.6083 117.554 87.8C117.857 87.0928 118.615 86.5371 119.373 86.4866C120.13 86.436 120.787 86.7897 121.494 86.8907C122.555 87.1433 123.262 87.8505 123.667 88.7598C123.818 87.901 123.97 87.0422 124.02 86.234C124.475 82.5462 125.435 79.0099 126.849 75.5747ZM131.497 58.8028C133.72 63.2484 132.76 68.5022 130.79 72.7962C129.072 76.5346 127.506 80.1213 126.9 84.2133C126.647 85.5267 126.546 86.8402 126.394 88.1536C126.192 89.8207 125.687 91.4373 125.485 93.0539C125.233 94.7209 125.536 98.2067 124.576 100.126C124.525 100.48 124.424 100.834 124.323 101.238C123.616 104.016 122.252 106.593 120.888 109.068C118.665 113.008 115.937 118.01 110.987 118.666C106.086 119.02 101.085 119.626 96.7406 122.051C91.9414 124.678 85.6772 131.094 79.9687 131.902C79.312 132.357 78.5542 132.71 77.7459 132.559C77.0892 132.458 76.2304 132.205 75.9778 131.649C75.7757 131.599 75.5737 131.548 75.3716 131.498C75.119 131.7 74.8159 131.851 74.5128 131.851C74.4118 131.851 74.2602 131.851 74.1592 131.801C73.3509 131.548 72.5426 131.296 71.7343 131.094C71.4817 131.043 71.2291 130.993 70.9765 130.942C70.6734 130.892 70.3198 130.841 70.0167 130.74C69.4105 130.589 68.8043 130.386 68.2486 130.184C67.6424 129.932 67.0362 129.679 66.4299 129.326C65.8743 129.022 65.3186 128.719 64.8639 128.416C64.5103 128.214 64.1567 128.063 63.803 127.911C63.3989 127.709 62.9947 127.456 62.6916 127.305C62.0854 127.002 61.4792 126.648 60.873 126.396C60.2163 126.092 59.5595 125.789 59.1049 125.537L58.9533 125.486C58.8523 125.436 58.7513 125.385 58.7513 125.385C58.5997 125.284 58.3976 125.234 58.2461 125.133C57.0842 124.678 55.9223 124.375 54.7604 124.072C54.3057 123.971 53.9016 123.87 53.4469 123.819C52.1334 123.718 50.82 123.668 49.557 123.364C48.9003 123.213 48.193 123.011 47.5363 122.809C47.1322 122.657 46.728 122.556 46.3744 122.405C45.8692 122.203 45.4146 121.899 45.0104 121.596C44.9599 121.546 44.8589 121.495 44.8084 121.445C44.4042 121.142 44.0506 120.839 43.6465 120.586C42.6866 119.879 41.6763 119.323 40.6659 118.717C40.2112 118.464 39.7061 118.212 39.2514 118.01C38.7462 117.757 38.2411 117.555 37.7864 117.302C37.7864 117.302 37.7864 117.302 37.7359 117.302C37.6854 117.302 37.6854 117.252 37.6348 117.252C36.9781 116.898 36.3214 116.545 35.6646 116.14C35.311 115.938 34.9574 115.686 34.6038 115.433C34.2502 115.181 33.8965 114.928 33.5934 114.675C33.2903 114.473 33.0377 114.221 32.7851 113.968C32.482 113.665 32.1789 113.362 31.8758 113.059C31.3706 112.554 30.916 111.998 30.4108 111.442C30.2593 111.291 30.1582 111.139 30.1077 111.089C29.8551 110.786 29.552 110.432 29.2994 110.129C29.1479 109.977 28.9963 109.775 28.8953 109.624C28.7437 109.472 28.6427 109.27 28.4911 109.068C28.2385 108.714 28.0365 108.31 27.7839 107.957C27.6828 107.805 27.6323 107.653 27.5313 107.502C27.4303 107.3 27.3292 107.148 27.3292 107.098C27.2787 107.047 27.2787 106.997 27.2787 106.946C27.1777 106.694 27.0766 106.492 27.0261 106.391C26.6725 105.633 26.3694 104.875 26.0663 104.117C25.7632 103.41 25.5106 102.703 25.258 101.995C25.0054 101.238 24.8033 100.48 24.5507 99.7222C24.4497 99.3686 24.3487 98.9644 24.2982 98.6108C24.1971 98.2572 24.1466 97.9035 24.0456 97.4994C23.894 96.7922 23.7425 96.0849 23.6414 95.4787C23.5404 95.024 23.4899 94.5189 23.4394 94.0642C23.3888 93.7106 23.3383 93.3064 23.3383 92.9528C23.2878 92.5487 23.2878 92.1445 23.2878 91.7909C23.2878 91.3868 23.2878 90.9321 23.2878 90.528C23.2878 89.7702 23.3888 89.0124 23.5404 88.3052C23.6919 87.5979 23.8435 86.8402 23.9951 86.0824C24.0456 85.7288 24.1466 85.3246 24.1971 84.971C24.2476 84.6679 24.2982 84.3648 24.2982 84.1122C24.2982 83.9101 24.3487 83.6576 24.3487 83.4555C24.3487 83.1524 24.2982 82.8493 24.2476 82.5462C24.1466 82.041 24.0961 81.5358 23.9951 80.9801C23.894 80.4749 23.793 79.9698 23.6414 79.5151C23.5404 79.212 23.4394 78.9089 23.3383 78.6058C23.1868 78.2522 23.0857 77.8985 22.9342 77.4944C22.8331 77.1913 22.6816 76.8882 22.5806 76.5851C22.3785 76.0799 22.2269 75.5747 22.0754 75.0695C21.9238 74.4128 21.9238 73.7561 21.9238 73.0993C21.9238 72.6952 21.9743 72.2911 22.0249 71.9374C22.0754 71.1292 22.1764 70.3714 22.2269 69.6641C22.2775 69.3105 22.328 68.9569 22.3785 68.6033C22.429 68.1991 22.53 67.795 22.6311 67.3908C22.7321 67.0372 22.8331 66.7341 22.9847 66.431C23.1363 66.1279 23.3383 65.8753 23.6919 65.7238C23.8435 65.6732 24.0456 65.6732 24.1466 65.7743C24.2476 65.8753 24.2476 65.9764 24.2982 66.0774C24.2982 66.0774 24.2982 66.0774 24.2982 66.1279C24.3487 66.1279 24.3487 66.1279 24.3487 66.1279C24.3487 65.6227 24.3487 65.1176 24.4497 64.6124C24.5508 62.6927 25.258 60.8235 26.1168 59.1059C26.9251 57.3883 28.2891 55.9233 29.7036 54.7614C31.5222 53.2964 33.6439 51.8819 34.1996 49.4571C34.5027 48.0426 34.3512 46.6281 34.6543 45.2136C34.8058 44.3042 35.0584 43.2434 35.4626 42.2835C35.4121 42.233 35.3615 42.233 35.311 42.1825C35.0584 41.9804 34.9069 41.6773 34.8564 41.3742C34.7048 40.1618 34.6543 38.9494 34.6038 37.7875C34.1996 33.0388 36.574 26.4715 42.1309 26.4715C43.2928 26.4715 44.4547 26.522 45.5661 26.8756C47.1322 27.3808 48.5467 28.3912 49.9107 29.3005C51.3251 30.4119 52.6386 31.7253 54.3057 32.5336C57.4883 34.2512 59.2059 32.281 59.0544 29.0479C59.2564 23.6425 61.7823 21.0661 66.3289 18.7423C70.8755 16.9742 75.9273 17.4793 80.6254 18.2371C86.9402 19.1969 92.8507 21.6723 98.6603 24.2487C99.6706 24.0466 100.731 24.2487 101.792 24.956C102.954 25.7642 103.864 26.8756 104.823 27.886C106.288 29.8057 108.158 31.3212 110.027 32.8367C110.987 33.6955 111.946 34.5543 112.957 35.3121C116.443 37.838 120.383 40.0608 123.01 43.5465C124.475 45.4156 125.687 47.6384 126.344 49.9622C126.597 50.0128 126.698 50.4169 126.799 50.619C126.9 50.9221 127.001 51.2252 127.102 51.4778C127.152 51.5788 127.001 51.6798 126.95 51.6293C128.264 54.1047 130.234 56.2264 131.497 58.8028Z" fill="#202D3E"/>
<path d="M117.756 75.3222C119.019 78.0502 118.311 82.4957 114.826 82.9504C113.563 83.1525 112.249 82.8999 111.239 82.1421C108.157 79.5657 108.208 74.2614 109.269 70.6746C108.561 69.8158 109.42 68.5023 110.481 68.7044C111.289 68.0477 112.249 68.5023 112.855 69.2096C113.967 69.6137 114.826 70.422 115.482 71.4324C116.341 72.6448 117.2 73.9077 117.756 75.3222Z" fill="#202D3E"/>
<path d="M74.1081 97.1962C74.7143 95.125 74.4617 92.7002 72.9967 91.0331C72.0369 89.9722 70.976 89.0629 70.0162 88.002C68.8543 86.3855 68.046 84.4658 67.6418 82.5461C67.3892 80.9295 67.2882 79.313 67.1366 77.7469C66.9346 76.686 67.0356 75.8778 67.3387 74.8169C67.7429 73.5034 70.2182 71.7353 68.4501 70.5229C68.9048 68.9063 68.5006 67.2898 67.9449 65.7237C67.3892 64.3092 66.1768 63.3494 65.1665 62.238C63.7014 60.3183 61.3776 59.3585 59.0033 59.6111C54.4062 59.7121 51.0215 63.9556 50.5668 68.3001C50.4658 69.0579 50.4658 69.8156 50.4153 70.6239C50.3142 71.6343 50.6174 72.7457 50.0111 73.6045C48.9503 75.0695 47.1316 75.6757 45.6666 76.6355C41.8273 79.0604 38.9478 82.7987 37.4827 87.1432C36.1693 90.2248 36.826 94.1652 39.3014 96.489C40.3117 97.4488 41.8273 97.7519 42.585 98.9644C43.6459 100.53 43.4438 102.45 43.9995 104.168C45.4645 106.34 48.3441 107.098 50.7689 107.603C57.5383 108.108 57.6898 101.238 62.2869 101.187C63.853 101.642 65.217 102.703 66.8841 102.753C70.2687 102.804 73.4514 100.429 74.1081 97.1962ZM79.9681 34.7563C82.8982 34.5543 86.788 32.0284 83.6559 29.0984C80.8775 26.6735 76.8866 27.4313 73.5019 27.0271C68.9048 26.1683 66.0253 28.2901 64.6613 32.6346C64.3077 34.2006 63.1457 36.3729 64.3582 37.7874C64.2066 39.404 65.8232 40.2628 67.2377 40.4143C69.8646 40.6164 70.976 37.4843 73.0977 36.3729C75.1184 35.0594 77.6443 35.1605 79.9681 34.7563ZM114.825 82.8997C118.362 82.4451 119.018 78.05 117.755 75.2716C117.2 73.8571 116.29 72.5941 115.482 71.3312C114.825 70.3713 113.967 69.5125 112.855 69.1084C112.249 68.4517 111.289 67.9465 110.481 68.6032C109.42 68.4011 108.561 69.7146 109.268 70.5734C108.208 74.1602 108.157 79.4645 111.239 82.0409C112.249 82.8997 113.562 83.1523 114.825 82.8997ZM130.132 61.8844C131.193 66.7341 128.718 71.2807 126.849 75.5747C125.434 79.0099 124.474 82.5461 124.121 86.2339C124.07 87.0927 123.919 87.9515 123.767 88.7598C123.312 87.901 122.656 87.1937 121.595 86.8906C120.887 86.7896 120.18 86.436 119.473 86.4865C118.715 86.537 117.957 87.0422 117.654 87.8C116.038 88.6082 115.331 90.3764 113.916 91.4877C111.996 93.1043 109.824 96.9437 106.894 95.7818C104.621 94.5693 102.6 92.8517 99.9732 92.4981C95.9823 91.5383 91.7893 94.2662 90.981 98.2571C90.5769 99.7221 90.5263 101.288 90.3748 102.804C90.2738 103.865 89.9706 105.026 89.0108 105.633C86.8891 107.249 84.0601 106.896 81.6352 107.704C77.2907 109.219 73.4008 111.897 70.2687 115.231C70.3193 115.181 70.3193 115.13 70.3698 115.13C67.1872 118.161 65.217 123.011 68.2986 126.85C68.6017 127.204 68.9048 127.557 69.2584 127.911C69.1574 127.861 69.0058 127.81 68.8542 127.759C68.5006 127.608 68.147 127.456 67.7934 127.254C67.2882 126.951 66.8335 126.699 66.3284 126.446C65.7727 126.143 65.2675 125.89 64.7118 125.587C64.0045 125.183 63.2468 124.728 62.4385 124.375C62.0344 124.173 61.5797 123.971 61.125 123.769C60.7714 123.617 60.4178 123.415 60.0136 123.213C59.66 123.011 59.3064 122.809 58.9528 122.708C58.6497 122.607 58.296 122.455 57.9929 122.354C57.3867 122.152 56.73 121.95 56.1238 121.798C55.7702 121.697 55.4165 121.596 55.0629 121.546C54.7093 121.445 54.3557 121.394 54.002 121.344C53.5979 121.293 53.1938 121.243 52.8401 121.243C52.537 121.243 52.2844 121.192 51.9813 121.192C51.8803 121.192 51.8298 121.192 51.7287 121.142C51.6782 121.142 51.5772 121.142 51.5267 121.142C51.2741 121.091 50.9205 121.041 50.5668 120.99C50.1627 120.94 49.8091 120.839 49.4554 120.738C48.7482 120.535 48.0409 120.333 47.3337 120.081C47.1821 120.03 47.0811 119.98 46.9296 119.879C46.5759 119.677 46.2223 119.424 45.9192 119.222L45.8687 119.171C45.8687 119.171 45.8182 119.121 45.7676 119.121C45.7676 119.121 45.7676 119.121 45.7171 119.07C45.6666 119.07 45.6666 119.02 45.6161 119.02C45.6161 119.02 45.5151 118.969 45.4645 118.919C45.2625 118.767 45.0604 118.616 44.8583 118.464C44.5047 118.212 43.9995 117.807 43.4944 117.504C42.9387 117.151 42.4335 116.848 41.8778 116.545C40.8674 115.938 39.756 115.534 38.7457 114.978C37.6848 114.372 36.5734 113.716 35.5631 113.008C35.361 112.857 35.2094 112.756 35.0074 112.604C34.8053 112.453 34.6537 112.301 34.4517 112.149C34.2496 111.947 34.0475 111.745 33.8455 111.543C33.5929 111.291 33.3908 111.038 33.1382 110.786C32.6836 110.28 32.2794 109.826 31.8248 109.32C31.6732 109.118 31.4711 108.916 31.2691 108.664L31.2185 108.613C31.067 108.411 30.9154 108.209 30.7639 108.007C30.6123 107.754 30.4103 107.502 30.2587 107.3C30.1577 107.098 30.0061 106.896 29.9051 106.694C29.804 106.492 29.703 106.289 29.602 106.087C29.3999 105.683 29.1978 105.279 29.0463 104.875C28.7432 104.067 28.339 103.258 28.0359 102.45C27.8339 101.995 27.6823 101.49 27.5308 101.036C27.3792 100.682 27.2782 100.278 27.1771 99.9242C26.874 98.9139 26.672 97.954 26.4194 96.9437C26.2173 96.0343 26.0152 95.0745 25.8637 94.1652C25.8132 93.7105 25.7626 93.3064 25.7121 92.8517C25.6616 92.4476 25.6111 92.0434 25.6111 91.6393C25.6111 91.4372 25.6111 91.1846 25.6111 90.9826C25.6111 90.4269 25.6111 89.8712 25.6616 89.265C25.7626 88.6082 25.9142 87.9515 26.0657 87.2948C26.2173 86.5875 26.3183 85.8803 26.4194 85.1225C26.4699 84.9204 26.4699 84.7689 26.4699 84.5668C26.5204 84.2637 26.5204 83.9606 26.5709 83.6575C26.5709 82.8997 26.4699 82.142 26.3688 81.4347C26.3183 81.0306 26.2173 80.677 26.1668 80.3233C26.1163 80.0202 26.0152 79.7171 25.9647 79.414C25.7626 78.7573 25.5606 78.1005 25.308 77.4438C25.1059 76.8881 24.8533 76.3829 24.6007 75.8778C24.3987 75.3726 24.1461 74.9179 23.9945 74.4128C23.944 74.2107 23.8935 74.0591 23.843 73.8571C23.7924 73.3519 23.7419 72.8972 23.7419 72.392C23.7419 72.291 23.7419 72.0384 23.7419 71.7858C23.7419 71.0786 23.6914 70.3208 23.6914 69.6136C23.6914 68.8053 23.6914 67.9465 23.7924 67.1382C23.843 66.8856 23.8935 66.5825 23.944 66.2794C24.045 66.3804 24.0955 66.431 24.2471 66.431H24.2976C24.3987 67.8454 24.9543 69.1589 26.3183 69.9672C30.7639 72.3415 32.2289 65.7742 34.7548 63.5009C36.1188 62.0359 37.8364 61.3287 39.756 60.8235C45.5656 59.0048 48.6977 52.5386 49.0008 46.8301C48.4451 42.3845 43.2923 40.7174 39.5035 39.8081C38.5941 39.5555 37.8364 39.7071 37.1796 40.1112C37.0786 38.6462 36.9776 37.1812 37.0786 35.7162C37.6343 31.2706 39.7055 27.987 44.6057 29.2499C49.4554 30.7654 53.1938 37.8379 58.9023 35.0089C63.853 31.6242 58.7507 25.6631 65.7222 21.9754C69.7636 19.1969 75.169 20.0557 79.8166 20.6114C84.3127 21.2681 88.6572 22.5816 92.9512 24.0971C93.6079 24.2487 95.174 24.9054 96.74 25.4106C96.4369 25.7137 96.1843 26.0673 95.9823 26.5219C95.3761 27.5828 94.7698 28.7447 94.6183 29.9572C94.5678 30.8665 95.5781 31.5232 96.3864 31.0685C93.9616 33.9481 90.5263 35.5646 86.9901 36.7265C85.5251 37.3327 83.858 37.6358 82.5445 38.5957C79.9681 40.5659 79.665 44.0011 79.8166 46.9816C79.8166 50.4674 81.5847 53.8015 83.959 56.2769C86.0303 58.4492 89.0613 58.9543 91.9408 59.3585C94.7193 59.8131 97.3968 58.4997 99.468 56.681C99.468 56.681 99.5185 56.681 99.5185 56.6305C101.489 55.0139 104.116 53.5489 106.793 54.0036C107.601 54.3067 108.258 54.8624 108.965 55.3171C110.582 56.4284 112.249 57.7419 113.815 58.9543C115.128 59.9142 116.442 61.0761 118.109 61.3792C121.393 61.9349 125.182 61.5307 126.343 57.8935C126.697 56.9841 126.899 56.0243 127 55.0645C128.162 57.2872 129.728 59.409 130.233 61.9349C130.132 61.9349 130.132 61.8844 130.132 61.8844Z" fill="#364454"/>
<defs>
<linearGradient id="paint0_linear_233_16907" x1="60.0547" y1="26.2837" x2="82.8976" y2="30.8929" gradientUnits="userSpaceOnUse">
<stop stop-color="#973AF5"/>
<stop offset="1" stop-color="#4CA6FE"/>
</linearGradient>
<linearGradient id="paint1_linear_233_16907" x1="33.1855" y1="58.8774" x2="75.1318" y2="63.1437" gradientUnits="userSpaceOnUse">
<stop stop-color="#973AF5"/>
<stop offset="1" stop-color="#4CA6FE"/>
</linearGradient>
<linearGradient id="paint2_linear_233_16907" x1="18.1367" y1="16.9868" x2="141.492" y2="32.4699" gradientUnits="userSpaceOnUse">
<stop stop-color="#973AF5"/>
<stop offset="1" stop-color="#4CA6FE"/>
</linearGradient>
<linearGradient id="paint3_linear_233_16907" x1="104.877" y1="67.8809" x2="115.788" y2="68.8261" gradientUnits="userSpaceOnUse">
<stop stop-color="#973AF5"/>
<stop offset="1" stop-color="#4CA6FE"/>
</linearGradient>
<linearGradient id="paint4_linear_233_16907" x1="19.9551" y1="19.5308" x2="138.585" y2="34.8226" gradientUnits="userSpaceOnUse">
<stop stop-color="#973AF5"/>
<stop offset="1" stop-color="#4CA6FE"/>
</linearGradient>
<linearGradient id="paint5_linear_233_16907" x1="67.0254" y1="29.668" x2="89.8683" y2="34.2772" gradientUnits="userSpaceOnUse">
<stop stop-color="#973AF5"/>
<stop offset="1" stop-color="#4CA6FE"/>
</linearGradient>
<linearGradient id="paint6_linear_233_16907" x1="40.1563" y1="62.312" x2="82.1025" y2="66.5782" gradientUnits="userSpaceOnUse">
<stop stop-color="#973AF5"/>
<stop offset="1" stop-color="#4CA6FE"/>
</linearGradient>
<linearGradient id="paint7_linear_233_16907" x1="25.1074" y1="20.3711" x2="148.519" y2="35.8615" gradientUnits="userSpaceOnUse">
<stop stop-color="#973AF5"/>
<stop offset="1" stop-color="#4CA6FE"/>
</linearGradient>
<linearGradient id="paint8_linear_233_16907" x1="111.898" y1="71.2651" x2="122.809" y2="72.2103" gradientUnits="userSpaceOnUse">
<stop stop-color="#973AF5"/>
<stop offset="1" stop-color="#4CA6FE"/>
</linearGradient>
<linearGradient id="paint9_linear_233_16907" x1="26.9258" y1="22.915" x2="145.556" y2="38.2069" gradientUnits="userSpaceOnUse">
<stop stop-color="#973AF5"/>
<stop offset="1" stop-color="#4CA6FE"/>
</linearGradient>
</defs>
</svg>
