<svg width="151" height="151" viewBox="0 0 151 151" fill="none" xmlns="http://www.w3.org/2000/svg">
<g opacity="0.26">
<path d="M114.856 139.918C115.416 139.568 115.975 139.219 116.535 138.869H115.066C114.716 138.869 114.366 138.869 114.016 138.869C113.737 138.869 113.457 138.869 113.177 138.869C109.119 138.659 105.131 137.749 101.143 137.26C100.863 137.26 100.584 137.26 100.304 137.19C100.164 137.19 99.9539 137.19 99.814 137.19H99.744C99.744 137.19 99.6741 137.19 99.6041 137.19C97.1554 137.05 94.7067 137.05 92.258 137.19C92.1181 137.19 91.9082 137.19 91.7683 137.19C91.4884 137.19 91.2785 137.19 91.0686 137.19C90.9287 137.19 90.8587 137.19 90.7188 137.19C90.0892 137.19 89.4595 137.26 88.8298 137.26C88.7599 137.26 88.6899 137.26 88.6199 137.26C88.1302 137.329 87.6405 137.329 87.1507 137.399C86.8709 137.399 86.591 137.469 86.3112 137.469C86.0313 137.469 85.7515 137.539 85.4716 137.539C84.772 137.609 84.0724 137.679 83.3727 137.749C83.0229 137.819 82.6731 137.819 82.3233 137.819C81.8336 137.889 81.3438 137.889 80.8541 137.959C80.5742 137.959 80.2944 138.029 80.0145 138.029C79.5948 138.029 79.175 138.099 78.6852 138.099C78.4754 138.099 78.2655 138.099 78.0556 138.169C77.0061 138.239 75.9567 138.309 74.9073 138.309C66.4418 138.239 57.9763 137.12 49.7207 135.301C48.7412 135.231 47.7617 135.161 46.8522 135.161C46.5724 135.161 46.2226 135.161 45.9427 135.161C45.5929 135.161 45.1731 135.161 44.8233 135.161C44.2636 135.161 43.6339 135.161 43.0742 135.161C39.0164 135.231 34.9586 135.65 30.9707 135.72C35.0285 138.799 39.4362 141.457 44.1237 143.626C44.5435 143.696 44.9632 143.696 45.383 143.766C45.453 143.766 45.5929 143.766 45.6629 143.766C46.0127 143.766 46.4325 143.836 46.8522 143.836C49.091 143.976 51.3298 144.116 53.6386 144.186C53.7785 144.186 53.9884 144.186 54.1983 144.186H54.2683C54.6181 144.186 54.9679 144.186 55.3177 144.186C56.9269 144.186 58.606 144.186 60.2151 144.116C61.0547 144.116 61.8942 144.116 62.6638 144.046C63.5033 144.046 64.3429 144.046 65.1125 143.976C66.022 143.976 66.9315 143.906 67.841 143.906C68.7505 143.906 69.6601 143.906 70.5696 143.836C76.0267 143.696 81.4838 143.556 86.9408 143.276C88.7599 143.206 90.5789 143.136 92.3979 143.066C97.925 142.857 103.452 142.577 108.909 142.297H110.238C111.778 141.737 113.317 140.898 114.856 139.918Z" fill="url(#paint0_linear_232_3980)"/>
<path d="M11.5922 34.5552C11.3823 34.975 11.1025 35.3248 10.8926 35.7446C11.1025 35.2549 11.3124 34.905 11.5922 34.5552Z" fill="url(#paint1_linear_232_3980)"/>
<path d="M124.862 18.8823C124.862 18.8823 124.792 18.8823 124.722 18.8823C124.652 18.8823 124.512 18.9523 124.442 18.9523C124.442 18.9523 124.442 18.9523 124.442 19.0222C124.442 19.0222 124.372 19.0222 124.302 19.0222C124.162 19.0222 124.022 19.0922 123.882 19.0922H123.742C123.742 19.0922 123.742 19.0922 123.672 19.0922H123.602C123.602 19.0922 123.532 19.0922 123.462 19.0922C123.323 19.1621 123.253 19.1621 123.183 19.1621C122.973 19.2321 122.833 19.2321 122.623 19.3021H122.483C122.133 19.372 121.853 19.442 121.503 19.5119C114.997 20.4214 109.82 24.5493 104.013 27.0679C102.334 27.8375 100.725 28.817 98.8356 29.0269C98.7656 29.0269 98.6257 29.0269 98.5557 29.0269H98.4858C98.3458 29.0269 98.2059 29.0269 98.066 29.0269C94.6378 29.1668 91.2796 28.7471 87.9214 29.0269C87.7115 29.0269 87.4316 29.0969 87.2218 29.0969C86.8719 29.0969 86.5221 29.1668 86.1723 29.2368C85.9624 29.3067 85.8225 29.3068 85.6126 29.3767C82.3244 29.8665 79.1761 30.9159 75.8878 31.5456C71.69 32.1752 67.5622 32.4551 63.4344 32.9448C62.8048 33.0148 62.2451 33.0847 61.6154 33.1546C58.8169 33.3645 55.9484 33.7844 53.1499 33.9942C52.4503 34.0642 51.7507 34.0642 51.051 34.0642C50.7712 34.0642 50.4913 33.9942 50.2115 33.9942C50.0016 33.9942 49.8617 33.9243 49.6518 33.9243C49.5119 33.8543 49.302 33.8543 49.1621 33.7843C48.1826 33.5744 47.2731 33.2946 46.3635 33.0148C46.2236 32.9448 46.0837 32.9448 45.8738 32.8749C45.6639 32.8049 45.454 32.8048 45.2441 32.7349C44.9643 32.6649 44.6844 32.595 44.4046 32.595C41.1163 31.8954 38.038 33.3646 34.8897 33.7843C30.2022 34.344 25.5147 34.8338 20.8272 34.8338C20.4774 34.8338 20.0576 34.7638 19.7078 34.7638C19.218 34.7638 18.7283 34.6939 18.2385 34.6939C17.8887 34.6939 17.6089 34.6239 17.2591 34.6239H16.7693C16.6294 34.554 16.4195 34.5539 16.2796 34.5539C16.1397 34.5539 15.9997 34.6239 15.8598 34.5539C15.7199 34.4839 15.58 34.484 15.44 34.484C15.1602 34.484 14.8803 34.414 14.6005 34.414C14.3206 34.414 14.0408 34.3441 13.7609 34.3441C13.691 34.3441 13.621 34.3441 13.551 34.3441C13.4811 34.3441 13.4111 34.3441 13.4111 34.3441C13.0613 34.8338 12.7815 35.3235 12.4316 35.8133H14.4606C17.399 35.9532 20.3374 36.233 23.2759 35.8832C24.2553 35.8132 25.1649 35.7433 26.1443 35.6734C27.1238 35.6034 28.1033 35.5334 29.0128 35.3935C29.6425 35.3235 30.2721 35.2535 30.9018 35.2535C35.9391 34.8338 41.0464 34.484 46.0137 35.4634C46.2236 35.6034 46.5035 35.6734 46.7134 35.7433C47.2031 35.8832 47.6928 36.0931 48.1826 36.1631C48.6723 36.303 49.1621 36.373 49.7218 36.4429C53.5697 36.9327 57.4876 36.0232 61.2656 35.0437C64.6938 34.2041 68.122 33.5045 71.6201 33.3646C72.5996 33.2946 73.579 33.2946 74.4886 33.3646C79.6658 33.4345 84.843 33.9942 89.9503 33.0847C94.7777 32.3151 98.8356 29.0269 103.733 28.6771C104.013 28.6071 104.293 28.6071 104.642 28.6071C105.202 28.5371 105.762 28.4672 106.322 28.4672C110.239 28.1873 114.157 28.1174 118.005 27.0679C118.355 26.998 118.635 26.928 118.915 26.7881C119.125 26.7181 119.405 26.5782 119.614 26.5082C119.894 26.4382 120.104 26.3683 120.384 26.2284C120.664 26.0885 120.874 26.0185 121.154 25.8786C121.713 25.6687 122.273 25.3888 122.833 25.1089C122.973 25.039 123.183 24.8991 123.392 24.8292C123.602 24.6892 123.812 24.6193 124.022 24.4793C124.162 24.4094 124.372 24.2694 124.512 24.1995C124.582 24.1295 124.652 24.1295 124.722 24.0595C124.932 23.9196 125.142 23.8496 125.351 23.7097C125.561 23.5698 125.841 23.4298 126.051 23.2899C126.261 23.15 126.401 23.08 126.611 22.9401C126.681 22.8701 126.821 22.8002 126.891 22.7303C126.961 22.6603 127.031 22.6602 127.031 22.6602C127.17 22.5903 127.31 22.5204 127.45 22.3805C127.59 22.3105 127.73 22.2405 127.8 22.1705C127.8 22.1705 127.87 22.1006 127.94 22.1006C128.01 22.1006 128.01 22.0306 128.08 22.0306C127.031 20.9812 125.911 19.9317 124.722 18.9523C124.932 18.9523 124.862 18.9523 124.862 18.8823Z" fill="url(#paint2_linear_232_3980)"/>
<path d="M145.151 98.6401C145.291 98.6401 145.431 98.5701 145.571 98.5701C145.711 98.5701 145.851 98.5001 145.99 98.5001C146.41 98.4302 146.83 98.3603 147.25 98.2903C147.39 98.2903 147.46 98.2902 147.53 98.2203C147.53 98.1503 147.6 98.0105 147.6 97.9405C148.859 93.8827 149.768 89.6849 150.328 85.3472L150.258 85.2772C150.188 85.2072 150.258 85.1373 150.328 85.0673H150.398C150.398 84.9974 150.398 84.9274 150.398 84.8574C149.978 84.9274 149.629 85.0673 149.279 85.1373C149.349 85.2073 149.349 85.2072 149.349 85.2772C149.349 85.3471 149.209 85.4172 149.139 85.4172C149.069 85.4172 148.999 85.2772 148.999 85.2072C148.999 85.1373 148.999 85.1373 148.999 85.1373C148.649 85.2073 148.369 85.2772 148.089 85.3472C148.019 85.3472 148.019 85.3472 148.019 85.3472C147.949 85.2772 147.949 85.2772 147.949 85.2072C147.949 85.2072 147.949 85.2073 147.949 85.1373C147.879 85.2073 147.879 85.2072 147.809 85.2072C147.74 85.2072 147.6 85.2072 147.53 85.2772C147.46 85.2772 147.32 85.3472 147.25 85.3472C146.97 85.4172 146.69 85.557 146.41 85.627C146.13 85.7669 145.781 85.8369 145.501 85.9069C143.192 86.4666 140.743 87.0263 138.365 86.9563C134.796 87.0962 131.508 85.3472 128.01 85.4871C123.672 85.2073 119.405 86.1867 115.627 88.2157C109.96 91.0142 104.922 95.142 98.9755 97.3808C94.288 99.4097 89.4606 101.928 84.2134 102.208C83.164 102.208 82.4643 100.949 82.8841 100.039C83.7237 98.92 84.913 98.2203 86.0324 97.4507C86.1024 97.3807 86.1724 97.3808 86.1724 97.3108C86.3123 97.1709 86.4522 97.1009 86.6621 96.961C88.2013 95.8416 90.0903 95.2119 91.6295 94.0925C92.2591 93.6028 93.0287 93.253 93.5884 92.6933C93.8683 92.4134 94.1481 92.1336 94.358 91.7837C94.5679 91.294 94.9877 90.7343 94.8477 90.2446C91.6295 87.9358 84.983 91.434 81.6248 92.6933C79.4559 93.7427 77.7768 95.5617 75.4681 96.3313C71.6201 97.5207 64.6239 100.809 61.0558 97.8705C60.7059 97.4507 60.636 96.891 60.4961 96.4013C60.2862 95.7716 59.9364 95.2119 59.8664 94.5123C59.8664 93.0431 60.0063 91.6438 58.4671 90.8742C56.788 89.8947 54.7591 89.9647 52.9401 90.3145C49.8617 90.8742 46.7834 91.7137 43.775 92.6233C37.3384 94.0925 30.4821 94.3724 23.9056 93.5328C19.2181 92.8332 14.7405 91.1541 10.1229 90.3145C9.56323 90.2446 8.93356 90.1746 8.3039 90.1046C8.02405 90.1046 7.7442 90.0347 7.46435 90.0347H7.25446C7.04457 90.0347 6.76472 89.9647 6.48487 89.9647C6.20502 89.8948 5.85521 89.8948 5.57536 89.8948C5.29551 89.8248 5.01565 89.8248 4.7358 89.8248C4.66584 89.8248 4.66584 89.8248 4.59588 89.8248H2.28711C2.77685 92.5533 3.47648 95.2819 4.31603 97.9405C4.31603 98.0105 4.38599 98.1503 4.38599 98.2203H4.66584C6.97461 98.3602 9.28338 98.5701 11.5921 98.85C11.872 98.85 12.0819 98.9199 12.2918 98.9199C12.6416 98.9899 12.9914 98.9899 13.3412 99.0599C13.831 99.1298 14.2507 99.1998 14.7405 99.2697C26.3543 100.529 37.8281 102.698 49.302 104.727C52.8701 105.287 56.4382 105.846 60.0063 105.846C64.1341 105.986 68.3319 105.636 72.4597 106.616C78.7563 107.945 85.4727 109.204 91.6994 107.036C94.428 105.986 97.0865 104.587 99.7451 103.258C99.8851 103.188 100.025 103.048 100.095 102.978C99.955 103.048 99.8151 103.118 99.6752 103.118C99.6052 103.188 99.5352 103.188 99.5352 103.188H99.2554C99.0455 103.118 99.1155 102.768 99.3253 102.838C99.3953 102.838 99.4653 102.768 99.5352 102.768H99.6052C100.725 102.418 101.564 101.788 102.334 101.019C103.033 100.319 103.663 99.4796 104.363 98.78C104.922 98.0804 105.482 97.4507 106.112 96.821C106.112 96.821 106.112 96.821 106.112 96.7511C106.112 96.6811 106.112 96.7511 106.112 96.6811C106.112 96.6811 106.112 96.6811 106.182 96.6112C106.252 96.5412 106.392 96.4013 106.462 96.3313C107.231 95.6317 108.001 94.9321 108.84 94.2324C112.548 91.294 117.166 89.475 121.783 88.7054C123.253 88.4255 124.862 88.5654 126.331 89.0552C127.52 89.7548 128.85 90.4544 129.689 91.5738C130.599 92.6932 131.508 93.9526 131.928 95.3518C131.998 95.4917 131.998 95.5617 132.068 95.7016C132.208 96.3313 132.208 96.9609 132.418 97.5206C132.628 98.2203 133.047 98.7101 133.607 99.0599C134.377 99.5496 135.356 99.8294 136.266 99.8994H137.315C137.665 99.8994 138.015 99.8994 138.365 99.8295H138.644C138.924 99.7595 139.204 99.7595 139.484 99.6896C139.624 99.6896 139.764 99.6195 139.904 99.6195C140.114 99.6195 140.254 99.5496 140.393 99.5496C140.673 99.4796 140.883 99.4797 141.093 99.4097C142.143 99.1998 143.122 98.9899 144.171 98.78C144.311 98.71 144.521 98.7101 144.661 98.6401C144.871 98.7101 145.011 98.6401 145.151 98.6401Z" fill="url(#paint3_linear_232_3980)"/>
<path d="M124.861 18.8837C122.342 16.7148 119.754 14.7559 116.955 12.9369C116.885 12.8669 116.745 12.8668 116.675 12.7969C115.976 13.2167 115.276 13.5665 114.647 13.8463C109.399 16.0152 103.872 17.4144 98.4152 19.0935C87.7109 21.892 77.2165 25.9499 66.1624 26.7195C57.9767 27.4191 49.8611 25.3902 41.6754 25.0403C40.9758 24.9704 40.2762 24.9704 39.5766 24.9704C36.2183 24.9704 32.9301 25.3202 29.5719 25.5301C28.5924 25.5301 27.6129 25.6001 26.6335 25.6001C26.1437 25.6001 25.654 25.67 25.1642 25.67C23.9749 25.67 22.7855 25.74 21.5961 25.8099C21.1064 25.8099 20.6167 25.88 20.1269 25.88C20.1269 25.88 20.057 25.88 19.987 25.88C19.917 25.9499 19.8471 26.0898 19.7071 26.1597C17.4683 28.7484 15.3695 31.407 13.4805 34.2755C13.5504 34.2755 13.6204 34.2755 13.6204 34.2755C13.6904 34.2755 13.7603 34.2755 13.8303 34.2755C14.1101 34.2755 14.39 34.3454 14.6698 34.3454C14.9497 34.3454 15.2295 34.4154 15.5094 34.4154C15.6493 34.4853 15.7892 34.4853 15.9292 34.4853H16.3489C16.4889 34.5553 16.6988 34.5553 16.8387 34.5553H17.3284C17.6782 34.5553 17.9581 34.6253 18.3079 34.6253C18.7976 34.6253 19.2874 34.6952 19.7771 34.6952C20.1269 34.7652 20.5467 34.7652 20.8965 34.7652C25.584 34.8351 30.2715 34.2754 34.959 33.7157C38.1773 33.226 41.2557 31.7568 44.4739 32.5264C44.7538 32.5964 45.0336 32.5963 45.3135 32.6663C45.5234 32.7363 45.7333 32.7362 45.9432 32.8062C46.0831 32.8762 46.293 32.8762 46.4329 32.9462C47.3424 33.1561 48.3219 33.5059 49.2314 33.7157C49.3713 33.7157 49.5812 33.7857 49.7211 33.8556C49.931 33.8556 50.071 33.9257 50.2808 33.9257C50.5607 33.9956 50.8405 33.9956 51.1204 33.9956C51.82 33.9956 52.5197 33.9257 53.2193 33.9257C56.0178 33.7857 58.8863 33.3659 61.6848 33.0861C62.3144 33.0161 62.8741 32.9462 63.5038 32.8762C67.6316 32.3865 71.8294 32.0367 75.9572 31.477C79.2454 30.7773 82.3937 29.7978 85.682 29.3081C85.8919 29.2381 86.0318 29.2381 86.2417 29.1682C86.5915 29.0982 86.9413 29.0982 87.2911 29.0283C87.501 29.0283 87.7808 28.9582 87.9907 28.9582C89.7398 28.8183 91.5588 28.8883 93.3779 28.9582C94.987 29.0282 96.5262 29.0982 98.1353 28.9582C98.2753 28.9582 98.4152 28.9582 98.5551 28.9582C98.695 28.9582 98.835 28.9582 98.9049 28.9582C100.794 28.7484 102.333 27.8389 104.012 26.9993C109.889 24.4107 115.066 20.3528 121.503 19.4433C121.853 19.3734 122.133 19.3035 122.482 19.2335H122.622C122.832 19.1635 122.972 19.1635 123.182 19.0935C123.322 19.0935 123.392 19.0236 123.462 19.0236H123.532C123.532 19.0236 123.602 19.0236 123.672 19.0236C123.742 19.0236 123.742 19.0236 123.742 19.0236C123.812 19.0236 123.812 19.0236 123.882 19.0236C124.022 19.0236 124.161 18.9536 124.301 18.9536C124.371 18.9536 124.441 18.9536 124.511 18.9536C124.581 18.9536 124.651 18.8837 124.721 18.8837C124.791 18.8837 124.861 18.8837 125.001 18.8837C124.931 18.9536 124.861 18.9536 124.861 18.8837Z" fill="url(#paint4_linear_232_3980)"/>
<path d="M128.289 22.0313C128.219 22.0313 128.219 22.1012 128.149 22.1012C128.079 22.1012 128.079 22.1711 128.009 22.1711C127.869 22.2411 127.729 22.3111 127.659 22.3811C127.52 22.521 127.38 22.5209 127.24 22.6608C127.17 22.6608 127.17 22.7309 127.1 22.7309C127.03 22.8008 126.89 22.8708 126.82 22.9407C126.61 23.0806 126.47 23.1506 126.26 23.2905C126.05 23.4305 125.77 23.5704 125.561 23.7103C125.351 23.8502 125.141 23.9202 124.931 24.0601C124.861 24.1301 124.791 24.1301 124.721 24.2001C124.581 24.27 124.371 24.41 124.231 24.4799C124.021 24.6199 123.812 24.7598 123.602 24.8298C123.462 24.8997 123.252 25.0396 123.042 25.1095C122.482 25.3894 121.923 25.5993 121.363 25.8792C121.083 26.0191 120.873 26.159 120.593 26.229C120.313 26.299 120.104 26.4388 119.824 26.5088C119.614 26.6487 119.334 26.7187 119.124 26.7887C118.774 26.8586 118.494 26.9986 118.215 27.0685C114.367 28.048 110.449 28.118 106.531 28.4678C105.971 28.5377 105.411 28.5377 104.852 28.6077C104.572 28.6077 104.222 28.6777 103.942 28.6777C99.0448 29.0275 94.9869 32.3157 90.1595 33.0853C85.0522 33.9948 79.875 33.4351 74.6977 33.3652C73.7183 33.2952 72.7388 33.2952 71.8293 33.3652C68.3311 33.5051 64.903 34.2047 61.4748 35.0443C57.6968 36.0238 53.7789 37.0032 49.9309 36.4435C49.4412 36.3736 48.9515 36.3036 48.3918 36.1637C47.902 36.0238 47.4123 35.8838 46.9225 35.7439C46.7127 35.674 46.4328 35.534 46.2229 35.4641C43.7742 35.0443 41.2556 34.8344 38.8069 34.8344C36.2183 34.8344 33.6996 34.9743 31.111 35.2541C30.4813 35.3241 29.8516 35.3941 29.222 35.3941C28.2425 35.4641 27.263 35.534 26.3535 35.674C25.374 35.7439 24.4645 35.8138 23.485 35.8838C20.5466 36.1637 17.6082 35.9538 14.6697 35.8139H12.6408C12.5009 35.9538 12.4309 36.1636 12.361 36.3036C12.361 36.3036 12.361 36.3736 12.291 36.3736H15.1595C17.3983 36.4436 19.7071 36.7234 21.9459 36.5135C28.5923 36.1637 35.3087 35.534 41.9552 35.7439C43.4244 35.8838 44.8936 36.0238 46.2929 36.3736C48.042 37.0732 49.861 37.423 51.75 37.493C55.3181 37.563 58.7462 36.7234 62.1744 35.8838C65.5326 35.1142 68.8908 34.2747 72.319 34.2747C74.4179 34.2747 76.5867 34.3446 78.7556 34.4146C83.7229 34.6245 88.6903 34.8344 93.4477 33.2952C96.2462 32.3157 98.7649 30.9165 101.563 30.077C107.02 28.8176 112.757 29.5172 118.215 28.048C121.993 26.9986 125.561 25.0396 128.919 22.8708C128.989 22.8008 129.059 22.7309 129.129 22.7309L129.059 22.6608C128.709 22.451 128.499 22.2411 128.289 22.0313Z" fill="url(#paint5_linear_232_3980)"/>
<path d="M134.656 29.0274C134.236 29.1673 133.746 29.3771 133.326 29.5171C133.047 29.657 132.697 29.7969 132.417 29.9368C131.088 30.4965 129.758 31.0562 128.429 31.6159C124.021 33.0852 119.544 34.0647 114.996 35.0441C110.519 35.9536 106.251 37.5628 101.773 38.6822C96.3861 39.2419 91.1389 40.5712 85.7517 41.0609C80.2946 41.4107 74.9075 41.6206 69.5204 42.1803C63.1538 42.67 56.7872 42.9499 50.3506 43.0898C42.5148 42.81 34.609 42.74 26.7732 42.4602H23.415C21.3161 42.4602 19.2172 42.3902 17.1183 42.3203C16.4887 42.3203 15.789 42.2502 15.1594 42.2502C14.7396 42.2502 14.3198 42.1803 13.9 42.1803C13.6902 42.1803 13.4803 42.1803 13.2704 42.1103H12.9905C12.7806 42.1103 12.5708 42.1104 12.3609 42.0404C11.9411 42.0404 11.5913 41.9705 11.1715 41.9705C10.7517 41.9705 10.4019 41.9004 9.98213 41.9004C9.70228 41.9004 9.42243 41.8305 9.14258 41.8305C9.14258 41.8305 9.14258 41.7605 9.21254 41.7605C9.91217 40.4312 10.6118 39.1719 11.3114 37.9126C11.4513 37.9126 11.5913 37.9126 11.8012 37.9126H13.8301C14.8795 37.9126 15.929 37.9126 16.9784 37.8426C17.678 37.8426 18.4476 37.7727 19.1472 37.7727C19.8469 37.7727 20.5465 37.7027 21.2461 37.7027C21.5959 37.7027 21.8758 37.7027 22.2256 37.6327C24.0446 37.5628 25.7937 37.4928 27.6127 37.4229C28.6622 37.3529 29.6416 37.3529 30.6911 37.2829H35.0987C37.7573 37.2829 40.4159 37.7027 43.0045 38.1225C45.803 38.6122 48.6715 39.1019 51.54 38.962C56.1575 39.5217 60.5652 37.5628 65.0428 36.7932C70.0801 35.8837 75.1874 35.9536 80.2247 36.1635C82.9532 36.3734 85.5418 36.7931 88.2704 36.6532C91.5586 36.3734 94.7769 35.6038 97.7853 34.3445C100.094 33.1551 102.403 31.8958 104.991 31.406C111.148 31.2661 117.305 30.1467 123.182 28.2577C123.392 28.1877 123.602 28.1178 123.741 28.0479C123.951 27.9779 124.091 27.9079 124.301 27.768C124.511 27.698 124.651 27.628 124.861 27.4881C125.211 27.3482 125.56 27.1384 125.91 26.9285C125.98 26.8585 126.05 26.8585 126.12 26.7885C126.26 26.7185 126.47 26.5786 126.61 26.5086C126.75 26.4387 126.89 26.2988 127.03 26.2288C127.519 25.949 128.009 25.5991 128.429 25.3193L128.499 25.2494C128.569 25.1794 128.569 25.1794 128.639 25.1794C128.779 25.0395 128.989 24.9695 129.129 24.8296C129.269 24.6897 129.408 24.6197 129.548 24.4798C129.688 24.3399 129.898 24.1999 130.038 24.0599C130.038 24.0599 130.108 24.06 130.108 23.99C130.178 23.92 130.248 23.9201 130.248 23.8501C131.787 25.3893 133.186 27.0684 134.516 28.7475C134.516 28.8874 134.586 28.9574 134.656 29.0274Z" fill="url(#paint6_linear_232_3980)"/>
<path d="M138.714 34.6943C137.384 35.1141 136.125 35.4639 134.936 35.8137C132.697 36.2335 130.388 36.4434 128.219 37.0731C125.98 37.8427 123.742 38.6122 121.643 39.6617C119.894 40.5012 118.354 41.7606 116.395 41.9705C114.716 42.0404 112.897 41.9704 111.218 42.4602C108.07 43.4397 105.341 45.3286 102.263 46.3081C100.304 46.8678 98.3451 47.4975 96.3161 47.4275C94.4272 47.2876 92.6781 46.518 90.8591 46.0283C89.18 45.7484 87.4309 45.6085 85.7518 45.7484C82.1837 45.8184 79.0354 47.4975 75.6072 48.1971C71.6893 49.1766 67.6315 49.6663 63.5736 49.4564C59.3759 49.4564 55.318 48.5469 51.1902 48.1971C42.7247 47.7073 34.3292 46.7279 25.8637 46.448C22.5055 46.3081 19.2173 46.6579 15.8591 47.0777C12.8507 47.1477 9.84226 47.2177 6.83387 46.9378H6.69394C5.50458 49.7363 4.5251 52.6748 3.68555 55.6132C3.68555 55.6832 3.68555 55.6831 3.68555 55.7531H3.75551H3.82547C4.03536 55.8231 4.17529 55.823 4.38517 55.893C4.45514 55.893 4.45514 55.893 4.45514 55.893C4.59506 55.9629 4.80495 55.963 4.94487 56.033C5.15476 56.033 5.36465 56.1029 5.50458 56.1728C5.6445 56.2428 5.78443 56.2429 5.92435 56.3128C5.99432 56.3128 6.06428 56.3828 6.13424 56.3828C6.27417 56.3828 6.41409 56.4527 6.55402 56.5227C8.93275 57.5021 11.4514 58.4816 14.04 58.6915C16.5587 58.9014 19.0773 58.7615 21.596 58.6215C25.2341 58.4117 28.8721 58.2018 32.4402 59.1113C36.7079 59.8809 40.9057 61.0703 45.1035 62.3995C48.8115 63.5189 52.4495 64.9882 56.3675 65.1981C58.4663 65.1281 60.7051 65.338 62.6641 64.4984C63.2238 64.1486 63.5736 63.379 63.3637 62.7494C63.1538 61.9098 62.5941 61.2102 61.8245 60.6505C60.2154 59.5311 57.6967 58.9714 56.0876 58.7615C52.3096 58.0619 48.2518 57.5721 44.4038 58.4817C43.8441 58.6216 43.2844 58.8315 42.6548 58.8315C42.165 58.7615 41.8152 58.4117 41.3954 58.2018H41.4654C43.4943 56.5926 45.8731 55.823 48.3917 55.5432C50.5606 55.3333 52.7994 55.4732 54.8982 55.7531C58.8161 56.2428 62.4542 57.9219 66.3022 58.8315C74.068 60.8604 80.0148 60.3007 87.5009 57.4322C92.6081 56.3128 97.7154 54.3539 102.963 54.2839C105.971 54.2139 108.77 55.4032 111.708 55.893C116.535 56.3827 121.433 54.6337 125.211 51.6952C125.84 51.2055 126.47 50.7858 127.1 50.366C132.067 46.8679 137.384 43.6496 143.331 42.6701C143.331 42.6001 143.261 42.6001 143.261 42.5301C141.862 39.8016 140.393 37.213 138.714 34.6943Z" fill="url(#paint7_linear_232_3980)"/>
<path d="M149.767 62.259C149.068 62.5389 148.298 62.8187 147.528 63.0986C147.389 63.1685 147.319 63.1685 147.179 63.2384C146.969 63.3084 146.829 63.3784 146.619 63.4484C146.339 63.5183 146.129 63.6583 145.849 63.7282C145.569 63.7982 145.36 63.8682 145.08 64.0081C144.59 64.148 144.03 64.3579 143.541 64.4978C143.331 64.5678 143.121 64.6378 142.841 64.7077C142.351 64.8477 141.861 64.9876 141.442 65.0575C141.302 65.0575 141.232 65.1275 141.092 65.1275C140.882 65.1975 140.672 65.1974 140.532 65.2674C140.322 65.3373 140.112 65.3374 139.903 65.4074C139.833 65.4074 139.833 65.4074 139.763 65.4074C139.553 65.4773 139.273 65.4773 139.063 65.5472C135.285 66.3868 131.507 67.7861 127.519 67.8561C125.56 67.8561 123.601 67.7161 121.642 67.5062C119.473 67.2964 117.235 67.0865 115.066 67.1564C111.498 67.2964 108.139 68.4857 104.711 69.3952C98.7645 71.7739 92.3979 73.5929 85.8913 73.6629C83.0928 73.7329 80.3643 73.2432 77.6357 73.1732C74.4174 73.2432 71.1292 73.3831 67.9109 73.1033C63.7132 72.7534 59.5854 72.6834 55.3876 72.9633C55.1777 72.9633 54.9678 72.9633 54.688 73.0332C51.8895 73.453 49.1609 73.9428 46.3624 74.2926C44.1936 74.5724 42.0247 74.7124 39.8559 74.5725C34.4687 74.0827 29.2215 72.4736 24.1143 70.7945C22.0854 70.1648 20.2663 69.1853 18.3074 68.4157C16.6283 67.856 14.9492 67.4362 13.2001 67.0164C12.8503 66.9465 12.5005 66.8766 12.1507 66.8066C11.7309 66.7366 11.3111 66.5967 10.9613 66.5267C10.8214 66.5267 10.7514 66.4568 10.6115 66.4568C10.3316 66.3868 10.1217 66.3868 9.84189 66.3168C9.56204 66.2469 9.28218 66.1769 9.00233 66.1769C8.09282 66.037 7.1833 65.8971 6.27379 65.7572C6.0639 65.7572 5.78405 65.6871 5.57416 65.6871C5.29431 65.6871 5.08442 65.6172 4.80457 65.6172H4.59468C4.3848 65.6172 4.10494 65.5472 3.89506 65.5472H3.82509C3.61521 65.5472 3.40532 65.4773 3.19543 65.4773H2.77565C2.56577 65.4773 2.28592 65.4773 2.07603 65.4074H1.65625C1.65625 65.1975 1.72621 65.0575 1.72621 64.8476C6.0639 64.9176 10.4016 65.7572 14.6693 66.8066C15.5089 67.0165 16.3484 67.2263 17.188 67.4362C19.4967 67.9959 21.5956 69.2553 23.7645 70.0249C27.4725 71.2842 31.2505 72.3336 35.0285 73.1732C41.1852 74.7124 47.5518 73.8028 53.6385 72.5435C57.5564 72.1237 61.6842 72.0538 65.6021 72.2637C68.4706 72.6135 71.409 72.5435 74.2775 72.5435C77.2159 72.5435 80.0844 72.4736 83.0229 72.8234C83.6525 72.8934 84.2822 72.8933 84.9119 72.9633C91.6283 73.1732 98.2747 71.2842 104.501 68.7655C109.189 67.3663 114.016 65.9671 118.984 66.4568C121.992 66.5967 125.07 67.2263 128.079 67.0864C130.388 66.9465 132.626 66.5267 134.865 65.8971C137.524 65.2674 140.112 64.4278 142.771 63.9381C142.981 63.8681 143.191 63.8681 143.401 63.7982C143.541 63.7282 143.68 63.7283 143.89 63.6583C144.45 63.5184 145.01 63.3084 145.569 63.1685C145.709 63.0985 145.849 63.0986 145.989 63.0286C146.199 62.9586 146.479 62.8887 146.689 62.7487C146.829 62.6788 146.969 62.6788 147.109 62.6089C147.878 62.1191 148.718 61.7692 149.557 61.4194C149.627 61.6293 149.627 61.8392 149.697 62.0491C149.767 62.1191 149.767 62.1891 149.767 62.259Z" fill="url(#paint8_linear_232_3980)"/>
<path d="M46.2229 14.1249C50.4907 13.9151 54.7584 13.5652 58.9562 12.7257C70.2901 10.5568 82.2537 9.08766 92.6082 3.49065C92.8181 3.35072 93.0979 3.21073 93.3778 3.0708C93.4478 3.00084 93.5177 2.93091 93.5877 2.93091C87.9207 1.60162 82.0438 0.832031 76.0271 0.832031C60.0056 0.832031 45.1735 5.86936 33 14.4048C33.1399 14.4048 33.3498 14.4048 33.4897 14.4048C37.6875 14.2649 41.9552 14.2649 46.2229 14.1249Z" fill="url(#paint9_linear_232_3980)"/>
<path d="M10.5415 99.7596C10.8913 99.7596 11.1711 99.7596 11.451 99.8296C11.7308 99.8995 12.0807 99.8995 12.3605 99.9695C24.0443 101.089 35.5182 103.258 47.062 105.357C50.5601 105.846 53.9883 106.616 57.5564 106.756C59.6553 106.896 61.6842 106.896 63.7831 106.896C65.3223 106.896 66.8614 106.896 68.4006 106.966C73.0881 107.525 77.6357 108.925 82.3932 109.135C85.7514 109.275 89.2495 108.995 92.3978 107.665C95.0564 106.266 97.8549 104.867 100.444 103.328C100.514 103.398 100.653 103.468 100.723 103.398C100.863 103.258 101.073 103.118 101.073 102.908V102.768C101.073 102.698 101.073 102.698 101.073 102.698C101.003 102.698 101.003 102.698 101.003 102.698C101.073 102.628 101.143 102.628 101.213 102.558C101.353 102.488 101.493 102.418 101.563 102.348C101.563 102.278 101.633 102.278 101.703 102.208C101.773 102.208 101.843 102.138 101.913 102.068C101.983 102.068 101.983 102.068 101.983 102.068C101.983 101.998 102.053 101.998 102.123 101.928C102.193 101.858 102.263 101.788 102.333 101.719L102.542 101.509C102.752 101.369 102.892 101.159 103.032 101.019C103.102 100.949 103.102 100.949 103.172 100.879C103.312 100.739 103.452 100.599 103.592 100.459C103.732 100.249 103.942 100.039 104.152 99.8995C104.222 99.8296 104.291 99.7596 104.361 99.6897C106.111 97.8007 108 96.1216 110.028 94.5824C111.917 93.0432 114.226 92.0637 116.465 91.1542C118.914 90.1747 121.572 89.4052 124.231 89.5451C124.861 89.6151 125.56 89.685 126.19 89.8249C127.519 90.5245 128.848 91.2941 129.758 92.5534C130.178 93.0432 130.597 93.533 130.877 94.0927C130.877 94.0927 130.877 94.0927 130.877 94.1626C131.227 94.7223 131.507 95.352 131.647 95.9816C131.997 96.9611 131.857 98.0805 132.556 98.9901C132.976 99.4798 133.466 99.8296 133.956 100.109C137.594 102.138 143.121 99.8995 146.899 99.2698C147.039 99.2698 147.249 99.1999 147.389 99.1999C147.458 99.06 147.458 98.99 147.528 98.8501C147.598 98.7102 147.668 98.5003 147.668 98.2904C147.668 98.2205 147.738 98.0805 147.738 98.0106C147.319 98.0805 146.899 98.1504 146.479 98.2204C146.339 98.2204 146.199 98.2904 146.059 98.2904C145.919 98.2904 145.779 98.3604 145.639 98.3604C145.5 98.3604 145.36 98.4303 145.22 98.4303C145.08 98.5003 144.87 98.5003 144.73 98.5702C143.68 98.7801 142.701 98.99 141.652 99.1999C141.372 99.2699 141.162 99.2699 140.952 99.3399C140.742 99.3399 140.602 99.4098 140.462 99.4098C140.322 99.4098 140.182 99.4798 140.042 99.4798C139.763 99.5497 139.483 99.6197 139.203 99.6197H138.923C138.573 99.6197 138.223 99.6897 137.874 99.6897H136.824C135.705 99.4798 134.445 99.13 133.676 98.3604C133.396 98.0805 133.186 97.7307 133.046 97.3109C132.976 97.171 132.976 96.9611 132.906 96.7512C132.836 96.1915 132.766 95.6319 132.556 95.1421C132.137 93.7429 131.227 92.5535 130.318 91.3641C129.478 90.2447 128.219 89.5451 126.959 88.8455C125.56 88.3557 123.881 88.2158 122.412 88.4957C117.724 89.1953 113.177 91.0142 109.469 94.0226C108.489 94.7922 107.58 95.5618 106.74 96.4713C106.67 96.5413 106.53 96.6812 106.46 96.7512C106.46 96.7512 106.46 96.7512 106.39 96.8211C106.39 96.8211 106.39 96.8212 106.39 96.8912C106.39 96.9611 106.39 96.8912 106.39 96.9611C105.901 97.4509 105.411 98.0105 104.991 98.5702C104.222 99.4098 103.522 100.389 102.612 101.229C101.913 101.858 101.213 102.348 100.234 102.628C100.164 102.698 100.024 102.698 99.9538 102.698C99.8139 102.698 99.6739 102.908 99.8139 102.978C99.8139 102.978 99.8838 102.978 99.8838 103.048H100.094C100.164 102.978 100.234 102.978 100.304 102.978C100.444 102.908 100.583 102.908 100.723 102.838C100.583 102.978 100.514 103.048 100.374 103.118C100.164 103.188 100.024 103.328 99.8139 103.398C97.3652 104.587 94.8465 105.846 92.3279 106.896C86.1012 109.065 79.3848 107.805 73.0881 106.476C70.2896 105.846 67.4212 105.776 64.6226 105.776H63.8531C62.7337 105.846 61.5443 105.846 60.4249 105.776C56.7868 105.776 53.2887 105.287 49.7206 104.657C38.2467 102.628 26.7728 100.459 15.159 99.1999C14.6693 99.1299 14.2495 99.06 13.7598 98.9901C13.41 98.9201 13.0601 98.92 12.7103 98.8501C12.4305 98.8501 12.2206 98.7801 12.0107 98.7801C9.70193 98.5003 7.39316 98.2904 5.08439 98.1505H4.52469C4.45473 98.1505 4.38477 98.1505 4.38477 98.1505C4.38477 98.2204 4.45473 98.3604 4.45473 98.4303C4.52469 98.6402 4.59465 98.9201 4.66462 99.13C4.66462 99.1999 4.73458 99.3399 4.73458 99.4098C4.8745 99.4098 5.01443 99.4798 5.15435 99.4798C5.22432 99.4798 5.22432 99.4798 5.22432 99.4798C5.36424 99.5497 5.57413 99.5497 5.71406 99.5497C5.78402 99.5497 5.78402 99.5497 5.85398 99.5497C6.13383 99.5497 6.34372 99.6197 6.62357 99.6197C6.90342 99.6197 7.11331 99.6897 7.39316 99.6897C7.46312 99.6897 7.46312 99.6897 7.53309 99.6897H7.8829C8.51256 99.7596 9.07226 99.8296 9.70193 99.8995C9.98178 99.6896 10.1917 99.6897 10.5415 99.7596Z" fill="url(#paint10_linear_232_3980)"/>
<path d="M113.947 138.868C114.297 138.868 114.647 138.868 114.997 138.868H116.466C116.536 138.868 116.536 138.798 116.606 138.798C116.886 138.588 117.166 138.448 117.445 138.238C117.655 138.099 117.865 137.959 118.005 137.819C118.005 137.819 118.075 137.749 118.145 137.749C114.857 137.959 111.569 137.889 108.28 137.329C104.852 136.839 101.354 136.07 97.8559 136.07C97.7859 136.07 97.7859 136.07 97.7859 136.07C97.0163 136 96.2467 136 95.4771 136C92.1189 136 88.9006 136.21 85.6124 136.559C85.3325 136.559 85.0527 136.629 84.7728 136.629C82.8838 136.769 80.9249 136.979 79.0359 137.049C76.0975 137.259 73.229 137.329 70.2906 137.119C65.2532 136.909 60.2859 136.349 55.3885 135.44C52.4501 134.88 49.5816 133.971 46.5732 134.041C44.4044 133.971 42.2355 134.041 40.0667 134.111C36.7784 134.251 33.4202 134.53 30.132 134.67H29.5723C29.6422 134.74 29.7122 134.74 29.7122 134.81C30.062 135.09 30.4818 135.44 30.8316 135.72C34.8894 135.58 38.9473 135.23 42.9351 135.16C43.4948 135.16 44.1245 135.16 44.6842 135.16C45.034 135.16 45.4538 135.16 45.8036 135.16C46.0835 135.16 46.3633 135.16 46.7131 135.16C47.6226 135.16 48.5322 135.23 49.3717 135.3C57.6273 137.119 66.0928 138.238 74.5583 138.308H74.7682C75.8176 138.308 76.867 138.238 77.9165 138.169C78.1264 138.169 78.3363 138.168 78.5462 138.098C78.9659 138.029 79.3857 138.029 79.8754 138.029C80.1553 138.029 80.4351 137.959 80.715 137.959C81.2047 137.889 81.6945 137.889 82.1842 137.819C82.534 137.819 82.8838 137.749 83.2336 137.749C83.9333 137.679 84.6329 137.609 85.3325 137.539C85.6124 137.539 85.8922 137.469 86.1721 137.469C86.4519 137.469 86.7318 137.399 87.0116 137.399C87.5014 137.329 87.9911 137.329 88.4809 137.259C88.5508 137.259 88.6208 137.259 88.6907 137.259C89.3204 137.189 89.9501 137.189 90.5797 137.189C90.7197 137.189 90.7896 137.189 90.9295 137.189H91.4892C91.6991 137.189 91.909 137.189 92.049 137.189C94.5676 137.049 97.0163 137.049 99.465 137.189C99.465 137.189 99.535 137.189 99.6049 137.189H99.6749C99.8148 137.189 100.025 137.189 100.165 137.189C100.375 137.189 100.584 137.189 100.794 137.259C104.852 137.819 108.91 138.728 113.038 138.868C113.388 138.868 113.667 138.868 113.947 138.868Z" fill="url(#paint11_linear_232_3980)"/>
<path d="M120.174 131.802H120.734C122.553 131.802 124.232 131.733 126.051 131.593C126.261 131.453 126.471 131.243 126.611 131.033C126.051 131.103 125.561 131.103 125.072 131.103C124.722 131.173 124.372 131.173 124.022 131.173C117.236 131.313 110.519 129.844 103.803 129.424C101.144 129.424 98.4858 129.704 95.8971 130.263C92.8887 131.173 89.8104 132.152 86.5921 131.872C84.3533 131.872 82.0445 131.313 79.8057 131.243C76.4475 131.173 73.2292 130.543 70.0809 129.424C65.8831 128.094 61.3356 126.765 56.8579 126.765C56.0184 126.765 55.1089 126.835 54.2693 126.905C51.3309 127.255 48.6023 128.584 45.7339 129.074C42.0958 129.424 38.5277 128.794 34.9596 128.164C31.3216 127.535 27.7535 126.835 24.0454 127.255C23.6956 127.325 23.2759 127.325 22.926 127.395C22.7861 127.395 22.7162 127.465 22.5762 127.465C22.2964 127.465 22.0865 127.535 21.8066 127.605C22.0165 127.815 22.2264 128.094 22.5063 128.304C22.5762 128.304 22.7162 128.304 22.7861 128.234C26.9139 127.465 30.9718 128.234 35.0296 128.934C39.0175 129.704 42.9354 130.403 46.9932 129.704C49.9316 128.864 52.8001 127.745 55.8785 127.605C60.9158 127.465 65.8132 128.864 70.5706 130.473C74.1387 131.733 77.9167 132.012 81.6247 132.222C83.4438 132.432 85.1928 132.712 86.9419 132.712C90.0902 132.922 93.0986 132.012 96.107 131.103C98.1359 130.613 100.305 130.403 102.474 130.263C104.922 130.053 107.301 130.543 109.68 130.823C112.758 131.103 115.906 131.383 118.985 131.663C119.475 131.802 119.824 131.802 120.174 131.802Z" fill="url(#paint12_linear_232_3980)"/>
<path d="M139.764 108.434C138.014 108.434 136.195 108.434 134.446 108.784C132.278 109.134 130.249 109.834 128.29 110.813C127.38 111.233 126.681 111.792 125.841 112.212C125.771 112.282 125.631 112.282 125.561 112.352H125.491C126.191 112.002 126.82 111.583 127.52 111.163C128.15 110.813 128.849 110.463 129.479 110.113C130.179 109.694 130.878 109.204 131.438 108.644C131.438 108.644 131.438 108.574 131.368 108.504C131.368 108.434 131.298 108.434 131.298 108.434C130.808 108.574 130.459 108.994 130.039 109.274C127.59 111.023 124.861 112.282 122.133 113.332C119.614 114.031 117.026 114.031 114.437 114.241C111.988 114.521 109.61 114.311 107.371 113.751C106.321 113.542 105.342 113.192 104.362 112.842C103.453 112.492 102.543 112.142 101.634 111.723C100.235 111.443 98.8354 111.653 97.5061 112.002C96.4566 112.282 95.4072 112.562 94.3578 112.772C93.7981 112.912 93.1684 113.122 92.6087 113.332C89.7402 114.241 86.8717 115.361 83.7934 115.85C83.5835 115.92 83.3736 115.92 83.1637 115.92C83.1637 115.92 83.1637 115.92 83.0938 115.92C82.2542 115.99 81.4146 115.99 80.5751 115.92C80.5051 115.92 80.4352 115.92 80.4352 115.92C79.5956 115.85 78.7561 115.71 77.9165 115.501C77.9165 115.501 77.9165 115.501 77.8466 115.501C76.0275 115.081 74.2085 114.451 72.4594 113.961C69.9408 113.192 67.4221 112.842 64.9035 112.842C63.3643 112.842 61.8251 112.982 60.2859 113.192C57.4874 113.542 54.6889 112.982 51.8904 112.632C44.8242 111.583 38.0378 109.694 31.0415 108.364C30.6917 108.294 30.3419 108.224 29.9921 108.154C23.9053 106.895 17.6786 106.895 11.5219 107.105C11.1721 107.175 10.7523 107.175 10.4025 107.175C9.63293 107.245 8.86334 107.245 8.09375 107.315C8.30364 107.805 8.58349 108.364 8.79338 108.854C10.3326 112.072 12.1516 115.151 14.1805 118.019C14.2505 118.089 14.2505 118.159 14.3204 118.229H14.3904C14.6003 118.159 14.7402 118.159 14.8801 118.159C15.09 118.089 15.3699 118.089 15.5798 118.089C15.7896 118.019 15.9296 118.019 16.1395 118.019H16.3493C16.909 118.019 17.4688 117.949 18.0285 117.949H18.868C19.5676 117.949 20.1973 117.879 20.8969 117.879C21.3167 117.879 21.8064 117.809 22.2262 117.809H22.8559C23.0658 117.739 23.3456 117.739 23.5555 117.739C29.3624 117.529 35.0294 119.279 40.6264 120.538C47.2029 121.867 53.9193 123.336 60.6357 122.917C63.1544 122.847 65.4632 121.937 67.9119 121.377C70.3605 121.028 72.8092 121.237 75.188 121.587C82.1143 122.637 89.1805 123.616 96.1768 122.917C102.264 121.937 108.56 121.867 114.647 120.818C116.326 120.538 117.935 120.328 119.614 120.048C120.104 119.908 120.664 119.838 121.223 119.768C122.133 119.628 123.112 119.488 124.092 119.349C124.652 119.279 125.141 119.209 125.701 119.139C126.541 118.999 127.31 118.929 128.15 118.789C128.639 118.719 129.059 118.649 129.479 118.579C129.829 118.509 130.179 118.509 130.528 118.439H130.598C130.808 118.439 130.948 118.369 131.158 118.369C131.578 118.299 132.068 118.229 132.487 118.159C132.907 118.159 133.327 118.089 133.747 118.019H133.817C134.306 117.949 134.726 117.879 135.216 117.809C135.636 117.739 136.056 117.739 136.475 117.669C136.895 117.599 137.315 117.599 137.735 117.529C138.014 117.46 138.294 117.459 138.574 117.459C138.644 117.389 138.714 117.32 138.714 117.25C140.533 114.521 142.142 111.723 143.611 108.784C143.611 108.784 143.611 108.784 143.611 108.714C143.681 108.644 143.681 108.574 143.751 108.434C143.751 108.434 143.751 108.434 143.751 108.364C143.611 108.364 143.472 108.434 143.332 108.434C142.072 108.434 140.953 108.434 139.764 108.434Z" fill="url(#paint13_linear_232_3980)"/>
<path d="M150.467 84.6477C150.187 84.7176 149.908 84.7876 149.558 84.8575C149.558 84.8575 149.628 84.9275 149.628 84.9975C149.628 85.0675 149.558 85.1374 149.418 85.1374C149.278 85.1374 149.278 85.0674 149.278 84.9275C149.278 84.9275 149.278 84.9275 149.278 84.8575C148.998 84.9275 148.718 84.9975 148.368 85.0674H148.298C148.228 84.9975 148.228 84.9275 148.228 84.8575C148.159 84.8575 148.159 84.8575 148.089 84.9275C148.019 84.9275 147.879 84.9975 147.809 84.9975C147.739 84.9975 147.599 85.0674 147.529 85.0674C147.249 85.1374 146.969 85.2774 146.689 85.3473C146.409 85.4173 146.06 85.5571 145.78 85.6271C143.471 86.1868 141.092 86.8165 138.644 86.6765C136.895 86.7465 135.215 86.3267 133.536 85.9769C131.787 85.5571 130.108 85.1374 128.359 85.2773C124.021 85.0674 119.754 86.0469 115.976 88.0058C110.309 90.8044 105.271 94.9321 99.3246 97.1709C94.5671 99.1999 89.8096 101.719 84.5624 101.998C83.513 102.068 82.8134 100.809 83.2331 99.8296C83.9328 98.92 84.9822 98.2204 86.0316 97.5208C86.1016 97.4508 86.1716 97.4508 86.1716 97.3809C86.3115 97.2409 86.4514 97.171 86.6613 97.031C86.8012 96.9611 86.8712 96.8211 87.0111 96.7512C88.5503 95.6318 90.4393 95.0021 91.9785 93.8827C92.5382 93.5329 93.0979 93.1831 93.5876 92.7633C94.0074 92.4135 94.4272 92.0637 94.707 91.5739C94.9169 91.0842 95.3367 90.5945 95.1968 90.0348C91.9785 87.726 85.332 91.2241 81.9738 92.4835C79.805 93.5329 78.1259 95.3519 75.8171 96.1215C71.9692 97.3808 64.9029 100.599 61.4048 97.6607C61.055 97.241 60.915 96.6813 60.8451 96.1915C60.6352 95.5619 60.2854 95.0021 60.2154 94.3025C60.2154 92.8333 60.3554 91.434 58.8162 90.6645C57.1371 89.685 55.1081 89.6849 53.2891 90.1047C50.2108 90.6644 47.1324 91.504 44.124 92.4135C37.6175 93.8827 30.8311 94.1625 24.2546 93.323C19.5671 92.6234 15.0895 90.9443 10.472 90.1047C9.84229 90.0348 9.21263 89.9648 8.65293 89.8949C8.37308 89.8949 8.09323 89.8249 7.81338 89.8249H7.60349C7.32364 89.8249 7.04379 89.7549 6.8339 89.7549C6.55405 89.7549 6.20423 89.685 5.92438 89.685C5.64453 89.685 5.36468 89.685 5.08483 89.615C5.01487 89.615 5.01487 89.615 4.9449 89.615H2.1464C1.51673 86.2568 1.09696 82.7586 0.957031 79.2605C0.957031 79.1905 0.957031 79.1206 0.957031 79.0507C1.37681 79.0507 1.79659 78.9806 2.21636 78.9806C2.35629 78.9806 2.49621 78.9807 2.56618 78.9107C2.91599 78.9107 3.2658 78.8407 3.61562 78.8407C4.17532 78.7708 4.80498 78.7708 5.36468 78.7009C5.64453 78.7009 5.85442 78.7008 6.06431 78.6308H6.62401C6.90386 78.6308 7.25367 78.6308 7.53352 78.5609C8.02326 78.5609 8.513 78.4909 9.00274 78.4909C11.6613 78.6309 14.3199 79.0507 16.6986 80.1701C17.6081 80.31 18.5177 80.5198 19.3572 80.7297C20.8964 81.0795 22.5055 81.3594 24.0447 81.4293C26.0736 81.5693 28.0326 81.3594 30.0615 81.1496C30.5512 81.0796 31.1109 81.0795 31.6007 81.0096C34.4692 80.9396 37.3376 80.8697 40.2761 80.8697C43.1445 80.8697 45.943 80.9396 48.8115 81.2195C55.2481 82.129 61.5447 84.2979 68.0512 84.3678C69.1706 84.4378 70.2201 84.3678 71.3395 84.2979C76.3768 83.8781 81.2742 82.129 86.2415 81.6393C89.2499 81.4993 92.2583 81.6392 95.2667 81.7791C97.9253 81.9191 100.584 82.059 103.312 81.9891C110.309 82.129 117.235 80.6598 124.091 79.7503C130.178 79.0507 136.055 77.3016 141.932 75.6225C143.051 75.2727 144.241 74.9928 145.36 74.643C145.57 74.573 145.78 74.503 145.99 74.4331C146.969 74.1532 148.019 73.8734 148.998 73.5236C149.138 73.4536 149.348 73.4536 149.488 73.3836C149.908 73.2437 150.327 73.1038 150.677 72.9639C150.677 73.0338 150.677 73.1038 150.677 73.1738C150.747 74.0833 150.747 74.9228 150.747 75.8323C150.957 78.7708 150.817 81.7093 150.467 84.6477Z" fill="url(#paint14_linear_232_3980)"/>
<path d="M92.3293 143.276C90.5103 143.346 88.6912 143.416 86.8722 143.486C81.4151 143.696 75.958 143.906 70.5009 144.046C69.5914 144.046 68.6819 144.116 67.7724 144.116C66.8629 144.116 65.9534 144.186 65.0438 144.186C64.2043 144.186 63.3647 144.185 62.5951 144.255C61.7556 144.255 60.916 144.255 60.1465 144.325C58.5373 144.325 56.8582 144.325 55.2491 144.395H55.0392C54.7593 144.395 54.4795 144.395 54.1996 144.395H54.0597C53.9198 144.395 53.7099 144.395 53.5 144.395C51.611 144.325 49.722 144.255 47.903 144.116C47.5532 144.116 47.1334 144.046 46.7836 144.046C46.3638 144.046 46.014 143.976 45.5942 143.976C45.5243 143.976 45.3843 143.976 45.3144 143.976C44.8946 143.976 44.4748 143.906 44.125 143.836C53.7799 148.383 64.6241 150.972 76.028 150.972C88.3414 150.972 100.025 147.964 110.24 142.716H108.631C103.243 142.786 97.7864 143.066 92.3293 143.276Z" fill="url(#paint15_linear_232_3980)"/>
<path d="M149.207 84.5778C149.347 84.5078 149.487 84.5078 149.557 84.5078C149.417 84.5078 149.347 84.5078 149.207 84.5778Z" fill="url(#paint16_linear_232_3980)"/>
<path d="M112.129 142.366C112.059 142.366 112.059 142.436 112.129 142.366C112.199 142.366 112.269 142.366 112.339 142.366C112.269 142.366 112.199 142.366 112.129 142.366Z" fill="url(#paint17_linear_232_3980)"/>
<path d="M10.8223 35.6743C11.1021 35.3245 11.312 34.9046 11.5219 34.4849C11.312 34.9046 11.1021 35.2545 10.8223 35.6743Z" fill="url(#paint18_linear_232_3980)"/>
<path d="M126.82 94.3025C128.919 95.4219 129.898 98.2204 129.758 100.459C129.548 101.788 129.408 103.188 128.569 104.307C127.659 105.846 126.89 107.525 125.491 108.645C121.293 112.143 115.486 111.163 110.449 111.653C108.56 111.513 106.531 110.884 105.061 109.764C103.662 108.365 103.242 106.196 104.712 104.657C104.362 104.727 104.012 105.147 103.732 104.867C103.662 104.797 103.732 104.657 103.802 104.587C104.292 104.237 104.921 104.167 105.411 103.817C105.971 103.188 106.671 102.698 107.09 101.998C108.28 101.089 109.469 100.179 110.379 98.99C112.198 97.0311 114.157 95.072 116.605 93.9526C119.963 91.9937 123.462 92.2036 126.82 94.3025Z" fill="url(#paint19_linear_232_3980)"/>
<path opacity="0.57" d="M138.085 117.81C137.245 119.069 136.406 120.258 135.496 121.448C133.817 121.518 132.068 121.658 130.389 122.007C123.672 123.477 117.376 125.016 110.659 126.205C107.021 126.905 103.313 126.695 99.6052 126.765C96.6668 126.555 93.7284 125.925 90.7899 125.505C89.6006 125.366 88.4812 124.806 87.2918 124.946C86.872 125.016 86.942 124.316 87.3618 124.526C89.6705 124.526 92.0493 124.806 94.358 124.806C95.0577 124.806 95.6873 124.806 96.3869 124.736C102.194 124.316 108.001 123.477 113.668 122.217C117.446 121.308 121.224 120.538 124.932 119.699C126.681 119.209 128.5 118.789 130.319 118.439H130.389C131.438 118.229 132.488 118.089 133.537 118.019H133.607C134.027 118.019 134.447 117.95 134.866 117.95C135.986 117.88 137.035 117.88 138.085 117.81Z" fill="url(#paint20_linear_232_3980)"/>
<path opacity="0.57" d="M70.8493 111.793C70.8493 111.793 70.7793 111.863 70.7094 111.863C70.6394 111.863 70.6394 111.933 70.5695 111.933H70.4995C70.4995 111.933 70.4995 111.933 70.4295 111.933C70.0097 111.863 69.6599 111.793 69.2402 111.793C67.8409 111.653 66.5116 111.863 65.1124 111.933C62.5237 111.933 60.0051 112.073 57.4165 112.493C56.437 112.633 55.4575 112.633 54.478 112.633C53.1487 112.633 51.8194 112.493 50.4902 112.213C48.1814 111.863 45.9426 111.373 43.7038 110.744C42.1646 110.324 40.6954 109.904 39.1562 109.414H39.0862C39.0163 109.414 38.9463 109.344 38.8763 109.344H38.8064C38.8064 109.344 38.8064 109.344 38.7364 109.344C36.5676 108.645 34.4687 108.435 32.2999 108.225C31.4603 108.155 30.6907 108.085 29.8512 108.015C29.4314 108.015 29.0116 107.945 28.5918 107.875C21.9454 107.735 15.229 107.665 8.65246 108.715C8.37261 108.225 8.16272 107.665 7.95283 107.176C7.88287 107.106 7.88287 107.036 7.81291 106.896C7.60302 106.336 7.32317 105.846 7.11328 105.287H7.18324C13.4099 104.237 19.7765 104.097 26.1431 104.307C30.3409 104.447 34.6086 104.587 38.7364 105.637C45.4528 107.595 52.3791 109.904 59.4454 109.065C61.8941 108.855 64.3428 109.344 66.6515 110.044H66.7215C66.7915 110.044 66.8614 110.114 67.0013 110.114C67.0713 110.114 67.1413 110.114 67.2112 110.184C67.2812 110.184 67.2812 110.184 67.3512 110.184C67.4211 110.254 67.4911 110.254 67.5611 110.254C67.631 110.254 67.631 110.254 67.701 110.254C67.7709 110.254 67.7709 110.254 67.8409 110.324H67.9109C67.9808 110.324 67.9808 110.324 68.0508 110.324C68.1907 110.394 68.3306 110.394 68.5405 110.464C68.6105 110.464 68.6105 110.464 68.6805 110.464C69.3801 110.744 70.0098 111.024 70.5695 111.443C70.5695 111.443 70.6394 111.443 70.6394 111.513H70.7094C70.7094 111.513 70.7094 111.513 70.7793 111.513C70.7793 111.723 70.8493 111.653 70.8493 111.793Z" fill="url(#paint21_linear_232_3980)"/>
<path d="M54.8984 81.3599C54.8984 81.2199 54.9685 81.1499 55.1085 81.1499C55.2486 81.1499 55.3186 81.2199 55.3186 81.3599C55.3186 81.5 55.2486 81.5701 55.1085 81.5701C54.9685 81.5701 54.8984 81.5 54.8984 81.3599Z" fill="url(#paint22_linear_232_3980)"/>
<path opacity="0.57" d="M139.273 104.797C137.733 104.657 135.914 105.287 134.865 103.958C134.445 103.538 134.095 102.978 133.746 102.488C133.886 101.649 133.956 100.809 133.886 100.04C133.886 99.8999 133.886 99.7599 133.816 99.55C133.816 99.4101 133.746 99.2702 133.746 99.1302C133.676 98.8504 133.606 98.5706 133.536 98.2907C133.536 98.1508 133.466 98.0808 133.466 97.9409C133.256 97.5211 133.046 97.1013 132.766 96.6815C132.556 96.3317 132.346 96.0519 132.136 95.772C131.927 95.4222 131.717 95.1424 131.437 94.8625C131.227 94.5827 131.017 94.3728 130.807 94.093C130.807 94.093 130.807 94.0929 130.807 94.0229C128.918 91.994 126.539 90.7347 123.321 90.315C116.815 89.2655 110.238 95.2823 105.271 98.8504C104.851 99.1302 104.431 99.4801 104.081 99.8299C103.872 100.04 103.732 100.25 103.522 100.39C102.752 101.369 102.192 102.558 101.983 103.818C101.423 105.357 101.213 107.036 101.703 108.575C98.9742 108.225 96.1756 108.225 93.5171 108.995C91.4182 109.625 89.2493 110.814 87.0805 111.514C83.0227 112.913 78.615 112.493 74.6271 111.094C72.4583 110.534 70.1495 110.324 67.8407 110.324H67.6309C67.9107 110.394 68.1206 110.464 68.4005 110.534C69.1001 110.814 69.7997 111.094 70.3594 111.584C70.4294 111.654 70.4993 111.584 70.5693 111.584C70.5693 111.584 70.5693 111.584 70.6393 111.584C70.7092 111.584 70.7092 111.654 70.7092 111.724V111.793C70.7092 111.933 70.5693 112.003 70.4294 112.003C70.0096 111.933 69.6598 111.863 69.24 111.863C69.5199 111.933 69.7297 112.003 69.8697 112.073C71.4089 112.703 72.8781 113.473 74.4172 114.102C75.4667 114.592 76.5861 115.012 77.7055 115.362C77.7055 115.362 77.7055 115.362 77.7754 115.362C78.545 115.571 79.3146 115.711 80.1542 115.781C80.2242 115.781 80.2241 115.781 80.2941 115.781C80.3641 115.781 80.434 115.781 80.434 115.781C81.2736 115.851 82.1131 115.851 82.9527 115.781C82.9527 115.781 82.9527 115.781 83.0227 115.781C84.8417 115.641 86.5907 115.362 88.2699 114.802C89.7391 114.382 91.0684 113.822 92.4676 113.193C92.7475 113.053 93.0273 112.913 93.3072 112.843C94.6365 112.353 95.9657 112.073 97.365 111.933C98.3445 111.863 99.324 111.863 100.303 112.003C101.563 112.213 102.892 112.493 104.221 112.773L104.991 112.913C105.761 113.193 106.46 113.473 107.23 113.683C109.259 114.312 111.288 114.802 113.386 114.872C117.164 114.872 121.012 114.522 124.65 113.473C128.778 112.143 132.766 110.184 137.104 109.135C137.314 109.065 137.524 109.065 137.733 108.995C139.553 108.925 141.372 108.715 143.261 108.645C143.261 108.645 143.261 108.645 143.261 108.575C143.33 108.505 143.33 108.435 143.4 108.295C143.4 108.295 143.4 108.295 143.4 108.225C143.4 108.155 143.47 108.085 143.54 107.946C144.1 106.826 144.59 105.707 145.08 104.517C143.261 104.797 141.232 104.867 139.273 104.797ZM129.618 103.888C128.428 105.567 127.309 107.316 125.63 108.505C125.63 108.505 125.63 108.505 125.56 108.505C125.56 108.505 125.49 108.505 125.49 108.575C125.28 108.715 125.07 108.855 124.86 108.995C124.371 109.275 123.881 109.485 123.461 109.835C123.391 109.905 123.391 109.904 123.321 109.974C123.321 109.974 123.251 109.974 123.251 110.044C123.181 110.044 123.181 110.044 123.111 110.044C122.971 110.044 122.901 110.114 122.761 110.114C121.222 110.534 119.683 110.884 118.144 111.164C117.864 111.234 117.584 111.234 117.304 111.304H117.234C115.765 111.514 114.296 111.654 112.757 111.724C112.757 111.654 112.757 111.514 112.757 111.444V111.374C112.617 110.814 112.197 110.324 111.567 110.184C109.469 109.765 107.44 109.485 105.271 109.205C104.991 108.855 104.711 108.435 104.711 107.946C104.571 107.176 104.711 106.406 104.851 105.637C105.061 105.147 105.271 104.657 105.341 104.168C105.341 104.028 105.411 103.888 105.481 103.678C105.481 103.678 105.481 103.608 105.481 103.538C105.97 101.999 107.58 101.159 108.769 100.18C109.119 99.9698 109.469 99.6899 109.818 99.4801L109.888 99.4101C111.218 98.5006 112.477 97.4512 113.876 96.6116C116.255 95.0025 118.774 93.4632 121.782 93.3233C123.391 93.5332 125.07 93.883 126.539 94.5827C127.589 95.3523 128.498 96.2618 129.268 97.3112C129.688 97.9409 130.108 98.5705 130.387 99.2701C130.527 101.019 130.457 102.558 129.618 103.888Z" fill="url(#paint23_linear_232_3980)"/>
<path opacity="0.57" d="M143.54 108.366C143.47 108.436 143.47 108.506 143.401 108.646C141.861 108.716 140.252 108.786 138.713 108.995C138.223 108.995 137.664 108.995 137.174 108.925C137.384 108.855 137.594 108.856 137.803 108.786C139.762 108.646 141.651 108.506 143.54 108.366Z" fill="url(#paint24_linear_232_3980)"/>
<path opacity="0.57" d="M70.4997 111.934C70.0799 111.864 69.7301 111.794 69.3104 111.794C67.9111 111.374 64.9727 111.024 65.1825 110.115C65.3225 109.905 65.7423 109.975 66.0221 110.045C66.302 110.115 66.5818 110.115 66.8617 110.115C66.9316 110.115 67.0016 110.115 67.0716 110.115C67.1415 110.115 67.2115 110.115 67.2115 110.185C67.2115 110.255 67.2115 110.254 67.2115 110.324H67.6312C67.9111 110.394 68.121 110.464 68.4008 110.534C69.1005 110.814 69.8001 111.094 70.3598 111.584C70.4997 111.654 70.6396 111.514 70.7096 111.724C70.8495 111.864 70.6396 112.004 70.4997 111.934Z" fill="url(#paint25_linear_232_3980)"/>
<path opacity="0.57" d="M114.857 139.919C115.416 139.569 115.976 139.219 116.536 138.87C116.606 138.87 116.606 138.8 116.676 138.8C116.956 138.59 117.235 138.45 117.515 138.24C117.725 138.1 117.935 137.96 118.075 137.82C118.075 137.82 118.145 137.75 118.215 137.75C118.914 137.26 119.684 136.771 120.384 136.211C117.235 136.421 114.017 136.631 110.869 136.211C109.26 135.931 107.581 135.511 105.901 135.231C99.9546 134.252 93.7279 133.832 87.7111 134.392C83.8632 134.882 79.8053 134.252 75.9574 134.112C71.1999 134.322 66.5124 134.532 61.755 133.692C53.6393 132.643 45.4537 130.124 37.1281 131.523C35.8688 131.663 34.6094 132.013 33.4201 132.503C32.2307 132.923 30.7615 133.273 29.6421 133.972C29.5022 133.902 29.4322 133.972 29.3622 134.042C29.2923 134.112 29.1523 134.182 29.1523 134.322C29.1523 134.392 29.1523 134.462 29.2223 134.462C29.2923 134.602 29.4322 134.602 29.5721 134.672C29.782 134.742 30.0619 134.672 30.2717 134.602C33.49 134.042 36.7083 134.042 39.9966 134.112C40.4163 134.112 40.7661 134.112 41.1859 134.182C41.3958 134.182 41.6057 134.182 41.8856 134.182C50.6309 134.672 58.8865 137.33 67.7018 137.68C71.06 137.75 74.4182 137.68 77.7065 137.26C78.0563 137.19 78.4061 137.19 78.7559 137.12C78.8259 137.12 78.8259 137.12 78.8958 137.05C80.6449 136.491 82.6038 136.491 84.4928 136.491C84.8426 136.491 85.1225 136.561 85.4723 136.561C85.6822 136.561 85.8921 136.561 86.102 136.631C88.0609 136.771 90.0199 136.911 92.0488 137.12H92.1188C95.1971 137.4 98.2755 137.75 101.354 137.96C105.552 138.59 109.959 139.989 114.297 139.919H114.857V139.919Z" fill="url(#paint26_linear_232_3980)"/>
<path opacity="0.57" d="M100.654 4.96C99.8143 5.30982 98.9048 5.58962 97.9953 5.86947C98.7649 5.51965 99.4645 5.16986 100.234 4.75008C98.6249 4.19038 96.9458 3.70068 95.2667 3.21094C95.0568 3.2809 94.847 3.42084 94.6371 3.49081C88.8302 5.86954 82.8134 8.03835 76.7966 9.92734C71.8992 11.1867 66.7919 11.8863 61.8246 12.6559C52.3796 14.1951 42.7248 14.405 33.1399 14.7548C32.86 14.7548 32.5802 14.7548 32.3003 14.7548C29.5018 16.7137 26.9132 18.9525 24.3945 21.2613C30.6212 21.0514 36.8479 20.8415 43.0046 20.2118C47.7621 20.0719 52.4496 19.7221 57.1371 19.4422C62.5242 19.0924 67.9113 19.5822 73.2984 18.9525C78.9654 18.183 84.6324 16.9936 90.1595 15.5244C95.2667 14.0551 100.094 11.8163 104.992 9.71742C106.181 9.15771 107.44 8.66803 108.7 8.10833C106.041 6.98892 103.382 5.86952 100.654 4.96ZM71.1996 15.4544C70.9197 15.4544 70.7098 15.5244 70.4999 15.5244C69.3805 15.5943 68.3311 15.6642 67.2117 15.6642H66.0223C67.9813 15.3844 69.8703 15.0346 71.8292 14.6848C71.5494 14.8248 71.4095 15.1746 71.1996 15.4544Z" fill="url(#paint27_linear_232_3980)"/>
<path opacity="0.56" d="M71.5497 84.1583C71.4798 84.2283 71.4098 84.2983 71.3399 84.3682C71.2699 84.3682 71.2699 84.3682 71.1999 84.4382C70.3604 84.6481 69.4509 84.5081 68.6813 84.5781C64.4135 84.648 60.2858 83.5286 56.158 82.829C52.7298 82.3393 49.5115 82.0594 46.0833 81.7096C42.935 81.5697 39.9266 81.9895 36.7783 81.6397C35.0292 81.7096 33.2102 81.4298 31.3912 81.2199C31.0413 81.1499 30.6216 81.1499 30.2718 81.0799C29.712 81.01 29.2223 81.01 28.6626 81.01C26.2839 81.0799 23.9051 81.1499 21.5964 80.7301C20.8967 80.7301 20.1971 80.6602 19.5675 80.6602C19.0777 80.6602 18.6579 80.5902 18.1682 80.5203C16.3492 80.3804 14.5301 80.0305 12.7811 79.6807C9.77268 79.4008 6.83425 79.4008 3.82585 78.981H3.75589C3.40607 78.9111 3.05626 78.8412 2.70645 78.8412C2.14675 78.8412 1.58704 78.9111 1.09731 78.9111C1.09731 78.2814 1.02734 77.7218 1.02734 77.0921C1.23723 77.0221 1.37716 76.9521 1.58704 76.8822C1.37716 76.8122 1.23723 76.8122 1.02734 76.8122C1.02734 76.4624 1.02734 76.1825 1.02734 75.8327C1.02734 74.9932 1.02734 74.0837 1.09731 73.2441C4.73537 73.7339 8.30346 74.2936 11.8716 74.9233C14.9499 75.483 18.0283 76.3925 21.1766 76.7423H20.9667C25.5143 77.3719 30.1318 77.4419 34.6794 77.4419C40.3464 77.5818 45.9434 78.2115 51.5404 78.8412C54.8986 79.2609 58.2568 79.8206 61.615 80.6602C64.4136 81.3598 67.1421 82.2693 70.0106 82.6891C70.5003 82.7591 71.06 82.829 71.4798 83.1089C71.7596 83.3188 71.8296 83.8785 71.5497 84.1583Z" fill="url(#paint28_linear_232_3980)"/>
<path d="M117.794 59.9507C117.444 60.0206 117.094 60.0906 116.744 60.1606C117.094 60.0906 117.444 59.9507 117.794 59.9507Z" fill="url(#paint29_linear_232_3980)"/>
</g>
<defs>
<linearGradient id="paint0_linear_232_3980" x1="30.9707" y1="135.161" x2="69.2483" y2="182.456" gradientUnits="userSpaceOnUse">
<stop stop-color="#973AF5"/>
<stop offset="1" stop-color="#4CA6FE"/>
</linearGradient>
<linearGradient id="paint1_linear_232_3980" x1="10.8926" y1="34.5552" x2="11.6788" y2="34.6154" gradientUnits="userSpaceOnUse">
<stop stop-color="#973AF5"/>
<stop offset="1" stop-color="#4CA6FE"/>
</linearGradient>
<linearGradient id="paint2_linear_232_3980" x1="12.4316" y1="18.8823" x2="88.1968" y2="83.4092" gradientUnits="userSpaceOnUse">
<stop stop-color="#973AF5"/>
<stop offset="1" stop-color="#4CA6FE"/>
</linearGradient>
<linearGradient id="paint3_linear_232_3980" x1="2.28711" y1="84.8574" x2="101.739" y2="167.07" gradientUnits="userSpaceOnUse">
<stop stop-color="#973AF5"/>
<stop offset="1" stop-color="#4CA6FE"/>
</linearGradient>
<linearGradient id="paint4_linear_232_3980" x1="13.4805" y1="12.7969" x2="101.172" y2="70.7982" gradientUnits="userSpaceOnUse">
<stop stop-color="#973AF5"/>
<stop offset="1" stop-color="#4CA6FE"/>
</linearGradient>
<linearGradient id="paint5_linear_232_3980" x1="12.291" y1="22.0313" x2="79.3497" y2="88.0558" gradientUnits="userSpaceOnUse">
<stop stop-color="#973AF5"/>
<stop offset="1" stop-color="#4CA6FE"/>
</linearGradient>
<linearGradient id="paint6_linear_232_3980" x1="9.14258" y1="23.8501" x2="91.4883" y2="93.8619" gradientUnits="userSpaceOnUse">
<stop stop-color="#973AF5"/>
<stop offset="1" stop-color="#4CA6FE"/>
</linearGradient>
<linearGradient id="paint7_linear_232_3980" x1="3.68555" y1="34.6943" x2="120.092" y2="104.148" gradientUnits="userSpaceOnUse">
<stop stop-color="#973AF5"/>
<stop offset="1" stop-color="#4CA6FE"/>
</linearGradient>
<linearGradient id="paint8_linear_232_3980" x1="1.65625" y1="61.4194" x2="55.042" y2="139.442" gradientUnits="userSpaceOnUse">
<stop stop-color="#973AF5"/>
<stop offset="1" stop-color="#4CA6FE"/>
</linearGradient>
<linearGradient id="paint9_linear_232_3980" x1="33" y1="0.832031" x2="84.1661" y2="30.5993" gradientUnits="userSpaceOnUse">
<stop stop-color="#973AF5"/>
<stop offset="1" stop-color="#4CA6FE"/>
</linearGradient>
<linearGradient id="paint10_linear_232_3980" x1="4.38477" y1="88.353" x2="94.1202" y2="168.901" gradientUnits="userSpaceOnUse">
<stop stop-color="#973AF5"/>
<stop offset="1" stop-color="#4CA6FE"/>
</linearGradient>
<linearGradient id="paint11_linear_232_3980" x1="29.5723" y1="134.012" x2="44.6274" y2="169.797" gradientUnits="userSpaceOnUse">
<stop stop-color="#973AF5"/>
<stop offset="1" stop-color="#4CA6FE"/>
</linearGradient>
<linearGradient id="paint12_linear_232_3980" x1="21.8066" y1="126.765" x2="40.8466" y2="170.274" gradientUnits="userSpaceOnUse">
<stop stop-color="#973AF5"/>
<stop offset="1" stop-color="#4CA6FE"/>
</linearGradient>
<linearGradient id="paint13_linear_232_3980" x1="8.09375" y1="107.001" x2="77.8487" y2="183.357" gradientUnits="userSpaceOnUse">
<stop stop-color="#973AF5"/>
<stop offset="1" stop-color="#4CA6FE"/>
</linearGradient>
<linearGradient id="paint14_linear_232_3980" x1="0.957031" y1="72.9639" x2="117.592" y2="151.43" gradientUnits="userSpaceOnUse">
<stop stop-color="#973AF5"/>
<stop offset="1" stop-color="#4CA6FE"/>
</linearGradient>
<linearGradient id="paint15_linear_232_3980" x1="44.125" y1="142.716" x2="79.892" y2="180.048" gradientUnits="userSpaceOnUse">
<stop stop-color="#973AF5"/>
<stop offset="1" stop-color="#4CA6FE"/>
</linearGradient>
<linearGradient id="paint16_linear_232_3980" x1="149.207" y1="84.5078" x2="149.485" y2="84.6889" gradientUnits="userSpaceOnUse">
<stop stop-color="#973AF5"/>
<stop offset="1" stop-color="#4CA6FE"/>
</linearGradient>
<linearGradient id="paint17_linear_232_3980" x1="112.076" y1="142.366" x2="112.211" y2="142.513" gradientUnits="userSpaceOnUse">
<stop stop-color="#973AF5"/>
<stop offset="1" stop-color="#4CA6FE"/>
</linearGradient>
<linearGradient id="paint18_linear_232_3980" x1="10.8223" y1="34.4849" x2="11.6085" y2="34.5451" gradientUnits="userSpaceOnUse">
<stop stop-color="#973AF5"/>
<stop offset="1" stop-color="#4CA6FE"/>
</linearGradient>
<linearGradient id="paint19_linear_232_3980" x1="103.703" y1="92.5986" x2="132.261" y2="97.6905" gradientUnits="userSpaceOnUse">
<stop stop-color="#973AF5"/>
<stop offset="1" stop-color="#4CA6FE"/>
</linearGradient>
<linearGradient id="paint20_linear_232_3980" x1="87.0098" y1="117.81" x2="124.196" y2="145.45" gradientUnits="userSpaceOnUse">
<stop stop-color="#973AF5"/>
<stop offset="1" stop-color="#4CA6FE"/>
</linearGradient>
<linearGradient id="paint21_linear_232_3980" x1="7.11328" y1="104.224" x2="43.5743" y2="140.243" gradientUnits="userSpaceOnUse">
<stop stop-color="#973AF5"/>
<stop offset="1" stop-color="#4CA6FE"/>
</linearGradient>
<linearGradient id="paint22_linear_232_3980" x1="54.8984" y1="81.1499" x2="55.3655" y2="81.2108" gradientUnits="userSpaceOnUse">
<stop stop-color="#973AF5"/>
<stop offset="1" stop-color="#4CA6FE"/>
</linearGradient>
<linearGradient id="paint23_linear_232_3980" x1="67.6309" y1="90.1938" x2="143.427" y2="120.033" gradientUnits="userSpaceOnUse">
<stop stop-color="#973AF5"/>
<stop offset="1" stop-color="#4CA6FE"/>
</linearGradient>
<linearGradient id="paint24_linear_232_3980" x1="137.174" y1="108.366" x2="139.804" y2="111.831" gradientUnits="userSpaceOnUse">
<stop stop-color="#973AF5"/>
<stop offset="1" stop-color="#4CA6FE"/>
</linearGradient>
<linearGradient id="paint25_linear_232_3980" x1="65.1719" y1="109.975" x2="70.7307" y2="112.02" gradientUnits="userSpaceOnUse">
<stop stop-color="#973AF5"/>
<stop offset="1" stop-color="#4CA6FE"/>
</linearGradient>
<linearGradient id="paint26_linear_232_3980" x1="29.1523" y1="131.11" x2="65.7076" y2="180.439" gradientUnits="userSpaceOnUse">
<stop stop-color="#973AF5"/>
<stop offset="1" stop-color="#4CA6FE"/>
</linearGradient>
<linearGradient id="paint27_linear_232_3980" x1="24.3945" y1="3.21094" x2="93.9244" y2="45.5343" gradientUnits="userSpaceOnUse">
<stop stop-color="#973AF5"/>
<stop offset="1" stop-color="#4CA6FE"/>
</linearGradient>
<linearGradient id="paint28_linear_232_3980" x1="1.02734" y1="73.2441" x2="49.152" y2="112.358" gradientUnits="userSpaceOnUse">
<stop stop-color="#973AF5"/>
<stop offset="1" stop-color="#4CA6FE"/>
</linearGradient>
<linearGradient id="paint29_linear_232_3980" x1="116.744" y1="59.9507" x2="117.577" y2="60.4932" gradientUnits="userSpaceOnUse">
<stop stop-color="#973AF5"/>
<stop offset="1" stop-color="#4CA6FE"/>
</linearGradient>
</defs>
</svg>
