<svg width="54" height="54" viewBox="0 0 54 54" fill="none" xmlns="http://www.w3.org/2000/svg">
<g opacity="0.6">
<path d="M48.5152 24.5731C48.9978 22.3636 48.3107 20.0527 47.0604 18.1921C46.3543 17.1453 45.1178 16.0625 43.7856 16.3941C43.2433 16.535 43.0703 17.1227 42.6721 17.4287C42.4126 17.6553 41.9583 18.1351 41.6036 17.8003C41.3743 17.252 41.2675 16.5344 41.5495 15.9763C42.3435 14.7425 44.0903 13.8618 44.0022 12.213C44.016 11.6812 43.9429 11.1212 43.7784 10.5995C43.614 10.0778 43.3596 9.57215 42.9667 9.14594C42.3044 8.4351 41.4695 7.97896 40.577 7.71872C39.2072 7.29295 37.6499 7.34288 36.2558 7.60366C35.6914 7.74303 35.1637 7.99589 34.6757 8.31803C34.1862 8.66228 33.86 9.21738 33.4323 9.63241C32.7671 10.2755 31.8158 9.90032 30.9775 9.82135C30.1453 9.65399 29.2744 9.72821 28.4741 10.0736C28.11 10.2043 27.7666 10.3587 27.4201 10.5572C27.7912 9.33916 27.8514 8.12226 27.0157 7.02227C26.2111 5.7912 25.0672 4.98113 23.6237 4.66137C22.594 4.45844 21.5034 4.82857 20.6041 5.32266C20.5348 5.36237 20.442 5.42268 20.327 5.48149C20.094 5.64331 20.0068 5.94819 20.145 6.20175C20.2862 6.41111 20.5675 6.51896 20.7975 6.40134C21.1173 6.2676 21.4196 6.06608 21.7379 5.95444C21.045 6.35151 20.5376 6.96093 19.908 7.40668C18.7136 8.32478 17.1581 8.01964 15.7955 7.81636C14.4389 7.52468 12.8665 7.79559 11.8666 8.79345C9.77226 10.8716 7.69705 12.9954 6.23276 15.6046C4.83397 17.5744 4.12137 19.9016 3.78295 22.2762C3.60212 23.3073 3.39769 24.3591 3.39364 25.4022C3.41135 26.7798 3.67363 28.1517 3.9374 29.5016C4.2143 30.9855 4.62528 32.4563 5.4711 33.7346C6.58623 35.2975 8.11111 36.7105 9.98463 37.237C10.4899 37.3156 10.951 37.3913 11.3663 37.486C11.6136 37.7691 11.8844 38.0317 12.2039 38.2309C12.7414 38.4893 13.3204 38.4619 13.9055 38.3461C15.3618 39.133 16.3402 40.4202 17.437 42.5813C18.218 43.8329 19.0653 45.0891 20.1767 46.0524C21.3884 46.8448 22.5896 47.792 24.0346 48.0896C28.0176 48.9366 30.5033 45.997 31.8211 42.6008C32.3071 41.324 32.7711 40.0456 32.9523 38.6815C33.0298 37.8654 32.8406 37.0534 32.56 36.2796C31.8797 34.5241 29.7821 32.7171 27.9734 32.2172C26.4871 31.8723 24.4046 31.1541 23.5526 32.9168C22.7436 33.0618 21.8084 32.7765 21.3701 32.0364C21.2217 31.6045 21.3416 31.1465 21.3273 30.7015C21.3272 29.3917 19.9635 28.8776 19.002 28.324C18.5794 28.0068 18.5315 27.4042 18.7839 26.9551C19.1277 26.4678 19.8719 26.2962 20.4124 26.5104C21.1162 26.9355 21.5087 27.6946 22.068 28.2875C22.5388 28.8744 23.2014 29.2522 23.8685 29.5638C25.4102 30.4008 27.3129 29.8415 28.5031 28.6567C29.6255 27.4896 30.2194 25.9314 30.5246 24.3759C30.6223 23.9163 30.6964 23.4773 30.75 23.0148C31.1931 23.3556 31.6849 23.6331 32.2269 23.8252C32.6805 24.0113 33.1947 23.9573 33.6513 24.0992C34.3214 24.3666 34.8158 24.9329 35.2661 25.4962C35.9354 26.4295 36.2348 27.582 37.0678 28.3932C37.9863 29.2546 39.0152 30.1234 40.2614 30.4076C42.6933 30.8831 45.42 29.9578 47.0558 28.0928C47.991 27.0684 48.2988 25.8016 48.5152 24.5731ZM30.4466 1.9267C43.921 3.90485 53.5782 17.0129 51.3112 30.49C49.2552 43.8038 36.5924 53.1137 23.2974 51.4363C11.91 50.11 2.99884 40.7376 1.81147 29.4242C-0.0702936 12.9578 14.0997 -0.578983 30.4466 1.9267Z" fill="white" fill-opacity="0.8"/>
<path d="M17.1678 16.0789C18.5498 15.9949 19.6799 17.3368 19.5886 18.6848C19.3303 20.5321 16.7401 22.0661 15.1354 20.8474C13.5443 19.4299 14.5448 16.4563 16.7048 16.3584C16.8037 16.2097 16.9674 16.0875 17.1678 16.0789Z" fill="#CDD1DA" fill-opacity="0.8"/>
<path d="M14.2774 27.6036C15.7943 28.1503 16.6836 30.0976 16.0073 31.5613C15.6396 32.4022 14.7373 32.9405 13.8448 32.6803C12.5308 32.4137 12.0094 30.9354 12.1359 29.723C11.077 29.296 12.2687 28.0892 12.8245 27.7494C13.2668 27.4464 13.8253 27.3954 14.2774 27.6036Z" fill="#CDD1DA" fill-opacity="0.8"/>
<path d="M36.984 15.8449C37.9021 17.0393 36.4501 19.1387 35.0317 18.7762C34.0125 18.4186 33.4217 16.98 34.1475 16.0968C34.055 15.8241 34.2277 15.5694 34.4179 15.3825C35.1302 14.6982 36.4041 15.2284 36.984 15.8449Z" fill="#CDD1DA" fill-opacity="0.8"/>
<path d="M40.1018 20.2961C40.2883 19.5096 39.8927 18.7946 39.4927 18.1459C39.1162 17.4766 39.036 16.6942 38.9307 15.9545C38.9314 15.2885 39.1104 14.6125 39.3512 14.0072C39.8294 13.1738 40.1275 12.7056 39.6143 11.7606C38.979 10.652 37.3793 10.3439 36.2051 10.3087C35.4272 10.3227 34.674 10.6268 33.9826 11.0018C33.3811 11.3607 33.1755 12.1015 32.9332 12.7289C32.6208 12.7522 32.3234 12.5544 32.0672 12.4039C32.0908 12.3833 32.1144 12.3627 32.1174 12.3185C32.144 12.2537 32.1043 12.1844 32.0631 12.1372C32.0088 11.9559 31.7908 11.8968 31.6406 11.82C31.2758 11.3069 30.1172 10.3848 29.6405 11.1961C28.8022 11.1172 27.8269 11.0955 27.1044 11.6016C27.0588 11.6207 27.0352 11.6413 26.9895 11.6604C26.043 12.1957 25.6888 12.8377 25.4607 13.91C25.2485 15.4052 25.0254 17.3881 26.4963 18.2869C26.9409 18.6056 27.4593 18.8183 28.0058 18.9441C28.7717 19.107 29.5747 19.0504 30.3013 18.811C30.8467 18.6259 31.4144 18.1094 32.0227 18.306C32.4981 18.8266 32.6004 19.6105 32.8442 20.2708C33.1188 21.133 33.6189 21.9438 34.4568 22.3558C34.9074 22.5861 35.3831 22.7737 35.8618 22.9171C36.364 23.0399 36.921 23.0111 37.2667 23.4785C37.6612 23.8826 38.3477 23.9069 38.7724 23.536C39.7559 22.7813 39.8914 21.4363 40.1018 20.2961ZM45.9968 25.6903C46.6691 25.2696 46.9956 24.3816 47.0023 23.6272C46.9753 22.7152 46.3898 21.8542 46.6295 20.938C46.7669 20.5477 46.9028 20.1795 46.9459 19.8717C47.032 19.2559 46.8675 18.7342 46.0532 18.3016C45.5221 17.6219 44.8449 17.132 44.0152 17.2534C43.8617 17.5538 43.7112 17.81 43.5179 18.0411C43.0183 18.2071 42.5981 18.5116 42.3044 18.9135C42.0344 19.2948 41.8468 19.7705 41.7888 20.2994C41.5046 21.5455 41.7508 22.8276 42.9464 23.5301C43.282 23.8193 43.2299 24.2597 43.3592 24.6459C43.3959 24.7594 43.4341 24.8507 43.4944 24.9436C43.1 24.5395 42.6333 24.2193 42.1149 24.0066C41.9205 23.9268 41.704 23.8456 41.5081 23.7879C41.1841 23.655 40.9111 24.0805 41.1392 24.3179C40.1531 24.7839 39.5756 26.099 39.8604 27.1395C40.0934 28.2874 41.1006 28.8219 42.1774 28.9836C43.0157 29.0626 43.9576 28.5936 44.3415 27.8426C44.7313 27.0032 44.3713 26.0908 43.8417 25.3889C44.0934 25.6058 44.438 25.7623 44.7664 25.829C45.1863 25.8574 45.6077 25.8637 45.9968 25.6903ZM47.0596 18.1922C48.31 20.0528 48.975 22.3622 48.5144 24.5732C48.298 25.8018 47.9903 27.0685 47.148 28.0326C45.5106 29.9197 42.7854 30.8229 40.3535 30.3474C39.1073 30.0632 38.0799 29.1723 37.16 28.333C36.3269 27.5218 36.0055 26.3678 35.3582 25.436C34.9079 24.8727 34.4135 24.3064 33.7434 24.039C33.2632 23.9177 32.7726 23.9511 32.319 23.765C31.777 23.5729 31.2852 23.2954 30.8421 22.9546C30.7886 23.4171 30.7144 23.8561 30.6167 24.3157C30.3116 25.8712 29.7177 27.4293 28.5952 28.5965C27.4271 29.7828 25.5023 30.3406 23.9607 29.5036C23.27 29.2126 22.6295 28.8363 22.1601 28.2273C21.623 27.6359 21.2083 26.8752 20.5045 26.4502C19.964 26.236 19.2198 26.4076 18.876 26.8949C18.6457 27.3455 18.6937 27.9481 19.0941 28.2638C20.0541 28.8394 21.3972 29.33 21.4194 30.6413C21.4337 31.0863 21.3139 31.5443 21.4622 31.9762C21.8784 32.7148 22.8358 33.0016 23.6448 32.8566C24.4746 31.0924 26.5808 31.79 28.0655 32.157C29.8727 32.679 31.9497 34.4624 32.6521 36.2194C32.9327 36.9932 33.0998 37.8037 33.0444 38.6213C32.8632 39.9854 32.3993 41.2638 31.9132 42.5406C30.5733 45.9353 28.1098 48.8764 24.1268 48.0294C22.6817 47.7318 21.4805 46.7846 20.2688 45.9922C19.1574 45.0289 18.3101 43.7727 17.5291 42.5211C16.4323 40.36 15.4539 39.0728 13.9976 38.2859C14.3571 38.2215 14.7418 38.1143 15.0823 38.0042C15.1279 37.9851 15.1721 37.9881 15.2178 37.969C15.5804 37.8603 15.8546 37.7457 16.2201 37.5929C16.7418 37.4284 17.3418 37.0917 17.8778 37.3721C18.7303 37.8961 18.5881 38.6856 18.4649 39.5209C18.3665 40.6464 18.1587 42.0753 19.0535 42.9573C19.8398 43.4767 20.8447 43.3894 21.6334 42.8878C22.4267 42.32 23.1364 41.3468 24.0413 42.4071C24.5564 42.997 25.1111 43.6561 25.9198 43.8441C26.9258 44.0676 28.2363 43.4016 28.4423 42.3278C28.474 41.5307 28.3807 40.6142 28.9369 39.9415C29.3661 39.5044 30.1114 39.6437 30.5391 39.2286C31.147 38.4484 30.8461 37.318 30.7749 36.403C30.5194 35.5865 30.1092 34.7596 29.5324 34.0989C29.1821 33.6978 28.7832 33.36 28.312 33.1061C27.9277 32.8802 27.4962 32.6956 27.0572 32.6215C26.9984 32.5065 26.8718 32.4091 26.7201 32.3545C26.1561 32.1609 25.565 32.365 25.2051 32.7625C25.0606 32.9303 24.9366 33.1217 24.8995 33.3412C24.6835 34.2367 25.593 35.2307 24.8083 35.9989C24.4941 36.3773 24.0488 36.7245 23.5229 36.6223C23.2608 36.5601 22.9308 36.5156 22.8397 36.2208C22.7255 35.6137 22.9471 34.9627 22.7902 34.3305C22.7549 34.1949 22.6991 34.0357 22.6418 33.8986C22.4729 33.4432 22.1904 33.0245 21.7885 32.7309C21.2806 32.3635 20.8229 31.9107 20.3415 31.4785C20.0898 31.2616 19.8381 31.0448 19.5849 30.85C18.7736 30.3733 18.2971 29.5419 17.887 28.7149C17.1419 26.9328 17.3106 24.7687 19.3784 24.0652C19.7204 23.9329 20.1137 24.0262 20.4657 24.0722C20.7279 24.1344 21.074 24.2688 21.1887 24.5429C21.3355 24.9969 21.5045 25.4523 21.7427 25.8681C21.7809 25.9594 21.8206 26.0287 21.8809 26.1216C22.1001 26.4916 22.3679 26.7984 22.6814 27.086C23.8546 28.1201 25.6251 28.5286 27.049 27.8258C27.773 27.2976 27.8718 25.8392 27.0856 25.3197C26.8515 25.1707 26.5878 25.1306 26.3211 25.1347C26.1443 25.1228 25.8761 25.149 25.7068 25.0265C25.9491 24.3992 26.4873 23.9916 27.1387 23.8803C27.8653 23.6409 29.0024 23.8956 29.5586 23.2228C29.6574 23.0741 29.7121 22.9224 29.7904 22.7501C29.8716 22.5336 29.9102 22.2921 29.9252 22.0711C29.9401 21.8501 29.8888 21.6246 29.8139 21.4197C29.7566 21.2827 29.6786 21.122 29.5771 20.9819C29.3359 20.6104 28.9782 20.3198 28.5864 20.2044C28.4332 20.1719 28.2785 20.1614 28.1223 20.173C27.368 20.1663 26.6605 20.4514 25.9912 20.8279C25.9796 20.6717 25.8103 20.5492 25.6672 20.6949C25.5447 20.8642 25.4429 21.0571 25.2983 21.2249C25.0669 21.3646 24.8575 21.5059 24.6481 21.6471C24.5054 21.4598 24.3092 21.7351 24.3208 21.8913C24.1897 21.8602 24.038 21.8056 23.932 21.7318C23.6833 21.4707 23.6409 21.1127 23.5514 20.7958C23.3899 20.2299 23.227 19.6861 23.0655 19.1201C22.7793 18.1018 22.0818 17.2553 21.8634 16.2194C21.7079 15.565 21.7292 14.9227 21.752 14.2582C21.7467 13.6807 21.6736 13.1207 21.6242 12.5402C21.5619 11.4926 21.072 10.86 20.0187 10.6777C18.6591 10.4302 17.2632 11.0461 16.1471 11.7919C15.6827 12.0934 15.2595 12.4421 14.879 12.816C14.8318 12.8572 14.7846 12.8984 14.7374 12.9396C14.1018 13.4737 13.5266 14.1008 13.1663 14.8312C12.8386 15.4084 12.6154 16.0814 12.2244 16.6099C12.1162 15.9144 12.1184 15.2264 12.1883 14.5207C12.3996 14.0244 12.546 13.5016 12.4965 12.921C12.4658 12.7191 12.3923 12.4922 12.2702 12.3285C12.1365 12.0086 11.8406 11.7888 11.4559 11.896C11.4323 11.9166 11.3881 11.9136 11.3645 11.9342C10.8046 12.0072 10.3001 12.5725 9.91961 12.9463C9.69827 13.2643 9.07019 13.688 9.24213 14.0992C9.04739 14.3524 8.87174 14.6513 8.6976 14.9281C8.52081 14.9161 8.33654 15.0146 8.23618 15.1854C7.80663 15.9555 7.44188 16.7522 7.07563 17.571C6.22216 19.3558 5.4305 21.2114 5.18531 23.1927C5.07941 24.4287 4.9926 25.7104 5.08707 26.9378C5.1208 27.0955 5.2238 27.2135 5.3534 27.2666C5.39276 27.6689 5.45421 28.0727 5.62915 28.4397C5.98202 29.1296 6.4836 29.9184 7.32034 30.0194C7.54132 30.0344 7.7668 29.9831 7.97316 29.886C8.15444 29.8317 8.27541 29.6845 8.43608 29.6066C8.58927 29.6392 8.71738 29.7144 8.84548 29.7897C9.70097 30.2695 9.9003 31.2597 10.1307 32.1189C10.3506 33.1328 10.1226 34.2052 10.319 35.2396C10.4437 35.6921 10.6127 36.1475 10.8509 36.5633C11.0097 36.8404 11.1907 37.1191 11.3967 37.355C10.9592 37.2588 10.4981 37.1831 10.015 37.106C8.11934 36.5781 6.61656 35.1665 5.50142 33.6036C4.6556 32.3253 4.24462 30.8545 3.96773 29.3706C3.70395 28.0207 3.44167 26.6488 3.42397 25.2712C3.42802 24.2281 3.63244 23.1763 3.81328 22.1452C4.1517 19.7706 4.8643 17.4435 6.26309 15.4736C7.72588 12.8865 9.80109 10.7627 11.8969 8.66246C12.8969 7.6646 14.4913 7.39519 15.8258 7.68537C17.209 7.91224 18.744 8.19379 19.9383 7.2757C20.59 6.83144 21.0975 6.22201 21.7683 5.82345C21.4499 5.93509 21.1477 6.13662 20.8278 6.27035C20.5978 6.38798 20.2944 6.27863 20.1753 6.07076C20.0371 5.8172 20.1022 5.51082 20.3573 5.3505C20.4502 5.29019 20.5652 5.23138 20.6345 5.19167C21.5337 4.69758 22.6244 4.32745 23.654 4.53038C25.0975 4.85014 26.2414 5.6602 27.0461 6.89128C27.8818 7.99127 27.82 9.23027 27.4504 10.4262C27.7954 10.2498 28.1624 10.0748 28.5044 9.94261C29.3048 9.59722 30.1535 9.5215 31.0078 9.69036C31.8446 9.79143 32.7754 10.1431 33.4626 9.50142C33.9124 9.08789 34.215 8.55339 34.706 8.18704C35.194 7.8649 35.7217 7.61204 36.2862 7.47267C37.6817 7.18979 39.2376 7.16196 40.6073 7.58773C41.4999 7.84797 42.3112 8.32471 42.997 9.01495C43.3678 9.43966 43.6443 9.94678 43.8088 10.4685C43.9732 10.9902 44.0478 11.5281 44.0325 12.082C44.1206 13.7308 42.3959 14.613 41.5798 15.8453C41.2978 16.4034 41.384 17.0974 41.6339 17.6693C41.9665 18.0026 42.4208 17.5228 42.7025 17.2977C43.1021 16.9696 43.2751 16.3819 43.8159 16.2631C45.1392 16.0641 46.3756 17.1469 47.0596 18.1922Z" fill="#CDD1DA" fill-opacity="0.8"/>
<path d="M11.6009 18.2776C11.6466 18.2585 11.6923 18.2394 11.7159 18.2188C11.5612 18.2083 11.4095 18.1536 11.2814 18.0784C11.299 18.1461 11.3403 18.1933 11.38 18.2626C11.4418 18.3334 11.5332 18.2952 11.6009 18.2776ZM16.0275 31.5864C16.6833 30.099 15.816 28.1533 14.2976 27.6287C13.8234 27.419 13.2871 27.4715 12.8668 27.776C12.3095 28.1378 11.1193 29.3226 12.1782 29.7495C12.0296 30.9604 12.551 32.4387 13.8871 32.7068C14.7575 32.9656 15.6598 32.4273 16.0275 31.5864ZM19.5874 18.6853C19.6787 17.3373 18.5707 15.9969 17.1665 16.0794C16.9662 16.088 16.8025 16.2101 16.7021 16.3809C14.5436 16.4567 13.5209 19.4288 15.1327 20.8699C16.7374 22.0886 19.3276 20.5547 19.5874 18.6853ZM30.7734 36.4256C30.8446 37.3406 31.1234 38.4695 30.5376 39.2512C30.1099 39.6662 29.3646 39.527 28.9354 39.9641C28.3571 40.6353 28.4725 41.5533 28.4408 42.3504C28.2363 43.4021 26.9243 44.0902 25.9183 43.8667C25.1096 43.6787 24.5549 43.0196 24.0398 42.4297C23.1349 41.3694 22.4252 42.3426 21.6319 42.9104C20.8653 43.4135 19.8383 43.4993 19.052 42.9799C18.1557 42.12 18.365 40.669 18.4634 39.5435C18.5881 38.6861 18.7303 37.8966 17.8763 37.3947C17.3403 37.1142 16.7418 37.4289 16.2186 37.6155C15.8545 37.7462 15.5804 37.8608 15.2163 37.9916C15.1706 38.0107 15.1264 38.0077 15.0808 38.0268C14.7197 38.1133 14.3571 38.222 13.9961 38.3085C13.4111 38.4243 12.832 38.4517 12.2945 38.1933C11.975 37.9941 11.7042 37.7315 11.457 37.4484C11.251 37.2124 11.07 36.9338 10.9112 36.6566C10.673 36.2409 10.504 35.7855 10.3793 35.333C10.1608 34.297 10.4094 33.2483 10.191 32.2123C9.96061 31.3531 9.76277 30.3407 8.90578 29.8831C8.77768 29.8078 8.64958 29.7326 8.49639 29.7C8.33571 29.7779 8.21624 29.903 8.03347 29.9794C7.8271 30.0764 7.62372 30.1293 7.38064 30.1128C6.5439 30.0117 6.04232 29.223 5.68945 28.5331C5.51451 28.166 5.43096 27.7608 5.4137 27.36C5.28411 27.3069 5.1811 27.1889 5.14738 27.0312C5.05291 25.8038 5.13971 24.5221 5.24562 23.2861C5.5129 21.3062 6.30456 19.4507 7.13593 17.6644C7.50068 16.8677 7.86543 16.071 8.29648 15.2788C8.39685 15.108 8.58112 15.0095 8.7579 15.0215C8.93205 14.7447 9.10769 14.4458 9.30244 14.1926C9.13049 13.7813 9.73648 13.3562 9.97991 13.0397C10.3604 12.6658 10.8649 12.1006 11.4248 12.0275C11.4484 12.0069 11.4926 12.0099 11.5162 11.9893C11.8803 11.8586 12.1968 12.102 12.3305 12.4219C12.4526 12.5855 12.5261 12.8125 12.5568 13.0144C12.6299 13.5743 12.4835 14.0972 12.2486 14.6141C12.2008 15.3213 12.1765 16.0078 12.2848 16.7033C12.6772 16.1527 12.8783 15.4781 13.2266 14.9245C13.5884 14.172 14.1621 13.5671 14.7977 13.033C14.8449 12.9918 14.8921 12.9506 14.9393 12.9094C15.3213 12.5134 15.7224 12.1632 16.2074 11.8853C17.322 11.1615 18.7194 10.5236 20.079 10.7711C21.1323 10.9534 21.6222 11.586 21.6845 12.6336C21.7339 13.2141 21.807 13.7741 21.8123 14.3516C21.7895 15.0161 21.7682 15.6584 21.9237 16.3127C22.12 17.3472 22.8396 18.1951 23.1258 19.2135C23.2873 19.7794 23.4502 20.3233 23.6117 20.8892C23.7012 21.2061 23.7421 21.5862 23.9923 21.8252C24.1204 21.9004 24.2485 21.9757 24.3811 21.9847C24.3695 21.8285 24.5672 21.5311 24.7084 21.7405C24.9178 21.5992 25.1493 21.4595 25.3586 21.3183C25.4811 21.149 25.605 20.9576 25.7275 20.7883C25.8721 20.6205 26.0178 20.7636 26.0515 20.9212C26.7208 20.5448 27.4283 20.2597 28.1826 20.2664C28.3373 20.2769 28.492 20.2873 28.6467 20.2978C29.0606 20.4146 29.3947 20.7259 29.6374 21.0753C29.7389 21.2154 29.8183 21.3539 29.8742 21.5131C29.9491 21.718 29.9783 21.942 29.9855 22.1645C29.9911 22.409 29.9319 22.627 29.8507 22.8435C29.7945 23.0173 29.7177 23.1675 29.6189 23.3162C29.0627 23.9889 27.9256 23.7343 27.199 23.9737C26.5491 24.0629 26.0094 24.4925 25.7671 25.1199C25.9365 25.2424 26.2046 25.2161 26.3814 25.2281C26.6466 25.2461 26.9103 25.2861 27.1459 25.4131C27.9321 25.9325 27.8554 27.3925 27.1093 27.9192C25.6854 28.6219 23.9149 28.2134 22.7417 27.1794C22.4282 26.8918 22.1604 26.585 21.9412 26.215C21.903 26.1236 21.8412 26.0528 21.803 25.9614C21.5648 25.5457 21.3958 25.0903 21.249 24.6363C21.1343 24.3622 20.8103 24.2292 20.5261 24.1656C20.174 24.1195 19.7807 24.0263 19.4387 24.1585C17.3709 24.8621 17.2022 27.0262 17.9473 28.8083C18.3574 29.6352 18.8339 30.4667 19.6452 30.9434C19.9205 31.1397 20.1737 31.3344 20.4019 31.5719C20.8832 32.0041 21.3188 32.4554 21.8488 32.8242C22.2507 33.1179 22.5332 33.5366 22.7021 33.992C22.7594 34.1291 22.7946 34.2647 22.8505 34.4239C23.031 35.0355 22.7873 35.685 22.9 36.3142C22.9911 36.609 23.3211 36.6535 23.5832 36.7157C24.1091 36.8179 24.5544 36.4706 24.8686 36.0923C25.6533 35.3241 24.7217 34.3286 24.9598 33.4345C25.019 33.2165 25.1224 33.0015 25.2654 32.8558C25.6268 32.4363 26.2385 32.2557 26.7804 32.4479C26.9336 32.4804 27.0381 32.5763 27.1176 32.7149C27.5565 32.789 27.988 32.9736 28.3723 33.1995C28.8435 33.4534 29.2424 33.7912 29.5927 34.1923C30.0856 34.7807 30.5179 35.6091 30.7734 36.4256Z" fill="#9397A0" fill-opacity="0.8"/>
<path d="M35.0344 18.776C36.475 19.14 37.9048 17.039 36.9867 15.8447C36.3848 15.2267 35.133 14.6979 34.3986 15.3808C34.2083 15.5677 34.0342 15.8445 34.1282 16.0951C33.423 17.0019 34.0138 18.4405 35.0344 18.776ZM39.4949 18.1457C39.8949 18.7944 40.2684 19.5079 40.104 20.2959C39.8936 21.4361 39.7581 22.7811 38.7952 23.5595C38.3499 23.9067 37.684 23.906 37.2895 23.5019C36.9659 23.036 36.3869 23.0634 35.8846 22.9405C35.4059 22.7971 34.9302 22.6095 34.4796 22.3792C33.6417 21.9672 33.1416 21.1564 32.867 20.2942C32.6217 19.656 32.543 18.8515 32.0455 18.3294C31.4593 18.1343 30.8695 18.6493 30.3241 18.8344C29.5975 19.0738 28.7724 19.1289 28.0286 18.9675C27.4806 18.8638 26.9622 18.6511 26.5191 18.3103C25.0276 17.3879 25.2507 15.405 25.4835 13.9334C25.7116 12.8611 26.0658 12.2191 27.0123 11.6838C27.0359 11.6632 27.0816 11.6441 27.1273 11.625C27.8497 11.1189 28.825 11.1406 29.6633 11.2195C30.1415 10.3861 31.2986 11.3303 31.6634 11.8434C31.8136 11.9202 32.0316 11.9793 32.0859 12.1606C32.1507 12.1872 32.1668 12.2771 32.1402 12.3419C32.1387 12.364 32.1136 12.4067 32.0901 12.4273C32.3463 12.5778 32.6452 12.7535 32.956 12.7523C33.1983 12.125 33.4039 11.3841 34.0054 11.0252C34.6747 10.6488 35.4294 10.3225 36.2279 10.3322C37.4006 10.3894 39.0003 10.6975 39.6371 11.784C40.1503 12.729 39.8758 13.1766 39.374 14.0306C39.1332 14.6359 38.9542 15.3119 38.9535 15.9779C39.0382 16.694 39.1184 17.4764 39.4949 18.1457Z" fill="#9397A0" fill-opacity="0.8"/>
<path d="M47.0034 23.6273C46.9746 24.3801 46.6702 25.2697 45.9979 25.6904C45.6308 25.8653 45.1874 25.8575 44.769 25.8069C44.4169 25.7609 44.0944 25.6059 43.8442 25.3669C44.3518 26.0673 44.7339 26.9812 44.344 27.8205C43.9587 28.5936 43.0182 29.0405 42.18 28.9616C41.1031 28.7998 40.118 28.2669 39.8629 27.1175C39.5782 26.077 40.135 24.7383 41.1418 24.2959C40.9137 24.0585 41.1867 23.633 41.5107 23.7659C41.7066 23.8236 41.9231 23.9048 42.1174 23.9846C42.6358 24.1973 43.1025 24.5175 43.497 24.9216C43.4367 24.8287 43.3985 24.7373 43.3617 24.6239C43.2325 24.2377 43.286 23.7751 42.9489 23.5081C41.7533 22.8055 41.5071 21.5235 41.7913 20.2774C41.8493 19.7485 42.037 19.2728 42.307 18.8915C42.6006 18.4896 43.0208 18.1851 43.5205 18.0191C43.7137 17.788 43.8642 17.5318 44.0178 17.2314C44.8489 17.0879 45.5261 17.5777 46.0558 18.2796C46.8701 18.7121 47.0345 19.2339 46.9484 19.8496C46.9039 20.1796 46.7694 20.5257 46.632 20.916C46.3909 21.8542 46.9763 22.7153 47.0034 23.6273Z" fill="#9397A0" fill-opacity="0.8"/>
</g>
</svg>
