<svg width="301" height="301" viewBox="0 0 301 301" fill="none" xmlns="http://www.w3.org/2000/svg">
<path id="planet" d="M284.613 87.091C291.85 103.183 296.391 120.699 297.668 139.212C295.54 139.639 293.553 140.066 291.424 140.636C277.517 143.769 263.184 144.481 248.993 146.189C236.505 147.471 223.875 148.753 211.245 149.465C189.958 150.034 168.671 149.465 147.385 149.18C137.025 148.895 126.666 147.613 116.448 145.62C109.92 144.481 103.534 143.056 97.0063 142.202C96.1549 142.06 95.3034 142.629 95.1615 143.626C95.0196 144.338 95.4453 144.908 95.871 145.335C95.3034 145.193 94.5938 144.908 93.8843 144.623C93.1747 144.338 92.6071 144.196 91.8975 143.911C91.4718 143.769 90.9042 143.626 90.4784 143.341C90.1946 143.199 89.9108 143.199 89.627 143.056C89.7689 142.914 89.7689 142.914 89.9108 142.772C89.9108 142.772 89.9108 142.629 90.0527 142.629C90.0527 142.629 90.0527 142.487 90.1946 142.487V142.344C90.1946 142.202 90.1946 142.202 90.1946 142.06C90.1946 141.632 90.1946 141.063 89.9108 140.778C89.627 140.351 89.2012 140.208 88.7755 140.066C88.0659 139.924 87.2145 139.781 86.5049 139.639H86.363C86.2211 139.639 86.0792 139.639 85.9373 139.496C85.7954 139.496 85.6535 139.496 85.5115 139.354C85.3696 139.354 85.2277 139.354 85.2277 139.354C83.6667 139.069 82.2476 138.642 80.6866 138.357C78.9836 137.93 77.1388 137.503 75.4359 136.933C74.7263 136.791 73.8748 136.506 73.1653 136.221C72.1719 135.794 71.1785 135.367 70.1852 134.797C69.0499 134.227 67.9146 133.8 66.7793 133.23C67.0631 133.088 67.3469 132.946 67.7727 132.946C67.7727 132.946 68.0565 132.946 68.1984 132.803C68.1984 132.803 68.1984 132.803 68.3403 132.803C69.0499 132.661 69.7594 132.376 70.3271 132.234C70.469 132.234 70.6109 132.234 70.7528 132.091C71.3204 131.949 71.8881 131.806 72.4557 131.664C74.4425 131.379 76.4292 131.094 78.416 130.952C80.5447 130.667 82.8152 130.525 84.9439 130.24C88.9174 129.813 93.0328 129.67 97.0063 129.243C102.399 128.673 107.65 127.961 112.9 126.822C117.867 125.825 122.834 124.686 127.801 123.404C132.91 122.123 137.877 120.984 142.985 119.56C148.094 118.135 153.061 116.711 158.17 115.003C162.427 113.578 166.685 112.012 171.084 110.161C173.071 109.306 175.199 108.452 177.186 107.597C178.321 107.028 179.599 106.458 180.734 106.031C181.727 105.604 182.721 105.034 183.856 104.607C184.424 104.322 184.991 104.037 185.559 103.752C185.985 103.468 186.552 103.325 186.978 103.04C188.255 102.328 189.532 101.616 190.809 100.904C192.938 99.6227 195.067 98.341 197.054 97.2018C201.453 94.4961 205.852 91.7904 210.393 89.3694C212.664 88.0878 214.792 86.8061 217.063 85.6669C219.476 84.3852 221.746 83.1036 224.159 81.8219C225.152 81.2523 226.287 80.6827 227.281 80.1131C228.416 79.5434 229.551 78.9738 230.686 78.4042C232.957 77.265 235.228 76.1257 237.498 74.9865C237.64 74.9865 237.924 74.7016 238.35 74.5592C238.775 74.2744 239.343 74.132 239.911 73.8472C241.614 72.9928 243.317 72.2807 245.019 71.4263C246.722 70.7143 248.425 69.8598 250.128 69.1478C251.973 68.4358 253.676 67.5814 255.521 66.8693C256.372 66.5845 257.366 66.1573 258.217 65.7301C259.069 65.4453 260.062 65.018 260.914 64.7332C261.907 64.4484 262.9 64.1636 263.894 63.8788C265.029 63.594 266.022 63.3092 267.158 63.0244C268.293 62.7395 269.428 62.4547 270.705 62.1699C275.814 69.8598 280.639 78.2618 284.613 87.091Z" fill="url(#paint0_linear_232_3905)" fill-opacity="0.74"/>
<path d="M298.805 119.702C298.947 120.414 299.089 121.126 299.23 121.838C299.089 121.268 299.089 120.698 298.947 120.129C298.805 120.129 298.805 119.844 298.805 119.702Z" fill="url(#paint1_linear_232_3905)" fill-opacity="0.74"/>
<path d="M299.514 124.258C299.656 124.97 299.798 125.54 299.798 126.252C299.798 125.967 299.656 125.682 299.656 125.398C299.656 124.97 299.656 124.543 299.514 124.258Z" fill="url(#paint2_linear_232_3905)" fill-opacity="0.74"/>
<path d="M243.6 33.6888C243.6 33.6888 243.458 33.6888 243.458 33.8312C243.033 34.116 242.749 34.2584 242.323 34.5432C241.188 35.1128 240.195 35.8249 239.059 36.3945C238.492 36.6793 237.924 37.1065 237.356 37.3913C236.505 37.961 235.511 38.5306 234.66 38.9578C225.72 44.0844 217.489 50.2079 208.69 55.7617C189.532 67.5814 166.259 69.0055 144.405 70.9991C124.253 71.7112 103.96 73.1352 83.8086 74.8441C107.224 69.2903 129.504 59.7491 150.081 47.5022C159.873 41.5211 168.813 34.2584 178.463 28.135C185.985 23.1507 193.79 18.3089 201.453 13.6096C202.162 13.1823 202.73 12.7551 203.44 12.4703C203.865 12.1855 204.291 11.9007 204.717 11.7583C204.859 11.6159 205.142 11.4735 205.284 11.3311C219.192 16.6001 232.106 24.29 243.6 33.6888Z" fill="url(#paint3_linear_232_3905)" fill-opacity="0.74"/>
<path d="M0.649066 166.553C0.649066 166.981 0.79098 167.55 0.79098 167.978C0.649064 166.838 0.50715 165.841 0.365234 164.702C0.50715 165.414 0.507151 165.984 0.649066 166.553Z" fill="url(#paint4_linear_232_3905)" fill-opacity="0.74"/>
<path d="M3.48633 183.214C3.48633 183.357 3.48633 183.499 3.62822 183.642C3.48633 183.499 3.48633 183.357 3.48633 183.214Z" fill="url(#paint5_linear_232_3905)" fill-opacity="0.74"/>
<path d="M209.968 225.082C190.1 229.497 170.517 234.766 150.649 239.038C145.824 239.893 141.141 240.605 136.316 241.174C123.402 242.883 110.488 244.022 97.5745 245.446C88.3502 246.443 78.9841 247.013 69.618 246.87C69.0503 246.87 68.6246 246.87 68.057 246.87C67.7731 246.87 67.4893 246.87 67.2055 246.87C66.7798 246.87 66.354 246.87 65.9283 246.87C65.2187 246.87 64.6511 246.87 64.0835 246.87C63.3739 246.87 62.6643 246.87 61.9548 246.728C61.8129 246.728 61.671 246.728 61.5291 246.728C60.9614 246.728 60.3938 246.728 59.8261 246.586C59.5423 246.586 59.4004 246.586 59.1166 246.586C58.2651 246.586 57.4136 246.443 56.7041 246.443C55.8526 246.443 55.0012 246.301 54.2916 246.301C53.582 246.301 52.7306 246.158 52.021 246.158H51.8791C51.1696 246.158 50.3181 246.016 49.6085 245.874C49.4666 245.874 49.3247 245.874 49.1828 245.874C48.4733 245.731 47.6218 245.731 46.9122 245.589C46.2027 245.446 45.4931 245.446 44.7836 245.304C44.3578 245.304 44.074 245.162 43.6483 245.162C43.0806 245.162 42.513 245.019 42.0873 244.877C41.8034 244.877 41.5196 244.734 41.0939 244.734C40.952 244.734 40.6681 244.734 40.5262 244.592C39.5329 244.45 38.6814 244.307 37.688 244.165C37.5461 244.165 37.4042 244.165 37.1204 244.022C36.9785 244.022 36.6946 244.022 36.4108 243.88C23.4969 228.358 13.7051 210.272 7.88671 190.335C7.46098 188.769 7.03524 187.202 6.60951 185.636C6.4676 185.209 6.32568 184.782 6.32568 184.354C3.62937 173.104 2.06836 161.427 2.06836 149.465C4.62276 150.746 7.17715 151.886 9.87346 153.167C11.4345 153.879 12.8536 154.591 14.4146 155.303C16.6852 156.3 18.9558 157.44 21.2263 158.436C22.3616 159.006 23.4969 159.576 24.6322 160.003C25.7675 160.572 26.9028 161.142 28.0381 161.712C28.7476 162.139 29.5991 162.424 30.3086 162.851C30.5925 162.993 30.8763 163.136 31.1601 163.278C31.5858 163.563 32.1535 163.848 32.5792 163.99C33.9983 164.702 35.5594 165.557 36.9785 166.269C41.0939 168.69 45.3512 170.968 49.4666 173.104C50.7438 173.816 52.021 174.528 53.4401 175.098C53.582 175.098 53.724 175.24 53.8659 175.24C57.2717 176.949 60.6776 178.8 64.0835 180.509C64.9349 180.937 65.7864 181.364 66.6379 181.791C69.4761 183.215 72.3143 184.639 75.2944 185.921C76.7135 186.633 78.1326 187.345 79.5518 187.914C88.2083 192.044 96.8649 196.032 105.663 200.019C125.389 209.56 146.392 216.68 167.82 221.237C181.728 224.513 195.919 224.798 209.968 225.082Z" fill="url(#paint6_linear_232_3905)" fill-opacity="0.74"/>
<path d="M117.016 295.146C116.448 295.146 116.023 295.146 115.455 295.289C116.448 295.289 117.3 295.146 118.293 295.146C117.868 295.146 117.442 295.146 117.016 295.146Z" fill="url(#paint7_linear_232_3905)" fill-opacity="0.74"/>
<path d="M126.666 298.849C128.653 299.133 130.498 299.418 132.484 299.703C132.059 299.703 131.633 299.561 131.207 299.561C130.498 299.418 129.788 299.418 128.937 299.276C128.085 298.991 127.376 298.991 126.666 298.849Z" fill="url(#paint8_linear_232_3905)" fill-opacity="0.74"/>
<path d="M133.762 299.702C134.329 299.702 134.755 299.845 135.323 299.845C134.329 299.702 133.336 299.702 132.484 299.56C132.91 299.702 133.336 299.702 133.762 299.702Z" fill="url(#paint9_linear_232_3905)" fill-opacity="0.74"/>
<path d="M137.452 300.13C137.594 300.13 137.736 300.13 137.736 300.13C137.027 300.13 136.317 299.988 135.607 299.988C136.175 299.988 136.885 300.13 137.452 300.13Z" fill="url(#paint10_linear_232_3905)" fill-opacity="0.74"/>
<path d="M162.427 300.273C161.718 300.273 161.008 300.415 160.299 300.415C160.583 300.415 160.725 300.415 161.008 300.415C161.434 300.273 162.002 300.273 162.427 300.273Z" fill="url(#paint11_linear_232_3905)" fill-opacity="0.74"/>
<path d="M172.361 299.133C173.497 298.991 174.632 298.848 175.767 298.563C175.341 298.563 175.058 298.706 174.632 298.706C173.78 298.991 173.071 298.991 172.361 299.133Z" fill="url(#paint12_linear_232_3905)" fill-opacity="0.74"/>
<path d="M186.411 296.427C186.553 296.427 186.553 296.427 186.695 296.427C186.411 296.57 185.985 296.57 185.701 296.712C185.985 296.57 186.127 296.427 186.411 296.427Z" fill="url(#paint13_linear_232_3905)" fill-opacity="0.74"/>
<path d="M192.512 294.718C191.093 295.145 189.532 295.573 187.971 296C189.532 295.573 190.951 295.145 192.512 294.718Z" fill="url(#paint14_linear_232_3905)" fill-opacity="0.74"/>
<path d="M186.693 296.285C187.119 296.142 187.545 296 187.971 296C187.545 296.142 187.119 296.285 186.693 296.285Z" fill="url(#paint15_linear_232_3905)" fill-opacity="0.74"/>
<path d="M205.143 290.447C205.426 290.305 205.568 290.305 205.852 290.162C205.426 290.305 205.143 290.447 204.717 290.589C204.859 290.589 205.001 290.447 205.143 290.447Z" fill="url(#paint16_linear_232_3905)" fill-opacity="0.74"/>
<path d="M239.202 266.379C239.628 266.379 240.054 266.237 240.621 266.237C215.645 285.746 184.141 297.281 150.082 297.281C140.716 297.281 131.492 296.427 122.693 294.718C123.403 294.718 123.971 294.576 124.68 294.576C125.39 294.576 126.099 294.433 126.809 294.433C127.802 294.291 128.937 294.148 129.931 294.148C132.201 293.864 134.33 293.579 136.601 293.294C137.026 293.294 137.452 293.151 138.02 293.151C138.729 293.009 139.439 293.009 140.29 292.867C149.373 291.87 158.313 290.446 167.112 287.882C186.979 282.471 205.853 274.496 225.721 269.37C226.43 269.227 227.14 269.085 227.849 268.8C228.275 268.658 228.843 268.515 229.269 268.515C229.978 268.373 230.546 268.231 231.255 268.088C232.107 267.946 233.1 267.661 233.952 267.518C235.513 267.234 237.074 266.949 238.777 266.664C238.777 266.379 239.06 266.379 239.202 266.379Z" fill="url(#paint17_linear_232_3905)" fill-opacity="0.74"/>
<path d="M299.797 125.398C299.797 125.683 299.939 125.968 299.939 126.253C299.797 125.541 299.655 124.829 299.655 124.259C299.655 124.544 299.655 124.971 299.797 125.398ZM298.804 120.272C298.946 120.841 299.088 121.411 299.088 121.981C298.946 121.269 298.804 120.557 298.662 119.845C298.804 119.845 298.804 120.129 298.804 120.272ZM291.425 140.636C277.517 143.769 263.184 144.481 248.993 146.19C236.505 147.471 223.875 148.753 211.245 149.465C189.958 150.035 168.672 149.465 147.385 149.18C137.026 148.895 126.666 147.614 116.448 145.62C109.921 144.481 103.535 143.057 97.0066 142.202C96.1551 142.06 95.3037 142.629 95.1618 143.626C95.0199 144.338 95.4456 144.908 95.8713 145.335C95.3037 145.193 94.5941 144.908 93.8846 144.623C93.175 144.338 92.6074 144.196 91.8978 143.911C91.4721 143.769 90.9044 143.626 90.4787 143.341C90.1949 143.199 89.9111 143.199 89.6272 143.057C89.7691 142.914 89.7691 142.914 89.9111 142.772C89.9111 142.772 89.9111 142.629 90.053 142.629C90.053 142.629 90.053 142.487 90.1949 142.487V142.345C90.1949 142.345 90.1949 142.345 90.1949 142.202V142.06C90.1949 141.633 90.1949 141.063 89.9111 140.778C89.6272 140.351 89.2015 140.209 88.7758 140.066C88.0662 139.924 87.2147 139.781 86.5052 139.639H86.3633C86.2214 139.639 86.0795 139.639 85.9376 139.497C85.7956 139.497 85.6537 139.497 85.5118 139.354C85.3699 139.354 85.228 139.354 85.228 139.354C83.667 139.069 82.2479 138.642 80.6868 138.357C78.9839 137.93 77.1391 137.503 75.4361 136.933C74.7266 136.791 73.8751 136.506 73.1656 136.221C72.1722 135.794 71.1788 135.367 70.1854 134.797C69.0501 134.228 67.9149 133.8 66.7796 133.231C67.0634 133.088 67.3472 132.946 67.7729 132.946C67.7729 132.946 68.0568 132.946 68.1987 132.803C68.1987 132.803 68.1987 132.803 68.3406 132.803C69.0501 132.661 69.7597 132.376 70.3273 132.234C70.4693 132.234 70.6112 132.234 70.7531 132.091C71.3207 131.949 71.8884 131.807 72.456 131.664C74.4428 131.379 76.4295 131.095 78.4163 130.952C80.5449 130.667 82.8155 130.525 84.9442 130.24C88.9177 129.813 93.0331 129.671 97.0066 129.243C102.399 128.674 107.65 127.962 112.901 126.822C117.868 125.826 122.834 124.686 127.801 123.405C132.91 122.123 137.877 120.984 142.986 119.56C148.095 118.136 153.061 116.712 158.17 115.003C162.428 113.579 166.685 112.012 171.084 110.161C173.071 109.306 175.2 108.452 177.186 107.598C178.322 107.028 179.599 106.458 180.734 106.031C181.727 105.604 182.721 105.034 183.856 104.607C184.424 104.322 184.991 104.037 185.559 103.753C185.985 103.468 186.552 103.325 186.978 103.041C188.255 102.329 189.533 101.617 190.81 100.905C192.938 99.6229 195.067 98.3412 197.054 97.202C201.453 94.4962 205.852 91.7905 210.393 89.3696C212.664 88.088 214.793 86.8063 217.063 85.6671C219.476 84.3854 221.746 83.1038 224.159 81.8221C225.152 81.2525 226.287 80.6829 227.281 80.1132C228.416 79.5436 229.551 78.974 230.687 78.4044C232.957 77.2651 235.228 76.1259 237.498 74.9866C237.64 74.9866 237.924 74.7018 238.35 74.5594C238.776 74.2746 239.343 74.1322 239.911 73.8474C241.614 72.9929 243.317 72.2809 245.02 71.4265C246.723 70.7145 248.426 69.86 250.129 69.148C251.973 68.436 253.676 67.5815 255.521 66.8695C256.373 66.5847 257.366 66.1575 258.217 65.7302C259.069 65.4454 260.062 65.0182 260.914 64.7334C261.907 64.4486 262.901 64.1638 263.894 63.879C265.029 63.5942 266.023 63.3093 267.158 63.0245C268.293 62.7397 269.428 62.4549 270.706 62.1701C263.184 51.6321 254.244 42.0909 244.168 33.8313C244.168 33.8313 244.026 33.8313 244.026 33.9737C243.601 34.2585 243.317 34.4009 242.891 34.6858C242.323 34.9706 241.756 35.2554 241.33 35.6826C240.762 35.9674 240.195 36.2522 239.627 36.6794C239.059 36.9642 238.492 37.3915 237.924 37.6763C237.073 38.2459 236.079 38.8155 235.228 39.2427C226.287 44.3694 218.057 50.4928 209.258 56.0466C190.1 67.8663 166.827 69.2904 144.973 71.2841C124.821 71.9961 104.528 73.4202 84.3765 75.129C107.792 69.5752 130.072 60.034 150.649 47.7871C160.441 41.8061 169.381 34.5433 179.031 28.4199C186.552 23.4357 194.358 18.5939 202.021 13.8945C202.73 13.4673 203.298 13.0401 204.007 12.7552C204.433 12.4704 204.859 12.1856 205.285 12.0432C205.427 11.9008 205.71 11.7584 205.852 11.616C191.519 5.77735 175.909 2.2172 159.731 1.22036C156.751 1.07795 153.629 0.935547 150.649 0.935547C116.023 0.935547 84.2346 12.7552 59.1164 32.6921C49.4664 40.2396 40.8099 49.0688 33.4305 58.7524C23.9225 70.9993 16.4012 84.9551 11.1505 99.7653C5.61594 115.288 2.63581 131.949 2.63581 149.323C2.63581 149.607 2.63581 149.75 2.63581 150.035C5.19021 151.316 7.7446 152.455 10.4409 153.737C12.0019 154.449 13.421 155.161 14.9821 155.873C17.2526 156.87 19.5232 158.009 21.7938 159.006C22.9291 159.576 24.0644 160.145 25.1997 160.573C26.3349 161.142 27.4702 161.712 28.6055 162.281C29.3151 162.709 30.1665 162.994 30.8761 163.421C31.1599 163.563 31.4437 163.706 31.7276 163.848C32.1533 164.133 32.7209 164.418 33.1467 164.56C34.5658 165.272 36.1268 166.126 37.5459 166.838C40.3841 168.405 43.3643 170.114 46.2025 171.68C47.1959 172.25 48.0473 172.677 49.0407 173.247C49.3245 173.389 49.7503 173.532 50.0341 173.816C51.3113 174.528 52.5885 175.24 54.0076 175.81C54.1495 175.81 54.2914 175.952 54.4333 175.952C57.8392 177.661 61.245 179.513 64.6509 181.221C65.5024 181.649 66.3538 182.076 67.2053 182.503C70.0435 183.927 72.8817 185.351 75.8619 186.633C77.281 187.345 78.7001 188.057 80.1192 188.627C88.7758 192.756 97.4323 196.744 106.231 200.731C125.956 210.272 146.959 217.393 168.388 221.95C182.153 224.94 196.344 225.225 210.393 225.51C190.526 229.924 170.942 235.193 151.075 239.465C146.25 240.32 141.567 241.032 136.742 241.602C123.828 243.31 110.914 244.45 98 245.874C88.7758 246.871 79.4096 247.44 70.0435 247.298C69.4759 247.298 69.0501 247.298 68.4825 247.298C68.1987 247.298 67.9149 247.298 67.631 247.298C67.2053 247.298 66.7796 247.298 66.3538 247.298C65.6443 247.298 65.0766 247.298 64.509 247.298C63.7994 247.298 63.0899 247.298 62.3803 247.155C62.2384 247.155 62.0965 247.155 61.9546 247.155C61.5289 247.155 61.245 247.155 60.8193 247.155C60.6774 247.155 60.5355 247.155 60.2517 247.155C59.9678 247.155 59.8259 247.155 59.5421 247.155C59.2583 247.155 58.9745 247.155 58.6906 247.155C58.5487 247.155 58.4068 247.155 58.2649 247.155C57.8392 247.155 57.5554 247.155 57.1296 247.013C56.9877 247.013 56.8458 247.013 56.562 247.013C55.8524 247.013 55.2848 246.871 54.5752 246.871C54.4333 246.871 54.1495 246.871 54.0076 246.871C53.4399 246.871 52.8723 246.728 52.3046 246.728H52.1627C51.4532 246.728 50.6017 246.586 49.8922 246.443C49.7503 246.443 49.6083 246.443 49.4664 246.443C48.8988 246.443 48.1892 246.301 47.6216 246.301C47.4797 246.301 47.3378 246.301 47.1959 246.301C46.4863 246.159 45.7767 246.159 45.0672 246.016C44.6415 246.016 44.3576 245.874 43.9319 245.874C43.6481 245.874 43.3643 245.874 43.2223 245.731C42.9385 245.731 42.6547 245.589 42.3709 245.589C42.0871 245.589 41.8032 245.447 41.3775 245.447C41.2356 245.447 40.9518 245.447 40.8099 245.304C39.8165 245.162 38.965 245.019 37.9716 244.877C37.8297 244.877 37.6878 244.877 37.404 244.735C37.1202 244.735 36.9783 244.592 36.6944 244.592C43.0804 252.282 50.176 259.26 57.9811 265.383C76.5714 280.336 98.7095 290.732 122.976 295.289C123.686 295.289 124.254 295.146 124.963 295.146C125.673 295.146 126.382 295.004 127.092 295.004C128.085 294.861 129.22 294.719 130.214 294.719C130.781 294.719 131.349 294.577 131.775 294.577C132.484 294.434 133.052 294.434 133.762 294.292C134.755 294.149 135.89 294.007 136.884 293.865C137.309 293.865 137.735 293.722 138.303 293.722C139.012 293.58 139.722 293.58 140.573 293.437C149.656 292.44 158.596 291.016 167.394 288.453C187.262 283.042 206.136 275.067 226.004 269.94C226.713 269.798 227.423 269.656 228.132 269.371C228.558 269.228 229.126 269.086 229.551 269.086C230.261 268.944 230.829 268.801 231.538 268.659C232.39 268.374 233.383 268.232 234.235 268.089C234.66 267.947 235.086 267.947 235.654 267.804L237.073 267.519C237.498 267.377 237.924 267.377 238.35 267.235C238.634 267.235 238.776 267.092 239.059 267.092C239.343 267.092 239.485 267.092 239.769 266.95C239.911 266.95 240.053 266.95 240.195 266.95C240.479 266.95 240.904 266.807 241.188 266.807C268.577 245.447 288.303 214.687 295.54 179.228C297.527 169.544 298.52 159.576 298.52 149.465C298.52 146.332 298.378 143.057 298.236 139.924C295.54 139.639 293.553 140.066 291.425 140.636ZM204.717 290.589C205.143 290.447 205.427 290.304 205.852 290.162C205.569 290.304 205.427 290.304 205.143 290.447C205.001 290.447 204.859 290.589 204.717 290.589ZM187.972 296.001C189.533 295.573 190.952 295.146 192.513 294.719C190.952 295.146 189.533 295.573 187.972 296.001ZM187.972 296.001C187.546 296.143 187.12 296.285 186.694 296.285C187.12 296.285 187.546 296.143 187.972 296.001ZM185.701 296.57C185.985 296.57 186.411 296.428 186.694 296.285C186.552 296.285 186.411 296.285 186.411 296.285C186.127 296.428 185.985 296.57 185.701 296.57ZM174.632 298.849C175.058 298.849 175.341 298.706 175.767 298.706C174.632 298.849 173.497 299.134 172.361 299.276C173.071 298.991 173.78 298.991 174.632 298.849ZM161.008 300.415C160.725 300.415 160.583 300.415 160.299 300.415C161.008 300.415 161.86 300.273 162.569 300.273H162.428C162.002 300.273 161.434 300.273 161.008 300.415ZM140.857 300.415C141.283 300.415 141.709 300.415 142.134 300.415C141.992 300.415 141.85 300.415 141.709 300.415C141.425 300.415 141.141 300.415 140.857 300.415ZM135.606 299.988C136.316 299.988 137.026 300.13 137.735 300.13C137.593 300.13 137.451 300.13 137.451 300.13C136.884 300.13 136.174 299.988 135.606 299.988ZM132.342 299.561C133.336 299.703 134.329 299.703 135.181 299.846C134.613 299.846 134.187 299.703 133.62 299.703C133.336 299.703 132.91 299.703 132.342 299.561ZM128.795 299.134C129.504 299.276 130.214 299.418 131.065 299.418C131.491 299.418 131.917 299.561 132.342 299.561C130.356 299.276 128.511 298.991 126.524 298.706C127.376 298.991 128.085 298.991 128.795 299.134ZM117.016 295.146C117.442 295.146 117.868 295.004 118.293 295.004C117.3 295.004 116.448 295.146 115.455 295.146C116.023 295.289 116.448 295.146 117.016 295.146ZM3.34536 182.503C2.63581 182.076 1.78434 181.506 1.07479 181.079C1.07479 181.364 1.2167 181.791 1.35861 182.076C2.06817 182.646 2.91963 183.073 3.62919 183.642C3.62919 183.5 3.62919 183.358 3.48728 183.215C3.34537 182.93 3.34536 182.646 3.34536 182.503ZM0.365234 164.845C0.507145 165.984 0.649055 166.981 0.790966 168.12C0.790966 167.693 0.649057 167.123 0.649057 166.696C0.507146 165.984 0.507145 165.414 0.365234 164.845Z" fill="url(#paint18_linear_232_3905)"/>
<path d="M297.669 115.145C297.527 114.29 297.243 113.436 297.101 112.581C297.243 113.009 297.385 113.436 297.385 113.863C297.527 114.29 297.669 114.718 297.669 115.145C297.811 115.572 297.811 115.999 297.953 116.426C298.094 116.854 298.094 117.281 298.236 117.708C298.378 118.135 298.378 118.562 298.52 118.99C298.52 119.275 298.662 119.417 298.662 119.702C298.804 120.414 298.946 121.126 299.088 121.838C298.946 121.268 298.946 120.699 298.804 120.129C298.804 119.987 298.804 119.844 298.662 119.702C298.52 118.99 298.378 118.278 298.236 117.566C298.094 116.854 297.953 115.999 297.669 115.145ZM299.514 124.259C299.655 124.971 299.797 125.54 299.797 126.252C299.797 125.968 299.655 125.683 299.655 125.398C299.655 124.971 299.655 124.544 299.514 124.259ZM300.081 127.961C300.081 128.388 300.223 128.816 300.223 129.243C300.223 129.528 300.365 129.813 300.365 130.097C300.365 129.385 300.223 128.673 300.081 127.961ZM278.511 68.8628C278.795 69.1476 278.936 69.5748 279.22 70.0021C278.795 69.29 278.369 68.578 277.801 67.866C278.085 68.0084 278.227 68.4356 278.511 68.8628ZM212.38 10.7612C212.806 10.9036 213.232 11.1884 213.516 11.3308C213.941 11.4732 214.225 11.6156 214.651 11.9004C214.935 12.0428 215.218 12.1852 215.502 12.3276C214.793 12.0428 214.225 11.758 213.516 11.3308C212.664 10.9036 211.954 10.6188 211.103 10.1916C211.529 10.334 211.954 10.6188 212.38 10.7612ZM0.365234 164.844C0.365234 165.414 0.507143 166.126 0.507143 166.696C0.507143 167.123 0.649057 167.693 0.649057 168.12C0.649057 166.98 0.507145 165.841 0.365234 164.844ZM7.17697 196.743C7.03505 196.316 6.89314 196.031 6.75123 195.604C6.75123 195.462 6.60932 195.177 6.60932 195.034C6.46741 194.607 6.32549 194.18 6.18358 193.753C6.60931 194.75 6.89314 195.746 7.17697 196.743ZM4.33875 187.06C4.19683 186.633 4.05492 186.063 3.91301 185.493C4.05492 186.348 4.33874 187.06 4.48065 187.914C4.48065 187.629 4.48066 187.345 4.33875 187.06ZM7.60269 198.025C7.88651 198.737 8.02842 199.449 8.31225 200.161C8.17034 199.876 8.02843 199.591 8.02843 199.164C7.88652 198.879 7.7446 198.452 7.60269 198.025ZM9.0218 202.012C9.30562 202.867 9.58944 203.579 9.87327 204.433C9.73135 204.148 9.58945 203.721 9.44754 203.436C9.30563 202.867 9.16371 202.44 9.0218 202.012ZM10.4409 205.573C10.8666 206.569 11.1505 207.424 11.5762 208.421C11.4343 208.136 11.2924 207.851 11.1505 207.424C11.0086 206.997 10.8667 206.712 10.7247 206.285C10.5828 206 10.4409 205.857 10.4409 205.573ZM13.563 212.835C13.9887 213.974 14.5563 214.971 15.124 216.111C14.8402 215.399 14.4144 214.686 14.1306 213.974C13.8468 213.547 13.7049 213.12 13.563 212.835ZM15.124 216.111C15.5497 217.107 16.1174 217.962 16.5431 218.816C16.4012 218.531 16.2593 218.389 16.1173 218.104C15.8335 217.535 15.4078 216.823 15.124 216.111ZM17.1107 219.956C17.5365 220.81 17.9622 221.522 18.3879 222.376C18.1041 221.949 17.9622 221.522 17.6784 221.237C17.5365 220.81 17.2526 220.383 17.1107 219.956ZM23.071 230.351C23.7805 231.348 24.4901 232.487 25.0577 233.484C25.4835 234.054 25.7673 234.623 26.193 235.193C25.9092 234.766 25.4835 234.196 25.1997 233.769C25.1997 233.626 25.0577 233.626 25.0577 233.484C24.9158 233.342 24.9158 233.199 24.7739 233.199C24.4901 232.772 24.2063 232.345 23.9225 231.918C23.7805 231.348 23.4967 230.778 23.071 230.351ZM28.6055 238.468C29.0313 239.038 29.457 239.608 29.7408 240.035C29.457 239.465 29.0313 239.038 28.6055 238.468C28.6055 238.468 28.7474 238.468 28.6055 238.468ZM117.016 295.146C116.448 295.146 116.023 295.146 115.455 295.288C116.448 295.288 117.3 295.146 118.293 295.146C117.868 295.146 117.442 295.146 117.016 295.146ZM132.342 299.56C132.768 299.56 133.194 299.703 133.762 299.703C134.329 299.703 134.755 299.845 135.323 299.845C134.329 299.845 133.336 299.703 132.342 299.56ZM135.606 299.988C136.174 299.988 136.742 300.13 137.451 300.13C137.593 300.13 137.735 300.13 137.735 300.13C137.026 300.13 136.316 299.988 135.606 299.988ZM140.857 300.415C141.141 300.415 141.425 300.415 141.709 300.415C141.85 300.415 141.992 300.415 142.134 300.415C141.709 300.415 141.283 300.415 140.857 300.415ZM160.299 300.415C160.583 300.415 160.725 300.415 161.008 300.415C161.434 300.415 162.002 300.415 162.428 300.272H162.569C161.718 300.272 161.008 300.415 160.299 300.415ZM185.701 296.57C185.985 296.57 186.127 296.427 186.411 296.427C186.552 296.427 186.552 296.427 186.694 296.427C186.411 296.427 185.985 296.57 185.701 296.57ZM187.972 296C189.533 295.573 190.952 295.146 192.513 294.719C190.952 295.146 189.533 295.573 187.972 296ZM204.717 290.589C204.859 290.589 205.001 290.446 205.143 290.446C205.427 290.304 205.569 290.304 205.852 290.162C205.569 290.304 205.143 290.446 204.717 290.589ZM240.621 266.095C240.904 266.095 241.046 266.095 241.33 265.953C241.046 266.095 240.904 266.095 240.621 266.095C215.502 285.605 184.14 297.14 149.939 297.14C140.573 297.14 131.349 296.285 122.551 294.576C98.2838 290.019 76.1457 279.624 57.5554 264.671C49.7503 258.405 42.6547 251.427 36.2687 243.88C23.3548 228.357 13.563 210.272 7.7446 190.335C7.31887 188.769 6.89314 187.202 6.46741 185.636C6.3255 185.208 6.18358 184.781 6.18358 184.354C3.48727 173.104 1.92625 161.427 1.92625 149.465C1.92625 149.18 1.92625 149.037 1.92625 148.753C1.92625 131.379 4.90638 114.718 10.4409 99.1953C15.6916 84.2426 23.2129 70.4293 32.7209 58.1824C40.1003 48.4988 48.8988 39.6696 58.4068 32.1221C83.667 12.1852 115.455 0.223145 150.081 0.223145C153.203 0.223145 156.183 0.365552 159.164 0.507957C175.341 1.5048 190.952 5.06495 205.285 10.9036C219.192 16.5998 232.106 24.2897 243.601 33.6885C253.676 41.9481 262.475 51.4893 270.138 62.0273C275.814 69.8597 280.639 78.2616 284.755 87.0908C291.992 103.183 296.533 120.699 297.811 139.211C297.953 142.344 298.094 145.62 298.094 148.753C298.094 159.006 297.101 168.974 295.114 178.515C287.877 213.974 268.151 244.734 240.621 266.095Z" fill="url(#paint19_linear_232_3905)"/>
<path d="M224.727 64.4478C222.031 64.3054 221.037 60.6028 222.882 58.8939C222.882 58.4667 223.308 58.1819 223.734 58.0395C225.011 57.4699 226.572 57.8971 227.849 58.4667C229.126 59.1787 229.552 61.1724 228.417 62.1693C227.565 63.4509 226.288 64.5902 224.727 64.4478ZM225.153 61.03C225.153 60.8876 225.295 60.8876 225.295 60.7452C225.295 60.6028 225.295 60.7452 225.295 60.6028C225.153 60.6028 225.011 60.6028 225.011 60.6028V60.7452C225.011 60.8876 225.011 60.8876 225.153 61.03Z" fill="url(#paint20_linear_232_3905)"/>
<path d="M110.63 44.0842C108.075 43.2298 107.082 39.9544 109.211 38.1032C110.346 36.9639 111.907 36.8215 113.326 36.3943C114.745 35.9671 116.022 36.6791 117.158 37.5335C119.145 39.1 117.583 41.8057 116.306 43.3722C115.597 43.9418 114.745 44.369 113.894 44.2266C112.9 44.5114 111.765 44.5114 110.63 44.0842ZM111.198 41.0937C111.056 40.8089 111.056 40.5241 111.056 40.2393V40.0968C110.772 40.3817 110.914 40.8089 111.198 41.0937Z" fill="url(#paint21_linear_232_3905)"/>
<path d="M203.441 206.712C199.325 206.427 199.325 201.728 203.015 200.589C203.015 198.595 205.569 199.307 206.705 199.592C208.266 200.019 209.543 201.728 208.55 203.294C208.55 203.437 208.55 203.437 208.55 203.579C208.55 203.864 208.408 204.149 208.124 204.149C207.698 206.285 205.286 206.57 203.441 206.712Z" fill="url(#paint22_linear_232_3905)"/>
<path d="M228.983 131.095C228.558 130.81 228.274 130.525 227.99 130.098C226.003 129.813 226.713 127.25 227.99 126.538C229.409 125.683 231.396 125.683 232.673 126.823C234.944 128.959 231.112 133.088 228.983 131.095Z" fill="url(#paint23_linear_232_3905)"/>
<path d="M130.355 195.035C130.355 194.75 130.355 194.608 130.639 194.465C129.93 193.753 129.504 192.614 129.93 191.617C129.93 189.196 134.045 188.057 135.606 189.908C137.593 192.329 134.329 196.174 131.633 195.035C131.207 195.462 130.639 195.747 130.355 195.035ZM132.484 192.899C132.626 192.614 132.768 192.471 132.91 192.187C132.626 192.329 132.484 192.614 132.2 192.756C132.2 192.899 132.342 192.899 132.484 192.899Z" fill="url(#paint24_linear_232_3905)"/>
<path d="M24.2061 119.417C21.6517 119.274 20.8003 115.856 23.0708 114.717C23.0708 113.578 24.348 113.151 25.3414 113.436C26.3348 113.72 26.9024 114.717 27.3282 115.572C28.0377 117.423 26.051 119.559 24.2061 119.417Z" fill="url(#paint25_linear_232_3905)"/>
<path d="M34.9922 80.1128C31.3025 79.5431 30.7349 74.9862 34.8503 74.7014C36.2694 73.4197 38.9657 73.4197 38.9657 75.8406C40.101 77.2646 38.8238 79.4007 36.9789 79.4007C36.5532 79.9703 35.7017 80.1128 34.9922 80.1128Z" fill="url(#paint26_linear_232_3905)"/>
<path d="M71.0363 217.108C71.0363 216.68 71.0363 216.253 71.0363 215.826C72.0297 212.266 70.0429 208.421 67.4885 205.003C66.6371 203.864 65.9275 202.725 65.076 201.728C64.6503 201.301 65.5018 200.731 65.7856 201.158C69.4753 205.715 74.8679 211.839 71.3201 217.962C71.1782 218.104 71.0363 218.247 71.0363 218.389C71.0363 218.104 71.0363 217.535 71.0363 217.108Z" fill="url(#paint27_linear_232_3905)"/>
<path d="M43.9323 210.272C45.2095 205.858 48.3315 201.158 53.1565 200.446C55.569 200.446 58.9748 199.876 60.394 202.155C60.6778 202.725 60.8197 203.294 60.9616 203.864C60.9616 204.006 60.9616 204.291 60.6778 204.291C60.1101 204.433 60.252 203.437 59.9682 203.009C59.6844 202.155 58.8329 201.301 57.9815 201.158C51.4536 199.876 47.3381 204.006 45.6352 209.987V210.13C45.4933 210.557 45.2095 210.842 45.0676 211.269C44.6418 212.266 44.358 213.405 44.358 214.544C44.358 214.829 44.358 214.972 44.358 215.256C44.0742 213.832 43.7904 212.123 43.9323 210.272Z" fill="url(#paint28_linear_232_3905)"/>
<path d="M190.951 138.072C185.133 138.214 178.605 134.654 177.186 128.673C176.618 124.686 179.882 121.268 182.862 119.132C183.714 118.42 185.417 117.85 187.12 117.708C186.978 117.708 186.836 117.85 186.694 117.85C186.126 118.135 185.701 118.42 185.133 118.705C181.727 119.844 179.031 123.262 178.037 126.537C177.47 128.815 178.747 130.951 180.166 132.518C185.843 139.353 199.466 138.926 203.156 130.239C204.007 128.388 202.73 126.537 202.02 124.828C199.324 119.274 193.506 113.72 186.978 115.287C185.701 115.572 184.423 115.856 183.288 116.141C183.146 116.141 182.862 115.999 182.862 115.856C182.862 115.714 183.004 115.429 183.146 115.429C185.984 114.575 189.106 113.578 192.087 114.575C198.331 116.426 203.014 122.265 204.575 128.531C204.291 134.796 197.195 138.214 191.519 138.214C191.235 138.072 191.093 138.072 190.951 138.072Z" fill="url(#paint29_linear_232_3905)"/>
<path d="M251.121 237.614C248.567 237.472 246.154 236.76 243.884 235.62C236.221 230.779 236.788 224.94 243.032 219.101C242.748 219.244 242.323 219.956 241.897 219.529C241.755 219.386 241.755 219.101 242.039 219.101C243.458 218.104 244.877 217.108 246.438 216.253C249.418 214.26 253.25 213.975 256.656 214.829C261.197 215.541 263.751 219.956 264.887 224.086C265.454 227.361 264.461 230.921 262.9 233.769C261.906 235.336 259.778 236.19 258.075 236.617C256.088 237.187 254.101 237.757 251.973 237.757C251.689 237.614 251.405 237.614 251.121 237.614ZM252.398 218.532C251.831 218.674 251.405 218.817 250.837 219.101C250.412 219.244 250.128 219.386 249.702 219.671C249.56 219.671 249.56 219.671 249.418 219.671C248.425 219.813 247.573 220.098 246.722 220.525C246.296 220.81 246.012 220.953 245.729 221.237C245.445 221.522 245.019 221.807 244.735 222.234C244.451 222.661 244.026 223.231 243.742 223.801C243.6 224.228 243.458 224.655 243.316 225.082C243.174 225.652 243.174 226.222 243.174 226.649C243.174 226.791 243.032 226.934 243.032 227.218C242.748 228.215 242.748 229.212 242.748 230.209C242.748 231.063 243.032 232.06 243.316 232.772C243.742 233.627 244.309 234.481 244.877 235.193C245.587 235.905 246.296 236.332 247.148 236.76C248.283 237.329 249.702 237.614 250.979 237.614C251.547 237.614 252.115 237.614 252.682 237.472C254.527 237.045 256.23 235.905 257.507 234.339C257.933 233.769 258.359 233.057 258.642 232.345C259.92 231.206 260.771 229.639 261.339 228.073C261.481 227.503 261.623 227.076 261.764 226.506C261.906 226.079 261.906 225.652 261.906 225.225C261.906 224.37 261.764 223.516 261.197 222.804C260.629 221.949 260.062 221.237 259.21 220.81C258.642 220.383 258.217 220.098 257.649 219.956L257.507 219.813C256.656 219.244 255.804 218.959 254.811 218.674C254.385 218.532 254.101 218.532 253.676 218.532C253.392 218.389 252.824 218.389 252.398 218.532Z" fill="url(#paint30_linear_232_3905)"/>
<path d="M256.514 228.073C256.656 227.788 256.797 227.36 256.939 227.076C256.939 227.36 256.939 227.503 256.939 227.788C256.939 228.073 256.939 228.5 256.797 228.785C256.797 228.927 256.797 228.927 256.797 229.069C256.656 229.212 256.656 229.212 256.514 229.354C256.656 228.785 256.656 228.357 256.514 228.073Z" fill="url(#paint31_linear_232_3905)"/>
<path d="M251.121 223.943C251.121 223.801 251.263 223.801 251.263 223.801C251.405 223.801 251.405 223.801 251.547 223.801C251.689 223.801 251.831 223.801 251.831 223.943C251.831 223.943 251.831 223.943 251.973 223.943C251.689 224.086 251.405 223.943 251.121 223.943Z" fill="url(#paint32_linear_232_3905)"/>
<path d="M191.518 137.645C185.7 136.221 179.456 131.379 179.74 124.828C180.166 120.271 183.855 115.857 188.68 115.287C190.383 115.145 192.086 115.572 193.505 116.284C195.492 116.284 197.763 116.854 199.182 118.278C201.736 121.126 202.729 125.967 201.31 129.528C199.607 132.376 197.195 135.651 193.931 136.79C193.647 137.36 192.938 137.787 192.37 137.787C192.086 137.787 191.802 137.787 191.518 137.645ZM189.39 116.854C188.396 116.996 187.403 117.281 186.552 117.85C185.7 118.278 184.991 118.705 184.281 119.417C183.571 120.129 182.862 120.841 182.436 121.695C182.01 122.407 181.585 123.262 181.301 124.116C180.733 125.825 180.449 127.819 181.159 129.528C181.301 129.955 181.585 130.382 181.727 130.809C182.01 131.094 182.152 131.521 182.578 131.806C183.288 132.376 183.997 132.945 184.707 133.373C184.849 133.515 184.991 133.515 185.132 133.657C185.7 134.227 186.41 134.797 187.119 135.224C187.545 135.366 187.971 135.651 188.396 135.651C188.822 135.793 189.106 135.793 189.532 135.793C190.241 135.793 190.951 135.651 191.518 135.224C191.518 135.224 191.518 135.224 191.66 135.224C192.654 135.081 193.505 134.797 194.357 134.369C195.066 133.942 195.776 133.515 196.343 132.803C196.769 132.376 197.053 131.949 197.337 131.379C197.479 131.237 197.621 130.952 197.763 130.809C198.33 130.097 198.614 129.243 198.898 128.388C199.182 127.534 199.182 126.537 199.04 125.54C199.04 125.255 199.04 124.828 199.04 124.543C199.04 124.116 198.898 123.689 198.756 123.262C198.614 122.835 198.472 122.407 198.33 121.98C198.188 121.553 198.046 121.126 197.763 120.698C197.479 120.271 197.195 119.986 196.911 119.702C196.343 119.132 195.634 118.562 194.924 118.135C194.073 117.708 193.079 117.281 192.086 117.138C191.518 116.996 191.093 116.996 190.525 116.996C190.099 116.711 189.815 116.711 189.39 116.854Z" fill="url(#paint33_linear_232_3905)"/>
<path d="M184.141 132.803C184.424 132.946 184.566 133.088 184.85 133.23C184.992 133.373 185.134 133.373 185.276 133.515C185.702 133.942 185.985 134.227 186.411 134.512C185.56 133.942 184.708 133.373 184.141 132.803Z" fill="url(#paint34_linear_232_3905)"/>
<path d="M190.526 137.93C187.12 136.506 184.849 134.513 183.572 132.376C183.998 132.661 184.424 132.946 184.849 133.231C184.991 133.373 185.133 133.373 185.275 133.516C185.843 134.085 186.552 134.655 187.262 135.082C187.688 135.225 188.113 135.509 188.539 135.509C188.965 135.652 189.249 135.652 189.674 135.652C190.384 135.652 191.094 135.509 191.661 135.082C191.661 135.082 191.661 135.082 191.803 135.082C192.087 135.082 192.229 134.94 192.513 134.94C193.08 135.509 193.222 136.364 192.938 137.076C192.655 137.788 191.945 138.215 191.235 138.215C190.952 138.073 190.81 138.073 190.526 137.93Z" fill="url(#paint35_linear_232_3905)"/>
<path d="M197.764 120.414C197.48 119.986 197.196 119.702 196.912 119.417C196.345 118.847 195.635 118.278 194.926 117.85C194.5 117.708 194.074 117.423 193.648 117.281C194.642 117.281 195.777 117.281 196.912 117.566C198.615 117.85 198.757 119.702 197.764 120.414Z" fill="url(#paint36_linear_232_3905)"/>
<path d="M185.842 138.215C180.024 135.367 177.753 130.667 179.74 124.544C178.463 123.12 180.024 121.553 181.301 120.841C183.855 116.569 188.68 115.572 192.654 116.996C192.512 116.996 192.37 116.854 192.086 116.854C191.235 116.711 190.383 116.711 189.39 116.854C188.396 116.996 187.403 117.281 186.552 117.851C185.7 118.278 184.991 118.705 184.281 119.417C183.571 120.129 182.862 120.841 182.436 121.696C182.01 122.408 181.585 123.262 181.301 124.117C180.733 125.825 180.449 127.819 181.159 129.528C181.301 129.955 181.585 130.382 181.727 130.81C182.01 131.094 182.152 131.522 182.578 131.806C183.288 132.376 183.997 132.946 184.707 133.373C184.849 133.515 184.991 133.515 185.132 133.658C185.7 134.227 186.41 134.797 187.119 135.224C187.545 135.367 187.971 135.651 188.396 135.651C188.822 135.794 189.106 135.794 189.532 135.794C190.241 135.794 190.951 135.651 191.518 135.224C191.518 135.224 191.518 135.224 191.66 135.224C192.654 135.082 193.505 134.797 194.357 134.37C195.066 133.943 195.776 133.515 196.343 132.803C196.769 132.376 197.053 131.949 197.337 131.379C197.479 131.237 197.621 130.952 197.763 130.81C198.33 130.098 198.614 129.243 198.898 128.389C199.182 127.534 199.182 126.537 199.04 125.541V125.398C200.743 128.104 201.168 131.379 201.168 134.512C201.168 135.367 200.317 136.221 199.465 136.221C197.337 136.079 197.904 133.515 197.621 131.949C196.202 135.509 192.654 139.212 188.822 139.212C187.971 139.069 186.835 138.784 185.842 138.215Z" fill="url(#paint37_linear_232_3905)"/>
<path d="M191.945 123.547C191.803 123.404 191.661 123.404 191.52 123.262H191.661H191.52C191.661 123.262 191.803 123.262 191.945 123.262H192.087C192.087 123.262 192.087 123.262 192.229 123.262C192.229 123.404 192.229 123.404 192.371 123.547C192.371 123.689 192.371 123.689 192.371 123.689C192.371 123.831 192.229 123.689 191.945 123.547Z" fill="url(#paint38_linear_232_3905)"/>
<path d="M184.707 137.93C183.004 137.645 179.172 137.075 179.882 134.512C180.875 132.518 183.004 134.227 184.423 134.37C185.132 134.512 185.7 134.512 186.409 134.37C186.693 134.512 186.835 134.654 187.119 134.797C187.545 134.939 187.97 135.224 188.396 135.224C188.822 135.366 189.106 135.366 189.532 135.366C190.241 135.366 190.951 135.224 191.518 134.797C191.518 134.797 191.518 134.797 191.66 134.797C192.654 134.654 193.505 134.37 194.356 133.942C195.066 133.515 195.776 133.088 196.343 132.376C196.769 131.949 197.053 131.521 197.337 130.952C197.479 130.809 197.62 130.525 197.762 130.382C198.33 129.67 198.614 128.816 198.898 127.961C199.181 127.107 199.181 126.11 199.04 125.113C199.04 124.828 199.04 124.401 199.04 124.116C199.04 123.974 199.04 123.974 199.04 123.832C202.304 130.667 193.931 137.787 185.984 137.787C185.558 137.93 185.132 137.93 184.707 137.93Z" fill="url(#paint39_linear_232_3905)"/>
<path d="M184.141 132.803C184.424 132.946 184.566 133.088 184.85 133.23C184.992 133.373 185.134 133.373 185.276 133.515L185.418 133.658C184.992 133.373 184.424 133.23 184.141 132.803Z" fill="url(#paint40_linear_232_3905)"/>
<path d="M188.68 129.1C188.538 128.958 188.538 128.958 188.396 128.816C188.255 128.673 188.255 128.673 188.255 128.531C188.255 128.388 188.113 128.246 188.113 128.246C188.113 128.103 187.971 127.961 187.971 127.961C187.971 127.819 187.971 127.819 187.971 127.676C187.971 127.534 187.971 127.391 187.971 127.249C188.113 127.391 188.255 127.534 188.396 127.676C188.822 128.103 189.248 128.103 189.816 128.103C190.241 128.103 190.809 127.961 191.235 127.676C191.377 127.676 191.518 127.534 191.66 127.534C191.518 127.676 191.518 127.676 191.377 127.819C191.377 127.819 191.377 127.819 191.518 127.676C191.377 127.819 191.093 128.103 190.951 128.246C190.809 128.388 190.667 128.531 190.383 128.531C190.241 128.673 190.099 128.673 189.816 128.816C189.674 128.958 189.532 128.958 189.248 128.958C189.106 129.1 188.964 129.1 188.68 129.1C188.822 129.1 188.822 129.1 188.68 129.1Z" fill="url(#paint41_linear_232_3905)"/>
<path d="M189.533 126.68H189.391C189.391 126.68 189.391 126.538 189.249 126.538C189.249 126.395 189.107 126.395 189.107 126.253C189.107 126.253 189.107 126.253 189.107 126.111C189.107 126.111 189.107 126.111 189.107 125.968C189.107 125.968 189.107 125.968 189.107 125.826V125.683C189.107 125.683 189.107 125.683 189.107 125.826C189.107 125.683 189.107 125.541 189.249 125.399C189.249 125.256 189.391 125.114 189.391 125.114C189.391 125.114 189.391 124.971 189.533 124.971C189.675 124.829 189.675 124.687 189.817 124.687C189.959 124.687 189.959 124.687 190.101 124.687H190.243H190.101H190.243C190.385 124.687 190.385 124.829 190.527 124.829C190.668 124.971 190.668 124.971 190.81 125.114C190.81 125.114 190.81 125.114 190.668 124.971C190.668 124.971 190.668 124.971 190.81 125.114C190.81 125.256 190.81 125.256 190.668 125.399C190.668 125.541 190.527 125.683 190.527 125.826V125.968C190.385 126.111 190.385 126.253 190.243 126.395C190.101 126.538 190.101 126.538 190.101 126.68C189.675 126.68 189.533 126.68 189.533 126.68Z" fill="url(#paint42_linear_232_3905)"/>
<path d="M191.945 123.547C191.803 123.404 191.661 123.404 191.52 123.262H191.661H191.52C191.661 123.262 191.803 123.262 191.945 123.262H192.087C192.087 123.262 192.087 123.262 192.229 123.262C192.229 123.404 192.229 123.404 192.371 123.547C192.371 123.689 192.371 123.689 192.371 123.689C192.371 123.831 192.229 123.689 191.945 123.547Z" fill="url(#paint43_linear_232_3905)"/>
<path d="M61.9539 228.215C61.2443 228.215 60.6767 228.072 59.9671 227.93C60.3928 227.93 60.9605 228.072 61.3862 228.072C62.5215 228.072 63.7987 227.93 64.7921 227.36C66.6369 226.506 68.3398 225.224 69.3332 223.373C70.3266 221.522 70.8942 219.386 70.8942 217.25C70.8942 216.395 70.8942 215.541 70.6104 214.686C70.6104 214.401 70.6104 214.117 70.6104 213.832C70.4685 212.835 70.1847 211.838 69.759 210.984C68.7656 209.132 66.9207 207.566 64.934 206.712C64.6502 206.569 64.3663 206.427 64.0825 206.427C63.6568 206.284 63.373 206.142 62.9472 205.857C62.5215 205.572 61.9539 205.287 61.5281 205.145C60.5347 204.86 59.5414 204.718 58.548 204.575C57.4127 204.291 56.2774 204.291 55.1421 204.291C53.8649 204.433 52.5877 204.718 51.3105 205.287C52.8716 203.721 55.0002 202.582 57.2708 202.155C65.6435 200.446 73.5906 208.278 73.3067 216.537C73.3067 222.376 69.0494 228.357 62.9472 228.357C62.6634 228.215 62.2377 228.215 61.9539 228.215Z" fill="url(#paint44_linear_232_3905)"/>
<path d="M58.4067 215.541C57.981 214.972 57.5553 214.545 56.8457 214.117C56.8457 213.975 56.8457 213.833 56.9876 213.69C57.1295 213.548 57.1295 213.263 57.2714 213.121C57.4133 212.978 57.4133 212.836 57.5553 212.693C57.6972 212.693 57.8391 212.836 57.981 212.836C58.1229 212.836 58.1229 212.978 58.2648 212.978V213.121L58.4067 212.978C58.5486 213.121 58.6905 213.121 58.6905 213.263C58.8324 213.263 58.8324 213.405 58.9744 213.405C58.9744 213.405 58.9744 213.548 59.1163 213.548C59.1163 213.548 59.1163 213.69 59.2582 213.69C59.2582 213.833 59.4001 213.975 59.4001 214.117C59.4001 214.26 59.4001 214.402 59.4001 214.545C59.4001 214.687 59.4001 214.829 59.4001 214.829V214.972C59.2582 215.114 59.2582 215.257 59.1163 215.399C58.9744 215.542 58.8324 215.826 58.6905 215.969C58.5486 215.969 58.5486 215.684 58.4067 215.541Z" fill="url(#paint45_linear_232_3905)"/>
<path d="M58.9746 213.547L59.1159 213.689C58.9746 213.689 58.9746 213.689 58.9746 213.547Z" fill="url(#paint46_linear_232_3905)"/>
<path d="M69.335 225.367C68.9093 225.225 68.6255 225.082 68.4835 224.655C68.9093 224.228 69.1931 223.801 69.4769 223.231C70.4703 221.38 71.0379 219.244 71.0379 217.108C71.0379 216.253 71.0379 215.399 70.7541 214.544C70.7541 214.26 70.7541 213.975 70.7541 213.69C70.6122 212.693 70.3284 211.696 69.9026 210.842C69.4769 209.987 68.7674 209.133 67.9159 208.421C67.774 207.994 67.774 207.566 67.6321 207.139C67.4902 206.142 67.9159 205.146 68.9093 204.861C69.335 204.718 69.9027 204.861 70.3284 205.003C70.896 205.288 71.1798 205.858 71.1798 206.427C71.4637 208.278 71.7475 210.13 72.0313 211.981C72.3151 213.975 72.3151 216.111 72.3151 218.105C72.3151 219.244 72.1732 220.241 72.0313 221.38C71.8894 222.377 71.7475 223.516 71.3218 224.37C71.0379 224.94 70.4703 225.367 69.7607 225.367C69.6188 225.367 69.4769 225.367 69.335 225.367Z" fill="url(#paint47_linear_232_3905)"/>
<path d="M71.0369 217.107C71.0369 216.253 71.0369 215.399 70.7531 214.544C70.7531 214.259 70.7531 213.974 70.7531 213.69C70.6112 212.693 70.3274 211.696 69.9016 210.842C69.7597 210.557 69.4759 210.129 69.334 209.845V209.702C69.4759 208.705 70.4693 207.993 71.4626 208.136C74.7266 208.705 71.8884 215.683 71.1788 217.677C71.1788 217.677 71.1788 217.819 71.0369 217.819C71.0369 217.535 71.0369 217.392 71.0369 217.107Z" fill="url(#paint48_linear_232_3905)"/>
<path d="M63.2312 199.876C64.7922 200.161 67.7724 200.446 67.2047 202.582C66.6371 204.291 64.7922 203.721 63.515 203.294C61.5283 202.867 59.6834 203.294 57.9805 204.291C56.9871 204.148 55.9937 204.006 55.1423 204.148C54.2908 204.148 53.4394 204.291 52.5879 204.576C55.1423 201.443 58.9739 199.307 63.2312 199.876Z" fill="url(#paint49_linear_232_3905)"/>
<path d="M52.1622 226.791C50.0335 225.794 48.0467 224.085 46.7695 221.949C47.0534 222.376 47.3372 222.804 47.7629 223.088C48.4725 223.801 49.3239 224.513 50.3173 225.082C51.1688 225.652 52.0202 226.079 53.0136 226.364C54.007 226.791 55.1423 227.076 56.2776 226.933C56.5614 226.933 56.7033 226.933 56.9871 226.933C57.5548 227.218 57.9805 227.361 58.5482 227.503C59.1158 227.645 59.6834 227.788 60.2511 227.788C59.5415 227.93 58.6901 227.93 57.9805 227.93C55.8518 228.073 54.007 227.645 52.1622 226.791Z" fill="url(#paint50_linear_232_3905)"/>
<path d="M71.0372 217.108C71.0372 216.253 71.0372 215.399 70.7533 214.544C70.7533 214.259 70.7533 213.975 70.7533 213.69C70.6114 212.693 70.3276 211.696 69.9019 210.842C68.9085 208.99 67.0637 207.424 65.0769 206.569C64.7931 206.427 64.5093 206.285 64.2254 206.285C63.7997 206.142 63.5159 206 63.0901 205.715C62.6644 205.43 62.0968 205.288 61.671 205.003C60.6777 204.718 59.6843 204.576 58.6909 204.433C57.5556 204.149 56.4203 204.149 55.285 204.149C51.0277 204.433 47.0542 207.281 45.3513 211.269C44.9255 212.266 44.6417 213.405 44.6417 214.544C44.6417 214.687 44.6417 214.687 44.6417 214.829C44.4998 213.832 44.4998 212.978 44.6417 211.981C39.5329 201.016 56.4203 195.604 63.9416 200.588C68.6247 201.158 71.6048 205.573 73.3077 209.56C74.5849 214.402 73.0239 219.101 69.76 222.519C70.4695 220.952 71.0372 219.101 71.0372 217.108Z" fill="url(#paint51_linear_232_3905)"/>
<path d="M58.4067 215.541C57.981 214.972 57.5553 214.545 56.8457 214.117C56.8457 213.975 56.8457 213.833 56.9876 213.69C57.1295 213.548 57.1295 213.263 57.2714 213.121C57.4133 212.978 57.4133 212.836 57.5553 212.693C57.6972 212.693 57.8391 212.836 57.981 212.836C58.1229 212.978 58.2648 212.978 58.4067 213.121C58.5486 213.263 58.6905 213.263 58.6905 213.405C58.8324 213.548 58.8324 213.548 58.9744 213.69L59.1163 213.833C59.1163 213.975 59.1163 213.975 59.2582 213.975C59.2582 214.117 59.4001 214.26 59.4001 214.402C59.4001 214.545 59.4001 214.687 59.4001 214.829C59.4001 214.972 59.4001 215.114 59.4001 215.114V215.257C59.2582 215.399 59.2582 215.541 59.1163 215.684C58.9744 215.826 58.8324 216.111 58.6905 216.254C58.5486 215.969 58.5486 215.684 58.4067 215.541Z" fill="url(#paint52_linear_232_3905)"/>
<path d="M58.9746 213.547L59.1159 213.689C58.9746 213.689 58.9746 213.689 58.9746 213.547Z" fill="url(#paint53_linear_232_3905)"/>
<path d="M132.2 269.655C131.916 269.655 131.632 269.512 131.491 269.227C131.207 269.085 130.923 268.943 130.781 268.658C130.497 268.088 130.497 267.234 130.923 266.664C128.936 265.24 131.207 262.961 133.052 262.961C135.748 262.534 137.593 265.952 135.038 267.518C134.896 267.803 134.755 268.088 134.471 268.373C134.045 268.8 133.477 269.227 132.768 269.37C132.768 269.512 132.484 269.655 132.2 269.655Z" fill="url(#paint54_linear_232_3905)"/>
<path d="M258.077 112.867C256.799 113.151 255.522 111.727 256.09 110.446C255.38 108.737 257.793 107.313 258.928 108.737C259.638 108.879 260.347 108.452 261.057 108.594C262.334 108.737 263.185 110.303 262.192 111.158C261.908 112.867 259.496 113.863 258.077 112.867Z" fill="url(#paint55_linear_232_3905)"/>
<path d="M138.444 105.889C137.877 105.461 138.16 104.465 138.728 104.322C137.735 103.325 138.444 101.474 139.579 100.904C139.579 98.6259 142.56 98.7683 143.127 100.62C143.553 101.759 142.985 103.041 142.134 103.895C141.282 104.892 139.863 106.885 138.444 105.889Z" fill="url(#paint56_linear_232_3905)"/>
<path d="M180.875 55.3342C180.023 55.1918 179.314 54.4798 179.172 53.6253C177.895 53.7677 177.043 52.4861 177.611 51.3468C178.32 50.2076 179.881 50.4924 181.017 50.7772C182.152 50.2076 183.713 50.6348 184.139 51.9165C184.706 52.7709 184.139 54.0525 183.003 54.1949C182.578 55.0494 181.584 55.4766 180.875 55.3342Z" fill="url(#paint57_linear_232_3905)"/>
<path opacity="0.5" d="M150.081 0.223633C115.455 0.223633 83.6671 12.0433 58.5488 31.9802C60.2518 32.1226 61.9547 32.265 63.7995 32.265C75.0105 32.4074 86.2215 29.8441 97.0067 27.1384C119.145 22.0117 140.999 14.1794 159.164 0.508446C156.184 0.36604 153.062 0.223633 150.081 0.223633Z" fill="url(#paint58_linear_232_3905)" fill-opacity="0.74"/>
<path opacity="0.5" d="M154.48 97.7713C151.5 99.4801 147.81 99.765 144.546 100.477C144.12 100.619 143.695 100.619 143.127 100.762C141.708 101.047 140.147 101.331 138.728 101.474C136.173 101.901 133.619 102.328 131.064 102.613C109.92 106.031 88.6331 107.17 67.3464 107.028C48.1884 106.743 28.8886 104.464 10.582 99.0529C15.8327 84.1003 23.354 70.2869 32.8621 58.04C36.5518 60.6033 40.3833 62.8818 44.2149 65.1603C53.0134 70.999 62.9472 75.1287 72.881 78.6889C83.95 82.6762 94.8772 87.0908 106.23 90.0814C114.035 92.075 121.84 93.4991 129.787 94.0687C132.058 94.2111 134.47 94.3535 136.741 94.3535C136.883 94.3535 137.025 94.3535 137.167 94.4959C142.701 94.6383 148.378 94.6383 153.912 94.4959C155.473 95.0656 155.473 97.0592 154.48 97.7713Z" fill="url(#paint59_linear_232_3905)" fill-opacity="0.74"/>
<path opacity="0.5" d="M300.082 127.961C300.224 128.673 300.366 129.385 300.366 130.24C300.366 129.955 300.366 129.67 300.224 129.385C300.224 128.816 300.224 128.389 300.082 127.961ZM299.798 125.398C299.798 125.683 299.94 125.968 299.94 126.252C299.798 125.54 299.656 124.828 299.656 124.259C299.656 124.544 299.656 124.971 299.798 125.398ZM298.805 120.271C298.947 120.841 299.089 121.411 299.089 121.98C298.947 121.268 298.805 120.556 298.663 119.844C298.805 119.844 298.805 120.129 298.805 120.271ZM298.237 117.708C298.379 118.42 298.521 119.132 298.663 119.844C298.663 119.559 298.521 119.417 298.521 119.132C298.521 118.563 298.379 118.135 298.237 117.708ZM297.67 115.145C297.811 115.999 298.095 116.854 298.237 117.708C298.095 117.281 298.095 116.854 297.953 116.426C297.953 115.999 297.811 115.572 297.67 115.145ZM297.102 112.581C297.386 113.436 297.528 114.29 297.67 115.145C297.528 114.718 297.528 114.29 297.386 113.863C297.386 113.436 297.244 113.009 297.102 112.581ZM284.614 87.0908C281.775 88.3725 279.079 89.7965 276.383 90.7934C260.489 96.632 244.027 101.331 228.275 107.882C218.767 111.869 208.975 115.145 199.041 118.278C198.899 118.278 198.758 118.42 198.474 118.42C198.332 118.42 198.19 118.42 198.19 118.563C197.906 118.563 197.764 118.705 197.48 118.705C197.197 118.847 196.771 118.847 196.487 118.99C195.636 119.275 194.784 119.559 193.933 119.702C189.675 120.983 185.418 122.407 181.161 123.689C180.593 123.832 180.167 123.974 179.6 124.116C179.458 124.116 179.458 124.116 179.316 124.116C179.032 124.259 178.748 124.259 178.606 124.401C178.18 124.544 177.897 124.686 177.471 124.686C170.233 126.822 162.996 128.958 155.617 130.382C149.656 131.379 143.696 132.518 137.736 132.518C134.614 132.661 131.492 132.803 128.37 132.946C127.518 132.946 126.809 133.515 126.667 134.227C113.611 135.366 99.7037 133.658 86.506 133.373C81.1134 133.373 75.7208 132.803 70.4701 131.949C59.401 130.097 48.7577 126.537 38.2563 122.407C35.1342 121.411 31.8703 119.987 28.4644 119.559C28.0387 119.559 27.6129 119.702 27.1872 119.987C26.3357 120.699 26.6196 121.838 27.3291 122.55C33.1475 127.819 40.6688 130.809 47.6224 134.085C56.9885 138.499 66.3546 142.772 76.0046 146.474C97.0074 153.879 119.287 156.585 140.858 161.712C157.32 165.556 174.065 168.262 190.669 171.11C215.077 175.382 239.77 178.943 264.604 179.512C274.68 179.797 284.614 179.227 294.547 178.515C296.534 168.832 297.528 158.863 297.528 148.753C297.528 145.62 297.386 142.344 297.244 139.211C296.534 120.699 291.993 103.183 284.614 87.0908ZM174.491 129.243C175.342 128.958 176.194 128.673 177.045 128.389C177.329 128.246 177.613 128.246 177.897 128.104C178.322 127.961 178.606 127.819 179.032 127.819C179.316 127.677 179.6 127.677 179.883 127.534L180.735 127.249C184.425 126.11 188.256 124.828 191.946 123.547C192.088 123.547 192.088 123.547 192.23 123.404C194.216 122.692 196.203 122.123 198.19 121.411C198.616 121.268 199.183 121.126 199.609 120.983C199.893 120.841 200.319 120.699 200.602 120.699C200.602 120.699 200.602 120.699 200.744 120.699C205.711 118.99 210.678 117.138 215.645 115.287C231.539 108.594 247.575 102.328 263.895 96.7744C248.71 104.749 234.235 114.006 218.199 120.414C213.374 122.265 208.549 123.974 203.583 125.398C203.299 125.54 202.873 125.54 202.589 125.683C202.447 125.683 202.305 125.825 202.022 125.825C201.312 125.968 200.602 126.252 199.751 126.395C199.609 126.395 199.467 126.537 199.325 126.537C198.048 126.822 196.771 127.107 195.352 127.392C193.791 127.677 192.372 128.104 190.811 128.389C190.101 128.531 189.25 128.673 188.54 128.958C186.269 129.385 183.999 129.955 181.728 130.382C181.586 130.382 181.444 130.525 181.303 130.525C180.735 130.667 180.025 130.809 179.458 130.809C179.316 130.809 179.174 130.809 179.032 130.809C178.748 130.809 178.464 130.952 178.039 130.952C173.497 131.806 168.814 132.376 164.131 132.661C167.395 131.379 171.085 130.382 174.491 129.243ZM195.21 127.249C193.649 127.534 192.23 127.961 190.669 128.246C189.959 128.389 189.108 128.531 188.398 128.816C186.128 129.243 183.857 129.813 181.586 130.24C181.728 130.382 181.728 130.525 181.87 130.809C182.154 131.094 182.296 131.521 182.58 131.806C182.722 131.949 182.864 132.091 183.147 132.233C183.289 132.376 183.431 132.518 183.573 132.518C183.573 132.518 183.573 132.518 183.715 132.518C183.857 132.661 183.999 132.803 184.141 132.803H184.283H184.425C184.566 132.803 184.566 132.946 184.708 132.946C184.85 132.946 184.992 133.088 185.134 133.23L185.56 133.658C185.56 133.658 185.702 133.8 185.844 133.8C185.986 133.942 186.128 134.085 186.269 134.085C186.411 134.085 186.411 134.227 186.553 134.227C186.695 134.37 186.837 134.512 187.121 134.512C187.547 134.654 187.972 134.939 188.398 134.939C188.54 134.939 188.824 135.082 188.966 135.082C189.108 135.082 189.391 135.082 189.533 135.082C189.675 135.082 189.817 135.082 190.101 135.082C190.669 135.082 191.094 134.939 191.662 134.654C191.662 134.654 191.662 134.654 191.804 134.654C192.088 134.654 192.23 134.654 192.513 134.512C193.223 134.37 193.791 134.085 194.5 133.8C194.926 133.658 195.21 133.373 195.494 133.088C195.777 132.803 196.061 132.518 196.345 132.233C196.771 131.806 197.055 131.379 197.338 130.809C197.48 130.667 197.622 130.525 197.764 130.24C198.048 129.813 198.19 129.528 198.474 129.101C198.616 128.673 198.758 128.246 198.899 127.819C198.899 127.677 198.899 127.534 199.041 127.392C199.183 126.964 199.183 126.395 199.183 125.968C197.906 126.68 196.629 126.964 195.21 127.249Z" fill="url(#paint60_linear_232_3905)" fill-opacity="0.74"/>
<path opacity="0.5" d="M6.32617 193.753C6.60999 194.75 6.89382 195.747 7.31955 196.743C7.17764 196.316 7.03572 196.031 6.89381 195.604C6.89381 195.462 6.75191 195.177 6.75191 195.035C6.46809 194.607 6.32617 194.18 6.32617 193.753Z" fill="url(#paint61_linear_232_3905)" fill-opacity="0.74"/>
<path opacity="0.5" d="M7.60352 198.025C7.88734 198.737 8.02925 199.449 8.31308 200.161C8.17116 199.877 8.02926 199.592 8.02926 199.165C7.88734 198.88 7.74543 198.453 7.60352 198.025Z" fill="url(#paint62_linear_232_3905)" fill-opacity="0.74"/>
<path opacity="0.5" d="M9.02148 202.012C9.3053 202.866 9.58912 203.578 9.87294 204.433C9.73103 204.148 9.58913 203.721 9.44722 203.436C9.30531 202.866 9.16339 202.439 9.02148 202.012Z" fill="url(#paint63_linear_232_3905)" fill-opacity="0.74"/>
<path opacity="0.5" d="M10.4414 205.572C10.8671 206.569 11.151 207.424 11.5767 208.42C11.4348 208.136 11.2929 207.851 11.151 207.424C11.009 206.996 10.8671 206.712 10.7252 206.284C10.5833 205.999 10.4414 205.857 10.4414 205.572Z" fill="url(#paint64_linear_232_3905)" fill-opacity="0.74"/>
<path opacity="0.5" d="M13.5625 212.835C13.9882 213.975 14.5559 214.972 15.1235 216.111C14.8397 215.399 14.414 214.687 14.1301 213.975C13.8463 213.547 13.7044 213.12 13.5625 212.835Z" fill="url(#paint65_linear_232_3905)" fill-opacity="0.74"/>
<path opacity="0.5" d="M15.123 216.11C15.5488 217.107 16.1164 217.962 16.5422 218.816C16.4003 218.531 16.2583 218.389 16.1164 218.104C15.8326 217.534 15.4069 216.822 15.123 216.11Z" fill="url(#paint66_linear_232_3905)" fill-opacity="0.74"/>
<path opacity="0.5" d="M17.1113 219.956C17.5371 220.81 17.9628 221.522 18.3885 222.376C18.1047 221.949 17.9628 221.522 17.679 221.237C17.537 220.81 17.2532 220.383 17.1113 219.956Z" fill="url(#paint67_linear_232_3905)" fill-opacity="0.74"/>
<path opacity="0.5" d="M23.0703 230.351C23.7799 231.348 24.4894 232.487 25.0571 233.484C24.9152 233.342 24.9151 233.199 24.7732 233.199C24.4894 232.772 24.2056 232.345 23.9218 231.918C23.7799 231.348 23.496 230.778 23.0703 230.351Z" fill="url(#paint68_linear_232_3905)" fill-opacity="0.74"/>
<path opacity="0.5" d="M25.1992 233.484C25.625 234.054 25.9088 234.624 26.3345 235.193C26.0507 234.766 25.625 234.196 25.3411 233.769C25.1992 233.627 25.1992 233.627 25.1992 233.484Z" fill="url(#paint69_linear_232_3905)" fill-opacity="0.74"/>
<path opacity="0.5" d="M28.6055 238.469C29.0312 239.038 29.4569 239.608 29.7408 240.035C29.4569 239.466 29.0312 239.038 28.6055 238.469C28.6055 238.469 28.7474 238.469 28.6055 238.469Z" fill="url(#paint70_linear_232_3905)" fill-opacity="0.74"/>
<path opacity="0.5" d="M213.799 251.854C205.994 254.132 197.763 254.702 190.1 256.553C172.361 260.398 154.48 263.674 136.457 265.667C134.47 265.952 132.626 266.095 130.639 266.237C118.576 267.376 106.656 267.946 94.5935 267.946C82.2473 267.519 70.0429 266.664 57.8386 264.955C50.0335 258.689 42.9379 251.712 36.5519 244.164C23.638 228.642 13.8462 210.556 8.02782 190.619C8.59546 189.765 9.1631 188.768 9.73074 187.914C8.73737 187.344 7.74399 186.632 6.75061 186.062C6.6087 185.635 6.4668 185.208 6.4668 184.781C7.744 185.635 9.02119 186.347 10.4403 187.059C12.1432 184.923 13.8462 181.648 16.8263 181.505C18.2454 181.505 19.0969 183.499 17.9616 184.353C15.9748 185.066 14.6976 186.917 13.4204 188.768C23.3542 195.034 33.5718 201.015 43.9313 206.711C44.357 206.996 44.7828 207.138 45.2085 207.423C45.6342 207.708 46.2019 207.993 46.6276 208.278C46.7695 208.42 47.0533 208.563 47.1952 208.563C50.4592 210.271 53.8651 212.123 57.129 213.689C57.6967 213.974 58.2643 214.259 58.8319 214.544C58.9739 214.686 59.2577 214.686 59.3996 214.828C63.0893 216.822 66.779 218.673 70.6106 220.525C70.8944 220.667 71.0363 220.809 71.3201 220.809C71.6039 220.952 71.8878 221.094 72.1716 221.237C72.3135 221.237 72.3135 221.379 72.4554 221.379C78.9833 224.512 85.5112 227.502 92.3229 229.781C106.656 234.623 121.415 238.468 136.457 241.316C145.823 243.025 155.331 244.449 164.839 245.446C180.308 246.585 195.918 246.727 211.528 247.439C213.089 247.582 215.076 247.012 216.353 248.009C218.056 249.718 215.502 251.427 213.799 251.854Z" fill="url(#paint71_linear_232_3905)" fill-opacity="0.74"/>
<defs>
<linearGradient id="paint0_linear_232_3905" x1="182.224" y1="62.1699" x2="182.224" y2="149.708" gradientUnits="userSpaceOnUse">
<stop stop-color="#687BF7" stop-opacity="0"/>
<stop offset="1" stop-color="#8050EF"/>
</linearGradient>
<linearGradient id="paint1_linear_232_3905" x1="299.018" y1="119.702" x2="299.018" y2="121.838" gradientUnits="userSpaceOnUse">
<stop stop-color="#687BF7" stop-opacity="0"/>
<stop offset="1" stop-color="#8050EF"/>
</linearGradient>
<linearGradient id="paint2_linear_232_3905" x1="299.656" y1="124.258" x2="299.656" y2="126.252" gradientUnits="userSpaceOnUse">
<stop stop-color="#687BF7" stop-opacity="0"/>
<stop offset="1" stop-color="#8050EF"/>
</linearGradient>
<linearGradient id="paint3_linear_232_3905" x1="163.704" y1="11.3311" x2="163.704" y2="74.8441" gradientUnits="userSpaceOnUse">
<stop stop-color="#687BF7" stop-opacity="0"/>
<stop offset="1" stop-color="#8050EF"/>
</linearGradient>
<linearGradient id="paint4_linear_232_3905" x1="0.578107" y1="164.702" x2="0.578107" y2="167.978" gradientUnits="userSpaceOnUse">
<stop stop-color="#687BF7" stop-opacity="0"/>
<stop offset="1" stop-color="#8050EF"/>
</linearGradient>
<linearGradient id="paint5_linear_232_3905" x1="3.55728" y1="183.214" x2="3.55728" y2="183.642" gradientUnits="userSpaceOnUse">
<stop stop-color="#687BF7" stop-opacity="0"/>
<stop offset="1" stop-color="#8050EF"/>
</linearGradient>
<linearGradient id="paint6_linear_232_3905" x1="106.018" y1="149.465" x2="106.018" y2="246.892" gradientUnits="userSpaceOnUse">
<stop stop-color="#687BF7" stop-opacity="0"/>
<stop offset="1" stop-color="#8050EF"/>
</linearGradient>
<linearGradient id="paint7_linear_232_3905" x1="116.874" y1="295.146" x2="116.874" y2="295.289" gradientUnits="userSpaceOnUse">
<stop stop-color="#687BF7" stop-opacity="0"/>
<stop offset="1" stop-color="#8050EF"/>
</linearGradient>
<linearGradient id="paint8_linear_232_3905" x1="129.575" y1="298.849" x2="129.575" y2="299.703" gradientUnits="userSpaceOnUse">
<stop stop-color="#687BF7" stop-opacity="0"/>
<stop offset="1" stop-color="#8050EF"/>
</linearGradient>
<linearGradient id="paint9_linear_232_3905" x1="133.903" y1="299.56" x2="133.903" y2="299.845" gradientUnits="userSpaceOnUse">
<stop stop-color="#687BF7" stop-opacity="0"/>
<stop offset="1" stop-color="#8050EF"/>
</linearGradient>
<linearGradient id="paint10_linear_232_3905" x1="136.672" y1="299.988" x2="136.672" y2="300.13" gradientUnits="userSpaceOnUse">
<stop stop-color="#687BF7" stop-opacity="0"/>
<stop offset="1" stop-color="#8050EF"/>
</linearGradient>
<linearGradient id="paint11_linear_232_3905" x1="161.363" y1="300.273" x2="161.363" y2="300.415" gradientUnits="userSpaceOnUse">
<stop stop-color="#687BF7" stop-opacity="0"/>
<stop offset="1" stop-color="#8050EF"/>
</linearGradient>
<linearGradient id="paint12_linear_232_3905" x1="174.064" y1="298.563" x2="174.064" y2="299.133" gradientUnits="userSpaceOnUse">
<stop stop-color="#687BF7" stop-opacity="0"/>
<stop offset="1" stop-color="#8050EF"/>
</linearGradient>
<linearGradient id="paint13_linear_232_3905" x1="186.198" y1="296.427" x2="186.198" y2="296.712" gradientUnits="userSpaceOnUse">
<stop stop-color="#687BF7" stop-opacity="0"/>
<stop offset="1" stop-color="#8050EF"/>
</linearGradient>
<linearGradient id="paint14_linear_232_3905" x1="190.241" y1="294.718" x2="190.241" y2="296" gradientUnits="userSpaceOnUse">
<stop stop-color="#687BF7" stop-opacity="0"/>
<stop offset="1" stop-color="#8050EF"/>
</linearGradient>
<linearGradient id="paint15_linear_232_3905" x1="187.332" y1="296" x2="187.332" y2="296.285" gradientUnits="userSpaceOnUse">
<stop stop-color="#687BF7" stop-opacity="0"/>
<stop offset="1" stop-color="#8050EF"/>
</linearGradient>
<linearGradient id="paint16_linear_232_3905" x1="205.284" y1="290.162" x2="205.284" y2="290.589" gradientUnits="userSpaceOnUse">
<stop stop-color="#687BF7" stop-opacity="0"/>
<stop offset="1" stop-color="#8050EF"/>
</linearGradient>
<linearGradient id="paint17_linear_232_3905" x1="181.657" y1="266.237" x2="181.657" y2="297.281" gradientUnits="userSpaceOnUse">
<stop stop-color="#687BF7" stop-opacity="0"/>
<stop offset="1" stop-color="#8050EF"/>
</linearGradient>
<linearGradient id="paint18_linear_232_3905" x1="150.152" y1="0.935547" x2="150.152" y2="300.415" gradientUnits="userSpaceOnUse">
<stop stop-color="#8050EF" stop-opacity="0.22"/>
<stop offset="1" stop-color="#687BF7" stop-opacity="0.08"/>
</linearGradient>
<linearGradient id="paint19_linear_232_3905" x1="150.365" y1="0.223145" x2="150.365" y2="300.415" gradientUnits="userSpaceOnUse">
<stop stop-color="#8050EF" stop-opacity="0.22"/>
<stop offset="1" stop-color="#687BF7" stop-opacity="0.08"/>
</linearGradient>
<linearGradient id="paint20_linear_232_3905" x1="221.939" y1="57.7705" x2="229.852" y2="58.8706" gradientUnits="userSpaceOnUse">
<stop stop-color="#973AF5"/>
<stop offset="1" stop-color="#4CA6FE"/>
</linearGradient>
<linearGradient id="paint21_linear_232_3905" x1="108.051" y1="36.2666" x2="119.129" y2="38.0458" gradientUnits="userSpaceOnUse">
<stop stop-color="#973AF5"/>
<stop offset="1" stop-color="#4CA6FE"/>
</linearGradient>
<linearGradient id="paint22_linear_232_3905" x1="200.299" y1="199.232" x2="209.807" y2="200.657" gradientUnits="userSpaceOnUse">
<stop stop-color="#973AF5"/>
<stop offset="1" stop-color="#4CA6FE"/>
</linearGradient>
<linearGradient id="paint23_linear_232_3905" x1="226.752" y1="125.929" x2="234.064" y2="127.036" gradientUnits="userSpaceOnUse">
<stop stop-color="#973AF5"/>
<stop offset="1" stop-color="#4CA6FE"/>
</linearGradient>
<linearGradient id="paint24_linear_232_3905" x1="129.76" y1="188.99" x2="136.938" y2="189.922" gradientUnits="userSpaceOnUse">
<stop stop-color="#973AF5"/>
<stop offset="1" stop-color="#4CA6FE"/>
</linearGradient>
<linearGradient id="paint25_linear_232_3905" x1="21.7539" y1="113.35" x2="28.1251" y2="114.132" gradientUnits="userSpaceOnUse">
<stop stop-color="#973AF5"/>
<stop offset="1" stop-color="#4CA6FE"/>
</linearGradient>
<linearGradient id="paint26_linear_232_3905" x1="31.9883" y1="73.8491" x2="40.1654" y2="75.1092" gradientUnits="userSpaceOnUse">
<stop stop-color="#973AF5"/>
<stop offset="1" stop-color="#4CA6FE"/>
</linearGradient>
<linearGradient id="paint27_linear_232_3905" x1="64.959" y1="201.007" x2="73.4318" y2="201.485" gradientUnits="userSpaceOnUse">
<stop stop-color="#973AF5"/>
<stop offset="1" stop-color="#4CA6FE"/>
</linearGradient>
<linearGradient id="paint28_linear_232_3905" x1="43.8945" y1="200.383" x2="62.7639" y2="203.205" gradientUnits="userSpaceOnUse">
<stop stop-color="#973AF5"/>
<stop offset="1" stop-color="#4CA6FE"/>
</linearGradient>
<linearGradient id="paint29_linear_232_3905" x1="177.121" y1="114.158" x2="207.481" y2="118.674" gradientUnits="userSpaceOnUse">
<stop stop-color="#973AF5"/>
<stop offset="1" stop-color="#4CA6FE"/>
</linearGradient>
<linearGradient id="paint30_linear_232_3905" x1="238.242" y1="214.375" x2="267.88" y2="218.803" gradientUnits="userSpaceOnUse">
<stop stop-color="#973AF5"/>
<stop offset="1" stop-color="#4CA6FE"/>
</linearGradient>
<linearGradient id="paint31_linear_232_3905" x1="256.514" y1="227.076" x2="256.995" y2="227.087" gradientUnits="userSpaceOnUse">
<stop stop-color="#973AF5"/>
<stop offset="1" stop-color="#4CA6FE"/>
</linearGradient>
<linearGradient id="paint32_linear_232_3905" x1="251.121" y1="223.801" x2="251.867" y2="224.203" gradientUnits="userSpaceOnUse">
<stop stop-color="#973AF5"/>
<stop offset="1" stop-color="#4CA6FE"/>
</linearGradient>
<linearGradient id="paint33_linear_232_3905" x1="179.73" y1="115.26" x2="204.448" y2="118.439" gradientUnits="userSpaceOnUse">
<stop stop-color="#973AF5"/>
<stop offset="1" stop-color="#4CA6FE"/>
</linearGradient>
<linearGradient id="paint34_linear_232_3905" x1="184.141" y1="132.803" x2="186.632" y2="133.235" gradientUnits="userSpaceOnUse">
<stop stop-color="#973AF5"/>
<stop offset="1" stop-color="#4CA6FE"/>
</linearGradient>
<linearGradient id="paint35_linear_232_3905" x1="183.572" y1="132.376" x2="193.856" y2="134.559" gradientUnits="userSpaceOnUse">
<stop stop-color="#973AF5"/>
<stop offset="1" stop-color="#4CA6FE"/>
</linearGradient>
<linearGradient id="paint36_linear_232_3905" x1="193.648" y1="117.281" x2="198.801" y2="118.296" gradientUnits="userSpaceOnUse">
<stop stop-color="#973AF5"/>
<stop offset="1" stop-color="#4CA6FE"/>
</linearGradient>
<linearGradient id="paint37_linear_232_3905" x1="179.035" y1="116.388" x2="203.66" y2="119.5" gradientUnits="userSpaceOnUse">
<stop stop-color="#973AF5"/>
<stop offset="1" stop-color="#4CA6FE"/>
</linearGradient>
<linearGradient id="paint38_linear_232_3905" x1="191.52" y1="123.262" x2="192.434" y2="123.471" gradientUnits="userSpaceOnUse">
<stop stop-color="#973AF5"/>
<stop offset="1" stop-color="#4CA6FE"/>
</linearGradient>
<linearGradient id="paint39_linear_232_3905" x1="179.795" y1="123.832" x2="201.622" y2="127.861" gradientUnits="userSpaceOnUse">
<stop stop-color="#973AF5"/>
<stop offset="1" stop-color="#4CA6FE"/>
</linearGradient>
<linearGradient id="paint40_linear_232_3905" x1="184.141" y1="132.803" x2="185.531" y2="133.074" gradientUnits="userSpaceOnUse">
<stop stop-color="#973AF5"/>
<stop offset="1" stop-color="#4CA6FE"/>
</linearGradient>
<linearGradient id="paint41_linear_232_3905" x1="187.971" y1="127.249" x2="191.878" y2="128.264" gradientUnits="userSpaceOnUse">
<stop stop-color="#973AF5"/>
<stop offset="1" stop-color="#4CA6FE"/>
</linearGradient>
<linearGradient id="paint42_linear_232_3905" x1="189.107" y1="124.687" x2="191.009" y2="124.898" gradientUnits="userSpaceOnUse">
<stop stop-color="#973AF5"/>
<stop offset="1" stop-color="#4CA6FE"/>
</linearGradient>
<linearGradient id="paint43_linear_232_3905" x1="191.52" y1="123.262" x2="192.434" y2="123.471" gradientUnits="userSpaceOnUse">
<stop stop-color="#973AF5"/>
<stop offset="1" stop-color="#4CA6FE"/>
</linearGradient>
<linearGradient id="paint44_linear_232_3905" x1="51.3105" y1="201.918" x2="75.8926" y2="204.584" gradientUnits="userSpaceOnUse">
<stop stop-color="#973AF5"/>
<stop offset="1" stop-color="#4CA6FE"/>
</linearGradient>
<linearGradient id="paint45_linear_232_3905" x1="56.8457" y1="212.693" x2="59.7035" y2="212.984" gradientUnits="userSpaceOnUse">
<stop stop-color="#973AF5"/>
<stop offset="1" stop-color="#4CA6FE"/>
</linearGradient>
<linearGradient id="paint46_linear_232_3905" x1="58.9746" y1="213.547" x2="59.1316" y2="213.568" gradientUnits="userSpaceOnUse">
<stop stop-color="#973AF5"/>
<stop offset="1" stop-color="#4CA6FE"/>
</linearGradient>
<linearGradient id="paint47_linear_232_3905" x1="67.6055" y1="204.802" x2="72.9242" y2="204.961" gradientUnits="userSpaceOnUse">
<stop stop-color="#973AF5"/>
<stop offset="1" stop-color="#4CA6FE"/>
</linearGradient>
<linearGradient id="paint48_linear_232_3905" x1="69.334" y1="208.118" x2="73.4679" y2="208.321" gradientUnits="userSpaceOnUse">
<stop stop-color="#973AF5"/>
<stop offset="1" stop-color="#4CA6FE"/>
</linearGradient>
<linearGradient id="paint49_linear_232_3905" x1="52.5879" y1="199.784" x2="66.9047" y2="205.504" gradientUnits="userSpaceOnUse">
<stop stop-color="#973AF5"/>
<stop offset="1" stop-color="#4CA6FE"/>
</linearGradient>
<linearGradient id="paint50_linear_232_3905" x1="46.7695" y1="221.949" x2="60.8075" y2="226.055" gradientUnits="userSpaceOnUse">
<stop stop-color="#973AF5"/>
<stop offset="1" stop-color="#4CA6FE"/>
</linearGradient>
<linearGradient id="paint51_linear_232_3905" x1="43.6953" y1="198.723" x2="76.7736" y2="204.169" gradientUnits="userSpaceOnUse">
<stop stop-color="#973AF5"/>
<stop offset="1" stop-color="#4CA6FE"/>
</linearGradient>
<linearGradient id="paint52_linear_232_3905" x1="56.8457" y1="212.693" x2="59.708" y2="212.961" gradientUnits="userSpaceOnUse">
<stop stop-color="#973AF5"/>
<stop offset="1" stop-color="#4CA6FE"/>
</linearGradient>
<linearGradient id="paint53_linear_232_3905" x1="58.9746" y1="213.547" x2="59.1316" y2="213.568" gradientUnits="userSpaceOnUse">
<stop stop-color="#973AF5"/>
<stop offset="1" stop-color="#4CA6FE"/>
</linearGradient>
<linearGradient id="paint54_linear_232_3905" x1="130.152" y1="262.925" x2="136.958" y2="263.73" gradientUnits="userSpaceOnUse">
<stop stop-color="#973AF5"/>
<stop offset="1" stop-color="#4CA6FE"/>
</linearGradient>
<linearGradient id="paint55_linear_232_3905" x1="255.951" y1="108.154" x2="263.284" y2="109.402" gradientUnits="userSpaceOnUse">
<stop stop-color="#973AF5"/>
<stop offset="1" stop-color="#4CA6FE"/>
</linearGradient>
<linearGradient id="paint56_linear_232_3905" x1="138.135" y1="99.2129" x2="143.888" y2="99.7673" gradientUnits="userSpaceOnUse">
<stop stop-color="#973AF5"/>
<stop offset="1" stop-color="#4CA6FE"/>
</linearGradient>
<linearGradient id="paint57_linear_232_3905" x1="177.432" y1="50.5225" x2="185.001" y2="51.9353" gradientUnits="userSpaceOnUse">
<stop stop-color="#973AF5"/>
<stop offset="1" stop-color="#4CA6FE"/>
</linearGradient>
<linearGradient id="paint58_linear_232_3905" x1="108.856" y1="0.223633" x2="108.856" y2="32.2706" gradientUnits="userSpaceOnUse">
<stop stop-color="#687BF7" stop-opacity="0"/>
<stop offset="1" stop-color="#8050EF"/>
</linearGradient>
<linearGradient id="paint59_linear_232_3905" x1="82.8739" y1="58.04" x2="82.8739" y2="107.039" gradientUnits="userSpaceOnUse">
<stop stop-color="#687BF7" stop-opacity="0"/>
<stop offset="1" stop-color="#8050EF"/>
</linearGradient>
<linearGradient id="paint60_linear_232_3905" x1="163.514" y1="87.0908" x2="163.514" y2="179.587" gradientUnits="userSpaceOnUse">
<stop stop-color="#687BF7" stop-opacity="0"/>
<stop offset="1" stop-color="#8050EF"/>
</linearGradient>
<linearGradient id="paint61_linear_232_3905" x1="6.82286" y1="193.753" x2="6.82286" y2="196.743" gradientUnits="userSpaceOnUse">
<stop stop-color="#687BF7" stop-opacity="0"/>
<stop offset="1" stop-color="#8050EF"/>
</linearGradient>
<linearGradient id="paint62_linear_232_3905" x1="7.9583" y1="198.025" x2="7.9583" y2="200.161" gradientUnits="userSpaceOnUse">
<stop stop-color="#687BF7" stop-opacity="0"/>
<stop offset="1" stop-color="#8050EF"/>
</linearGradient>
<linearGradient id="paint63_linear_232_3905" x1="9.44721" y1="202.012" x2="9.44721" y2="204.433" gradientUnits="userSpaceOnUse">
<stop stop-color="#687BF7" stop-opacity="0"/>
<stop offset="1" stop-color="#8050EF"/>
</linearGradient>
<linearGradient id="paint64_linear_232_3905" x1="11.0091" y1="205.572" x2="11.0091" y2="208.42" gradientUnits="userSpaceOnUse">
<stop stop-color="#687BF7" stop-opacity="0"/>
<stop offset="1" stop-color="#8050EF"/>
</linearGradient>
<linearGradient id="paint65_linear_232_3905" x1="14.343" y1="212.835" x2="14.343" y2="216.111" gradientUnits="userSpaceOnUse">
<stop stop-color="#687BF7" stop-opacity="0"/>
<stop offset="1" stop-color="#8050EF"/>
</linearGradient>
<linearGradient id="paint66_linear_232_3905" x1="15.8326" y1="216.11" x2="15.8326" y2="218.816" gradientUnits="userSpaceOnUse">
<stop stop-color="#687BF7" stop-opacity="0"/>
<stop offset="1" stop-color="#8050EF"/>
</linearGradient>
<linearGradient id="paint67_linear_232_3905" x1="17.7499" y1="219.956" x2="17.7499" y2="222.376" gradientUnits="userSpaceOnUse">
<stop stop-color="#687BF7" stop-opacity="0"/>
<stop offset="1" stop-color="#8050EF"/>
</linearGradient>
<linearGradient id="paint68_linear_232_3905" x1="24.0637" y1="230.351" x2="24.0637" y2="233.484" gradientUnits="userSpaceOnUse">
<stop stop-color="#687BF7" stop-opacity="0"/>
<stop offset="1" stop-color="#8050EF"/>
</linearGradient>
<linearGradient id="paint69_linear_232_3905" x1="25.7669" y1="233.484" x2="25.7669" y2="235.193" gradientUnits="userSpaceOnUse">
<stop stop-color="#687BF7" stop-opacity="0"/>
<stop offset="1" stop-color="#8050EF"/>
</linearGradient>
<linearGradient id="paint70_linear_232_3905" x1="29.1731" y1="238.469" x2="29.1731" y2="240.035" gradientUnits="userSpaceOnUse">
<stop stop-color="#687BF7" stop-opacity="0"/>
<stop offset="1" stop-color="#8050EF"/>
</linearGradient>
<linearGradient id="paint71_linear_232_3905" x1="111.691" y1="181.505" x2="111.691" y2="267.946" gradientUnits="userSpaceOnUse">
<stop stop-color="#687BF7" stop-opacity="0"/>
<stop offset="1" stop-color="#8050EF"/>
</linearGradient>
</defs>
</svg>
