<?xml version="1.0" encoding="utf-8"?>
<!-- Generator: Adobe Illustrator 22.1.0, SVG Export Plug-In . SVG Version: 6.00 Build 0)  -->
<svg version="1.1" id="Layer_1" xmlns="http://www.w3.org/2000/svg" xmlns:xlink="http://www.w3.org/1999/xlink" x="0px" y="0px"
	 viewBox="0 0 288 288" style="enable-background:new 0 0 288 288;" xml:space="preserve">
<style type="text/css">
	.st0{fill:#BB9645;}
	.st1{fill:#0A0B0B;}
	.st2{fill:#FFFFFF;}
	.st3{fill:#231F20;}
	.st4{fill:url(#SVGID_1_);}
	.st5{fill:url(#SVGID_2_);}
	.st6{fill:url(#SVGID_3_);}
	.st7{fill:url(#SVGID_4_);}
	.st8{fill:url(#SVGID_5_);}
	.st9{fill:url(#SVGID_6_);}
	.st10{fill:url(#SVGID_7_);}
	.st11{fill:url(#SVGID_8_);}
	.st12{fill:url(#SVGID_9_);}
	.st13{fill:url(#SVGID_10_);}
	.st14{fill:url(#SVGID_11_);}
	.st15{fill:#1B1B1B;}
	.st16{fill:url(#SVGID_12_);}
	.st17{fill:url(#SVGID_13_);}
	.st18{fill:url(#SVGID_14_);}
	.st19{fill:url(#SVGID_15_);}
	.st20{fill:url(#SVGID_16_);}
	.st21{fill:url(#SVGID_17_);}
	.st22{fill:url(#SVGID_18_);}
	.st23{fill:url(#SVGID_19_);}
	.st24{fill:url(#SVGID_20_);}
	.st25{fill:url(#SVGID_21_);}
	.st26{fill:url(#SVGID_22_);}
</style>
<linearGradient id="SVGID_1_" gradientUnits="userSpaceOnUse" x1="11.3381" y1="144" x2="276.6619" y2="144">
	<stop  offset="0" style="stop-color:#B38C30"/>
	<stop  offset="1" style="stop-color:#F2DE98"/>
</linearGradient>
<path class="st4" d="M144,11.3C70.7,11.3,11.3,70.7,11.3,144c0,73.3,59.4,132.7,132.7,132.7S276.7,217.3,276.7,144
	C276.7,70.7,217.3,11.3,144,11.3z M84.1,109.7c0-16.4,13.3-29.6,29.8-29.6h68c8.1,0,15.5,3.3,20.8,8.5l-34.8,17.5h-47.9
	c-5.4,0-9.7,3.9-9.7,8.6v21.3l-26.1,13.6V109.7z M211.4,154c0,16.4-13.3,29.6-29.6,29.6h-71.6v25.3c0,4.3-3.2,7.8-7,8.7l-8.9,0.2
	H84.1v-9v-12.7v-22.3l34.1-17.8h57.3c5.4,0,9.9-3.9,9.9-8.7v-26l26-13.1c0,0.5,0,1,0,1.5V154z"/>
</svg>
