<svg width="60" height="60" viewBox="0 0 60 60" fill="none" xmlns="http://www.w3.org/2000/svg">
<g clip-path="url(#clip0_38_1105)">
<path d="M59.0572 37.3011C55.0505 53.3727 38.7726 63.1535 22.6991 59.1458C6.63238 55.1391 -3.14847 38.8601 0.860004 22.7899C4.86496 6.71652 21.1429 -3.06507 37.2114 0.941648C53.2837 4.94836 63.064 21.2291 59.0568 37.3014L59.0571 37.3011H59.0572Z" fill="#F7931A"/>
<path d="M43.2288 25.7258C43.8259 21.7335 40.7864 19.5875 36.6301 18.1558L37.9785 12.7479L34.6865 11.9276L33.3739 17.1932C32.5085 16.9773 31.6197 16.7739 30.7364 16.5723L32.0584 11.2719L28.7685 10.4517L27.4194 15.8579C26.7032 15.6948 25.9998 15.5337 25.3174 15.3639L25.3212 15.3469L20.7814 14.2132L19.9057 17.7293C19.9057 17.7293 22.3481 18.2891 22.2966 18.3236C23.6297 18.6563 23.8708 19.5388 23.8308 20.2382L22.2949 26.3992C22.3867 26.4225 22.5058 26.4562 22.6371 26.509C22.5273 26.4817 22.4104 26.452 22.2892 26.4229L20.1364 35.0536C19.9735 35.4586 19.56 36.0664 18.6279 35.8356C18.6609 35.8834 16.2352 35.2385 16.2352 35.2385L14.6008 39.0068L18.8848 40.0747C19.6818 40.2746 20.4628 40.4837 21.2319 40.6803L19.8697 46.1503L23.1578 46.9706L24.5069 41.5587C25.4052 41.8026 26.277 42.0275 27.1304 42.2395L25.7859 47.626L29.078 48.4462L30.4401 42.9865C36.0537 44.0489 40.2747 43.6206 42.0513 38.5431C43.4829 34.4551 41.9801 32.0972 39.0268 30.5596C41.1778 30.0635 42.798 28.6488 43.23 25.7263L43.229 25.7255L43.2288 25.7258ZM35.7074 36.2729C34.69 40.3608 27.8071 38.151 25.5756 37.5969L27.3833 30.35C29.6147 30.9071 36.7706 32.0095 35.7075 36.2729H35.7074ZM36.7255 25.6666C35.7974 29.385 30.0687 27.4959 28.2104 27.0327L29.8493 20.4602C31.7077 20.9235 37.6922 21.788 36.7258 25.6666H36.7255Z" fill="white"/>
</g>
<defs>
<clipPath id="clip0_38_1105">
<rect width="60" height="60" fill="white"/>
</clipPath>
</defs>
</svg>
