<svg width="60" height="60" viewBox="0 0 60 60" fill="none" xmlns="http://www.w3.org/2000/svg">
<g clip-path="url(#clip0_58_1431)">
<path d="M4.28617e-05 29.9716C-0.0133972 37.9281 3.13442 45.564 8.75101 51.1996C14.3676 56.8352 21.9929 60.0088 29.9494 60.0222C37.9059 60.0357 45.5418 56.8879 51.1774 51.2713C56.813 45.6547 59.9866 38.0294 60 30.0729V29.8459C59.999 27.5382 59.7269 25.2387 59.1892 22.9945C58.97 22.1887 58.4465 21.4994 57.729 21.0719C57.0115 20.6444 56.1561 20.5121 55.343 20.7029C54.5299 20.8937 53.8227 21.3926 53.3702 22.0946C52.9178 22.7966 52.7555 23.6469 52.9176 24.4662V24.4662C54.1306 29.4651 53.6773 34.7235 51.6266 39.4411C49.576 44.1588 46.0402 48.0773 41.5575 50.6004C37.0748 53.1235 31.8905 54.1131 26.7935 53.4185C21.6966 52.7239 16.9661 50.3832 13.322 46.7526C9.67784 43.122 7.31955 38.4003 6.606 33.306C5.89245 28.2117 6.8627 23.0237 9.36911 18.5316C11.8755 14.0395 15.7808 10.4892 20.4908 8.42099C25.2007 6.35277 30.4574 5.87988 35.4609 7.07428C36.2903 7.26782 37.1626 7.12476 37.8867 6.67645C38.6109 6.22813 39.1278 5.51109 39.3244 4.68239C39.4242 4.27393 39.4419 3.8497 39.3765 3.43435C39.311 3.01899 39.1637 2.62078 38.943 2.26284C38.7224 1.90489 38.4328 1.59436 38.0911 1.34926C37.7495 1.10416 37.3625 0.929389 36.9527 0.835089C33.1246 -0.0848929 29.1526 -0.241392 25.2639 0.374538C21.3752 0.990468 17.646 2.36675 14.2894 4.42471C10.9329 6.48268 8.01489 9.18197 5.70215 12.3683C3.38941 15.5546 1.72731 19.1655 0.810854 22.9945C0.274488 25.2815 0.0024368 27.6225 4.28617e-05 29.9716V29.9716Z" fill="url(#paint0_linear_58_1431)"/>
<path d="M45.2352 7.89317C45.1825 7.94587 45.1582 7.99857 45.1298 8.0229C44.3911 8.80692 43.9371 9.81627 43.8406 10.8891V11.404C43.8406 11.5337 43.8163 11.6351 43.8163 11.7648C43.7062 12.8981 43.3735 13.9985 42.8371 15.0028C42.3007 16.0072 41.5712 16.8957 40.6905 17.6174C39.8099 18.3391 38.7954 18.8798 37.7052 19.2084C36.615 19.537 35.4707 19.6471 34.3379 19.5324C33.9559 19.499 33.5766 19.4394 33.2028 19.354C32.9826 19.3082 32.7659 19.2473 32.5541 19.1715C31.635 18.9396 30.6882 18.8359 29.7406 18.8634C26.9772 18.9175 24.3294 19.9818 22.2974 21.8553C22.196 21.9567 22.0663 22.0378 21.9609 22.1634C20.8488 23.1908 19.9556 24.4322 19.3349 25.8132C18.7142 27.1941 18.3787 28.6862 18.3486 30.1999C18.3185 31.7136 18.5943 33.2179 19.1596 34.6224C19.7248 36.027 20.5679 37.3029 21.6382 38.3738C22.7085 39.4446 23.984 40.2883 25.3883 40.8543C26.7926 41.4203 28.2966 41.6969 29.8104 41.6676C31.3241 41.6382 32.8164 41.3035 34.1976 40.6835C35.5789 40.0635 36.8207 39.1709 37.8487 38.0594C38.3134 37.5901 38.7366 37.0814 39.1136 36.5391C40.0202 35.235 40.6409 33.754 40.935 32.1932C41.2292 30.6324 41.1901 29.027 40.8203 27.4824C40.7562 27.2787 40.7035 27.0716 40.6622 26.8621C40.6622 26.8337 40.6379 26.8094 40.6379 26.7567C40.3798 25.6465 40.3436 24.4964 40.5312 23.3722C40.7188 22.248 41.1266 21.1719 41.7312 20.2057C42.3357 19.2395 43.1252 18.4023 44.0542 17.742C44.9832 17.0817 46.0334 16.6114 47.1447 16.358C47.5435 16.2602 47.9507 16.2005 48.3609 16.1797L48.5393 16.1513C48.7196 16.131 48.9011 16.1229 49.0825 16.1269H49.1352C50.256 16.0195 51.3048 15.5266 52.1028 14.7324C52.2852 14.5256 52.4676 14.3269 52.6217 14.1121C52.9911 13.5948 53.2541 13.0094 53.3957 12.3898C53.5372 11.7701 53.5543 11.1286 53.4461 10.5022C53.3379 9.8759 53.1064 9.27728 52.7652 8.74104C52.424 8.2048 51.9797 7.74161 51.4582 7.3783C50.5253 6.72039 49.3908 6.41146 48.2532 6.50559C47.1155 6.59971 46.0472 7.09089 45.2352 7.89317V7.89317Z" fill="url(#paint1_linear_58_1431)"/>
</g>
<defs>
<linearGradient id="paint0_linear_58_1431" x1="52.3419" y1="7.94995" x2="7.74734" y2="51.9364" gradientUnits="userSpaceOnUse">
<stop offset="0.09" stop-color="#00EDD3"/>
<stop offset="0.41" stop-color="#1B456E"/>
</linearGradient>
<linearGradient id="paint1_linear_58_1431" x1="52.3541" y1="7.35803" x2="21.1379" y2="38.9797" gradientUnits="userSpaceOnUse">
<stop offset="0.4" stop-color="#00EDD3"/>
<stop offset="0.89" stop-color="#1B456E"/>
</linearGradient>
<clipPath id="clip0_58_1431">
<rect width="60" height="60" fill="white"/>
</clipPath>
</defs>
</svg>
