<svg width="50" height="50" viewBox="0 0 50 50" fill="none" xmlns="http://www.w3.org/2000/svg">
<path d="M10.2849 44.002C12.5969 44.2749 15.1945 45.7554 17.3684 46.0168C19.554 46.2896 20.2303 44.5455 20.2303 44.5455C20.2303 44.5455 22.6898 44.002 25.2755 43.9394C27.8637 43.8677 30.3137 44.4715 30.3137 44.4715C30.3137 44.4715 30.7888 45.5472 31.6757 46.0168C32.5626 46.4955 34.472 46.5603 35.6959 45.2858C36.922 44.002 40.1935 42.3849 42.0305 41.3741C43.8792 40.3609 43.5399 38.8158 42.3792 38.3461C41.2186 37.8766 40.2685 37.1364 40.341 35.716C40.4042 34.3073 39.3161 33.3681 39.3161 33.3681C39.3161 33.3681 40.2685 30.2685 39.3816 27.7008C38.4947 25.1449 35.5696 21.0342 33.3209 17.9438C31.0721 14.8442 32.9814 11.2657 30.9341 6.69242C28.8864 2.11229 23.5768 2.38302 20.7149 4.33522C17.853 6.28756 18.7304 11.1291 18.8685 13.4261C19.0065 15.7115 18.9316 17.3469 18.6672 17.9346C18.4028 18.5314 16.5565 20.6989 15.3303 22.5147C14.1065 24.3398 13.2195 28.108 12.3233 29.6625C11.4457 31.2078 12.0588 32.6165 12.0588 32.6165C12.0588 32.6165 11.4458 32.8246 10.9614 33.8379C10.4863 34.8396 9.5362 35.3183 7.82558 35.6446C6.12666 35.9892 6.12666 37.0718 6.53622 38.2839C6.94801 39.4937 6.53622 40.1715 6.06111 41.7168C5.58614 43.2618 7.96363 43.7313 10.2849 44.002ZM34.3176 36.9535C35.5321 37.4786 37.2777 36.7476 37.8089 36.2225C38.3379 35.6998 38.7123 34.9225 38.7123 34.9225C38.7123 34.9225 39.2434 35.1839 39.1896 36.0142C39.1334 36.8563 39.5546 38.0568 40.3502 38.4732C41.1458 38.8873 42.3603 39.4655 41.7309 40.0438C41.0896 40.6221 37.5422 42.0332 36.4821 43.1342C35.4314 44.2283 34.0508 45.1236 33.2106 44.8599C32.3613 44.5985 31.6194 43.4512 31.9846 41.7718C32.3613 40.0994 32.6796 38.265 32.6257 37.2171C32.5697 36.1693 32.3613 34.7583 32.6257 34.55C32.8902 34.344 33.3114 34.4435 33.3114 34.4435C33.3114 34.4435 33.1006 36.4309 34.3176 36.9535ZM26.4362 8.64475C27.6062 8.64475 28.5493 9.79206 28.5493 11.2031C28.5493 12.2047 28.0742 13.0722 27.3792 13.4886C27.2037 13.4169 27.0212 13.3359 26.8199 13.2525C27.2412 13.0467 27.5336 12.5216 27.5336 11.9155C27.5336 11.1222 27.0399 10.4698 26.4197 10.4698C25.816 10.4698 25.3128 11.122 25.3128 11.9155C25.3128 12.2048 25.3854 12.4939 25.5047 12.7206C25.1396 12.5747 24.8097 12.45 24.5453 12.3505C24.4072 12.0058 24.3252 11.6171 24.3252 11.2032C24.3254 9.79219 25.266 8.64475 26.4362 8.64475ZM23.5391 13.0537C24.1148 13.1532 25.6966 13.831 26.2818 14.0391C26.8668 14.2381 27.5149 14.6081 27.4517 14.9783C27.3792 15.3599 27.0774 15.3599 26.2818 15.8388C25.4955 16.3084 23.7779 17.3563 23.2279 17.4279C22.6803 17.4996 22.3691 17.1942 21.784 16.8218C21.1989 16.4424 20.1016 15.5565 20.3776 15.087C20.3776 15.087 21.2363 14.437 21.6108 14.1039C21.9853 13.7592 22.9541 12.9473 23.5391 13.0537ZM21.0165 9.05195C21.9384 9.05195 22.6896 10.1368 22.6896 11.4738C22.6896 11.7167 22.6615 11.9433 22.6171 12.17C22.3878 12.2417 22.1586 12.3597 21.9384 12.5494C21.8309 12.6397 21.7301 12.7206 21.639 12.8108C21.784 12.5402 21.8402 12.1516 21.7746 11.7444C21.6483 11.0227 21.1545 10.4884 20.6701 10.5601C20.1833 10.6411 19.8931 11.3027 20.0102 12.0337C20.1389 12.7739 20.6232 13.3081 21.1169 13.2272C21.1451 13.218 21.1708 13.2088 21.1989 13.1994C20.9626 13.4261 20.7426 13.6251 20.5132 13.787C19.8464 13.4792 19.3526 12.5587 19.3526 11.4738C19.3527 10.1276 20.0921 9.05195 21.0165 9.05195ZM15.88 26.5535C16.8301 25.0732 17.4431 21.8369 18.3932 20.7613C19.3528 19.688 20.0921 17.4003 19.7552 16.3895C19.7552 16.3895 21.8027 18.8113 23.2279 18.4135C24.6553 18.0063 27.8637 15.6492 28.3386 16.0541C28.8137 16.4611 32.8995 25.3438 33.3113 28.1728C33.7232 30.9995 33.0375 33.1601 33.0375 33.1601C33.0375 33.1601 31.4744 32.753 31.2731 33.6921C31.0718 34.6405 31.0718 38.0757 31.0718 38.0757C31.0718 38.0757 28.9587 40.9672 25.6873 41.4459C22.4158 41.9155 20.7777 41.5731 20.7777 41.5731L18.9407 39.4936C18.9407 39.4936 20.3682 39.2854 20.1669 37.8674C19.9656 36.4587 15.8049 34.5062 15.056 32.7528C14.3075 30.9994 14.9183 28.0362 15.88 26.5535ZM7.79037 37.1618C7.95417 36.4679 10.0742 36.4679 10.8886 35.9798C11.703 35.4918 11.8667 34.09 12.5243 33.7199C13.1724 33.3405 14.3706 34.6869 14.8644 35.4454C15.3488 36.1856 17.2046 39.4219 17.9628 40.2268C18.7303 41.0387 19.4347 42.1143 19.2147 43.0813C19.0065 44.0481 17.8528 44.7537 17.8528 44.7537C16.8209 45.0683 13.9426 43.84 12.6346 43.2986C11.3266 42.7551 7.99884 42.5931 7.57063 42.1143C7.13073 41.6262 7.78119 40.5506 7.95431 39.5304C8.10865 38.4988 7.62435 37.858 7.79037 37.1618Z" fill="white"/>
</svg>
