<svg width="116" height="36" viewBox="0 0 116 36" fill="none" xmlns="http://www.w3.org/2000/svg">
<path d="M47.5848 11.14V28H43.3848V11.14H37.3548V7H53.6148V11.14H47.5848ZM66.9528 20.14C66.9528 21.34 66.7728 22.45 66.4128 23.47C66.0528 24.47 65.5528 25.33 64.9128 26.05C64.2928 26.77 63.5428 27.33 62.6628 27.73C61.7828 28.13 60.8328 28.33 59.8128 28.33C58.7928 28.33 57.8428 28.13 56.9628 27.73C56.1028 27.33 55.3528 26.77 54.7128 26.05C54.0928 25.33 53.6028 24.47 53.2428 23.47C52.8828 22.45 52.7028 21.34 52.7028 20.14C52.7028 18.94 52.8828 17.84 53.2428 16.84C53.6028 15.82 54.0928 14.95 54.7128 14.23C55.3528 13.49 56.1028 12.92 56.9628 12.52C57.8428 12.12 58.7928 11.92 59.8128 11.92C60.8328 11.92 61.7828 12.12 62.6628 12.52C63.5428 12.92 64.2928 13.49 64.9128 14.23C65.5528 14.95 66.0528 15.82 66.4128 16.84C66.7728 17.84 66.9528 18.94 66.9528 20.14ZM62.7528 20.14C62.7528 18.94 62.5128 17.94 62.0328 17.14C61.5528 16.32 60.8128 15.91 59.8128 15.91C58.8128 15.91 58.0728 16.31 57.5928 17.11C57.1328 17.91 56.9028 18.92 56.9028 20.14C56.9028 21.36 57.1328 22.37 57.5928 23.17C58.0728 23.95 58.8128 24.34 59.8128 24.34C60.3128 24.34 60.7428 24.23 61.1028 24.01C61.4828 23.77 61.7928 23.46 62.0328 23.08C62.2728 22.68 62.4528 22.23 62.5728 21.73C62.6928 21.21 62.7528 20.68 62.7528 20.14ZM79.3034 28L76.3034 20.74L74.2934 23.23V28H70.1534V8.2L74.2934 6.13V14.5C74.2934 14.74 74.2934 15.02 74.2934 15.34C74.2934 15.64 74.2834 15.95 74.2634 16.27C74.2634 16.57 74.2534 16.86 74.2334 17.14C74.2334 17.42 74.2334 17.66 74.2334 17.86C74.4534 17.54 74.7134 17.16 75.0134 16.72C75.3334 16.28 75.6334 15.89 75.9134 15.55L78.4634 12.25H83.3534L79.3034 17.26L83.8334 28H79.3034ZM98.7259 20.14C98.7259 20.44 98.7159 20.7 98.6959 20.92C98.6959 21.12 98.6859 21.3 98.6659 21.46H89.2459C89.2859 22 89.4059 22.46 89.6059 22.84C89.8059 23.22 90.0559 23.53 90.3559 23.77C90.6559 23.99 90.9859 24.16 91.3459 24.28C91.7259 24.38 92.1059 24.43 92.4859 24.43C93.0659 24.43 93.5859 24.33 94.0459 24.13C94.5059 23.93 94.8859 23.66 95.1859 23.32L98.1259 25.78C97.4859 26.6 96.6459 27.23 95.6059 27.67C94.5859 28.11 93.5459 28.33 92.4859 28.33C91.3459 28.33 90.3159 28.14 89.3959 27.76C88.4959 27.36 87.7259 26.81 87.0859 26.11C86.4459 25.39 85.9459 24.53 85.5859 23.53C85.2459 22.51 85.0759 21.38 85.0759 20.14C85.0759 18.94 85.2559 17.84 85.6159 16.84C85.9759 15.82 86.4659 14.95 87.0859 14.23C87.7259 13.49 88.4659 12.92 89.3059 12.52C90.1659 12.12 91.0959 11.92 92.0959 11.92C93.1359 11.92 94.0659 12.14 94.8859 12.58C95.7259 13 96.4259 13.59 96.9859 14.35C97.5459 15.09 97.9759 15.96 98.2759 16.96C98.5759 17.96 98.7259 19.02 98.7259 20.14ZM94.7059 18.34C94.6659 17.98 94.5859 17.64 94.4659 17.32C94.3459 16.98 94.1659 16.68 93.9259 16.42C93.7059 16.14 93.4259 15.92 93.0859 15.76C92.7459 15.6 92.3459 15.52 91.8859 15.52C91.1259 15.52 90.5259 15.79 90.0859 16.33C89.6459 16.87 89.3859 17.54 89.3059 18.34H94.7059ZM102.178 28V8.2L106.318 6.13V28H102.178Z" fill="#13182A"/>
<ellipse rx="13.8692" ry="13.8592" transform="matrix(-0.368947 0.92945 -0.929565 -0.368659 18.0048 18)" fill="#DEDEDE"/>
<ellipse rx="13.412" ry="13.6943" transform="matrix(-0.150075 0.988675 -0.988684 -0.150012 18.2842 17.4412)" fill="#13182A"/>
<ellipse cx="17.9868" cy="12.2833" rx="2.26657" ry="2.26052" fill="#DEDEDE"/>
<path d="M14.5872 12.8485L21.3869 11.7183" stroke="#DEDEDE"/>
<ellipse cx="18.27" cy="18.7824" rx="0.849964" ry="0.847694" fill="#DEDEDE"/>
<ellipse cx="26.203" cy="13.1311" rx="0.283321" ry="0.282565" fill="#DEDEDE"/>
<ellipse cx="16.5701" cy="27.8244" rx="0.283321" ry="0.282565" fill="#DEDEDE"/>
<ellipse cx="24.7864" cy="24.7162" rx="1.13328" ry="1.13026" fill="#DEDEDE"/>
<ellipse cx="11.4368" cy="23.0632" rx="0.566642" ry="0.565129" fill="#DEDEDE"/>
<ellipse cx="11.7538" cy="14.5439" rx="0.566642" ry="0.565129" fill="#DEDEDE"/>
</svg>
