<svg width="50" height="50" viewBox="0 0 50 50" fill="none" xmlns="http://www.w3.org/2000/svg">
<ellipse rx="24.996" ry="25" transform="matrix(1 0 0.000161611 1 25 25)" fill="#DEDEDE"/>
<circle cx="25" cy="25" r="21.9697" fill="#13182A"/>
<ellipse cx="24.968" cy="14.6861" rx="4.08421" ry="4.07841" fill="#DEDEDE"/>
<path d="M18.8418 15.2293L31.0944 13.1901" stroke="#DEDEDE"/>
<ellipse cx="25.4779" cy="26.4116" rx="1.53158" ry="1.5294" fill="#DEDEDE"/>
<ellipse cx="39.7722" cy="16.2156" rx="0.510526" ry="0.509802" fill="#DEDEDE"/>
<ellipse cx="37.1374" cy="27.6207" rx="0.238002" ry="0.238249" fill="#DEDEDE"/>
<ellipse cx="7.15109" cy="25.2382" rx="0.238002" ry="0.238249" fill="#DEDEDE"/>
<ellipse cx="21.4294" cy="7.13132" rx="0.238002" ry="0.238249" fill="#DEDEDE"/>
<ellipse cx="27.1423" cy="36.6742" rx="0.238002" ry="0.238249" fill="#DEDEDE"/>
<ellipse cx="22.4148" cy="42.7253" rx="0.510526" ry="0.509802" fill="#DEDEDE"/>
<ellipse cx="37.2189" cy="37.1175" rx="2.0421" ry="2.03921" fill="#DEDEDE"/>
<ellipse cx="13.1666" cy="34.1351" rx="1.02105" ry="1.0196" fill="#DEDEDE"/>
<ellipse cx="13.7369" cy="18.7646" rx="1.02105" ry="1.0196" fill="#DEDEDE"/>
</svg>
