<svg width="916" height="274" viewBox="0 0 916 274" fill="none" xmlns="http://www.w3.org/2000/svg">
<path d="M135.1 70.3V267H86.1V70.3H15.75V22H205.45V70.3H135.1ZM508.856 267L473.856 182.3L450.406 211.35V267H402.106V36L450.406 11.85V109.5C450.406 112.3 450.406 115.567 450.406 119.3C450.406 122.8 450.29 126.417 450.056 130.15C450.056 133.65 449.94 137.033 449.706 140.3C449.706 143.567 449.706 146.367 449.706 148.7C452.273 144.967 455.306 140.533 458.806 135.4C462.54 130.267 466.04 125.717 469.306 121.75L499.056 83.25H556.106L508.856 141.7L561.706 267H508.856ZM735.451 175.3C735.451 178.8 735.335 181.833 735.101 184.4C735.101 186.733 734.985 188.833 734.751 190.7H624.851C625.318 197 626.718 202.367 629.051 206.8C631.385 211.233 634.301 214.85 637.801 217.65C641.301 220.217 645.151 222.2 649.351 223.6C653.785 224.767 658.218 225.35 662.651 225.35C669.418 225.35 675.485 224.183 680.851 221.85C686.218 219.517 690.651 216.367 694.151 212.4L728.451 241.1C720.985 250.667 711.185 258.017 699.051 263.15C687.151 268.283 675.018 270.85 662.651 270.85C649.351 270.85 637.335 268.633 626.601 264.2C616.101 259.533 607.118 253.117 599.651 244.95C592.185 236.55 586.351 226.517 582.151 214.85C578.185 202.95 576.201 189.767 576.201 175.3C576.201 161.3 578.301 148.467 582.501 136.8C586.701 124.9 592.418 114.75 599.651 106.35C607.118 97.7167 615.751 91.0667 625.551 86.4C635.585 81.7333 646.435 79.4 658.101 79.4C670.235 79.4 681.085 81.9667 690.651 87.1C700.451 92 708.618 98.8833 715.151 107.75C721.685 116.383 726.701 126.533 730.201 138.2C733.701 149.867 735.451 162.233 735.451 175.3ZM688.551 154.3C688.085 150.1 687.151 146.133 685.751 142.4C684.351 138.433 682.251 134.933 679.451 131.9C676.885 128.633 673.618 126.067 669.651 124.2C665.685 122.333 661.018 121.4 655.651 121.4C646.785 121.4 639.785 124.55 634.651 130.85C629.518 137.15 626.485 144.967 625.551 154.3H688.551ZM775.731 267V36L824.031 11.85V267H775.731Z" fill="#DEDEDE"/>
<ellipse rx="99.9839" ry="100" transform="matrix(1 0 0.000161611 1 280 174)" fill="#DEDEDE"/>
<ellipse cx="279.87" cy="173.529" rx="81.6841" ry="81.5683" fill="#13182A"/>
<ellipse cx="279.871" cy="132.745" rx="16.3368" ry="16.3137" fill="#DEDEDE"/>
<path d="M255.366 134.917L304.377 126.76" stroke="#DEDEDE" stroke-width="3"/>
<ellipse cx="281.913" cy="179.646" rx="6.12631" ry="6.11762" fill="#DEDEDE"/>
<ellipse cx="339.092" cy="138.862" rx="2.0421" ry="2.03921" fill="#DEDEDE"/>
<ellipse cx="328.553" cy="184.483" rx="0.952006" ry="0.952995" fill="#DEDEDE"/>
<ellipse cx="208.6" cy="174.953" rx="0.952006" ry="0.952995" fill="#DEDEDE"/>
<ellipse cx="265.721" cy="102.525" rx="0.952006" ry="0.952995" fill="#DEDEDE"/>
<ellipse cx="288.569" cy="220.697" rx="0.952006" ry="0.952995" fill="#DEDEDE"/>
<ellipse cx="269.66" cy="244.901" rx="2.0421" ry="2.03921" fill="#DEDEDE"/>
<ellipse cx="328.881" cy="222.47" rx="8.16841" ry="8.15683" fill="#DEDEDE"/>
<ellipse cx="232.66" cy="210.54" rx="4.08421" ry="4.07841" fill="#DEDEDE"/>
<ellipse cx="234.944" cy="149.058" rx="4.08421" ry="4.07841" fill="#DEDEDE"/>
</svg>
