<svg width="58" height="13" viewBox="0 0 58 13" fill="none" xmlns="http://www.w3.org/2000/svg">
<path d="M3.44 13V4.84H0.5V2.44H9.32V4.84H6.38V13H3.44ZM22.572 13V2.44H25.512V6.32H25.592L28.472 2.44H31.652L28.312 6.76L32.252 13H29.112L26.632 8.78L25.512 10.06V13H22.572ZM33.6658 13V2.44H40.8458V4.72H36.6058V6.56H40.2458V8.7H36.6058V10.72H41.0458V13H33.6658ZM43.6463 13V2.44H46.5863V10.6H50.7863V13H43.6463Z" fill="#F0F0F0"/>
<ellipse rx="5.49911" ry="5.5" transform="matrix(1 0 0.000161611 1 15.5 7.5)" fill="#DEDEDE"/>
<ellipse cx="15.5003" cy="7.50008" rx="4.83333" ry="4.83333" fill="#13182A"/>
<ellipse cx="15.4923" cy="5.23099" rx="0.898525" ry="0.897251" fill="#DEDEDE"/>
<path d="M14.1455 5.35036L16.8411 4.90173" stroke="#DEDEDE" stroke-width="0.5"/>
<ellipse cx="15.6055" cy="7.81047" rx="0.336947" ry="0.336469" fill="#DEDEDE"/>
<ellipse cx="18.75" cy="5.56748" rx="0.112316" ry="0.112156" fill="#DEDEDE"/>
<ellipse cx="18.1695" cy="8.07671" rx="0.0523604" ry="0.0524147" fill="#DEDEDE"/>
<ellipse cx="11.5729" cy="7.55241" rx="0.0523604" ry="0.0524147" fill="#DEDEDE"/>
<ellipse cx="14.7145" cy="3.56902" rx="0.0523604" ry="0.0524147" fill="#DEDEDE"/>
<ellipse cx="15.9713" cy="10.0682" rx="0.0523604" ry="0.0524147" fill="#DEDEDE"/>
<ellipse cx="14.9307" cy="11.3995" rx="0.112316" ry="0.112156" fill="#DEDEDE"/>
<ellipse cx="18.1885" cy="10.1659" rx="0.449263" ry="0.448625" fill="#DEDEDE"/>
<ellipse cx="12.8955" cy="9.50959" rx="0.224631" ry="0.224313" fill="#DEDEDE"/>
<ellipse cx="13.0225" cy="6.12837" rx="0.224631" ry="0.224313" fill="#DEDEDE"/>
</svg>
