<svg width="153" height="47" viewBox="0 0 153 47" fill="none" xmlns="http://www.w3.org/2000/svg">
<path d="M23.16 12.28V46H14.76V12.28H2.7V4H35.22V12.28H23.16ZM87.2325 46L81.2325 31.48L77.2125 36.46V46H68.9325V6.4L77.2125 2.26V19C77.2125 19.48 77.2125 20.04 77.2125 20.68C77.2125 21.28 77.1925 21.9 77.1525 22.54C77.1525 23.14 77.1325 23.72 77.0925 24.28C77.0925 24.84 77.0925 25.32 77.0925 25.72C77.5325 25.08 78.0525 24.32 78.6525 23.44C79.2925 22.56 79.8925 21.78 80.4525 21.1L85.5525 14.5H95.3325L87.2325 24.52L96.2925 46H87.2325ZM126.077 30.28C126.077 30.88 126.057 31.4 126.017 31.84C126.017 32.24 125.997 32.6 125.957 32.92H107.117C107.197 34 107.437 34.92 107.837 35.68C108.237 36.44 108.737 37.06 109.337 37.54C109.937 37.98 110.597 38.32 111.317 38.56C112.077 38.76 112.837 38.86 113.597 38.86C114.757 38.86 115.797 38.66 116.717 38.26C117.637 37.86 118.397 37.32 118.997 36.64L124.877 41.56C123.597 43.2 121.917 44.46 119.837 45.34C117.797 46.22 115.717 46.66 113.597 46.66C111.317 46.66 109.257 46.28 107.417 45.52C105.617 44.72 104.077 43.62 102.797 42.22C101.517 40.78 100.517 39.06 99.7973 37.06C99.1173 35.02 98.7773 32.76 98.7773 30.28C98.7773 27.88 99.1373 25.68 99.8573 23.68C100.577 21.64 101.557 19.9 102.797 18.46C104.077 16.98 105.557 15.84 107.237 15.04C108.957 14.24 110.817 13.84 112.817 13.84C114.897 13.84 116.757 14.28 118.397 15.16C120.077 16 121.477 17.18 122.597 18.7C123.717 20.18 124.577 21.92 125.177 23.92C125.777 25.92 126.077 28.04 126.077 30.28ZM118.037 26.68C117.957 25.96 117.797 25.28 117.557 24.64C117.317 23.96 116.957 23.36 116.477 22.84C116.037 22.28 115.477 21.84 114.797 21.52C114.117 21.2 113.317 21.04 112.397 21.04C110.877 21.04 109.677 21.58 108.797 22.66C107.917 23.74 107.397 25.08 107.237 26.68H118.037ZM132.983 46V6.4L141.263 2.26V46H132.983Z" fill="#DEDEDE"/>
<ellipse rx="16.5449" ry="16.5304" transform="matrix(0 -1 1 -0.000161613 48.0002 30)" fill="#DEDEDE"/>
<ellipse cx="47.9784" cy="29.9221" rx="13.5168" ry="13.4836" fill="#13182A"/>
<ellipse cx="47.9785" cy="23.1803" rx="2.70335" ry="2.69672" fill="#DEDEDE"/>
<path d="M43.9236 23.8545L52.0336 22.5061" stroke="#DEDEDE"/>
<ellipse cx="48.3165" cy="30.9334" rx="1.01376" ry="1.01127" fill="#DEDEDE"/>
<ellipse cx="57.7781" cy="24.1916" rx="0.337919" ry="0.33709" fill="#DEDEDE"/>
<ellipse cx="46.2888" cy="41.7203" rx="0.337919" ry="0.33709" fill="#DEDEDE"/>
<ellipse cx="56.0885" cy="38.0122" rx="1.35168" ry="1.34836" fill="#DEDEDE"/>
<ellipse cx="40.1663" cy="36.0403" rx="0.675838" ry="0.67418" fill="#DEDEDE"/>
<ellipse cx="40.5442" cy="25.877" rx="0.675838" ry="0.67418" fill="#DEDEDE"/>
</svg>
