<svg width="50" height="50" viewBox="0 0 50 50" fill="none" xmlns="http://www.w3.org/2000/svg">
<path d="M38.1884 26.1467C38.2549 33.3098 44.4723 35.6935 44.5411 35.7239C44.4886 35.892 43.5477 39.1209 41.2655 42.456C39.2927 45.3395 37.2452 48.2124 34.0197 48.2719C30.8503 48.3302 29.8312 46.3924 26.2077 46.3924C22.5853 46.3924 21.453 48.2123 18.4529 48.3303C15.3395 48.4481 12.9686 45.2122 10.9794 42.3393C6.91464 36.4628 3.80833 25.7335 7.97932 18.4911C10.0514 14.8945 13.7543 12.617 17.7735 12.5586C20.8308 12.5003 23.7165 14.6154 25.5855 14.6154C27.4533 14.6154 30.96 12.0718 34.6466 12.4453C36.1899 12.5096 40.5219 13.0688 43.3037 17.1405C43.0796 17.2795 38.1346 20.1582 38.1884 26.1467V26.1467ZM32.2319 8.55748C33.8849 6.55667 34.9974 3.77136 34.6939 1C32.3113 1.09576 29.4302 2.58768 27.7213 4.58739C26.1897 6.35822 24.8484 9.19256 25.2103 11.9091C27.866 12.1145 30.5789 10.5596 32.2319 8.55749" fill="white"/>
</svg>
