<svg width="374" height="543" viewBox="0 0 374 543" fill="none" xmlns="http://www.w3.org/2000/svg">
<path d="M31.1687 0.499773C55.9358 85.1477 92.4305 168.209 141.154 247.329C205.015 351.031 284.378 439.02 373.999 509.919" stroke="#E7E5C6" stroke-opacity="0.2"/>
<path d="M175.884 0.499961C196.762 53.4495 222.609 105.375 253.562 155.639C289.014 213.208 329.427 265.775 373.852 313.095" stroke="#E7E5C6" stroke-opacity="0.2"/>
<path fill-rule="evenodd" clip-rule="evenodd" d="M206.349 49.5804C202.724 51.014 199.19 52.885 195.82 55.2061C172.646 71.1694 166.029 102.374 181.04 124.904C196.051 147.434 227.006 152.757 250.18 136.794C252.694 135.062 255.013 133.151 257.131 131.091L206.349 49.5804ZM259.282 128.872C260.261 127.803 261.189 126.699 262.067 125.565L212.535 47.5759C211.429 47.8581 210.328 48.1786 209.234 48.5378L259.282 128.872ZM264.42 122.271C264.072 122.801 263.713 123.326 263.344 123.845L214.598 47.0946C215.214 46.9644 215.831 46.8459 216.449 46.7391L264.42 122.271ZM265.016 121.344C266.697 118.669 268.121 115.867 269.28 112.978L226.761 46.0297C223.697 45.924 220.604 46.1001 217.523 46.5651L265.016 121.344ZM264.96 67.0958C273.467 79.8639 275.028 95.4182 270.565 109.406L230.485 46.2982C244.133 47.8 256.865 54.9459 264.96 67.0958Z" fill="url(#paint0_linear)" fill-opacity="0.59"/>
<circle cx="251" cy="396" r="30" fill="url(#paint1_linear)"/>
<defs>
<linearGradient id="paint0_linear" x1="223" y1="46" x2="223" y2="146" gradientUnits="userSpaceOnUse">
<stop stop-color="#687BF7"/>
<stop offset="1" stop-color="#2D40B9" stop-opacity="0.49"/>
</linearGradient>
<linearGradient id="paint1_linear" x1="251" y1="366" x2="251" y2="426" gradientUnits="userSpaceOnUse">
<stop stop-color="#CE395F"/>
<stop offset="1" stop-color="#FDA4BB" stop-opacity="0"/>
</linearGradient>
</defs>
</svg>
