<svg width="852" height="1546" viewBox="0 0 852 1546" fill="none" xmlns="http://www.w3.org/2000/svg">
<circle cx="558" cy="263" r="24.5" stroke="#B8BCDD" stroke-opacity="0.5"/>
<circle cx="590.5" cy="696.5" r="32" stroke="#B8BCDD" stroke-opacity="0.5"/>
<circle cx="731" cy="991" r="14.5" stroke="#B8BCDD" stroke-opacity="0.5"/>
<circle cx="431" cy="70" r="15" fill="#181F36" fill-opacity="0.5"/>
<circle cx="431" cy="70" r="14.5" stroke="#B8BCDD" stroke-opacity="0.5"/>
<circle cx="590.5" cy="1404.5" r="7" stroke="#B8BCDD" stroke-opacity="0.5"/>
<path d="M396.501 32.5006C528.3 128.657 652.952 389.224 705.778 708.596C775.717 1131.42 693.273 1497.21 521.636 1525.6C480.623 1532.38 438.229 1519.29 396.501 1489.66" stroke="#E7E5C6" stroke-opacity="0.2"/>
<path d="M395.349 293.499C462.563 392.12 525.517 513.232 576.683 648.699C728.113 1049.63 718.937 1424.48 556.189 1485.95C508.771 1503.85 453.549 1493.19 395.349 1459.16" stroke="#E7E5C6" stroke-opacity="0.2"/>
<path d="M394.096 526.001C409.624 549.632 424.857 573.97 439.723 598.962C658.825 967.295 715.234 1337.99 565.717 1426.93C521.119 1453.46 463.237 1451.92 398.149 1426.93" stroke="#E7E5C6" stroke-opacity="0.2"/>
</svg>
