<svg width="983" height="2038" viewBox="0 0 983 2038" fill="none" xmlns="http://www.w3.org/2000/svg">
<path d="M0 235.516C383.753 346.923 665.199 712.224 665.199 1145.68C665.199 1583.46 378.117 1951.71 -11.5 2059.1" stroke="#E7E5C6" stroke-opacity="0.2"/>
<path d="M-0.5 3.45003C22.9949 1.56788 46.7388 0.609375 70.6992 0.609375C226.007 0.609375 372.243 40.8824 500.222 111.906C787.068 271.094 982.199 584.761 982.199 945.682C982.199 1467.63 574.107 1890.75 70.6992 1890.75C48.6071 1890.75 26.6986 1889.94 5 1888.34" stroke="#E7E5C6" stroke-opacity="0.2"/>
<path d="M1.5 78.7476C476.087 111.693 851.199 521.268 851.199 1021.68C851.199 1525.08 471.6 1936.55 -7 1965.17" stroke="#E7E5C6" stroke-opacity="0.2"/>
<circle cx="535" cy="673" r="24.5" stroke="#B8BCDD" stroke-opacity="0.5"/>
<circle cx="73.5" cy="97.5" r="32" stroke="#B8BCDD" stroke-opacity="0.5"/>
<circle cx="949" cy="1192" r="14.5" stroke="#B8BCDD" stroke-opacity="0.5"/>
<circle cx="806.5" cy="736.5" r="7" stroke="#B8BCDD" stroke-opacity="0.5"/>
<circle cx="582" cy="167" r="14.5" stroke="#B8BCDD" stroke-opacity="0.5"/>
</svg>
