<svg width="150" height="178" viewBox="0 0 150 178" fill="none" xmlns="http://www.w3.org/2000/svg">
<path d="M52.5177 115.103H51.2363C23.8139 115.103 1.51724 92.8065 1.51724 65.6404C1.51724 38.218 23.8139 15.9212 50.9801 15.9212C78.4025 15.9212 100.699 38.218 100.699 65.6404C100.699 66.4092 100.699 67.1781 100.699 67.9469V69.2284H99.4177C96.086 69.2284 92.7544 69.4846 89.4227 70.2535C72.508 73.8415 58.6686 87.1683 54.0555 103.827C53.2867 106.902 52.774 110.234 52.5177 113.565V115.103Z" fill="#F7931A"/>
<g clip-path="url(#clip0_1_209)">
<path d="M86.9634 74.4393C81.9716 94.4623 61.6916 106.648 41.6662 101.655C21.6493 96.6629 9.46366 76.3816 14.4577 56.3603C19.4473 36.3351 39.7273 24.1486 59.7465 29.1404C79.7704 34.1323 91.9552 54.4158 86.9629 74.4397L86.9632 74.4393H86.9634Z" fill="#F7931A"/>
<path d="M67.1911 60.0727C67.935 55.0988 64.1482 52.4252 58.9701 50.6416L60.6499 43.904L56.5485 42.882L54.9132 49.4422C53.835 49.1733 52.7277 48.9199 51.6272 48.6687L53.2743 42.0652L49.1755 41.0432L47.4948 47.7786C46.6025 47.5755 45.7261 47.3747 44.8759 47.1632L44.8807 47.142L39.2248 45.7296L38.1337 50.1101C38.1337 50.1101 41.1766 50.8076 41.1125 50.8506C42.7733 51.2651 43.0737 52.3645 43.0238 53.2359L41.1103 60.9117C41.2247 60.9407 41.373 60.9827 41.5367 61.0485C41.3999 61.0145 41.2543 60.9774 41.1032 60.9413L38.4211 71.6938C38.2181 72.1984 37.703 72.9557 36.5418 72.6681C36.5829 72.7277 33.5608 71.9242 33.5608 71.9242L31.5246 76.619L36.8618 77.9495C37.8548 78.1985 38.8278 78.459 39.786 78.704L38.0888 85.5189L42.1854 86.5408L43.8662 79.7983C44.9853 80.1021 46.0714 80.3824 47.1347 80.6465L45.4596 87.3573L49.5612 88.3792L51.2582 81.5772C58.2519 82.9007 63.5106 82.3671 65.7241 76.0413C67.5077 70.9483 65.6353 68.0106 61.9559 66.0949C64.6358 65.4769 66.6544 63.7143 67.1926 60.0733L67.1913 60.0724L67.1911 60.0727ZM57.8204 73.2129C56.5529 78.3059 47.9778 75.5528 45.1976 74.8624L47.4498 65.8339C50.2298 66.5279 59.1451 67.9014 57.8206 73.2129H57.8204ZM59.0888 59.9989C57.9326 64.6316 50.7954 62.278 48.4802 61.7009L50.5221 53.5125C52.8373 54.0897 60.2933 55.1668 59.0892 59.9989H59.0888Z" fill="white"/>
</g>
<path d="M89.7068 68.8508L89.6919 68.9105V68.9721V69.3805L89.2924 69.5137C71.9504 73.1489 57.9831 86.6062 53.3208 103.682L53.1829 104.096H52.7744H52.7714H52.7684H52.7654H52.7624H52.7594H52.7564H52.7534H52.7504H52.7474H52.7444H52.7414H52.7384H52.7354H52.7324H52.7294H52.7264H52.7234H52.7204H52.7174H52.7144H52.7114H52.7084H52.7054H52.7024H52.6994H52.6964H52.6934H52.6903H52.6873H52.6843H52.6813H52.6783H52.6753H52.6723H52.6693H52.6663H52.6633H52.6603H52.6573H52.6543H52.6513H52.6483H52.6453H52.6423H52.6393H52.6363H52.6333H52.6303H52.6273H52.6243H52.6213H52.6183H52.6153H52.6123H52.6093H52.6063H52.6033H52.6002H52.5972H52.5942H52.5912H52.5882H52.5852H52.5822H52.5792H52.5762H52.5732H52.5702H52.5672H52.5642H52.5612H52.5582H52.5552H52.5522H52.5492H52.5462H52.5432H52.5402H52.5372H52.5342H52.5312H52.5282H52.5252H52.5222H52.5192H52.5162H52.5131H52.5101H52.5071H52.5041H52.5011H52.4981H52.4951H52.4921H52.4891H52.4861H52.4831H52.4801H52.4771H52.4741H52.4711H52.4681H52.4651H52.4621H52.4591H52.4561H52.4531H52.4501H52.4471H52.4441H52.4411H52.4381H52.4351H52.4321H52.4291H52.426H52.423H52.42H52.417H52.414H52.411H52.408H52.405H52.402H52.399H52.396H52.393H52.39H52.387H52.384H52.381H52.378H52.375H52.372H52.369H52.366H52.363H52.36H52.357H52.354H52.351H52.348H52.345H52.3419H52.3389H52.3359H52.3329H52.3299H52.3269H52.3239H52.3209H52.3179H52.3149H52.3119H52.3089H52.3059H52.3029H52.2999H52.2969H52.2939H52.2909H52.2879H52.2849H52.2819H52.2789H52.2759H52.2729H52.2699H52.2669H52.2639H52.2608H52.2578H52.2548H52.2518H52.2488H52.2458H52.2428H52.2398H52.2368H52.2338H52.2308H52.2278H52.2248H52.2218H52.2188H52.2158H52.2128H52.2098H52.2068H52.2038H52.2008H52.1978H52.1948H52.1918H52.1888H52.1858H52.1828H52.1798H52.1768H52.1737H52.1707H52.1677H52.1647H52.1617H52.1587H52.1557H52.1527H52.1497H52.1467H52.1437H52.1407H52.1377H52.1347H52.1317H52.1287H52.1257H52.1227H52.1197H52.1167H52.1137H52.1107H52.1077H52.1047H52.1017H52.0987H52.0957H52.0926H52.0896H52.0866H52.0836H52.0806H52.0776H52.0746H52.0716H52.0686H52.0656H52.0626H52.0596H52.0566H52.0536H52.0506H52.0476H52.0446H52.0416H52.0386H52.0356H52.0326H52.0296H52.0266H52.0236H52.0206H52.0176H52.0146H52.0116H52.0085H52.0055H52.0025H51.9995H51.9965H51.9935H51.9905H51.9875H51.9845H51.9815H51.9785H51.9755H51.9725H51.9695H51.9665H51.9635H51.9605H51.9575H51.9545H51.9515H51.9485H51.9455H51.9425H51.9395H51.9365H51.9335H51.9305H51.9275H51.9244H51.9214H51.9184H51.9154H51.9124H51.9094H51.9064H51.9034H51.9004H51.8974H51.8944H51.8914H51.8884H51.8854H51.8824H51.8794H51.8764H51.8734H51.8704H51.8674H51.8644H51.8614H51.8584H51.8554H51.8524H51.8494H51.8464H51.8433H51.8403H51.8373H51.8343H51.8313H51.8283H51.8253H51.8223H51.8193H51.8163H51.8133H51.8103H51.8073H51.8043H51.8013H51.7983H51.7953H51.7923H51.7893H51.7863H51.7833H51.7803H51.7773H51.7743H51.7713H51.7683H51.7653H51.7623H51.7593H51.7562H51.7532H51.7502H51.7472H51.7442H51.7412H51.7382H51.7352H51.7322H51.7292H51.7262H51.7232H51.7202H51.7172H51.7142H51.7112H51.7082H51.7052H51.7022H51.6992H51.6962H51.6932H51.6902H51.6872H51.6842H51.6812H51.6782H51.6752H51.6721H51.6691H51.6661H51.6631H51.6601H51.6571H51.6541H51.6511H51.6481H51.6451H51.6421H51.6391H51.6361H51.6331H51.6301H51.6271H51.6241H51.6211H51.6181H51.6151H51.6121H51.6091H51.6061H51.6031H51.6001H51.5971H51.5941H51.591H51.588H51.585H51.582H51.579H51.576H51.573H51.57H51.567H51.564H51.561H51.558H51.555H51.552H51.549H51.546H51.543H51.54H51.537H51.534H51.531H51.528H51.525H51.522H51.519H51.516H51.513H51.51H51.507H51.5039H51.5009H51.4979H51.4949H51.4919H51.4889H51.4859H51.4829H51.4799H51.4769H51.4739H51.4709H51.4679H51.4649H51.4619H51.4589H51.4559H51.4529H51.4499H51.4469H51.4439H51.4409H51.4379H51.4349H51.4319H51.4289H51.4259H51.4229H51.4199H51.4168H51.4138H51.4108H51.4078H51.4048H51.4018H51.3988H51.3958H51.3928H51.3898H51.3868H51.3838H51.3808H51.3778H51.3748H51.3718H51.3688H51.3658H51.3628H51.3598H51.3568H51.3538H51.3508H51.3478H51.3448H51.3418H51.3388H51.3358H51.3328H51.3298H51.3267H51.3237H51.3207H51.3177H51.3147H51.3117H51.3087H51.3057H51.3027H51.2997H51.2967H51.2937H51.2907H51.2877H51.2847H51.2817H51.2787H51.2757H51.2727H51.2697H51.2667H51.2637H51.2607H51.2577H51.2547H51.2517H51.2487H51.2457H51.2427H51.2396H51.2366C29.9849 104.096 12.5252 86.6358 12.5252 65.3841C12.5252 44.1324 29.9849 26.6725 51.2366 26.6725C72.4884 26.6725 89.9481 44.1324 89.9481 65.3841C89.9481 66.6849 89.945 67.8979 89.7068 68.8508ZM52.0055 103.302H52.3834L52.4865 102.938C57.306 85.9429 71.2608 72.7485 88.2578 68.6896L88.6416 68.5979V68.2032V68.1987V68.1942V68.1897V68.1852V68.1807V68.1762V68.1717V68.1672V68.1627V68.1582V68.1537V68.1492V68.1447V68.1402V68.1357V68.1311V68.1266V68.1221V68.1176V68.1131V68.1086V68.1041V68.0996V68.0951V68.0906V68.0861V68.0816V68.077V68.0725V68.068V68.0635V68.059V68.0545V68.05V68.0455V68.041V68.0364V68.0319V68.0274V68.0229V68.0184V68.0139V68.0094V68.0048V68.0003V67.9958V67.9913V67.9868V67.9823V67.9777V67.9732V67.9687V67.9642V67.9597V67.9551V67.9506V67.9461V67.9416V67.937V67.9325V67.928V67.9235V67.9189V67.9144V67.9099V67.9054V67.9008V67.8963V67.8918V67.8872V67.8827V67.8782V67.8736V67.8691V67.8646V67.86V67.8555V67.8509V67.8464V67.8419V67.8373V67.8328V67.8282V67.8237V67.8191V67.8146V67.81V67.8055V67.8009V67.7964V67.7918V67.7873V67.7827V67.7782V67.7736V67.7691V67.7645V67.7599V67.7554V67.7508V67.7463V67.7417V67.7371V67.7326V67.728V67.7234V67.7189V67.7143V67.7097V67.7051V67.7006V67.696V67.6914V67.6868V67.6823V67.6777V67.6731V67.6685V67.6639V67.6593V67.6547V67.6502V67.6456V67.641V67.6364V67.6318V67.6272V67.6226V67.618V67.6134V67.6088V67.6042V67.5996V67.595V67.5904V67.5858V67.5811V67.5765V67.5719V67.5673V67.5627V67.5581V67.5534V67.5488V67.5442V67.5396V67.5349V67.5303V67.5257V67.521V67.5164V67.5118V67.5071V67.5025V67.4978V67.4932V67.4886V67.4839V67.4793V67.4746V67.47V67.4653V67.4606V67.456V67.4513V67.4467V67.442V67.4373V67.4327V67.428V67.4233V67.4187V67.414V67.4093V67.4046V67.3999V67.3953V67.3906V67.3859V67.3812V67.3765V67.3718V67.3671V67.3624V67.3577V67.353V67.3483V67.3436V67.3389V67.3342V67.3295V67.3248V67.32V67.3153V67.3106V67.3059V67.3011V67.2964V67.2917V67.287V67.2822V67.2775V67.2727V67.268V67.2633V67.2585V67.2538V67.249V67.2443V67.2395V67.2347V67.23V67.2252V67.2205V67.2157V67.2109V67.2061V67.2014V67.1966V67.1918V67.187V67.1822V67.1774V67.1727V67.1679V67.1631V67.1583V67.1535V67.1487V67.1439V67.139V67.1342V67.1294V67.1246V67.1198V67.115V67.1101V67.1053V67.1005V67.0956V67.0908V67.086V67.0811V67.0763V67.0714V67.0666V67.0617V67.0569V67.052V67.0471V67.0423V67.0374V67.0325V67.0277V67.0228V67.0179V67.013V67.0082V67.0033V66.9984V66.9935V66.9886V66.9837V66.9788V66.9739V66.969V66.9641V66.9591V66.9542V66.9493V66.9444V66.9394V66.9345V66.9296V66.9246V66.9197V66.9148V66.9098V66.9049V66.8999V66.895V66.89V66.885V66.8801V66.8751V66.8701V66.8652V66.8602V66.8552V66.8502V66.8452V66.8402V66.8352V66.8302V66.8252V66.8202V66.8152V66.8102V66.8052V66.8002V66.7952V66.7901V66.7851V66.7801V66.775V66.77V66.7649V66.7599V66.7549V66.7498V66.7447V66.7397V66.7346V66.7295V66.7245V66.7194V66.7143V66.7092V66.7042V66.6991V66.694V66.6889V66.6838V66.6787V66.6736V66.6684V66.6633V66.6582V66.6531V66.648V66.6428V66.6377V66.6326V66.6274V66.6223V66.6171V66.612V66.6068V66.6017V66.5965V66.5913V66.5861V66.581V66.5758V66.5706V66.5654V66.5602V66.555V66.5498V66.5446V66.5394V66.5342V66.529V66.5238V66.5185V66.5133V66.5081V66.5028V66.4976V66.4923V66.4871V66.4818V66.4766V66.4713V66.4661V66.4608V66.4555V66.4502V66.445V66.4397V66.4344V66.4291V66.4238V66.4185V66.4132V66.4079V66.4025V66.3972V66.3919V66.3866V66.3812V66.3759V66.3705V66.3652V66.3598V66.3545V66.3491V66.3438V66.3384V66.333V66.3276V66.3223V66.3169V66.3115V66.3061V66.3007V66.2953V66.2899V66.2844V66.279V66.2736V66.2682V66.2627V66.2573V66.2519V66.2464V66.241V66.2355V66.23V66.2246V66.2191V66.2136V66.2082V66.2027V66.1972V66.1917V66.1862V66.1807V66.1752V66.1697V66.1641V66.1586V66.1531V66.1476V66.142V66.1365V66.1309V66.1254V66.1198V66.1143V66.1087V66.1031V66.0976V66.092V66.0864V66.0808V66.0752V66.0696V66.064V66.0584V66.0528V66.0471V66.0415V66.0359V66.0302V66.0246V66.019V66.0133V66.0076V66.002V65.9963V65.9906V65.985V65.9793V65.9736V65.9679V65.9622V65.9565V65.9508V65.9451V65.9394V65.9336V65.9279V65.9222V65.9164V65.9107V65.9049V65.8992V65.8934V65.8876V65.8819V65.8761V65.8703V65.8645V65.8587V65.8529V65.8471V65.8413V65.8355V65.8297V65.8238V65.818V65.8122V65.8063V65.8005V65.7946V65.7888V65.7829V65.777V65.7711V65.7653V65.7594V65.7535V65.7476V65.7417V65.7358V65.7298V65.7239V65.718V65.7121V65.7061V65.7002V65.6942V65.6883V65.6823V65.6763V65.6703V65.6644V65.6584V65.6524V65.6464V65.6404C88.6416 44.6052 71.7592 27.9792 51.2366 27.9792C30.4578 27.9792 13.5754 44.8615 13.5754 65.6404C13.5754 86.4193 30.4578 103.302 51.2366 103.302H51.2381H51.2396H51.2411H51.2427H51.2442H51.2457H51.2472H51.2487H51.2502H51.2517H51.2532H51.2547H51.2562H51.2577H51.2592H51.2607H51.2622H51.2637H51.2652H51.2667H51.2682H51.2697H51.2712H51.2727H51.2742H51.2757H51.2772H51.2787H51.2802H51.2817H51.2832H51.2847H51.2862H51.2877H51.2892H51.2907H51.2922H51.2937H51.2952H51.2967H51.2982H51.2997H51.3012H51.3027H51.3042H51.3057H51.3072H51.3087H51.3102H51.3117H51.3132H51.3147H51.3162H51.3177H51.3192H51.3207H51.3222H51.3237H51.3252H51.3267H51.3282H51.3297H51.3312H51.3327H51.3343H51.3358H51.3373H51.3388H51.3403H51.3418H51.3433H51.3448H51.3463H51.3478H51.3493H51.3508H51.3523H51.3538H51.3553H51.3568H51.3583H51.3598H51.3613H51.3628H51.3643H51.3658H51.3673H51.3688H51.3703H51.3718H51.3733H51.3748H51.3763H51.3778H51.3793H51.3808H51.3823H51.3838H51.3853H51.3868H51.3883H51.3898H51.3913H51.3928H51.3943H51.3958H51.3973H51.3988H51.4003H51.4018H51.4033H51.4048H51.4063H51.4078H51.4093H51.4108H51.4123H51.4138H51.4153H51.4168H51.4183H51.4198H51.4213H51.4228H51.4243H51.4258H51.4274H51.4289H51.4304H51.4319H51.4334H51.4349H51.4364H51.4379H51.4394H51.4409H51.4424H51.4439H51.4454H51.4469H51.4484H51.4499H51.4514H51.4529H51.4544H51.4559H51.4574H51.4589H51.4604H51.4619H51.4634H51.4649H51.4664H51.4679H51.4694H51.4709H51.4724H51.4739H51.4754H51.4769H51.4784H51.4799H51.4814H51.4829H51.4844H51.4859H51.4874H51.4889H51.4904H51.4919H51.4934H51.4949H51.4964H51.4979H51.4994H51.5009H51.5024H51.5039H51.5054H51.5069H51.5084H51.5099H51.5114H51.5129H51.5144H51.5159H51.5174H51.5189H51.5205H51.5219H51.5235H51.525H51.5265H51.528H51.5295H51.531H51.5325H51.534H51.5355H51.537H51.5385H51.54H51.5415H51.543H51.5445H51.546H51.5475H51.549H51.5505H51.552H51.5535H51.555H51.5565H51.558H51.5595H51.561H51.5625H51.564H51.5655H51.567H51.5685H51.57H51.5715H51.573H51.5745H51.576H51.5775H51.579H51.5805H51.582H51.5835H51.585H51.5865H51.588H51.5895H51.591H51.5925H51.594H51.5955H51.597H51.5985H51.6H51.6015H51.603H51.6045H51.606H51.6075H51.609H51.6105H51.612H51.6135H51.615H51.6166H51.6181H51.6196H51.6211H51.6226H51.6241H51.6256H51.6271H51.6286H51.6301H51.6316H51.6331H51.6346H51.6361H51.6376H51.6391H51.6406H51.6421H51.6436H51.6451H51.6466H51.6481H51.6496H51.6511H51.6526H51.6541H51.6556H51.6571H51.6586H51.6601H51.6616H51.6631H51.6646H51.6661H51.6676H51.6691H51.6706H51.6721H51.6736H51.6751H51.6766H51.6781H51.6796H51.6811H51.6826H51.6841H51.6856H51.6871H51.6886H51.6901H51.6916H51.6931H51.6946H51.6961H51.6976H51.6991H51.7006H51.7021H51.7036H51.7051H51.7066H51.7081H51.7096H51.7112H51.7127H51.7142H51.7157H51.7172H51.7187H51.7202H51.7217H51.7232H51.7247H51.7262H51.7277H51.7292H51.7307H51.7322H51.7337H51.7352H51.7367H51.7382H51.7397H51.7412H51.7427H51.7442H51.7457H51.7472H51.7487H51.7502H51.7517H51.7532H51.7547H51.7562H51.7577H51.7592H51.7607H51.7622H51.7637H51.7652H51.7667H51.7682H51.7697H51.7712H51.7727H51.7742H51.7757H51.7772H51.7787H51.7802H51.7817H51.7832H51.7847H51.7862H51.7877H51.7892H51.7907H51.7922H51.7937H51.7952H51.7967H51.7982H51.7997H51.8012H51.8027H51.8042H51.8058H51.8073H51.8088H51.8103H51.8118H51.8133H51.8148H51.8163H51.8178H51.8193H51.8208H51.8223H51.8238H51.8253H51.8268H51.8283H51.8298H51.8313H51.8328H51.8343H51.8358H51.8373H51.8388H51.8403H51.8418H51.8433H51.8448H51.8463H51.8478H51.8493H51.8508H51.8523H51.8538H51.8553H51.8568H51.8583H51.8598H51.8613H51.8628H51.8643H51.8658H51.8673H51.8688H51.8703H51.8718H51.8733H51.8748H51.8763H51.8778H51.8793H51.8808H51.8823H51.8838H51.8853H51.8868H51.8883H51.8898H51.8913H51.8928H51.8943H51.8958H51.8974H51.8988H51.9004H51.9019H51.9034H51.9049H51.9064H51.9079H51.9094H51.9109H51.9124H51.9139H51.9154H51.9169H51.9184H51.9199H51.9214H51.9229H51.9244H51.9259H51.9274H51.9289H51.9304H51.9319H51.9334H51.9349H51.9364H51.9379H51.9394H51.9409H51.9424H51.9439H51.9454H51.9469H51.9484H51.9499H51.9514H51.9529H51.9544H51.9559H51.9574H51.9589H51.9604H51.9619H51.9634H51.9649H51.9664H51.9679H51.9694H51.9709H51.9724H51.9739H51.9754H51.9769H51.9784H51.9799H51.9814H51.9829H51.9844H51.9859H51.9874H51.9889H51.9905H51.992H51.9935H51.995H51.9965H51.998H51.9995H52.001H52.0025H52.004H52.0055Z" fill="#182535" stroke="#192432"/>
<path d="M60.9475 112.662L60.9584 112.618L60.9613 112.574C61.2132 108.796 62.2214 105.005 63.7449 101.195C67.7926 91.3308 76.142 83.2364 86.2525 79.6966C90.0511 78.4307 93.8467 77.6713 97.8955 77.4169H97.8979H97.9009H97.9039H97.9069H97.9099H97.9129H97.9159H97.9189H97.9219H97.9249H97.9279H97.9309H97.9339H97.937H97.94H97.943H97.946H97.949H97.952H97.955H97.958H97.961H97.964H97.967H97.97H97.973H97.976H97.9791H97.9821H97.9851H97.9881H97.9911H97.9941H97.9971H98.0001H98.0031H98.0062H98.0092H98.0122H98.0152H98.0182H98.0212H98.0242H98.0273H98.0303H98.0333H98.0363H98.0393H98.0424H98.0454H98.0484H98.0514H98.0544H98.0575H98.0605H98.0635H98.0665H98.0696H98.0726H98.0756H98.0786H98.0817H98.0847H98.0877H98.0908H98.0938H98.0968H98.0999H98.1029H98.1059H98.109H98.112H98.115H98.1181H98.1211H98.1242H98.1272H98.1302H98.1333H98.1363H98.1394H98.1424H98.1455H98.1485H98.1516H98.1546H98.1577H98.1607H98.1638H98.1668H98.1699H98.1729H98.176H98.1791H98.1821H98.1852H98.1882H98.1913H98.1944H98.1974H98.2005H98.2036H98.2066H98.2097H98.2128H98.2159H98.2189H98.222H98.2251H98.2282H98.2312H98.2343H98.2374H98.2405H98.2436H98.2467H98.2498H98.2528H98.2559H98.259H98.2621H98.2652H98.2683H98.2714H98.2745H98.2776H98.2807H98.2838H98.2869H98.29H98.2931H98.2962H98.2994H98.3025H98.3056H98.3087H98.3118H98.3149H98.3181H98.3212H98.3243H98.3274H98.3306H98.3337H98.3368H98.34H98.3431H98.3462H98.3494H98.3525H98.3557H98.3588H98.3619H98.3651H98.3682H98.3714H98.3745H98.3777H98.3809H98.384H98.3872H98.3903H98.3935H98.3967H98.3998H98.403H98.4062H98.4093H98.4125H98.4157H98.4189H98.4221H98.4252H98.4284H98.4316H98.4348H98.438H98.4412H98.4444H98.4476H98.4508H98.454H98.4572H98.4604H98.4636H98.4668H98.47H98.4733H98.4765H98.4797H98.4829H98.4861H98.4894H98.4926H98.4958H98.4991H98.5023H98.5055H98.5088H98.512H98.5153H98.5185H98.5218H98.525H98.5283H98.5315H98.5348H98.538H98.5413H98.5446H98.5479H98.5511H98.5544H98.5577H98.561H98.5642H98.5675H98.5708H98.5741H98.5774H98.5807H98.584H98.5873H98.5906H98.5939H98.5972H98.6005H98.6038H98.6071H98.6105H98.6138H98.6171H98.6204H98.6238H98.6271H98.6304H98.6338H98.6371H98.6404H98.6438H98.6471H98.6505H98.6538H98.6572H98.6606H98.6639H98.6673H98.6707H98.674H98.6774H98.6808H98.6842H98.6875H98.6909H98.6943H98.6977H98.7011H98.7045H98.7079H98.7113H98.7147H98.7181H98.7215H98.725H98.7284H98.7318H98.7352H98.7387H98.7421H98.7455H98.749H98.7524H98.7558H98.7593H98.7627H98.7662H98.7697H98.7731H98.7766H98.78H98.7835H98.787H98.7905H98.7939H98.7974H98.8009H98.8044H98.8079H98.8114H98.8149H98.8184H98.8219H98.8254H98.8289H98.8325H98.836H98.8395H98.843H98.8466H98.8501H98.8536H98.8572H98.8607H98.8643H98.8678H98.8714H98.8749H98.8785H98.8821H98.8856H98.8892H98.8928H98.8964H98.8999H98.9035H98.9071H98.9107H98.9143H98.9179H98.9215H98.9251H98.9288H98.9324H98.936H98.9396H98.9432H98.9469H98.9505H98.9542H98.9578H98.9614H98.9651H98.9688H98.9724H98.9761H98.9797H98.9834H98.9871H98.9908H98.9945H98.9981H99.0018H99.0055H99.0092H99.0129H99.0166H99.0204H99.0241H99.0278H99.0315H99.0352H99.039H99.0427H99.0464H99.0502H99.0539H99.0577H99.0614H99.0652H99.069H99.0727H99.0765H99.0803H99.0841H99.0879H99.0916H99.0954H99.0992H99.103H99.1068H99.1107H99.1145H99.1183H99.1221H99.1259H99.1298H99.1336H99.1375H99.1413H99.1452H99.149H99.1529H99.1567H99.1606H99.1645H99.1683H99.1722H99.1761H99.18H99.1839H99.1878H99.1917H99.1956H99.1995H99.2034H99.2074H99.2113H99.2152H99.2192H99.2231H99.227H99.231H99.2349H99.2389H99.2429H99.2468H99.2508H99.2548H99.2588H99.2628H99.2668H99.2708H99.2748H99.2788H99.2828H99.2868H99.2908H99.2948H99.2989H99.3029H99.3069H99.311H99.315H99.3191H99.3232H99.3272H99.3313H99.3354H99.3394H99.3435H99.3476H99.3517H99.3558H99.3599H99.364H99.3681H99.3723H99.3764H99.3805H99.3847H99.3888H99.3929H99.3971H99.4012H99.4054H99.4096H99.4137H99.4179H99.4221H99.4263H99.4305H99.4347H99.4389H99.4431H99.4473H99.4515H99.4557H99.46H99.4642H99.4684H99.4727H99.4769H99.4812H99.4855H99.4897H99.494H99.4983H99.5025H99.5068H99.5111H99.5154H99.5197H99.524H99.5284H99.5327H99.537H99.5413H99.5457H99.55H99.5544H99.5587H99.5631H99.5674H99.5718H99.5762H99.5806H99.585H99.5893H99.5937H99.5981H99.6026H99.607H99.6114H99.6158H99.6203H99.6247H99.6291H99.6336H99.638H99.6425H99.647H99.6514H99.6559H99.6604H99.6649H99.6694H99.6739C120.926 77.4169 138.385 94.8766 138.385 116.128C138.385 137.376 120.673 154.84 99.4175 154.84C78.1658 154.84 60.7061 137.38 60.7061 116.128C60.7061 114.828 60.7093 113.615 60.9475 112.662ZM97.6237 78.4671H97.607L97.5904 78.4682C93.7233 78.726 90.0841 79.2434 86.4351 80.5466L86.4351 80.5465L86.4305 80.5483C76.5677 84.1819 68.5135 91.7109 64.6131 101.586C63.0528 105.229 62.2735 108.87 62.0139 112.505L62.0127 112.523V112.54C62.0127 112.994 61.9588 113.451 61.8975 113.97C61.8943 113.997 61.8911 114.024 61.8879 114.052C61.8237 114.597 61.7563 115.199 61.7563 115.872C61.7563 136.651 78.6386 153.533 99.4175 153.533C120.196 153.533 137.079 136.651 137.079 115.872C137.079 95.1498 120.293 78.5685 99.3535 78.4676V78.4671H99.3535H99.3534H99.3534H99.3533H99.3533H99.3532H99.3532H99.3531H99.353H99.3529H99.3528H99.3528H99.3527H99.3526H99.3525H99.3523H99.3522H99.3521H99.352H99.3518H99.3517H99.3515H99.3514H99.3512H99.351H99.3509H99.3507H99.3505H99.3503H99.3501H99.3499H99.3497H99.3495H99.3493H99.349H99.3488H99.3486H99.3483H99.3481H99.3478H99.3476H99.3473H99.347H99.3468H99.3465H99.3462H99.3459H99.3456H99.3453H99.345H99.3446H99.3443H99.344H99.3436H99.3433H99.3429H99.3426H99.3422H99.3419H99.3415H99.3411H99.3407H99.3403H99.3399H99.3395H99.3391H99.3387H99.3383H99.3379H99.3374H99.337H99.3366H99.3361H99.3357H99.3352H99.3347H99.3343H99.3338H99.3333H99.3328H99.3323H99.3318H99.3313H99.3308H99.3303H99.3298H99.3292H99.3287H99.3281H99.3276H99.327H99.3265H99.3259H99.3253H99.3248H99.3242H99.3236H99.323H99.3224H99.3218H99.3212H99.3206H99.3199H99.3193H99.3187H99.318H99.3174H99.3167H99.3161H99.3154H99.3147H99.314H99.3134H99.3127H99.312H99.3113H99.3106H99.3099H99.3091H99.3084H99.3077H99.3069H99.3062H99.3055H99.3047H99.3039H99.3032H99.3024H99.3016H99.3008H99.3001H99.2993H99.2985H99.2977H99.2968H99.296H99.2952H99.2944H99.2935H99.2927H99.2918H99.291H99.2901H99.2893H99.2884H99.2875H99.2866H99.2857H99.2849H99.284H99.283H99.2821H99.2812H99.2803H99.2794H99.2784H99.2775H99.2765H99.2756H99.2746H99.2737H99.2727H99.2717H99.2707H99.2697H99.2687H99.2677H99.2667H99.2657H99.2647H99.2637H99.2627H99.2616H99.2606H99.2595H99.2585H99.2574H99.2564H99.2553H99.2542H99.2531H99.252H99.2509H99.2498H99.2487H99.2476H99.2465H99.2454H99.2443H99.2431H99.242H99.2408H99.2397H99.2385H99.2374H99.2362H99.235H99.2338H99.2326H99.2315H99.2303H99.229H99.2278H99.2266H99.2254H99.2242H99.2229H99.2217H99.2204H99.2192H99.2179H99.2167H99.2154H99.2141H99.2128H99.2116H99.2103H99.209H99.2077H99.2063H99.205H99.2037H99.2024H99.201H99.1997H99.1984H99.197H99.1956H99.1943H99.1929H99.1915H99.1902H99.1888H99.1874H99.186H99.1846H99.1832H99.1817H99.1803H99.1789H99.1775H99.176H99.1746H99.1731H99.1717H99.1702H99.1687H99.1673H99.1658H99.1643H99.1628H99.1613H99.1583H99.1553H99.1523H99.1493H99.1463H99.1433H99.1403H99.1373H99.1343H99.1313H99.1283H99.1253H99.1223H99.1193H99.1162H99.1132H99.1102H99.1072H99.1042H99.1012H99.0982H99.0952H99.0922H99.0892H99.0862H99.0832H99.0802H99.0772H99.0742H99.0712H99.0682H99.0652H99.0622H99.0592H99.0562H99.0532H99.0502H99.0472H99.0442H99.0412H99.0382H99.0352H99.0322H99.0292H99.0261H99.0231H99.0201H99.0171H99.0141H99.0111H99.0081H99.0051H99.0021H98.9991H98.9961H98.9931H98.9901H98.9871H98.9841H98.9811H98.9781H98.9751H98.9721H98.9691H98.9661H98.9631H98.9601H98.9571H98.9541H98.9511H98.9481H98.9451H98.9421H98.9391H98.9361H98.933H98.93H98.927H98.924H98.921H98.918H98.915H98.912H98.909H98.906H98.903H98.9H98.897H98.894H98.891H98.888H98.885H98.882H98.879H98.876H98.873H98.87H98.867H98.864H98.861H98.858H98.855H98.852H98.849H98.846H98.8429H98.8399H98.8369H98.8339H98.8309H98.8279H98.8249H98.8219H98.8189H98.8159H98.8129H98.8099H98.8069H98.8039H98.8009H98.7979H98.7949H98.7919H98.7889H98.7859H98.7829H98.7799H98.7769H98.7739H98.7709H98.7679H98.7649H98.7619H98.7589H98.7559H98.7529H98.7499H98.7468H98.7438H98.7408H98.7378H98.7348H98.7318H98.7288H98.7258H98.7228H98.7198H98.7168H98.7138H98.7108H98.7078H98.7048H98.7018H98.6988H98.6958H98.6928H98.6898H98.6868H98.6838H98.6808H98.6778H98.6748H98.6718H98.6688H98.6658H98.6628H98.6598H98.6568H98.6538H98.6507H98.6477H98.6447H98.6417H98.6387H98.6357H98.6327H98.6297H98.6267H98.6237H98.6207H98.6177H98.6147H98.6117H98.6087H98.6057H98.6027H98.5997H98.5967H98.5937H98.5907H98.5877H98.5847H98.5817H98.5787H98.5757H98.5727H98.5697H98.5667H98.5637H98.5606H98.5576H98.5546H98.5516H98.5486H98.5456H98.5426H98.5396H98.5366H98.5336H98.5306H98.5276H98.5246H98.5216H98.5186H98.5156H98.5126H98.5096H98.5066H98.5036H98.5006H98.4976H98.4946H98.4916H98.4886H98.4856H98.4826H98.4796H98.4766H98.4736H98.4706H98.4676H98.4646H98.4615H98.4585H98.4555H98.4525H98.4495H98.4465H98.4435H98.4405H98.4375H98.4345H98.4315H98.4285H98.4255H98.4225H98.4195H98.4165H98.4135H98.4105H98.4075H98.4045H98.4015H98.3985H98.3955H98.3925H98.3895H98.3865H98.3835H98.3805H98.3775H98.3745H98.3715H98.3685H98.3654H98.3624H98.3594H98.3564H98.3534H98.3504H98.3474H98.3444H98.3414H98.3384H98.3354H98.3324H98.3294H98.3264H98.3234H98.3204H98.3174H98.3144H98.3114H98.3084H98.3054H98.3024H98.2994H98.2964H98.2934H98.2904H98.2874H98.2844H98.2814H98.2784H98.2754H98.2724H98.2693H98.2663H98.2633H98.2603H98.2573H98.2543H98.2513H98.2483H98.2453H98.2423H98.2393H98.2363H98.2333H98.2303H98.2273H98.2243H98.2213H98.2183H98.2153H98.2123H98.2093H98.2063H98.2033H98.2003H98.1973H98.1943H98.1913H98.1883H98.1853H98.1823H98.1793H98.1762H98.1732H98.1702H98.1672H98.1642H98.1612H98.1582H98.1552H98.1522H98.1492H98.1462H98.1432H98.1402H98.1372H98.1342H98.1312H98.1282H98.1252H98.1222H98.1192H98.1162H98.1132H98.1102H98.1072H98.1042H98.1012H98.0982H98.0952H98.0922H98.0892H98.0862H98.0831H98.0801H98.0771H98.0741H98.0711H98.0681H98.0651H98.0621H98.0591H98.0561H98.0531H98.0501H98.0471H98.0441H98.0411H98.0381H98.0351H98.0321H98.0291H98.0261H98.0231H98.0201H98.0171H98.0141H98.0111H98.0081H98.0051H98.0021H97.9991H97.9961H97.9931H97.9901H97.987H97.984H97.981H97.978H97.975H97.972H97.969H97.966H97.963H97.96H97.957H97.954H97.951H97.948H97.945H97.942H97.939H97.936H97.933H97.93H97.927H97.924H97.921H97.918H97.915H97.912H97.909H97.906H97.903H97.9H97.8969H97.8939H97.8909H97.8879H97.8849H97.8819H97.8789H97.8759H97.8729H97.8699H97.8669H97.8639H97.8609H97.8579H97.8549H97.8519H97.8489H97.8459H97.8429H97.8399H97.8369H97.8339H97.8309H97.8279H97.8249H97.8219H97.8189H97.8159H97.8129H97.8099H97.8069H97.8039H97.8008H97.7978H97.7948H97.7918H97.7888H97.7858H97.7828H97.7798H97.7768H97.7738H97.7708H97.7678H97.7648H97.7618H97.7588H97.7558H97.7528H97.7498H97.7468H97.7438H97.7408H97.7378H97.7348H97.7318H97.7288H97.7258H97.7228H97.7198H97.7168H97.7138H97.7108H97.7077H97.7047H97.7017H97.6987H97.6957H97.6927H97.6897H97.6867H97.6837H97.6807H97.6777H97.6747H97.6717H97.6687H97.6657H97.6627H97.6597H97.6567H97.6537H97.6507H97.6477H97.6447H97.6417H97.6387H97.6357H97.6327H97.6297H97.6267H97.6237Z" fill="#F0F0F0" stroke="#F0F0F0"/>
<circle cx="99.6671" cy="115.934" r="37.3759" fill="black"/>
<path d="M89.0149 68.6922L89.0149 68.6922L89.0225 68.6905C92.304 67.9332 95.8508 67.6781 99.4177 67.6781C126.308 67.6781 148.124 89.4947 148.124 116.385C148.124 143.017 126.309 164.835 99.4177 164.835C72.5277 164.835 50.7112 143.018 50.7112 116.128V116.124V116.119V116.115V116.11V116.106V116.101V116.097V116.092V116.088V116.083V116.079V116.074V116.07V116.065V116.061V116.056V116.052V116.047V116.043V116.038V116.034V116.029V116.025V116.02V116.016V116.011V116.007V116.002V115.998V115.993V115.989V115.984V115.98V115.975V115.971V115.966V115.962V115.957V115.953V115.948V115.944V115.939V115.935V115.93V115.926V115.921V115.917V115.912V115.908V115.903V115.899V115.894V115.89V115.885V115.881V115.876V115.872V115.867V115.863V115.858V115.854V115.849V115.845V115.84V115.836V115.831V115.827V115.822V115.818V115.813V115.809V115.804V115.8V115.795V115.791V115.786V115.781V115.777V115.772V115.768V115.763V115.759V115.754V115.75V115.745V115.741V115.736V115.732V115.727V115.723V115.718V115.714V115.709V115.705V115.7V115.696V115.691V115.687V115.682V115.678V115.673V115.669V115.664V115.66V115.655V115.651V115.646V115.642V115.637V115.633V115.628V115.624V115.619V115.615V115.61V115.606V115.601V115.597V115.592V115.588V115.583V115.579V115.574V115.57V115.565V115.561V115.556V115.552V115.547V115.543V115.538V115.534V115.529V115.525V115.52V115.516V115.511V115.507V115.502V115.498V115.493V115.489V115.484V115.48V115.475V115.471V115.466V115.462V115.457V115.453V115.448V115.444V115.439V115.435V115.43V115.426V115.421V115.417V115.412V115.408V115.403V115.399V115.394V115.39V115.385V115.381V115.376V115.372V115.367V115.363V115.358V115.354V115.349V115.345V115.34V115.336V115.331V115.326V115.322V115.317V115.313V115.308V115.304V115.299V115.295V115.29V115.286V115.281V115.277V115.272V115.268V115.263V115.259V115.254V115.25V115.245V115.241V115.236V115.232V115.227V115.223V115.218V115.214V115.209V115.205V115.2V115.196V115.191V115.187V115.182V115.178V115.173V115.169V115.164V115.16V115.155V115.151V115.146V115.142V115.137V115.133V115.128V115.124V115.119V115.115V115.11V115.106V115.101V115.097V115.092V115.088V115.083V115.079V115.074V115.07V115.065V115.061V115.056V115.052V115.047V115.043V115.038V115.034V115.029V115.025V115.02V115.016V115.011V115.007V115.002V114.998V114.993V114.989V114.984V114.98V114.975V114.971V114.966V114.962V114.957V114.953V114.948V114.944V114.939V114.935V114.93V114.926V114.921V114.917V114.912V114.908V114.903V114.899V114.894V114.89V114.885V114.881V114.876V114.871V114.867V114.862V114.858V114.853V114.849V114.844V114.84V114.835V114.831V114.826V114.822V114.817V114.813V114.808V114.804V114.799V114.795V114.79V114.786V114.781V114.777V114.772V114.768V114.763V114.759V114.754V114.75V114.745V114.741V114.736V114.732V114.727V114.723V114.718V114.714V114.709V114.705V114.7V114.696V114.691V114.687V114.682V114.678V114.673V114.669V114.664V114.66V114.655V114.651V114.646V114.642V114.637V114.633V114.628V114.624V114.619V114.615V114.61V114.606V114.601V114.597V114.592V114.588V114.583V114.579V114.574V114.57V114.565V114.561V114.556V114.552V114.547V114.543V114.538V114.534V114.529V114.525V114.52V114.516V114.511V114.507V114.502V114.498V114.493V114.489V114.484V114.48V114.475V114.471V114.466V114.462V114.457V114.453V114.448V114.444V114.439V114.435V114.43V114.426V114.421V114.416V114.412V114.407V114.403V114.398V114.394V114.389V114.385V114.38V114.376V114.371V114.367V114.362V114.358V114.353V114.349V114.344V114.34V114.335V114.331V114.326V114.322V114.317V114.313V114.308V114.304V114.299V114.295V114.29V114.286V114.281V114.277V114.272V114.268V114.263V114.259V114.254V114.25V114.245V114.241V114.236V114.232V114.227V114.223V114.218V114.214V114.209V114.205V114.2V114.196V114.191V114.187V114.182V114.178V114.173V114.169V114.164V114.16V114.155V114.151V114.146V114.142V114.137V114.133V114.128V114.124V114.119V114.115V114.11V114.106V114.101V114.097V114.092V114.088V114.083V114.079V114.074V114.07V114.065V114.061V114.056V114.052V114.047V114.043V114.038V114.034V114.029V114.025V114.02V114.016V114.011V114.007V114.002V113.998V113.993V113.989V113.984V113.98V113.975V113.971V113.966V113.961V113.957V113.952V113.948V113.943V113.939V113.934V113.93V113.925V113.921V113.916V113.912V113.907V113.903V113.898V113.894V113.889V113.885V113.88V113.876V113.871V113.867V113.862V113.858V113.853V113.849V113.844V113.84V113.84C50.9659 110.287 51.4735 106.989 52.2345 103.69C56.8013 86.1948 71.2595 72.4969 89.0149 68.6922ZM97.6238 78.4672H97.6072L97.5906 78.4683C93.7235 78.7261 90.0843 79.2434 86.4353 80.5466L86.4306 80.5483C76.5679 84.182 68.5137 91.7109 64.6133 101.586C63.0529 105.229 62.2737 108.87 62.0141 112.505L62.0129 112.523V112.54C62.0129 112.994 61.959 113.451 61.8977 113.97L61.8881 114.052C61.8239 114.597 61.7565 115.199 61.7565 115.872C61.7565 136.651 78.6388 153.533 99.4177 153.533C120.197 153.533 137.079 136.651 137.079 115.872C137.079 95.1498 120.293 78.5685 99.3537 78.4676V78.4672H99.3536H99.3536H99.3535H99.3535H99.3535H99.3534H99.3533H99.3533H99.3532H99.3531H99.353H99.3529H99.3528H99.3527H99.3526H99.3525H99.3524H99.3523H99.3521H99.352H99.3519H99.3517H99.3516H99.3514H99.3512H99.3511H99.3509H99.3507H99.3505H99.3503H99.3501H99.3499H99.3497H99.3495H99.3492H99.349H99.3488H99.3485H99.3483H99.348H99.3478H99.3475H99.3472H99.3469H99.3466H99.3464H99.3461H99.3458H99.3455H99.3451H99.3448H99.3445H99.3442H99.3438H99.3435H99.3431H99.3428H99.3424H99.3421H99.3417H99.3413H99.3409H99.3405H99.3401H99.3397H99.3393H99.3389H99.3385H99.3381H99.3376H99.3372H99.3368H99.3363H99.3358H99.3354H99.3349H99.3344H99.334H99.3335H99.333H99.3325H99.332H99.3315H99.331H99.3305H99.3299H99.3294H99.3289H99.3283H99.3278H99.3272H99.3267H99.3261H99.3255H99.3249H99.3244H99.3238H99.3232H99.3226H99.322H99.3214H99.3207H99.3201H99.3195H99.3188H99.3182H99.3176H99.3169H99.3162H99.3156H99.3149H99.3142H99.3135H99.3129H99.3122H99.3115H99.3108H99.31H99.3093H99.3086H99.3079H99.3071H99.3064H99.3056H99.3049H99.3041H99.3034H99.3026H99.3018H99.301H99.3002H99.2994H99.2986H99.2978H99.297H99.2962H99.2954H99.2946H99.2937H99.2929H99.292H99.2912H99.2903H99.2894H99.2886H99.2877H99.2868H99.2859H99.285H99.2841H99.2832H99.2823H99.2814H99.2805H99.2795H99.2786H99.2777H99.2767H99.2758H99.2748H99.2738H99.2729H99.2719H99.2709H99.2699H99.2689H99.2679H99.2669H99.2659H99.2649H99.2639H99.2628H99.2618H99.2608H99.2597H99.2587H99.2576H99.2565H99.2555H99.2544H99.2533H99.2522H99.2511H99.25H99.2489H99.2478H99.2467H99.2456H99.2444H99.2433H99.2422H99.241H99.2399H99.2387H99.2375H99.2364H99.2352H99.234H99.2328H99.2316H99.2304H99.2292H99.228H99.2268H99.2256H99.2243H99.2231H99.2219H99.2206H99.2194H99.2181H99.2169H99.2156H99.2143H99.213H99.2117H99.2104H99.2091H99.2078H99.2065H99.2052H99.2039H99.2026H99.2012H99.1999H99.1985H99.1972H99.1958H99.1945H99.1931H99.1917H99.1903H99.189H99.1876H99.1862H99.1848H99.1833H99.1819H99.1805H99.1791H99.1776H99.1762H99.1748H99.1733H99.1718H99.1704H99.1689H99.1674H99.166H99.1645H99.163H99.1615H99.1585H99.1555H99.1525H99.1495H99.1465H99.1435H99.1405H99.1375H99.1344H99.1314H99.1284H99.1254H99.1224H99.1194H99.1164H99.1134H99.1104H99.1074H99.1044H99.1014H99.0984H99.0954H99.0924H99.0894H99.0864H99.0834H99.0804H99.0774H99.0744H99.0714H99.0684H99.0654H99.0624H99.0594H99.0564H99.0534H99.0504H99.0474H99.0443H99.0413H99.0383H99.0353H99.0323H99.0293H99.0263H99.0233H99.0203H99.0173H99.0143H99.0113H99.0083H99.0053H99.0023H98.9993H98.9963H98.9933H98.9903H98.9873H98.9843H98.9813H98.9783H98.9753H98.9723H98.9693H98.9663H98.9633H98.9603H98.9573H98.9543H98.9512H98.9482H98.9452H98.9422H98.9392H98.9362H98.9332H98.9302H98.9272H98.9242H98.9212H98.9182H98.9152H98.9122H98.9092H98.9062H98.9032H98.9002H98.8972H98.8942H98.8912H98.8882H98.8852H98.8822H98.8792H98.8762H98.8732H98.8702H98.8672H98.8642H98.8612H98.8582H98.8551H98.8521H98.8491H98.8461H98.8431H98.8401H98.8371H98.8341H98.8311H98.8281H98.8251H98.8221H98.8191H98.8161H98.8131H98.8101H98.8071H98.8041H98.8011H98.7981H98.7951H98.7921H98.7891H98.7861H98.7831H98.7801H98.7771H98.7741H98.7711H98.7681H98.765H98.762H98.759H98.756H98.753H98.75H98.747H98.744H98.741H98.738H98.735H98.732H98.729H98.726H98.723H98.72H98.717H98.714H98.711H98.708H98.705H98.702H98.699H98.696H98.693H98.69H98.687H98.684H98.681H98.678H98.675H98.672H98.6689H98.6659H98.6629H98.6599H98.6569H98.6539H98.6509H98.6479H98.6449H98.6419H98.6389H98.6359H98.6329H98.6299H98.6269H98.6239H98.6209H98.6179H98.6149H98.6119H98.6089H98.6059H98.6029H98.5999H98.5969H98.5939H98.5909H98.5879H98.5849H98.5819H98.5789H98.5759H98.5728H98.5698H98.5668H98.5638H98.5608H98.5578H98.5548H98.5518H98.5488H98.5458H98.5428H98.5398H98.5368H98.5338H98.5308H98.5278H98.5248H98.5218H98.5188H98.5158H98.5128H98.5098H98.5068H98.5038H98.5008H98.4978H98.4948H98.4918H98.4888H98.4858H98.4828H98.4797H98.4767H98.4737H98.4707H98.4677H98.4647H98.4617H98.4587H98.4557H98.4527H98.4497H98.4467H98.4437H98.4407H98.4377H98.4347H98.4317H98.4287H98.4257H98.4227H98.4197H98.4167H98.4137H98.4107H98.4077H98.4047H98.4017H98.3987H98.3957H98.3927H98.3897H98.3867H98.3836H98.3806H98.3776H98.3746H98.3716H98.3686H98.3656H98.3626H98.3596H98.3566H98.3536H98.3506H98.3476H98.3446H98.3416H98.3386H98.3356H98.3326H98.3296H98.3266H98.3236H98.3206H98.3176H98.3146H98.3116H98.3086H98.3056H98.3026H98.2996H98.2966H98.2936H98.2906H98.2875H98.2845H98.2815H98.2785H98.2755H98.2725H98.2695H98.2665H98.2635H98.2605H98.2575H98.2545H98.2515H98.2485H98.2455H98.2425H98.2395H98.2365H98.2335H98.2305H98.2275H98.2245H98.2215H98.2185H98.2155H98.2125H98.2095H98.2065H98.2035H98.2005H98.1975H98.1945H98.1914H98.1884H98.1854H98.1824H98.1794H98.1764H98.1734H98.1704H98.1674H98.1644H98.1614H98.1584H98.1554H98.1524H98.1494H98.1464H98.1434H98.1404H98.1374H98.1344H98.1314H98.1284H98.1254H98.1224H98.1194H98.1164H98.1134H98.1104H98.1074H98.1044H98.1014H98.0984H98.0953H98.0923H98.0893H98.0863H98.0833H98.0803H98.0773H98.0743H98.0713H98.0683H98.0653H98.0623H98.0593H98.0563H98.0533H98.0503H98.0473H98.0443H98.0413H98.0383H98.0353H98.0323H98.0293H98.0263H98.0233H98.0203H98.0173H98.0143H98.0113H98.0083H98.0052H98.0022H97.9992H97.9962H97.9932H97.9902H97.9872H97.9842H97.9812H97.9782H97.9752H97.9722H97.9692H97.9662H97.9632H97.9602H97.9572H97.9542H97.9512H97.9482H97.9452H97.9422H97.9392H97.9362H97.9332H97.9302H97.9272H97.9242H97.9212H97.9182H97.9152H97.9122H97.9091H97.9061H97.9031H97.9001H97.8971H97.8941H97.8911H97.8881H97.8851H97.8821H97.8791H97.8761H97.8731H97.8701H97.8671H97.8641H97.8611H97.8581H97.8551H97.8521H97.8491H97.8461H97.8431H97.8401H97.8371H97.8341H97.8311H97.8281H97.8251H97.8221H97.819H97.816H97.813H97.81H97.807H97.804H97.801H97.798H97.795H97.792H97.789H97.786H97.783H97.78H97.777H97.774H97.771H97.768H97.765H97.762H97.759H97.756H97.753H97.75H97.747H97.744H97.741H97.738H97.735H97.732H97.729H97.7259H97.7229H97.7199H97.7169H97.7139H97.7109H97.7079H97.7049H97.7019H97.6989H97.6959H97.6929H97.6899H97.6869H97.6839H97.6809H97.6779H97.6749H97.6719H97.6689H97.6659H97.6629H97.6599H97.6569H97.6539H97.6509H97.6479H97.6449H97.6419H97.6389H97.6358H97.6328H97.6298H97.6268H97.6238Z" fill="#F0F0F0" stroke="#F0F0F0"/>
<path d="M63.0459 177.814C63.0459 177.814 14.3519 161.155 14.3519 134.501H0L20.2465 114.255L40.4929 134.501H24.6032C24.6032 155.773 63.0459 177.814 63.0459 177.814Z" fill="#F0F0F0"/>
<path d="M63.0459 177.814C63.0459 177.814 14.3519 161.155 14.3519 134.501H0L20.2465 114.255L40.4929 134.501H24.6032C24.6032 155.773 63.0459 177.814 63.0459 177.814Z" stroke="#F0F0F0"/>
<path d="M83.4169 0C83.4169 0 132.111 16.6585 132.111 43.312H146.463L126.216 63.5585L105.97 43.312H121.86C121.86 22.0404 83.4169 0 83.4169 0Z" fill="#F0F0F0"/>
<path d="M83.4169 0C83.4169 0 132.111 16.6585 132.111 43.312H146.463L126.216 63.5585L105.97 43.312H121.86C121.86 22.0404 83.4169 0 83.4169 0Z" stroke="#F0F0F0"/>
<path d="M99.656 166.471C127.46 166.471 149.996 143.974 149.992 116.224C149.987 88.4732 127.444 65.9769 99.6397 65.9769C71.8355 65.9769 49.2993 88.4732 49.3038 116.224C49.3083 143.974 71.8517 166.471 99.656 166.471Z" fill="#DEDEDE"/>
<path d="M99.6504 160.38C124.088 160.38 143.899 140.611 143.899 116.224C143.899 91.837 124.088 72.0675 99.6504 72.0675C75.2124 72.0675 55.4015 91.837 55.4015 116.224C55.4015 140.611 75.2124 160.38 99.6504 160.38Z" fill="#192432"/>
<path d="M99.5773 103.692C104.12 103.692 107.803 100.022 107.803 95.4949C107.803 90.9677 104.12 87.2978 99.5773 87.2978C95.0343 87.2978 91.3514 90.9677 91.3514 95.4949C91.3514 100.022 95.0343 103.692 99.5773 103.692Z" fill="#DEDEDE"/>
<path fill-rule="evenodd" clip-rule="evenodd" d="M112.058 93.2844L87.3803 97.383L87.1151 95.7866L111.793 91.688L112.058 93.2844Z" fill="#DEDEDE"/>
<path d="M100.613 122.134C102.317 122.134 103.698 120.758 103.698 119.06C103.698 117.363 102.317 115.986 100.613 115.986C98.9097 115.986 97.5286 117.363 97.5286 119.06C97.5286 120.758 98.9097 122.134 100.613 122.134Z" fill="#DEDEDE"/>
<path d="M129.401 99.5935C129.969 99.5935 130.43 99.1348 130.43 98.5689C130.43 98.003 129.969 97.5442 129.401 97.5442C128.834 97.5442 128.373 98.003 128.373 98.5689C128.373 99.1348 128.834 99.5935 129.401 99.5935Z" fill="#DEDEDE"/>
<path d="M124.088 121.971C124.353 121.971 124.568 121.757 124.568 121.492C124.568 121.228 124.353 121.013 124.088 121.013C123.824 121.013 123.609 121.228 123.609 121.492C123.609 121.757 123.824 121.971 124.088 121.971Z" fill="#DEDEDE"/>
<path d="M63.6954 117.181C63.9601 117.181 64.1747 116.967 64.1747 116.703C64.1747 116.438 63.9601 116.224 63.6954 116.224C63.4306 116.224 63.216 116.438 63.216 116.703C63.216 116.967 63.4306 117.181 63.6954 117.181Z" fill="#DEDEDE"/>
<path d="M92.4566 80.7894C92.7213 80.7894 92.9359 80.575 92.9359 80.3106C92.9359 80.0461 92.7213 79.8317 92.4566 79.8317C92.1918 79.8317 91.9772 80.0461 91.9772 80.3106C91.9772 80.575 92.1918 80.7894 92.4566 80.7894Z" fill="#DEDEDE"/>
<path d="M103.962 140.166C104.227 140.166 104.442 139.951 104.442 139.687C104.442 139.422 104.227 139.208 103.962 139.208C103.698 139.208 103.483 139.422 103.483 139.687C103.483 139.951 103.698 140.166 103.962 140.166Z" fill="#DEDEDE"/>
<path d="M94.4359 152.875C95.0038 152.875 95.4641 152.416 95.4641 151.85C95.4641 151.284 95.0038 150.826 94.4359 150.826C93.868 150.826 93.4077 151.284 93.4077 151.85C93.4077 152.416 93.868 152.875 94.4359 152.875Z" fill="#DEDEDE"/>
<path d="M124.262 144.678C126.533 144.678 128.375 142.843 128.375 140.579C128.375 138.316 126.533 136.481 124.262 136.481C121.99 136.481 120.149 138.316 120.149 140.579C120.149 142.843 121.99 144.678 124.262 144.678Z" fill="#DEDEDE"/>
<path d="M75.8032 136.633C76.939 136.633 77.8597 135.715 77.8597 134.584C77.8597 133.452 76.939 132.534 75.8032 132.534C74.6674 132.534 73.7467 133.452 73.7467 134.584C73.7467 135.715 74.6674 136.633 75.8032 136.633Z" fill="#DEDEDE"/>
<path d="M76.9662 105.741C78.1019 105.741 79.0226 104.824 79.0226 103.692C79.0226 102.56 78.1019 101.643 76.9662 101.643C75.8304 101.643 74.9097 102.56 74.9097 103.692C74.9097 104.824 75.8304 105.741 76.9662 105.741Z" fill="#DEDEDE"/>
<defs>
<clipPath id="clip0_1_209">
<rect width="74.7517" height="74.7517" fill="white" transform="translate(13.3342 28.022)"/>
</clipPath>
</defs>
</svg>
