<svg width="100" height="97" viewBox="0 0 100 97" fill="none" xmlns="http://www.w3.org/2000/svg">
<path d="M29.2876 40.9775L21.3721 48.8271H2.96834L0 40.9775H29.2876Z" fill="#F0A800"/>
<path d="M37.2029 72.5738H12.005L8.9707 64.6582H29.2873L37.2029 72.5738Z" fill="#F0A800"/>
<path d="M62.8623 72.5742L49.9994 85.437L37.1366 72.5742H26.5166L49.9994 96.0571L73.4823 72.5742H62.8623Z" fill="#F0A800"/>
<path d="M100 40.9775L97.0316 48.8271H78.6939L70.7783 40.9775H100Z" fill="#F0A800"/>
<path d="M91.0286 64.6582L88.0602 72.5738H62.8623L70.7779 64.6582H91.0286Z" fill="#F0A800"/>
<path d="M85.8183 0.0146484V16.7033L71.5043 31.0173L65.7655 25.2785H34.367L29.2879 30.3577L13.8525 14.9223V0.0146484H85.8183Z" fill="#182535"/>
<path d="M44.9863 25.2783L29.2871 40.9775H18.667L29.2871 30.3575L34.3662 25.2783H44.9863Z" fill="#F0A800"/>
<path d="M81.4643 40.9775H70.7783L55.0791 25.2783H65.7651L71.5039 31.0171L81.4643 40.9775Z" fill="#F0A800"/>
<path d="M94.0633 56.7432L91.029 64.6587H70.7783L78.6939 56.7432H94.0633Z" fill="#182535"/>
<path d="M97.0321 48.8271L94.0637 56.7427H78.6943L82.6521 52.7849L78.6943 48.8271H97.0321Z" fill="#182535"/>
<path d="M17.4137 52.7849L21.3715 56.7427H6.00208L2.96777 48.8271H21.3715L17.4137 52.7849Z" fill="#182535"/>
<path d="M29.2879 64.6587H8.97127L6.00293 56.7432H21.3723L29.2879 64.6587Z" fill="#182535"/>
<path d="M78.6938 48.8272L55.079 25.2783H44.9866L29.2874 40.9776L21.3718 48.8931L17.4141 52.8509L37.137 72.5739L49.9998 85.4367L62.8626 72.5739L70.7782 64.6583L82.5856 52.8509L78.6938 48.8272ZM49.9998 76.7295L45.8441 72.5739L37.9286 64.6583L26.0552 52.8509L38.8521 40.0541L49.9339 28.9723L61.7412 40.7797L62.0051 41.0435L69.9207 48.9591L73.8785 52.9169L49.9998 76.7295Z" fill="#FFBB00"/>
<path d="M73.9443 52.7854L49.9997 76.73L45.8441 72.5743L37.9285 64.6587L26.1211 52.7854L38.918 39.9886L49.9997 28.9067L61.8072 40.7141L62.137 40.978L69.9866 48.8276L73.9443 52.7854Z" fill="#182535"/>
<path d="M42.93 58.8837C42.93 59.2556 42.6096 59.5531 42.2091 59.5531C41.8087 59.5531 41.4883 59.2556 41.4883 58.8837C41.4883 58.5119 41.8087 58.2144 42.2091 58.2144C42.6096 58.2144 42.93 58.5119 42.93 58.8837Z" fill="#DEDEDE"/>
<path d="M42.5698 49.5638C42.9394 49.5638 43.2391 49.2641 43.2391 48.8945C43.2391 48.5248 42.9394 48.2251 42.5698 48.2251C42.2001 48.2251 41.9004 48.5248 41.9004 48.8945C41.9004 49.2641 42.2001 49.5638 42.5698 49.5638Z" fill="#DEDEDE"/>
<path d="M47.4619 41.3766C47.4619 41.2994 47.5392 41.2222 47.6164 41.2222C47.6936 41.2222 47.7709 41.2994 47.7709 41.3766C47.7709 41.4539 47.6936 41.5311 47.6164 41.5311C47.5392 41.5311 47.4619 41.4539 47.4619 41.3766Z" fill="#DEDEDE"/>
<path d="M48.5935 64.496C48.5935 64.6504 48.439 64.8049 48.2845 64.8049C48.1301 64.8049 47.9756 64.6504 47.9756 64.496C47.9756 64.3415 48.1301 64.187 48.2845 64.187C48.439 64.187 48.5935 64.3415 48.5935 64.496Z" fill="#DEDEDE"/>
<path d="M51.1685 53.8377C51.1685 54.3645 50.717 54.816 50.1902 54.816C49.6634 54.816 49.2119 54.3645 49.2119 53.8377C49.2119 53.3109 49.6634 52.8594 50.1902 52.8594C50.7923 52.8594 51.1685 53.3109 51.1685 53.8377Z" fill="#DEDEDE"/>
<path d="M51.4779 60.5314C51.4779 60.6087 51.4006 60.6859 51.3234 60.6859C51.2462 60.6859 51.1689 60.6087 51.1689 60.5314C51.1689 60.4542 51.2462 60.377 51.3234 60.377C51.4006 60.377 51.4779 60.4542 51.4779 60.5314Z" fill="#DEDEDE"/>
<path d="M53.9489 45.7333L52.5043 45.9628C52.5043 46.0393 52.5043 46.1923 52.5043 46.2688C52.5043 47.7223 51.2878 48.9463 49.8432 48.9463C48.5506 48.9463 47.4862 48.0283 47.2581 46.8043L45.9655 47.0338L45.8135 46.1923L47.2581 45.9628C47.4102 44.6623 48.5506 43.5913 49.9192 43.5913C50.9837 43.5913 51.8961 44.2033 52.2762 45.1213L53.7969 44.8918L53.9489 45.7333Z" fill="#DEDEDE"/>
<path d="M57.6562 54.6613C57.6562 54.5841 57.7335 54.5069 57.8107 54.5069C57.888 54.5069 57.9652 54.5841 57.9652 54.6613C57.9652 54.7386 57.888 54.8158 57.8107 54.8158C57.7335 54.8158 57.6562 54.7386 57.6562 54.6613Z" fill="#DEDEDE"/>
<path d="M57.8107 62.1277C58.5216 62.1277 59.0979 61.5514 59.0979 60.8405C59.0979 60.1295 58.5216 59.5532 57.8107 59.5532C57.0998 59.5532 56.5234 60.1295 56.5234 60.8405C56.5234 61.5514 57.0998 62.1277 57.8107 62.1277Z" fill="#DEDEDE"/>
<path d="M59.9216 47.1952C59.9216 47.3496 59.7671 47.5041 59.6127 47.5041C59.4582 47.5041 59.3037 47.3496 59.3037 47.1952C59.3037 47.0407 59.4582 46.8862 59.6127 46.8862C59.7671 46.8862 59.9216 47.0407 59.9216 47.1952Z" fill="#DEDEDE"/>
<path d="M49.8815 36.6914C40.8961 36.6914 33.6621 43.9484 33.6621 52.9623C33.6621 61.9762 40.8961 69.2332 49.8815 69.2332C58.8669 69.2332 66.1009 61.9762 66.1009 52.9623C66.1009 43.9484 58.8669 36.6914 49.8815 36.6914ZM49.8815 67.2471C42.0383 67.2471 35.6419 60.8304 35.6419 52.9623C35.6419 45.0942 42.0383 38.6775 49.8815 38.6775C57.7247 38.6775 64.1211 45.0942 64.1211 52.9623C64.1972 60.8304 57.8009 67.2471 49.8815 67.2471Z" fill="#DEDEDE"/>
<path d="M49.8806 38.6479C42.0248 38.6479 35.6182 45.0548 35.6182 52.9107C35.6182 60.7667 42.0248 67.1735 49.8806 67.1735C57.7364 67.1735 64.1431 60.7667 64.1431 52.9107C64.2193 45.0548 57.8127 38.6479 49.8806 38.6479ZM57.8127 54.4362C57.8889 54.4362 57.9652 54.5124 57.9652 54.5887C57.9652 54.665 57.8889 54.7412 57.8127 54.7412C57.7364 54.7412 57.6601 54.665 57.6601 54.5887C57.6601 54.5124 57.7364 54.4362 57.8127 54.4362ZM47.5925 41.1649C47.6688 41.1649 47.7451 41.2412 47.7451 41.3175C47.7451 41.3937 47.6688 41.47 47.5925 41.47C47.5163 41.47 47.44 41.3937 47.44 41.3175C47.44 41.2412 47.5163 41.1649 47.5925 41.1649ZM42.1774 59.4701C41.796 59.4701 41.4909 59.165 41.4909 58.7836C41.4909 58.4023 41.796 58.0972 42.1774 58.0972C42.5587 58.0972 42.8638 58.4023 42.8638 58.7836C42.8638 59.2413 42.5587 59.4701 42.1774 59.4701ZM42.5587 49.5548C42.1774 49.5548 41.8723 49.2497 41.8723 48.8683C41.8723 48.487 42.1774 48.1819 42.5587 48.1819C42.9401 48.1819 43.2451 48.487 43.2451 48.8683C43.2451 49.2497 42.9401 49.5548 42.5587 49.5548ZM48.2027 64.7328C48.0501 64.7328 47.8976 64.5803 47.8976 64.4277C47.8976 64.2752 48.0501 64.1227 48.2027 64.1227C48.3552 64.1227 48.5078 64.2752 48.5078 64.4277C48.584 64.5803 48.4315 64.7328 48.2027 64.7328ZM50.1857 54.8175C49.6518 54.8175 49.1942 54.3599 49.1942 53.826C49.1942 53.2921 49.6518 52.8345 50.1857 52.8345C50.7196 52.8345 51.1772 53.2921 51.1772 53.826C51.1772 54.3599 50.7958 54.8175 50.1857 54.8175ZM51.3297 60.6142C51.2535 60.6142 51.1772 60.5379 51.1772 60.4616C51.1772 60.3853 51.2535 60.3091 51.3297 60.3091C51.406 60.3091 51.4823 60.3853 51.4823 60.4616C51.4823 60.6142 51.406 60.6142 51.3297 60.6142ZM52.5501 46.1988C52.5501 47.648 51.3297 48.8683 49.8806 48.8683C48.584 48.8683 47.5162 47.9531 47.2874 46.7327L45.9909 46.9615L45.8383 46.1226L47.2874 45.8938C47.44 44.5971 48.584 43.5293 49.9569 43.5293C51.0247 43.5293 51.9399 44.1395 52.3212 45.0548L53.8466 44.8259L53.9992 45.6649L52.5501 45.8938C52.5501 45.97 52.5501 46.1226 52.5501 46.1988ZM57.8127 62.1396C57.05 62.1396 56.5161 61.5294 56.5161 60.843C56.5161 60.0803 57.1262 59.5464 57.8127 59.5464C58.5754 59.5464 59.1093 60.1565 59.1093 60.843C59.1855 61.5294 58.5754 62.1396 57.8127 62.1396ZM59.4906 47.4954C59.3381 47.4954 59.1855 47.3429 59.1855 47.1904C59.1855 47.0378 59.3381 46.8853 59.4906 46.8853C59.6431 46.8853 59.7957 47.0378 59.7957 47.1904C59.872 47.4192 59.7194 47.4954 59.4906 47.4954Z" fill="#182535"/>
<path d="M42.93 58.8837C42.93 59.2556 42.6096 59.5531 42.2091 59.5531C41.8087 59.5531 41.4883 59.2556 41.4883 58.8837C41.4883 58.5119 41.8087 58.2144 42.2091 58.2144C42.6096 58.2144 42.93 58.5119 42.93 58.8837Z" fill="#192432"/>
<path d="M42.5698 49.5638C42.9394 49.5638 43.2391 49.2641 43.2391 48.8945C43.2391 48.5248 42.9394 48.2251 42.5698 48.2251C42.2001 48.2251 41.9004 48.5248 41.9004 48.8945C41.9004 49.2641 42.2001 49.5638 42.5698 49.5638Z" fill="#192432"/>
<path d="M47.4619 41.3766C47.4619 41.2994 47.5392 41.2222 47.6164 41.2222C47.6936 41.2222 47.7709 41.2994 47.7709 41.3766C47.7709 41.4539 47.6936 41.5311 47.6164 41.5311C47.5392 41.5311 47.4619 41.4539 47.4619 41.3766Z" fill="#192432"/>
<path d="M48.5935 64.496C48.5935 64.6504 48.439 64.8049 48.2845 64.8049C48.1301 64.8049 47.9756 64.6504 47.9756 64.496C47.9756 64.3415 48.1301 64.187 48.2845 64.187C48.439 64.187 48.5935 64.3415 48.5935 64.496Z" fill="#192432"/>
<path d="M51.1685 53.8377C51.1685 54.3645 50.717 54.816 50.1902 54.816C49.6634 54.816 49.2119 54.3645 49.2119 53.8377C49.2119 53.3109 49.6634 52.8594 50.1902 52.8594C50.7923 52.8594 51.1685 53.3109 51.1685 53.8377Z" fill="#192432"/>
<path d="M51.4779 60.5314C51.4779 60.6087 51.4006 60.6859 51.3234 60.6859C51.2462 60.6859 51.1689 60.6087 51.1689 60.5314C51.1689 60.4542 51.2462 60.377 51.3234 60.377C51.4006 60.377 51.4779 60.4542 51.4779 60.5314Z" fill="#192432"/>
<path d="M53.9489 45.7333L52.5043 45.9628C52.5043 46.0393 52.5043 46.1923 52.5043 46.2688C52.5043 47.7223 51.2878 48.9463 49.8432 48.9463C48.5506 48.9463 47.4862 48.0283 47.2581 46.8043L45.9655 47.0338L45.8135 46.1923L47.2581 45.9628C47.4102 44.6623 48.5506 43.5913 49.9192 43.5913C50.9837 43.5913 51.8961 44.2033 52.2762 45.1213L53.7969 44.8918L53.9489 45.7333Z" fill="#192432"/>
<path d="M57.6562 54.6613C57.6562 54.5841 57.7335 54.5069 57.8107 54.5069C57.888 54.5069 57.9652 54.5841 57.9652 54.6613C57.9652 54.7386 57.888 54.8158 57.8107 54.8158C57.7335 54.8158 57.6562 54.7386 57.6562 54.6613Z" fill="#192432"/>
<path d="M57.8107 62.1277C58.5216 62.1277 59.0979 61.5514 59.0979 60.8405C59.0979 60.1295 58.5216 59.5532 57.8107 59.5532C57.0998 59.5532 56.5234 60.1295 56.5234 60.8405C56.5234 61.5514 57.0998 62.1277 57.8107 62.1277Z" fill="#192432"/>
<path d="M59.9216 47.1952C59.9216 47.3496 59.7671 47.5041 59.6127 47.5041C59.4582 47.5041 59.3037 47.3496 59.3037 47.1952C59.3037 47.0407 59.4582 46.8862 59.6127 46.8862C59.7671 46.8862 59.9216 47.0407 59.9216 47.1952Z" fill="#192432"/>
<path d="M52.6099 46.2688C52.6099 47.7223 51.3859 48.9463 49.9324 48.9463C48.6319 48.9463 47.5609 48.0283 47.3314 46.8043C47.3314 46.6513 47.2549 46.4218 47.2549 46.2688C47.2549 46.1923 47.2549 46.0393 47.2549 45.9628C47.4079 44.6623 48.5554 43.5913 49.9324 43.5913C51.0034 43.5913 51.9214 44.2033 52.3039 45.1213C52.4569 45.3508 52.5334 45.6568 52.5334 45.9628C52.6099 46.0393 52.6099 46.1923 52.6099 46.2688Z" fill="#DEDEDE"/>
<path d="M53.9489 45.6763L52.5674 45.908L47.2717 46.7575L45.967 46.9892L45.8135 46.1397L47.195 45.908L52.2604 45.0584L53.7954 44.8267L53.9489 45.6763Z" fill="#DEDEDE"/>
<path d="M51.1685 53.8377C51.1685 54.3645 50.717 54.816 50.1902 54.816C49.6634 54.816 49.2119 54.3645 49.2119 53.8377C49.2119 53.3109 49.6634 52.8594 50.1902 52.8594C50.7923 52.8594 51.1685 53.3109 51.1685 53.8377Z" fill="#DEDEDE"/>
<path d="M59.9216 47.1952C59.9216 47.3496 59.7671 47.5041 59.6127 47.5041C59.4582 47.5041 59.3037 47.3496 59.3037 47.1952C59.3037 47.0407 59.4582 46.8862 59.6127 46.8862C59.7671 46.8862 59.9216 47.0407 59.9216 47.1952Z" fill="#DEDEDE"/>
<path d="M57.9652 54.6613C57.9652 54.7386 57.888 54.8158 57.8107 54.8158C57.7335 54.8158 57.6562 54.7386 57.6562 54.6613C57.6562 54.5841 57.7335 54.5069 57.8107 54.5069C57.888 54.5069 57.9652 54.5841 57.9652 54.6613Z" fill="#DEDEDE"/>
<path d="M47.7709 41.3766C47.7709 41.4539 47.6936 41.5311 47.6164 41.5311C47.5392 41.5311 47.4619 41.4539 47.4619 41.3766C47.4619 41.2994 47.5392 41.2222 47.6164 41.2222C47.6936 41.2222 47.7709 41.2994 47.7709 41.3766Z" fill="#DEDEDE"/>
<path d="M51.4779 60.5314C51.4779 60.6087 51.4006 60.6859 51.3234 60.6859C51.2462 60.6859 51.1689 60.6087 51.1689 60.5314C51.1689 60.4542 51.2462 60.377 51.3234 60.377C51.4006 60.377 51.4779 60.4542 51.4779 60.5314Z" fill="#DEDEDE"/>
<path d="M48.5935 64.496C48.5935 64.6504 48.439 64.8049 48.2845 64.8049C48.1301 64.8049 47.9756 64.6504 47.9756 64.496C47.9756 64.3415 48.1301 64.187 48.2845 64.187C48.439 64.187 48.5935 64.3415 48.5935 64.496Z" fill="#DEDEDE"/>
<path d="M57.8107 62.1277C58.5216 62.1277 59.0979 61.5514 59.0979 60.8405C59.0979 60.1295 58.5216 59.5532 57.8107 59.5532C57.0998 59.5532 56.5234 60.1295 56.5234 60.8405C56.5234 61.5514 57.0998 62.1277 57.8107 62.1277Z" fill="#DEDEDE"/>
<path d="M42.93 58.8837C42.93 59.2556 42.6096 59.5531 42.2091 59.5531C41.8087 59.5531 41.4883 59.2556 41.4883 58.8837C41.4883 58.5119 41.8087 58.2144 42.2091 58.2144C42.6096 58.2144 42.93 58.5119 42.93 58.8837Z" fill="#DEDEDE"/>
<path d="M42.5698 49.5638C42.9394 49.5638 43.2391 49.2641 43.2391 48.8945C43.2391 48.5248 42.9394 48.2251 42.5698 48.2251C42.2001 48.2251 41.9004 48.5248 41.9004 48.8945C41.9004 49.2641 42.2001 49.5638 42.5698 49.5638Z" fill="#DEDEDE"/>
</svg>
