<svg width="530" height="756" viewBox="0 0 530 756" fill="none" xmlns="http://www.w3.org/2000/svg">
<g opacity="0.45">
<path d="M390.934 238.304C403.368 265.95 411.17 296.042 413.364 327.847C409.707 328.581 406.294 329.315 402.637 330.294C378.744 335.676 354.12 336.9 329.74 339.835C308.285 342.037 286.587 344.239 264.888 345.462C228.318 346.441 191.747 345.462 155.177 344.973C137.379 344.484 119.582 342.282 102.028 338.857C90.8129 336.9 79.8417 334.453 68.6268 332.985C67.164 332.74 65.7012 333.719 65.4574 335.432C65.2136 336.655 65.945 337.633 66.6764 338.367C65.7012 338.123 64.4821 337.633 63.2631 337.144C62.0441 336.655 61.0689 336.41 59.8499 335.921C59.1185 335.676 58.1433 335.432 57.4119 334.942C56.9243 334.698 56.4366 334.698 55.949 334.453C56.1928 334.208 56.1928 334.208 56.4366 333.964C56.4366 333.964 56.4366 333.719 56.6804 333.719C56.6804 333.719 56.6805 333.474 56.9243 333.474V333.23C56.9243 332.985 56.9243 332.985 56.9243 332.74C56.9243 332.007 56.9242 331.028 56.4366 330.539C55.949 329.805 55.2176 329.56 54.4862 329.315C53.2672 329.071 51.8044 328.826 50.5854 328.581H50.3416C50.0978 328.581 49.854 328.581 49.6102 328.337C49.3664 328.337 49.1226 328.337 48.8788 328.092C48.635 328.092 48.3912 328.092 48.3912 328.092C45.7093 327.603 43.2713 326.869 40.5895 326.379C37.6638 325.646 34.4944 324.912 31.5688 323.933C30.3497 323.688 28.8869 323.199 27.6679 322.71C25.9613 321.976 24.2547 321.242 22.548 320.263C20.5976 319.285 18.6472 318.551 16.6968 317.572C17.1844 317.327 17.672 317.083 18.4034 317.083C18.4034 317.083 18.891 317.083 19.1348 316.838C19.1348 316.838 19.1348 316.838 19.3786 316.838C20.5976 316.593 21.8166 316.104 22.7919 315.859C23.0357 315.859 23.2794 315.859 23.5232 315.615C24.4985 315.37 25.4737 315.125 26.4489 314.881C29.8621 314.391 33.2754 313.902 36.6886 313.658C40.3457 313.168 44.2465 312.924 47.9035 312.434C54.73 311.7 61.8003 311.456 68.6268 310.722C77.8913 309.743 86.912 308.52 95.9327 306.563C104.466 304.85 112.999 302.893 121.532 300.691C130.309 298.489 138.842 296.532 147.619 294.085C156.396 291.639 164.929 289.192 173.706 286.256C181.02 283.81 188.334 281.119 195.892 277.938C199.305 276.47 202.962 275.002 206.375 273.534C208.326 272.556 210.52 271.577 212.471 270.843C214.177 270.109 215.884 269.131 217.834 268.397C218.809 267.907 219.785 267.418 220.76 266.929C221.491 266.439 222.466 266.195 223.198 265.705C225.392 264.482 227.586 263.259 229.781 262.036C233.438 259.834 237.095 257.632 240.508 255.675C248.066 251.026 255.624 246.378 263.425 242.219C267.326 240.017 270.983 237.815 274.884 235.858C279.029 233.656 282.93 231.454 287.074 229.252C288.781 228.274 290.731 227.295 292.438 226.316C294.388 225.338 296.339 224.359 298.289 223.38C302.19 221.423 306.091 219.466 309.992 217.509C310.236 217.509 310.723 217.019 311.454 216.775C312.186 216.286 313.161 216.041 314.136 215.552C317.062 214.084 319.988 212.86 322.913 211.392C325.839 210.169 328.765 208.701 331.69 207.478C334.86 206.255 337.785 204.787 340.955 203.564C342.417 203.074 344.124 202.34 345.587 201.606C347.05 201.117 348.756 200.383 350.219 199.894C351.926 199.404 353.632 198.915 355.339 198.426C357.289 197.937 358.996 197.447 360.947 196.958C362.897 196.469 364.847 195.979 367.042 195.49C375.818 208.701 384.108 223.136 390.934 238.304Z" fill="url(#paint0_linear_211_18834)" fill-opacity="0.74"/>
<path d="M415.314 294.33C415.558 295.553 415.802 296.777 416.046 298C415.802 297.021 415.802 296.043 415.558 295.064C415.314 295.064 415.314 294.575 415.314 294.33Z" fill="url(#paint1_linear_211_18834)" fill-opacity="0.74"/>
<path d="M416.534 302.159C416.778 303.382 417.021 304.361 417.021 305.584C417.021 305.095 416.778 304.605 416.778 304.116C416.778 303.382 416.778 302.648 416.534 302.159Z" fill="url(#paint2_linear_211_18834)" fill-opacity="0.74"/>
<path d="M320.475 146.559C320.475 146.559 320.231 146.559 320.231 146.804C319.5 147.293 319.012 147.538 318.281 148.027C316.331 149.006 314.624 150.229 312.674 151.208C311.698 151.697 310.723 152.431 309.748 152.92C308.285 153.899 306.579 154.878 305.116 155.612C289.756 164.419 275.616 174.939 260.5 184.481C227.586 204.787 187.603 207.233 150.057 210.659C115.437 211.882 80.5731 214.328 45.9531 217.264C86.1806 207.723 124.458 191.331 159.809 170.291C176.632 160.015 191.991 147.538 208.57 137.018C221.491 128.455 234.9 120.137 248.066 112.063C249.285 111.329 250.26 110.595 251.479 110.106C252.21 109.617 252.942 109.128 253.673 108.883C253.917 108.638 254.405 108.394 254.648 108.149C278.541 117.201 300.727 130.412 320.475 146.559Z" fill="url(#paint3_linear_211_18834)" fill-opacity="0.74"/>
<path d="M262.694 475.373C228.561 482.958 194.917 492.01 160.784 499.35C152.495 500.817 144.449 502.041 136.16 503.019C113.974 505.955 91.7879 507.912 69.6018 510.359C53.7547 512.071 37.6637 513.05 21.5727 512.805C20.5975 512.805 19.866 512.805 18.8908 512.805C18.4032 512.805 17.9156 512.805 17.428 512.805C16.6966 512.805 15.9652 512.805 15.2338 512.805C14.0148 512.805 13.0396 512.805 12.0643 512.805C10.8453 512.805 9.62631 512.805 8.4073 512.561C8.1635 512.561 7.91969 512.561 7.67588 512.561C6.70067 512.561 5.72546 512.561 4.75025 512.316C4.26265 512.316 4.01884 512.316 3.53124 512.316C2.06842 512.316 0.605591 512.071 -0.613419 512.071C-2.07624 512.071 -3.53905 511.827 -4.75806 511.827C-5.97708 511.827 -7.43989 511.582 -8.65891 511.582H-8.9027C-10.1217 511.582 -11.5845 511.338 -12.8036 511.093C-13.0474 511.093 -13.2912 511.093 -13.535 511.093C-14.754 510.848 -16.2168 510.848 -17.4358 510.604C-18.6548 510.359 -19.8738 510.359 -21.0928 510.114C-21.8243 510.114 -22.3119 509.87 -23.0433 509.87C-24.0185 509.87 -24.9937 509.625 -25.7251 509.38C-26.2127 509.38 -26.7003 509.136 -27.4317 509.136C-27.6755 509.136 -28.1631 509.136 -28.4069 508.891C-30.1136 508.646 -31.5764 508.402 -33.283 508.157C-33.5268 508.157 -33.7706 508.157 -34.2582 507.912C-34.502 507.912 -34.9896 507.912 -35.4772 507.668C-57.6633 481.001 -74.4857 449.93 -84.4816 415.678C-85.213 412.987 -85.9444 410.296 -86.6758 407.605C-86.9196 406.871 -87.1635 406.137 -87.1635 405.403C-91.7957 386.075 -94.4775 366.014 -94.4775 345.463C-90.0891 347.665 -85.7006 349.622 -81.0684 351.824C-78.3866 353.047 -75.9485 354.27 -73.2667 355.493C-69.3658 357.206 -65.465 359.163 -61.5642 360.876C-59.6137 361.854 -57.6633 362.833 -55.7129 363.567C-53.7625 364.546 -51.812 365.524 -49.8616 366.503C-48.6426 367.237 -47.1798 367.726 -45.9608 368.46C-45.4732 368.705 -44.9856 368.949 -44.4979 369.194C-43.7665 369.683 -42.7913 370.173 -42.0599 370.417C-39.6219 371.641 -36.94 373.108 -34.502 374.332C-27.4317 378.491 -20.1177 382.405 -13.0474 386.075C-10.8531 387.298 -8.65891 388.522 -6.22088 389.5C-5.97707 389.5 -5.73328 389.745 -5.48948 389.745C0.361794 392.681 6.21307 395.861 12.0643 398.797C13.5272 399.531 14.99 400.265 16.4528 400.999C21.3288 403.445 26.2049 405.892 31.3248 408.094C33.7628 409.317 36.2008 410.54 38.6389 411.519C53.5108 418.614 68.3828 425.464 83.4986 432.315C117.387 448.706 153.47 460.939 190.284 468.768C214.177 474.395 238.557 474.884 262.694 475.373Z" fill="url(#paint4_linear_211_18834)" fill-opacity="0.74"/>
<path d="M103.003 595.743C102.028 595.743 101.297 595.743 100.321 595.987C102.028 595.987 103.491 595.743 105.197 595.743C104.466 595.743 103.735 595.743 103.003 595.743Z" fill="url(#paint5_linear_211_18834)" fill-opacity="0.74"/>
<path d="M119.582 602.104C122.995 602.593 126.164 603.082 129.578 603.572C128.846 603.572 128.115 603.327 127.383 603.327C126.164 603.082 124.945 603.082 123.482 602.838C122.02 602.348 120.801 602.348 119.582 602.104Z" fill="url(#paint6_linear_211_18834)" fill-opacity="0.74"/>
<path d="M131.772 603.572C132.747 603.572 133.478 603.816 134.454 603.816C132.747 603.572 131.04 603.572 129.578 603.327C130.309 603.572 131.04 603.572 131.772 603.572Z" fill="url(#paint7_linear_211_18834)" fill-opacity="0.74"/>
<path d="M138.111 604.306C138.355 604.306 138.599 604.306 138.599 604.306C137.379 604.306 136.16 604.061 134.941 604.061C135.917 604.061 137.136 604.306 138.111 604.306Z" fill="url(#paint8_linear_211_18834)" fill-opacity="0.74"/>
<path d="M181.02 604.55C179.801 604.55 178.582 604.795 177.363 604.795C177.85 604.795 178.094 604.795 178.582 604.795C179.313 604.55 180.288 604.55 181.02 604.55Z" fill="url(#paint9_linear_211_18834)" fill-opacity="0.74"/>
<path d="M198.086 602.593C200.036 602.348 201.987 602.104 203.937 601.615C203.206 601.615 202.718 601.859 201.987 601.859C200.524 602.349 199.305 602.348 198.086 602.593Z" fill="url(#paint10_linear_211_18834)" fill-opacity="0.74"/>
<path d="M222.223 597.945C222.467 597.945 222.467 597.945 222.711 597.945C222.223 598.19 221.492 598.19 221.004 598.434C221.492 598.19 221.735 597.945 222.223 597.945Z" fill="url(#paint11_linear_211_18834)" fill-opacity="0.74"/>
<path d="M232.706 595.009C230.268 595.743 227.586 596.477 224.904 597.211C227.586 596.477 230.024 595.743 232.706 595.009Z" fill="url(#paint12_linear_211_18834)" fill-opacity="0.74"/>
<path d="M222.71 597.7C223.442 597.455 224.173 597.211 224.905 597.211C224.173 597.455 223.442 597.7 222.71 597.7Z" fill="url(#paint13_linear_211_18834)" fill-opacity="0.74"/>
<path d="M254.405 587.669C254.892 587.425 255.136 587.425 255.624 587.18C254.892 587.425 254.405 587.669 253.673 587.914C253.917 587.914 254.161 587.669 254.405 587.669Z" fill="url(#paint14_linear_211_18834)" fill-opacity="0.74"/>
<path d="M312.917 546.323C313.649 546.323 314.38 546.078 315.355 546.078C272.446 579.596 218.322 599.412 159.809 599.412C143.718 599.412 127.871 597.945 112.755 595.009C113.974 595.009 114.949 594.764 116.168 594.764C117.387 594.764 118.606 594.519 119.825 594.519C121.532 594.275 123.482 594.03 125.189 594.03C129.09 593.541 132.747 593.051 136.648 592.562C137.379 592.562 138.11 592.318 139.086 592.318C140.305 592.073 141.524 592.073 142.986 591.828C158.59 590.116 173.949 587.669 189.065 583.265C223.198 573.969 255.623 560.268 289.756 551.46C290.975 551.216 292.194 550.971 293.413 550.482C294.144 550.237 295.12 549.993 295.851 549.993C297.07 549.748 298.045 549.503 299.264 549.259C300.727 549.014 302.434 548.525 303.896 548.28C306.578 547.791 309.26 547.301 312.186 546.812C312.186 546.323 312.673 546.323 312.917 546.323Z" fill="url(#paint15_linear_211_18834)" fill-opacity="0.74"/>
<path d="M417.021 304.116C417.021 304.605 417.265 305.095 417.265 305.584C417.021 304.361 416.777 303.137 416.777 302.159C416.777 302.648 416.777 303.382 417.021 304.116ZM415.315 295.309C415.558 296.287 415.802 297.266 415.802 298.244C415.558 297.021 415.315 295.798 415.071 294.575C415.315 294.575 415.315 295.064 415.315 295.309ZM402.637 330.294C378.744 335.676 354.12 336.9 329.74 339.835C308.285 342.037 286.587 344.239 264.888 345.462C228.318 346.441 191.747 345.462 155.177 344.973C137.379 344.484 119.582 342.282 102.028 338.857C90.813 336.9 79.8419 334.453 68.627 332.985C67.1641 332.74 65.7013 333.719 65.4575 335.432C65.2137 336.655 65.9451 337.633 66.6765 338.367C65.7013 338.123 64.4823 337.633 63.2633 337.144C62.0443 336.655 61.0691 336.41 59.85 335.921C59.1186 335.676 58.1434 335.432 57.412 334.942C56.9244 334.698 56.4368 334.698 55.9492 334.453C56.193 334.208 56.193 334.208 56.4368 333.964C56.4368 333.964 56.4368 333.719 56.6806 333.719C56.6806 333.719 56.6806 333.474 56.9244 333.474V333.23C56.9244 333.23 56.9244 333.23 56.9244 332.985V332.74C56.9244 332.007 56.9244 331.028 56.4368 330.539C55.9492 329.805 55.2178 329.56 54.4864 329.315C53.2674 329.071 51.8045 328.826 50.5855 328.581H50.3417C50.0979 328.581 49.8541 328.581 49.6103 328.337C49.3665 328.337 49.1227 328.337 48.8789 328.092C48.6351 328.092 48.3913 328.092 48.3913 328.092C45.7095 327.603 43.2714 326.869 40.5896 326.379C37.664 325.646 34.4945 324.912 31.5689 323.933C30.3499 323.688 28.8871 323.199 27.6681 322.71C25.9614 321.976 24.2548 321.242 22.5482 320.263C20.5978 319.285 18.6474 318.551 16.6969 317.572C17.1845 317.327 17.6721 317.083 18.4035 317.083C18.4035 317.083 18.8912 317.083 19.135 316.838C19.135 316.838 19.135 316.838 19.3788 316.838C20.5978 316.593 21.8168 316.104 22.792 315.859C23.0358 315.859 23.2796 315.859 23.5234 315.615C24.4986 315.37 25.4738 315.125 26.4491 314.881C29.8623 314.391 33.2755 313.902 36.6888 313.658C40.3458 313.168 44.2467 312.924 47.9037 312.434C54.7302 311.7 61.8005 311.456 68.627 310.722C77.8915 309.743 86.9122 308.52 95.9329 306.563C104.466 304.85 112.999 302.893 121.532 300.691C130.309 298.489 138.842 296.532 147.619 294.085C156.396 291.639 164.929 289.192 173.706 286.256C181.02 283.81 188.334 281.119 195.892 277.938C199.305 276.47 202.962 275.002 206.376 273.534C208.326 272.556 210.52 271.577 212.471 270.843C214.177 270.109 215.884 269.131 217.834 268.397C218.81 267.907 219.785 267.418 220.76 266.929C221.491 266.439 222.467 266.195 223.198 265.705C225.392 264.482 227.586 263.259 229.781 262.036C233.438 259.834 237.095 257.632 240.508 255.675C248.066 251.026 255.624 246.378 263.425 242.219C267.326 240.017 270.983 237.815 274.884 235.858C279.029 233.656 282.93 231.454 287.074 229.252C288.781 228.274 290.731 227.295 292.438 226.316C294.388 225.338 296.339 224.359 298.289 223.38C302.19 221.423 306.091 219.466 309.992 217.509C310.236 217.509 310.723 217.019 311.455 216.775C312.186 216.285 313.161 216.041 314.136 215.552C317.062 214.084 319.988 212.86 322.913 211.392C325.839 210.169 328.765 208.701 331.69 207.478C334.86 206.255 337.785 204.787 340.955 203.564C342.418 203.074 344.124 202.34 345.587 201.606C347.05 201.117 348.757 200.383 350.219 199.894C351.926 199.404 353.633 198.915 355.339 198.426C357.29 197.936 358.996 197.447 360.947 196.958C362.897 196.469 364.847 195.979 367.042 195.49C354.12 177.386 338.761 160.994 321.451 146.804C321.451 146.804 321.207 146.804 321.207 147.049C320.475 147.538 319.988 147.783 319.256 148.272C318.281 148.761 317.306 149.251 316.574 149.984C315.599 150.474 314.624 150.963 313.649 151.697C312.674 152.186 311.698 152.92 310.723 153.41C309.26 154.388 307.554 155.367 306.091 156.101C290.731 164.908 276.591 175.428 261.475 184.97C228.562 205.276 188.578 207.723 151.032 211.148C116.412 212.371 81.5485 214.818 46.9285 217.753C87.156 208.212 125.433 191.82 160.784 170.78C177.607 160.505 192.966 148.027 209.545 137.507C222.467 128.944 235.876 120.626 249.041 112.553C250.26 111.819 251.235 111.085 252.454 110.595C253.186 110.106 253.917 109.617 254.649 109.372C254.892 109.127 255.38 108.883 255.624 108.638C231 98.6073 204.181 92.4909 176.388 90.7784C171.268 90.5337 165.904 90.2891 160.784 90.2891C101.297 90.2891 46.6847 110.595 3.53158 144.847C-13.047 157.813 -27.919 172.982 -40.5967 189.618C-56.9315 210.658 -69.8531 234.634 -78.8738 260.078C-88.3821 286.746 -93.502 315.37 -93.502 345.218C-93.502 345.707 -93.502 345.952 -93.502 346.441C-89.1135 348.643 -84.7251 350.6 -80.0928 352.802C-77.411 354.025 -74.973 355.249 -72.2911 356.472C-68.3903 358.184 -64.4894 360.142 -60.5886 361.854C-58.6382 362.833 -56.6877 363.811 -54.7373 364.545C-52.7869 365.524 -50.8365 366.503 -48.8861 367.481C-47.667 368.215 -46.2042 368.704 -44.9852 369.438C-44.4976 369.683 -44.01 369.928 -43.5224 370.172C-42.791 370.662 -41.8158 371.151 -41.0844 371.396C-38.6463 372.619 -35.9645 374.087 -33.5265 375.31C-28.6504 378.001 -23.5305 380.937 -18.6545 383.628C-16.9479 384.607 -15.485 385.341 -13.7784 386.32C-13.2908 386.564 -12.5594 386.809 -12.0718 387.298C-9.87759 388.521 -7.68336 389.745 -5.24532 390.723C-5.00153 390.723 -4.75773 390.968 -4.51393 390.968C1.33734 393.904 7.18862 397.084 13.0399 400.02C14.5027 400.754 15.9655 401.488 17.4283 402.222C22.3044 404.669 27.1804 407.115 32.3003 409.317C34.7383 410.54 37.1764 411.763 39.6144 412.742C54.4864 419.837 69.3584 426.687 84.4742 433.538C118.363 449.929 154.446 462.162 191.26 469.991C214.909 475.129 239.289 475.618 263.425 476.107C229.293 483.692 195.648 492.744 161.516 500.083C153.227 501.551 145.181 502.774 136.892 503.753C114.706 506.689 92.5196 508.646 70.3336 511.093C54.4864 512.805 38.3954 513.784 22.3044 513.539C21.3292 513.539 20.5978 513.539 19.6226 513.539C19.135 513.539 18.6474 513.539 18.1598 513.539C17.4283 513.539 16.6969 513.539 15.9655 513.539C14.7465 513.539 13.7713 513.539 12.7961 513.539C11.5771 513.539 10.358 513.539 9.13903 513.295C8.89523 513.295 8.65144 513.295 8.40763 513.295C7.67622 513.295 7.18861 513.295 6.4572 513.295C6.2134 513.295 5.96959 513.295 5.48199 513.295C4.99438 513.295 4.75058 513.295 4.26297 513.295C3.77537 513.295 3.28777 513.295 2.80016 513.295C2.55636 513.295 2.31256 513.295 2.06876 513.295C1.33735 513.295 0.849739 513.295 0.118332 513.05C-0.125473 513.05 -0.369278 513.05 -0.856888 513.05C-2.0759 513.05 -3.05112 512.805 -4.27013 512.805C-4.51393 512.805 -5.00153 512.805 -5.24532 512.805C-6.22054 512.805 -7.19576 512.561 -8.17097 512.561H-8.41477C-9.63379 512.561 -11.0966 512.316 -12.3156 512.071C-12.5594 512.071 -12.8032 512.071 -13.047 512.071C-14.0222 512.071 -15.2412 511.827 -16.2165 511.827C-16.4603 511.827 -16.7041 511.827 -16.9479 511.827C-18.1669 511.582 -19.3859 511.582 -20.6049 511.337C-21.3363 511.337 -21.8239 511.093 -22.5554 511.093C-23.043 511.093 -23.5306 511.093 -23.7744 510.848C-24.262 510.848 -24.7496 510.603 -25.2372 510.603C-25.7248 510.603 -26.2124 510.359 -26.9438 510.359C-27.1876 510.359 -27.6752 510.359 -27.919 510.114C-29.6256 509.869 -31.0884 509.625 -32.7951 509.38C-33.0389 509.38 -33.2827 509.38 -33.7703 509.135C-34.2579 509.135 -34.5017 508.891 -34.9893 508.891C-24.0182 522.102 -11.828 534.09 1.58115 544.61C33.5193 570.299 71.5526 588.158 113.243 595.987C114.462 595.987 115.437 595.743 116.656 595.743C117.875 595.743 119.094 595.498 120.313 595.498C122.02 595.253 123.97 595.009 125.677 595.009C126.652 595.009 127.627 594.764 128.359 594.764C129.578 594.519 130.553 594.519 131.772 594.275C133.479 594.03 135.429 593.785 137.136 593.541C137.867 593.541 138.598 593.296 139.574 593.296C140.793 593.052 142.012 593.052 143.474 592.807C159.078 591.094 174.437 588.648 189.553 584.244C223.686 574.947 256.111 561.247 290.244 552.439C291.463 552.194 292.682 551.95 293.901 551.46C294.632 551.216 295.607 550.971 296.339 550.971C297.558 550.727 298.533 550.482 299.752 550.237C301.215 549.748 302.922 549.503 304.384 549.259C305.116 549.014 305.847 549.014 306.822 548.769L309.26 548.28C309.992 548.035 310.723 548.035 311.455 547.791C311.942 547.791 312.186 547.546 312.674 547.546C313.161 547.546 313.405 547.546 313.893 547.301C314.136 547.301 314.38 547.301 314.624 547.301C315.112 547.301 315.843 547.057 316.331 547.057C363.385 510.359 397.273 457.514 409.707 396.595C413.12 379.959 414.827 362.833 414.827 345.462C414.827 340.08 414.583 334.453 414.339 329.071C409.707 328.581 406.294 329.315 402.637 330.294ZM253.673 587.914C254.405 587.669 254.892 587.425 255.624 587.18C255.136 587.425 254.892 587.425 254.405 587.669C254.161 587.669 253.917 587.914 253.673 587.914ZM224.905 597.211C227.586 596.477 230.024 595.743 232.706 595.009C230.024 595.743 227.586 596.477 224.905 597.211ZM224.905 597.211C224.173 597.455 223.442 597.7 222.71 597.7C223.442 597.7 224.173 597.455 224.905 597.211ZM221.004 598.189C221.491 598.189 222.223 597.945 222.71 597.7C222.467 597.7 222.223 597.7 222.223 597.7C221.735 597.945 221.491 598.189 221.004 598.189ZM201.987 602.104C202.719 602.104 203.206 601.859 203.938 601.859C201.987 602.104 200.037 602.593 198.086 602.838C199.305 602.348 200.524 602.348 201.987 602.104ZM178.582 604.795C178.094 604.795 177.851 604.795 177.363 604.795C178.582 604.795 180.045 604.55 181.264 604.55H181.02C180.289 604.55 179.313 604.55 178.582 604.795ZM143.962 604.795C144.693 604.795 145.425 604.795 146.156 604.795C145.912 604.795 145.669 604.795 145.425 604.795C144.937 604.795 144.45 604.795 143.962 604.795ZM134.941 604.061C136.16 604.061 137.379 604.306 138.598 604.306C138.355 604.306 138.111 604.306 138.111 604.306C137.136 604.306 135.917 604.061 134.941 604.061ZM129.334 603.327C131.04 603.572 132.747 603.572 134.21 603.816C133.235 603.816 132.503 603.572 131.528 603.572C131.04 603.572 130.309 603.572 129.334 603.327ZM123.239 602.593C124.458 602.838 125.677 603.082 127.14 603.082C127.871 603.082 128.602 603.327 129.334 603.327C125.921 602.838 122.751 602.348 119.338 601.859C120.801 602.348 122.02 602.348 123.239 602.593ZM103.003 595.743C103.735 595.743 104.466 595.498 105.197 595.498C103.491 595.498 102.028 595.743 100.321 595.743C101.297 595.987 102.028 595.743 103.003 595.743ZM-92.283 402.222C-93.502 401.488 -94.9648 400.509 -96.1838 399.775C-96.1838 400.265 -95.94 400.999 -95.6962 401.488C-94.4772 402.467 -93.0144 403.201 -91.7954 404.179C-91.7954 403.935 -91.7954 403.69 -92.0392 403.445C-92.283 402.956 -92.283 402.467 -92.283 402.222ZM-97.4028 371.885C-97.159 373.842 -96.9152 375.555 -96.6714 377.512C-96.6714 376.778 -96.9152 375.799 -96.9152 375.065C-97.159 373.842 -97.159 372.864 -97.4028 371.885Z" fill="url(#paint16_linear_211_18834)"/>
<path d="M413.364 286.501C413.121 285.033 412.633 283.565 412.389 282.097C412.633 282.831 412.877 283.565 412.877 284.299C413.12 285.033 413.364 285.767 413.364 286.501C413.608 287.235 413.608 287.969 413.852 288.703C414.096 289.437 414.096 290.171 414.34 290.905C414.583 291.639 414.583 292.373 414.827 293.107C414.827 293.596 415.071 293.841 415.071 294.33C415.315 295.553 415.559 296.777 415.802 298C415.559 297.021 415.558 296.043 415.315 295.064C415.315 294.819 415.315 294.575 415.071 294.33C414.827 293.107 414.583 291.883 414.34 290.66C414.096 289.437 413.852 287.969 413.364 286.501ZM416.534 302.159C416.778 303.382 417.021 304.361 417.021 305.584C417.021 305.095 416.778 304.605 416.778 304.116C416.778 303.382 416.778 302.648 416.534 302.159ZM417.509 308.52C417.509 309.254 417.753 309.988 417.753 310.722C417.753 311.211 417.997 311.7 417.997 312.19C417.997 310.966 417.753 309.743 417.509 308.52ZM380.451 206.989C380.939 207.478 381.182 208.212 381.67 208.946C380.939 207.723 380.207 206.499 379.232 205.276C379.72 205.521 379.963 206.255 380.451 206.989ZM266.839 107.17C267.57 107.415 268.302 107.904 268.789 108.149C269.521 108.394 270.008 108.638 270.74 109.127C271.227 109.372 271.715 109.617 272.202 109.861C270.983 109.372 270.008 108.883 268.789 108.149C267.326 107.415 266.107 106.926 264.645 106.192C265.376 106.436 266.107 106.926 266.839 107.17ZM-97.4028 371.885C-97.4028 372.864 -97.159 374.087 -97.159 375.066C-97.159 375.799 -96.9152 376.778 -96.9152 377.512C-96.9152 375.555 -97.159 373.598 -97.4028 371.885ZM-85.7003 426.687C-85.9441 425.953 -86.1879 425.464 -86.4317 424.73C-86.4317 424.486 -86.6755 423.996 -86.6755 423.752C-86.9193 423.018 -87.1631 422.284 -87.4069 421.55C-86.6755 423.262 -86.1879 424.975 -85.7003 426.687ZM-90.5763 410.051C-90.8201 409.317 -91.064 408.338 -91.3078 407.36C-91.064 408.828 -90.5763 410.051 -90.3325 411.519C-90.3325 411.03 -90.3325 410.54 -90.5763 410.051ZM-84.9689 428.889C-84.4813 430.113 -84.2375 431.336 -83.7499 432.559C-83.9937 432.07 -84.2375 431.58 -84.2375 430.846C-84.4813 430.357 -84.7251 429.623 -84.9689 428.889ZM-82.5309 435.74C-82.0433 437.207 -81.5556 438.431 -81.068 439.899C-81.3118 439.409 -81.5556 438.675 -81.7994 438.186C-82.0432 437.207 -82.2871 436.474 -82.5309 435.74ZM-80.0928 441.856C-79.3614 443.568 -78.8738 445.036 -78.1424 446.749C-78.3862 446.26 -78.63 445.77 -78.8738 445.036C-79.1176 444.302 -79.3614 443.813 -79.6052 443.079C-79.849 442.59 -80.0928 442.345 -80.0928 441.856ZM-74.7292 454.333C-73.9977 456.29 -73.0225 458.003 -72.0473 459.96C-72.5349 458.737 -73.2663 457.514 -73.754 456.29C-74.2416 455.556 -74.4853 454.823 -74.7292 454.333ZM-72.0473 459.96C-71.3159 461.673 -70.3407 463.141 -69.6093 464.609C-69.8531 464.119 -70.0969 463.875 -70.3407 463.385C-70.8283 462.407 -71.5597 461.184 -72.0473 459.96ZM-68.6341 466.566C-67.9027 468.034 -67.1713 469.257 -66.4399 470.725C-66.9275 469.991 -67.1713 469.257 -67.6589 468.768C-67.9027 468.034 -68.3903 467.3 -68.6341 466.566ZM-58.3944 484.426C-57.1754 486.138 -55.9563 488.095 -54.9811 489.808C-54.2497 490.787 -53.7621 491.765 -53.0307 492.744C-53.5183 492.01 -54.2497 491.031 -54.7373 490.297C-54.7373 490.053 -54.9811 490.053 -54.9811 489.808C-55.2249 489.563 -55.2249 489.319 -55.4687 489.319C-55.9563 488.585 -56.4439 487.851 -56.9315 487.117C-57.1754 486.138 -57.663 485.16 -58.3944 484.426ZM-48.886 498.371C-48.1546 499.349 -47.4232 500.328 -46.9356 501.062C-47.4232 500.083 -48.1546 499.349 -48.886 498.371C-48.6422 498.371 -48.886 498.371 -48.886 498.371ZM103.003 595.743C102.028 595.743 101.297 595.743 100.321 595.987C102.028 595.987 103.491 595.743 105.197 595.743C104.466 595.743 103.735 595.743 103.003 595.743ZM129.334 603.327C130.065 603.327 130.797 603.572 131.772 603.572C132.747 603.572 133.479 603.816 134.454 603.816C132.747 603.816 131.041 603.572 129.334 603.327ZM134.941 604.061C135.917 604.061 136.892 604.306 138.111 604.306C138.355 604.306 138.598 604.306 138.598 604.306C137.379 604.306 136.16 604.061 134.941 604.061ZM143.962 604.795C144.45 604.795 144.937 604.795 145.425 604.795C145.669 604.795 145.912 604.795 146.156 604.795C145.425 604.795 144.693 604.795 143.962 604.795ZM177.363 604.795C177.851 604.795 178.094 604.795 178.582 604.795C179.313 604.795 180.289 604.795 181.02 604.55H181.264C179.801 604.55 178.582 604.795 177.363 604.795ZM221.004 598.189C221.491 598.189 221.735 597.945 222.223 597.945C222.467 597.945 222.467 597.945 222.71 597.945C222.223 597.945 221.491 598.189 221.004 598.189ZM224.905 597.211C227.586 596.477 230.024 595.743 232.706 595.009C230.024 595.743 227.586 596.477 224.905 597.211ZM253.673 587.914C253.917 587.914 254.161 587.669 254.405 587.669C254.892 587.425 255.136 587.425 255.624 587.18C255.136 587.425 254.405 587.669 253.673 587.914ZM315.356 545.834C315.843 545.834 316.087 545.834 316.575 545.589C316.087 545.834 315.843 545.834 315.356 545.834C272.202 579.351 218.322 599.168 159.565 599.168C143.474 599.168 127.627 597.7 112.512 594.764C70.8212 586.935 32.7879 569.076 0.849754 543.387C-12.5594 532.622 -24.7495 520.634 -35.7207 507.668C-57.9067 481 -74.7292 449.929 -84.7251 415.678C-85.4565 412.987 -86.1879 410.296 -86.9193 407.604C-87.1631 406.87 -87.4069 406.137 -87.4069 405.403C-92.0392 386.075 -94.721 366.013 -94.721 345.463C-94.721 344.973 -94.721 344.729 -94.721 344.239C-94.721 314.392 -89.6011 285.767 -80.0928 259.1C-71.0721 233.411 -58.1506 209.68 -41.8158 188.64C-29.138 172.003 -14.0222 156.835 2.31257 143.868C45.7095 109.617 100.321 89.0659 159.809 89.0659C165.173 89.0659 170.293 89.3106 175.413 89.5552C203.206 91.2678 230.024 97.3841 254.649 107.415C278.541 117.201 300.727 130.412 320.475 146.559C337.785 160.749 352.901 177.141 366.067 195.245C375.819 208.701 384.108 223.136 391.178 238.304C403.612 265.95 411.414 296.043 413.608 327.848C413.852 333.23 414.096 338.857 414.096 344.239C414.096 361.854 412.389 378.98 408.976 395.372C396.542 456.29 362.653 509.136 315.356 545.834Z" fill="url(#paint17_linear_211_18834)"/>
<path d="M288.049 199.405C283.417 199.16 281.71 192.799 284.88 189.863C284.88 189.129 285.611 188.64 286.343 188.395C288.537 187.417 291.219 188.151 293.413 189.129C295.607 190.352 296.339 193.778 294.388 195.49C292.925 197.692 290.731 199.649 288.049 199.405ZM288.781 193.533C288.781 193.288 289.024 193.288 289.024 193.044C289.024 192.799 289.024 193.044 289.024 192.799C288.781 192.799 288.537 192.799 288.537 192.799V193.044C288.537 193.288 288.537 193.288 288.781 193.533Z" fill="url(#paint18_linear_211_18834)"/>
<path d="M92.0319 164.419C87.6435 162.951 85.9369 157.324 89.5939 154.144C91.5443 152.187 94.2262 151.942 96.6642 151.208C99.1022 150.474 101.296 151.697 103.247 153.165C106.66 155.856 103.978 160.505 101.784 163.196C100.565 164.175 99.1022 164.908 97.6394 164.664C95.9328 165.153 93.9824 165.153 92.0319 164.419ZM93.0072 159.281C92.7634 158.792 92.7633 158.303 92.7633 157.814V157.569C92.2757 158.058 92.5196 158.792 93.0072 159.281Z" fill="url(#paint19_linear_211_18834)"/>
<path d="M251.479 443.813C244.409 443.324 244.409 435.25 250.748 433.293C250.748 429.868 255.136 431.091 257.086 431.58C259.768 432.314 261.962 435.25 260.256 437.941C260.256 438.186 260.256 438.186 260.256 438.431C260.256 438.92 260.012 439.409 259.524 439.409C258.793 443.079 254.648 443.568 251.479 443.813Z" fill="url(#paint20_linear_211_18834)"/>
<path d="M295.364 313.902C294.632 313.413 294.144 312.924 293.657 312.19C290.244 311.7 291.463 307.296 293.657 306.073C296.095 304.605 299.508 304.605 301.702 306.563C305.603 310.232 299.021 317.327 295.364 313.902Z" fill="url(#paint21_linear_211_18834)"/>
<path d="M125.921 423.752C125.921 423.262 125.921 423.018 126.408 422.773C125.189 421.55 124.458 419.592 125.189 417.88C125.189 413.721 132.26 411.764 134.941 414.944C138.355 419.103 132.747 425.709 128.115 423.752C127.384 424.486 126.408 424.975 125.921 423.752ZM129.578 420.082C129.822 419.593 130.065 419.348 130.309 418.859C129.822 419.103 129.578 419.592 129.09 419.837C129.09 420.082 129.334 420.082 129.578 420.082Z" fill="url(#paint22_linear_211_18834)"/>
<path d="M24.0111 461.673C24.0111 460.939 24.0111 460.205 24.0111 459.471C25.7177 453.355 22.3045 446.749 17.916 440.877C16.4532 438.92 15.2342 436.963 13.7714 435.25C13.04 434.516 14.5028 433.538 14.9904 434.272C21.3293 442.101 30.5938 452.621 24.4987 463.141C24.2549 463.385 24.0111 463.63 24.0111 463.875C24.0111 463.385 24.0111 462.407 24.0111 461.673Z" fill="url(#paint23_linear_211_18834)"/>
<path d="M-22.5553 449.93C-20.361 442.345 -14.9974 434.272 -6.70808 433.048C-2.56343 433.048 3.28786 432.07 5.72588 435.984C6.21349 436.963 6.45728 437.941 6.70108 438.92C6.70108 439.165 6.70109 439.654 6.21348 439.654C5.23827 439.899 5.48207 438.186 4.99447 437.452C4.50686 435.984 3.04404 434.516 1.58122 434.272C-9.63371 432.07 -16.704 439.165 -19.6296 449.44V449.685C-19.8734 450.419 -20.361 450.908 -20.6048 451.642C-21.3362 453.355 -21.8239 455.312 -21.8239 457.269C-21.8239 457.758 -21.8239 458.003 -21.8239 458.492C-22.3115 456.046 -22.7991 453.11 -22.5553 449.93Z" fill="url(#paint24_linear_211_18834)"/>
<path d="M230.024 325.89C220.029 326.135 208.814 320.019 206.376 309.743C205.4 302.893 211.008 297.021 216.128 293.351C217.591 292.128 220.516 291.15 223.442 290.905C223.198 290.905 222.954 291.15 222.71 291.15C221.735 291.639 221.004 292.128 220.029 292.617C214.177 294.575 209.545 300.446 207.838 306.073C206.863 309.988 209.057 313.658 211.495 316.349C221.248 328.092 244.653 327.358 250.992 312.434C252.454 309.254 250.26 306.073 249.041 303.138C244.409 293.596 234.413 284.055 223.198 286.746C221.004 287.235 218.81 287.724 216.859 288.214C216.615 288.214 216.128 287.969 216.128 287.724C216.128 287.48 216.371 286.99 216.615 286.99C221.491 285.523 226.855 283.81 231.975 285.523C242.702 288.703 250.748 298.734 253.43 309.499C252.942 320.263 240.752 326.135 231 326.135C230.512 325.89 230.268 325.89 230.024 325.89Z" fill="url(#paint25_linear_211_18834)"/>
<path d="M333.397 496.903C329.008 496.658 324.863 495.435 320.963 493.478C307.797 485.159 308.772 475.129 319.5 465.098C319.012 465.343 318.281 466.566 317.549 465.832C317.306 465.587 317.306 465.098 317.793 465.098C320.231 463.385 322.669 461.673 325.351 460.205C330.471 456.78 337.054 456.29 342.905 457.758C350.707 458.982 355.095 466.566 357.045 473.661C358.021 479.288 356.314 485.404 353.632 490.297C351.926 492.988 348.269 494.456 345.343 495.19C341.93 496.169 338.516 497.148 334.859 497.148C334.372 496.903 333.884 496.903 333.397 496.903ZM335.591 464.119C334.616 464.364 333.884 464.609 332.909 465.098C332.178 465.343 331.69 465.587 330.959 466.077C330.715 466.077 330.715 466.077 330.471 466.077C328.764 466.321 327.302 466.81 325.839 467.544C325.107 468.034 324.62 468.278 324.132 468.768C323.644 469.257 322.913 469.746 322.425 470.48C321.938 471.214 321.206 472.193 320.719 473.171C320.475 473.905 320.231 474.639 319.987 475.373C319.744 476.352 319.744 477.331 319.744 478.065C319.744 478.309 319.5 478.554 319.5 479.043C319.012 480.756 319.012 482.468 319.012 484.181C319.012 485.649 319.5 487.361 319.987 488.585C320.719 490.053 321.694 491.52 322.669 492.744C323.888 493.967 325.107 494.701 326.57 495.435C328.52 496.414 330.959 496.903 333.153 496.903C334.128 496.903 335.103 496.903 336.078 496.658C339.248 495.924 342.173 493.967 344.368 491.276C345.099 490.297 345.831 489.074 346.318 487.851C348.512 485.893 349.975 483.202 350.95 480.511C351.194 479.532 351.438 478.798 351.682 477.82C351.926 477.086 351.926 476.352 351.926 475.618C351.926 474.15 351.682 472.682 350.707 471.459C349.731 469.991 348.756 468.768 347.293 468.034C346.318 467.3 345.587 466.81 344.612 466.566L344.368 466.321C342.905 465.343 341.442 464.853 339.735 464.364C339.004 464.119 338.516 464.119 337.785 464.119C337.297 463.875 336.322 463.875 335.591 464.119Z" fill="url(#paint26_linear_211_18834)"/>
<path d="M342.661 480.511C342.905 480.022 343.149 479.288 343.393 478.799C343.393 479.288 343.393 479.533 343.393 480.022C343.393 480.511 343.393 481.245 343.149 481.734C343.149 481.979 343.149 481.979 343.149 482.224C342.905 482.468 342.905 482.468 342.661 482.713C342.905 481.734 342.905 481 342.661 480.511Z" fill="url(#paint27_linear_211_18834)"/>
<path d="M333.397 473.416C333.397 473.171 333.641 473.171 333.641 473.171C333.885 473.171 333.885 473.171 334.128 473.171C334.372 473.171 334.616 473.171 334.616 473.416C334.616 473.416 334.616 473.416 334.86 473.416C334.372 473.661 333.885 473.416 333.397 473.416Z" fill="url(#paint28_linear_211_18834)"/>
<path d="M231 325.156C221.004 322.71 210.276 314.392 210.764 303.138C211.495 295.309 217.834 287.724 226.124 286.746C229.049 286.501 231.975 287.235 234.413 288.458C237.826 288.458 241.727 289.437 244.165 291.884C248.554 296.777 250.26 305.095 247.822 311.211C244.897 316.104 240.752 321.731 235.144 323.688C234.657 324.667 233.438 325.401 232.463 325.401C231.975 325.401 231.487 325.401 231 325.156ZM227.343 289.437C225.636 289.682 223.929 290.171 222.467 291.15C221.004 291.884 219.785 292.618 218.566 293.841C217.347 295.064 216.128 296.287 215.396 297.755C214.665 298.979 213.934 300.446 213.446 301.914C212.471 304.85 211.983 308.275 213.202 311.211C213.446 311.945 213.934 312.679 214.177 313.413C214.665 313.902 214.909 314.636 215.64 315.126C216.859 316.104 218.078 317.083 219.297 317.817C219.541 318.061 219.785 318.061 220.029 318.306C221.004 319.285 222.223 320.263 223.442 320.997C224.173 321.242 224.905 321.731 225.636 321.731C226.367 321.976 226.855 321.976 227.586 321.976C228.806 321.976 230.025 321.731 231 320.997C231 320.997 231 320.997 231.244 320.997C232.95 320.753 234.413 320.263 235.876 319.529C237.095 318.795 238.314 318.061 239.289 316.838C240.02 316.104 240.508 315.37 240.996 314.392C241.239 314.147 241.483 313.658 241.727 313.413C242.702 312.19 243.19 310.722 243.677 309.254C244.165 307.786 244.165 306.073 243.921 304.361C243.921 303.872 243.921 303.138 243.921 302.648C243.921 301.914 243.677 301.18 243.434 300.446C243.19 299.712 242.946 298.978 242.702 298.245C242.458 297.511 242.215 296.777 241.727 296.043C241.239 295.309 240.752 294.819 240.264 294.33C239.289 293.351 238.07 292.373 236.851 291.639C235.388 290.905 233.682 290.171 231.975 289.926C231 289.682 230.268 289.682 229.293 289.682C228.562 289.192 228.074 289.192 227.343 289.437Z" fill="url(#paint29_linear_211_18834)"/>
<path d="M218.322 316.838C218.809 317.083 219.053 317.327 219.541 317.572C219.785 317.817 220.028 317.817 220.272 318.061C221.004 318.795 221.491 319.285 222.223 319.774C220.76 318.795 219.297 317.817 218.322 316.838Z" fill="url(#paint30_linear_211_18834)"/>
<path d="M229.293 325.646C223.442 323.199 219.541 319.774 217.347 316.104C218.078 316.594 218.809 317.083 219.541 317.572C219.785 317.817 220.029 317.817 220.272 318.061C221.248 319.04 222.467 320.019 223.686 320.753C224.417 320.997 225.148 321.487 225.88 321.487C226.611 321.731 227.099 321.731 227.83 321.731C229.049 321.731 230.268 321.487 231.243 320.753C231.243 320.753 231.243 320.753 231.487 320.753C231.975 320.753 232.219 320.508 232.706 320.508C233.681 321.487 233.925 322.955 233.438 324.178C232.95 325.401 231.731 326.135 230.512 326.135C230.024 325.89 229.781 325.89 229.293 325.646Z" fill="url(#paint31_linear_211_18834)"/>
<path d="M241.727 295.553C241.239 294.819 240.752 294.33 240.264 293.841C239.289 292.862 238.07 291.883 236.851 291.15C236.12 290.905 235.388 290.416 234.657 290.171C236.363 290.171 238.314 290.171 240.264 290.66C243.19 291.15 243.434 294.33 241.727 295.553Z" fill="url(#paint32_linear_211_18834)"/>
<path d="M221.247 326.135C211.251 321.242 207.351 313.168 210.764 302.648C208.57 300.202 211.251 297.511 213.446 296.287C217.834 288.948 226.123 287.235 232.95 289.682C232.706 289.682 232.462 289.437 231.975 289.437C230.512 289.192 229.049 289.192 227.342 289.437C225.636 289.682 223.929 290.171 222.466 291.15C221.004 291.883 219.785 292.617 218.566 293.841C217.347 295.064 216.128 296.287 215.396 297.755C214.665 298.978 213.933 300.446 213.446 301.914C212.47 304.85 211.983 308.275 213.202 311.211C213.446 311.945 213.933 312.679 214.177 313.413C214.665 313.902 214.908 314.636 215.64 315.126C216.859 316.104 218.078 317.083 219.297 317.817C219.541 318.061 219.785 318.061 220.028 318.306C221.004 319.285 222.223 320.263 223.442 320.997C224.173 321.242 224.904 321.731 225.636 321.731C226.367 321.976 226.855 321.976 227.586 321.976C228.805 321.976 230.024 321.731 230.999 320.997C230.999 320.997 231 320.997 231.243 320.997C232.95 320.753 234.413 320.263 235.876 319.529C237.095 318.795 238.314 318.061 239.289 316.838C240.02 316.104 240.508 315.37 240.995 314.392C241.239 314.147 241.483 313.658 241.727 313.413C242.702 312.19 243.19 310.722 243.677 309.254C244.165 307.786 244.165 306.073 243.921 304.361V304.116C246.847 308.765 247.578 314.392 247.578 319.774C247.578 321.242 246.115 322.71 244.652 322.71C240.995 322.465 241.971 318.061 241.483 315.37C239.045 321.487 232.95 327.848 226.367 327.848C224.904 327.603 222.954 327.114 221.247 326.135Z" fill="url(#paint33_linear_211_18834)"/>
<path d="M231.731 300.936C231.487 300.691 231.243 300.691 231 300.446H231.243H231C231.243 300.446 231.487 300.446 231.731 300.446H231.975C231.975 300.446 231.975 300.446 232.219 300.446C232.219 300.691 232.219 300.691 232.462 300.936C232.462 301.18 232.462 301.18 232.462 301.18C232.462 301.425 232.219 301.18 231.731 300.936Z" fill="url(#paint34_linear_211_18834)"/>
<path d="M219.297 325.646C216.371 325.156 209.789 324.178 211.008 319.774C212.714 316.349 216.371 319.285 218.809 319.529C220.028 319.774 221.004 319.774 222.223 319.529C222.71 319.774 222.954 320.019 223.442 320.263C224.173 320.508 224.905 320.997 225.636 320.997C226.367 321.242 226.855 321.242 227.586 321.242C228.805 321.242 230.024 320.997 231 320.263C231 320.263 231 320.263 231.243 320.263C232.95 320.019 234.413 319.529 235.876 318.795C237.095 318.061 238.314 317.327 239.289 316.104C240.02 315.37 240.508 314.636 240.996 313.658C241.239 313.413 241.483 312.924 241.727 312.679C242.702 311.456 243.19 309.988 243.677 308.52C244.165 307.052 244.165 305.339 243.921 303.627C243.921 303.137 243.921 302.403 243.921 301.914C243.921 301.669 243.921 301.669 243.921 301.425C249.529 313.168 235.144 325.401 221.491 325.401C220.76 325.646 220.028 325.646 219.297 325.646Z" fill="url(#paint35_linear_211_18834)"/>
<path d="M218.322 316.838C218.809 317.083 219.053 317.327 219.541 317.572C219.785 317.817 220.028 317.817 220.272 318.061L220.516 318.306C219.785 317.817 218.809 317.572 218.322 316.838Z" fill="url(#paint36_linear_211_18834)"/>
<path d="M226.123 310.477C225.88 310.233 225.88 310.233 225.636 309.988C225.392 309.743 225.392 309.743 225.392 309.499C225.392 309.254 225.148 309.009 225.148 309.009C225.148 308.765 224.904 308.52 224.904 308.52C224.904 308.275 224.904 308.275 224.904 308.031C224.904 307.786 224.904 307.541 224.904 307.297C225.148 307.541 225.392 307.786 225.636 308.031C226.367 308.765 227.099 308.765 228.074 308.765C228.805 308.765 229.78 308.52 230.512 308.031C230.756 308.031 230.999 307.786 231.243 307.786C230.999 308.031 230.999 308.031 230.756 308.275C230.756 308.275 230.756 308.275 230.999 308.031C230.756 308.275 230.268 308.765 230.024 309.009C229.78 309.254 229.537 309.499 229.049 309.499C228.805 309.743 228.561 309.743 228.074 309.988C227.83 310.233 227.586 310.233 227.099 310.233C226.855 310.477 226.611 310.477 226.123 310.477C226.367 310.477 226.367 310.477 226.123 310.477Z" fill="url(#paint37_linear_211_18834)"/>
<path d="M227.586 306.318H227.343C227.343 306.318 227.343 306.073 227.099 306.073C227.099 305.829 226.855 305.829 226.855 305.584C226.855 305.584 226.855 305.584 226.855 305.339C226.855 305.339 226.855 305.339 226.855 305.095C226.855 305.095 226.855 305.095 226.855 304.85V304.605C226.855 304.605 226.855 304.605 226.855 304.85C226.855 304.605 226.855 304.361 227.099 304.116C227.099 303.871 227.343 303.627 227.343 303.627C227.343 303.627 227.343 303.382 227.586 303.382C227.83 303.137 227.83 302.893 228.074 302.893C228.318 302.893 228.318 302.893 228.562 302.893H228.805H228.562H228.805C229.049 302.893 229.049 303.137 229.293 303.137C229.537 303.382 229.537 303.382 229.781 303.627C229.781 303.627 229.781 303.627 229.537 303.382C229.537 303.382 229.537 303.382 229.781 303.627C229.781 303.871 229.781 303.871 229.537 304.116C229.537 304.361 229.293 304.605 229.293 304.85V305.095C229.049 305.339 229.049 305.584 228.805 305.829C228.562 306.073 228.562 306.073 228.562 306.318C227.83 306.318 227.586 306.318 227.586 306.318Z" fill="url(#paint38_linear_211_18834)"/>
<path d="M231.731 300.936C231.487 300.691 231.243 300.691 231 300.446H231.243H231C231.243 300.446 231.487 300.446 231.731 300.446H231.975C231.975 300.446 231.975 300.446 232.219 300.446C232.219 300.691 232.219 300.691 232.462 300.936C232.462 301.18 232.462 301.18 232.462 301.18C232.462 301.425 232.219 301.18 231.731 300.936Z" fill="url(#paint39_linear_211_18834)"/>
<path d="M8.40728 480.756C7.18826 480.756 6.21305 480.511 4.99403 480.266C5.72544 480.266 6.70065 480.511 7.43206 480.511C9.38248 480.511 11.5767 480.266 13.2833 479.288C16.4528 477.82 19.3784 475.618 21.085 472.438C22.7916 469.257 23.7668 465.587 23.7668 461.917C23.7668 460.45 23.7668 458.982 23.2792 457.514C23.2792 457.024 23.2792 456.535 23.2792 456.046C23.0354 454.333 22.5478 452.621 21.8164 451.153C20.1098 447.972 16.9404 445.281 13.5271 443.813C13.0395 443.569 12.5519 443.324 12.0643 443.324C11.3329 443.079 10.8453 442.835 10.1139 442.345C9.38248 441.856 8.40727 441.367 7.67586 441.122C5.96924 440.633 4.26263 440.388 2.55601 440.143C0.605585 439.654 -1.34484 439.654 -3.29526 439.654C-5.48949 439.899 -7.6837 440.388 -9.87793 441.367C-7.1961 438.675 -3.53907 436.718 0.361779 435.984C14.7461 433.048 28.3991 446.504 27.9115 460.694C27.9115 470.725 20.5974 481 10.1139 481C9.62628 480.756 8.89488 480.756 8.40728 480.756Z" fill="url(#paint40_linear_211_18834)"/>
<path d="M2.31267 458.982C1.58127 458.003 0.849866 457.269 -0.369141 456.535C-0.369141 456.291 -0.369144 456.046 -0.125343 455.801C0.118458 455.557 0.118451 455.067 0.362252 454.823C0.606053 454.578 0.606065 454.333 0.849866 454.089C1.09367 454.089 1.33746 454.333 1.58126 454.333C1.82506 454.333 1.82507 454.578 2.06887 454.578V454.823L2.31267 454.578C2.55647 454.823 2.80027 454.823 2.80027 455.067C3.04407 455.067 3.04408 455.312 3.28788 455.312C3.28788 455.312 3.28788 455.557 3.53168 455.557C3.53168 455.557 3.53167 455.801 3.77547 455.801C3.77547 456.046 4.01927 456.291 4.01927 456.535C4.01927 456.78 4.01927 457.024 4.01927 457.269C4.01927 457.514 4.01927 457.758 4.01927 457.758V458.003C3.77547 458.248 3.77548 458.492 3.53168 458.737C3.28788 458.982 3.04407 459.471 2.80027 459.716C2.55646 459.716 2.55647 459.226 2.31267 458.982Z" fill="url(#paint41_linear_211_18834)"/>
<path d="M3.2876 455.557L3.5303 455.8C3.28759 455.8 3.2876 455.8 3.2876 455.557Z" fill="url(#paint42_linear_211_18834)"/>
<path d="M21.0851 475.863C20.3537 475.618 19.8661 475.373 19.6223 474.639C20.3537 473.905 20.8413 473.172 21.3289 472.193C23.0355 469.012 24.0107 465.343 24.0107 461.673C24.0107 460.205 24.0107 458.737 23.5231 457.269C23.5231 456.78 23.5231 456.29 23.5231 455.801C23.2793 454.089 22.7917 452.376 22.0603 450.908C21.3289 449.44 20.1099 447.972 18.6471 446.749C18.4033 446.015 18.4033 445.281 18.1595 444.547C17.9157 442.834 18.6471 441.122 20.3537 440.633C21.0851 440.388 22.0603 440.633 22.7917 440.877C23.7669 441.367 24.2545 442.345 24.2545 443.324C24.7422 446.504 25.2298 449.685 25.7174 452.865C26.205 456.29 26.205 459.96 26.205 463.385C26.205 465.343 25.9612 467.055 25.7174 469.012C25.4736 470.725 25.2298 472.682 24.4983 474.15C24.0107 475.129 23.0355 475.863 21.8165 475.863C21.5727 475.863 21.3289 475.863 21.0851 475.863Z" fill="url(#paint43_linear_211_18834)"/>
<path d="M24.0111 461.673C24.0111 460.205 24.0111 458.737 23.5235 457.269C23.5235 456.78 23.5235 456.29 23.5235 455.801C23.2797 454.089 22.7921 452.376 22.0607 450.908C21.8169 450.419 21.3293 449.685 21.0854 449.196V448.951C21.3293 447.238 23.0359 446.015 24.7425 446.26C30.3499 447.238 25.4739 459.226 24.2549 462.651C24.2549 462.651 24.2549 462.896 24.0111 462.896C24.0111 462.407 24.0111 462.162 24.0111 461.673Z" fill="url(#paint44_linear_211_18834)"/>
<path d="M10.6016 432.07C13.2834 432.559 18.4033 433.048 17.4281 436.718C16.4529 439.654 13.2834 438.675 11.0892 437.941C7.67598 437.207 4.50654 437.941 1.5809 439.654C-0.125717 439.409 -1.83234 439.165 -3.29515 439.409C-4.75797 439.409 -6.22078 439.654 -7.68359 440.143C-3.29514 434.761 3.28753 431.091 10.6016 432.07Z" fill="url(#paint45_linear_211_18834)"/>
<path d="M-8.41517 478.309C-12.0722 476.597 -15.4855 473.661 -17.6797 469.991C-17.1921 470.725 -16.7045 471.459 -15.9731 471.948C-14.754 473.171 -13.2912 474.395 -11.5846 475.373C-10.1218 476.352 -8.65897 477.086 -6.95235 477.575C-5.24573 478.309 -3.2953 478.798 -1.34488 478.554C-0.857269 478.554 -0.613466 478.554 -0.12586 478.554C0.849352 479.043 1.58076 479.288 2.55597 479.532C3.53118 479.777 4.50639 480.022 5.4816 480.022C4.26258 480.266 2.79977 480.266 1.58075 480.266C-2.07629 480.511 -5.24573 479.777 -8.41517 478.309Z" fill="url(#paint46_linear_211_18834)"/>
<path d="M24.0109 461.673C24.0109 460.205 24.0109 458.737 23.5233 457.269C23.5233 456.78 23.5233 456.29 23.5233 455.801C23.2795 454.088 22.7919 452.376 22.0605 450.908C20.3538 447.727 17.1844 445.036 13.7711 443.568C13.2835 443.324 12.7959 443.079 12.3083 443.079C11.5769 442.834 11.0893 442.59 10.3579 442.1C9.62649 441.611 8.65128 441.366 7.91987 440.877C6.21325 440.388 4.50663 440.143 2.80001 439.899C0.849585 439.409 -1.10084 439.409 -3.05127 439.409C-10.3654 439.899 -17.1918 444.792 -20.1175 451.642C-20.8489 453.354 -21.3365 455.312 -21.3365 457.269C-21.3365 457.514 -21.3365 457.514 -21.3365 457.758C-21.5803 456.046 -21.5803 454.578 -21.3365 452.865C-30.1134 434.027 -1.10083 424.73 11.8207 433.293C19.8662 434.272 24.9861 441.856 27.9117 448.706C30.106 457.024 27.4241 465.098 21.8167 470.97C23.0357 468.278 24.0109 465.098 24.0109 461.673Z" fill="url(#paint47_linear_211_18834)"/>
<path d="M2.31267 458.982C1.58127 458.003 0.849866 457.269 -0.369141 456.535C-0.369141 456.291 -0.369144 456.046 -0.125343 455.801C0.118458 455.557 0.118451 455.067 0.362252 454.823C0.606053 454.578 0.606065 454.333 0.849866 454.089C1.09367 454.089 1.33746 454.333 1.58126 454.333C1.82506 454.578 2.06887 454.578 2.31267 454.823C2.55647 455.067 2.80027 455.067 2.80027 455.312C3.04407 455.557 3.04408 455.557 3.28788 455.801L3.53168 456.046C3.53168 456.291 3.53167 456.291 3.77547 456.291C3.77547 456.535 4.01927 456.78 4.01927 457.024C4.01927 457.269 4.01927 457.514 4.01927 457.758C4.01927 458.003 4.01927 458.248 4.01927 458.248V458.492C3.77547 458.737 3.77548 458.982 3.53168 459.226C3.28788 459.471 3.04407 459.96 2.80027 460.205C2.55646 459.716 2.55647 459.226 2.31267 458.982Z" fill="url(#paint48_linear_211_18834)"/>
<path d="M3.2876 455.557L3.5303 455.8C3.28759 455.8 3.2876 455.8 3.2876 455.557Z" fill="url(#paint49_linear_211_18834)"/>
<path d="M129.09 551.95C128.602 551.95 128.115 551.705 127.871 551.216C127.383 550.971 126.896 550.727 126.652 550.237C126.164 549.259 126.164 547.791 126.896 546.812C123.482 544.366 127.383 540.451 130.553 540.451C135.185 539.717 138.354 545.589 133.966 548.28C133.722 548.769 133.478 549.259 132.991 549.748C132.259 550.482 131.284 551.216 130.065 551.461C130.065 551.705 129.577 551.95 129.09 551.95Z" fill="url(#paint50_linear_211_18834)"/>
<path d="M345.343 282.587C343.149 283.076 340.955 280.629 341.93 278.428C340.711 275.492 344.856 273.045 346.806 275.492C348.025 275.736 349.244 275.002 350.463 275.247C352.657 275.492 354.12 278.183 352.414 279.651C351.926 282.587 347.781 284.299 345.343 282.587Z" fill="url(#paint51_linear_211_18834)"/>
<path d="M139.817 270.599C138.842 269.865 139.33 268.152 140.305 267.907C138.598 266.195 139.817 263.014 141.768 262.036C141.768 258.121 146.887 258.366 147.863 261.546C148.594 263.504 147.619 265.706 146.156 267.173C144.693 268.886 142.255 272.311 139.817 270.599Z" fill="url(#paint52_linear_211_18834)"/>
<path d="M212.714 183.747C211.251 183.502 210.032 182.279 209.789 180.811C207.594 181.056 206.132 178.854 207.107 176.896C208.326 174.939 211.008 175.429 212.958 175.918C214.908 174.939 217.59 175.673 218.322 177.875C219.297 179.343 218.322 181.545 216.371 181.79C215.64 183.257 213.933 183.991 212.714 183.747Z" fill="url(#paint53_linear_211_18834)"/>
<path opacity="0.5" d="M159.809 89.0659C100.321 89.0659 45.7093 109.372 2.55615 143.624C5.48179 143.868 8.40742 144.113 11.5769 144.113C30.8373 144.358 50.0977 139.954 68.6268 135.305C106.66 126.498 144.206 113.042 175.412 89.5552C170.293 89.3106 164.929 89.0659 159.809 89.0659Z" fill="url(#paint54_linear_211_18834)" fill-opacity="0.74"/>
<path opacity="0.5" d="M167.367 256.653C162.247 259.589 155.908 260.079 150.301 261.302C149.57 261.547 148.838 261.547 147.863 261.791C145.425 262.281 142.743 262.77 140.305 263.014C135.917 263.748 131.528 264.482 127.14 264.972C90.813 270.843 54.2425 272.801 17.6721 272.556C-15.2413 272.067 -48.3985 268.152 -79.8491 258.855C-70.8284 233.167 -57.9068 209.435 -41.572 188.395C-35.2332 192.799 -28.6505 196.713 -22.0678 200.628C-6.95202 210.659 10.1142 217.754 27.1804 223.87C46.197 230.72 64.9699 238.304 84.4741 243.442C97.8833 246.867 111.292 249.314 124.945 250.293C128.846 250.537 132.991 250.782 136.892 250.782C137.136 250.782 137.379 250.782 137.623 251.026C147.131 251.271 156.884 251.271 166.392 251.026C169.074 252.005 169.074 255.43 167.367 256.653Z" fill="url(#paint55_linear_211_18834)" fill-opacity="0.74"/>
<path opacity="0.5" d="M417.509 308.52C417.752 309.743 417.996 310.966 417.996 312.434C417.996 311.945 417.996 311.456 417.752 310.966C417.752 309.988 417.752 309.254 417.509 308.52ZM417.021 304.116C417.021 304.605 417.265 305.095 417.265 305.584C417.021 304.361 416.777 303.138 416.777 302.159C416.777 302.648 416.777 303.382 417.021 304.116ZM415.314 295.309C415.558 296.287 415.802 297.266 415.802 298.244C415.558 297.021 415.314 295.798 415.071 294.575C415.314 294.575 415.314 295.064 415.314 295.309ZM414.339 290.905C414.583 292.128 414.827 293.351 415.071 294.575C415.071 294.085 414.827 293.841 414.827 293.351C414.827 292.373 414.583 291.639 414.339 290.905ZM413.364 286.501C413.608 287.969 414.095 289.437 414.339 290.905C414.095 290.171 414.095 289.437 413.852 288.703C413.852 287.969 413.608 287.235 413.364 286.501ZM412.389 282.097C412.876 283.565 413.12 285.033 413.364 286.501C413.12 285.767 413.12 285.033 412.876 284.299C412.876 283.565 412.633 282.831 412.389 282.097ZM390.934 238.304C386.058 240.506 381.426 242.953 376.793 244.665C349.488 254.696 321.206 262.77 294.144 274.024C277.81 280.874 260.987 286.501 243.921 291.884C243.677 291.884 243.433 292.128 242.946 292.128C242.702 292.128 242.458 292.128 242.458 292.373C241.97 292.373 241.727 292.617 241.239 292.617C240.751 292.862 240.02 292.862 239.532 293.107C238.07 293.596 236.607 294.085 235.144 294.33C227.83 296.532 220.516 298.978 213.202 301.18C212.227 301.425 211.495 301.67 210.52 301.914C210.276 301.914 210.276 301.914 210.032 301.914C209.545 302.159 209.057 302.159 208.813 302.404C208.082 302.648 207.594 302.893 206.863 302.893C194.429 306.563 181.995 310.232 169.317 312.679C159.077 314.392 148.838 316.349 138.598 316.349C133.234 316.593 127.871 316.838 122.507 317.083C121.044 317.083 119.825 318.061 119.581 319.285C97.1515 321.242 73.2588 318.306 50.5852 317.817C41.3207 317.817 32.0562 316.838 23.0355 315.37C4.01882 312.19 -14.2664 306.073 -32.3078 298.978C-37.6715 297.266 -43.2789 294.819 -49.1302 294.085C-49.8616 294.085 -50.593 294.33 -51.3244 294.819C-52.7873 296.043 -52.2997 298 -51.0806 299.223C-41.0847 308.275 -28.1632 313.413 -16.2168 319.04C-0.125824 326.624 15.9652 333.964 32.5438 340.325C68.6266 353.047 106.904 357.695 143.962 366.503C172.243 373.108 201.012 377.757 229.537 382.65C271.471 389.989 313.892 396.106 356.558 397.084C373.868 397.574 390.934 396.595 408 395.372C411.413 378.735 413.12 361.61 413.12 344.239C413.12 338.857 412.876 333.23 412.633 327.848C411.414 296.043 403.612 265.95 390.934 238.304ZM201.743 310.722C203.206 310.232 204.669 309.743 206.131 309.254C206.619 309.009 207.107 309.009 207.594 308.765C208.326 308.52 208.813 308.275 209.545 308.275C210.032 308.031 210.52 308.031 211.008 307.786L212.47 307.297C218.809 305.339 225.392 303.138 231.731 300.936C231.975 300.936 231.975 300.936 232.218 300.691C235.632 299.468 239.045 298.489 242.458 297.266C243.189 297.021 244.165 296.777 244.896 296.532C245.384 296.287 246.115 296.043 246.603 296.043C246.603 296.043 246.603 296.043 246.847 296.043C255.38 293.107 263.913 289.926 272.446 286.746C299.752 275.247 327.301 264.482 355.339 254.941C329.252 268.641 304.384 284.544 276.834 295.553C268.545 298.734 260.256 301.67 251.723 304.116C251.235 304.361 250.504 304.361 250.016 304.605C249.772 304.605 249.528 304.85 249.041 304.85C247.822 305.095 246.603 305.584 245.14 305.829C244.896 305.829 244.652 306.073 244.409 306.073C242.214 306.563 240.02 307.052 237.582 307.541C234.9 308.031 232.462 308.765 229.78 309.254C228.561 309.499 227.099 309.743 225.879 310.232C221.979 310.966 218.078 311.945 214.177 312.679C213.933 312.679 213.689 312.924 213.446 312.924C212.47 313.168 211.251 313.413 210.276 313.413C210.032 313.413 209.788 313.413 209.545 313.413C209.057 313.413 208.569 313.658 207.838 313.658C200.036 315.126 191.991 316.104 183.945 316.593C189.553 314.392 195.892 312.679 201.743 310.722ZM237.338 307.297C234.656 307.786 232.218 308.52 229.537 309.009C228.318 309.254 226.855 309.499 225.636 309.988C221.735 310.722 217.834 311.7 213.933 312.434C214.177 312.679 214.177 312.924 214.421 313.413C214.908 313.902 215.152 314.636 215.64 315.126C215.884 315.37 216.127 315.615 216.615 315.86C216.859 316.104 217.103 316.349 217.346 316.349C217.346 316.349 217.346 316.349 217.59 316.349C217.834 316.593 218.078 316.838 218.322 316.838H218.565H218.809C219.053 316.838 219.053 317.083 219.297 317.083C219.541 317.083 219.784 317.327 220.028 317.572L220.76 318.306C220.76 318.306 221.003 318.551 221.247 318.551C221.491 318.795 221.735 319.04 221.979 319.04C222.222 319.04 222.222 319.285 222.466 319.285C222.71 319.529 222.954 319.774 223.441 319.774C224.173 320.019 224.904 320.508 225.636 320.508C225.879 320.508 226.367 320.753 226.611 320.753C226.855 320.753 227.342 320.753 227.586 320.753C227.83 320.753 228.074 320.753 228.561 320.753C229.537 320.753 230.268 320.508 231.243 320.019C231.243 320.019 231.243 320.019 231.487 320.019C231.975 320.019 232.218 320.019 232.706 319.774C233.925 319.529 234.9 319.04 236.119 318.551C236.851 318.306 237.338 317.817 237.826 317.327C238.313 316.838 238.801 316.349 239.289 315.86C240.02 315.126 240.508 314.392 240.995 313.413C241.239 313.168 241.483 312.924 241.727 312.434C242.214 311.7 242.458 311.211 242.946 310.477C243.19 309.743 243.433 309.009 243.677 308.275C243.677 308.031 243.677 307.786 243.921 307.541C244.165 306.807 244.165 305.829 244.165 305.095C241.97 306.318 239.776 306.807 237.338 307.297Z" fill="url(#paint56_linear_211_18834)" fill-opacity="0.74"/>
<path opacity="0.5" d="M269.277 521.368C255.867 525.283 241.727 526.261 228.562 529.442C198.086 536.047 167.367 541.674 136.404 545.1C132.991 545.589 129.821 545.834 126.408 546.078C105.685 548.035 85.2054 549.014 64.4822 549.014C43.2713 548.28 22.3043 546.812 1.33722 543.876C-12.0719 533.112 -24.2621 521.124 -35.2332 508.157C-57.4193 481.49 -74.2417 450.419 -84.2376 416.167C-83.2624 414.699 -82.2872 412.987 -81.312 411.519C-83.0186 410.54 -84.7252 409.317 -86.4318 408.338C-86.6756 407.604 -86.9194 406.871 -86.9194 406.137C-84.7252 407.604 -82.531 408.828 -80.093 410.051C-77.1673 406.381 -74.2417 400.754 -69.1218 400.51C-66.6838 400.51 -65.221 403.935 -67.1714 405.403C-70.5846 406.626 -72.7789 409.806 -74.9731 412.987C-57.9069 423.752 -40.3531 434.027 -22.5555 443.813C-21.8241 444.302 -21.0927 444.547 -20.3612 445.036C-19.6298 445.526 -18.6546 446.015 -17.9232 446.504C-17.6794 446.749 -17.1918 446.994 -16.948 446.994C-11.3405 449.929 -5.48927 453.11 0.118202 455.801C1.09341 456.29 2.06862 456.78 3.04383 457.269C3.28764 457.514 3.77525 457.514 4.01905 457.758C10.3579 461.184 16.6968 464.364 23.2795 467.545C23.7671 467.789 24.0109 468.034 24.4985 468.034C24.9861 468.278 25.4737 468.523 25.9613 468.768C26.2051 468.768 26.2051 469.012 26.4489 469.012C37.6639 474.395 48.8788 479.533 60.5813 483.447C85.2054 491.765 110.561 498.371 136.404 503.264C152.495 506.2 168.83 508.646 185.165 510.359C211.739 512.316 238.557 512.561 265.376 513.784C268.058 514.029 271.471 513.05 273.665 514.763C276.591 517.698 272.202 520.634 269.277 521.368Z" fill="url(#paint57_linear_211_18834)" fill-opacity="0.74"/>
</g>
<defs>
<linearGradient id="paint0_linear_211_18834" x1="215.03" y1="195.49" x2="215.03" y2="345.881" gradientUnits="userSpaceOnUse">
<stop stop-color="#687BF7" stop-opacity="0"/>
<stop offset="1" stop-color="#8050EF"/>
</linearGradient>
<linearGradient id="paint1_linear_211_18834" x1="415.68" y1="294.33" x2="415.68" y2="298" gradientUnits="userSpaceOnUse">
<stop stop-color="#687BF7" stop-opacity="0"/>
<stop offset="1" stop-color="#8050EF"/>
</linearGradient>
<linearGradient id="paint2_linear_211_18834" x1="416.778" y1="302.159" x2="416.778" y2="305.584" gradientUnits="userSpaceOnUse">
<stop stop-color="#687BF7" stop-opacity="0"/>
<stop offset="1" stop-color="#8050EF"/>
</linearGradient>
<linearGradient id="paint3_linear_211_18834" x1="183.214" y1="108.149" x2="183.214" y2="217.264" gradientUnits="userSpaceOnUse">
<stop stop-color="#687BF7" stop-opacity="0"/>
<stop offset="1" stop-color="#8050EF"/>
</linearGradient>
<linearGradient id="paint4_linear_211_18834" x1="84.1081" y1="345.463" x2="84.1081" y2="512.843" gradientUnits="userSpaceOnUse">
<stop stop-color="#687BF7" stop-opacity="0"/>
<stop offset="1" stop-color="#8050EF"/>
</linearGradient>
<linearGradient id="paint5_linear_211_18834" x1="102.759" y1="595.743" x2="102.759" y2="595.987" gradientUnits="userSpaceOnUse">
<stop stop-color="#687BF7" stop-opacity="0"/>
<stop offset="1" stop-color="#8050EF"/>
</linearGradient>
<linearGradient id="paint6_linear_211_18834" x1="124.58" y1="602.104" x2="124.58" y2="603.572" gradientUnits="userSpaceOnUse">
<stop stop-color="#687BF7" stop-opacity="0"/>
<stop offset="1" stop-color="#8050EF"/>
</linearGradient>
<linearGradient id="paint7_linear_211_18834" x1="132.016" y1="603.327" x2="132.016" y2="603.816" gradientUnits="userSpaceOnUse">
<stop stop-color="#687BF7" stop-opacity="0"/>
<stop offset="1" stop-color="#8050EF"/>
</linearGradient>
<linearGradient id="paint8_linear_211_18834" x1="136.77" y1="604.061" x2="136.77" y2="604.306" gradientUnits="userSpaceOnUse">
<stop stop-color="#687BF7" stop-opacity="0"/>
<stop offset="1" stop-color="#8050EF"/>
</linearGradient>
<linearGradient id="paint9_linear_211_18834" x1="179.191" y1="604.55" x2="179.191" y2="604.795" gradientUnits="userSpaceOnUse">
<stop stop-color="#687BF7" stop-opacity="0"/>
<stop offset="1" stop-color="#8050EF"/>
</linearGradient>
<linearGradient id="paint10_linear_211_18834" x1="201.012" y1="601.615" x2="201.012" y2="602.593" gradientUnits="userSpaceOnUse">
<stop stop-color="#687BF7" stop-opacity="0"/>
<stop offset="1" stop-color="#8050EF"/>
</linearGradient>
<linearGradient id="paint11_linear_211_18834" x1="221.857" y1="597.945" x2="221.857" y2="598.434" gradientUnits="userSpaceOnUse">
<stop stop-color="#687BF7" stop-opacity="0"/>
<stop offset="1" stop-color="#8050EF"/>
</linearGradient>
<linearGradient id="paint12_linear_211_18834" x1="228.805" y1="595.009" x2="228.805" y2="597.211" gradientUnits="userSpaceOnUse">
<stop stop-color="#687BF7" stop-opacity="0"/>
<stop offset="1" stop-color="#8050EF"/>
</linearGradient>
<linearGradient id="paint13_linear_211_18834" x1="223.808" y1="597.211" x2="223.808" y2="597.7" gradientUnits="userSpaceOnUse">
<stop stop-color="#687BF7" stop-opacity="0"/>
<stop offset="1" stop-color="#8050EF"/>
</linearGradient>
<linearGradient id="paint14_linear_211_18834" x1="254.649" y1="587.18" x2="254.649" y2="587.914" gradientUnits="userSpaceOnUse">
<stop stop-color="#687BF7" stop-opacity="0"/>
<stop offset="1" stop-color="#8050EF"/>
</linearGradient>
<linearGradient id="paint15_linear_211_18834" x1="214.055" y1="546.078" x2="214.055" y2="599.412" gradientUnits="userSpaceOnUse">
<stop stop-color="#687BF7" stop-opacity="0"/>
<stop offset="1" stop-color="#8050EF"/>
</linearGradient>
<linearGradient id="paint16_linear_211_18834" x1="159.931" y1="90.2891" x2="159.931" y2="604.795" gradientUnits="userSpaceOnUse">
<stop stop-color="#8050EF" stop-opacity="0.22"/>
<stop offset="1" stop-color="#687BF7" stop-opacity="0.08"/>
</linearGradient>
<linearGradient id="paint17_linear_211_18834" x1="160.297" y1="89.0659" x2="160.297" y2="604.795" gradientUnits="userSpaceOnUse">
<stop stop-color="#8050EF" stop-opacity="0.22"/>
<stop offset="1" stop-color="#687BF7" stop-opacity="0.08"/>
</linearGradient>
<linearGradient id="paint18_linear_211_18834" x1="283.26" y1="187.933" x2="296.854" y2="189.823" gradientUnits="userSpaceOnUse">
<stop stop-color="#973AF5"/>
<stop offset="1" stop-color="#4CA6FE"/>
</linearGradient>
<linearGradient id="paint19_linear_211_18834" x1="87.6011" y1="150.989" x2="106.634" y2="154.045" gradientUnits="userSpaceOnUse">
<stop stop-color="#973AF5"/>
<stop offset="1" stop-color="#4CA6FE"/>
</linearGradient>
<linearGradient id="paint20_linear_211_18834" x1="246.081" y1="430.963" x2="262.417" y2="433.411" gradientUnits="userSpaceOnUse">
<stop stop-color="#973AF5"/>
<stop offset="1" stop-color="#4CA6FE"/>
</linearGradient>
<linearGradient id="paint21_linear_211_18834" x1="291.53" y1="305.027" x2="304.091" y2="306.929" gradientUnits="userSpaceOnUse">
<stop stop-color="#973AF5"/>
<stop offset="1" stop-color="#4CA6FE"/>
</linearGradient>
<linearGradient id="paint22_linear_211_18834" x1="124.897" y1="413.366" x2="137.229" y2="414.968" gradientUnits="userSpaceOnUse">
<stop stop-color="#973AF5"/>
<stop offset="1" stop-color="#4CA6FE"/>
</linearGradient>
<linearGradient id="paint23_linear_211_18834" x1="13.5703" y1="434.012" x2="28.1267" y2="434.832" gradientUnits="userSpaceOnUse">
<stop stop-color="#973AF5"/>
<stop offset="1" stop-color="#4CA6FE"/>
</linearGradient>
<linearGradient id="paint24_linear_211_18834" x1="-22.6201" y1="432.94" x2="9.79745" y2="437.788" gradientUnits="userSpaceOnUse">
<stop stop-color="#973AF5"/>
<stop offset="1" stop-color="#4CA6FE"/>
</linearGradient>
<linearGradient id="paint25_linear_211_18834" x1="206.264" y1="284.807" x2="258.423" y2="292.565" gradientUnits="userSpaceOnUse">
<stop stop-color="#973AF5"/>
<stop offset="1" stop-color="#4CA6FE"/>
</linearGradient>
<linearGradient id="paint26_linear_211_18834" x1="311.271" y1="456.978" x2="362.188" y2="464.586" gradientUnits="userSpaceOnUse">
<stop stop-color="#973AF5"/>
<stop offset="1" stop-color="#4CA6FE"/>
</linearGradient>
<linearGradient id="paint27_linear_211_18834" x1="342.661" y1="478.799" x2="343.487" y2="478.819" gradientUnits="userSpaceOnUse">
<stop stop-color="#973AF5"/>
<stop offset="1" stop-color="#4CA6FE"/>
</linearGradient>
<linearGradient id="paint28_linear_211_18834" x1="333.397" y1="473.171" x2="334.678" y2="473.862" gradientUnits="userSpaceOnUse">
<stop stop-color="#973AF5"/>
<stop offset="1" stop-color="#4CA6FE"/>
</linearGradient>
<linearGradient id="paint29_linear_211_18834" x1="210.748" y1="286.699" x2="253.213" y2="292.16" gradientUnits="userSpaceOnUse">
<stop stop-color="#973AF5"/>
<stop offset="1" stop-color="#4CA6FE"/>
</linearGradient>
<linearGradient id="paint30_linear_211_18834" x1="218.322" y1="316.838" x2="222.603" y2="317.579" gradientUnits="userSpaceOnUse">
<stop stop-color="#973AF5"/>
<stop offset="1" stop-color="#4CA6FE"/>
</linearGradient>
<linearGradient id="paint31_linear_211_18834" x1="217.347" y1="316.104" x2="235.014" y2="319.854" gradientUnits="userSpaceOnUse">
<stop stop-color="#973AF5"/>
<stop offset="1" stop-color="#4CA6FE"/>
</linearGradient>
<linearGradient id="paint32_linear_211_18834" x1="234.657" y1="290.171" x2="243.509" y2="291.915" gradientUnits="userSpaceOnUse">
<stop stop-color="#973AF5"/>
<stop offset="1" stop-color="#4CA6FE"/>
</linearGradient>
<linearGradient id="paint33_linear_211_18834" x1="209.553" y1="288.637" x2="251.858" y2="293.984" gradientUnits="userSpaceOnUse">
<stop stop-color="#973AF5"/>
<stop offset="1" stop-color="#4CA6FE"/>
</linearGradient>
<linearGradient id="paint34_linear_211_18834" x1="231" y1="300.446" x2="232.571" y2="300.805" gradientUnits="userSpaceOnUse">
<stop stop-color="#973AF5"/>
<stop offset="1" stop-color="#4CA6FE"/>
</linearGradient>
<linearGradient id="paint35_linear_211_18834" x1="210.859" y1="301.425" x2="248.359" y2="308.347" gradientUnits="userSpaceOnUse">
<stop stop-color="#973AF5"/>
<stop offset="1" stop-color="#4CA6FE"/>
</linearGradient>
<linearGradient id="paint36_linear_211_18834" x1="218.322" y1="316.838" x2="220.711" y2="317.304" gradientUnits="userSpaceOnUse">
<stop stop-color="#973AF5"/>
<stop offset="1" stop-color="#4CA6FE"/>
</linearGradient>
<linearGradient id="paint37_linear_211_18834" x1="224.904" y1="307.297" x2="231.616" y2="309.04" gradientUnits="userSpaceOnUse">
<stop stop-color="#973AF5"/>
<stop offset="1" stop-color="#4CA6FE"/>
</linearGradient>
<linearGradient id="paint38_linear_211_18834" x1="226.855" y1="302.893" x2="230.121" y2="303.256" gradientUnits="userSpaceOnUse">
<stop stop-color="#973AF5"/>
<stop offset="1" stop-color="#4CA6FE"/>
</linearGradient>
<linearGradient id="paint39_linear_211_18834" x1="231" y1="300.446" x2="232.571" y2="300.805" gradientUnits="userSpaceOnUse">
<stop stop-color="#973AF5"/>
<stop offset="1" stop-color="#4CA6FE"/>
</linearGradient>
<linearGradient id="paint40_linear_211_18834" x1="-9.87793" y1="435.578" x2="32.354" y2="440.159" gradientUnits="userSpaceOnUse">
<stop stop-color="#973AF5"/>
<stop offset="1" stop-color="#4CA6FE"/>
</linearGradient>
<linearGradient id="paint41_linear_211_18834" x1="-0.369141" y1="454.089" x2="4.54049" y2="454.588" gradientUnits="userSpaceOnUse">
<stop stop-color="#973AF5"/>
<stop offset="1" stop-color="#4CA6FE"/>
</linearGradient>
<linearGradient id="paint42_linear_211_18834" x1="3.2876" y1="455.557" x2="3.55739" y2="455.592" gradientUnits="userSpaceOnUse">
<stop stop-color="#973AF5"/>
<stop offset="1" stop-color="#4CA6FE"/>
</linearGradient>
<linearGradient id="paint43_linear_211_18834" x1="18.1138" y1="440.531" x2="27.2513" y2="440.804" gradientUnits="userSpaceOnUse">
<stop stop-color="#973AF5"/>
<stop offset="1" stop-color="#4CA6FE"/>
</linearGradient>
<linearGradient id="paint44_linear_211_18834" x1="21.0854" y1="446.229" x2="28.1875" y2="446.578" gradientUnits="userSpaceOnUse">
<stop stop-color="#973AF5"/>
<stop offset="1" stop-color="#4CA6FE"/>
</linearGradient>
<linearGradient id="paint45_linear_211_18834" x1="-7.68359" y1="431.912" x2="16.9127" y2="441.738" gradientUnits="userSpaceOnUse">
<stop stop-color="#973AF5"/>
<stop offset="1" stop-color="#4CA6FE"/>
</linearGradient>
<linearGradient id="paint46_linear_211_18834" x1="-17.6797" y1="469.991" x2="6.43755" y2="477.044" gradientUnits="userSpaceOnUse">
<stop stop-color="#973AF5"/>
<stop offset="1" stop-color="#4CA6FE"/>
</linearGradient>
<linearGradient id="paint47_linear_211_18834" x1="-22.9624" y1="430.088" x2="33.866" y2="439.444" gradientUnits="userSpaceOnUse">
<stop stop-color="#973AF5"/>
<stop offset="1" stop-color="#4CA6FE"/>
</linearGradient>
<linearGradient id="paint48_linear_211_18834" x1="-0.369141" y1="454.089" x2="4.54821" y2="454.548" gradientUnits="userSpaceOnUse">
<stop stop-color="#973AF5"/>
<stop offset="1" stop-color="#4CA6FE"/>
</linearGradient>
<linearGradient id="paint49_linear_211_18834" x1="3.2876" y1="455.557" x2="3.55739" y2="455.592" gradientUnits="userSpaceOnUse">
<stop stop-color="#973AF5"/>
<stop offset="1" stop-color="#4CA6FE"/>
</linearGradient>
<linearGradient id="paint50_linear_211_18834" x1="125.572" y1="540.388" x2="137.264" y2="541.771" gradientUnits="userSpaceOnUse">
<stop stop-color="#973AF5"/>
<stop offset="1" stop-color="#4CA6FE"/>
</linearGradient>
<linearGradient id="paint51_linear_211_18834" x1="341.692" y1="274.49" x2="354.289" y2="276.635" gradientUnits="userSpaceOnUse">
<stop stop-color="#973AF5"/>
<stop offset="1" stop-color="#4CA6FE"/>
</linearGradient>
<linearGradient id="paint52_linear_211_18834" x1="139.286" y1="259.13" x2="149.17" y2="260.082" gradientUnits="userSpaceOnUse">
<stop stop-color="#973AF5"/>
<stop offset="1" stop-color="#4CA6FE"/>
</linearGradient>
<linearGradient id="paint53_linear_211_18834" x1="206.799" y1="175.48" x2="219.803" y2="177.907" gradientUnits="userSpaceOnUse">
<stop stop-color="#973AF5"/>
<stop offset="1" stop-color="#4CA6FE"/>
</linearGradient>
<linearGradient id="paint54_linear_211_18834" x1="88.9843" y1="89.0659" x2="88.9843" y2="144.123" gradientUnits="userSpaceOnUse">
<stop stop-color="#687BF7" stop-opacity="0"/>
<stop offset="1" stop-color="#8050EF"/>
</linearGradient>
<linearGradient id="paint55_linear_211_18834" x1="44.3483" y1="188.395" x2="44.3483" y2="272.576" gradientUnits="userSpaceOnUse">
<stop stop-color="#687BF7" stop-opacity="0"/>
<stop offset="1" stop-color="#8050EF"/>
</linearGradient>
<linearGradient id="paint56_linear_211_18834" x1="182.885" y1="238.304" x2="182.885" y2="397.213" gradientUnits="userSpaceOnUse">
<stop stop-color="#687BF7" stop-opacity="0"/>
<stop offset="1" stop-color="#8050EF"/>
</linearGradient>
<linearGradient id="paint57_linear_211_18834" x1="93.8552" y1="400.51" x2="93.8552" y2="549.014" gradientUnits="userSpaceOnUse">
<stop stop-color="#687BF7" stop-opacity="0"/>
<stop offset="1" stop-color="#8050EF"/>
</linearGradient>
</defs>
</svg>
