<svg width="55" height="35" viewBox="0 0 55 35" fill="none" xmlns="http://www.w3.org/2000/svg">
<path d="M36.2339 14.9805C35.8969 15.2112 35.3914 15.3843 34.7735 15.3843C33.8186 15.3843 32.9199 15.2689 32.0212 14.9805C31.7965 14.9228 31.628 14.8651 31.5157 14.8651C31.3472 14.8651 31.291 14.9805 31.291 15.2112V15.7882C31.291 15.9612 31.3472 16.0766 31.4034 16.192C31.4595 16.2497 31.5719 16.3651 31.7404 16.4228C32.6391 16.8266 33.6501 16.9997 34.7735 16.9997C35.9531 16.9997 36.8518 16.7112 37.582 16.1343C38.3122 15.5574 38.6492 14.8074 38.6492 13.8266C38.6492 13.1343 38.4807 12.6151 38.1437 12.1535C37.8067 11.7497 37.245 11.3459 36.4586 11.0574L34.8859 10.4228C34.268 10.192 33.8186 9.96124 33.6501 9.73047C33.4255 9.4997 33.3131 9.26893 33.3131 8.86508C33.3131 7.9997 33.931 7.53816 35.2229 7.53816C35.9531 7.53816 36.6833 7.65355 37.3573 7.88432C37.582 7.94201 37.7505 7.9997 37.8067 7.9997C37.9752 7.9997 38.0875 7.88431 38.0875 7.65355V7.07662C38.0875 6.90355 38.0314 6.78816 37.9752 6.67278C37.919 6.55739 37.8067 6.4997 37.6382 6.44201C36.7956 6.15355 35.9531 5.98047 35.1106 5.98047C34.0433 5.98047 33.1446 6.26893 32.4706 6.78816C31.7965 7.30739 31.4595 8.05739 31.4595 8.92278C31.4595 10.2497 32.1897 11.2305 33.6501 11.8074L35.3352 12.442C35.8969 12.6728 36.2339 12.8459 36.4586 13.0766C36.6833 13.3074 36.7395 13.5382 36.7395 13.8843C36.7395 14.3459 36.571 14.7497 36.2339 14.9805Z" fill="white"/>
<path d="M27.4146 6.67338V14.3465C26.4597 14.9811 25.5049 15.3272 24.55 15.3272C23.9321 15.3272 23.4827 15.1541 23.2019 14.808C22.9211 14.4618 22.8087 13.9426 22.8087 13.1926V6.67338C22.8087 6.38492 22.6964 6.26953 22.4155 6.26953H21.236C20.9551 6.26953 20.8428 6.38492 20.8428 6.67338V13.8272C20.8428 14.808 21.0675 15.6157 21.573 16.1349C22.0785 16.6541 22.8087 16.9426 23.7636 16.9426C25.0555 16.9426 26.3474 16.4811 27.5831 15.558L27.6955 16.2503C27.6955 16.4234 27.7516 16.4811 27.864 16.5388C27.9202 16.5965 28.0325 16.5965 28.201 16.5965H29.0435C29.3244 16.5965 29.4367 16.4811 29.4367 16.1926V6.67338C29.4367 6.38492 29.3244 6.26953 29.0435 6.26953H27.864C27.527 6.26953 27.4146 6.44261 27.4146 6.67338V6.67338Z" fill="white"/>
<path d="M16.7419 16.6535H17.9215C18.2023 16.6535 18.3147 16.5382 18.3147 16.2497V9.03816C18.3147 8.05739 18.09 7.30739 17.5844 6.78816C17.0789 6.26893 16.4049 5.98047 15.45 5.98047C14.1581 5.98047 12.81 6.44201 11.5181 7.42278C11.0688 6.44201 10.2262 5.98047 8.99049 5.98047C7.75475 5.98047 6.51902 6.44201 5.28329 7.30739L5.17095 6.67278C5.17095 6.4997 5.11478 6.44201 5.00244 6.38432C4.94627 6.32662 4.83393 6.32662 4.72159 6.32662H3.82288C3.54203 6.32662 3.42969 6.44201 3.42969 6.73047V16.3074C3.42969 16.5959 3.54203 16.7112 3.82288 16.7112H5.00244C5.28329 16.7112 5.39563 16.5959 5.39563 16.3074V8.51893C6.35051 7.94201 7.3054 7.59585 8.31645 7.59585C8.87815 7.59585 9.27133 7.76893 9.49601 8.11508C9.72069 8.46124 9.8892 8.92278 9.8892 9.61509V16.2497C9.8892 16.5382 10.0015 16.6535 10.2824 16.6535H11.462C11.7428 16.6535 11.8551 16.5382 11.8551 16.2497V9.15355V8.80739C11.8551 8.69201 11.8551 8.57662 11.8551 8.51893C12.8662 7.88432 13.8211 7.59585 14.776 7.59585C15.3377 7.59585 15.7308 7.76893 15.9555 8.11508C16.1802 8.46124 16.3487 8.92278 16.3487 9.61509V16.2497C16.3487 16.5382 16.4611 16.6535 16.7419 16.6535V16.6535Z" fill="#FDFEFF"/>
<path d="M47.3548 24.3269C41.2323 26.9808 34.5481 28.3077 28.4818 28.3077C19.4947 28.3077 10.7884 25.7692 3.76715 21.5577C3.65481 21.5 3.54247 21.4423 3.43013 21.4423C3.03694 21.4423 2.81226 21.9039 3.20545 22.3077C9.72114 28.3654 18.3713 32 27.9201 32C34.7728 32 42.6927 29.8077 48.1412 25.6539C49.0961 24.9616 48.3097 23.9231 47.3548 24.3269Z" fill="white"/>
<path d="M47.1854 8.57704C47.691 8.00011 48.4773 7.71165 49.6007 7.71165C50.1624 7.71165 50.7241 7.76934 51.2297 7.94242C51.3982 8.00011 51.4543 8.00011 51.5667 8.00011C51.7352 8.00011 51.8475 7.88473 51.8475 7.59627V7.01934C51.8475 6.84627 51.7914 6.67319 51.7352 6.6155C51.679 6.5578 51.5667 6.44242 51.4543 6.38473C50.7241 6.21165 49.9939 6.03857 49.3199 6.03857C47.7471 6.03857 46.5676 6.50011 45.6689 7.48088C44.8263 8.40396 44.377 9.78857 44.377 11.5193C44.377 13.2501 44.7701 14.577 45.6127 15.5001C46.4552 16.4232 47.6348 16.8847 49.2076 16.8847C50.0501 16.8847 50.8365 16.7693 51.4543 16.4809C51.6228 16.4232 51.7352 16.3655 51.7914 16.2501C51.8475 16.1924 51.8475 16.0193 51.8475 15.8463V15.2693C51.8475 14.9809 51.7352 14.8655 51.5667 14.8655C51.5105 14.8655 51.3982 14.8655 51.2858 14.9232C50.668 15.0963 50.0501 15.2117 49.4884 15.2117C48.4212 15.2117 47.6348 14.9232 47.1293 14.3463C46.6237 13.7693 46.3991 12.8463 46.3991 11.6347V11.3463C46.4552 10.077 46.6799 9.15396 47.1854 8.57704V8.57704Z" fill="white"/>
<path d="M49.7137 29.7499C52.6345 27.2114 53.4209 21.9614 52.803 21.1537C52.5222 20.8076 51.1741 20.4614 49.489 20.4614C47.6916 20.4614 45.5571 20.8653 43.9282 22.0191C43.4227 22.3653 43.535 22.8268 44.0405 22.7691C45.7818 22.5383 49.7137 22.0768 50.4439 22.9999C51.1179 23.923 49.6575 27.7307 48.9835 29.4037C48.815 29.923 49.2082 30.096 49.7137 29.7499Z" fill="white"/>
<path d="M41.9067 6.26904H40.7272C40.4463 6.26904 40.334 6.38443 40.334 6.67289V16.2498C40.334 16.5383 40.4463 16.6537 40.7272 16.6537H41.9067C42.1876 16.6537 42.2999 16.5383 42.2999 16.2498V6.67289C42.2999 6.44212 42.1876 6.26904 41.9067 6.26904V6.26904Z" fill="white"/>
<path d="M42.2434 2.34615C42.0187 2.11538 41.6817 2 41.2885 2C40.8953 2 40.6144 2.11538 40.3898 2.34615C40.1651 2.57692 40.0527 2.86538 40.0527 3.21154C40.0527 3.55769 40.1651 3.90385 40.3898 4.07692C40.6144 4.30769 40.8953 4.42308 41.2885 4.42308C41.6817 4.42308 41.9625 4.30769 42.1872 4.07692C42.4119 3.84615 42.5242 3.55769 42.5242 3.21154C42.5242 2.86538 42.468 2.51923 42.2434 2.34615V2.34615Z" fill="white"/>
</svg>
