<svg width="35" height="35" viewBox="0 0 35 35" fill="none" xmlns="http://www.w3.org/2000/svg">
<path fill-rule="evenodd" clip-rule="evenodd" d="M32.41 28C32.12 28.74 31.45 29.78 30.49 30.52C29.94 30.94 29.28 31.35 28.38 31.62C27.42 31.91 26.23 32 24.75 32H11.25C9.77 32 8.59 31.9 7.62 31.62C6.72 31.35 6.06 30.95 5.51 30.52C4.56 29.79 3.88 28.74 3.59 28C3.01 26.51 3 24.82 3 23.75V10.25C3 9.18 3.01 7.49 3.59 6C3.88 5.26 4.55 4.22 5.51 3.48C6.06 3.06 6.72 2.65 7.62 2.38C8.59 2.1 9.77 2 11.25 2H24.75C26.23 2 27.41 2.1 28.38 2.38C29.28 2.65 29.94 3.05 30.49 3.48C31.44 4.21 32.12 5.26 32.41 6C33 7.49 33 9.19 33 10.25V23.75C33 24.82 32.99 26.51 32.41 28Z" fill="white"/>
<path d="M20.5702 20.1102C20.5302 19.7502 20.4102 19.4902 20.1702 19.2502C19.7202 18.7802 18.9302 18.4702 18.0002 18.4702C17.0702 18.4702 16.2802 18.7702 15.8302 19.2502C15.6002 19.5002 15.4702 19.7502 15.4302 20.1102C15.3502 20.8102 15.4002 21.4102 15.4802 22.3802C15.5602 23.3002 15.7102 24.5302 15.9002 25.7702C16.0402 26.6602 16.1502 27.1402 16.2502 27.4802C16.4202 28.0402 17.0302 28.5202 18.0002 28.5202C18.9702 28.5202 19.5902 28.0302 19.7502 27.4802C19.8502 27.1402 19.9602 26.6602 20.1002 25.7702C20.2902 24.5202 20.4402 23.3002 20.5202 22.3802C20.6102 21.4102 20.6502 20.8102 20.5702 20.1102Z" fill="black"/>
<path d="M20.46 15.0103C20.46 16.3703 19.36 17.4703 18 17.4703C16.64 17.4703 15.54 16.3703 15.54 15.0103C15.54 13.6503 16.64 12.5503 18 12.5503C19.36 12.5503 20.46 13.6603 20.46 15.0103Z" fill="black"/>
<path d="M17.9701 5.32033C12.2301 5.34033 7.53011 10.0003 7.45011 15.7403C7.39011 20.3903 10.3601 24.3703 14.5101 25.8303C14.6101 25.8703 14.7101 25.7803 14.7001 25.6803C14.6501 25.3203 14.5901 24.9603 14.5501 24.6003C14.5301 24.4703 14.4501 24.3703 14.3401 24.3103C11.0601 22.8803 8.77011 19.5903 8.81011 15.7803C8.86011 10.7803 12.9401 6.71033 17.9301 6.67033C23.0401 6.63033 27.2101 10.7703 27.2101 15.8703C27.2101 19.6403 24.9301 22.8803 21.6801 24.3103C21.5601 24.3603 21.4801 24.4703 21.4701 24.6003C21.4201 24.9603 21.3701 25.3203 21.3201 25.6803C21.3001 25.7903 21.4101 25.8703 21.5101 25.8303C25.6201 24.3903 28.5701 20.4703 28.5701 15.8703C28.5501 10.0503 23.8001 5.31033 17.9701 5.32033Z" fill="black"/>
<path d="M17.73 8.82015C13.99 8.96015 10.99 12.0502 10.94 15.7902C10.91 18.2502 12.14 20.4302 14.03 21.7202C14.12 21.7802 14.25 21.7102 14.25 21.6002C14.22 21.1702 14.22 20.7902 14.24 20.3902C14.25 20.2602 14.2 20.1402 14.1 20.0502C12.95 18.9702 12.25 17.4302 12.29 15.7302C12.37 12.7302 14.78 10.2902 17.78 10.1702C21.04 10.0402 23.72 12.6602 23.72 15.8802C23.72 17.5202 23.02 19.0002 21.91 20.0502C21.82 20.1402 21.77 20.2602 21.77 20.3902C21.79 20.7802 21.78 21.1602 21.76 21.5902C21.75 21.7002 21.88 21.7802 21.98 21.7102C23.84 20.4402 25.07 18.2902 25.07 15.8702C25.08 11.8902 21.75 8.66015 17.73 8.82015Z" fill="black"/>
</svg>
