<svg width="45" height="35" viewBox="0 0 45 35" fill="none" xmlns="http://www.w3.org/2000/svg">
<path d="M42.9999 2V7.81448H34.3525V2H42.9999Z" fill="white"/>
<path d="M42.9999 10.0588V15.8733H34.3525V10.0588H42.9999V10.0588Z" fill="white"/>
<path d="M42.9999 18.1223V23.9368H34.3525V18.1223H42.9999Z" fill="white"/>
<path d="M11.6474 26.1862V32.0007H3V26.1862H11.6474Z" fill="white"/>
<path d="M22.0947 26.1862V32.0007H13.4434V26.1862H22.0947Z" fill="white"/>
<path d="M32.5566 26.1862V32.0007H23.9053V26.1862H32.5566Z" fill="white"/>
<path d="M42.9999 26.1862V32.0007H34.3525V26.1862H42.9999Z" fill="white"/>
<path d="M32.5566 18.1223V23.9368H23.9053V18.1223H32.5566Z" fill="white"/>
<path d="M22.0947 18.1223V23.9368H13.4434V18.1223H22.0947Z" fill="white"/>
<path d="M22.0947 10.0589V15.8734H13.4434V10.0589H22.0947V10.0589Z" fill="white"/>
</svg>
