<svg width="35" height="35" viewBox="0 0 35 35" fill="none" xmlns="http://www.w3.org/2000/svg">
<path d="M14.8971 14.6834C13.9191 14.6834 13.1486 15.5584 13.1486 16.6268C13.1486 17.6916 13.9371 18.5703 14.8971 18.5703C15.8734 18.5703 16.6439 17.6916 16.6439 16.6268C16.6638 15.5566 15.8734 14.6834 14.8971 14.6834ZM21.1552 14.6834C20.1771 14.6834 19.4066 15.5584 19.4066 16.6268C19.4066 17.6916 20.1952 18.5703 21.1552 18.5703C22.1314 18.5703 22.902 17.6916 22.902 16.6268C22.9002 15.5566 22.1314 14.6834 21.1552 14.6834Z" fill="white"/>
<path d="M29.4866 0H6.51338C4.57714 0 3 1.61 3 3.605V27.265C3 29.26 4.57714 30.87 6.51338 30.87H25.9534L25.0421 27.6297L27.2382 29.7132L29.3116 31.6732L33 35V3.605C33 1.61 31.4229 0 29.4866 0ZM22.8677 22.855C22.8677 22.855 22.2505 22.1034 21.738 21.4347C23.9829 20.7863 24.84 19.3532 24.84 19.3532C24.1362 19.8247 23.4686 20.16 22.8677 20.3884C22.0105 20.7532 21.1895 20.9982 20.3829 21.14C18.7371 21.4532 17.2286 21.3666 15.942 21.1216C14.9657 20.9282 14.1266 20.6482 13.4229 20.3663C13.0295 20.2097 12.5982 20.02 12.1723 19.775C12.12 19.7363 12.0695 19.7216 12.0189 19.6866C11.9829 19.6682 11.9666 19.6516 11.9486 19.6313C11.64 19.4582 11.4686 19.3366 11.4686 19.3366C11.4686 19.3366 12.2914 20.7366 14.4695 21.4016C13.9552 22.0647 13.32 22.855 13.32 22.855C9.53233 22.7316 8.09414 20.195 8.09414 20.195C8.09414 14.56 10.5627 9.99342 10.5627 9.99342C13.0313 8.10158 15.3789 8.155 15.3789 8.155L15.5504 8.365C12.4647 9.27684 11.0409 10.6584 11.0409 10.6584C11.0409 10.6584 11.4199 10.4484 12.0532 10.1518C13.8866 9.33026 15.3429 9.10184 15.9438 9.04842C16.0466 9.03184 16.1332 9.01342 16.2361 9.01342C17.2827 8.87342 18.4647 8.83842 19.6971 8.97842C21.3266 9.17184 23.077 9.66184 24.858 10.6584C24.858 10.6584 23.5029 9.34684 20.5886 8.43684L20.8286 8.15684C20.8286 8.15684 23.178 8.10342 25.6448 9.99526C25.6448 9.99526 28.1134 14.5618 28.1134 20.1968C28.1134 20.1968 26.6571 22.7316 22.8677 22.855Z" fill="white"/>
</svg>
