<svg width="35" height="35" viewBox="0 0 35 35" fill="none" xmlns="http://www.w3.org/2000/svg">
<path d="M31.8409 25.9246L2.17717 29.6638C2.14567 29.669 2.11568 29.6821 2.08951 29.7018C2.06333 29.7216 2.04168 29.7478 2.0262 29.7782C2.01073 29.8085 2.00186 29.8424 2.00026 29.8771C1.99867 29.9118 2.00439 29.9465 2.017 29.9784L2.52955 31.5509C2.57702 31.7091 2.66928 31.8468 2.79305 31.9442C2.91682 32.0416 3.06571 32.0935 3.21828 32.0926H15.5194C16.6109 32.1894 17.702 31.9023 18.633 31.2734C19.564 30.6445 20.2859 29.707 20.6929 28.598C20.6929 28.547 20.7115 28.4982 20.7445 28.462C20.7776 28.426 20.8224 28.4058 20.8691 28.4058C20.9159 28.4058 20.9606 28.426 20.9937 28.462C21.0267 28.4982 21.0452 28.547 21.0452 28.598C21.3816 29.8386 22.5029 32.0926 26.1547 32.0926C27.649 32.1126 29.0921 31.4988 30.1796 30.3808C31.2672 29.2628 31.9145 27.7277 31.985 26.0994C31.9979 26.0768 32.0036 26.0503 32.0015 26.0238C31.9994 25.9975 31.9895 25.9724 31.9731 25.9528C31.9569 25.933 31.9352 25.9197 31.9114 25.9146C31.8875 25.9094 31.8627 25.913 31.8409 25.9246Z" fill="white"/>
<path d="M4.00335 28.074L27.4043 25.1734C27.5175 25.1569 27.6263 25.115 27.7241 25.0505C27.8218 24.9862 27.9063 24.9004 27.9725 24.7988C28.0386 24.6972 28.0847 24.5819 28.1083 24.46C28.1318 24.338 28.1321 24.2122 28.1091 24.0901C27.1358 19.9552 25.369 16.0928 22.9253 12.7583C20.4817 9.42383 17.4171 6.69331 13.9339 4.74732V3.27957C13.9339 3.20542 13.9069 3.13431 13.8589 3.08188C13.8108 3.02945 13.7456 3 13.6777 3H13.4054L8.21583 6.37233C8.18207 6.39674 8.15704 6.43309 8.14497 6.47528C8.13291 6.51746 8.13453 6.5629 8.14957 6.60393C8.16462 6.64496 8.19217 6.67908 8.22757 6.70055C8.26298 6.72202 8.30409 6.72952 8.34397 6.72179L13.3733 5.58603V7.15861C13.3577 8.12467 13.1954 9.0812 12.8928 9.98928C10.7267 16.3718 7.65691 22.3444 3.79512 27.6896C3.77012 27.7282 3.75588 27.7737 3.7541 27.8209C3.75232 27.8681 3.76308 27.9147 3.7851 27.9554C3.80711 27.996 3.83942 28.0289 3.87815 28.0499C3.91687 28.071 3.96036 28.0793 4.00335 28.074ZM13.9179 5.35889C13.9179 5.35889 13.9179 5.35889 14.014 5.35889C15.5357 7.85755 17.5538 20.3159 14.2383 25.0861C14.1261 25.2434 13.9179 25.2434 13.9179 25.0861V5.35889Z" fill="white"/>
</svg>
