<svg width="35" height="35" viewBox="0 0 35 35" fill="none" xmlns="http://www.w3.org/2000/svg">
<path fill-rule="evenodd" clip-rule="evenodd" d="M18 2C9.71496 2 3 8.88493 3 17.3797C3 24.1736 7.29667 29.9391 13.2582 31.9745C14.0086 32.1133 14.2793 31.6399 14.2793 31.2328C14.2793 30.8674 14.2673 29.899 14.2628 28.6176C10.0894 29.5459 9.20814 26.5545 9.20814 26.5545C8.52837 24.7781 7.54331 24.3047 7.54331 24.3047C6.18227 23.3502 7.64708 23.3718 7.64708 23.3718C9.154 23.4798 9.94355 24.957 9.94355 24.957C11.282 27.3069 13.4567 26.6285 14.3079 26.2353C14.4448 25.2407 14.8358 24.5622 15.2629 24.1783C11.9332 23.7912 8.43212 22.4713 8.43212 16.5763C8.43212 14.9002 9.01714 13.5247 9.97213 12.4515C9.82023 12.0614 9.30138 10.4963 10.121 8.38071C10.121 8.38071 11.3798 7.96591 14.2447 9.95507C15.4449 9.61429 16.7247 9.44313 17.9985 9.43696C19.2753 9.44313 20.5566 9.61429 21.7523 9.95507C24.6187 7.96437 25.876 8.38071 25.876 8.38071C26.6956 10.4963 26.1813 12.0614 26.0249 12.4515C26.9874 13.5247 27.5649 14.8986 27.5649 16.5763C27.5649 22.4867 24.0608 23.7851 20.7191 24.1659C21.253 24.6409 21.7342 25.5784 21.7342 27.0124C21.7342 29.0694 21.7162 30.7286 21.7162 31.2328C21.7162 31.6445 21.9839 32.1225 22.7493 31.9714C28.7078 29.9329 33 24.1721 33 17.3797C33 8.88493 26.285 2 18 2Z" fill="white"/>
</svg>
