<svg width="35" height="35" viewBox="0 0 35 35" fill="none" xmlns="http://www.w3.org/2000/svg">
<path d="M6.75 15.9771V18.0226C6.75 19.0581 5.91053 19.8976 4.875 19.8976C3.83947 19.8976 3 19.0581 3 18.0226V15.9771C3 14.9415 3.83947 14.1021 4.875 14.1021C5.91053 14.1021 6.75 14.9415 6.75 15.9771Z" fill="white"/>
<path d="M29.2508 16.0304C29.2503 16.0126 29.25 15.9948 29.25 15.9771C29.25 14.9415 30.0895 14.1021 31.125 14.1021C32.1605 14.1021 33 14.9415 33 15.9771C33 15.9949 32.9998 16.0127 32.9992 16.0304H33V18.0759H32.9992C32.9711 19.0867 32.1427 19.8975 31.125 19.8975C30.1073 19.8975 29.2789 19.0867 29.2508 18.0759H29.25V16.0303H29.2508V16.0304Z" fill="white"/>
<path d="M13.2275 22.1136V24.159C13.2275 25.1946 12.3881 26.034 11.3525 26.034C10.317 26.034 9.47754 25.1946 9.47754 24.159V22.1135C9.47754 21.078 10.317 20.2385 11.3525 20.2385C12.3881 20.2385 13.2275 21.078 13.2275 22.1135V22.1136ZM13.2275 9.84082V16.5312H13.2271C13.2045 17.547 12.3738 18.3636 11.3525 18.3636C10.3313 18.3636 9.50068 17.547 9.47807 16.5312H9.47754V9.84082C9.47754 8.80529 10.317 7.96582 11.3525 7.96582C12.3881 7.96582 13.2275 8.80529 13.2275 9.84082V9.84082Z" fill="white"/>
<path d="M22.7725 11.8863C22.7725 12.9218 23.6119 13.7613 24.6475 13.7613C25.683 13.7613 26.5225 12.9218 26.5225 11.8863V9.84083C26.5225 8.8053 25.683 7.96582 24.6475 7.96582C23.6119 7.96582 22.7725 8.8053 22.7725 9.84083V11.8863Z" fill="white"/>
<path d="M16.125 5.92051C16.125 6.95598 16.9645 7.79551 18 7.79551C19.0355 7.79551 19.875 6.95598 19.875 5.92051V3.875C19.875 2.83947 19.0355 2 18 2C16.9645 2 16.125 2.83947 16.125 3.875V5.92051ZM16.125 28.0795C16.125 27.044 16.9645 26.2045 18 26.2045C19.0355 26.2045 19.875 27.044 19.875 28.0795V30.125C19.875 31.1605 19.0355 32 18 32C16.9645 32 16.125 31.1605 16.125 30.125V28.0795Z" fill="white"/>
<path d="M22.7725 17.5112C22.7725 16.4757 23.6119 15.6362 24.6475 15.6362C25.683 15.6362 26.5225 16.4757 26.5225 17.5112V24.159C26.5225 25.1945 25.683 26.034 24.6475 26.034C23.6119 26.034 22.7725 25.1945 22.7725 24.159V17.5112Z" fill="white"/>
<path d="M19.875 11.5455V22.4545C19.875 23.4901 19.0355 24.3295 18 24.3295C16.9645 24.3295 16.125 23.4901 16.125 22.4545V11.5455C16.125 10.5099 16.9645 9.6705 18 9.6705C19.0355 9.6705 19.875 10.5099 19.875 11.5455Z" fill="white"/>
</svg>
