<svg width="38" height="38" viewBox="0 0 38 38" fill="none" xmlns="http://www.w3.org/2000/svg">
<path fill-rule="evenodd" clip-rule="evenodd" d="M19.0412 3.16675C10.3186 3.16675 3.24902 10.2363 3.24902 18.9589C3.24902 25.9351 7.77261 31.8552 14.0489 33.9452C14.839 34.0877 15.124 33.6016 15.124 33.1836C15.124 32.8083 15.1114 31.814 15.1066 30.4982C10.7129 31.4514 9.78502 28.3797 9.78502 28.3797C9.06936 26.5557 8.03227 26.0697 8.03227 26.0697C6.59936 25.0896 8.14152 25.1117 8.14152 25.1117C9.72802 25.2226 10.5593 26.7394 10.5593 26.7394C11.9684 29.1524 14.2579 28.4557 15.1541 28.052C15.2982 27.0307 15.7099 26.3341 16.1595 25.9398C12.654 25.5424 8.96802 24.1871 8.96802 18.134C8.96802 16.4129 9.58394 15.0006 10.5894 13.8986C10.4294 13.498 9.88319 11.8909 10.7461 9.71858C10.7461 9.71858 12.0714 9.29266 15.0876 11.3352C16.3511 10.9852 17.6985 10.8095 19.0396 10.8032C20.3839 10.8095 21.7329 10.9852 22.9916 11.3352C26.0094 9.29108 27.3331 9.71858 27.3331 9.71858C28.196 11.8909 27.6545 13.498 27.4899 13.8986C28.5032 15.0006 29.1112 16.4113 29.1112 18.134C29.1112 24.2029 25.422 25.5361 21.9039 25.9272C22.4659 26.4148 22.9726 27.3775 22.9726 28.85C22.9726 30.9622 22.9536 32.6658 22.9536 33.1836C22.9536 33.6063 23.2354 34.0972 24.0414 33.942C30.3145 31.8488 34.8334 25.9335 34.8334 18.9589C34.8334 10.2363 27.7638 3.16675 19.0412 3.16675Z" fill="#F1F1F1"/>
</svg>
