<svg width="24" height="30" viewBox="0 0 24 30" fill="none" xmlns="http://www.w3.org/2000/svg">
<path fill-rule="evenodd" clip-rule="evenodd" d="M23.2308 10.257L23.244 10.2967C23.2837 10.4157 23.3078 10.5375 23.3149 10.6622C23.3162 10.6766 23.3202 10.69 23.3241 10.7032C23.3288 10.7188 23.3333 10.734 23.3333 10.75V26.3334C23.3333 27.896 22.0625 29.1667 20.5 29.1667H3.49996C1.93738 29.1667 0.666626 27.896 0.666626 26.3334V3.66671C0.666626 2.10412 1.93738 0.833374 3.49996 0.833374H13.4166C13.4327 0.833374 13.4479 0.837911 13.4634 0.842534C13.4767 0.846478 13.4901 0.850486 13.5045 0.851791C13.6305 0.858874 13.7524 0.884374 13.8714 0.924041C13.8855 0.928893 13.8996 0.933333 13.9136 0.937746C13.9447 0.947503 13.9753 0.957137 14.0045 0.970791C14.1547 1.04021 14.2978 1.12662 14.4196 1.24846L22.9196 9.74846C23.0415 9.87029 23.1279 10.0134 23.1973 10.1635C23.2103 10.1945 23.2205 10.2255 23.2308 10.257ZM13.4166 10.75V3.66671L20.5 10.75H13.4166Z" fill="#F0F0F0"/>
</svg>
