<svg width="50" height="50" viewBox="0 0 50 50" fill="none" xmlns="http://www.w3.org/2000/svg">
<path fill-rule="evenodd" clip-rule="evenodd" d="M15.3304 6.72958C14.7176 6.27318 13.8463 6.32389 13.291 6.88171L4.79567 15.4164L4.64479 15.592C4.19234 16.2048 4.24478 17.0727 4.80078 17.6261L4.97637 17.777C5.58911 18.2295 6.45704 18.177 7.01048 17.621L12.8357 11.7677V36.3549L12.8499 36.567C12.9534 37.3296 13.6071 37.9174 14.3982 37.9174C15.2611 37.9174 15.9607 37.2179 15.9607 36.3549V11.7679L21.7864 17.621L21.9613 17.7727C22.572 18.228 23.4401 18.1796 23.9961 17.6261C24.6077 17.0174 24.61 16.028 24.0012 15.4164L15.5059 6.88171L15.4996 6.87633C15.4491 6.82606 15.3951 6.77922 15.338 6.7362L15.3304 6.72958ZM36.6307 13.4264C36.5272 12.6637 35.8735 12.0759 35.0825 12.0759C34.2195 12.0759 33.52 12.7755 33.52 13.6384V38.2252L27.6943 32.3729L27.5194 32.2212C26.9087 31.7659 26.0406 31.8144 25.4846 32.3678C24.873 32.9766 24.8707 33.9659 25.4795 34.5775L33.9748 43.1122L33.9856 43.1215C34.0333 43.1686 34.0841 43.2126 34.1375 43.2533L34.1503 43.2644C34.763 43.7208 35.6344 43.6701 36.1896 43.1122L44.685 34.5775L44.8359 34.4019C45.2883 33.7892 45.2359 32.9212 44.6799 32.3678C44.0683 31.759 43.079 31.7613 42.4702 32.3729L36.645 38.2233V13.6384L36.6307 13.4264Z" fill="#F0F0F0"/>
</svg>
