<svg width="50" height="50" viewBox="0 0 50 50" fill="none" xmlns="http://www.w3.org/2000/svg">
<path fill-rule="evenodd" clip-rule="evenodd" d="M13.5065 5.86523C5.85735 8.32791 2.44557 16.6786 5.01006 24.6449C6.31141 28.3961 8.42782 31.7677 11.2084 34.5338C15.023 38.2386 19.2136 41.4988 23.7185 44.269L24.2301 44.5753C24.72 44.8686 25.333 44.8634 25.8179 44.562L26.2955 44.2652C30.7942 41.4988 34.9848 38.2386 38.7863 34.5467C41.58 31.7677 43.6964 28.3961 44.9868 24.6774C47.5607 16.6834 44.1348 8.32878 36.4833 5.86535L35.9298 5.70052C32.4217 4.73564 28.6937 5.21108 25.5511 6.99035L24.9925 7.32149L24.4438 6.9922C21.1291 5.11137 17.1675 4.68761 13.5065 5.86523ZM23.6973 10.1131L24.1072 10.4071C24.6475 10.794 25.3765 10.7863 25.9085 10.3881C28.6793 8.31372 32.2653 7.71009 35.5503 8.76398C41.4787 10.6726 44.1766 17.252 42.0969 23.7125C40.9688 26.962 39.1015 29.9367 36.6494 32.3761L35.5494 33.4211C32.5856 36.1754 29.3805 38.6687 25.9775 40.8659L25.0028 41.4789L25.3002 41.6664C21.0012 39.0226 16.9871 35.8998 13.3456 32.3633C10.9065 29.9367 9.03924 26.962 7.90029 23.6799C5.82946 17.2459 8.51568 10.6711 14.4408 8.76349C17.5695 7.7571 20.9805 8.25607 23.6973 10.1131ZM33.0632 13.5078C32.2616 13.252 31.4042 13.6939 31.1481 14.4948C30.892 15.2958 31.3343 16.1525 32.1359 16.4083C33.7114 16.9112 34.8347 18.3293 34.9754 20.002C35.0459 20.8399 35.7828 21.462 36.6214 21.3916C37.4599 21.3212 38.0826 20.5848 38.0121 19.747C37.7684 16.8513 35.8162 14.3865 33.0632 13.5078Z" fill="#F0F0F0"/>
</svg>
