<svg width="50" height="50" viewBox="0 0 50 50" fill="none" xmlns="http://www.w3.org/2000/svg">
<path fill-rule="evenodd" clip-rule="evenodd" d="M37.0185 17.4621H45.8334C45.8334 10.3846 41.5926 6.25 34.4074 6.25H15.5926C8.40743 6.25 4.16669 10.3846 4.16669 17.3718V32.6282C4.16669 39.6154 8.40743 43.75 15.5926 43.75H34.4074C41.5926 43.75 45.8334 39.6154 45.8334 32.6282V31.9782H37.0185C32.9275 31.9782 29.6111 28.7448 29.6111 24.7563C29.6111 20.7677 32.9275 17.5343 37.0185 17.5343V17.4621ZM37.0185 20.5675H44.2778C45.1369 20.5675 45.8333 21.2465 45.8333 22.0841V27.3562C45.8233 28.1897 45.1327 28.863 44.2778 28.8728H37.1852C35.1141 28.8999 33.3031 27.5174 32.8333 25.5507C32.5981 24.3298 32.9283 23.0699 33.7356 22.1088C34.5428 21.1476 35.7445 20.5835 37.0185 20.5675ZM37.3333 26.1104H38.0185C38.8981 26.1104 39.6111 25.4152 39.6111 24.5577C39.6111 23.7001 38.8981 23.0049 38.0185 23.0049H37.3333C36.9126 23.0001 36.5075 23.1597 36.2083 23.448C35.9091 23.7363 35.7407 24.1294 35.7407 24.5396C35.7407 25.4001 36.4508 26.1005 37.3333 26.1104ZM14.0371 17.4621H25.7964C26.6759 17.4621 27.389 16.7669 27.389 15.9094C27.389 15.0518 26.6759 14.3566 25.7964 14.3566H14.0371C13.1647 14.3566 12.4547 15.0408 12.4445 15.8913C12.4445 16.7518 13.1546 17.4522 14.0371 17.4621Z" fill="#F0F0F0"/>
</svg>
