<svg width="80" height="80" viewBox="0 0 80 80" fill="none" xmlns="http://www.w3.org/2000/svg">
<path fill-rule="evenodd" clip-rule="evenodd" d="M17.9324 1.32754C3.24607 6.30474 -3.30454 23.1818 1.61928 39.2822C4.11787 46.8636 8.18138 53.6777 13.5202 59.2683C20.8441 66.7558 28.8901 73.3449 37.5395 78.9436L38.5218 79.5627C39.4624 80.1553 40.6392 80.1449 41.5703 79.5358L42.4873 78.9358C51.1247 73.3449 59.1708 66.7558 66.4697 59.2943C71.8335 53.6777 75.897 46.8636 78.3747 39.348C83.3164 23.1916 76.7388 6.30651 62.0479 1.32779L60.9852 0.994659C54.2495 -0.955422 47.0919 0.00547844 41.0581 3.60147L39.9855 4.27071L38.932 3.6052C32.5677 -0.196042 24.9616 -1.0525 17.9324 1.32754ZM37.4988 9.9127L38.2857 10.5068C39.3231 11.2889 40.7227 11.2733 41.7442 10.4684C47.0642 6.27604 53.9492 5.05606 60.2566 7.18603C71.639 11.0435 76.819 24.3409 72.8259 37.3978C70.66 43.9652 67.0749 49.9771 62.3667 54.9074L60.2547 57.0194C54.5642 62.5859 48.4104 67.625 41.8767 72.0657L40.0052 73.3046L40.5764 73.6835C32.3221 68.3403 24.6152 62.029 17.6235 54.8814C12.9404 49.9771 9.35526 43.9652 7.16847 37.332C3.1925 24.3284 8.35003 11.0405 19.7263 7.18505C25.7334 5.15108 32.2824 6.15952 37.4988 9.9127ZM55.481 16.7736C53.9419 16.2565 52.2957 17.1496 51.8041 18.7684C51.3124 20.3871 52.1615 22.1186 53.7006 22.6357C56.7257 23.652 58.8823 26.518 59.1525 29.8988C59.2878 31.5921 60.7027 32.8495 62.3127 32.7071C63.9228 32.5648 65.1182 31.0766 64.9829 29.3833C64.5151 23.5309 60.7668 18.5495 55.481 16.7736Z" fill="#222E4D"/>
</svg>
