<svg width="24" height="24" viewBox="0 0 24 24" fill="none" xmlns="http://www.w3.org/2000/svg">
<path d="M9.59373 10.971C9.05173 10.971 8.62473 11.446 8.62473 12.026C8.62473 12.604 9.06173 13.081 9.59373 13.081C10.1347 13.081 10.5617 12.604 10.5617 12.026C10.5727 11.445 10.1347 10.971 9.59373 10.971ZM13.0617 10.971C12.5197 10.971 12.0927 11.446 12.0927 12.026C12.0927 12.604 12.5297 13.081 13.0617 13.081C13.6027 13.081 14.0297 12.604 14.0297 12.026C14.0287 11.445 13.6027 10.971 13.0617 10.971Z" fill="#13182A"/>
<path d="M17.6787 3H4.94773C3.87473 3 3.00073 3.874 3.00073 4.957V17.801C3.00073 18.884 3.87473 19.758 4.94773 19.758H15.7207L15.2157 17.999L16.4327 19.13L17.5817 20.194L19.6257 22V4.957C19.6257 3.874 18.7517 3 17.6787 3ZM14.0107 15.407C14.0107 15.407 13.6687 14.999 13.3847 14.636C14.6287 14.284 15.1037 13.506 15.1037 13.506C14.7137 13.762 14.3437 13.944 14.0107 14.068C13.5357 14.266 13.0807 14.399 12.6337 14.476C11.7217 14.646 10.8857 14.599 10.1727 14.466C9.63173 14.361 9.16673 14.209 8.77673 14.056C8.55873 13.971 8.31973 13.868 8.08373 13.735C8.05473 13.714 8.02673 13.706 7.99873 13.687C7.97873 13.677 7.96973 13.668 7.95973 13.657C7.78873 13.563 7.69373 13.497 7.69373 13.497C7.69373 13.497 8.14973 14.257 9.35673 14.618C9.07173 14.978 8.71973 15.407 8.71973 15.407C6.62073 15.34 5.82373 13.963 5.82373 13.963C5.82373 10.904 7.19173 8.425 7.19173 8.425C8.55973 7.398 9.86073 7.427 9.86073 7.427L9.95573 7.541C8.24573 8.036 7.45673 8.786 7.45673 8.786C7.45673 8.786 7.66673 8.672 8.01773 8.511C9.03373 8.065 9.84073 7.941 10.1737 7.912C10.2307 7.903 10.2787 7.893 10.3357 7.893C10.9157 7.817 11.5707 7.798 12.2537 7.874C13.1567 7.979 14.1267 8.245 15.1137 8.786C15.1137 8.786 14.3627 8.074 12.7477 7.58L12.8807 7.428C12.8807 7.428 14.1827 7.399 15.5497 8.426C15.5497 8.426 16.9177 10.905 16.9177 13.964C16.9177 13.964 16.1107 15.34 14.0107 15.407Z" fill="#13182A"/>
</svg>
