<svg width="50" height="50" viewBox="0 0 50 50" fill="none" xmlns="http://www.w3.org/2000/svg">
<path fill-rule="evenodd" clip-rule="evenodd" d="M35.1669 13.2957C34.6311 8.16615 30.273 4.16672 24.976 4.16672C22.2574 4.15533 19.6401 5.2244 17.7092 7.13759C16.0331 8.79831 14.994 10.9763 14.749 13.2957H14.7472C11.036 13.2957 7.91791 16.0064 7.04193 20.7132L5.45675 32.9424C4.10744 41.897 8.31849 45.8333 16.5599 45.8333H33.4293C41.0507 45.8333 45.606 41.3964 44.6707 33.4338L43.0342 20.7952C41.9851 16.0298 38.9473 13.2957 35.316 13.2957H35.1669ZM32.112 13.2957C31.5943 9.83645 28.596 7.18282 24.9697 7.18281C23.0508 7.17478 21.2077 7.92759 19.848 9.2748C18.7441 10.3686 18.0326 11.7811 17.804 13.2957H32.112ZM14.7472 16.3118H35.3159C37.4455 16.3118 39.3164 17.9957 40.0508 21.3123L41.6 33.3276C42.5219 39.7202 39.4531 42.8171 33.4292 42.8171H16.5599C10.037 42.8171 7.40452 40.3565 8.45874 33.3586L10.0353 21.1804C10.6378 17.956 12.529 16.3118 14.7472 16.3118ZM30.9691 21.9092C31.8062 21.9092 32.4847 22.5843 32.4847 23.4172C32.4847 24.1807 31.9146 24.8116 31.1748 24.9115L30.9691 24.9253H30.8766C30.0396 24.9253 29.361 24.2501 29.361 23.4172C29.361 22.6538 29.9312 22.0228 30.671 21.9229L30.8766 21.9092H30.9691ZM20.7023 23.4172C20.7023 22.5843 20.0237 21.9092 19.1866 21.9092H19.0942L18.8885 21.9229C18.1487 22.0228 17.5786 22.6538 17.5786 23.4172C17.5786 24.2501 18.2571 24.9253 19.0942 24.9253H19.1866L19.3923 24.9115C20.1321 24.8116 20.7023 24.1807 20.7023 23.4172Z" fill="#F0F0F0"/>
</svg>
