<svg width="24" height="24" viewBox="0 0 24 24" fill="none" xmlns="http://www.w3.org/2000/svg">
<path fill-rule="evenodd" clip-rule="evenodd" d="M12.0269 2C6.51786 2 2.05286 6.465 2.05286 11.974C2.05286 16.38 4.90986 20.119 8.87386 21.439C9.37286 21.529 9.55286 21.222 9.55286 20.958C9.55286 20.721 9.54486 20.093 9.54186 19.262C6.76686 19.864 6.18086 17.924 6.18086 17.924C5.72886 16.772 5.07386 16.465 5.07386 16.465C4.16886 15.846 5.14286 15.86 5.14286 15.86C6.14486 15.93 6.66986 16.888 6.66986 16.888C7.55986 18.412 9.00586 17.972 9.57186 17.717C9.66286 17.072 9.92286 16.632 10.2069 16.383C7.99286 16.132 5.66486 15.276 5.66486 11.453C5.66486 10.366 6.05386 9.474 6.68886 8.778C6.58786 8.525 6.24286 7.51 6.78786 6.138C6.78786 6.138 7.62486 5.869 9.52986 7.159C10.3279 6.938 11.1789 6.827 12.0259 6.823C12.8749 6.827 13.7269 6.938 14.5219 7.159C16.4279 5.868 17.2639 6.138 17.2639 6.138C17.8089 7.51 17.4669 8.525 17.3629 8.778C18.0029 9.474 18.3869 10.365 18.3869 11.453C18.3869 15.286 16.0569 16.128 13.8349 16.375C14.1899 16.683 14.5099 17.291 14.5099 18.221C14.5099 19.555 14.4979 20.631 14.4979 20.958C14.4979 21.225 14.6759 21.535 15.1849 21.437C19.1469 20.115 22.0009 16.379 22.0009 11.974C22.0009 6.465 17.5359 2 12.0269 2Z" fill="#13182A"/>
</svg>
