<svg width="50" height="50" viewBox="0 0 50 50" fill="none" xmlns="http://www.w3.org/2000/svg">
<path fill-rule="evenodd" clip-rule="evenodd" d="M16.6948 4.16669H10.3661C6.93937 4.16669 4.16669 6.96345 4.16669 10.4074V16.7909C4.16669 20.2334 6.93997 23.0316 10.3661 23.0316H16.6948C20.1209 23.0316 22.8942 20.2334 22.8942 16.7909V10.4074C22.8942 6.96345 20.1215 4.16669 16.6948 4.16669ZM10.3661 7.07366H16.6947C18.5103 7.07366 19.9872 8.56333 19.9872 10.4073V16.7909C19.9872 18.6337 18.5095 20.1246 16.6947 20.1246H10.3661C8.55119 20.1246 7.07357 18.6337 7.07357 16.7909V10.4073C7.07357 8.56333 8.55041 7.07366 10.3661 7.07366ZM39.6358 4.16669H33.3052C29.8785 4.16669 27.1058 6.96345 27.1058 10.4074V16.7909C27.1058 20.2334 29.879 23.0316 33.3052 23.0316H39.6358C43.0604 23.0316 45.8333 20.233 45.8333 16.7909V10.4074C45.8333 6.96385 43.061 4.16669 39.6358 4.16669ZM33.3051 7.07366H39.6357C41.4496 7.07366 42.9262 8.56354 42.9262 10.4073V16.7909C42.9262 18.6335 41.4488 20.1246 39.6357 20.1246H33.3051C31.4903 20.1246 30.0127 18.6337 30.0127 16.7909V10.4073C30.0127 8.56333 31.4895 7.07366 33.3051 7.07366ZM10.3661 26.9685H16.6948C20.1219 26.9685 22.8942 29.7656 22.8942 33.2111V39.5927C22.8942 43.0366 20.1215 45.8334 16.6948 45.8334H10.3661C6.93937 45.8334 4.16669 43.0366 4.16669 39.5927V33.2111C4.16669 29.7656 6.93897 26.9685 10.3661 26.9685ZM16.6947 29.8754H10.3661C8.5502 29.8754 7.07357 31.3653 7.07357 33.2111V39.5927C7.07357 41.4367 8.55041 42.9264 10.3661 42.9264H16.6947C18.5103 42.9264 19.9872 41.4367 19.9872 39.5927V33.2111C19.9872 31.3653 18.5105 29.8754 16.6947 29.8754ZM39.6358 26.9685H33.3052C29.8781 26.9685 27.1058 29.7656 27.1058 33.2111V39.5927C27.1058 43.0366 29.8785 45.8334 33.3052 45.8334H39.6358C43.061 45.8334 45.8333 43.0362 45.8333 39.5927V33.2111C45.8333 29.766 43.0614 26.9685 39.6358 26.9685ZM33.3051 29.8754H39.6357C41.4498 29.8754 42.9262 31.3655 42.9262 33.2111V39.5927C42.9262 41.4365 41.4496 42.9264 39.6357 42.9264H33.3051C31.4895 42.9264 30.0127 41.4367 30.0127 39.5927V33.2111C30.0127 31.3653 31.4893 29.8754 33.3051 29.8754Z" fill="#F0F0F0"/>
</svg>
