<svg width="38" height="38" viewBox="0 0 38 38" fill="none" xmlns="http://www.w3.org/2000/svg">
<path d="M15.1889 17.3708C14.3307 17.3708 13.6547 18.1228 13.6547 19.0412C13.6547 19.9563 14.3466 20.7116 15.1889 20.7116C16.0455 20.7116 16.7216 19.9563 16.7216 19.0412C16.739 18.1213 16.0455 17.3708 15.1889 17.3708ZM20.6799 17.3708C19.8217 17.3708 19.1457 18.1228 19.1457 19.0412C19.1457 19.9563 19.8376 20.7116 20.6799 20.7116C21.5365 20.7116 22.2126 19.9563 22.2126 19.0412C22.211 18.1213 21.5365 17.3708 20.6799 17.3708Z" fill="#F1F1F1"/>
<path d="M27.9902 4.75H7.83275C6.13383 4.75 4.75 6.13383 4.75 7.84858V28.1849C4.75 29.8997 6.13383 31.2835 7.83275 31.2835H24.89L24.0904 28.4984L26.0173 30.2892L27.8366 31.9738L31.0729 34.8333V7.84858C31.0729 6.13383 29.6891 4.75 27.9902 4.75ZM22.1825 24.3944C22.1825 24.3944 21.641 23.7484 21.1913 23.1737C23.161 22.6163 23.9131 21.3845 23.9131 21.3845C23.2956 21.7898 22.7097 22.078 22.1825 22.2743C21.4304 22.5878 20.71 22.7984 20.0022 22.9203C18.5582 23.1895 17.2346 23.1151 16.1057 22.9045C15.2491 22.7383 14.5128 22.4976 13.8953 22.2553C13.5502 22.1208 13.1717 21.9577 12.7981 21.7471C12.7522 21.7138 12.7078 21.7012 12.6635 21.6711C12.6318 21.6553 12.6176 21.641 12.6017 21.6236C12.331 21.4748 12.1806 21.3703 12.1806 21.3703C12.1806 21.3703 12.9026 22.5736 14.8137 23.1452C14.3624 23.7152 13.8051 24.3944 13.8051 24.3944C10.4817 24.2883 9.21975 22.1081 9.21975 22.1081C9.21975 17.2647 11.3857 13.3396 11.3857 13.3396C13.5517 11.7135 15.6117 11.7594 15.6117 11.7594L15.7621 11.9399C13.0546 12.7237 11.8053 13.9112 11.8053 13.9112C11.8053 13.9112 12.1378 13.7307 12.6936 13.4758C14.3022 12.7696 15.58 12.5733 16.1072 12.5273C16.1975 12.5131 16.2735 12.4973 16.3637 12.4973C17.2821 12.3769 18.3192 12.3468 19.4006 12.4672C20.8303 12.6334 22.3662 13.0546 23.9289 13.9112C23.9289 13.9112 22.7398 12.7838 20.1827 12.0017L20.3933 11.761C20.3933 11.761 22.4548 11.7151 24.6192 13.3412C24.6192 13.3412 26.7852 17.2663 26.7852 22.1097C26.7852 22.1097 25.5075 24.2883 22.1825 24.3944Z" fill="#F1F1F1"/>
</svg>
