<svg width="24" height="22" viewBox="0 0 24 22" fill="none" xmlns="http://www.w3.org/2000/svg">
<g clip-path="url(#clip0)">
<path d="M23.8719 16.8115L0.140946 19.5536C0.115744 19.5574 0.0917497 19.567 0.0708108 19.5815C0.049872 19.596 0.0325468 19.6152 0.0201691 19.6375C0.00779147 19.6597 0.000691367 19.6846 -0.000584571 19.71C-0.00186051 19.7355 0.00272175 19.7609 0.0128094 19.7843L0.422847 20.9375C0.460821 21.0535 0.534628 21.1545 0.633644 21.2259C0.732659 21.2973 0.851773 21.3354 0.973834 21.3347H10.8147C11.6879 21.4057 12.5608 21.1952 13.3056 20.734C14.0504 20.2728 14.6279 19.5853 14.9535 18.772C14.9535 18.7346 14.9684 18.6988 14.9948 18.6723C15.0213 18.6459 15.0571 18.6311 15.0945 18.6311C15.1319 18.6311 15.1677 18.6459 15.1942 18.6723C15.2206 18.6988 15.2354 18.7346 15.2354 18.772C15.5045 19.6818 16.4015 21.3347 19.323 21.3347C20.5184 21.3494 21.6729 20.8993 22.5429 20.0794C23.413 19.2595 23.9308 18.1338 23.9872 16.9397C23.9975 16.9231 24.0021 16.9037 24.0004 16.8843C23.9987 16.865 23.9908 16.8466 23.9777 16.8322C23.9647 16.8177 23.9474 16.8079 23.9283 16.8042C23.9092 16.8004 23.8894 16.803 23.8719 16.8115V16.8115Z" fill="#13182A"/>
<path d="M1.60171 18.3876L20.3225 16.2605C20.413 16.2484 20.5001 16.2177 20.5783 16.1704C20.6565 16.1232 20.7241 16.0603 20.777 15.9858C20.8299 15.9113 20.8668 15.8267 20.8857 15.7373C20.9045 15.6479 20.9047 15.5556 20.8863 15.4661C20.1077 12.4338 18.6942 9.60136 16.7393 7.15609C14.7844 4.71081 12.3327 2.70843 9.54618 1.28137V1.28137V0.205019C9.54618 0.150644 9.52458 0.0984971 9.48614 0.0600486C9.44769 0.0216001 9.39554 0 9.34117 0L9.12333 0L4.9717 2.47304C4.94469 2.49094 4.92467 2.5176 4.91501 2.54854C4.90536 2.57947 4.90666 2.61279 4.91869 2.64288C4.93073 2.67297 4.95277 2.69799 4.98109 2.71374C5.00942 2.72948 5.04231 2.73498 5.07421 2.72931L9.09771 1.89642V3.04965C9.08523 3.75809 8.95534 4.45955 8.7133 5.12547C6.98042 9.80595 4.52456 14.1859 1.43513 18.1057C1.41513 18.134 1.40374 18.1674 1.40231 18.202C1.40089 18.2366 1.4095 18.2708 1.42711 18.3006C1.44472 18.3304 1.47057 18.3545 1.50155 18.3699C1.53253 18.3854 1.56732 18.3915 1.60171 18.3876V18.3876ZM9.53337 1.72985C9.53337 1.72985 9.53337 1.72985 9.61025 1.72985C10.8276 3.5622 12.4421 12.6983 9.78964 16.1965C9.69995 16.3118 9.53337 16.3118 9.53337 16.1965V1.72985Z" fill="#13182A"/>
</g>
<defs>
<clipPath id="clip0">
<rect width="24" height="21.3348" fill="white"/>
</clipPath>
</defs>
</svg>
