<svg width="25" height="24" viewBox="0 0 25 24" fill="none" xmlns="http://www.w3.org/2000/svg">
<path d="M23.456 6.01238C22.6864 6.35373 21.8592 6.58442 20.9912 6.68815C21.8771 6.15701 22.5577 5.31598 22.8781 4.31378C22.0488 4.80564 21.1304 5.16278 20.1528 5.3552C19.37 4.52112 18.2547 4 17.0203 4C14.6502 4 12.7285 5.92147 12.7285 8.29155C12.7285 8.6279 12.7665 8.95546 12.8397 9.2696C9.27292 9.0906 6.11058 7.38203 3.99392 4.78551C3.62448 5.41935 3.41284 6.15656 3.41284 6.94309C3.41284 8.43204 4.17047 9.74563 5.32206 10.5153C4.61862 10.4929 3.95679 10.2999 3.37822 9.97846C3.37781 9.99639 3.37781 10.0143 3.37781 10.0324C3.37781 12.1118 4.85716 13.8463 6.82042 14.2406C6.46032 14.3387 6.08117 14.3912 5.68977 14.3912C5.41323 14.3912 5.14438 14.3642 4.88229 14.3142C5.42844 16.0191 7.01336 17.26 8.89137 17.2945C7.42259 18.4457 5.5721 19.1318 3.56136 19.1318C3.21495 19.1318 2.87334 19.1114 2.5376 19.0717C4.43686 20.2894 6.69274 21 9.11633 21C17.0102 21 21.327 14.4605 21.327 8.78918C21.327 8.60314 21.3228 8.41805 21.3145 8.23395C22.1531 7.62886 22.8807 6.87302 23.456 6.01238Z" fill="#13182A"/>
</svg>
