<svg width="38" height="38" viewBox="0 0 38 38" fill="none" xmlns="http://www.w3.org/2000/svg">
<path d="M35.5603 9.51952C34.3418 10.06 33.032 10.4253 31.6577 10.5895C33.0604 9.74852 34.138 8.41689 34.6453 6.83007C33.3322 7.60885 31.8781 8.17432 30.3302 8.47898C29.0908 7.15836 27.3249 6.33325 25.3704 6.33325C21.6178 6.33325 18.5751 9.37558 18.5751 13.1282C18.5751 13.6608 18.6352 14.1794 18.7511 14.6768C13.1037 14.3934 8.09667 11.6881 4.74529 7.57698C4.16035 8.58056 3.82525 9.74781 3.82525 10.9931C3.82525 13.3506 5.02483 15.4305 6.84818 16.6491C5.7344 16.6137 4.6865 16.3081 3.77043 15.7991C3.76979 15.8275 3.76979 15.8559 3.76979 15.8846C3.76979 19.1769 6.11209 21.9232 9.22058 22.5475C8.65043 22.7029 8.05011 22.786 7.43039 22.786C6.99253 22.786 6.56685 22.7432 6.15188 22.6641C7.01662 25.3635 9.52607 27.3283 12.4996 27.3829C10.174 29.2056 7.24408 30.2919 4.06041 30.2919C3.51192 30.2919 2.97104 30.2596 2.43945 30.1968C5.44661 32.1248 9.01842 33.2499 12.8558 33.2499C25.3544 33.2499 32.1894 22.8957 32.1894 13.9161C32.1894 13.6216 32.1827 13.3285 32.1696 13.037C33.4974 12.0789 34.6494 10.8822 35.5603 9.51952Z" fill="#F1F1F1"/>
</svg>
