<svg width="35" height="35" viewBox="0 0 35 35" fill="none" xmlns="http://www.w3.org/2000/svg">
<rect x="2.1875" y="2.1875" width="30.625" height="30.625" rx="6" fill="url(#paint0_radial_90_315)"/>
<rect x="2.1875" y="2.1875" width="30.625" height="30.625" rx="6" fill="url(#paint1_radial_90_315)"/>
<rect x="2.1875" y="2.1875" width="30.625" height="30.625" rx="6" fill="white"/>
<path d="M25.1562 11.4844C25.1562 12.3905 24.4217 13.125 23.5156 13.125C22.6095 13.125 21.875 12.3905 21.875 11.4844C21.875 10.5783 22.6095 9.84375 23.5156 9.84375C24.4217 9.84375 25.1562 10.5783 25.1562 11.4844Z" fill="black"/>
<path fill-rule="evenodd" clip-rule="evenodd" d="M17.5 22.9688C20.5203 22.9688 22.9688 20.5203 22.9688 17.5C22.9688 14.4797 20.5203 12.0312 17.5 12.0312C14.4797 12.0312 12.0312 14.4797 12.0312 17.5C12.0312 20.5203 14.4797 22.9688 17.5 22.9688ZM17.5 20.7812C19.3122 20.7812 20.7812 19.3122 20.7812 17.5C20.7812 15.6878 19.3122 14.2188 17.5 14.2188C15.6878 14.2188 14.2188 15.6878 14.2188 17.5C14.2188 19.3122 15.6878 20.7812 17.5 20.7812Z" fill="black"/>
<path fill-rule="evenodd" clip-rule="evenodd" d="M6.5625 17.0625C6.5625 13.3872 6.5625 11.5495 7.27777 10.1457C7.90694 8.91087 8.91087 7.90694 10.1457 7.27777C11.5495 6.5625 13.3872 6.5625 17.0625 6.5625H17.9375C21.6128 6.5625 23.4505 6.5625 24.8543 7.27777C26.0891 7.90694 27.0931 8.91087 27.7222 10.1457C28.4375 11.5495 28.4375 13.3872 28.4375 17.0625V17.9375C28.4375 21.6128 28.4375 23.4505 27.7222 24.8543C27.0931 26.0891 26.0891 27.0931 24.8543 27.7222C23.4505 28.4375 21.6128 28.4375 17.9375 28.4375H17.0625C13.3872 28.4375 11.5495 28.4375 10.1457 27.7222C8.91087 27.0931 7.90694 26.0891 7.27777 24.8543C6.5625 23.4505 6.5625 21.6128 6.5625 17.9375V17.0625ZM17.0625 8.75H17.9375C19.8113 8.75 21.085 8.7517 22.0696 8.83214C23.0286 8.9105 23.5191 9.05253 23.8612 9.22685C24.6844 9.64629 25.3537 10.3156 25.7732 11.1388C25.9475 11.4809 26.0895 11.9714 26.1679 12.9304C26.2483 13.915 26.25 15.1887 26.25 17.0625V17.9375C26.25 19.8113 26.2483 21.085 26.1679 22.0696C26.0895 23.0286 25.9475 23.5191 25.7732 23.8612C25.3537 24.6844 24.6844 25.3537 23.8612 25.7732C23.5191 25.9475 23.0286 26.0895 22.0696 26.1679C21.085 26.2483 19.8113 26.25 17.9375 26.25H17.0625C15.1887 26.25 13.915 26.2483 12.9304 26.1679C11.9714 26.0895 11.4809 25.9475 11.1388 25.7732C10.3156 25.3537 9.64629 24.6844 9.22685 23.8612C9.05253 23.5191 8.9105 23.0286 8.83214 22.0696C8.7517 21.085 8.75 19.8113 8.75 17.9375V17.0625C8.75 15.1887 8.7517 13.915 8.83214 12.9304C8.9105 11.9714 9.05253 11.4809 9.22685 11.1388C9.64629 10.3156 10.3156 9.64629 11.1388 9.22685C11.4809 9.05253 11.9714 8.9105 12.9304 8.83214C13.915 8.7517 15.1887 8.75 17.0625 8.75Z" fill="black"/>
<defs>
<radialGradient id="paint0_radial_90_315" cx="0" cy="0" r="1" gradientUnits="userSpaceOnUse" gradientTransform="translate(13.125 25.1563) rotate(-55.3758) scale(27.9121)">
<stop stop-color="#B13589"/>
<stop offset="0.79309" stop-color="#C62F94"/>
<stop offset="1" stop-color="#8A3AC8"/>
</radialGradient>
<radialGradient id="paint1_radial_90_315" cx="0" cy="0" r="1" gradientUnits="userSpaceOnUse" gradientTransform="translate(12.0312 33.9062) rotate(-65.1363) scale(24.7125)">
<stop stop-color="#E0E8B7"/>
<stop offset="0.444662" stop-color="#FB8A2E"/>
<stop offset="0.71474" stop-color="#E2425C"/>
<stop offset="1" stop-color="#E2425C" stop-opacity="0"/>
</radialGradient>
</defs>
</svg>
