<svg width="25" height="25" viewBox="0 0 25 25" fill="none" xmlns="http://www.w3.org/2000/svg">
<path d="M22.5133 0.12915H2.38249C1.28296 0.12915 0.321655 0.913948 0.321655 1.99149V21.9914C0.321655 23.0751 1.28296 24.0406 2.38249 24.0406H22.5071C23.6129 24.0406 24.4422 23.0689 24.4422 21.9914V1.99149C24.4485 0.913948 23.6129 0.12915 22.5133 0.12915ZM7.79847 20.0605H4.3428V9.40969H7.79847V20.0605ZM6.19001 7.79027H6.16488C5.05906 7.79027 4.3428 6.97433 4.3428 5.95285C4.3428 4.91268 5.07791 4.11542 6.20886 4.11542C7.33981 4.11542 8.03094 4.90645 8.05607 5.95285C8.05607 6.97433 7.3398 7.79027 6.19001 7.79027ZM20.4274 20.0605H16.9717V14.2368C16.9717 12.8416 16.4691 11.8887 15.2187 11.8887C14.2637 11.8887 13.6982 12.5302 13.4469 13.1531C13.3527 13.3773 13.3275 13.6825 13.3275 13.9939V20.0605H9.87187V9.40969H13.3275V10.8921C13.8302 10.182 14.6156 9.16055 16.4439 9.16055C18.7121 9.16055 20.4274 10.6429 20.4274 13.8382V20.0605Z" fill="white"/>
</svg>
