<svg width="30" height="61" viewBox="0 0 30 61" fill="none" xmlns="http://www.w3.org/2000/svg">
<path d="M30 45.8824C30 54.1487 23.3127 60.8361 14.9536 60.8361C6.6873 60.8361 0 54.1487 0 45.8824C0 38.8236 4.82969 32.9722 11.3313 31.3004V22.8483H12.5387V32.6007C12.0743 32.6936 11.7028 32.7864 11.3313 32.8793C5.6656 34.4583 1.48605 39.6595 1.48605 45.8824C1.48605 53.3128 7.52321 59.3499 14.9536 59.3499C22.3839 59.3499 28.4211 53.3128 28.4211 45.8824C28.4211 39.6595 24.2415 34.4583 18.5759 32.8793C18.2044 32.7864 17.7399 32.6936 17.3684 32.6007V22.8483H18.5759V31.3004C25.1703 32.8793 30 38.8236 30 45.8824Z" fill="url(#paint0_linear_9_20839)"/>
<path d="M26.4706 45.8824C26.4706 52.1982 21.3622 57.3067 14.9535 57.3067C8.63771 57.3067 3.5293 52.1982 3.5293 45.8824C3.5293 45.5109 3.52939 45.1394 3.62227 44.7679C4.3653 45.4181 5.20115 45.9754 6.22282 46.1611C7.98753 46.5326 9.65936 46.0682 11.3312 45.6967C12.26 45.4181 13.0959 45.2323 14.0247 45.0465C14.9535 44.9537 15.8823 44.9537 16.8111 45.0465C18.5758 45.2323 20.5263 45.4181 21.9195 44.3035C23.2198 43.2819 23.6841 41.61 23.4984 40.1239C23.4055 39.0094 22.9412 38.0806 22.291 37.1518C24.8916 39.1023 26.4706 42.2601 26.4706 45.8824Z" fill="url(#paint1_linear_9_20839)"/>
<path d="M20.433 19.8762C20.8045 19.8762 21.0831 20.1548 21.0831 20.5263V22.1981C21.0831 22.5697 20.8045 22.8483 20.433 22.8483H9.65901C9.2875 22.8483 9.00879 22.5697 9.00879 22.1981V20.5263C9.00879 20.1548 9.2875 19.8762 9.65901 19.8762H20.433Z" fill="url(#paint2_linear_9_20839)"/>
<path d="M20.526 40.867C21.2954 40.867 21.9192 40.2432 21.9192 39.4738C21.9192 38.7043 21.2954 38.0806 20.526 38.0806C19.7566 38.0806 19.1328 38.7043 19.1328 39.4738C19.1328 40.2432 19.7566 40.867 20.526 40.867Z" fill="url(#paint3_linear_9_20839)"/>
<path d="M16.7186 37.6162C17.3342 37.6162 17.8331 37.1172 17.8331 36.5016C17.8331 35.8861 17.3342 35.3871 16.7186 35.3871C16.1031 35.3871 15.604 35.8861 15.604 36.5016C15.604 37.1172 16.1031 37.6162 16.7186 37.6162Z" fill="url(#paint4_linear_9_20839)"/>
<path d="M15.8823 34.2725C16.344 34.2725 16.7183 33.8982 16.7183 33.4366C16.7183 32.9749 16.344 32.6006 15.8823 32.6006C15.4207 32.6006 15.0464 32.9749 15.0464 33.4366C15.0464 33.8982 15.4207 34.2725 15.8823 34.2725Z" fill="url(#paint5_linear_9_20839)"/>
<path d="M14.4894 16.2539C15.2588 16.2539 15.8826 15.6302 15.8826 14.8607C15.8826 14.0913 15.2588 13.4675 14.4894 13.4675C13.7199 13.4675 13.0962 14.0913 13.0962 14.8607C13.0962 15.6302 13.7199 16.2539 14.4894 16.2539Z" fill="url(#paint6_linear_9_20839)"/>
<path d="M18.483 11.3313C19.9193 11.3313 21.0836 10.1669 21.0836 8.73062C21.0836 7.29433 19.9193 6.13 18.483 6.13C17.0467 6.13 15.8823 7.29433 15.8823 8.73062C15.8823 10.1669 17.0467 11.3313 18.483 11.3313Z" fill="url(#paint7_linear_9_20839)"/>
<path d="M12.9101 5.75854C14.5003 5.75854 15.7894 4.46941 15.7894 2.87924C15.7894 1.28907 14.5003 0 12.9101 0C11.3199 0 10.0308 1.28907 10.0308 2.87924C10.0308 4.46941 11.3199 5.75854 12.9101 5.75854Z" fill="url(#paint8_linear_9_20839)"/>
<defs>
<linearGradient id="paint0_linear_9_20839" x1="15" y1="22.8483" x2="15" y2="60.8361" gradientUnits="userSpaceOnUse">
<stop stop-color="#687BF7"/>
<stop offset="1" stop-color="#8050EF"/>
</linearGradient>
<linearGradient id="paint1_linear_9_20839" x1="14.9999" y1="37.1518" x2="14.9999" y2="57.3067" gradientUnits="userSpaceOnUse">
<stop stop-color="#687BF7"/>
<stop offset="1" stop-color="#8050EF"/>
</linearGradient>
<linearGradient id="paint2_linear_9_20839" x1="15.046" y1="19.8762" x2="15.046" y2="22.8483" gradientUnits="userSpaceOnUse">
<stop stop-color="#687BF7"/>
<stop offset="1" stop-color="#8050EF"/>
</linearGradient>
<linearGradient id="paint3_linear_9_20839" x1="20.526" y1="38.0806" x2="20.526" y2="40.867" gradientUnits="userSpaceOnUse">
<stop stop-color="#687BF7"/>
<stop offset="1" stop-color="#8050EF"/>
</linearGradient>
<linearGradient id="paint4_linear_9_20839" x1="16.7186" y1="35.3871" x2="16.7186" y2="37.6162" gradientUnits="userSpaceOnUse">
<stop stop-color="#687BF7"/>
<stop offset="1" stop-color="#8050EF"/>
</linearGradient>
<linearGradient id="paint5_linear_9_20839" x1="15.8823" y1="32.6006" x2="15.8823" y2="34.2725" gradientUnits="userSpaceOnUse">
<stop stop-color="#687BF7"/>
<stop offset="1" stop-color="#8050EF"/>
</linearGradient>
<linearGradient id="paint6_linear_9_20839" x1="14.4894" y1="13.4675" x2="14.4894" y2="16.2539" gradientUnits="userSpaceOnUse">
<stop stop-color="#687BF7"/>
<stop offset="1" stop-color="#8050EF"/>
</linearGradient>
<linearGradient id="paint7_linear_9_20839" x1="18.4829" y1="6.13" x2="18.4829" y2="11.3313" gradientUnits="userSpaceOnUse">
<stop stop-color="#687BF7"/>
<stop offset="1" stop-color="#8050EF"/>
</linearGradient>
<linearGradient id="paint8_linear_9_20839" x1="12.9101" y1="0" x2="12.9101" y2="5.75854" gradientUnits="userSpaceOnUse">
<stop stop-color="#687BF7"/>
<stop offset="1" stop-color="#8050EF"/>
</linearGradient>
</defs>
</svg>
