<svg width="35" height="35" viewBox="0 0 35 35" fill="none" xmlns="http://www.w3.org/2000/svg">
<path d="M14.1024 20.4181C14.9085 20.4181 15.5621 19.7645 15.5621 18.9583C15.5621 18.1522 14.9085 17.4985 14.1024 17.4985C13.2961 17.4985 12.6426 18.1522 12.6426 18.9583C12.6426 19.7645 13.2961 20.4181 14.1024 20.4181Z" fill="white"/>
<path d="M20.5474 22.445C19.6608 23.0794 18.5874 23.3929 17.4995 23.3331C16.4145 23.3827 15.3426 23.0575 14.4647 22.4144C14.3204 22.2962 14.1118 22.2962 13.966 22.4144C13.7983 22.5529 13.7735 22.8008 13.912 22.9685C14.9474 23.7487 16.2191 24.1483 17.5156 24.0914C18.8091 24.1483 20.0822 23.7516 21.1162 22.9685V23.0269C21.2751 22.8723 21.2781 22.6112 21.1249 22.4494C20.966 22.2889 20.7079 22.286 20.5474 22.445ZM20.8522 17.5581C20.0472 17.5581 19.3954 18.2114 19.3954 19.0179C19.3954 19.8229 20.0472 20.4748 20.8522 20.4748L20.8406 20.5316C20.8639 20.5346 20.8887 20.5316 20.9149 20.5316C21.7185 20.501 22.3426 19.8214 22.312 19.0179C22.312 18.2114 21.6616 17.5581 20.8522 17.5581Z" fill="white"/>
<path d="M17.5003 2.9165C9.44887 2.9165 2.91699 9.44546 2.91699 17.4998C2.91699 25.5513 9.44887 32.0832 17.5003 32.0832C25.5518 32.0832 32.0837 25.5513 32.0837 17.4998C32.0837 9.44546 25.5518 2.9165 17.5003 2.9165ZM26.0447 19.4394C26.0622 19.6523 26.0622 19.8667 26.0447 20.0796C26.0447 23.3463 22.2399 26.0034 17.5426 26.0034C12.8453 26.0034 9.04053 23.3492 9.04053 20.0796C9.02303 19.8667 9.02303 19.6523 9.04053 19.4394C8.82908 19.3432 8.63949 19.2134 8.46887 19.0544C7.61283 18.248 7.57345 16.899 8.37699 16.0459C9.18199 15.1884 10.531 15.1475 11.3855 15.954C13.0655 14.815 15.0445 14.1909 17.0716 14.1603L18.1551 9.09984C18.1551 9.09984 18.1551 9.09692 18.1551 9.094C18.2105 8.85046 18.4512 8.69734 18.6962 8.74984L22.2676 9.46442C22.501 9.06338 22.9093 8.7965 23.373 8.74692C24.1751 8.66088 24.8912 9.23984 24.9801 10.0419C25.0662 10.8425 24.4872 11.5615 23.6837 11.6475C22.883 11.7336 22.1655 11.1546 22.0766 10.354L18.9587 9.69775L18.0122 14.2478C20.0174 14.29 21.9657 14.9142 23.6268 16.0415C24.0045 15.6798 24.5003 15.4684 25.0224 15.4494C26.1993 15.4071 27.1837 16.3244 27.2274 17.4998C27.242 18.3209 26.7797 19.0748 26.0447 19.4394Z" fill="white"/>
</svg>
