<svg width="236" height="251" viewBox="0 0 236 251" fill="none" xmlns="http://www.w3.org/2000/svg">
<path d="M92.3721 146.98L92.372 146.98L92.3689 146.992C91.2015 151.662 90.4242 156.715 90.0357 161.765L90.0343 161.785V161.804V163.623H88.6013C47.5098 163.623 14.1015 130.212 14.1015 89.5101C14.1015 48.4186 47.5132 15.01 88.2148 15.01C129.305 15.01 162.715 48.4202 162.715 89.5101V89.5169V89.5236V89.5304V89.5372V89.544V89.5508V89.5576V89.5644V89.5712V89.578V89.5848V89.5916V89.5984V89.6052V89.612V89.6188V89.6256V89.6324V89.6392V89.646V89.6528V89.6596V89.6664V89.6731V89.6799V89.6867V89.6935V89.7003V89.7071V89.7139V89.7207V89.7275V89.7343V89.7411V89.7479V89.7547V89.7615V89.7683V89.7751V89.7819V89.7887V89.7955V89.8023V89.8091V89.8159V89.8227V89.8295V89.8363V89.843V89.8498V89.8566V89.8634V89.8702V89.877V89.8838V89.8906V89.8974V89.9042V89.911V89.9178V89.9246V89.9314V89.9382V89.945V89.9518V89.9586V89.9654V89.9722V89.979V89.9858V89.9925V89.9993V90.0061V90.0129V90.0197V90.0265V90.0333V90.0401V90.0469V90.0537V90.0605V90.0673V90.0741V90.0809V90.0877V90.0945V90.1013V90.1081V90.1149V90.1217V90.1285V90.1353V90.1421V90.1488V90.1556V90.1624V90.1692V90.176V90.1828V90.1896V90.1964V90.2032V90.21V90.2168V90.2236V90.2304V90.2372V90.244V90.2508V90.2576V90.2644V90.2712V90.278V90.2848V90.2916V90.2984V90.3051V90.3119V90.3187V90.3255V90.3323V90.3391V90.3459V90.3527V90.3595V90.3663V90.3731V90.3799V90.3867V90.3935V90.4003V90.4071V90.4139V90.4207V90.4275V90.4343V90.4411V90.4479V90.4547V90.4614V90.4682V90.475V90.4818V90.4886V90.4954V90.5022V90.509V90.5158V90.5226V90.5294V90.5362V90.543V90.5498V90.5566V90.5634V90.5702V90.577V90.5838V90.5906V90.5974V90.6042V90.6109V90.6177V90.6245V90.6313V90.6381V90.6449V90.6517V90.6585V90.6653V90.6721V90.6789V90.6857V90.6925V90.6993V90.7061V90.7129V90.7197V90.7265V90.7333V90.7401V90.7469V90.7537V90.7605V90.7673V90.774V90.7808V90.7876V90.7944V90.8012V90.808V90.8148V90.8216V90.8284V90.8352V90.842V90.8488V90.8556V90.8624V90.8692V90.876V90.8828V90.8896V90.8964V90.9032V90.91V90.9168V90.9235V90.9303V90.9371V90.9439V90.9507V90.9575V90.9643V90.9711V90.9779V90.9847V90.9915V90.9983V91.0051V91.0119V91.0187V91.0255V91.0323V91.0391V91.0459V91.0527V91.0595V91.0663V91.0731V91.0798V91.0866V91.0934V91.1002V91.107V91.1138V91.1206V91.1274V91.1342V91.141V91.1478V91.1546V91.1614V91.1682V91.175V91.1818V91.1886V91.1954V91.2022V91.209V91.2158V91.2226V91.2293V91.2361V91.2429V91.2497V91.2565V91.2633V91.2701V91.2769V91.2837V91.2905V91.2973V91.3041V91.3109V91.3177V91.3245V91.3313V91.3381V91.3449V91.3517V91.3585V91.3653V91.3721V91.3789V91.3857V91.3924V91.3992V91.406V91.4128V91.4196V91.4264V91.4332V91.44V91.4468V91.4536V91.4604V91.4672V91.474V91.4808V91.4876V91.4944V91.5012V91.508V91.5148V91.5216V91.5284V91.5351V91.5419V91.5487V91.5555V91.5623V91.5691V91.5759V91.5827V91.5895V91.5963V91.6031V91.6099V91.6167V91.6235V91.6303V91.6371V91.6439V91.6507V91.6575V91.6643V91.6711V91.6779V91.6847V91.6915V91.6982V91.705V91.7118V91.7186V91.7254V91.7322V91.739V91.7458V91.7526V91.7594V91.7662V91.773V91.7798V91.7866V91.7934V91.8002V91.807V91.8138V91.8206V91.8274V91.8342V91.841V91.8477V91.8545V91.8613V91.8681V91.8749V91.8817V91.8885V91.8953V91.9021V91.9089V91.9157V91.9225V91.9293V91.9361V91.9429V91.9497V91.9565V91.9633V91.9701V91.9769V91.9837V91.9905V91.9973V92.0041V92.0108V92.0176V92.0244V92.0312V92.038V92.0448V92.0516V92.0584V92.0652V92.072V92.0788V92.0856V92.0924V92.0992V92.106V92.1128V92.1196V92.1264V92.1332V92.14V92.1468V92.1535V92.1603V92.1671V92.1739V92.1807V92.1875V92.1943V92.2011V92.2079V92.2147V92.2215V92.2283V92.2351V92.2419V92.2487V92.2555V92.2623V92.2691V92.2759V92.2827V92.2895V92.2963V92.3031V92.3099V92.3167V92.3234V92.3302V92.337V92.3438V92.3506V92.3574V92.3642V92.371V92.3778V92.3846V92.3914V92.3982V92.405V92.4118V92.4186V92.4254V92.4322V92.439V92.4458V92.4526V92.4594V92.4661V92.4729V92.4797V92.4865V92.4933V92.5001V92.5069V92.5137V92.5205V92.5273V92.5341V92.5409V92.5477V92.5545V92.5613V92.5681V92.5749V92.5817V92.5885V92.5953V92.6021V92.6089V92.6157V92.6225V92.6292V92.636V92.6428V92.6496V92.6564V92.6632V92.67V92.6768V92.6836V92.6904V92.6972V92.704V92.7108V92.7176V92.7244V92.7312V92.738V92.7448V92.7516V92.7584V92.7652V92.772V92.7788V92.7855V92.7923V92.7991V92.8059V92.8127V92.8195V92.8263V92.8331V92.8399V92.8467V92.8535V92.8603V92.8671V92.8739V92.8807V92.8875V92.8943V92.9011V92.9079V92.9147V92.9215V92.9283V92.9351V92.9418V92.9486V92.9554V92.9622V92.969V92.9758V92.9826V92.9894V94.4224H161.282C156.232 94.4224 151.168 94.8106 146.096 95.9805C120.395 101.434 99.3789 121.677 92.3721 146.98Z" fill="url(#paint0_linear_2_6)" stroke="url(#paint1_linear_2_6)"/>
<path d="M146.88 94.4145L146.865 94.4742V94.5358V95.3352L146.074 95.5987C120.001 101.058 98.9969 121.292 91.9889 146.968L91.7208 147.773H90.9214H90.9169H90.9124H90.9078H90.9033H90.8988H90.8942H90.8897H90.8852H90.8807H90.8761H90.8716H90.8671H90.8625H90.858H90.8535H90.8489H90.8444H90.8399H90.8354H90.8308H90.8263H90.8218H90.8172H90.8127H90.8082H90.8036H90.7991H90.7946H90.79H90.7855H90.781H90.7765H90.7719H90.7674H90.7629H90.7583H90.7538H90.7493H90.7447H90.7402H90.7357H90.7311H90.7266H90.7221H90.7176H90.713H90.7085H90.704H90.6994H90.6949H90.6904H90.6858H90.6813H90.6768H90.6722H90.6677H90.6632H90.6587H90.6541H90.6496H90.6451H90.6405H90.636H90.6315H90.6269H90.6224H90.6179H90.6134H90.6088H90.6043H90.5998H90.5952H90.5907H90.5862H90.5816H90.5771H90.5726H90.568H90.5635H90.559H90.5545H90.5499H90.5454H90.5409H90.5363H90.5318H90.5273H90.5227H90.5182H90.5137H90.5091H90.5046H90.5001H90.4956H90.491H90.4865H90.482H90.4774H90.4729H90.4684H90.4638H90.4593H90.4548H90.4502H90.4457H90.4412H90.4367H90.4321H90.4276H90.4231H90.4185H90.414H90.4095H90.4049H90.4004H90.3959H90.3913H90.3868H90.3823H90.3778H90.3732H90.3687H90.3642H90.3596H90.3551H90.3506H90.346H90.3415H90.337H90.3325H90.3279H90.3234H90.3189H90.3143H90.3098H90.3053H90.3007H90.2962H90.2917H90.2871H90.2826H90.2781H90.2735H90.269H90.2645H90.26H90.2554H90.2509H90.2464H90.2418H90.2373H90.2328H90.2282H90.2237H90.2192H90.2146H90.2101H90.2056H90.2011H90.1965H90.192H90.1875H90.1829H90.1784H90.1739H90.1693H90.1648H90.1603H90.1558H90.1512H90.1467H90.1422H90.1376H90.1331H90.1286H90.124H90.1195H90.115H90.1104H90.1059H90.1014H90.0968H90.0923H90.0878H90.0833H90.0787H90.0742H90.0697H90.0651H90.0606H90.0561H90.0515H90.047H90.0425H90.0379H90.0334H90.0289H90.0244H90.0198H90.0153H90.0108H90.0062H90.0017H89.9972H89.9926H89.9881H89.9836H89.979H89.9745H89.97H89.9655H89.9609H89.9564H89.9519H89.9473H89.9428H89.9383H89.9337H89.9292H89.9247H89.9201H89.9156H89.9111H89.9066H89.902H89.8975H89.893H89.8884H89.8839H89.8794H89.8748H89.8703H89.8658H89.8612H89.8567H89.8522H89.8477H89.8431H89.8386H89.8341H89.8295H89.825H89.8205H89.8159H89.8114H89.8069H89.8023H89.7978H89.7933H89.7887H89.7842H89.7797H89.7752H89.7706H89.7661H89.7616H89.757H89.7525H89.748H89.7434H89.7389H89.7344H89.7299H89.7253H89.7208H89.7163H89.7117H89.7072H89.7027H89.6981H89.6936H89.6891H89.6845H89.68H89.6755H89.6709H89.6664H89.6619H89.6574H89.6528H89.6483H89.6438H89.6392H89.6347H89.6302H89.6256H89.6211H89.6166H89.612H89.6075H89.603H89.5985H89.5939H89.5894H89.5849H89.5803H89.5758H89.5713H89.5667H89.5622H89.5577H89.5531H89.5486H89.5441H89.5396H89.535H89.5305H89.526H89.5214H89.5169H89.5124H89.5078H89.5033H89.4988H89.4942H89.4897H89.4852H89.4807H89.4761H89.4716H89.4671H89.4625H89.458H89.4535H89.4489H89.4444H89.4399H89.4353H89.4308H89.4263H89.4218H89.4172H89.4127H89.4082H89.4036H89.3991H89.3946H89.39H89.3855H89.381H89.3764H89.3719H89.3674H89.3629H89.3583H89.3538H89.3493H89.3447H89.3402H89.3357H89.3311H89.3266H89.3221H89.3175H89.313H89.3085H89.304H89.2994H89.2949H89.2904H89.2858H89.2813H89.2768H89.2722H89.2677H89.2632H89.2586H89.2541H89.2496H89.2451H89.2405H89.236H89.2315H89.2269H89.2224H89.2179H89.2133H89.2088H89.2043H89.1997H89.1952H89.1907H89.1862H89.1816H89.1771H89.1726H89.168H89.1635H89.159H89.1544H89.1499H89.1454H89.1408H89.1363H89.1318H89.1273H89.1227H89.1182H89.1137H89.1091H89.1046H89.1001H89.0955H89.091H89.0865H89.0819H89.0774H89.0729H89.0684H89.0638H89.0593H89.0548H89.0502H89.0457H89.0412H89.0366H89.0321H89.0276H89.023H89.0185H89.014H89.0095H89.0049H89.0004H88.9959H88.9913H88.9868H88.9823H88.9777H88.9732H88.9687H88.9641H88.9596H88.9551H88.9506H88.946H88.9415H88.937H88.9324H88.9279H88.9234H88.9188H88.9143H88.9098H88.9053H88.9007H88.8962H88.8917H88.8871H88.8826H88.8781H88.8735H88.869H88.8645H88.8599H88.8554H88.8509H88.8464H88.8418H88.8373H88.8328H88.8282H88.8237H88.8192H88.8146H88.8101H88.8056H88.801H88.7965H88.792H88.7875H88.7829H88.7784H88.7739H88.7693H88.7648H88.7603H88.7557H88.7512H88.7467H88.7421H88.7376H88.7331H88.7286H88.724H88.7195H88.715H88.7104H88.7059H88.7014H88.6968H88.6923H88.6878H88.6833H88.6787H88.6742H88.6697H88.6651H88.6606H88.6561H88.6515H88.647H88.6425H88.6379H88.6334H88.6289H88.6244H88.6198H88.6153H88.6108H88.6062H88.6017C56.4036 147.773 29.9523 121.321 29.9523 89.1234C29.9523 56.9254 56.4036 30.4739 88.6017 30.4739C120.8 30.4739 147.251 56.9254 147.251 89.1234C147.251 91.0758 147.248 92.9404 146.88 94.4145ZM89.7614 146.067H90.1394L90.2425 145.703C97.5379 119.977 118.66 100.006 144.388 93.8624L144.772 93.7707V93.376V93.3692V93.3624V93.3556V93.3488V93.342V93.3353V93.3285V93.3217V93.3149V93.3081V93.3013V93.2945V93.2877V93.2809V93.2741V93.2673V93.2605V93.2537V93.2469V93.2401V93.2333V93.2265V93.2197V93.2129V93.2061V93.1993V93.1925V93.1857V93.1789V93.1721V93.1653V93.1585V93.1517V93.1449V93.1381V93.1312V93.1244V93.1176V93.1108V93.104V93.0972V93.0904V93.0836V93.0768V93.07V93.0631V93.0563V93.0495V93.0427V93.0359V93.0291V93.0222V93.0154V93.0086V93.0018V92.995V92.9881V92.9813V92.9745V92.9677V92.9608V92.954V92.9472V92.9403V92.9335V92.9267V92.9198V92.913V92.9062V92.8993V92.8925V92.8857V92.8788V92.872V92.8651V92.8583V92.8514V92.8446V92.8377V92.8309V92.824V92.8172V92.8103V92.8035V92.7966V92.7898V92.7829V92.776V92.7692V92.7623V92.7555V92.7486V92.7417V92.7348V92.728V92.7211V92.7142V92.7073V92.7005V92.6936V92.6867V92.6798V92.6729V92.666V92.6591V92.6523V92.6454V92.6385V92.6316V92.6247V92.6178V92.6109V92.604V92.5971V92.5901V92.5832V92.5763V92.5694V92.5625V92.5556V92.5486V92.5417V92.5348V92.5279V92.5209V92.514V92.5071V92.5001V92.4932V92.4863V92.4793V92.4724V92.4654V92.4585V92.4515V92.4446V92.4376V92.4307V92.4237V92.4167V92.4098V92.4028V92.3958V92.3889V92.3819V92.3749V92.3679V92.3609V92.3539V92.347V92.34V92.333V92.326V92.319V92.312V92.305V92.298V92.291V92.2839V92.2769V92.2699V92.2629V92.2559V92.2488V92.2418V92.2348V92.2277V92.2207V92.2137V92.2066V92.1996V92.1925V92.1855V92.1784V92.1713V92.1643V92.1572V92.1502V92.1431V92.136V92.1289V92.1218V92.1148V92.1077V92.1006V92.0935V92.0864V92.0793V92.0722V92.0651V92.058V92.0509V92.0438V92.0366V92.0295V92.0224V92.0153V92.0081V92.001V91.9939V91.9867V91.9796V91.9724V91.9653V91.9581V91.9509V91.9438V91.9366V91.9294V91.9223V91.9151V91.9079V91.9007V91.8935V91.8863V91.8791V91.8719V91.8647V91.8575V91.8503V91.8431V91.8359V91.8287V91.8214V91.8142V91.807V91.7997V91.7925V91.7852V91.778V91.7707V91.7635V91.7562V91.7489V91.7417V91.7344V91.7271V91.7198V91.7125V91.7052V91.698V91.6907V91.6833V91.676V91.6687V91.6614V91.6541V91.6468V91.6394V91.6321V91.6248V91.6174V91.6101V91.6027V91.5954V91.588V91.5806V91.5733V91.5659V91.5585V91.5511V91.5438V91.5364V91.529V91.5216V91.5142V91.5068V91.4993V91.4919V91.4845V91.4771V91.4696V91.4622V91.4548V91.4473V91.4399V91.4324V91.4249V91.4175V91.41V91.4025V91.3951V91.3876V91.3801V91.3726V91.3651V91.3576V91.3501V91.3426V91.335V91.3275V91.32V91.3124V91.3049V91.2974V91.2898V91.2823V91.2747V91.2671V91.2596V91.252V91.2444V91.2368V91.2292V91.2216V91.214V91.2064V91.1988V91.1912V91.1836V91.1759V91.1683V91.1607V91.153V91.1454V91.1377V91.13V91.1224V91.1147V91.107V91.0993V91.0917V91.084V91.0763V91.0686V91.0608V91.0531V91.0454V91.0377V91.0299V91.0222V91.0145V91.0067V90.999V90.9912V90.9834V90.9756V90.9679V90.9601V90.9523V90.9445V90.9367V90.9289V90.9211V90.9132V90.9054V90.8976V90.8897V90.8819V90.874V90.8662V90.8583V90.8505V90.8426V90.8347V90.8268V90.8189V90.811V90.8031V90.7952V90.7873V90.7794V90.7714V90.7635V90.7555V90.7476V90.7396V90.7317V90.7237V90.7157V90.7077V90.6998V90.6918V90.6838V90.6758V90.6677V90.6597V90.6517V90.6437V90.6356V90.6276V90.6195V90.6115V90.6034V90.5953V90.5872V90.5792V90.5711V90.563V90.5549V90.5467V90.5386V90.5305V90.5224V90.5142V90.5061V90.4979V90.4898V90.4816V90.4734V90.4652V90.457V90.4488V90.4406V90.4324V90.4242V90.416V90.4078V90.3995V90.3913V90.383V90.3748V90.3665V90.3582V90.35V90.3417V90.3334V90.3251V90.3168V90.3084V90.3001V90.2918V90.2835V90.2751V90.2668V90.2584V90.25V90.2417V90.2333V90.2249V90.2165V90.2081V90.1997V90.1912V90.1828V90.1744V90.1659V90.1575V90.149V90.1406V90.1321V90.1236V90.1151V90.1066V90.0981V90.0896V90.0811V90.0726V90.064V90.0555V90.047V90.0384V90.0298V90.0213V90.0127V90.0041V89.9955V89.9869V89.9783V89.9697V89.961V89.9524V89.9437V89.9351V89.9264V89.9178V89.9091V89.9004V89.8917V89.883V89.8743V89.8656V89.8569V89.8481V89.8394V89.8306V89.8219V89.8131V89.8043V89.7956V89.7868V89.778V89.7692V89.7603V89.7515V89.7427V89.7338V89.725V89.7161V89.7073V89.6984V89.6895V89.6806V89.6717V89.6628V89.6539V89.645V89.636V89.6271V89.6181V89.6092V89.6002V89.5912V89.5823V89.5733V89.5643V89.5552V89.5462V89.5372V89.5282V89.5191V89.51C144.772 57.9195 119.419 32.9534 88.6017 32.9534C57.3977 32.9534 32.045 58.3061 32.045 89.51C32.045 120.714 57.3977 146.067 88.6017 146.067H88.604H88.6062H88.6085H88.6108H88.613H88.6153H88.6176H88.6198H88.6221H88.6244H88.6266H88.6289H88.6312H88.6334H88.6357H88.6379H88.6402H88.6425H88.6447H88.647H88.6493H88.6515H88.6538H88.6561H88.6583H88.6606H88.6629H88.6651H88.6674H88.6697H88.6719H88.6742H88.6765H88.6787H88.681H88.6833H88.6855H88.6878H88.69H88.6923H88.6946H88.6968H88.6991H88.7014H88.7036H88.7059H88.7082H88.7104H88.7127H88.715H88.7172H88.7195H88.7218H88.724H88.7263H88.7286H88.7308H88.7331H88.7353H88.7376H88.7399H88.7421H88.7444H88.7467H88.7489H88.7512H88.7535H88.7557H88.758H88.7603H88.7625H88.7648H88.7671H88.7693H88.7716H88.7739H88.7761H88.7784H88.7807H88.7829H88.7852H88.7874H88.7897H88.792H88.7942H88.7965H88.7988H88.801H88.8033H88.8056H88.8078H88.8101H88.8124H88.8146H88.8169H88.8192H88.8214H88.8237H88.826H88.8282H88.8305H88.8328H88.835H88.8373H88.8395H88.8418H88.8441H88.8463H88.8486H88.8509H88.8531H88.8554H88.8577H88.8599H88.8622H88.8645H88.8667H88.869H88.8713H88.8735H88.8758H88.8781H88.8803H88.8826H88.8848H88.8871H88.8894H88.8916H88.8939H88.8962H88.8984H88.9007H88.903H88.9052H88.9075H88.9098H88.912H88.9143H88.9166H88.9188H88.9211H88.9234H88.9256H88.9279H88.9301H88.9324H88.9347H88.9369H88.9392H88.9415H88.9437H88.946H88.9483H88.9505H88.9528H88.9551H88.9573H88.9596H88.9619H88.9641H88.9664H88.9687H88.9709H88.9732H88.9755H88.9777H88.98H88.9822H88.9845H88.9868H88.989H88.9913H88.9936H88.9958H88.9981H89.0004H89.0026H89.0049H89.0072H89.0094H89.0117H89.014H89.0162H89.0185H89.0208H89.023H89.0253H89.0275H89.0298H89.0321H89.0343H89.0366H89.0389H89.0411H89.0434H89.0457H89.0479H89.0502H89.0525H89.0547H89.057H89.0593H89.0615H89.0638H89.0661H89.0683H89.0706H89.0729H89.0751H89.0774H89.0796H89.0819H89.0842H89.0864H89.0887H89.091H89.0932H89.0955H89.0978H89.1H89.1023H89.1046H89.1068H89.1091H89.1114H89.1136H89.1159H89.1182H89.1204H89.1227H89.125H89.1272H89.1295H89.1317H89.134H89.1363H89.1385H89.1408H89.1431H89.1453H89.1476H89.1499H89.1521H89.1544H89.1567H89.1589H89.1612H89.1635H89.1657H89.168H89.1702H89.1725H89.1748H89.177H89.1793H89.1816H89.1838H89.1861H89.1884H89.1906H89.1929H89.1952H89.1974H89.1997H89.202H89.2042H89.2065H89.2088H89.211H89.2133H89.2156H89.2178H89.2201H89.2223H89.2246H89.2269H89.2291H89.2314H89.2337H89.2359H89.2382H89.2405H89.2427H89.245H89.2473H89.2495H89.2518H89.2541H89.2563H89.2586H89.2609H89.2631H89.2654H89.2677H89.2699H89.2722H89.2744H89.2767H89.279H89.2812H89.2835H89.2858H89.288H89.2903H89.2926H89.2948H89.2971H89.2994H89.3016H89.3039H89.3062H89.3084H89.3107H89.313H89.3152H89.3175H89.3197H89.322H89.3243H89.3265H89.3288H89.3311H89.3333H89.3356H89.3379H89.3401H89.3424H89.3447H89.3469H89.3492H89.3515H89.3537H89.356H89.3583H89.3605H89.3628H89.365H89.3673H89.3696H89.3718H89.3741H89.3764H89.3786H89.3809H89.3832H89.3854H89.3877H89.39H89.3922H89.3945H89.3968H89.399H89.4013H89.4036H89.4058H89.4081H89.4104H89.4126H89.4149H89.4171H89.4194H89.4217H89.4239H89.4262H89.4285H89.4307H89.433H89.4353H89.4375H89.4398H89.4421H89.4443H89.4466H89.4489H89.4511H89.4534H89.4557H89.4579H89.4602H89.4624H89.4647H89.467H89.4692H89.4715H89.4738H89.476H89.4783H89.4806H89.4828H89.4851H89.4874H89.4896H89.4919H89.4942H89.4964H89.4987H89.501H89.5032H89.5055H89.5077H89.51H89.5123H89.5145H89.5168H89.5191H89.5213H89.5236H89.5259H89.5281H89.5304H89.5327H89.5349H89.5372H89.5395H89.5417H89.544H89.5463H89.5485H89.5508H89.5531H89.5553H89.5576H89.5598H89.5621H89.5644H89.5666H89.5689H89.5712H89.5734H89.5757H89.578H89.5802H89.5825H89.5848H89.587H89.5893H89.5916H89.5938H89.5961H89.5984H89.6006H89.6029H89.6052H89.6074H89.6097H89.6119H89.6142H89.6165H89.6187H89.621H89.6233H89.6255H89.6278H89.6301H89.6323H89.6346H89.6369H89.6391H89.6414H89.6437H89.6459H89.6482H89.6505H89.6527H89.655H89.6572H89.6595H89.6618H89.664H89.6663H89.6686H89.6708H89.6731H89.6754H89.6776H89.6799H89.6822H89.6844H89.6867H89.689H89.6912H89.6935H89.6958H89.698H89.7003H89.7026H89.7048H89.7071H89.7093H89.7116H89.7139H89.7161H89.7184H89.7207H89.7229H89.7252H89.7275H89.7297H89.732H89.7343H89.7365H89.7388H89.7411H89.7433H89.7456H89.7479H89.7501H89.7524H89.7547H89.7569H89.7592H89.7614Z" fill="#182535" stroke="#192432"/>
<path d="M103.004 160.379L103.015 160.335L103.018 160.291C103.4 154.558 104.929 148.812 107.235 143.048C113.367 128.102 126.017 115.837 141.34 110.473C147.093 108.556 152.844 107.405 158.977 107.02H158.98H158.984H158.989H158.994H158.998H159.003H159.007H159.012H159.016H159.021H159.025H159.03H159.034H159.039H159.043H159.048H159.052H159.057H159.062H159.066H159.071H159.075H159.08H159.084H159.089H159.093H159.098H159.102H159.107H159.111H159.116H159.121H159.125H159.13H159.134H159.139H159.143H159.148H159.152H159.157H159.161H159.166H159.171H159.175H159.18H159.184H159.189H159.193H159.198H159.202H159.207H159.211H159.216H159.221H159.225H159.23H159.234H159.239H159.243H159.248H159.253H159.257H159.262H159.266H159.271H159.275H159.28H159.285H159.289H159.294H159.298H159.303H159.307H159.312H159.317H159.321H159.326H159.33H159.335H159.34H159.344H159.349H159.353H159.358H159.362H159.367H159.372H159.376H159.381H159.385H159.39H159.395H159.399H159.404H159.409H159.413H159.418H159.422H159.427H159.432H159.436H159.441H159.446H159.45H159.455H159.459H159.464H159.469H159.473H159.478H159.483H159.487H159.492H159.497H159.501H159.506H159.51H159.515H159.52H159.524H159.529H159.534H159.538H159.543H159.548H159.552H159.557H159.562H159.566H159.571H159.576H159.581H159.585H159.59H159.595H159.599H159.604H159.609H159.613H159.618H159.623H159.628H159.632H159.637H159.642H159.646H159.651H159.656H159.661H159.665H159.67H159.675H159.68H159.684H159.689H159.694H159.699H159.703H159.708H159.713H159.718H159.722H159.727H159.732H159.737H159.741H159.746H159.751H159.756H159.761H159.765H159.77H159.775H159.78H159.785H159.789H159.794H159.799H159.804H159.809H159.813H159.818H159.823H159.828H159.833H159.838H159.842H159.847H159.852H159.857H159.862H159.867H159.872H159.876H159.881H159.886H159.891H159.896H159.901H159.906H159.911H159.915H159.92H159.925H159.93H159.935H159.94H159.945H159.95H159.955H159.96H159.965H159.969H159.974H159.979H159.984H159.989H159.994H159.999H160.004H160.009H160.014H160.019H160.024H160.029H160.034H160.039H160.044H160.049H160.054H160.059H160.064H160.069H160.074H160.079H160.084H160.089H160.094H160.099H160.104H160.109H160.114H160.119H160.124H160.129H160.134H160.139H160.145H160.15H160.155H160.16H160.165H160.17H160.175H160.18H160.185H160.19H160.196H160.201H160.206H160.211H160.216H160.221H160.226H160.231H160.237H160.242H160.247H160.252H160.257H160.262H160.268H160.273H160.278H160.283H160.288H160.294H160.299H160.304H160.309H160.314H160.32H160.325H160.33H160.335H160.341H160.346H160.351H160.356H160.362H160.367H160.372H160.378H160.383H160.388H160.393H160.399H160.404H160.409H160.415H160.42H160.425H160.431H160.436H160.441H160.447H160.452H160.457H160.463H160.468H160.474H160.479H160.484H160.49H160.495H160.501H160.506H160.511H160.517H160.522H160.528H160.533H160.539H160.544H160.55H160.555H160.56H160.566H160.571H160.577H160.582H160.588H160.593H160.599H160.604H160.61H160.615H160.621H160.627H160.632H160.638H160.643H160.649H160.654H160.66H160.665H160.671H160.677H160.682H160.688H160.693H160.699H160.705H160.71H160.716H160.722H160.727H160.733H160.739H160.744H160.75H160.756H160.761H160.767H160.773H160.778H160.784H160.79H160.795H160.801H160.807H160.813H160.818H160.824H160.83H160.836H160.842H160.847H160.853H160.859H160.865H160.87H160.876H160.882H160.888H160.894H160.9H160.905H160.911H160.917H160.923H160.929H160.935H160.941H160.947H160.952H160.958H160.964H160.97H160.976H160.982H160.988H160.994H161H161.006H161.012H161.018H161.024H161.03H161.036H161.042H161.048H161.054H161.06H161.066H161.072H161.078H161.084H161.09H161.096H161.102H161.108H161.115H161.121H161.127H161.133H161.139H161.145H161.151H161.157H161.164H161.17H161.176H161.182H161.188H161.194H161.201H161.207H161.213H161.219H161.226H161.232H161.238H161.244H161.251H161.257H161.263H161.269H161.276H161.282H161.288H161.295H161.301H161.307H161.314H161.32H161.326H161.333H161.339H161.345H161.352H161.358H161.365H161.371H161.377H161.384H161.39H161.397H161.403H161.41H161.416H161.423H161.429H161.436H161.442H161.449H161.455H161.462H161.468H161.475H161.481H161.488H161.494H161.501H161.507H161.514H161.521H161.527H161.534H161.541H161.547H161.554H161.56H161.567H161.574H161.58H161.587H161.594H161.601H161.607H161.614H161.621H161.627H161.634H161.641H161.648H161.655H161.661H161.668C193.866 107.02 220.317 133.472 220.317 165.67C220.317 197.864 193.484 224.319 161.281 224.319C129.083 224.319 102.632 197.868 102.632 165.67C102.632 163.718 102.635 161.853 103.004 160.379ZM158.575 109.113H158.559L158.542 109.114C152.72 109.502 147.257 110.28 141.783 112.235L141.779 112.237C126.964 117.695 114.87 129.003 109.015 143.83C106.673 149.297 105.503 154.763 105.113 160.222L105.111 160.24V160.258C105.111 160.957 105.028 161.66 104.937 162.439C104.932 162.482 104.927 162.524 104.921 162.567C104.825 163.389 104.725 164.285 104.725 165.283C104.725 196.487 130.077 221.84 161.281 221.84C192.485 221.84 217.838 196.487 217.838 165.283C217.838 134.168 192.634 109.266 161.185 109.114V109.113H161.185H161.185H161.185H161.185H161.185H161.184H161.184H161.184H161.184H161.184H161.184H161.184H161.184H161.184H161.184H161.183H161.183H161.183H161.183H161.183H161.182H161.182H161.182H161.182H161.182H161.181H161.181H161.181H161.181H161.18H161.18H161.18H161.179H161.179H161.179H161.178H161.178H161.178H161.177H161.177H161.177H161.176H161.176H161.175H161.175H161.175H161.174H161.174H161.173H161.173H161.172H161.172H161.171H161.171H161.17H161.17H161.169H161.169H161.168H161.168H161.167H161.167H161.166H161.166H161.165H161.164H161.164H161.163H161.162H161.162H161.161H161.161H161.16H161.159H161.159H161.158H161.157H161.156H161.156H161.155H161.154H161.154H161.153H161.152H161.151H161.151H161.15H161.149H161.148H161.147H161.147H161.146H161.145H161.144H161.143H161.142H161.141H161.141H161.14H161.139H161.138H161.137H161.136H161.135H161.134H161.133H161.132H161.131H161.13H161.129H161.128H161.127H161.126H161.125H161.124H161.123H161.122H161.121H161.12H161.119H161.118H161.117H161.116H161.115H161.113H161.112H161.111H161.11H161.109H161.108H161.107H161.105H161.104H161.103H161.102H161.101H161.099H161.098H161.097H161.096H161.094H161.093H161.092H161.09H161.089H161.088H161.087H161.085H161.084H161.083H161.081H161.08H161.078H161.077H161.076H161.074H161.073H161.072H161.07H161.069H161.067H161.066H161.064H161.063H161.061H161.06H161.058H161.057H161.055H161.054H161.052H161.051H161.049H161.048H161.046H161.045H161.043H161.041H161.04H161.038H161.037H161.035H161.033H161.032H161.03H161.028H161.027H161.025H161.023H161.022H161.02H161.018H161.017H161.015H161.013H161.011H161.01H161.008H161.006H161.004H161.002H161.001H160.999H160.997H160.995H160.993H160.992H160.99H160.988H160.986H160.984H160.982H160.98H160.978H160.976H160.975H160.973H160.971H160.969H160.967H160.965H160.963H160.961H160.959H160.957H160.955H160.953H160.951H160.949H160.947H160.945H160.943H160.94H160.938H160.936H160.934H160.932H160.93H160.928H160.926H160.924H160.921H160.919H160.917H160.915H160.913H160.91H160.908H160.906H160.904H160.902H160.899H160.897H160.895H160.89H160.886H160.881H160.877H160.872H160.868H160.863H160.859H160.854H160.85H160.845H160.84H160.836H160.831H160.827H160.822H160.818H160.813H160.809H160.804H160.8H160.795H160.791H160.786H160.782H160.777H160.773H160.768H160.763H160.759H160.754H160.75H160.745H160.741H160.736H160.732H160.727H160.723H160.718H160.714H160.709H160.705H160.7H160.695H160.691H160.686H160.682H160.677H160.673H160.668H160.664H160.659H160.655H160.65H160.646H160.641H160.637H160.632H160.628H160.623H160.618H160.614H160.609H160.605H160.6H160.596H160.591H160.587H160.582H160.578H160.573H160.569H160.564H160.56H160.555H160.551H160.546H160.541H160.537H160.532H160.528H160.523H160.519H160.514H160.51H160.505H160.501H160.496H160.492H160.487H160.483H160.478H160.474H160.469H160.464H160.46H160.455H160.451H160.446H160.442H160.437H160.433H160.428H160.424H160.419H160.415H160.41H160.406H160.401H160.396H160.392H160.387H160.383H160.378H160.374H160.369H160.365H160.36H160.356H160.351H160.347H160.342H160.338H160.333H160.329H160.324H160.319H160.315H160.31H160.306H160.301H160.297H160.292H160.288H160.283H160.279H160.274H160.27H160.265H160.261H160.256H160.252H160.247H160.242H160.238H160.233H160.229H160.224H160.22H160.215H160.211H160.206H160.202H160.197H160.193H160.188H160.184H160.179H160.175H160.17H160.165H160.161H160.156H160.152H160.147H160.143H160.138H160.134H160.129H160.125H160.12H160.116H160.111H160.107H160.102H160.098H160.093H160.088H160.084H160.079H160.075H160.07H160.066H160.061H160.057H160.052H160.048H160.043H160.039H160.034H160.03H160.025H160.02H160.016H160.011H160.007H160.002H159.998H159.993H159.989H159.984H159.98H159.975H159.971H159.966H159.962H159.957H159.953H159.948H159.943H159.939H159.934H159.93H159.925H159.921H159.916H159.912H159.907H159.903H159.898H159.894H159.889H159.885H159.88H159.876H159.871H159.866H159.862H159.857H159.853H159.848H159.844H159.839H159.835H159.83H159.826H159.821H159.817H159.812H159.808H159.803H159.799H159.794H159.789H159.785H159.78H159.776H159.771H159.767H159.762H159.758H159.753H159.749H159.744H159.74H159.735H159.731H159.726H159.721H159.717H159.712H159.708H159.703H159.699H159.694H159.69H159.685H159.681H159.676H159.672H159.667H159.663H159.658H159.654H159.649H159.644H159.64H159.635H159.631H159.626H159.622H159.617H159.613H159.608H159.604H159.599H159.595H159.59H159.586H159.581H159.577H159.572H159.567H159.563H159.558H159.554H159.549H159.545H159.54H159.536H159.531H159.527H159.522H159.518H159.513H159.509H159.504H159.5H159.495H159.49H159.486H159.481H159.477H159.472H159.468H159.463H159.459H159.454H159.45H159.445H159.441H159.436H159.432H159.427H159.423H159.418H159.413H159.409H159.404H159.4H159.395H159.391H159.386H159.382H159.377H159.373H159.368H159.364H159.359H159.355H159.35H159.345H159.341H159.336H159.332H159.327H159.323H159.318H159.314H159.309H159.305H159.3H159.296H159.291H159.287H159.282H159.278H159.273H159.268H159.264H159.259H159.255H159.25H159.246H159.241H159.237H159.232H159.228H159.223H159.219H159.214H159.21H159.205H159.201H159.196H159.191H159.187H159.182H159.178H159.173H159.169H159.164H159.16H159.155H159.151H159.146H159.142H159.137H159.133H159.128H159.124H159.119H159.114H159.11H159.105H159.101H159.096H159.092H159.087H159.083H159.078H159.074H159.069H159.065H159.06H159.056H159.051H159.046H159.042H159.037H159.033H159.028H159.024H159.019H159.015H159.01H159.006H159.001H158.997H158.992H158.988H158.983H158.979H158.974H158.969H158.965H158.96H158.956H158.951H158.947H158.942H158.938H158.933H158.929H158.924H158.92H158.915H158.911H158.906H158.902H158.897H158.892H158.888H158.883H158.879H158.874H158.87H158.865H158.861H158.856H158.852H158.847H158.843H158.838H158.834H158.829H158.825H158.82H158.815H158.811H158.806H158.802H158.797H158.793H158.788H158.784H158.779H158.775H158.77H158.766H158.761H158.757H158.752H158.747H158.743H158.738H158.734H158.729H158.725H158.72H158.716H158.711H158.707H158.702H158.698H158.693H158.689H158.684H158.68H158.675H158.67H158.666H158.661H158.657H158.652H158.648H158.643H158.639H158.634H158.63H158.625H158.621H158.616H158.612H158.607H158.603H158.598H158.593H158.589H158.584H158.58H158.575Z" fill="white" stroke="url(#paint2_linear_2_6)"/>
<path d="M145.536 93.8649L145.536 93.8649L145.544 93.8631C150.519 92.715 155.89 92.3295 161.282 92.3295C201.985 92.3295 235.008 125.353 235.008 166.056C235.008 206.371 201.987 239.396 161.282 239.396C120.578 239.396 87.555 206.373 87.555 165.67V165.663V165.656V165.649V165.642V165.636V165.629V165.622V165.615V165.608V165.602V165.595V165.588V165.581V165.575V165.568V165.561V165.554V165.547V165.541V165.534V165.527V165.52V165.513V165.507V165.5V165.493V165.486V165.479V165.473V165.466V165.459V165.452V165.445V165.439V165.432V165.425V165.418V165.411V165.405V165.398V165.391V165.384V165.377V165.371V165.364V165.357V165.35V165.343V165.337V165.33V165.323V165.316V165.309V165.303V165.296V165.289V165.282V165.276V165.269V165.262V165.255V165.248V165.242V165.235V165.228V165.221V165.214V165.208V165.201V165.194V165.187V165.18V165.174V165.167V165.16V165.153V165.146V165.14V165.133V165.126V165.119V165.112V165.106V165.099V165.092V165.085V165.078V165.072V165.065V165.058V165.051V165.044V165.038V165.031V165.024V165.017V165.01V165.004V164.997V164.99V164.983V164.977V164.97V164.963V164.956V164.949V164.943V164.936V164.929V164.922V164.915V164.909V164.902V164.895V164.888V164.881V164.875V164.868V164.861V164.854V164.847V164.841V164.834V164.827V164.82V164.813V164.807V164.8V164.793V164.786V164.779V164.773V164.766V164.759V164.752V164.745V164.739V164.732V164.725V164.718V164.711V164.705V164.698V164.691V164.684V164.677V164.671V164.664V164.657V164.65V164.644V164.637V164.63V164.623V164.616V164.61V164.603V164.596V164.589V164.582V164.576V164.569V164.562V164.555V164.548V164.542V164.535V164.528V164.521V164.514V164.508V164.501V164.494V164.487V164.48V164.474V164.467V164.46V164.453V164.446V164.44V164.433V164.426V164.419V164.412V164.406V164.399V164.392V164.385V164.378V164.372V164.365V164.358V164.351V164.345V164.338V164.331V164.324V164.317V164.311V164.304V164.297V164.29V164.283V164.277V164.27V164.263V164.256V164.249V164.243V164.236V164.229V164.222V164.215V164.209V164.202V164.195V164.188V164.181V164.175V164.168V164.161V164.154V164.147V164.141V164.134V164.127V164.12V164.113V164.107V164.1V164.093V164.086V164.079V164.073V164.066V164.059V164.052V164.046V164.039V164.032V164.025V164.018V164.012V164.005V163.998V163.991V163.984V163.978V163.971V163.964V163.957V163.95V163.944V163.937V163.93V163.923V163.916V163.91V163.903V163.896V163.889V163.882V163.876V163.869V163.862V163.855V163.848V163.842V163.835V163.828V163.821V163.814V163.808V163.801V163.794V163.787V163.78V163.774V163.767V163.76V163.753V163.746V163.74V163.733V163.726V163.719V163.713V163.706V163.699V163.692V163.685V163.679V163.672V163.665V163.658V163.651V163.645V163.638V163.631V163.624V163.617V163.611V163.604V163.597V163.59V163.583V163.577V163.57V163.563V163.556V163.549V163.543V163.536V163.529V163.522V163.515V163.509V163.502V163.495V163.488V163.481V163.475V163.468V163.461V163.454V163.447V163.441V163.434V163.427V163.42V163.414V163.407V163.4V163.393V163.386V163.38V163.373V163.366V163.359V163.352V163.346V163.339V163.332V163.325V163.318V163.312V163.305V163.298V163.291V163.284V163.278V163.271V163.264V163.257V163.25V163.244V163.237V163.23V163.223V163.216V163.21V163.203V163.196V163.189V163.182V163.176V163.169V163.162V163.155V163.148V163.142V163.135V163.128V163.121V163.115V163.108V163.101V163.094V163.087V163.081V163.074V163.067V163.06V163.053V163.047V163.04V163.033V163.026V163.019V163.013V163.006V162.999V162.992V162.985V162.979V162.972V162.965V162.958V162.951V162.945V162.938V162.931V162.924V162.917V162.911V162.904V162.897V162.89V162.883V162.877V162.87V162.863V162.856V162.849V162.843V162.836V162.829V162.822V162.815V162.809V162.802V162.795V162.788V162.782V162.775V162.768V162.761V162.754V162.748V162.741V162.734V162.727V162.72V162.714V162.707V162.7V162.693V162.686V162.68V162.673V162.666V162.659V162.652V162.646V162.639V162.632V162.625V162.618V162.612V162.605V162.598V162.591V162.584V162.578V162.571V162.564V162.557V162.55V162.544V162.537V162.53V162.523V162.516V162.51V162.503V162.496V162.489V162.483V162.476V162.469V162.462V162.455V162.449V162.442V162.435V162.428V162.421V162.415V162.408V162.401V162.394V162.387V162.381V162.374V162.367V162.36V162.353V162.347V162.34V162.333V162.326V162.319V162.313V162.306V162.299V162.292V162.285V162.279V162.272V162.265V162.258V162.251V162.245V162.238V162.231V162.224V162.217V162.211V162.208C87.94 156.831 88.7082 151.839 89.8601 146.846C96.7725 120.359 118.659 99.6243 145.536 93.8649ZM91.9849 146.981L91.9823 146.991L91.9801 147.001C90.8155 152.047 90.0378 156.712 89.649 162.155L89.6478 162.172V162.19V162.197V162.204V162.211V162.217V162.224V162.231V162.238V162.245V162.251V162.258V162.265V162.272V162.279V162.285V162.292V162.299V162.306V162.313V162.319V162.326V162.333V162.34V162.347V162.353V162.36V162.367V162.374V162.381V162.387V162.394V162.401V162.408V162.415V162.421V162.428V162.435V162.442V162.449V162.455V162.462V162.469V162.476V162.483V162.489V162.496V162.503V162.51V162.516V162.523V162.53V162.537V162.544V162.55V162.557V162.564V162.571V162.578V162.584V162.591V162.598V162.605V162.612V162.618V162.625V162.632V162.639V162.646V162.652V162.659V162.666V162.673V162.68V162.686V162.693V162.7V162.707V162.714V162.72V162.727V162.734V162.741V162.748V162.754V162.761V162.768V162.775V162.782V162.788V162.795V162.802V162.809V162.815V162.822V162.829V162.836V162.843V162.849V162.856V162.863V162.87V162.877V162.883V162.89V162.897V162.904V162.911V162.917V162.924V162.931V162.938V162.945V162.951V162.958V162.965V162.972V162.979V162.985V162.992V162.999V163.006V163.013V163.019V163.026V163.033V163.04V163.047V163.053V163.06V163.067V163.074V163.081V163.087V163.094V163.101V163.108V163.115V163.121V163.128V163.135V163.142V163.148V163.155V163.162V163.169V163.176V163.182V163.189V163.196V163.203V163.21V163.216V163.223V163.23V163.237V163.244V163.25V163.257V163.264V163.271V163.278V163.284V163.291V163.298V163.305V163.312V163.318V163.325V163.332V163.339V163.346V163.352V163.359V163.366V163.373V163.38V163.386V163.393V163.4V163.407V163.414V163.42V163.427V163.434V163.441V163.447V163.454V163.461V163.468V163.475V163.481V163.488V163.495V163.502V163.509V163.515V163.522V163.529V163.536V163.543V163.549V163.556V163.563V163.57V163.577V163.583V163.59V163.597V163.604V163.611V163.617V163.624V163.631V163.638V163.645V163.651V163.658V163.665V163.672V163.679V163.685V163.692V163.699V163.706V163.713V163.719V163.726V163.733V163.74V163.746V163.753V163.76V163.767V163.774V163.78V163.787V163.794V163.801V163.808V163.814V163.821V163.828V163.835V163.842V163.848V163.855V163.862V163.869V163.876V163.882V163.889V163.896V163.903V163.91V163.916V163.923V163.93V163.937V163.944V163.95V163.957V163.964V163.971V163.978V163.984V163.991V163.998V164.005V164.012V164.018V164.025V164.032V164.039V164.046V164.052V164.059V164.066V164.073V164.079V164.086V164.093V164.1V164.107V164.113V164.12V164.127V164.134V164.141V164.147V164.154V164.161V164.168V164.175V164.181V164.188V164.195V164.202V164.209V164.215V164.222V164.229V164.236V164.243V164.249V164.256V164.263V164.27V164.277V164.283V164.29V164.297V164.304V164.311V164.317V164.324V164.331V164.338V164.345V164.351V164.358V164.365V164.372V164.378V164.385V164.392V164.399V164.406V164.412V164.419V164.426V164.433V164.44V164.446V164.453V164.46V164.467V164.474V164.48V164.487V164.494V164.501V164.508V164.514V164.521V164.528V164.535V164.542V164.548V164.555V164.562V164.569V164.576V164.582V164.589V164.596V164.603V164.61V164.616V164.623V164.63V164.637V164.644V164.65V164.657V164.664V164.671V164.677V164.684V164.691V164.698V164.705V164.711V164.718V164.725V164.732V164.739V164.745V164.752V164.759V164.766V164.773V164.779V164.786V164.793V164.8V164.807V164.813V164.82V164.827V164.834V164.841V164.847V164.854V164.861V164.868V164.875V164.881V164.888V164.895V164.902V164.909V164.915V164.922V164.929V164.936V164.943V164.949V164.956V164.963V164.97V164.977V164.983V164.99V164.997V165.004V165.01V165.017V165.024V165.031V165.038V165.044V165.051V165.058V165.065V165.072V165.078V165.085V165.092V165.099V165.106V165.112V165.119V165.126V165.133V165.14V165.146V165.153V165.16V165.167V165.174V165.18V165.187V165.194V165.201V165.208V165.214V165.221V165.228V165.235V165.242V165.248V165.255V165.262V165.269V165.276V165.282V165.289V165.296V165.303V165.309V165.316V165.323V165.33V165.337V165.343V165.35V165.357V165.364V165.371V165.377V165.384V165.391V165.398V165.405V165.411V165.418V165.425V165.432V165.439V165.445V165.452V165.459V165.466V165.473V165.479V165.486V165.493V165.5V165.507V165.513V165.52V165.527V165.534V165.541V165.547V165.554V165.561V165.568V165.575V165.581V165.588V165.595V165.602V165.608V165.615V165.622V165.629V165.636V165.642V165.649V165.656V165.663V165.67C89.6478 204.992 121.959 237.304 161.282 237.304C200.602 237.304 232.916 205.381 232.916 165.67C232.916 125.959 200.602 94.0357 161.282 94.0357C156.232 94.0357 151.169 94.4239 146.097 95.5937C120.009 101.047 98.9913 121.291 91.9849 146.981ZM109.937 144.217L109.94 144.21L109.943 144.204C115.686 129.653 127.559 118.542 142.122 113.176C147.468 111.267 152.823 110.498 158.592 110.113H158.594H158.598H158.603H158.607H158.612H158.616H158.621H158.625H158.63H158.634H158.639H158.644H158.648H158.653H158.657H158.662H158.666H158.671H158.675H158.68H158.684H158.689H158.693H158.698H158.702H158.707H158.712H158.716H158.721H158.725H158.73H158.734H158.739H158.743H158.748H158.752H158.757H158.761H158.766H158.77H158.775H158.779H158.784H158.789H158.793H158.798H158.802H158.807H158.811H158.816H158.82H158.825H158.829H158.834H158.838H158.843H158.847H158.852H158.856H158.861H158.866H158.87H158.875H158.879H158.884H158.888H158.893H158.897H158.902H158.906H158.911H158.915H158.92H158.924H158.929H158.933H158.938H158.943H158.947H158.952H158.956H158.961H158.965H158.97H158.974H158.979H158.983H158.988H158.992H158.997H159.001H159.006H159.011H159.015H159.02H159.024H159.029H159.033H159.038H159.042H159.047H159.051H159.056H159.06H159.065H159.069H159.074H159.078H159.083H159.088H159.092H159.097H159.101H159.106H159.11H159.115H159.119H159.124H159.128H159.133H159.137H159.142H159.146H159.151H159.155H159.16H159.165H159.169H159.174H159.178H159.183H159.187H159.192H159.196H159.201H159.205H159.21H159.214H159.219H159.223H159.228H159.232H159.237H159.242H159.246H159.251H159.255H159.26H159.264H159.269H159.273H159.278H159.282H159.287H159.291H159.296H159.3H159.305H159.31H159.314H159.319H159.323H159.328H159.332H159.337H159.341H159.346H159.35H159.355H159.359H159.364H159.368H159.373H159.377H159.382H159.387H159.391H159.396H159.4H159.405H159.409H159.414H159.418H159.423H159.427H159.432H159.436H159.441H159.445H159.45H159.454H159.459H159.464H159.468H159.473H159.477H159.482H159.486H159.491H159.495H159.5H159.504H159.509H159.513H159.518H159.522H159.527H159.531H159.536H159.541H159.545H159.55H159.554H159.559H159.563H159.568H159.572H159.577H159.581H159.586H159.59H159.595H159.599H159.604H159.608H159.613H159.618H159.622H159.627H159.631H159.636H159.64H159.645H159.649H159.654H159.658H159.663H159.667H159.672H159.676H159.681H159.686H159.69H159.695H159.699H159.704H159.708H159.713H159.717H159.722H159.726H159.731H159.735H159.74H159.744H159.749H159.753H159.758H159.763H159.767H159.772H159.776H159.781H159.785H159.79H159.794H159.799H159.803H159.808H159.812H159.817H159.821H159.826H159.83H159.835H159.84H159.844H159.849H159.853H159.858H159.862H159.867H159.871H159.876H159.88H159.885H159.889H159.894H159.898H159.903H159.907H159.912H159.917H159.921H159.926H159.93H159.935H159.939H159.944H159.948H159.953H159.957H159.962H159.966H159.971H159.975H159.98H159.985H159.989H159.994H159.998H160.003H160.007H160.012H160.016H160.021H160.025H160.03H160.034H160.039H160.043H160.048H160.052H160.057H160.062H160.066H160.071H160.075H160.08H160.084H160.089H160.093H160.098H160.102H160.107H160.111H160.116H160.12H160.125H160.129H160.134H160.139H160.143H160.148H160.152H160.157H160.161H160.166H160.17H160.175H160.179H160.184H160.188H160.193H160.197H160.202H160.206H160.211H160.216H160.22H160.225H160.229H160.234H160.238H160.243H160.247H160.252H160.256H160.261H160.265H160.27H160.274H160.279H160.284H160.288H160.293H160.297H160.302H160.306H160.311H160.315H160.32H160.324H160.329H160.333H160.338H160.342H160.347H160.351H160.356H160.361H160.365H160.37H160.374H160.379H160.383H160.388H160.392H160.397H160.401H160.406H160.41H160.415H160.419H160.424H160.428H160.433H160.438H160.442H160.447H160.451H160.456H160.46H160.465H160.469H160.474H160.478H160.483H160.487H160.492H160.496H160.501H160.505H160.51H160.515H160.519H160.524H160.528H160.533H160.537H160.542H160.546H160.551H160.555H160.56H160.564H160.569H160.573H160.578H160.582H160.587H160.592H160.596H160.601H160.605H160.61H160.614H160.619H160.623H160.628H160.632H160.637H160.641H160.646H160.65H160.655H160.66H160.664H160.669H160.673H160.678H160.682H160.687H160.691H160.696H160.7H160.705H160.709H160.714H160.718H160.723H160.727H160.732H160.737H160.741H160.746H160.75H160.755H160.759H160.764H160.768H160.773H160.777H160.782H160.786H160.791H160.795H160.8H160.804H160.809H160.814H160.818H160.823H160.827H160.832H160.836H160.841H160.845H160.85H160.854H160.859H160.863H160.868H160.872H160.877H160.882H160.886H160.891H160.895C191.94 110.113 216.838 134.638 216.838 165.283C216.838 195.935 191.933 220.84 161.282 220.84C130.63 220.84 105.725 195.935 105.725 165.283C105.725 164.349 105.818 163.504 105.915 162.684C105.921 162.635 105.926 162.587 105.932 162.539C106.021 161.782 106.11 161.03 106.112 160.275C106.496 154.918 107.645 149.566 109.937 144.217Z" fill="url(#paint3_linear_2_6)" stroke="url(#paint4_linear_2_6)"/>
<path d="M95.5604 250.721C95.5604 250.721 22.1069 225.593 22.1069 185.386H0.457489L30.9988 154.845L61.5399 185.386H37.5708C37.5708 217.474 95.5604 250.721 95.5604 250.721Z" fill="url(#paint5_linear_2_6)"/>
<path d="M95.5604 250.721C95.5604 250.721 22.1069 225.593 22.1069 185.386H0.457489L30.9988 154.845L61.5399 185.386H37.5708C37.5708 217.474 95.5604 250.721 95.5604 250.721Z" stroke="url(#paint6_linear_2_6)"/>
<path d="M138.859 0.206055C138.859 0.206055 212.312 25.3349 212.312 65.541H233.962L203.421 96.0822L172.879 65.541H196.848C196.848 33.4534 138.859 0.206055 138.859 0.206055Z" fill="url(#paint7_linear_2_6)"/>
<path d="M138.859 0.206055C138.859 0.206055 212.312 25.3349 212.312 65.541H233.962L203.421 96.0822L172.879 65.541H196.848C196.848 33.4534 138.859 0.206055 138.859 0.206055Z" stroke="url(#paint8_linear_2_6)"/>
<defs>
<linearGradient id="paint0_linear_2_6" x1="13.6015" y1="14.51" x2="179.889" y2="36.182" gradientUnits="userSpaceOnUse">
<stop stop-color="#973AF5"/>
<stop offset="1" stop-color="#4CA6FE"/>
</linearGradient>
<linearGradient id="paint1_linear_2_6" x1="13.6015" y1="14.51" x2="179.889" y2="36.182" gradientUnits="userSpaceOnUse">
<stop stop-color="#973AF5"/>
<stop offset="1" stop-color="#4CA6FE"/>
</linearGradient>
<linearGradient id="paint2_linear_2_6" x1="102.132" y1="106.52" x2="234.031" y2="123.767" gradientUnits="userSpaceOnUse">
<stop stop-color="#973AF5"/>
<stop offset="1" stop-color="#4CA6FE"/>
</linearGradient>
<linearGradient id="paint3_linear_2_6" x1="87.055" y1="91.8295" x2="252.039" y2="113.388" gradientUnits="userSpaceOnUse">
<stop stop-color="#973AF5"/>
<stop offset="1" stop-color="#4CA6FE"/>
</linearGradient>
<linearGradient id="paint4_linear_2_6" x1="87.055" y1="91.8295" x2="252.039" y2="113.388" gradientUnits="userSpaceOnUse">
<stop stop-color="#973AF5"/>
<stop offset="1" stop-color="#4CA6FE"/>
</linearGradient>
<linearGradient id="paint5_linear_2_6" x1="0.457489" y1="154.845" x2="106.188" y2="168.514" gradientUnits="userSpaceOnUse">
<stop stop-color="#973AF5"/>
<stop offset="1" stop-color="#4CA6FE"/>
</linearGradient>
<linearGradient id="paint6_linear_2_6" x1="0.457489" y1="154.845" x2="106.188" y2="168.514" gradientUnits="userSpaceOnUse">
<stop stop-color="#973AF5"/>
<stop offset="1" stop-color="#4CA6FE"/>
</linearGradient>
<linearGradient id="paint7_linear_2_6" x1="138.859" y1="0.206055" x2="244.59" y2="13.8747" gradientUnits="userSpaceOnUse">
<stop stop-color="#973AF5"/>
<stop offset="1" stop-color="#4CA6FE"/>
</linearGradient>
<linearGradient id="paint8_linear_2_6" x1="138.859" y1="0.206055" x2="244.59" y2="13.8747" gradientUnits="userSpaceOnUse">
<stop stop-color="#973AF5"/>
<stop offset="1" stop-color="#4CA6FE"/>
</linearGradient>
</defs>
</svg>
