<svg width="35" height="35" viewBox="0 0 35 35" fill="none" xmlns="http://www.w3.org/2000/svg">
<path d="M17.5 32.8125C25.9569 32.8125 32.8125 25.9569 32.8125 17.5C32.8125 9.04314 25.9569 2.1875 17.5 2.1875C9.04314 2.1875 2.1875 9.04314 2.1875 17.5C2.1875 25.9569 9.04314 32.8125 17.5 32.8125Z" fill="white"/>
<path d="M25.1415 11.1659C25.2779 10.2849 24.4404 9.58951 23.6569 9.93343L8.05526 16.7834C7.49353 17.0301 7.53462 17.8809 8.11723 18.0664L11.3347 19.091C11.9488 19.2866 12.6137 19.1855 13.1499 18.815L20.4038 13.8034C20.6226 13.6523 20.861 13.9633 20.6742 14.156L15.4526 19.5395C14.9462 20.0617 15.0466 20.9466 15.6559 21.3287L21.502 24.9947C22.1576 25.4059 23.0013 24.9928 23.1239 24.2005L25.1415 11.1659Z" fill="#13182A"/>
</svg>
