<svg width="30" height="30" viewBox="0 0 30 30" fill="none" xmlns="http://www.w3.org/2000/svg">
<path d="M29.9976 15C29.9989 23.2843 23.2854 30 15.0024 30C6.71949 30 0.003763 23.2843 0.00242417 15C0.00108534 6.71573 6.71464 0 14.9976 0C23.2805 0 29.9962 6.71573 29.9976 15Z" fill="#DEDEDE"/>
<path d="M27.9148 15.0002C27.9148 22.3099 22.1209 28.2355 14.9736 28.2355C7.82643 28.2355 2.03247 22.3099 2.03247 15.0002C2.03247 7.6906 7.82643 1.76495 14.9736 1.76495C22.1209 1.76495 27.9148 7.6906 27.9148 15.0002Z" fill="#13182A"/>
<path d="M17.3267 8.82395C17.3267 10.1234 16.2733 11.1769 14.9738 11.1769C13.6743 11.1769 12.6208 10.1234 12.6208 8.82395C12.6208 7.52446 13.6743 6.47101 14.9738 6.47101C16.2733 6.47101 17.3267 7.52446 17.3267 8.82395Z" fill="#DEDEDE"/>
<path fill-rule="evenodd" clip-rule="evenodd" d="M18.5022 8.59868L11.652 9.99965L11.4434 8.45944L18.2936 7.05847L18.5022 8.59868Z" fill="#DEDEDE"/>
<path d="M16.1504 15.8821C16.1504 16.5318 15.7554 17.0586 15.2681 17.0586C14.7808 17.0586 14.3857 16.5318 14.3857 15.8821C14.3857 15.2324 14.7808 14.7056 15.2681 14.7056C15.7554 14.7056 16.1504 15.2324 16.1504 15.8821Z" fill="#DEDEDE"/>
<path d="M24.3849 9.70629C24.3849 9.86872 24.2532 10.0004 24.0907 10.0004C23.9283 10.0004 23.7966 9.86872 23.7966 9.70629C23.7966 9.54385 23.9283 9.41217 24.0907 9.41217C24.2532 9.41217 24.3849 9.54385 24.3849 9.70629Z" fill="#DEDEDE"/>
<path d="M13.2091 4.41143C13.2091 4.57386 13.0774 4.70554 12.915 4.70554C12.7525 4.70554 12.6208 4.57386 12.6208 4.41143C12.6208 4.24899 12.7525 4.11731 12.915 4.11731C13.0774 4.11731 13.2091 4.24899 13.2091 4.41143Z" fill="#DEDEDE"/>
<path d="M13.7965 25.5881C13.7965 25.7506 13.6648 25.8822 13.5024 25.8822C13.3399 25.8822 13.2083 25.7506 13.2083 25.5881C13.2083 25.4257 13.3399 25.294 13.5024 25.294C13.6648 25.294 13.7965 25.4257 13.7965 25.5881Z" fill="#DEDEDE"/>
<path d="M23.7966 22.3532C23.7966 23.0029 23.1382 23.5296 22.3261 23.5296C21.5139 23.5296 20.8555 23.0029 20.8555 22.3532C20.8555 21.7034 21.5139 21.1767 22.3261 21.1767C23.1382 21.1767 23.7966 21.7034 23.7966 22.3532Z" fill="#DEDEDE"/>
<path d="M8.5024 20.5874C8.5024 20.9123 8.23904 21.1756 7.91416 21.1756C7.58929 21.1756 7.32593 20.9123 7.32593 20.5874C7.32593 20.2625 7.58929 19.9991 7.91416 19.9991C8.23904 19.9991 8.5024 20.2625 8.5024 20.5874Z" fill="#DEDEDE"/>
<path d="M9.09127 11.1766C9.09127 11.5014 8.8279 11.7648 8.50303 11.7648C8.17816 11.7648 7.91479 11.5014 7.91479 11.1766C7.91479 10.8517 8.17816 10.5883 8.50303 10.5883C8.8279 10.5883 9.09127 10.8517 9.09127 11.1766Z" fill="#DEDEDE"/>
</svg>
