<svg width="161" height="161" viewBox="0 0 161 161" fill="none" xmlns="http://www.w3.org/2000/svg">
<path d="M80.3464 161C124.706 161 160.661 124.959 160.654 80.5C160.647 36.0411 124.68 0 80.3205 0C35.9607 0 0.00581258 36.0411 0.0129828 80.5C0.020153 124.959 35.9867 161 80.3464 161Z" fill="#DEDEDE"/>
<path d="M80.5166 151C119.453 151 151.017 119.436 151.017 80.5C151.017 41.5639 119.453 10 80.5166 10C41.5805 10 10.0166 41.5639 10.0166 80.5C10.0166 119.436 41.5805 151 80.5166 151Z" fill="#192432"/>
<path d="M80.0169 60C87.1966 60 93.0168 54.1797 93.0168 47C93.0168 39.8203 87.1966 34 80.0169 34C72.8372 34 67.0168 39.8203 67.0168 47C67.0168 54.1797 72.8372 60 80.0169 60Z" fill="#DEDEDE"/>
<path fill-rule="evenodd" clip-rule="evenodd" d="M100.017 43.3889L60.2492 50L60.0168 48.6111L99.7845 42L100.017 43.3889Z" fill="#DEDEDE" stroke="#DEDEDE"/>
<path d="M82.0168 90C84.7783 90 87.0168 87.7614 87.0168 85C87.0168 82.2386 84.7783 80 82.0168 80C79.2554 80 77.0168 82.2386 77.0168 85C77.0168 87.7614 79.2554 90 82.0168 90Z" fill="#DEDEDE"/>
<path d="M127.517 54C128.345 54 129.017 53.3284 129.017 52.5C129.017 51.6716 128.345 51 127.517 51C126.688 51 126.017 51.6716 126.017 52.5C126.017 53.3284 126.688 54 127.517 54Z" fill="#DEDEDE"/>
<path d="M119.517 90C119.793 90 120.017 89.5523 120.017 89C120.017 88.4477 119.793 88 119.517 88C119.241 88 119.017 88.4477 119.017 89C119.017 89.5523 119.241 90 119.517 90Z" fill="#DEDEDE"/>
<path d="M23.0166 82C23.5689 82 24.0166 81.5523 24.0166 81C24.0166 80.4477 23.5689 80 23.0166 80C22.4643 80 22.0166 80.4477 22.0166 81C22.0166 81.5523 22.4643 82 23.0166 82Z" fill="#DEDEDE"/>
<path d="M69.0168 24C69.5691 24 70.0168 23.5523 70.0168 23C70.0168 22.4477 69.5691 22 69.0168 22C68.4646 22 68.0168 22.4477 68.0168 23C68.0168 23.5523 68.4646 24 69.0168 24Z" fill="#DEDEDE"/>
<path d="M87.0168 119C87.5691 119 88.0168 118.552 88.0168 118C88.0168 117.448 87.5691 117 87.0168 117C86.4645 117 86.0168 117.448 86.0168 118C86.0168 118.552 86.4645 119 87.0168 119Z" fill="#DEDEDE"/>
<path d="M72.0168 139C73.1214 139 74.0168 138.328 74.0168 137.5C74.0168 136.672 73.1214 136 72.0168 136C70.9123 136 70.0168 136.672 70.0168 137.5C70.0168 138.328 70.9123 139 72.0168 139Z" fill="#DEDEDE"/>
<path d="M119.517 126C123.107 126 126.017 123.09 126.017 119.5C126.017 115.91 123.107 113 119.517 113C115.927 113 113.017 115.91 113.017 119.5C113.017 123.09 115.927 126 119.517 126Z" fill="#DEDEDE"/>
<path d="M42.5168 113C44.4498 113 46.0168 111.657 46.0168 110C46.0168 108.343 44.4498 107 42.5168 107C40.5838 107 39.0168 108.343 39.0168 110C39.0168 111.657 40.5838 113 42.5168 113Z" fill="#DEDEDE"/>
<path d="M44.0168 64C45.6737 64 47.0168 62.433 47.0168 60.5C47.0168 58.567 45.6737 57 44.0168 57C42.36 57 41.0168 58.567 41.0168 60.5C41.0168 62.433 42.36 64 44.0168 64Z" fill="#DEDEDE"/>
</svg>
