<svg width="35" height="35" viewBox="0 0 35 35" fill="none" xmlns="http://www.w3.org/2000/svg">
<path d="M33 7.88604C31.8963 8.37559 30.71 8.70643 29.4651 8.85519C30.7356 8.09346 31.7117 6.8873 32.1712 5.45001C30.9819 6.1554 29.6648 6.66759 28.2627 6.94355C27.1401 5.74736 25.5406 5 23.7703 5C20.3712 5 17.6152 7.75566 17.6152 11.1547C17.6152 11.6371 17.6697 12.1068 17.7747 12.5574C12.6594 12.3006 8.12416 9.85031 5.08857 6.12653C4.55874 7.03555 4.25522 8.09281 4.25522 9.22081C4.25522 11.3562 5.34177 13.2401 6.99331 14.3439C5.98448 14.3117 5.03532 14.035 4.20557 13.574C4.20498 13.5997 4.20498 13.6254 4.20498 13.6513C4.20498 16.6335 6.32658 19.121 9.14217 19.6865C8.62574 19.8272 8.08198 19.9025 7.52066 19.9025C7.12406 19.9025 6.73849 19.8637 6.36262 19.792C7.14588 22.2371 9.41888 24.0167 12.1122 24.0662C10.0058 25.7172 7.35191 26.7012 4.46822 26.7012C3.97142 26.7012 3.4815 26.6719 3 26.615C5.72381 28.3613 8.95906 29.3804 12.4348 29.3804C23.7558 29.3804 29.9467 20.0019 29.9467 11.8684C29.9467 11.6016 29.9407 11.3361 29.9288 11.0721C31.1315 10.2043 32.1749 9.12032 33 7.88604Z" fill="white"/>
</svg>
