<svg width="35" height="35" viewBox="0 0 35 35" fill="none" xmlns="http://www.w3.org/2000/svg">
<path d="M31.4901 10.5042C31.1547 9.25297 30.1703 8.26568 28.9205 7.92881C26.6368 7.30172 17.5003 7.29151 17.5003 7.29151C17.5003 7.29151 8.36524 7.28131 6.08003 7.88068C4.85503 8.21464 3.84295 9.22381 3.50461 10.4736C2.90232 12.7573 2.89649 17.494 2.89649 17.494C2.89649 17.494 2.89065 22.254 3.48857 24.5144C3.82399 25.7642 4.80836 26.7515 6.05961 27.0884C8.3667 27.7155 17.4784 27.7257 17.4784 27.7257C17.4784 27.7257 26.6149 27.7359 28.8986 27.138C30.147 26.8025 31.1357 25.8167 31.4755 24.5669C32.0793 22.2846 32.0836 17.5494 32.0836 17.5494C32.0836 17.5494 32.1128 12.788 31.4901 10.5042ZM14.5777 21.8821L14.5851 13.1321L22.1786 17.5144L14.5777 21.8821Z" fill="white"/>
</svg>
