<svg width="300" height="300" viewBox="0 0 300 300" fill="none" xmlns="http://www.w3.org/2000/svg">
<path d="M181.72 93.0884C181.587 93.0884 181.454 93.0884 181.321 93.0884C180.655 93.0884 180.122 92.894 179.789 92.4404C178.591 92.1812 177.259 91.9868 175.927 91.9868H174.329C174.262 92.1164 174.196 92.1812 174.129 92.3108C173.796 92.8292 173.264 93.0236 172.531 93.0236C171.799 93.0236 171.266 92.7644 170.933 92.3108C170.866 92.1812 170.8 92.1164 170.733 91.9868H164.407H165.606V92.9588H161.744V91.9868H163.275H155.351H156.55V92.9588H152.687V91.9868H154.219H147.027C146.961 92.0516 146.961 92.1164 146.894 92.1812C146.561 92.6996 146.028 92.894 145.296 92.894C144.563 92.894 144.031 92.6348 143.698 92.1812C143.631 92.1164 143.631 92.0516 143.565 91.9868H137.971C137.904 92.0516 137.904 92.1164 137.838 92.1812C137.505 92.6996 136.972 92.894 136.24 92.894C135.507 92.894 134.975 92.6348 134.642 92.1812C134.575 92.1164 134.575 92.0516 134.508 91.9868H129.381V92.8292H125.519V91.9868H123.921C122.655 91.9868 121.457 92.1164 120.325 92.3756V92.8292H118.594C115.264 93.9307 113 96.069 113 98.4665V159.959C113 162.033 114.665 163.912 117.262 165.143C117.462 165.078 117.728 165.013 117.994 165.013C118.727 165.013 119.259 165.272 119.592 165.726C119.659 165.791 119.659 165.856 119.726 165.985C120.991 166.309 122.323 166.439 123.788 166.439H125.386L126.384 165.143H128.249V166.439H134.309C134.375 166.18 134.508 165.985 134.642 165.791C134.975 165.272 135.507 165.078 136.24 165.078C136.972 165.078 137.505 165.337 137.838 165.791C137.971 165.985 138.038 166.18 138.171 166.439H143.365C143.431 166.244 143.498 166.05 143.631 165.92C143.964 165.402 144.497 165.208 145.229 165.208C145.962 165.208 146.495 165.467 146.827 165.92C146.961 166.05 147.027 166.244 147.094 166.439H152.354C152.421 166.244 152.554 166.05 152.687 165.856C153.02 165.337 153.553 165.143 154.286 165.143C155.018 165.143 155.551 165.402 155.884 165.856C156.017 166.05 156.083 166.244 156.217 166.439H161.677L162.543 165.337H164.407V166.439H170.667C170.733 166.244 170.8 166.115 170.933 165.92C171.266 165.402 171.799 165.208 172.531 165.208C173.264 165.208 173.796 165.467 174.129 165.92C174.262 166.05 174.329 166.244 174.396 166.439H175.861C177.326 166.439 178.724 166.244 179.989 165.92C180.322 165.467 180.855 165.272 181.521 165.272C181.654 165.272 181.787 165.272 181.92 165.272C184.85 164.106 186.715 162.097 186.715 159.894V98.4017C186.781 96.2634 184.784 94.2547 181.72 93.0884ZM116.463 95.7451C116.796 95.2267 117.328 95.0323 118.061 95.0323C118.793 95.0323 119.326 95.2915 119.659 95.7451C119.992 96.2634 120.192 96.9114 120.192 97.8186C120.192 98.7257 119.992 99.3737 119.659 99.8921C119.326 100.41 118.793 100.605 118.061 100.605C117.328 100.605 116.796 100.346 116.463 99.8921C116.13 99.3737 115.93 98.7257 115.93 97.8186C115.93 96.9114 116.13 96.1986 116.463 95.7451ZM116.463 111.556C116.796 111.037 117.328 110.843 118.061 110.843C118.793 110.843 119.326 111.102 119.659 111.556C119.992 112.074 120.192 112.722 120.192 113.629C120.192 114.536 119.992 115.184 119.659 115.703C119.326 116.221 118.793 116.415 118.061 116.415C117.328 116.415 116.796 116.156 116.463 115.703C116.13 115.184 115.93 114.536 115.93 113.629C115.93 112.722 116.13 112.074 116.463 111.556ZM116.463 127.172C116.796 126.653 117.328 126.459 118.061 126.459C118.793 126.459 119.326 126.718 119.659 127.172C119.992 127.625 120.192 128.338 120.192 129.245C120.192 130.152 119.992 130.8 119.659 131.319C119.326 131.837 118.793 132.031 118.061 132.031C117.328 132.031 116.796 131.772 116.463 131.319C116.13 130.865 115.93 130.152 115.93 129.245C115.93 128.338 116.13 127.625 116.463 127.172ZM116.463 150.045C116.796 149.527 117.328 149.332 118.061 149.332C118.793 149.332 119.326 149.592 119.659 150.045C119.992 150.563 120.192 151.211 120.192 152.119C120.192 153.026 119.992 153.674 119.659 154.192C119.326 154.71 118.793 154.905 118.061 154.905C117.328 154.905 116.796 154.646 116.463 154.192C116.13 153.674 115.93 153.026 115.93 152.119C115.93 151.211 116.13 150.499 116.463 150.045ZM120.325 163.069H116.463V162.097H117.994V158.469H117.928L116.796 159.894L115.997 159.311L117.328 157.626H119.193V162.097H120.391V163.069H120.325ZM120.325 147.194H116.463V146.287H117.928V142.658H117.861L116.729 144.084L115.93 143.501L117.262 141.816H119.126V146.287H120.325V147.194ZM120.325 139.807H116.463V138.835H117.928V135.207H117.861L116.729 136.632L115.93 136.049L117.262 134.364H119.126V138.835H120.325V139.807ZM120.325 124.256H116.463V123.284H117.928V119.655H117.861L116.729 121.081L115.93 120.498L117.262 118.813H119.126V123.284H120.325V124.256ZM120.325 108.769H116.463V107.797H117.928V104.169H117.861L116.729 105.594L115.93 105.011L117.262 103.326H119.126V107.797H120.325V108.769ZM125.519 95.8099C125.852 95.2915 126.384 95.0971 127.117 95.0971C127.849 95.0971 128.382 95.3563 128.715 95.8099C129.048 96.3282 129.248 96.9762 129.248 97.8834C129.248 98.7905 129.048 99.4385 128.715 99.9569C128.382 100.475 127.849 100.67 127.117 100.67C126.384 100.67 125.852 100.41 125.519 99.9569C125.186 99.4385 124.986 98.7905 124.986 97.8834C124.986 96.9762 125.186 96.3282 125.519 95.8099ZM125.519 103.974C125.852 103.456 126.384 103.262 127.117 103.262C127.849 103.262 128.382 103.521 128.715 103.974C129.048 104.493 129.248 105.141 129.248 106.048C129.248 106.955 129.048 107.603 128.715 108.121C128.382 108.64 127.849 108.834 127.117 108.834C126.384 108.834 125.852 108.575 125.519 108.121C125.186 107.603 124.986 106.955 124.986 106.048C124.986 105.141 125.186 104.428 125.519 103.974ZM125.519 119.461C125.852 118.942 126.384 118.748 127.117 118.748C127.849 118.748 128.382 119.007 128.715 119.461C129.048 119.979 129.248 120.627 129.248 121.534C129.248 122.441 129.048 123.089 128.715 123.608C128.382 124.126 127.849 124.321 127.117 124.321C126.384 124.321 125.852 124.061 125.519 123.608C125.186 123.089 124.986 122.441 124.986 121.534C124.986 120.627 125.186 119.979 125.519 119.461ZM125.519 127.236C125.852 126.718 126.384 126.524 127.117 126.524C127.849 126.524 128.382 126.783 128.715 127.236C129.048 127.755 129.248 128.403 129.248 129.31C129.248 130.217 129.048 130.865 128.715 131.384C128.382 131.902 127.849 132.096 127.117 132.096C126.384 132.096 125.852 131.837 125.519 131.384C125.186 130.865 124.986 130.217 124.986 129.31C124.986 128.403 125.186 127.755 125.519 127.236ZM125.519 135.012C125.852 134.494 126.384 134.299 127.117 134.299C127.849 134.299 128.382 134.559 128.715 135.012C129.048 135.531 129.248 136.178 129.248 137.086C129.248 137.993 129.048 138.641 128.715 139.159C128.382 139.678 127.849 139.872 127.117 139.872C126.384 139.872 125.852 139.613 125.519 139.159C125.186 138.641 124.986 137.993 124.986 137.086C124.986 136.178 125.186 135.466 125.519 135.012ZM128.782 162.421C128.449 162.94 127.916 163.134 127.184 163.134C126.451 163.134 125.918 162.875 125.585 162.421C125.252 161.903 125.053 161.255 125.053 160.348C125.053 159.441 125.252 158.793 125.585 158.274C125.918 157.756 126.451 157.562 127.184 157.562C127.916 157.562 128.449 157.821 128.782 158.274C129.115 158.793 129.314 159.441 129.314 160.348C129.314 161.255 129.115 161.903 128.782 162.421ZM128.782 154.257C128.449 154.775 127.916 154.97 127.184 154.97C126.451 154.97 125.918 154.71 125.585 154.257C125.252 153.739 125.053 153.091 125.053 152.183C125.053 151.276 125.252 150.628 125.585 150.11C125.918 149.592 126.451 149.397 127.184 149.397C127.916 149.397 128.449 149.656 128.782 150.11C129.115 150.628 129.314 151.276 129.314 152.183C129.314 153.091 129.115 153.739 128.782 154.257ZM129.381 147.194H125.519V146.287H126.984V142.658H126.917L125.785 144.084L125.053 143.501L126.384 141.816H128.249V146.287H129.448V147.194H129.381ZM129.381 116.415H125.519V115.508H126.984V111.88H126.917L125.785 113.305L125.053 112.722L126.384 111.037H128.249V115.508H129.448V116.415H129.381ZM152.687 95.8746C153.02 95.3563 153.553 95.1619 154.286 95.1619C155.018 95.1619 155.551 95.4211 155.884 95.8746C156.217 96.393 156.416 97.041 156.416 97.9482C156.416 98.8553 156.217 99.5033 155.884 100.022C155.551 100.54 155.018 100.734 154.286 100.734C153.553 100.734 153.02 100.475 152.687 100.022C152.354 99.5033 152.155 98.8553 152.155 97.9482C152.155 97.041 152.288 96.3282 152.687 95.8746ZM152.687 111.685C153.02 111.167 153.553 110.972 154.286 110.972C155.018 110.972 155.551 111.232 155.884 111.685C156.217 112.204 156.416 112.852 156.416 113.759C156.416 114.666 156.217 115.314 155.884 115.832C155.551 116.351 155.018 116.545 154.286 116.545C153.553 116.545 153.02 116.286 152.687 115.832C152.354 115.314 152.155 114.666 152.155 113.759C152.155 112.852 152.288 112.204 152.687 111.685ZM152.687 127.301C153.02 126.783 153.553 126.589 154.286 126.589C155.018 126.589 155.551 126.848 155.884 127.301C156.217 127.82 156.416 128.468 156.416 129.375C156.416 130.282 156.217 130.93 155.884 131.448C155.551 131.967 155.018 132.161 154.286 132.161C153.553 132.161 153.02 131.902 152.687 131.448C152.354 130.93 152.155 130.282 152.155 129.375C152.155 128.468 152.288 127.755 152.687 127.301ZM143.631 95.7451C143.964 95.2267 144.497 95.0323 145.229 95.0323C145.962 95.0323 146.495 95.2915 146.827 95.7451C147.16 96.2634 147.36 96.9114 147.36 97.8186C147.36 98.7257 147.16 99.3737 146.827 99.8921C146.495 100.41 145.962 100.605 145.229 100.605C144.497 100.605 143.964 100.346 143.631 99.8921C143.298 99.3737 143.098 98.7257 143.098 97.8186C143.098 96.9114 143.232 96.1986 143.631 95.7451ZM143.631 111.75C143.964 111.232 144.497 111.037 145.229 111.037C145.962 111.037 146.495 111.296 146.827 111.75C147.16 112.268 147.36 112.916 147.36 113.823C147.36 114.731 147.16 115.379 146.827 115.897C146.495 116.415 145.962 116.61 145.229 116.61C144.497 116.61 143.964 116.351 143.631 115.897C143.298 115.443 143.098 114.731 143.098 113.823C143.098 112.916 143.232 112.204 143.631 111.75ZM143.631 127.301C143.964 126.783 144.497 126.589 145.229 126.589C145.962 126.589 146.495 126.848 146.827 127.301C147.16 127.82 147.36 128.468 147.36 129.375C147.36 130.282 147.16 130.93 146.827 131.448C146.495 131.967 145.962 132.161 145.229 132.161C144.497 132.161 143.964 131.902 143.631 131.448C143.298 130.995 143.098 130.282 143.098 129.375C143.098 128.468 143.232 127.82 143.631 127.301ZM143.631 135.012C143.964 134.494 144.497 134.299 145.229 134.299C145.962 134.299 146.495 134.559 146.827 135.012C147.16 135.531 147.36 136.178 147.36 137.086C147.36 137.993 147.16 138.641 146.827 139.159C146.495 139.678 145.962 139.872 145.229 139.872C144.497 139.872 143.964 139.613 143.631 139.159C143.298 138.706 143.098 137.993 143.098 137.086C143.098 136.178 143.232 135.466 143.631 135.012ZM143.631 142.399C143.964 141.881 144.497 141.686 145.229 141.686C145.962 141.686 146.495 141.945 146.827 142.399C147.16 142.917 147.36 143.565 147.36 144.473C147.36 145.38 147.16 146.028 146.827 146.546C146.495 147.064 145.962 147.259 145.229 147.259C144.497 147.259 143.964 147 143.631 146.546C143.298 146.092 143.098 145.38 143.098 144.473C143.098 143.63 143.232 142.917 143.631 142.399ZM134.575 111.62C134.908 111.102 135.441 110.908 136.173 110.908C136.906 110.908 137.438 111.167 137.771 111.62C138.104 112.139 138.304 112.787 138.304 113.694C138.304 114.601 138.104 115.249 137.771 115.767C137.438 116.286 136.906 116.48 136.173 116.48C135.441 116.48 134.908 116.221 134.575 115.767C134.242 115.249 134.042 114.601 134.042 113.694C134.042 112.787 134.242 112.139 134.575 111.62ZM134.042 106.113C134.042 105.205 134.242 104.557 134.575 104.039C134.908 103.521 135.441 103.326 136.173 103.326C136.906 103.326 137.438 103.586 137.771 104.039C138.104 104.493 138.304 105.205 138.304 106.113C138.304 107.02 138.104 107.668 137.771 108.186C137.438 108.704 136.906 108.899 136.173 108.899C135.441 108.899 134.908 108.64 134.575 108.186C134.242 107.668 134.042 107.02 134.042 106.113ZM134.575 142.399C134.908 141.881 135.441 141.686 136.173 141.686C136.906 141.686 137.438 141.945 137.771 142.399C138.104 142.917 138.304 143.565 138.304 144.473C138.304 145.38 138.104 146.028 137.771 146.546C137.438 147.064 136.906 147.259 136.173 147.259C135.441 147.259 134.908 147 134.575 146.546C134.242 146.028 134.042 145.38 134.042 144.473C134.042 143.63 134.242 142.917 134.575 142.399ZM137.838 162.486C137.505 163.005 136.972 163.199 136.24 163.199C135.507 163.199 134.975 162.94 134.642 162.486C134.309 161.968 134.109 161.32 134.109 160.413C134.109 159.505 134.309 158.858 134.642 158.339C134.975 157.821 135.507 157.626 136.24 157.626C136.972 157.626 137.505 157.886 137.838 158.339C138.171 158.793 138.371 159.505 138.371 160.413C138.304 161.32 138.171 162.033 137.838 162.486ZM138.437 154.97H134.575V153.998H136.107V150.369H136.04L134.908 151.795L134.109 151.211L135.441 149.527H137.305V153.998H138.504V154.97H138.437ZM138.437 139.872H134.575V138.965H136.107V135.336H136.04L134.908 136.762L134.109 136.178L135.441 134.494H137.305V138.965H138.504V139.872H138.437ZM138.437 132.096H134.575V131.124H136.107V127.496H136.04L134.908 128.921L134.109 128.338L135.441 126.653H137.305V131.124H138.504V132.096H138.437ZM138.437 124.256H134.575V123.284H136.107V119.655H136.04L134.908 121.081L134.109 120.498L135.441 118.813H137.305V123.284H138.504V124.256H138.437ZM138.437 100.67H134.575V99.6977H136.107V96.069H136.04L134.908 97.4946L134.109 96.9114L135.441 95.2267H137.305V99.6977H138.504V100.67H138.437ZM143.631 150.045C143.964 149.527 144.497 149.332 145.229 149.332C145.962 149.332 146.495 149.592 146.827 150.045C147.16 150.563 147.36 151.211 147.36 152.119C147.36 153.026 147.16 153.674 146.827 154.192C146.495 154.71 145.962 154.905 145.229 154.905C144.497 154.905 143.964 154.646 143.631 154.192C143.298 153.674 143.098 153.026 143.098 152.119C143.098 151.211 143.232 150.499 143.631 150.045ZM147.493 163.134H143.631V162.162H145.163V158.534H145.096L143.964 159.959L143.165 159.376L144.497 157.691H146.361V162.162H147.56V163.134H147.493ZM147.493 124.321H143.631V123.349H145.163V119.72H145.096L143.964 121.146L143.165 120.562L144.497 118.878H146.361V123.349H147.56V124.321H147.493ZM147.493 108.834H143.631V107.862H145.163V104.233H145.096L143.964 105.659L143.165 105.076L144.497 103.391H146.361V107.862H147.56V108.834H147.493ZM152.687 150.175C153.02 149.656 153.553 149.462 154.286 149.462C155.018 149.462 155.551 149.721 155.884 150.175C156.217 150.693 156.416 151.341 156.416 152.248C156.416 153.155 156.217 153.803 155.884 154.322C155.551 154.84 155.018 155.034 154.286 155.034C153.553 155.034 153.02 154.775 152.687 154.322C152.354 153.803 152.155 153.155 152.155 152.248C152.155 151.341 152.288 150.628 152.687 150.175ZM156.55 163.199H152.687V162.227H154.152V158.598H154.086L152.954 160.024L152.221 159.441L153.553 157.756H155.418V162.227H156.616V163.199H156.55ZM156.55 147.324H152.687V146.352H154.219V142.723H154.152L153.02 144.149L152.288 143.565L153.62 141.881H155.484V146.352H156.683V147.324H156.55ZM156.55 139.937H152.687V139.03H154.219V135.401H154.152L153.02 136.826L152.288 136.243L153.62 134.559H155.484V139.03H156.683V139.937H156.55ZM156.55 124.385H152.687V123.413H154.152V119.785H154.086L152.954 121.21L152.221 120.627L153.553 118.942H155.418V123.413H156.616V124.385H156.55ZM156.55 108.899H152.687V107.927H154.219V104.298H154.152L153.02 105.724L152.288 105.141L153.62 103.456H155.484V107.927H156.683V108.899H156.55ZM161.744 95.9394C162.076 95.4211 162.609 95.2267 163.342 95.2267C164.074 95.2267 164.607 95.4859 164.94 95.9394C165.273 96.393 165.473 97.1058 165.473 98.013C165.473 98.9201 165.273 99.5681 164.94 100.086C164.607 100.605 164.074 100.799 163.342 100.799C162.609 100.799 162.076 100.54 161.744 100.086C161.411 99.5681 161.211 98.9201 161.211 98.013C161.211 97.1058 161.344 96.4578 161.744 95.9394ZM161.744 104.104C162.076 103.586 162.609 103.391 163.342 103.391C164.074 103.391 164.607 103.65 164.94 104.104C165.273 104.557 165.473 105.27 165.473 106.177C165.473 107.085 165.273 107.733 164.94 108.251C164.607 108.769 164.074 108.964 163.342 108.964C162.609 108.964 162.076 108.704 161.744 108.251C161.411 107.733 161.211 107.085 161.211 106.177C161.211 105.27 161.344 104.557 161.744 104.104ZM161.744 119.59C162.076 119.072 162.609 118.878 163.342 118.878C164.074 118.878 164.607 119.137 164.94 119.59C165.273 120.044 165.473 120.757 165.473 121.664C165.473 122.571 165.273 123.219 164.94 123.737C164.607 124.256 164.074 124.45 163.342 124.45C162.609 124.45 162.076 124.191 161.744 123.737C161.411 123.219 161.211 122.571 161.211 121.664C161.211 120.757 161.344 120.109 161.744 119.59ZM161.744 127.366C162.076 126.848 162.609 126.653 163.342 126.653C164.074 126.653 164.607 126.913 164.94 127.366C165.273 127.884 165.473 128.532 165.473 129.44C165.473 130.347 165.273 130.995 164.94 131.513C164.607 132.031 164.074 132.226 163.342 132.226C162.609 132.226 162.076 131.967 161.744 131.513C161.411 130.995 161.211 130.347 161.211 129.44C161.211 128.532 161.344 127.884 161.744 127.366ZM161.744 135.142C162.076 134.623 162.609 134.429 163.342 134.429C164.074 134.429 164.607 134.688 164.94 135.142C165.273 135.66 165.473 136.308 165.473 137.215C165.473 138.122 165.273 138.77 164.94 139.289C164.607 139.807 164.074 140.002 163.342 140.002C162.609 140.002 162.076 139.742 161.744 139.289C161.411 138.77 161.211 138.122 161.211 137.215C161.211 136.308 161.344 135.595 161.744 135.142ZM164.94 162.551C164.607 163.069 164.074 163.264 163.342 163.264C162.609 163.264 162.076 163.005 161.744 162.551C161.411 162.033 161.211 161.385 161.211 160.477C161.211 159.57 161.411 158.922 161.744 158.404C162.076 157.886 162.609 157.691 163.342 157.691C164.074 157.691 164.607 157.95 164.94 158.404C165.273 158.858 165.473 159.57 165.473 160.477C165.473 161.32 165.339 162.033 164.94 162.551ZM164.94 154.387C164.607 154.905 164.074 155.099 163.342 155.099C162.609 155.099 162.076 154.84 161.744 154.387C161.411 153.868 161.211 153.22 161.211 152.313C161.211 151.406 161.411 150.758 161.744 150.239C162.076 149.721 162.609 149.527 163.342 149.527C164.074 149.527 164.607 149.786 164.94 150.239C165.273 150.693 165.473 151.406 165.473 152.313C165.473 153.22 165.339 153.868 164.94 154.387ZM165.606 147.324H161.744V146.352H163.275V142.723H163.209L162.076 144.149L161.277 143.565L162.609 141.881H164.474V146.352H165.672V147.324H165.606ZM165.606 116.545H161.744V115.573H163.275V111.944H163.209L162.076 113.37L161.277 112.787L162.609 111.102H164.474V115.573H165.672V116.545H165.606ZM170.933 111.75C171.266 111.232 171.799 111.037 172.531 111.037C173.264 111.037 173.796 111.296 174.129 111.75C174.462 112.268 174.662 112.916 174.662 113.823C174.662 114.731 174.462 115.379 174.129 115.897C173.796 116.415 173.264 116.61 172.531 116.61C171.799 116.61 171.266 116.351 170.933 115.897C170.6 115.443 170.4 114.731 170.4 113.823C170.4 112.916 170.533 112.268 170.933 111.75ZM170.4 106.242C170.4 105.335 170.6 104.687 170.933 104.169C171.266 103.65 171.799 103.456 172.531 103.456C173.264 103.456 173.796 103.715 174.129 104.169C174.462 104.687 174.662 105.335 174.662 106.242C174.662 107.149 174.462 107.797 174.129 108.316C173.796 108.834 173.264 109.028 172.531 109.028C171.799 109.028 171.266 108.769 170.933 108.316C170.533 107.797 170.4 107.149 170.4 106.242ZM171.466 134.559H173.33V139.03H174.529V140.002H170.667V139.03H172.198V135.401H172.132L170.999 136.826L170.267 136.243L171.466 134.559ZM174.662 144.602C174.662 145.509 174.462 146.157 174.129 146.676C173.796 147.194 173.264 147.388 172.531 147.388C171.799 147.388 171.266 147.129 170.933 146.676C170.6 146.222 170.4 145.509 170.4 144.602C170.4 143.695 170.6 143.047 170.933 142.529C171.266 142.01 171.799 141.816 172.531 141.816C173.264 141.816 173.796 142.075 174.129 142.529C174.529 143.047 174.662 143.76 174.662 144.602ZM174.129 162.616C173.796 163.134 173.264 163.329 172.531 163.329C171.799 163.329 171.266 163.069 170.933 162.616C170.6 162.162 170.4 161.449 170.4 160.542C170.4 159.635 170.6 158.987 170.933 158.469C171.266 157.95 171.799 157.756 172.531 157.756C173.264 157.756 173.796 158.015 174.129 158.469C174.462 158.987 174.662 159.635 174.662 160.542C174.662 161.449 174.529 162.162 174.129 162.616ZM174.795 155.099H170.933V154.127H172.398V150.499H172.331L171.199 151.924L170.4 151.341L171.732 149.656H173.596V154.127H174.795V155.099ZM174.795 132.226H170.933V131.254H172.398V127.625H172.331L171.199 129.051L170.4 128.468L171.732 126.783H173.596V131.254H174.795V132.226ZM174.795 124.385H170.933V123.413H172.398V119.785H172.331L171.199 121.21L170.4 120.627L171.732 118.942H173.596V123.413H174.795V124.385ZM174.795 100.799H170.933V99.8273H172.398V96.1986H172.331L171.199 97.6242L170.4 97.041L171.732 95.3563H173.596V99.8273H174.795V100.799ZM179.922 95.8746C180.255 95.3563 180.788 95.1619 181.521 95.1619C182.253 95.1619 182.786 95.4211 183.119 95.8746C183.452 96.393 183.652 97.041 183.652 97.9482C183.652 98.8553 183.452 99.5033 183.119 100.022C182.786 100.54 182.253 100.734 181.521 100.734C180.788 100.734 180.255 100.475 179.922 100.022C179.59 99.5033 179.39 98.8553 179.39 97.9482C179.39 97.041 179.59 96.3282 179.922 95.8746ZM179.922 111.88C180.255 111.361 180.788 111.167 181.521 111.167C182.253 111.167 182.786 111.426 183.119 111.88C183.452 112.398 183.652 113.046 183.652 113.953C183.652 114.86 183.452 115.508 183.119 116.027C182.786 116.545 182.253 116.739 181.521 116.739C180.788 116.739 180.255 116.48 179.922 116.027C179.59 115.573 179.39 114.86 179.39 113.953C179.39 113.046 179.59 112.333 179.922 111.88ZM179.922 127.431C180.255 126.912 180.788 126.718 181.521 126.718C182.253 126.718 182.786 126.977 183.119 127.431C183.452 127.949 183.652 128.597 183.652 129.504C183.652 130.412 183.452 131.06 183.119 131.578C182.786 132.096 182.253 132.291 181.521 132.291C180.788 132.291 180.255 132.031 179.922 131.578C179.59 131.124 179.39 130.412 179.39 129.504C179.39 128.597 179.59 127.949 179.922 127.431ZM179.922 135.142C180.255 134.623 180.788 134.429 181.521 134.429C182.253 134.429 182.786 134.688 183.119 135.142C183.452 135.66 183.652 136.308 183.652 137.215C183.652 138.122 183.452 138.77 183.119 139.289C182.786 139.807 182.253 140.002 181.521 140.002C180.788 140.002 180.255 139.742 179.922 139.289C179.59 138.835 179.39 138.122 179.39 137.215C179.39 136.308 179.59 135.595 179.922 135.142ZM179.723 142.529C180.056 142.01 180.588 141.816 181.321 141.816C182.053 141.816 182.586 142.075 182.919 142.529C183.252 142.982 183.452 143.695 183.452 144.602C183.452 145.509 183.252 146.157 182.919 146.676C182.586 147.194 182.053 147.388 181.321 147.388C180.588 147.388 180.056 147.129 179.723 146.676C179.39 146.157 179.19 145.509 179.19 144.602C179.19 143.76 179.323 143.047 179.723 142.529ZM179.922 150.175C180.255 149.656 180.788 149.462 181.521 149.462C182.253 149.462 182.786 149.721 183.119 150.175C183.452 150.693 183.652 151.341 183.652 152.248C183.652 153.155 183.452 153.803 183.119 154.322C182.786 154.84 182.253 155.034 181.521 155.034C180.788 155.034 180.255 154.775 179.922 154.322C179.59 153.803 179.39 153.155 179.39 152.248C179.39 151.341 179.59 150.628 179.922 150.175ZM183.785 163.264H179.922V162.292H181.387V158.663H181.321L180.189 160.089L179.456 159.505L180.788 157.821H182.653V162.292H183.851V163.264H183.785ZM183.785 124.45H179.922V123.478H181.387V119.85H181.321L180.189 121.275L179.456 120.692L180.788 119.007H182.653V123.478H183.851V124.45H183.785ZM183.785 108.964H179.922V107.992H181.387V104.363H181.321L180.189 105.789L179.456 105.205L180.788 103.521H182.653V107.992H183.851V108.964H183.785Z" fill="url(#paint0_linear_81_244)"/>
<path d="M118.927 151.6V152.637C118.927 153.026 118.86 153.35 118.727 153.609C118.594 153.868 118.394 153.933 118.061 153.933C117.728 153.933 117.528 153.803 117.395 153.609C117.262 153.414 117.195 153.09 117.195 152.637V151.6C117.195 151.211 117.262 150.887 117.395 150.628C117.528 150.434 117.728 150.304 118.061 150.304C118.394 150.304 118.594 150.434 118.727 150.628C118.86 150.823 118.927 151.147 118.927 151.6Z" fill="#8B4CF7"/>
<path d="M118.927 128.727V129.763C118.927 130.152 118.86 130.476 118.727 130.735C118.594 130.995 118.394 131.059 118.061 131.059C117.728 131.059 117.528 130.93 117.395 130.735C117.262 130.541 117.195 130.217 117.195 129.763V128.727C117.195 128.338 117.262 128.014 117.395 127.755C117.528 127.56 117.728 127.431 118.061 127.431C118.394 127.431 118.594 127.56 118.727 127.755C118.86 127.949 118.927 128.273 118.927 128.727Z" fill="#8B4CF7"/>
<path d="M118.927 113.111V114.148C118.927 114.536 118.86 114.86 118.727 115.12C118.594 115.379 118.394 115.444 118.061 115.444C117.728 115.444 117.528 115.314 117.395 115.12C117.262 114.86 117.195 114.601 117.195 114.148V113.111C117.195 112.722 117.262 112.398 117.395 112.139C117.528 111.88 117.728 111.815 118.061 111.815C118.394 111.815 118.594 111.945 118.727 112.139C118.86 112.398 118.927 112.722 118.927 113.111Z" fill="#8B4CF7"/>
<path d="M118.927 97.2999V98.3366C118.927 98.7254 118.86 99.0494 118.727 99.3086C118.594 99.5678 118.394 99.6325 118.061 99.6325C117.728 99.6325 117.528 99.503 117.395 99.3086C117.262 99.0494 117.195 98.7902 117.195 98.3366V97.2999C117.195 96.9111 117.262 96.5871 117.395 96.3279C117.528 96.0687 117.728 96.0039 118.061 96.0039C118.394 96.0039 118.594 96.1335 118.727 96.3279C118.86 96.5223 118.927 96.8463 118.927 97.2999Z" fill="#8B4CF7"/>
<path d="M127.982 128.792V129.828C127.982 130.217 127.916 130.541 127.783 130.8C127.649 131.059 127.45 131.124 127.117 131.124C126.784 131.124 126.584 130.995 126.451 130.8C126.318 130.606 126.251 130.282 126.251 129.828V128.792C126.251 128.403 126.318 128.079 126.451 127.82C126.584 127.625 126.784 127.496 127.117 127.496C127.45 127.496 127.649 127.625 127.783 127.82C127.916 128.079 127.982 128.403 127.982 128.792Z" fill="#8455F7"/>
<path d="M127.982 121.016V122.053C127.982 122.442 127.916 122.766 127.783 123.025C127.649 123.284 127.45 123.349 127.117 123.349C126.784 123.349 126.584 123.219 126.451 123.025C126.318 122.83 126.251 122.506 126.251 122.053V121.016C126.251 120.627 126.318 120.303 126.451 120.044C126.584 119.785 126.784 119.72 127.117 119.72C127.45 119.72 127.649 119.85 127.783 120.044C127.916 120.303 127.982 120.627 127.982 121.016Z" fill="#8455F7"/>
<path d="M127.982 105.529V106.566C127.982 106.955 127.916 107.279 127.783 107.538C127.649 107.732 127.45 107.862 127.117 107.862C126.784 107.862 126.584 107.732 126.451 107.538C126.318 107.279 126.251 106.955 126.251 106.566V105.529C126.251 105.141 126.318 104.817 126.451 104.557C126.584 104.298 126.784 104.233 127.117 104.233C127.45 104.233 127.649 104.363 127.783 104.557C127.916 104.752 127.982 105.076 127.982 105.529Z" fill="#8455F7"/>
<path d="M127.982 97.3648V98.4015C127.982 98.7903 127.916 99.1143 127.783 99.3735C127.649 99.5679 127.45 99.6975 127.117 99.6975C126.784 99.6975 126.584 99.5679 126.451 99.3735C126.318 99.1791 126.251 98.8551 126.251 98.4015V97.3648C126.251 96.976 126.318 96.652 126.451 96.3928C126.584 96.1336 126.784 96.0688 127.117 96.0688C127.45 96.0688 127.649 96.1984 127.783 96.3928C127.916 96.652 127.982 96.976 127.982 97.3648Z" fill="#8455F7"/>
<path d="M127.982 159.83V160.866C127.982 161.255 127.916 161.579 127.783 161.838C127.649 162.033 127.45 162.162 127.117 162.162C126.784 162.162 126.584 162.033 126.451 161.838C126.318 161.579 126.251 161.255 126.251 160.866V159.83C126.251 159.441 126.318 159.117 126.451 158.858C126.584 158.598 126.784 158.534 127.117 158.534C127.45 158.534 127.649 158.663 127.783 158.858C127.916 159.052 127.982 159.376 127.982 159.83Z" fill="#8455F7"/>
<path d="M127.982 151.665V152.702C127.982 153.091 127.916 153.415 127.783 153.674C127.649 153.868 127.45 153.998 127.117 153.998C126.784 153.998 126.584 153.868 126.451 153.674C126.318 153.479 126.251 153.155 126.251 152.702V151.665C126.251 151.276 126.318 150.952 126.451 150.693C126.584 150.499 126.784 150.369 127.117 150.369C127.45 150.369 127.649 150.499 127.783 150.693C127.916 150.952 127.982 151.276 127.982 151.665Z" fill="#8455F7"/>
<path d="M127.982 136.567V137.604C127.982 137.993 127.916 138.317 127.783 138.576C127.649 138.835 127.45 138.9 127.117 138.9C126.784 138.9 126.584 138.771 126.451 138.576C126.318 138.382 126.251 138.058 126.251 137.604V136.567C126.251 136.179 126.318 135.855 126.451 135.595C126.584 135.401 126.784 135.271 127.117 135.271C127.45 135.271 127.649 135.401 127.783 135.595C127.916 135.79 127.982 136.114 127.982 136.567Z" fill="#8455F7"/>
<path d="M137.039 159.894V160.931C137.039 161.32 136.972 161.644 136.839 161.903C136.706 162.162 136.506 162.227 136.173 162.227C135.84 162.227 135.641 162.097 135.507 161.903C135.374 161.644 135.308 161.384 135.308 160.931V159.894C135.308 159.505 135.374 159.181 135.507 158.922C135.641 158.663 135.84 158.598 136.173 158.598C136.506 158.598 136.706 158.728 136.839 158.922C136.972 159.181 137.039 159.505 137.039 159.894Z" fill="#8358F8"/>
<path d="M137.039 143.954V144.991C137.039 145.38 136.972 145.704 136.839 145.963C136.706 146.222 136.506 146.287 136.173 146.287C135.84 146.287 135.641 146.157 135.507 145.963C135.374 145.704 135.308 145.38 135.308 144.991V143.954C135.308 143.565 135.374 143.241 135.507 142.982C135.641 142.723 135.84 142.658 136.173 142.658C136.506 142.658 136.706 142.788 136.839 142.982C136.972 143.241 137.039 143.565 137.039 143.954Z" fill="#8358F8"/>
<path d="M137.039 113.175V114.212C137.039 114.601 136.972 114.925 136.839 115.184C136.706 115.378 136.506 115.508 136.173 115.508C135.84 115.508 135.641 115.378 135.507 115.184C135.374 114.925 135.308 114.601 135.308 114.212V113.175C135.308 112.787 135.374 112.463 135.507 112.203C135.641 111.944 135.84 111.879 136.173 111.879C136.506 111.879 136.706 112.009 136.839 112.203C136.972 112.463 137.039 112.787 137.039 113.175Z" fill="#8358F8"/>
<path d="M137.039 105.594V106.631C137.039 107.085 136.972 107.344 136.839 107.603C136.706 107.862 136.506 107.927 136.173 107.927C135.84 107.927 135.641 107.797 135.507 107.603C135.374 107.344 135.308 107.085 135.308 106.631V105.594C135.308 105.205 135.374 104.882 135.507 104.622C135.641 104.363 135.84 104.298 136.173 104.298C136.506 104.298 136.706 104.428 136.839 104.622C136.972 104.882 137.039 105.205 137.039 105.594Z" fill="#8358F8"/>
<path d="M146.095 151.6V152.637C146.095 153.026 146.028 153.35 145.895 153.609C145.762 153.868 145.562 153.933 145.229 153.933C144.896 153.933 144.696 153.803 144.563 153.609C144.43 153.414 144.363 153.09 144.363 152.637V151.6C144.363 151.211 144.43 150.887 144.563 150.628C144.696 150.434 144.896 150.304 145.229 150.304C145.562 150.304 145.762 150.434 145.895 150.628C146.028 150.823 146.095 151.147 146.095 151.6Z" fill="#7966F9"/>
<path d="M146.095 143.954V144.991C146.095 145.38 146.028 145.704 145.895 145.963C145.762 146.222 145.562 146.287 145.229 146.287C144.896 146.287 144.696 146.157 144.563 145.963C144.43 145.704 144.363 145.38 144.363 144.991V143.954C144.363 143.565 144.43 143.241 144.563 142.982C144.696 142.723 144.896 142.658 145.229 142.658C145.562 142.658 145.762 142.788 145.895 142.982C146.028 143.241 146.095 143.565 146.095 143.954Z" fill="#7966F9"/>
<path d="M146.095 136.567V137.604C146.095 137.993 146.028 138.317 145.895 138.576C145.762 138.835 145.562 138.9 145.229 138.9C144.896 138.9 144.696 138.771 144.563 138.576C144.43 138.382 144.363 138.058 144.363 137.604V136.567C144.363 136.179 144.43 135.855 144.563 135.595C144.696 135.401 144.896 135.271 145.229 135.271C145.562 135.271 145.762 135.401 145.895 135.595C146.028 135.79 146.095 136.114 146.095 136.567Z" fill="#7966F9"/>
<path d="M146.095 128.856V129.893C146.095 130.282 146.028 130.606 145.895 130.865C145.762 131.06 145.562 131.189 145.229 131.189C144.896 131.189 144.696 131.06 144.563 130.865C144.43 130.606 144.363 130.282 144.363 129.893V128.856C144.363 128.468 144.43 128.144 144.563 127.885C144.696 127.625 144.896 127.561 145.229 127.561C145.562 127.561 145.762 127.69 145.895 127.885C146.028 128.144 146.095 128.468 146.095 128.856Z" fill="#7966F9"/>
<path d="M146.095 113.305V114.342C146.095 114.731 146.028 115.055 145.895 115.314C145.762 115.508 145.562 115.638 145.229 115.638C144.896 115.638 144.696 115.508 144.563 115.314C144.43 115.055 144.363 114.731 144.363 114.342V113.305C144.363 112.916 144.43 112.592 144.563 112.333C144.696 112.074 144.896 112.009 145.229 112.009C145.562 112.009 145.762 112.139 145.895 112.333C146.028 112.528 146.095 112.852 146.095 113.305Z" fill="#7966F9"/>
<path d="M146.095 97.2999V98.3366C146.095 98.7254 146.028 99.0494 145.895 99.3086C145.762 99.5678 145.562 99.6325 145.229 99.6325C144.896 99.6325 144.696 99.503 144.563 99.3086C144.43 99.0494 144.363 98.7902 144.363 98.3366V97.2999C144.363 96.9111 144.43 96.5871 144.563 96.3279C144.696 96.0687 144.896 96.0039 145.229 96.0039C145.562 96.0039 145.762 96.1335 145.895 96.3279C146.028 96.5223 146.095 96.8463 146.095 97.2999Z" fill="#7966F9"/>
<path d="M155.151 128.856V129.893C155.151 130.347 155.085 130.606 154.951 130.865C154.818 131.124 154.619 131.189 154.286 131.189C153.953 131.189 153.753 131.06 153.62 130.865C153.487 130.671 153.42 130.347 153.42 129.893V128.856C153.42 128.468 153.487 128.144 153.62 127.885C153.753 127.69 153.953 127.561 154.286 127.561C154.619 127.561 154.818 127.69 154.951 127.885C155.085 128.079 155.151 128.403 155.151 128.856Z" fill="black"/>
<path d="M155.151 113.24V114.277C155.151 114.666 155.085 114.99 154.951 115.249C154.818 115.443 154.619 115.573 154.286 115.573C153.953 115.573 153.753 115.443 153.62 115.249C153.487 115.055 153.42 114.731 153.42 114.277V113.24C153.42 112.851 153.487 112.528 153.62 112.268C153.753 112.009 153.953 111.944 154.286 111.944C154.619 111.944 154.818 112.074 154.951 112.268C155.085 112.528 155.151 112.851 155.151 113.24Z" fill="#6F74FA"/>
<path d="M155.151 97.4297V98.4665C155.151 98.8553 155.085 99.1793 154.951 99.4385C154.818 99.6328 154.619 99.7624 154.286 99.7624C153.953 99.7624 153.753 99.6328 153.62 99.4385C153.487 99.2441 153.42 98.9201 153.42 98.4665V97.4297C153.42 97.041 153.487 96.717 153.62 96.4578C153.753 96.2634 153.953 96.1338 154.286 96.1338C154.619 96.1338 154.818 96.2634 154.951 96.4578C155.085 96.6522 155.151 96.9762 155.151 97.4297Z" fill="#6F74FA"/>
<path d="M155.151 151.73V152.766C155.151 153.155 155.085 153.479 154.951 153.738C154.818 153.933 154.619 154.062 154.286 154.062C153.953 154.062 153.753 153.933 153.62 153.738C153.487 153.544 153.42 153.22 153.42 152.766V151.73C153.42 151.341 153.487 151.017 153.62 150.758C153.753 150.563 153.953 150.434 154.286 150.434C154.619 150.434 154.818 150.563 154.951 150.758C155.085 150.952 155.151 151.276 155.151 151.73Z" fill="#6F74FA"/>
<path d="M164.208 159.959V160.996C164.208 161.385 164.141 161.709 164.008 161.968C163.875 162.227 163.675 162.292 163.342 162.292C163.009 162.292 162.81 162.162 162.676 161.968C162.543 161.709 162.477 161.449 162.477 160.996V159.959C162.477 159.57 162.543 159.246 162.676 158.987C162.81 158.728 163.009 158.663 163.342 158.663C163.675 158.663 163.875 158.793 164.008 158.987C164.141 159.246 164.208 159.505 164.208 159.959Z" fill="#6A7BFB"/>
<path d="M164.208 151.794V152.831C164.208 153.22 164.141 153.544 164.008 153.803C163.875 154.062 163.675 154.127 163.342 154.127C163.009 154.127 162.81 153.998 162.676 153.803C162.543 153.544 162.477 153.285 162.477 152.831V151.794C162.477 151.406 162.543 151.082 162.676 150.823C162.81 150.563 163.009 150.499 163.342 150.499C163.675 150.499 163.875 150.628 164.008 150.823C164.141 151.082 164.208 151.406 164.208 151.794Z" fill="#6A7BFB"/>
<path d="M164.208 136.697V137.734C164.208 138.122 164.141 138.446 164.008 138.706C163.875 138.965 163.675 139.03 163.342 139.03C163.009 139.03 162.81 138.9 162.676 138.706C162.543 138.511 162.477 138.187 162.477 137.734V136.697C162.477 136.308 162.543 135.984 162.676 135.725C162.81 135.466 163.009 135.401 163.342 135.401C163.675 135.401 163.875 135.53 164.008 135.725C164.141 135.984 164.208 136.243 164.208 136.697Z" fill="#6A7BFB"/>
<path d="M164.208 128.921V129.958C164.208 130.346 164.141 130.67 164.008 130.93C163.875 131.124 163.675 131.254 163.342 131.254C163.009 131.254 162.81 131.124 162.676 130.93C162.543 130.67 162.477 130.346 162.477 129.958V128.921C162.477 128.532 162.543 128.208 162.676 127.949C162.81 127.69 163.009 127.625 163.342 127.625C163.675 127.625 163.875 127.755 164.008 127.949C164.141 128.208 164.208 128.532 164.208 128.921Z" fill="#6A7BFB"/>
<path d="M164.208 121.146V122.182C164.208 122.571 164.141 122.895 164.008 123.154C163.875 123.349 163.675 123.478 163.342 123.478C163.009 123.478 162.81 123.349 162.676 123.154C162.543 122.895 162.477 122.571 162.477 122.182V121.146C162.477 120.757 162.543 120.433 162.676 120.174C162.81 119.914 163.009 119.85 163.342 119.85C163.675 119.85 163.875 119.979 164.008 120.174C164.141 120.433 164.208 120.757 164.208 121.146Z" fill="#6A7BFB"/>
<path d="M164.208 105.659V106.696C164.208 107.085 164.141 107.409 164.008 107.668C163.875 107.862 163.675 107.992 163.342 107.992C163.009 107.992 162.81 107.862 162.676 107.668C162.543 107.409 162.477 107.085 162.477 106.696V105.659C162.477 105.27 162.543 104.946 162.676 104.687C162.81 104.428 163.009 104.363 163.342 104.363C163.675 104.363 163.875 104.493 164.008 104.687C164.141 104.882 164.208 105.206 164.208 105.659Z" fill="#6A7BFB"/>
<path d="M164.208 97.4947V98.5314C164.208 98.9202 164.141 99.2442 164.008 99.5034C163.875 99.6978 163.675 99.8274 163.342 99.8274C163.009 99.8274 162.81 99.6978 162.676 99.5034C162.543 99.2442 162.477 98.9202 162.477 98.5314V97.4947C162.477 97.1059 162.543 96.7819 162.676 96.5227C162.81 96.2635 163.009 96.1987 163.342 96.1987C163.675 96.1987 163.875 96.3283 164.008 96.5227C164.141 96.7819 164.208 97.1059 164.208 97.4947Z" fill="#6A7BFB"/>
<path d="M173.396 160.024V161.061C173.396 161.45 173.33 161.774 173.197 162.033C173.063 162.292 172.864 162.357 172.531 162.357C172.198 162.357 171.998 162.227 171.865 162.033C171.732 161.838 171.665 161.514 171.665 161.061V160.024C171.665 159.635 171.732 159.311 171.865 159.052C171.998 158.858 172.198 158.728 172.531 158.728C172.864 158.728 173.063 158.858 173.197 159.052C173.33 159.311 173.396 159.635 173.396 160.024Z" fill="#5993FD"/>
<path d="M173.396 144.084V145.121C173.396 145.51 173.33 145.834 173.197 146.093C173.063 146.287 172.864 146.417 172.531 146.417C172.198 146.417 171.998 146.287 171.865 146.093C171.732 145.834 171.665 145.51 171.665 145.121V144.084C171.665 143.695 171.732 143.371 171.865 143.112C171.998 142.853 172.198 142.788 172.531 142.788C172.864 142.788 173.063 142.918 173.197 143.112C173.33 143.371 173.396 143.695 173.396 144.084Z" fill="#5C90FC"/>
<path d="M173.396 113.305V114.342C173.396 114.731 173.33 115.055 173.197 115.314C173.063 115.508 172.864 115.638 172.531 115.638C172.198 115.638 171.998 115.508 171.865 115.314C171.732 115.055 171.665 114.731 171.665 114.342V113.305C171.665 112.916 171.732 112.592 171.865 112.333C171.998 112.074 172.198 112.009 172.531 112.009C172.864 112.009 173.063 112.139 173.197 112.333C173.33 112.592 173.396 112.916 173.396 113.305Z" fill="#6089FC"/>
<path d="M178.256 67.0398V76.5H170.266V67.0398C170.266 58.0329 160.81 50.7757 149.09 50.7757C137.437 50.7757 127.915 58.0977 127.915 67.0398H127.848V93.9306H119.857V67.0398H120.057C120.057 53.8211 133.109 43 149.157 43C165.205 43 178.256 53.7563 178.256 67.0398Z" fill="url(#paint1_linear_81_244)"/>
<path d="M173.396 105.724V106.76C173.396 107.149 173.33 107.473 173.197 107.732C173.063 107.992 172.864 108.056 172.531 108.056C172.198 108.056 171.998 107.927 171.865 107.732C171.732 107.473 171.665 107.214 171.665 106.76V105.724C171.665 105.335 171.732 105.011 171.865 104.752C171.998 104.493 172.198 104.428 172.531 104.428C172.864 104.428 173.063 104.557 173.197 104.752C173.33 105.011 173.396 105.335 173.396 105.724Z" fill="#6089FC"/>
<path d="M182.186 144.084V145.121C182.186 145.51 182.12 145.834 181.987 146.093C181.853 146.352 181.654 146.417 181.321 146.417C180.988 146.417 180.788 146.287 180.655 146.093C180.522 145.834 180.455 145.574 180.455 145.121V144.084C180.455 143.695 180.522 143.371 180.655 143.112C180.788 142.853 180.988 142.788 181.321 142.788C181.654 142.788 181.853 142.918 181.987 143.112C182.12 143.371 182.186 143.695 182.186 144.084Z" fill="#5698FD"/>
<path d="M182.387 151.73V152.766C182.387 153.155 182.32 153.479 182.187 153.738C182.054 153.933 181.854 154.062 181.521 154.062C181.188 154.062 180.988 153.933 180.855 153.738C180.722 153.544 180.655 153.22 180.655 152.766V151.73C180.655 151.341 180.722 151.017 180.855 150.758C180.988 150.563 181.188 150.434 181.521 150.434C181.854 150.434 182.054 150.563 182.187 150.758C182.387 150.952 182.387 151.276 182.387 151.73Z" fill="#5698FD"/>
<path d="M182.387 136.697V137.734C182.387 138.122 182.32 138.446 182.187 138.706C182.054 138.965 181.854 139.03 181.521 139.03C181.188 139.03 180.988 138.9 180.855 138.706C180.722 138.511 180.655 138.187 180.655 137.734V136.697C180.655 136.308 180.722 135.984 180.855 135.725C180.988 135.466 181.188 135.401 181.521 135.401C181.854 135.401 182.054 135.53 182.187 135.725C182.387 135.984 182.387 136.243 182.387 136.697Z" fill="#5698FD"/>
<path d="M182.387 128.986V130.023C182.387 130.411 182.32 130.735 182.187 130.995C182.054 131.254 181.854 131.319 181.521 131.319C181.188 131.319 180.988 131.189 180.855 130.995C180.722 130.8 180.655 130.476 180.655 130.023V128.986C180.655 128.597 180.722 128.273 180.855 128.014C180.988 127.82 181.188 127.69 181.521 127.69C181.854 127.69 182.054 127.82 182.187 128.014C182.387 128.273 182.387 128.597 182.387 128.986Z" fill="#5698FD"/>
<path d="M182.387 113.435V114.471C182.387 114.86 182.32 115.184 182.187 115.443C182.054 115.703 181.854 115.767 181.521 115.767C181.188 115.767 180.988 115.638 180.855 115.443C180.722 115.184 180.655 114.925 180.655 114.471V113.435C180.655 113.046 180.722 112.722 180.855 112.463C180.988 112.203 181.188 112.139 181.521 112.139C181.854 112.139 182.054 112.268 182.187 112.463C182.387 112.722 182.387 112.981 182.387 113.435Z" fill="#5698FD"/>
<path d="M182.387 97.4297V98.4665C182.387 98.8553 182.32 99.1793 182.187 99.4385C182.054 99.6328 181.854 99.7624 181.521 99.7624C181.188 99.7624 180.988 99.6328 180.855 99.4385C180.722 99.2441 180.655 98.9201 180.655 98.4665V97.4297C180.655 97.041 180.722 96.717 180.855 96.4578C180.988 96.2634 181.188 96.1338 181.521 96.1338C181.854 96.1338 182.054 96.2634 182.187 96.4578C182.387 96.6522 182.387 96.9762 182.387 97.4297Z" fill="#5698FD"/>
<path d="M153.286 131.578L156.416 142.463H143.365L146.494 131.578C143.764 130.346 141.833 127.625 141.833 124.45C141.833 120.108 145.429 116.609 149.89 116.609C154.352 116.609 157.948 120.108 157.948 124.45C157.948 127.625 156.083 130.346 153.286 131.578Z" fill="black"/>
<path d="M249.673 239.361C249.632 239.361 249.632 239.402 249.592 239.442V239.483C249.551 239.442 249.51 239.442 249.469 239.402C249.51 239.402 249.51 239.402 249.551 239.402C249.592 239.402 249.632 239.402 249.673 239.361Z" fill="#697FF4"/>
<path d="M272.104 253.446C271.818 253.323 271.532 253.16 271.246 253.038C271.491 252.997 271.736 252.997 271.941 252.956C271.981 253.16 272.022 253.283 272.104 253.446Z" fill="#697FF4"/>
<path d="M161.831 252.671C161.749 252.671 161.667 252.671 161.585 252.671C161.585 252.63 161.544 252.63 161.544 252.589C161.667 252.63 161.749 252.63 161.831 252.671Z" fill="#697FF4"/>
<path d="M203.995 252.792H203.872C203.382 252.792 202.851 252.792 202.36 252.833C202.606 252.792 202.851 252.752 203.096 252.711C203.423 252.588 203.709 252.752 203.995 252.792Z" fill="#697FF4"/>
<path d="M245.587 252.548C245.138 252.507 244.648 252.507 244.198 252.466C244.607 252.466 244.975 252.466 245.383 252.507C245.424 252.507 245.506 252.548 245.587 252.548Z" fill="#697FF4"/>
<path d="M149.776 224.582C149.776 224.705 149.735 224.786 149.735 224.909C149.735 224.95 149.694 224.95 149.654 224.99C149.449 225.072 149.245 224.909 149.082 224.745C147.978 223.439 147.12 221.888 145.854 220.663C143.198 218.132 139.807 216.539 136.293 215.6C133.066 215.111 129.797 215.437 126.528 215.519C122.892 215.845 119.297 216.539 115.742 217.315C111.166 218.622 106.712 220.54 101.932 221.234C96.7841 222.418 91.5543 221.683 86.3246 221.439C86.3654 221.275 86.2429 221.071 86.0795 221.03C85.5483 220.989 84.9763 220.908 84.4043 220.785C84.4452 220.663 84.5677 220.54 84.7312 220.54C88.4083 220.459 92.0855 220.989 95.7627 221.071C101.401 220.867 107.039 219.601 112.228 217.356C114.761 216.294 117.499 215.682 120.195 215.111C122.075 214.621 123.995 214.212 125.956 214.049C130.369 213.682 134.904 213.927 139.153 215.111C141.727 215.56 143.974 216.825 145.936 218.54C147.733 220.01 149.082 222.092 149.776 224.296C149.776 224.419 149.776 224.5 149.776 224.582Z" fill="#697FF4"/>
<path d="M272.472 254.507C272.717 254.262 272.758 253.773 272.308 253.568C272.226 253.528 272.145 253.487 272.063 253.446C271.777 253.323 271.491 253.16 271.205 253.038C269.938 252.466 268.672 251.935 267.446 251.282C264.259 249.2 261.031 247.036 257.885 244.832C255.516 242.913 252.901 241.362 250.327 239.769C250.286 239.688 250.286 239.606 250.204 239.524C250.245 239.402 250.082 239.32 250 239.32C249.959 239.32 249.918 239.32 249.877 239.32C249.837 239.32 249.755 239.32 249.714 239.32C249.673 239.32 249.673 239.361 249.632 239.402V239.443C249.591 239.402 249.551 239.402 249.51 239.361C247.058 237.401 244.525 235.483 241.869 233.809C237.498 231.278 233.289 228.624 229.244 225.562C226.875 223.97 224.505 222.173 221.89 220.949C221.89 220.908 221.89 220.908 221.89 220.867C221.808 220.54 221.441 220.54 221.032 220.581C220.909 220.54 220.828 220.499 220.705 220.459C220.95 220.377 221.155 220.255 221.073 219.928C220.991 219.724 220.787 219.601 220.583 219.683C220.011 219.846 219.398 219.969 218.826 220.132C218.499 220.214 218.131 220.295 217.804 220.336C217.804 220.377 217.723 220.418 217.682 220.418C217.641 220.418 217.6 220.418 217.6 220.377C217.477 220.418 217.314 220.418 217.191 220.459C217.151 220.336 217.028 220.214 216.865 220.214C213.187 220.132 209.51 220.663 205.833 220.744C200.195 220.54 194.556 219.275 189.367 217.029C186.834 215.968 184.097 215.355 181.4 214.784C179.521 214.294 177.601 213.886 175.639 213.722C171.227 213.355 166.692 213.6 162.442 214.784C159.868 215.233 157.621 216.499 155.66 218.213C153.862 219.683 152.514 221.765 151.819 223.97C151.819 224.051 151.779 224.133 151.779 224.215C151.779 224.092 151.738 224.011 151.738 223.888C151.207 223.194 150.921 225.807 150.839 226.174C150.839 226.297 150.798 226.378 150.798 226.501C150.675 225.888 150.43 223.643 149.899 224.296C149.899 224.419 149.858 224.5 149.858 224.623C149.858 224.745 149.899 224.868 149.817 224.95C149.572 227.032 149.817 229.155 149.817 231.237C150.022 232.502 149.858 237.973 149.981 242.79C149.245 241.157 148.306 239.606 146.957 238.422C146.14 237.606 145.078 237.075 144.261 236.299C140.788 232.911 135.763 232.094 131.227 231.033C125.18 229.644 118.929 229.971 112.964 231.359C107.04 232.502 101.238 234.054 95.3954 235.401C90.9419 236.585 86.4067 237.279 81.8307 237.85C76.1107 238.667 70.3906 239.32 64.6297 239.769C61.1977 240.055 57.7657 240.096 54.3745 239.933C53.6391 239.892 52.9036 239.851 52.1682 239.81C52.1273 239.81 52.1273 239.81 52.0865 239.81C52.0456 239.81 52.0048 239.81 51.9639 239.81C51.923 239.769 51.8413 239.769 51.8005 239.81C51.7188 239.851 51.6779 239.892 51.637 239.973C51.5962 239.973 51.5145 239.973 51.4736 240.014C51.3919 240.055 51.351 240.178 51.351 240.259C48.7362 241.851 46.1213 243.403 43.7924 245.322C40.6464 247.526 37.4187 249.69 34.2318 251.772C34.1501 251.813 34.0683 251.854 34.0275 251.895C33.6598 252.18 33.292 252.466 32.8835 252.711C32.7609 252.793 32.6792 252.834 32.5566 252.915C32.3523 253.119 32.148 253.323 31.9438 253.487C31.8212 253.609 31.6986 253.691 31.576 253.813C31.5352 253.813 31.5352 253.854 31.4943 253.854C31.4535 253.895 31.4535 253.895 31.4126 253.936L31.3717 253.977C31.29 254.058 31.2083 254.099 31.1266 254.14L31.0857 254.181C31.0449 254.222 30.9632 254.262 30.9223 254.303C30.8815 254.344 30.8815 254.344 30.8406 254.344C30.7997 254.385 30.718 254.426 30.6772 254.467C30.6363 254.507 30.5955 254.507 30.5955 254.548C30.5546 254.589 30.5137 254.589 30.4729 254.63C30.2686 254.752 30.0643 254.916 29.86 255.038C29.8192 255.079 29.7783 255.079 29.6966 255.12C29.5332 255.242 29.3697 255.324 29.1654 255.446C29.0837 255.487 28.9612 255.569 28.8794 255.61C28.5117 255.814 28.144 255.977 27.7763 256.14C27.5311 256.263 27.286 256.345 27 256.467C29.6557 256.345 32.2706 256.304 34.8855 256.304C35.5392 256.304 36.2338 256.304 36.8875 256.304C37.9907 256.304 39.0529 256.304 40.1561 256.304C44.1601 256.14 48.1233 256.222 52.1273 256.345C66.9586 256.059 81.749 255.324 96.5394 254.589C102.014 254.426 107.407 255.038 112.882 255.12C120.809 255.406 128.776 255.487 136.661 254.752C137.601 254.63 138.173 254.589 138.623 254.507C140.829 255.855 144.629 255.732 146.753 255.814C148.428 255.896 150.103 255.732 151.779 255.773C152.555 255.732 153.454 255.855 154.189 255.446C154.966 255.406 155.742 255.365 156.477 255.324C156.886 255.324 157.254 255.283 157.621 255.283C157.703 255.528 157.866 255.732 158.112 255.855C158.193 255.896 158.316 255.936 158.398 255.936C159.95 255.977 161.462 255.569 162.974 255.528C163.832 255.446 164.73 255.324 165.588 255.201C165.874 255.161 166.079 254.997 166.201 254.752C166.406 254.671 166.528 254.589 166.651 254.467C174.005 254.997 181.4 254.957 188.755 254.671C194.23 254.589 199.623 253.977 205.098 254.14C219.888 254.916 234.678 255.61 249.51 255.896C253.514 255.773 257.477 255.691 261.481 255.855C265.403 255.855 269.285 255.855 273.207 255.977C272.921 255.446 272.676 254.997 272.472 254.507ZM31.0857 254.548H31.1266C31.2083 254.548 31.2492 254.548 31.3309 254.548C31.2492 254.548 31.1675 254.548 31.0857 254.548ZM151.779 230.788C151.779 228.705 152.024 226.583 151.779 224.46C151.819 224.5 151.82 224.5 151.86 224.541C152.065 224.623 152.269 224.46 152.432 224.296C153.536 222.99 154.394 221.438 155.66 220.214C158.316 217.682 161.707 216.09 165.221 215.151C168.448 214.661 171.717 214.988 174.986 215.07C178.622 215.396 182.217 216.09 185.772 216.866C190.348 218.172 194.802 220.091 199.582 220.785C204.73 221.969 209.96 221.234 215.189 220.989C215.189 221.03 215.23 221.112 215.271 221.153C214.822 221.357 215.353 221.806 215.516 221.357C215.843 221.275 216.17 221.275 216.497 221.275C216.497 221.357 216.497 221.438 216.538 221.479C216.783 221.683 217.151 221.479 217.437 221.52C218.458 221.398 219.561 221.438 220.664 221.357C221.522 222.092 222.544 222.704 223.443 223.357C225.812 225.072 228.182 226.827 230.511 228.583C233.861 231.196 237.457 233.237 241.134 235.483C243.177 236.748 245.179 238.136 247.181 239.443C243.749 239.606 240.317 239.565 236.926 239.279C231.165 238.83 225.445 238.177 219.725 237.361C215.149 236.83 210.613 236.136 206.16 234.911C200.276 233.564 194.475 232.012 188.591 230.869C182.585 229.481 176.375 229.114 170.328 230.543C165.752 231.563 160.726 232.38 157.294 235.809C156.477 236.585 155.415 237.116 154.598 237.932C153.25 239.157 152.31 240.667 151.574 242.301C151.738 237.524 151.574 232.053 151.779 230.788ZM151.207 225.194C151.288 225.194 151.329 225.276 151.329 225.317C151.329 225.399 151.247 225.439 151.166 225.439C151.084 225.439 151.043 225.358 151.043 225.317C151.084 225.235 151.166 225.194 151.207 225.194ZM137.029 252.997C136.907 252.997 136.743 252.997 136.621 252.997C136.743 252.997 136.866 252.997 137.029 252.997C137.07 252.956 137.111 252.956 137.152 252.956V252.997C137.111 252.997 137.07 252.997 137.029 252.997ZM137.683 251.282C137.642 251.282 137.642 251.323 137.642 251.323L137.601 251.282C137.601 251.282 137.642 251.282 137.683 251.282ZM131.554 250.139C131.513 250.139 131.432 250.139 131.391 250.139C130.574 250.098 129.797 250.017 129.021 249.976C123.75 249.323 118.439 249.649 113.168 249.568C109.532 249.323 105.937 249.649 102.341 250.017C97.9694 250.18 93.6794 250.67 89.3076 250.996C87.0196 251.119 84.7724 251.16 82.4844 251.241C81.8307 251.323 81.177 251.364 80.4824 251.405C82.4027 251.16 84.2821 250.833 86.1616 250.507C89.0216 249.976 91.8816 249.649 94.6599 248.792C96.7437 248.22 98.8682 247.894 100.952 247.363C102.3 246.955 103.608 246.424 104.956 246.016C108.388 244.873 111.82 243.77 115.293 242.75C117.99 241.77 120.85 241.321 123.75 241.28C125.058 241.321 126.284 241.606 127.591 241.892C129.266 242.26 130.982 242.423 132.576 243.035C135.722 244.219 138.745 246.71 138.868 250.221C136.375 250.18 133.965 250.262 131.554 250.139ZM140.911 251.446C140.87 251.486 140.829 251.568 140.788 251.609L140.747 251.568C140.788 251.527 140.87 251.486 140.911 251.446C140.951 251.323 140.992 251.201 140.992 251.078C140.951 251.119 140.951 251.119 140.87 251.119C140.788 251.119 140.747 251.078 140.747 250.996C140.747 250.915 140.788 250.874 140.87 250.874C140.911 250.874 140.951 250.874 140.951 250.915C140.87 250.629 140.665 250.384 140.42 250.302C140.42 249.772 140.339 249.282 140.257 248.751C139.521 244.668 135.395 242.301 131.636 241.443C129.021 240.994 126.447 240.545 123.791 240.341C116.314 239.851 109.328 242.913 102.341 245.077C100.257 245.934 98.0102 246.179 95.8039 246.751C90.0022 248.384 84.0779 249.241 78.317 250.915C75.9472 251.323 73.4958 252.058 71.0852 251.813C71.0035 251.813 70.9218 251.813 70.8809 251.854C70.7992 251.976 70.9218 252.099 71.0443 252.058C71.3712 252.099 71.6572 252.14 71.984 252.14C71.0852 252.262 70.1863 252.344 69.2875 252.425C65.2834 252.589 61.2794 252.752 57.3162 252.915C56.8668 252.956 56.3765 252.956 55.9271 252.997C55.3551 253.038 54.7831 253.038 54.1702 253.079C51.3102 253.242 48.491 253.16 45.6719 253.201C43.7924 252.997 41.9947 252.874 40.1152 252.834C38.5218 252.793 36.9284 252.752 35.3349 252.711C36.1929 252.262 37.0101 251.731 37.7864 251.201C40.2787 251.323 42.8118 251.69 45.3041 251.568C50.4113 251.731 55.4368 250.833 60.5031 250.425C67.4489 250.18 74.4355 249.853 81.2178 248.302C81.5856 248.22 81.9533 248.139 82.3618 248.057C82.5253 248.016 82.607 247.894 82.607 247.73C82.5661 247.567 82.4027 247.485 82.2801 247.485C67.8983 250.466 53.1488 249.812 38.5627 250.629C38.5627 250.629 38.6035 250.629 38.6035 250.588C39.7067 249.812 40.8098 249.078 41.8721 248.261C43.7516 248.465 45.631 248.547 47.5104 248.588C52.209 248.588 56.8668 248.179 61.5245 247.853C66.6317 247.445 71.7798 247.159 76.8869 246.261C77.2138 246.22 77.1729 245.689 76.8052 245.689C69.8595 246.751 62.832 246.995 55.8045 247.445C51.3102 247.608 46.8159 248.057 42.3215 247.934C42.7301 247.649 43.0978 247.363 43.4655 247.077C44.2418 246.465 44.9773 245.852 45.7127 245.199C48.0416 245.444 50.4522 245.444 52.8219 245.444C56.5808 245.322 60.2988 245.24 64.0168 244.709C64.0986 244.709 64.1803 244.628 64.1394 244.546C64.1394 244.464 64.0577 244.383 63.976 244.383C62.7094 244.505 61.4837 244.587 60.2171 244.668C55.7228 244.791 51.2285 245.322 46.6933 245.077C46.4481 245.077 46.203 245.036 45.9579 245.036C46.775 244.301 47.633 243.607 48.491 242.913C49.635 242.913 50.7382 242.995 51.8822 242.954C53.1488 242.913 54.4153 242.872 55.6819 242.831C55.7636 242.831 55.8454 242.75 55.8454 242.668C55.8454 242.586 55.7636 242.505 55.6819 242.505C53.7616 242.586 51.8413 242.709 49.921 242.668C49.5533 242.668 49.1856 242.627 48.8587 242.627C49.1039 242.464 49.349 242.26 49.5942 242.096C50.0027 241.77 50.4522 241.484 50.9016 241.157C51.1876 240.912 51.4736 240.708 51.7596 240.423C51.8005 240.382 51.8005 240.341 51.8413 240.3C52.2908 240.423 52.781 240.545 53.2713 240.627C56.5808 241.321 59.972 241.647 63.3223 241.525C66.9994 241.443 70.6766 240.872 74.3538 240.627C79.9104 239.933 85.5079 239.279 90.9828 238.095C94.7416 237.156 98.4188 236.054 102.096 234.993C107.326 233.319 112.678 231.645 118.153 231.237C123.056 230.828 127.918 231.89 132.657 233.074C136.212 233.809 139.644 234.952 142.708 236.911C144.669 238.014 146.671 239.157 148.142 240.912C148.796 241.892 149.409 242.954 149.94 244.015C149.94 243.852 149.94 243.689 149.94 243.525C149.94 243.689 149.94 243.893 149.94 244.056C149.94 244.056 149.94 244.015 149.899 244.015C149.899 244.791 149.858 245.607 149.817 246.383C149.695 247.2 149.572 248.016 149.491 248.833C149.286 248.384 149.123 248.016 149.041 247.771C146.549 241.647 140.175 237.565 134.006 235.728C133.965 235.728 133.924 235.728 133.883 235.687C133.761 235.564 133.597 235.809 133.72 235.891C133.801 235.932 133.883 235.972 133.965 235.972C136.661 236.667 139.031 238.259 141.115 240.014C143.28 241.729 145.364 243.607 146.794 246.016C147.243 246.832 147.611 247.69 147.979 248.547C148.061 248.751 148.142 248.996 148.224 249.2C147.325 249.282 146.426 249.445 145.527 249.69C145.282 249.2 144.874 248.547 144.792 248.343C143.076 245.362 140.788 242.668 137.928 240.708C135.068 238.83 131.799 237.524 128.367 237.197C125.548 237.116 122.688 237.075 119.91 237.728C119.706 237.769 119.542 237.85 119.338 237.85C119.256 237.85 119.174 237.81 119.134 237.891C119.093 237.932 119.093 238.055 119.174 238.095C119.665 238.177 120.318 237.85 120.85 237.81C127.795 237.32 135.681 238.504 140.665 243.77C141.687 244.791 142.586 245.893 143.321 247.077C143.893 247.975 144.424 248.914 144.955 249.812C144.71 249.894 144.506 249.976 144.261 250.057C144.179 250.017 144.097 249.976 144.016 249.976C143.28 250.017 142.545 250.384 141.891 250.711C141.564 250.915 141.237 251.16 140.911 251.446ZM146.59 252.548C145.16 252.589 143.689 252.507 142.259 252.425C142.872 252.18 143.485 251.854 144.057 251.486C145.65 251.037 147.243 250.833 148.878 250.751C149.245 250.751 149.613 250.711 149.981 250.711C149.981 250.67 149.981 250.629 150.022 250.588C150.022 250.507 150.022 250.466 150.022 250.384C150.267 250.466 150.512 250.302 150.675 249.976C150.798 250.384 151.002 250.629 151.166 250.751C151.329 250.751 151.452 250.751 151.615 250.792C154.148 250.956 156.722 251.486 159.133 252.303C154.966 252.221 150.757 252.344 146.59 252.548ZM203.913 252.793C203.422 252.793 202.891 252.793 202.401 252.834C202.646 252.793 202.891 252.752 203.136 252.711C203.422 252.629 203.708 252.752 203.994 252.793H203.913V252.793ZM203.831 252.18C203.831 252.14 203.872 252.14 203.872 252.099C204.24 252.14 204.607 252.14 204.975 252.18C204.566 252.18 204.199 252.18 203.831 252.18ZM219.03 250.833C216.742 250.792 214.495 250.711 212.207 250.629C207.876 250.302 203.545 249.812 199.173 249.649C195.578 249.282 191.982 248.914 188.346 249.2C183.075 249.323 177.764 248.955 172.493 249.608C171.717 249.69 170.9 249.731 170.124 249.772C170.083 249.772 170.001 249.772 169.96 249.772C167.55 249.853 165.139 249.772 162.728 249.812C162.851 246.301 165.874 243.811 169.02 242.627C170.614 242.015 172.33 241.851 174.005 241.484C175.272 241.239 176.538 240.953 177.846 240.912C180.706 240.912 183.566 241.402 186.303 242.382C189.776 243.403 193.208 244.505 196.64 245.648C197.988 246.056 199.296 246.546 200.644 246.995C202.728 247.485 204.852 247.853 206.936 248.424C209.714 249.282 212.575 249.608 215.435 250.139C217.314 250.466 219.153 250.792 221.073 251.037C220.297 250.956 219.684 250.915 219.03 250.833ZM257.518 252.793C254.086 252.67 250.735 252.793 247.303 252.629C246.731 252.589 246.159 252.589 245.546 252.548C245.097 252.507 244.607 252.507 244.157 252.466C240.153 252.262 236.19 252.14 232.186 251.976C231.287 251.895 230.388 251.813 229.53 251.69C229.857 251.69 230.143 251.65 230.47 251.609C230.593 251.65 230.715 251.486 230.634 251.405C230.593 251.323 230.511 251.323 230.429 251.364C228.019 251.65 225.567 250.874 223.197 250.466C217.437 248.792 211.512 247.934 205.71 246.301C203.545 245.771 201.257 245.485 199.173 244.628C192.187 242.423 185.2 239.402 177.723 239.892C175.108 240.137 172.493 240.586 169.919 240.994C166.16 241.851 162.075 244.219 161.298 248.302C161.217 248.833 161.135 249.323 161.135 249.853C160.645 250.057 160.359 250.711 160.726 251.16C161.135 251.772 161.38 252.221 161.584 252.589C161.666 252.589 161.789 252.629 161.87 252.67C161.789 252.67 161.707 252.67 161.625 252.67C161.625 252.629 161.584 252.629 161.584 252.589C161.503 252.589 161.462 252.548 161.38 252.548C159.787 251.486 157.989 250.588 156.11 249.935C156.028 249.976 155.946 249.976 155.905 249.935C155.864 249.894 155.824 249.894 155.824 249.853C155.619 249.772 155.415 249.731 155.211 249.69C154.516 249.527 153.781 249.363 153.045 249.282C153.168 248.873 153.331 248.506 153.495 248.098C153.862 247.2 154.189 246.383 154.68 245.567C156.11 243.199 158.234 241.321 160.359 239.606C162.442 237.81 164.812 236.258 167.509 235.564C167.59 235.564 167.672 235.523 167.754 235.483C167.876 235.36 167.713 235.156 167.59 235.278C167.55 235.278 167.509 235.319 167.468 235.319C161.339 237.197 154.966 241.239 152.432 247.363C152.351 247.608 152.146 248.098 151.942 248.588C151.86 247.975 151.779 247.404 151.697 246.832C151.615 245.771 151.615 244.709 151.574 243.648C151.574 243.648 151.574 243.648 151.574 243.689C151.574 243.607 151.574 243.484 151.574 243.403V243.648C152.105 242.545 152.718 241.525 153.372 240.504C154.802 238.749 156.845 237.606 158.806 236.503C161.87 234.544 165.302 233.441 168.857 232.666C173.556 231.482 178.459 230.461 183.361 230.828C188.877 231.237 194.189 232.911 199.418 234.584C203.136 235.646 206.773 236.748 210.532 237.687C216.007 238.871 221.604 239.484 227.161 240.218C230.838 240.463 234.474 241.035 238.192 241.117C241.583 241.239 244.974 240.912 248.284 240.218L249.305 239.933L250.613 240.749C251.021 241.076 251.471 241.362 251.92 241.688C252.165 241.851 252.411 242.056 252.656 242.219C252.288 242.219 251.92 242.26 251.593 242.26C249.673 242.26 247.753 242.137 245.873 242.096C245.792 242.096 245.71 242.178 245.71 242.26C245.71 242.341 245.792 242.423 245.873 242.423C247.14 242.464 248.407 242.505 249.673 242.545C250.817 242.586 251.92 242.505 253.064 242.505C253.922 243.199 254.78 243.893 255.597 244.628C255.352 244.668 255.107 244.668 254.862 244.668C250.368 244.954 245.873 244.383 241.379 244.26C240.112 244.178 238.887 244.056 237.62 243.974C237.538 243.974 237.457 244.056 237.457 244.138C237.457 244.219 237.498 244.301 237.579 244.301C241.297 244.832 245.056 244.954 248.774 245.036C251.144 245.036 253.555 245.077 255.883 244.791C256.619 245.444 257.354 246.056 258.131 246.669C258.498 246.955 258.907 247.24 259.275 247.526C254.78 247.649 250.286 247.159 245.792 247.036C238.764 246.587 231.778 246.342 224.791 245.281C224.423 245.24 224.382 245.771 224.709 245.852C229.776 246.751 234.924 247.036 240.072 247.445C244.729 247.771 249.387 248.179 254.086 248.179C255.965 248.139 257.845 248.057 259.683 247.853C260.786 248.629 261.889 249.404 262.993 250.18C248.407 249.363 233.657 250.017 219.275 247.036C219.112 246.995 218.948 247.118 218.948 247.281C218.907 247.445 219.03 247.608 219.193 247.608C219.561 247.69 219.929 247.771 220.337 247.853C227.12 249.363 234.106 249.731 241.052 249.976C246.118 250.384 251.144 251.282 256.251 251.119C258.784 251.241 261.277 250.874 263.769 250.751C265.158 251.731 266.67 252.589 268.263 253.283C264.627 253.16 261.072 252.956 257.518 252.793ZM270.102 254.14C270.184 254.14 270.265 254.14 270.347 254.14C270.388 254.14 270.388 254.14 270.429 254.181C270.347 254.14 270.224 254.14 270.102 254.14Z" fill="#697FF4"/>
<path d="M159.133 252.303C154.965 252.221 150.757 252.344 146.59 252.548C145.16 252.589 143.689 252.507 142.259 252.425C142.872 252.18 143.485 251.854 144.057 251.486C145.65 251.037 147.243 250.833 148.878 250.751C149 251.037 149.286 251.201 149.572 251.119C149.777 251.078 149.899 250.915 149.981 250.751C150.389 250.751 150.798 250.751 151.166 250.792C151.288 250.874 151.37 250.874 151.493 250.833C151.533 250.833 151.574 250.833 151.574 250.792C154.148 250.956 156.681 251.486 159.133 252.303Z" fill="black"/>
<path d="M220.95 250.997C220.297 250.956 219.684 250.915 219.03 250.833C216.742 250.792 214.495 250.711 212.207 250.629C207.876 250.303 203.545 249.813 199.173 249.649C195.578 249.282 191.982 248.914 188.346 249.2C183.076 249.323 177.764 248.955 172.493 249.609C171.717 249.69 170.9 249.731 170.124 249.772C170.083 249.772 170.001 249.772 169.96 249.772C167.55 249.853 165.139 249.772 162.729 249.813C162.851 246.302 165.875 243.811 169.021 242.627C170.614 242.015 172.33 241.852 174.005 241.484C175.272 241.239 176.538 240.953 177.846 240.913C180.706 240.913 183.566 241.403 186.303 242.382C189.776 243.403 193.208 244.505 196.64 245.648C197.988 246.057 199.296 246.547 200.644 246.996C202.728 247.486 204.853 247.853 206.936 248.425C209.715 249.282 212.575 249.609 215.435 250.139C217.191 250.425 219.071 250.711 220.95 250.997Z" fill="black"/>
<path d="M263.728 250.751C261.235 250.874 258.702 251.241 256.21 251.119C251.103 251.282 246.077 250.384 241.011 249.976C234.065 249.731 227.079 249.404 220.296 247.853C219.929 247.771 219.52 247.689 219.152 247.608C218.989 247.567 218.907 247.444 218.907 247.281C218.948 247.118 219.071 247.036 219.234 247.036C233.616 250.016 248.365 249.363 262.951 250.18C261.848 249.404 260.704 248.669 259.642 247.853C257.763 248.016 255.924 248.139 254.044 248.179C249.346 248.179 244.688 247.771 240.03 247.444C234.923 246.995 229.734 246.75 224.668 245.852C224.341 245.811 224.382 245.281 224.75 245.281C231.695 246.342 238.723 246.587 245.75 247.036C250.245 247.2 254.739 247.649 259.233 247.526C258.866 247.24 258.457 246.955 258.089 246.669C257.313 246.056 256.578 245.444 255.842 244.791C253.513 245.036 251.103 245.036 248.733 245.036C244.974 244.913 241.256 244.832 237.538 244.301C237.456 244.301 237.416 244.219 237.416 244.138C237.416 244.056 237.497 243.974 237.579 243.974C238.846 244.097 240.071 244.178 241.338 244.26C245.832 244.383 250.326 244.913 254.821 244.668C255.066 244.668 255.311 244.627 255.556 244.627C254.739 243.893 253.881 243.199 253.023 242.505C251.879 242.505 250.776 242.586 249.632 242.545C248.365 242.505 247.099 242.464 245.832 242.423C245.75 242.423 245.669 242.341 245.669 242.26C245.669 242.178 245.75 242.096 245.832 242.096C247.752 242.178 249.673 242.26 251.552 242.26C251.92 242.26 252.288 242.219 252.614 242.219C252.369 242.055 252.124 241.851 251.879 241.688C251.47 241.361 251.021 241.076 250.572 240.749L249.264 239.932L248.243 240.218C244.933 240.912 241.542 241.239 238.151 241.116C234.474 241.035 230.797 240.463 227.119 240.218C221.563 239.524 215.965 238.871 210.49 237.687C206.732 236.748 203.054 235.646 199.377 234.584C194.148 232.91 188.795 231.237 183.32 230.828C178.417 230.42 173.555 231.482 168.816 232.665C165.261 233.441 161.829 234.543 158.765 236.503C156.804 237.605 154.802 238.749 153.331 240.504C152.677 241.525 152.064 242.545 151.533 243.648C151.533 244.709 151.533 245.771 151.656 246.832C151.737 247.444 151.819 248.016 151.901 248.588C152.105 248.098 152.35 247.608 152.391 247.363C154.924 241.239 161.257 237.156 167.427 235.319C167.468 235.319 167.508 235.319 167.549 235.278C167.672 235.156 167.835 235.401 167.713 235.482C167.631 235.523 167.549 235.564 167.468 235.564C164.771 236.258 162.401 237.81 160.318 239.606C158.193 241.321 156.068 243.199 154.638 245.566C154.148 246.383 153.821 247.24 153.454 248.098C153.29 248.506 153.168 248.873 153.004 249.282C153.74 249.404 154.475 249.527 155.17 249.69C155.374 249.731 155.578 249.812 155.782 249.853C155.619 249.445 156.518 248.22 156.64 247.853C158.356 244.872 160.604 242.178 163.464 240.218C166.324 238.34 169.592 237.034 173.024 236.707C175.843 236.626 178.703 236.585 181.482 237.238C181.686 237.279 181.849 237.36 182.054 237.36C182.135 237.36 182.217 237.32 182.258 237.401C182.299 237.442 182.299 237.565 182.217 237.605C181.727 237.687 181.073 237.36 180.542 237.32C173.596 236.83 165.711 238.014 160.726 243.28C159.705 244.301 158.806 245.403 158.07 246.587C157.417 247.608 156.804 248.71 156.191 249.772C156.15 249.812 156.109 249.853 156.068 249.894C157.907 250.506 159.705 251.405 161.339 252.507C161.421 252.507 161.462 252.548 161.543 252.548C161.339 252.18 161.094 251.731 160.685 251.119C160.277 250.629 160.563 249.976 161.094 249.812C161.094 249.282 161.176 248.792 161.257 248.261C161.993 244.178 166.119 241.81 169.878 240.953C172.493 240.504 175.067 240.055 177.682 239.851C185.159 239.361 192.146 242.423 199.132 244.587C201.216 245.444 203.463 245.689 205.669 246.261C211.471 247.894 217.395 248.751 223.156 250.425C225.526 250.833 227.977 251.568 230.388 251.323C230.47 251.323 230.551 251.323 230.592 251.364C230.674 251.486 230.551 251.609 230.429 251.568C230.143 251.609 229.816 251.65 229.489 251.65C230.388 251.772 231.246 251.854 232.145 251.935C236.149 252.099 240.112 252.262 244.116 252.425C244.525 252.425 244.892 252.425 245.301 252.466C245.383 252.466 245.464 252.507 245.505 252.507C246.077 252.548 246.649 252.548 247.262 252.589C250.694 252.752 254.045 252.629 257.477 252.752C261.031 252.915 264.586 253.119 268.181 253.201C266.629 252.589 265.117 251.731 263.728 250.751ZM225.199 241.77C227.691 241.974 230.143 242.423 232.635 242.545C232.758 242.545 232.88 242.545 233.003 242.586C233.166 242.627 233.085 242.872 232.921 242.831C231.205 242.79 229.448 242.627 227.732 242.464C226.833 242.382 225.975 242.3 225.117 242.178C224.995 242.178 224.954 242.055 224.954 241.974C224.995 241.81 225.077 241.77 225.199 241.77ZM160.644 251.282C160.726 251.282 160.767 251.364 160.767 251.405C160.767 251.486 160.685 251.527 160.644 251.527C160.563 251.527 160.522 251.445 160.522 251.405C160.522 251.323 160.563 251.282 160.644 251.282ZM191.165 236.095C196.885 237.442 202.523 238.993 208.121 240.708C211.92 241.974 215.72 243.444 219.683 244.097C219.847 243.974 220.051 244.178 220.255 244.178C220.378 244.219 220.337 244.464 220.215 244.423C220.092 244.423 220.01 244.383 219.888 244.383C210.368 243.199 201.665 238.789 192.35 236.666C191.9 236.544 191.492 236.421 191.083 236.299C191.001 236.258 190.961 236.177 191.001 236.136C191.042 236.136 191.124 236.095 191.165 236.095ZM185.976 233.482C183.729 233.237 181.523 232.747 179.275 232.788C177.151 232.87 175.067 233.319 172.942 233.4C172.738 233.441 172.697 233.115 172.902 233.115C175.108 232.992 177.314 232.502 179.521 232.543C181.604 232.584 183.688 232.992 185.772 233.237C185.853 233.237 185.935 233.237 186.017 233.278C186.221 233.278 186.139 233.564 185.976 233.482ZM216.129 246.914C206.405 244.138 196.803 240.912 187.161 237.932C186.997 237.891 187.038 237.646 187.202 237.687C190.429 238.504 193.535 239.769 196.722 240.667C200.93 241.933 205.179 242.872 209.306 244.342C211.594 245.199 213.882 245.975 216.211 246.669C216.374 246.71 216.333 246.955 216.129 246.914Z" fill="#DEDEDE"/>
<path d="M247.263 239.524C243.831 239.688 240.399 239.647 237.007 239.361C231.247 238.912 225.527 238.259 219.806 237.442C215.23 236.912 210.695 236.218 206.242 234.993C200.358 233.646 194.557 232.094 188.673 230.951C182.667 229.563 176.457 229.195 170.41 230.624C165.834 231.645 160.808 232.462 157.376 235.891C156.559 236.667 155.497 237.197 154.68 238.014C153.331 239.239 152.392 240.749 151.656 242.382C151.779 237.524 151.615 232.053 151.82 230.829C151.82 228.746 152.065 226.623 151.82 224.501C151.861 224.541 151.861 224.541 151.901 224.582C152.106 224.664 152.31 224.501 152.473 224.337C153.577 223.031 154.435 221.479 155.701 220.255C158.357 217.723 161.748 216.131 165.262 215.192C168.49 214.702 171.758 215.029 175.027 215.111C178.663 215.437 182.258 216.131 185.813 216.907C190.389 218.213 194.843 220.132 199.623 220.826C204.771 222.01 210.001 221.275 215.23 221.03C215.23 221.071 215.271 221.153 215.312 221.194C214.863 221.398 215.394 221.847 215.557 221.398C215.884 221.316 216.211 221.316 216.538 221.316C216.538 221.398 216.538 221.479 216.579 221.52C216.824 221.724 217.192 221.52 217.478 221.561C218.499 221.439 219.602 221.479 220.705 221.398C221.563 222.133 222.585 222.745 223.484 223.398C225.853 225.113 228.223 226.868 230.552 228.624C233.902 231.237 237.498 233.278 241.175 235.524C243.259 236.789 245.261 238.218 247.263 239.524Z" fill="#DEDEDE"/>
<path d="M138.786 250.221C136.375 250.18 133.965 250.262 131.554 250.18C131.513 250.18 131.432 250.18 131.391 250.18C130.574 250.139 129.797 250.058 129.021 250.017C123.75 249.364 118.439 249.69 113.168 249.608C109.532 249.364 105.937 249.69 102.341 250.058C97.9694 250.221 93.6794 250.711 89.3076 251.037C87.0196 251.16 84.7725 251.201 82.4844 251.282C81.8307 251.364 81.177 251.405 80.4824 251.446C82.4027 251.201 84.2822 250.874 86.1616 250.547C89.0216 250.017 91.8817 249.69 94.66 248.833C96.7437 248.261 98.8683 247.935 100.952 247.404C102.3 246.996 103.608 246.465 104.956 246.057C108.388 244.913 111.82 243.811 115.293 242.791C117.99 241.811 120.85 241.362 123.75 241.321C125.058 241.362 126.284 241.647 127.591 241.933C129.266 242.301 130.982 242.464 132.576 243.076C135.64 244.179 138.663 246.669 138.786 250.221Z" fill="black"/>
<path d="M148.142 240.871C146.712 239.116 144.669 237.932 142.708 236.87C139.644 234.911 136.212 233.809 132.657 233.033C127.959 231.849 123.056 230.828 118.153 231.196C112.637 231.604 107.326 233.278 102.096 234.952C98.378 236.013 94.7417 237.115 90.9828 238.054C85.5079 239.238 79.9104 239.851 74.3538 240.586C70.6767 240.831 67.0403 241.402 63.3223 241.484C59.972 241.606 56.54 241.28 53.2714 240.586C52.7811 240.504 52.3317 240.382 51.8414 240.259C51.8005 240.3 51.8005 240.341 51.7597 240.382C51.5145 240.626 51.1877 240.871 50.9017 241.116C50.4931 241.443 50.0436 241.729 49.5942 242.055C49.3491 242.219 49.1039 242.423 48.8588 242.586C49.2265 242.586 49.5942 242.627 49.9211 242.627C51.8414 242.627 53.7617 242.504 55.682 242.464C55.7637 242.464 55.8454 242.545 55.8454 242.627C55.8454 242.709 55.7637 242.79 55.682 242.79C54.4154 242.831 53.1488 242.872 51.8822 242.913C50.7382 242.954 49.6351 242.872 48.4911 242.872C47.6331 243.525 46.775 244.26 45.9579 244.995C46.203 245.036 46.4482 245.036 46.6933 245.036C51.1877 245.321 55.682 244.75 60.2171 244.627C61.4837 244.546 62.7095 244.423 63.976 244.342C64.0578 244.342 64.1395 244.423 64.1395 244.505C64.1395 244.587 64.0986 244.668 64.0169 244.668C60.2989 245.199 56.54 245.321 52.822 245.403C50.4522 245.403 48.0416 245.444 45.7128 245.158C44.9773 245.811 44.2419 246.424 43.4656 247.036C43.0979 247.322 42.6893 247.649 42.3216 247.893C46.8159 248.016 51.3102 247.567 55.8045 247.404C62.832 246.954 69.8186 246.71 76.8053 245.648C77.1321 245.607 77.2138 246.138 76.887 246.22C71.8207 247.118 66.6726 247.404 61.5246 247.812C56.8668 248.138 52.1682 248.547 47.5105 248.547C45.631 248.506 43.7516 248.424 41.8722 248.22C40.8099 249.037 39.7067 249.771 38.6036 250.547C38.6036 250.547 38.5627 250.547 38.5627 250.588C53.1488 249.771 67.8983 250.425 82.2802 247.444C82.4436 247.404 82.607 247.526 82.607 247.689C82.6479 247.853 82.5253 247.975 82.3619 248.016C81.9942 248.098 81.5856 248.179 81.2179 248.261C74.3947 249.771 67.4489 250.139 60.5032 250.384C55.4368 250.792 50.4114 251.69 45.3042 251.527C42.8119 251.649 40.2787 251.282 37.7864 251.16C37.0101 251.731 36.193 252.221 35.335 252.67C36.9284 252.711 38.5218 252.752 40.1153 252.793C41.9947 252.874 43.7925 252.956 45.6719 253.16C48.4911 253.119 51.3102 253.201 54.1702 253.038C54.7423 252.997 55.3143 252.997 55.9271 252.956C55.968 252.915 56.0497 252.915 56.1314 252.915C56.54 252.915 56.9486 252.874 57.3163 252.874C61.3203 252.67 65.2835 252.548 69.2875 252.384C70.1864 252.303 71.0852 252.221 71.9841 252.099C71.6572 252.099 71.3712 252.058 71.0444 252.017C70.9218 252.058 70.7992 251.894 70.8809 251.813C70.9627 251.731 71.0035 251.731 71.0852 251.772C73.4958 252.058 75.9473 251.282 78.317 250.874C84.0779 249.2 90.0022 248.383 95.804 246.71C97.9694 246.179 100.257 245.893 102.341 245.036C109.328 242.831 116.314 239.81 123.791 240.3C126.406 240.545 129.021 240.994 131.636 241.402C135.395 242.26 139.481 244.627 140.257 248.71C140.339 249.2 140.42 249.731 140.42 250.261C140.706 250.343 140.911 250.588 140.951 250.874C140.992 250.915 140.992 250.915 140.992 250.955C140.992 250.996 140.992 250.996 140.951 251.037C140.951 251.16 140.951 251.282 140.87 251.405C141.197 251.119 141.523 250.874 141.891 250.67C142.545 250.343 143.28 249.976 144.016 249.935C144.097 249.935 144.179 249.976 144.261 250.016C144.506 249.935 144.71 249.853 144.955 249.771C144.424 248.832 143.893 247.934 143.321 247.036C142.586 245.811 141.687 244.75 140.665 243.729C135.681 238.463 127.795 237.279 120.85 237.769C120.318 237.769 119.665 238.136 119.174 238.054C119.134 238.014 119.093 237.932 119.134 237.85C119.174 237.769 119.256 237.809 119.338 237.809C119.501 237.769 119.706 237.687 119.91 237.687C122.688 237.075 125.548 237.075 128.367 237.156C131.759 237.483 135.068 238.789 137.928 240.667C140.788 242.627 143.076 245.321 144.792 248.302C144.874 248.547 145.323 249.159 145.528 249.649C146.426 249.404 147.325 249.241 148.224 249.159C148.142 248.955 148.061 248.71 147.979 248.506C147.611 247.649 147.284 246.791 146.794 245.975C145.364 243.607 143.239 241.729 141.115 239.973C139.031 238.177 136.661 236.626 133.965 235.932C133.883 235.932 133.761 235.891 133.72 235.85C133.597 235.727 133.761 235.523 133.883 235.646C133.924 235.646 133.965 235.687 134.006 235.687C140.134 237.565 146.508 241.606 149.041 247.73C149.123 247.975 149.286 248.343 149.491 248.792C149.572 247.975 149.654 247.159 149.818 246.342C149.899 245.566 149.899 244.791 149.899 243.974C149.368 242.913 148.796 241.851 148.142 240.871ZM76.3967 242.545C75.4978 242.668 74.6398 242.749 73.7818 242.831C72.0658 242.994 70.3089 243.158 68.5929 243.199C68.4295 243.239 68.3478 242.994 68.5112 242.954C68.6338 242.913 68.7564 242.913 68.8789 242.913C71.3712 242.79 73.8227 242.341 76.315 242.137C76.4376 242.137 76.5193 242.178 76.5193 242.3C76.5601 242.423 76.4784 242.545 76.3967 242.545ZM81.5856 244.832C81.463 244.832 81.3813 244.872 81.2587 244.872C81.0953 244.872 81.0544 244.668 81.2179 244.627C81.3813 244.587 81.6264 244.423 81.7899 244.546C85.7531 243.893 89.5528 242.382 93.3525 241.157C98.95 239.402 104.588 237.891 110.308 236.503C110.39 236.503 110.472 236.503 110.472 236.585C110.513 236.666 110.472 236.748 110.39 236.748C109.982 236.87 109.532 236.993 109.124 237.115C99.8489 239.238 91.1054 243.688 81.5856 244.832ZM114.353 238.34C104.711 241.321 95.1094 244.546 85.3853 247.322C85.2219 247.363 85.1402 247.118 85.3036 247.077C87.6325 246.383 89.9205 245.607 92.2085 244.75C96.3351 243.28 100.584 242.341 104.793 241.076C107.98 240.177 111.085 238.912 114.312 238.095C114.476 238.054 114.517 238.299 114.353 238.34ZM128.572 233.809C126.447 233.727 124.363 233.278 122.239 233.196C119.992 233.196 117.785 233.645 115.538 233.931C115.375 233.972 115.293 233.727 115.456 233.686C115.538 233.645 115.62 233.645 115.702 233.645C117.785 233.4 119.869 232.992 121.953 232.951C124.2 232.91 126.365 233.4 128.572 233.523C128.817 233.523 128.776 233.849 128.572 233.809Z" fill="#DEDEDE"/>
<path d="M217.723 220.255C217.723 220.296 217.723 220.296 217.723 220.337C217.723 220.377 217.641 220.418 217.6 220.418C217.559 220.418 217.518 220.418 217.518 220.377C217.478 220.337 217.478 220.337 217.478 220.296C217.478 220.214 217.518 220.173 217.6 220.173C217.682 220.132 217.723 220.173 217.723 220.255Z" fill="#697FF4"/>
<path d="M217.723 220.336C217.723 220.377 217.641 220.418 217.601 220.418C217.56 220.418 217.519 220.418 217.519 220.377C217.601 220.336 217.642 220.336 217.723 220.336Z" fill="#697FF4"/>
<path d="M150.675 249.976C150.512 250.303 150.266 250.466 150.021 250.384C150.021 250.466 150.021 250.548 150.021 250.588C150.021 250.629 150.021 250.67 149.98 250.711C150.389 250.711 150.798 250.711 151.165 250.752C150.961 250.67 150.798 250.384 150.675 249.976ZM161.584 252.589C161.584 252.63 161.625 252.63 161.625 252.67C161.707 252.67 161.788 252.67 161.87 252.67C161.747 252.63 161.666 252.63 161.584 252.589ZM155.823 249.854C155.823 249.894 155.864 249.935 155.905 249.935C155.987 249.976 156.068 249.976 156.109 249.935C156.027 249.894 155.905 249.894 155.823 249.854ZM150.675 249.976C150.512 250.303 150.266 250.466 150.021 250.384C150.021 250.466 150.021 250.548 150.021 250.588C150.021 250.629 150.021 250.67 149.98 250.711C150.389 250.711 150.798 250.711 151.165 250.752C150.961 250.67 150.798 250.384 150.675 249.976ZM150.675 249.976C150.512 250.303 150.266 250.466 150.021 250.384C150.021 250.466 150.021 250.548 150.021 250.588C150.021 250.629 150.021 250.67 149.98 250.711C150.389 250.711 150.798 250.711 151.165 250.752C150.961 250.67 150.798 250.384 150.675 249.976Z" fill="#697FF4"/>
<path d="M140.992 250.996C140.992 251.037 140.992 251.037 140.952 251.078C140.911 251.119 140.911 251.119 140.829 251.119C140.747 251.119 140.706 251.078 140.706 250.996C140.706 250.915 140.747 250.874 140.829 250.874C140.87 250.874 140.911 250.874 140.911 250.915C140.992 250.915 140.992 250.956 140.992 250.996Z" fill="#697FF4"/>
<path d="M140.911 251.445C140.87 251.486 140.829 251.568 140.788 251.609L140.747 251.568C140.788 251.527 140.87 251.486 140.911 251.445Z" fill="#697FF4"/>
<path d="M151.37 225.317C151.37 225.398 151.289 225.439 151.207 225.439C151.125 225.439 151.084 225.358 151.084 225.317C151.084 225.235 151.166 225.194 151.207 225.194C151.289 225.194 151.37 225.235 151.37 225.317Z" fill="#697FF4"/>
<path d="M149.94 244.015C149.94 244.015 149.94 243.974 149.899 243.974C149.899 243.811 149.899 243.648 149.899 243.484C149.94 243.648 149.94 243.852 149.94 244.015Z" fill="#697FF4"/>
<path d="M151.37 225.317C151.37 225.398 151.289 225.439 151.207 225.439C151.125 225.439 151.084 225.358 151.084 225.317C151.084 225.235 151.166 225.194 151.207 225.194C151.289 225.194 151.37 225.235 151.37 225.317Z" fill="#697FF4"/>
<path d="M220.214 244.464C220.092 244.464 220.01 244.424 219.888 244.424C210.368 243.24 201.665 238.83 192.35 236.708C191.9 236.585 191.492 236.463 191.083 236.34C191.001 236.299 190.961 236.218 191.001 236.177C191.042 236.095 191.083 236.054 191.165 236.095C196.885 237.442 202.523 238.994 208.121 240.708C211.92 241.974 215.72 243.444 219.683 244.097C219.847 243.975 220.051 244.179 220.255 244.179C220.419 244.26 220.378 244.464 220.214 244.464Z" fill="#697FF4"/>
<path d="M216.13 246.914C206.406 244.138 196.804 240.912 187.162 237.932C186.998 237.891 187.039 237.646 187.203 237.687C190.43 238.504 193.535 239.769 196.722 240.667C200.931 241.933 205.18 242.872 209.306 244.342C211.594 245.199 213.882 245.975 216.211 246.669C216.375 246.71 216.334 246.955 216.13 246.914Z" fill="#697FF4"/>
<path d="M182.258 237.606C181.768 237.688 181.114 237.361 180.583 237.32C173.637 236.83 165.752 238.014 160.767 243.281C159.746 244.301 158.847 245.404 158.112 246.588C157.458 247.608 156.845 248.711 156.232 249.772C156.191 249.813 156.15 249.854 156.11 249.894C156.028 249.935 155.946 249.935 155.905 249.894C155.864 249.854 155.824 249.854 155.824 249.813C155.66 249.405 156.559 248.18 156.682 247.812C158.398 244.832 160.645 242.138 163.505 240.178C166.365 238.3 169.633 236.994 173.065 236.667C175.884 236.585 178.744 236.544 181.523 237.198C181.727 237.238 181.891 237.32 182.095 237.32C182.177 237.32 182.258 237.279 182.299 237.361C182.34 237.483 182.34 237.565 182.258 237.606Z" fill="#697FF4"/>
<path d="M185.976 233.482C183.729 233.237 181.523 232.747 179.276 232.788C177.151 232.87 175.067 233.319 172.943 233.4C172.738 233.441 172.698 233.114 172.902 233.114C175.108 232.992 177.314 232.502 179.521 232.543C181.604 232.584 183.688 232.992 185.772 233.237C185.854 233.237 185.935 233.237 186.017 233.278C186.221 233.278 186.14 233.564 185.976 233.482Z" fill="#697FF4"/>
<path d="M232.921 242.831C231.205 242.79 229.448 242.627 227.732 242.464C226.834 242.382 225.976 242.3 225.118 242.178C224.995 242.178 224.954 242.056 224.954 241.974C224.954 241.851 225.077 241.811 225.158 241.811C227.651 242.015 230.102 242.464 232.594 242.586C232.717 242.586 232.84 242.586 232.962 242.627C233.166 242.627 233.085 242.872 232.921 242.831Z" fill="#697FF4"/>
<path d="M51.637 239.77C51.5553 239.81 51.5145 239.851 51.4736 239.933C51.4327 239.933 51.351 239.933 51.3102 239.974C51.2693 239.851 51.4327 239.77 51.5145 239.77C51.5962 239.77 51.5962 239.77 51.637 239.77Z" fill="#697FF4"/>
<path d="M149.94 244.016C149.94 244.016 149.94 243.975 149.899 243.975C149.899 243.811 149.899 243.648 149.899 243.485C149.94 243.648 149.94 243.852 149.94 244.016Z" fill="#697FF4"/>
<path d="M137.151 252.997C137.11 252.997 137.07 252.997 137.029 252.997C136.906 252.997 136.743 252.997 136.62 252.997C136.743 252.997 136.906 252.956 137.029 252.956C137.07 252.956 137.11 252.956 137.151 252.997C137.151 252.956 137.151 252.956 137.151 252.997Z" fill="#697FF4"/>
<path d="M137.724 251.282C137.683 251.282 137.683 251.282 137.724 251.282C137.683 251.323 137.642 251.323 137.642 251.323L137.601 251.282C137.601 251.282 137.642 251.282 137.724 251.282Z" fill="#697FF4"/>
<path d="M137.151 252.997C137.11 252.997 137.07 252.997 137.029 252.997C136.906 252.997 136.743 252.997 136.62 252.997C136.743 252.997 136.906 252.956 137.029 252.956C137.07 252.956 137.11 252.956 137.151 252.997C137.151 252.956 137.151 252.956 137.151 252.997Z" fill="#697FF4"/>
<path d="M137.724 251.282C137.683 251.282 137.683 251.282 137.724 251.282C137.683 251.323 137.642 251.323 137.642 251.323L137.601 251.282C137.601 251.282 137.642 251.282 137.724 251.282Z" fill="#697FF4"/>
<path d="M140.911 251.446C140.87 251.487 140.829 251.568 140.788 251.609L140.747 251.568C140.788 251.527 140.87 251.487 140.911 251.446Z" fill="#697FF4"/>
<path d="M140.993 251.078C140.952 251.119 140.952 251.16 140.87 251.16C140.788 251.16 140.747 251.119 140.747 251.038C140.747 250.956 140.788 250.915 140.87 250.915C140.911 250.915 140.952 250.915 140.952 250.956C140.993 250.956 140.993 250.997 140.993 251.078Z" fill="#697FF4"/>
<path d="M57.3569 252.916C56.9075 252.956 56.4172 252.956 55.9678 252.997C56.0086 252.956 56.0903 252.956 56.1721 252.956C56.5398 252.916 56.9483 252.916 57.3569 252.916Z" fill="#697FF4"/>
<path d="M137.683 251.282C137.643 251.323 137.643 251.323 137.602 251.323L137.561 251.282C137.602 251.282 137.643 251.282 137.683 251.282Z" fill="#697FF4"/>
<path d="M136.62 252.997C136.743 252.997 136.906 252.997 137.029 252.997V252.956C136.865 252.997 136.743 252.997 136.62 252.997ZM137.682 251.282C137.642 251.282 137.601 251.282 137.56 251.282L137.601 251.323C137.642 251.323 137.642 251.282 137.682 251.282Z" fill="#697FF4"/>
<path d="M30.6773 254.304C30.6364 254.345 30.5546 254.385 30.5137 254.426C30.5546 254.385 30.5955 254.385 30.5955 254.345C30.6364 254.345 30.6773 254.345 30.6773 254.304Z" fill="#697FF4"/>
<path d="M36.8056 256.222C36.683 256.304 36.5604 256.345 36.397 256.345C35.8658 256.304 35.3347 256.263 34.7627 256.222C35.4573 256.222 36.1519 256.222 36.8056 256.222Z" fill="#697FF4"/>
<path d="M30.9222 254.14C30.8814 254.181 30.7997 254.222 30.7588 254.263C30.718 254.303 30.718 254.303 30.6771 254.303C30.6362 254.344 30.5545 254.385 30.5137 254.426C30.5545 254.385 30.5954 254.385 30.5954 254.344C30.718 254.263 30.8405 254.222 30.9222 254.14Z" fill="#697FF4"/>
<path d="M31.7395 253.446C31.6169 253.569 31.4943 253.65 31.3718 253.773C31.3309 253.773 31.3309 253.814 31.29 253.814C31.4535 253.691 31.6169 253.569 31.7395 253.446Z" fill="#697FF4"/>
<path d="M86.325 221.479C85.7939 221.439 85.2627 221.439 84.7316 221.398C84.4456 221.357 84.323 221.071 84.4047 220.826C84.9359 220.908 85.5079 220.989 86.0799 221.071C86.2842 221.112 86.3659 221.316 86.325 221.479Z" fill="#697FF4"/>
<path d="M149.735 224.909C149.735 224.786 149.776 224.705 149.776 224.582C149.817 224.705 149.817 224.827 149.735 224.909Z" fill="#697FF4"/>
<path d="M84.0375 220.704C84.0375 220.622 83.9966 220.582 83.9147 220.582C83.8329 220.582 83.792 220.622 83.792 220.704C83.792 220.786 83.8329 220.827 83.9147 220.827C83.9966 220.827 84.0375 220.745 84.0375 220.704Z" fill="#697FF4"/>
<path d="M85.9571 221.847C85.6302 221.765 85.3034 221.765 84.9765 221.765C84.9765 221.847 84.9765 221.888 84.9356 221.969C84.6905 222.173 84.3228 221.969 83.9959 222.01C82.9745 221.888 81.8713 221.928 80.7682 221.847C80.4413 221.806 80.1553 221.806 79.8693 221.724C79.7468 221.683 79.665 221.561 79.665 221.438C79.665 221.398 79.665 221.398 79.665 221.357C79.7468 221.03 80.1145 220.989 80.523 221.071C80.8499 221.112 81.1359 221.193 81.3402 221.153C81.3402 221.112 81.3402 221.071 81.3402 221.03C81.1768 220.989 81.0133 220.989 80.809 220.908C80.5639 220.826 80.3596 220.704 80.4413 220.377C80.4822 220.173 80.7273 220.05 80.9316 220.132C81.5036 220.295 82.1165 220.418 82.6885 220.581C83.0153 220.663 83.3831 220.744 83.7099 220.785C83.7916 220.785 83.8325 220.826 83.9142 220.826C84.0368 220.867 84.2002 220.867 84.3228 220.908C84.8539 220.989 85.4259 221.071 85.9979 221.153C86.2022 221.193 86.3248 221.398 86.2431 221.561C86.2431 221.602 86.2022 221.683 86.1614 221.724C86.6925 221.847 86.1614 222.296 85.9571 221.847Z" fill="#697FF4"/>
<path d="M149.899 242.791C149.164 241.158 148.224 239.606 146.876 238.422C146.059 237.606 144.996 237.075 144.179 236.299C140.706 232.911 135.681 232.094 131.146 231.033C125.099 229.645 118.848 229.971 112.883 231.359C106.958 232.502 101.156 234.054 95.3138 235.401C90.8604 236.585 86.3252 237.279 81.7492 237.851C76.0291 238.667 70.3091 239.32 64.5482 239.77C61.1162 240.055 57.6841 240.096 54.293 239.933C56.3358 238.626 58.3379 237.197 60.3399 235.973C64.017 233.727 67.5716 231.686 70.9628 229.073C73.3325 227.318 75.6614 225.562 78.072 223.847C78.9709 223.153 79.9923 222.582 80.8503 221.847C81.9126 221.929 83.0157 221.888 84.078 222.01C84.364 222.01 84.7318 222.214 85.0178 221.969C85.0586 221.929 85.0995 221.847 85.0586 221.765C85.3855 221.765 85.7123 221.806 86.0392 221.847C86.2026 222.296 86.7746 221.888 86.3252 221.643C86.3661 221.602 86.4069 221.561 86.4069 221.48C91.6367 221.724 96.8664 222.419 102.014 221.275C106.795 220.581 111.248 218.663 115.824 217.356C119.379 216.54 122.974 215.846 126.611 215.56C129.879 215.478 133.189 215.111 136.376 215.641C139.889 216.58 143.321 218.173 145.936 220.704C147.203 221.888 148.061 223.48 149.164 224.786C149.287 224.95 149.491 225.154 149.736 225.031C149.777 224.991 149.777 224.991 149.818 224.95C149.573 227.032 149.818 229.155 149.818 231.237C149.94 232.462 149.777 237.932 149.899 242.791Z" fill="#DEDEDE"/>
<path d="M81.544 221.071C81.2989 221.316 81.0537 221.602 80.8086 221.806C79.9506 222.541 78.9291 223.153 78.0303 223.806C75.6197 225.521 73.2908 227.277 70.9211 229.032C67.5708 231.645 63.9753 233.686 60.2981 235.932C58.2553 237.197 56.2532 238.585 54.2512 239.892C53.5158 239.851 52.7804 239.81 52.0449 239.769C54.4964 237.81 57.0295 235.891 59.6853 234.258C64.057 231.727 68.2653 229.073 72.3511 226.011C74.7208 224.419 77.0905 222.622 79.7054 221.398C79.9914 221.275 80.2774 221.112 80.5634 220.989C80.686 220.949 80.7677 220.908 80.8903 220.867C81.0537 220.826 81.1763 220.744 81.3397 220.704C81.5031 220.704 81.6257 220.908 81.544 221.071Z" fill="#697FF4"/>
<path d="M149.735 224.909C149.735 224.786 149.776 224.705 149.776 224.582C149.817 224.705 149.817 224.827 149.735 224.909Z" fill="#697FF4"/>
<path d="M151.616 250.792C151.575 250.792 151.534 250.833 151.534 250.833C151.411 250.874 151.289 250.833 151.207 250.792C151.33 250.792 151.452 250.792 151.616 250.792Z" fill="#526174"/>
<path d="M110.512 236.626C110.553 236.708 110.512 236.789 110.431 236.789C110.022 236.912 109.573 237.034 109.164 237.157C99.8485 239.239 91.1458 243.689 81.6261 244.873C81.5035 244.873 81.4218 244.914 81.2992 244.914C81.1358 244.914 81.0949 244.71 81.2583 244.669C81.4218 244.628 81.6669 244.465 81.8303 244.587C85.7935 243.934 89.5933 242.423 93.393 241.198C98.9905 239.443 104.629 237.932 110.349 236.544C110.39 236.504 110.471 236.544 110.512 236.626Z" fill="#697FF4"/>
<path d="M114.354 238.341C104.711 241.321 95.1097 244.546 85.3856 247.323C85.2222 247.363 85.1405 247.118 85.3039 247.078C87.6328 246.384 89.9208 245.608 92.2088 244.75C96.3354 243.281 100.585 242.342 104.793 241.076C107.98 240.178 111.085 238.912 114.313 238.096C114.476 238.055 114.517 238.3 114.354 238.341Z" fill="#697FF4"/>
<path d="M149.981 250.751C149.94 250.956 149.818 251.078 149.572 251.119C149.286 251.201 148.96 251.037 148.878 250.751C149.246 250.751 149.613 250.751 149.981 250.751Z" fill="black"/>
<path d="M128.572 233.809C126.447 233.727 124.363 233.278 122.239 233.197C119.991 233.197 117.785 233.646 115.538 233.931C115.375 233.972 115.293 233.727 115.456 233.686C115.538 233.646 115.62 233.646 115.701 233.646C117.785 233.401 119.869 232.992 121.953 232.952C124.2 232.911 126.365 233.401 128.572 233.523C128.817 233.523 128.776 233.85 128.572 233.809Z" fill="#697FF4"/>
<path d="M76.5599 242.341C76.5599 242.464 76.519 242.545 76.3964 242.545C75.4976 242.668 74.6396 242.75 73.7816 242.831C72.0656 242.995 70.3087 243.158 68.5927 243.199C68.4292 243.24 68.3475 242.995 68.511 242.954C68.6335 242.913 68.7561 242.913 68.8787 242.913C71.371 242.79 73.8224 242.341 76.3147 242.137C76.4373 242.178 76.519 242.219 76.5599 242.341Z" fill="#697FF4"/>
<defs>
<linearGradient id="paint0_linear_81_244" x1="113" y1="91.9868" x2="194.959" y2="102.563" gradientUnits="userSpaceOnUse">
<stop stop-color="#973AF5"/>
<stop offset="1" stop-color="#4CA6FE"/>
</linearGradient>
<linearGradient id="paint1_linear_81_244" x1="149.057" y1="43" x2="158.504" y2="92.1134" gradientUnits="userSpaceOnUse">
<stop stop-color="#687BF7"/>
<stop offset="1" stop-color="#8050EF"/>
</linearGradient>
</defs>
</svg>
