<svg width="711" height="687" viewBox="0 0 711 687" fill="none" xmlns="http://www.w3.org/2000/svg">
<path d="M475.192 401.527V533.508L361.076 598.04L358.889 468.611L359.982 467.882L475.192 401.527Z" fill="url(#paint0_linear_85_245)"/>
<path d="M475.921 401.528L358.524 469.341L241.127 401.528L358.524 334.079L475.921 401.528Z" fill="url(#paint1_linear_85_245)"/>
<path d="M361.441 471.893V513.821L347.587 505.8L259.722 454.758L242.586 444.914V402.986L259.722 412.83L347.587 463.872L361.441 471.893Z" fill="url(#paint2_linear_85_245)"/>
<path d="M253.888 420.486V444.185L259.721 447.466L341.753 495.956V472.258L253.888 420.486ZM304.93 468.247L259.721 441.632V437.622L304.93 464.237V468.247ZM304.93 460.956L259.721 434.341V430.33L304.93 456.945V460.956ZM311.857 471.529C311.128 472.622 310.034 472.987 309.305 472.258C308.211 471.893 307.847 470.435 308.576 469.341C308.94 468.247 310.399 467.883 311.493 468.612C311.857 469.341 312.222 470.435 311.857 471.529ZM311.857 462.778C311.128 463.872 310.034 464.237 309.305 463.508C308.211 463.143 307.847 461.685 308.576 460.591C308.94 459.497 310.399 459.133 311.493 459.862C311.857 460.591 312.222 462.049 311.857 462.778ZM319.513 475.904C318.784 476.997 317.691 477.362 316.961 476.633C315.868 475.904 315.503 474.81 316.232 473.716C316.961 472.622 318.055 472.258 319.149 472.987C319.878 473.716 320.243 474.81 319.513 475.904ZM319.513 467.154C318.784 468.247 317.691 468.612 316.961 467.883C315.868 467.154 315.503 466.06 316.232 464.966C316.961 463.872 318.055 463.508 319.149 464.237C319.878 464.966 320.243 466.06 319.513 467.154ZM327.534 479.914C326.805 481.008 325.711 481.372 324.618 480.643C323.524 479.914 323.159 478.82 323.889 478.091C324.618 476.997 325.711 476.633 326.441 477.362C327.534 477.727 327.899 479.185 327.534 479.914ZM327.534 471.529C326.805 472.622 325.711 472.987 324.618 472.258C323.524 471.893 323.159 470.435 323.889 469.706C324.618 468.612 325.711 468.247 326.441 468.976C327.534 469.341 327.899 470.435 327.534 471.529ZM335.191 484.289C334.462 485.383 333.368 485.747 332.274 485.018C331.18 484.654 330.816 483.195 331.545 482.102C331.909 481.008 333.368 480.643 334.462 481.372C335.555 482.102 335.92 483.56 335.191 484.289ZM335.191 475.904C334.462 476.997 333.368 477.362 332.274 476.633C331.18 475.904 330.816 474.81 331.545 473.716C331.909 472.622 333.368 472.258 334.462 472.987C335.555 473.716 335.92 474.81 335.191 475.904Z" fill="black"/>
<path d="M335.191 484.289C334.462 485.383 333.368 485.748 332.275 485.018C331.181 484.654 330.816 483.195 331.545 482.102C331.91 481.008 333.368 480.643 334.462 481.373C335.556 482.102 335.92 483.56 335.191 484.289Z" fill="#FF4C4D"/>
<path d="M335.191 475.903C334.462 476.997 333.368 477.362 332.275 476.633C331.181 475.903 330.816 474.81 331.545 473.716C331.91 472.622 333.368 472.258 334.462 472.987C335.556 473.716 335.92 474.81 335.191 475.903Z" fill="#FF4C4D"/>
<path d="M327.535 479.914C326.806 481.008 325.712 481.372 324.618 480.643C323.525 479.914 323.16 478.82 323.889 478.091C324.618 476.997 325.712 476.633 326.441 477.362C327.535 477.726 327.9 479.185 327.535 479.914Z" fill="#FF4C4D"/>
<path d="M327.535 471.529C326.806 472.622 325.712 472.987 324.618 472.258C323.525 471.893 323.16 470.435 323.889 469.706C324.618 468.612 325.712 468.247 326.441 468.977C327.535 469.341 327.9 470.435 327.535 471.529Z" fill="#FF4C4D"/>
<path d="M319.514 475.903C318.785 476.997 317.691 477.362 316.962 476.633C315.868 475.903 315.504 474.81 316.233 473.716C316.962 472.622 318.056 472.258 319.15 472.987C319.879 473.716 320.243 474.81 319.514 475.903Z" fill="#FF4C4D"/>
<path d="M319.514 467.153C318.785 468.247 317.691 468.612 316.962 467.883C315.868 467.153 315.504 466.06 316.233 464.966C316.962 463.872 318.056 463.508 319.15 464.237C319.879 464.966 320.243 466.06 319.514 467.153Z" fill="#FF4C4D"/>
<path d="M311.858 471.528C311.129 472.622 310.035 472.987 309.306 472.258C308.212 471.893 307.847 470.435 308.577 469.341C308.941 468.247 310.4 467.883 311.493 468.612C311.858 469.341 312.223 470.435 311.858 471.528Z" fill="#FF4C4D"/>
<path d="M311.858 462.778C311.129 463.872 310.035 464.237 309.306 463.508C308.212 463.143 307.847 461.685 308.577 460.591C308.941 459.497 310.4 459.133 311.493 459.862C311.858 460.591 312.223 462.049 311.858 462.778Z" fill="#FF4C4D"/>
<path d="M304.93 464.601V468.247L259.356 441.997V437.986L304.93 464.601Z" fill="#FF4C4D"/>
<path d="M304.93 456.945V460.955L259.356 434.341V430.33L304.93 456.945Z" fill="#FF4C4D"/>
<path d="M468.994 436.164V440.174L416.129 470.435V466.789L468.994 436.164Z" fill="black"/>
<path d="M468.994 443.82V447.466L416.129 478.091V474.081L468.994 443.82Z" fill="black"/>
<path d="M468.994 451.476V455.122L416.129 485.747V481.737L468.994 451.476Z" fill="black"/>
<path d="M468.994 458.768V462.778L416.129 493.403V489.393L468.994 458.768Z" fill="black"/>
<path d="M468.994 466.424V470.435L416.129 501.06V497.05L468.994 466.424Z" fill="black"/>
<path d="M468.994 474.081V478.091L416.129 508.352V504.706L468.994 474.081Z" fill="black"/>
<path d="M468.994 481.737V485.383L416.129 516.008V512.362L468.994 481.737Z" fill="black"/>
<path d="M468.994 489.393V493.039L416.129 523.664V519.654L468.994 489.393Z" fill="black"/>
<path d="M468.994 496.685V500.696L416.129 531.321V527.31L468.994 496.685Z" fill="black"/>
<path d="M468.994 504.341V508.352L416.129 538.977V534.967L468.994 504.341Z" fill="black"/>
<path d="M468.994 511.998V516.008L416.129 546.269V542.623L468.994 511.998Z" fill="black"/>
<path d="M438.733 400.798C438.733 407.725 434.358 413.923 426.337 418.663L384.41 443.09C376.389 447.83 365.816 450.017 355.243 450.017C344.67 450.017 334.097 447.83 326.076 443.09L283.784 418.663C275.763 413.923 271.388 407.725 271.388 400.798C271.388 393.871 275.763 387.673 283.784 382.933L326.076 358.506C342.118 349.391 368.003 349.391 384.045 358.506L425.973 382.933C434.358 387.673 438.733 393.871 438.733 400.798Z" fill="black"/>
<path d="M361.441 512.726V554.654L347.587 546.633L259.722 495.591L242.586 485.382V443.819L259.722 453.663L347.587 504.705L361.441 512.726Z" fill="url(#paint3_linear_85_245)"/>
<path d="M253.888 460.955V484.653L259.721 487.935L341.753 536.425V512.726L253.888 460.955ZM304.93 509.081L259.721 482.466V478.82L304.93 505.435V509.081ZM304.93 501.424L259.721 474.809V470.799L304.93 497.414V501.424ZM311.857 511.997C311.128 513.091 310.034 513.456 309.305 512.726C308.211 512.362 307.847 510.904 308.576 509.81C308.94 508.716 310.399 508.351 311.493 509.081C311.857 509.81 312.222 511.268 311.857 511.997ZM311.857 503.612C311.128 504.706 310.034 505.07 309.305 504.341C308.211 503.976 307.847 502.518 308.576 501.424C308.94 500.33 310.399 499.966 311.493 500.695C311.857 501.424 312.222 502.518 311.857 503.612ZM319.513 516.372C318.784 517.466 317.691 517.831 316.961 517.102C315.868 516.372 315.503 515.279 316.232 514.185C316.961 513.091 318.055 512.726 319.149 513.456C319.878 514.185 320.243 515.643 319.513 516.372ZM319.513 507.987C318.784 509.081 317.691 509.445 316.961 508.716C315.868 507.987 315.503 506.893 316.232 505.799C316.961 504.706 318.055 504.341 319.149 505.07C319.878 505.799 320.243 506.893 319.513 507.987ZM327.534 520.747C326.805 521.841 325.711 522.206 324.618 521.477C323.524 520.747 323.159 519.654 323.889 518.924C324.618 517.831 325.711 517.466 326.441 518.195C327.534 518.56 327.899 519.654 327.534 520.747ZM327.534 512.362C326.805 513.456 325.711 513.82 324.618 513.091C323.524 512.726 323.159 511.268 323.889 510.539C324.618 509.445 325.711 509.081 326.441 509.81C327.534 510.174 327.899 511.268 327.534 512.362ZM335.191 525.122C334.462 526.216 333.368 526.581 332.274 525.852C331.18 525.487 330.816 524.029 331.545 522.935C331.909 521.841 333.368 521.477 334.462 522.206C335.555 522.935 335.92 524.029 335.191 525.122ZM335.191 516.737C334.462 517.831 333.368 518.195 332.274 517.466C331.18 516.737 330.816 515.643 331.545 514.549C331.909 513.456 333.368 513.091 334.462 513.82C335.555 514.549 335.92 515.643 335.191 516.737Z" fill="black"/>
<path d="M335.191 525.122C334.462 526.216 333.368 526.581 332.275 525.851C331.181 525.487 330.816 524.029 331.545 522.935C331.91 521.841 333.368 521.476 334.462 522.206C335.556 522.935 335.92 524.028 335.191 525.122Z" fill="#FF4C4D"/>
<path d="M335.191 516.736C334.462 517.83 333.368 518.195 332.275 517.466C331.181 516.736 330.816 515.643 331.545 514.549C331.91 513.455 333.368 513.091 334.462 513.82C335.556 514.549 335.92 515.643 335.191 516.736Z" fill="#FF4C4D"/>
<path d="M327.535 520.747C326.806 521.841 325.712 522.206 324.618 521.477C323.525 520.747 323.16 519.654 323.889 518.924C324.618 517.831 325.712 517.466 326.441 518.195C327.535 518.56 327.9 519.654 327.535 520.747Z" fill="#FF4C4D"/>
<path d="M327.535 512.362C326.806 513.456 325.712 513.82 324.618 513.091C323.525 512.727 323.16 511.268 323.889 510.539C324.618 509.445 325.712 509.081 326.441 509.81C327.535 510.175 327.9 511.268 327.535 512.362Z" fill="#FF4C4D"/>
<path d="M319.514 516.372C318.785 517.466 317.691 517.831 316.962 517.101C315.868 516.372 315.504 515.278 316.233 514.185C316.962 513.091 318.056 512.726 319.15 513.456C319.879 514.185 320.243 515.643 319.514 516.372Z" fill="#FF4C4D"/>
<path d="M319.514 507.987C318.785 509.08 317.691 509.445 316.962 508.716C315.868 507.986 315.504 506.893 316.233 505.799C316.962 504.705 318.056 504.341 319.15 505.07C319.879 505.799 320.243 506.893 319.514 507.987Z" fill="#FF4C4D"/>
<path d="M311.858 511.997C311.129 513.091 310.035 513.456 309.306 512.726C308.212 512.362 307.847 510.903 308.577 509.81C308.941 508.716 310.4 508.351 311.493 509.081C311.858 509.81 312.223 511.268 311.858 511.997Z" fill="#FF4C4D"/>
<path d="M311.858 503.612C311.129 504.706 310.035 505.07 309.306 504.341C308.212 503.977 307.847 502.518 308.577 501.424C308.941 500.331 310.4 499.966 311.493 500.695C311.858 501.424 312.223 502.518 311.858 503.612Z" fill="#FF4C4D"/>
<path d="M304.93 505.07V509.081L259.356 482.83V478.82L304.93 505.07Z" fill="#FF4C4D"/>
<path d="M304.93 497.778V501.424L259.356 475.174V471.163L304.93 497.778Z" fill="#FF4C4D"/>
<path d="M361.077 553.561V595.489L360.712 595.124L358.889 594.031L347.587 587.468L259.722 536.426L242.586 526.217V484.654L259.722 494.498L347.587 545.54L358.889 552.468L361.077 553.561Z" fill="url(#paint4_linear_85_245)"/>
<path d="M253.888 501.79V525.488L259.721 528.769L341.753 577.259V553.561L253.888 501.79ZM304.93 549.915L259.721 523.3V519.29L304.93 545.905V549.915ZM304.93 542.259L259.721 515.644V511.633L304.93 538.248V542.259ZM311.857 552.832C311.128 553.926 310.034 554.29 309.305 553.561C308.211 553.196 307.847 551.738 308.576 550.644C308.94 549.55 310.399 549.186 311.493 549.915C311.857 550.644 312.222 552.103 311.857 552.832ZM311.857 544.446C311.128 545.54 310.034 545.905 309.305 545.175C308.211 544.811 307.847 543.352 308.576 542.259C308.94 541.165 310.399 540.8 311.493 541.53C311.857 542.259 312.222 543.353 311.857 544.446ZM319.513 557.207C318.784 558.301 317.691 558.665 316.961 557.936C315.868 557.207 315.503 556.113 316.232 555.019C316.961 553.926 318.055 553.561 319.149 554.29C319.878 555.019 320.243 556.478 319.513 557.207ZM319.513 548.821C318.784 549.915 317.691 550.28 316.961 549.55C315.868 548.821 315.503 547.728 316.232 546.634C316.961 545.54 318.055 545.175 319.149 545.905C319.878 546.634 320.243 547.728 319.513 548.821ZM327.534 561.582C326.805 562.676 325.711 563.04 324.618 562.311C323.524 561.582 323.159 560.488 323.889 559.759C324.618 558.665 325.711 558.301 326.441 559.03C327.534 559.394 327.899 560.488 327.534 561.582ZM327.534 553.196C326.805 554.29 325.711 554.655 324.618 553.926C323.524 553.561 323.159 552.103 323.889 551.373C324.618 550.28 325.711 549.915 326.441 550.644C327.534 551.009 327.899 552.103 327.534 553.196ZM335.191 565.957C334.462 567.051 333.368 567.415 332.274 566.686C331.18 566.322 330.816 564.863 331.545 563.769C331.909 562.676 333.368 562.311 334.462 563.04C335.555 563.769 335.92 564.863 335.191 565.957ZM335.191 557.571C334.462 558.665 333.368 559.03 332.274 558.301C331.18 557.571 330.816 556.478 331.545 555.384C331.909 554.29 333.368 553.926 334.462 554.655C335.555 555.384 335.92 556.478 335.191 557.571Z" fill="black"/>
<path d="M335.191 565.957C334.462 567.051 333.368 567.416 332.275 566.686C331.181 566.322 330.816 564.863 331.545 563.77C331.91 562.676 333.368 562.311 334.462 563.04C335.556 563.77 335.92 564.863 335.191 565.957Z" fill="#FF4C4D"/>
<path d="M335.191 557.571C334.462 558.665 333.368 559.03 332.275 558.301C331.181 557.571 330.816 556.478 331.545 555.384C331.91 554.29 333.368 553.926 334.462 554.655C335.556 555.384 335.92 556.478 335.191 557.571Z" fill="#FF4C4D"/>
<path d="M327.535 561.582C326.806 562.676 325.712 563.04 324.618 562.311C323.525 561.582 323.16 560.488 323.889 559.759C324.618 558.665 325.712 558.301 326.441 559.03C327.535 559.394 327.9 560.488 327.535 561.582Z" fill="#FF4C4D"/>
<path d="M327.535 553.197C326.806 554.29 325.712 554.655 324.618 553.926C323.525 553.561 323.16 552.103 323.889 551.374C324.618 550.28 325.712 549.915 326.441 550.644C327.535 551.009 327.9 552.103 327.535 553.197Z" fill="#FF4C4D"/>
<path d="M319.514 557.207C318.785 558.301 317.691 558.666 316.962 557.936C315.868 557.207 315.504 556.113 316.233 555.02C316.962 553.926 318.056 553.561 319.15 554.29C319.879 555.02 320.243 556.478 319.514 557.207Z" fill="#FF4C4D"/>
<path d="M319.514 548.821C318.785 549.915 317.691 550.28 316.962 549.551C315.868 548.821 315.504 547.728 316.233 546.634C316.962 545.54 318.056 545.176 319.15 545.905C319.879 546.634 320.243 547.728 319.514 548.821Z" fill="#FF4C4D"/>
<path d="M311.858 552.832C311.129 553.925 310.035 554.29 309.306 553.561C308.212 553.196 307.847 551.738 308.577 550.644C308.941 549.55 310.4 549.186 311.493 549.915C311.858 550.644 312.223 552.103 311.858 552.832Z" fill="#FF4C4D"/>
<path d="M311.858 544.446C311.129 545.54 310.035 545.905 309.306 545.176C308.212 544.811 307.847 543.353 308.577 542.259C308.941 541.165 310.4 540.801 311.493 541.53C311.858 542.259 312.223 543.353 311.858 544.446Z" fill="#FF4C4D"/>
<path d="M304.93 545.905V549.915L259.356 523.665V519.654L304.93 545.905Z" fill="#FF4C4D"/>
<path d="M304.93 538.248V542.259L259.356 516.008V511.998L304.93 538.248Z" fill="#FF4C4D"/>
<path d="M438.599 407.609C438.599 408.338 438.599 408.703 438.599 409.067C438.599 415.994 434.224 422.192 426.203 426.932L384.275 451.359C376.254 456.099 365.681 458.286 355.108 458.286C344.535 458.286 333.962 456.099 325.941 451.359L284.014 426.932C275.993 422.192 271.618 415.994 271.618 409.067C271.618 408.703 271.618 407.973 271.618 407.609L0 0H710.581L438.599 407.609Z" fill="url(#paint5_linear_85_245)" fill-opacity="0.55"/>
<path d="M371.341 464.413L369.827 467.281" stroke="url(#paint6_linear_85_245)" stroke-miterlimit="10"/>
<path d="M234.209 467.281L232.695 464.413" stroke="url(#paint7_linear_85_245)" stroke-miterlimit="10"/>
<defs>
<linearGradient id="paint0_linear_85_245" x1="420.909" y1="412.477" x2="417.04" y2="598.04" gradientUnits="userSpaceOnUse">
<stop stop-color="#FF4C4D"/>
<stop offset="0.649254" stop-color="#300E0E"/>
<stop offset="1"/>
</linearGradient>
<linearGradient id="paint1_linear_85_245" x1="358.524" y1="334.079" x2="358.524" y2="469.341" gradientUnits="userSpaceOnUse">
<stop stop-color="#F94848"/>
<stop offset="1"/>
</linearGradient>
<linearGradient id="paint2_linear_85_245" x1="302.014" y1="402.986" x2="302.014" y2="513.821" gradientUnits="userSpaceOnUse">
<stop stop-color="#F94848"/>
<stop offset="1"/>
</linearGradient>
<linearGradient id="paint3_linear_85_245" x1="302.014" y1="443.819" x2="302.014" y2="554.654" gradientUnits="userSpaceOnUse">
<stop stop-color="#F94848"/>
<stop offset="1"/>
</linearGradient>
<linearGradient id="paint4_linear_85_245" x1="301.831" y1="484.654" x2="301.831" y2="595.489" gradientUnits="userSpaceOnUse">
<stop stop-color="#F94848"/>
<stop offset="1"/>
</linearGradient>
<linearGradient id="paint5_linear_85_245" x1="355.291" y1="0" x2="355.291" y2="458.286" gradientUnits="userSpaceOnUse">
<stop stop-color="#FF4C4D" stop-opacity="0"/>
<stop offset="1" stop-color="#FF4C4D"/>
</linearGradient>
<linearGradient id="paint6_linear_85_245" x1="370.584" y1="464.413" x2="370.584" y2="467.281" gradientUnits="userSpaceOnUse">
<stop stop-color="#FF4C4D" stop-opacity="0"/>
<stop offset="1" stop-color="#FF4C4D"/>
</linearGradient>
<linearGradient id="paint7_linear_85_245" x1="233.452" y1="464.413" x2="233.452" y2="467.281" gradientUnits="userSpaceOnUse">
<stop stop-color="#FF4C4D" stop-opacity="0"/>
<stop offset="1" stop-color="#FF4C4D"/>
</linearGradient>
</defs>
</svg>
