<svg width="300" height="300" viewBox="0 0 300 300" fill="none" xmlns="http://www.w3.org/2000/svg">
<path d="M207.294 190.61L154.623 31" stroke="#FFBB00" stroke-width="4" stroke-miterlimit="10"/>
<path d="M207.293 190.61L265.305 140.176" stroke="#FFBB00" stroke-width="4" stroke-miterlimit="10"/>
<path d="M154.771 31.7417L265.306 140.176" stroke="#FFBB00" stroke-width="4" stroke-miterlimit="10"/>
<path d="M34 168.063L154.771 31.7417" stroke="#FFBB00" stroke-width="4" stroke-miterlimit="10"/>
<path d="M34 168.063L207.294 190.61" stroke="#FFBB00" stroke-width="4" stroke-miterlimit="10"/>
<path d="M34 168.063L111.893 123.265" stroke="#FFBB00" stroke-width="4" stroke-miterlimit="10"/>
<path d="M111.894 123.265L154.772 31.7417" stroke="#FFBB00" stroke-width="4" stroke-miterlimit="10"/>
<path d="M152.842 269.377L207.293 190.61" stroke="#FFBB00" stroke-width="4" stroke-miterlimit="10"/>
<path d="M152.842 269.377L265.305 140.176" stroke="#FFBB00" stroke-width="4" stroke-miterlimit="10"/>
<path d="M152.843 269.377L34 168.063" stroke="#FFBB00" stroke-width="4" stroke-miterlimit="10"/>
<path d="M111.893 123.265L152.842 269.377" stroke="#FFBB00" stroke-width="4" stroke-miterlimit="10"/>
<path d="M111.893 123.266L265.305 140.176" stroke="#FFBB00" stroke-width="4" stroke-miterlimit="10"/>
<path d="M206.918 160.826C204.555 161.218 202.191 162.134 199.959 163.049C197.727 163.964 195.495 165.01 193.132 165.664C188.405 167.233 183.548 168.149 178.69 168.933C178.165 169.064 164.248 169.718 157.945 169.718C156.107 169.718 154.269 169.718 152.431 169.456C150.593 169.064 148.755 168.41 147.048 167.495C146.523 167.233 145.867 166.841 145.341 166.58C145.079 166.318 144.685 166.057 144.422 165.795C148.886 166.71 153.875 167.233 159.127 167.233C176.983 167.233 191.688 161.349 194.314 153.765C196.546 150.366 197.727 146.312 196.152 142.52C195.758 141.474 195.101 140.428 194.314 139.513C194.314 139.382 194.182 139.382 194.182 139.251C192.344 135.851 189.587 132.844 186.173 131.144C185.911 131.013 185.78 130.883 185.78 130.883C179.346 126.175 171.075 124.214 163.197 123.429C154.401 122.645 145.21 123.037 136.676 124.868C127.354 126.698 118.164 130.49 111.205 137.159C111.074 137.29 110.943 137.421 110.943 137.551C110.417 137.813 110.811 138.859 111.468 138.728C113.831 138.336 116.194 137.421 118.426 136.505C120.658 135.59 122.89 134.675 125.254 133.89C129.98 132.321 134.838 131.406 139.696 130.621C140.221 130.49 154.138 129.837 160.44 129.837C162.278 129.837 164.116 129.837 165.954 130.098C167.792 130.49 169.631 131.144 171.469 132.059C171.994 132.321 172.65 132.713 173.175 132.975C174.226 133.759 175.145 134.544 176.064 135.59C169.762 133.498 162.803 133.236 155.845 133.629C148.624 134.021 141.271 134.805 134.838 137.682C133.131 138.336 131.424 139.251 129.717 140.297C124.597 143.828 119.871 150.627 122.496 157.034C122.759 157.819 123.153 158.473 123.678 158.996C125.516 162.788 128.405 165.926 132.212 167.887C132.737 168.279 133 168.541 133.131 168.541C139.564 173.248 147.836 175.21 155.714 175.994C164.51 176.779 173.701 176.386 182.235 174.556C191.556 172.725 200.616 168.933 207.706 162.265C207.837 162.134 207.968 162.003 207.968 161.872C208.099 161.611 207.706 160.695 206.918 160.826Z" fill="url(#paint0_linear_81_217)"/>
<path d="M93.1804 120.214C89.6217 126.489 90.5444 129.562 97.0028 133.147V133.275C93.7077 131.483 91.3352 130.842 89.3581 131.355C87.3811 131.867 85.6676 133.532 83.8223 136.733H83.6905C87.2493 130.458 86.4584 127.385 80 123.928V123.8C86.3266 127.257 89.6217 126.489 93.1804 120.214Z" fill="white"/>
<path d="M168.32 145.896C161.54 149.084 160.344 152.14 163.402 158.915H163.269C161.673 155.328 160.211 153.468 158.217 152.804C156.223 152.007 153.83 152.405 150.373 153.999V153.867C157.153 150.811 158.35 147.756 155.292 140.98H155.425C158.35 147.623 161.54 148.818 168.32 145.896Z" fill="white"/>
<path d="M216.451 131.069C212.892 137.523 213.815 140.684 220.273 144.372V144.504C216.978 142.66 214.606 142.001 212.629 142.528C210.652 143.055 208.938 144.767 207.093 148.06H206.961C210.52 141.606 209.729 138.445 203.271 134.889V134.757C209.597 138.313 212.76 137.391 216.451 131.069Z" fill="white"/>
<path d="M172.601 107C170.874 110.267 171.272 111.836 174.46 113.665C172.734 112.751 171.538 112.489 170.608 112.751C169.546 113.012 168.748 113.927 167.819 115.495C169.678 112.358 169.147 110.659 165.959 108.83C169.147 110.659 170.741 110.267 172.601 107Z" fill="white"/>
<path d="M118.318 169.77C114.858 176.224 115.755 179.385 122.034 183.073V183.204C118.831 181.36 116.524 180.702 114.602 181.229C112.68 181.755 111.014 183.468 109.22 186.76H109.092C112.552 180.307 111.783 177.146 105.504 173.59V173.458C111.655 177.146 114.73 176.224 118.318 169.77Z" fill="white"/>
<path d="M152.764 185.344C151.037 188.612 151.435 190.18 154.623 192.01C152.897 191.095 151.701 190.833 150.771 191.095C149.709 191.356 148.912 192.271 147.982 193.839C149.841 190.703 149.31 189.004 146.122 187.174C149.31 189.004 150.904 188.481 152.764 185.344Z" fill="white"/>
<path d="M267.495 139.741L208.993 190.633L189.192 131.034L155.891 30L267.495 139.741Z" fill="url(#paint1_linear_81_217)"/>
<path d="M210.157 191.656L129.34 181.157L34.0479 168.858L156.781 31.0229L190.254 131.962L210.157 191.656Z" fill="url(#paint2_linear_81_217)"/>
<path d="M208.109 188.698L152.623 268.392L32 166.078L127.292 178.361L208.109 188.698Z" fill="url(#paint3_linear_81_217)"/>
<path d="M265.447 139.476L151.795 270.438L206.972 190.448L265.447 139.476Z" fill="url(#paint4_linear_81_217)"/>
<defs>
<linearGradient id="paint0_linear_81_217" x1="118.396" y1="160.203" x2="221.255" y2="96.7014" gradientUnits="userSpaceOnUse">
<stop stop-color="#FFBB00"/>
<stop offset="1" stop-color="#FFBB00" stop-opacity="0"/>
</linearGradient>
<linearGradient id="paint1_linear_81_217" x1="211.693" y1="30" x2="211.693" y2="190.633" gradientUnits="userSpaceOnUse">
<stop stop-color="#FF4C4D" stop-opacity="0.7"/>
<stop offset="1" stop-color="#FF4C4D" stop-opacity="0"/>
</linearGradient>
<linearGradient id="paint2_linear_81_217" x1="122.102" y1="31.0229" x2="122.102" y2="191.656" gradientUnits="userSpaceOnUse">
<stop stop-color="#FF4C4D" stop-opacity="0.7"/>
<stop offset="1" stop-color="#FF4C4D" stop-opacity="0"/>
</linearGradient>
<linearGradient id="paint3_linear_81_217" x1="120.055" y1="166.078" x2="120.055" y2="268.392" gradientUnits="userSpaceOnUse">
<stop stop-color="#FF4C4D" stop-opacity="0.7"/>
<stop offset="1" stop-color="#FF4C4D" stop-opacity="0"/>
</linearGradient>
<linearGradient id="paint4_linear_81_217" x1="208.621" y1="139.476" x2="208.621" y2="270.438" gradientUnits="userSpaceOnUse">
<stop stop-color="#FF4C4D" stop-opacity="0.7"/>
<stop offset="1" stop-color="#FF4C4D" stop-opacity="0"/>
</linearGradient>
</defs>
</svg>
